<?xml version="1.0" encoding="UTF-8" standalone="no"?>
<!-- Created with Inkscape (http://www.inkscape.org/) -->

<svg
   xmlns:dc="http://purl.org/dc/elements/1.1/"
   xmlns:cc="http://creativecommons.org/ns#"
   xmlns:rdf="http://www.w3.org/1999/02/22-rdf-syntax-ns#"
   xmlns:svg="http://www.w3.org/2000/svg"
   xmlns="http://www.w3.org/2000/svg"
   xmlns:sodipodi="http://sodipodi.sourceforge.net/DTD/sodipodi-0.dtd"
   xmlns:inkscape="http://www.inkscape.org/namespaces/inkscape"
   width="21.26656mm"
   height="18.152674mm"
   viewBox="0 0 75.353953 64.320495"
   id="svg6079"
   version="1.1"
   inkscape:version="0.91 r13725"
   sodipodi:docname="buttonClear.svg">
  <defs
     id="defs6081" />
  <sodipodi:namedview
     id="base"
     pagecolor="#ffffff"
     bordercolor="#666666"
     borderopacity="1.0"
     inkscape:pageopacity="0.0"
     inkscape:pageshadow="2"
     inkscape:zoom="2.8284271"
     inkscape:cx="6.1344607"
     inkscape:cy="-32.002608"
     inkscape:document-units="px"
     inkscape:current-layer="layer1"
     showgrid="false"
     inkscape:snap-global="true"
     fit-margin-top="0"
     fit-margin-left="0"
     fit-margin-right="0"
     fit-margin-bottom="0"
     inkscape:window-width="956"
     inkscape:window-height="1041"
     inkscape:window-x="960"
     inkscape:window-y="18"
     inkscape:window-maximized="0" />
  <metadata
     id="metadata6084">
    <rdf:RDF>
      <cc:Work
         rdf:about="">
        <dc:format>image/svg+xml</dc:format>
        <dc:type
           rdf:resource="http://purl.org/dc/dcmitype/StillImage" />
        <dc:title></dc:title>
      </cc:Work>
    </rdf:RDF>
  </metadata>
  <g
     inkscape:label="Layer 1"
     inkscape:groupmode="layer"
     id="layer1"
     transform="translate(-145.93253,-142.78421)">
    <rect
       style="fill:#f26700;fill-opacity:0.64473683"
       id="rect3344"
       width="61.320698"
       height="55.642857"
       x="154.39009"
       y="146.42865" />
    <g
       id="g344"
       transform="matrix(0.41739889,0,0,-0.34831282,197.34276,185.80453)">
      <path
         d="m 0,0 c -2.151,-9.88 -9.555,-13.312 -16.809,-16.366 -20.678,-8.705 -41.925,-0.26 -50.21,21.692 -9.749,25.841 -0.286,57.412 20.871,70.953 3.246,2.076 7.14,3.863 10.898,4.268 7.225,0.779 14.566,0.439 21.858,0.626 4.085,0.105 7.327,-0.942 7.857,-5.628 0.494,-4.364 -2.629,-8.405 -7.35,-9.097 -2.926,-0.428 -5.964,-0.24 -8.945,-0.134 -6.378,0.234 -11.39,-2.129 -15.682,-6.924 -9.315,-10.409 -13.91,-22.831 -13.481,-36.371 0.205,-6.493 3.303,-13.578 7.011,-19.105 4.768,-7.106 13.621,-7.814 22.443,-3.873 3.284,1.469 6.607,2.883 10.008,4.04 C -6.843,5.677 -3.179,3.933 0,0"
         style="fill:#231f20;fill-opacity:1;fill-rule:evenodd;stroke:none"
         id="path346"
         inkscape:connector-curvature="0" />
    </g>
    <path
       d="m 218.09747,166.83262 c -0.0527,-1.7682 -0.15876,-3.54797 -0.23604,-3.95638 -0.0766,-0.40502 -0.13767,-1.16204 -0.13416,-1.66899 0.004,-0.50966 -0.0583,-3.48612 -0.13697,-6.61344 -0.13628,-5.41472 -0.24587,-7.27127 -0.4847,-8.20904 -0.11731,-0.46211 -1.07193,-1.60784 -1.59527,-1.91637 -0.63924,-0.37511 -3.04373,-0.0836 -3.35844,0.40842 -0.0472,0.0734 -0.51349,0.0938 -1.15272,0.0496 -0.67717,-0.0469 -1.27636,-0.0197 -1.62267,0.0741 -0.32805,0.0883 -1.78916,0.1658 -3.61694,0.19163 -1.68658,0.0237 -3.61341,0.0768 -4.28075,0.11689 -0.67014,0.0414 -1.92964,0.11349 -2.81122,0.16104 -0.88228,0.0477 -1.85517,0.10126 -2.17269,0.11892 -1.70555,0.0959 -17.45597,0.10806 -19.74386,0.015 -1.48219,-0.0604 -3.48418,-0.12844 -4.47253,-0.15221 -0.98414,-0.0237 -2.16285,-0.10738 -2.61945,-0.18553 -1.03542,-0.17738 -4.65657,-0.49472 -5.68706,-0.49812 -0.42148,-0.002 -1.02771,-0.0801 -1.34802,-0.176 -0.40882,-0.12164 -0.64977,-0.13592 -0.81132,-0.049 -0.15947,0.085 -0.33228,0.0795 -0.56197,-0.019 -0.21425,-0.091 -0.61394,-0.11348 -1.12533,-0.0619 -0.43413,0.0442 -0.86122,0.0387 -0.94551,-0.0122 -0.085,-0.0509 -0.64486,-0.11144 -1.25809,-0.13591 -0.61395,-0.0237 -1.41825,-0.10059 -1.80881,-0.1733 -0.38213,-0.0707 -1.16257,-0.1128 -1.7126,-0.0923 -0.99607,0.0366 -1.01434,0.0435 -1.40491,0.51307 -0.30556,0.36696 -0.39617,0.59325 -0.39617,0.98875 l 0,0.51308 -0.57532,-0.0279 c -0.71579,-0.0347 -1.2616,0.17124 -1.35011,0.51034 -0.0379,0.14204 -0.0105,1.68122 0.0591,3.41207 0.0709,1.73557 0.12222,5.51323 0.11521,8.40611 -0.007,2.89288 0.0287,7.50434 0.0793,10.26131 0.13768,7.50366 0.12433,13.04002 -0.0372,15.39061 -0.0793,1.16271 -0.144,2.865 -0.144,3.80822 0,0.93915 -0.0576,1.93878 -0.12785,2.22488 -0.0703,0.28472 -0.18544,1.16204 -0.25569,1.94081 -0.0703,0.77877 -0.18545,1.72948 -0.2557,2.10187 -0.0709,0.37784 -0.19598,1.12466 -0.28097,1.68123 -0.14962,0.97653 -0.14542,1.01049 0.15945,1.37202 0.17773,0.21067 0.4601,0.47025 0.65188,0.60006 0.26834,0.18144 0.3133,0.2759 0.21706,0.45732 -0.0653,0.12368 -0.26202,0.2895 -0.42779,0.36086 -0.4538,0.19638 -0.64978,0.74547 -0.46925,1.31426 0.18897,0.59324 1.04525,1.67849 1.36346,1.7281 0.14471,0.0224 0.42218,0.11214 0.63924,0.2066 0.21284,0.0923 0.63923,0.23037 0.95814,0.3092 0.32174,0.0795 0.83734,0.22086 1.1696,0.32142 0.33225,0.0999 0.83942,0.17873 1.14991,0.17873 0.35474,0 0.77339,0.11213 1.15694,0.3092 0.40813,0.21067 0.798,0.3092 1.22016,0.3092 0.34491,0 0.67366,0.0523 0.74109,0.11755 0.0661,0.0639 0.55564,0.17601 1.07968,0.24737 0.52402,0.0707 1.1471,0.18892 1.374,0.25959 0.2297,0.0721 0.46923,0.0965 0.53667,0.0551 0.0653,-0.0394 0.2873,0.007 0.47907,0.0992 0.19669,0.0951 1.15623,0.23989 2.12774,0.32143 0.9715,0.0816 2.04694,0.20455 2.38343,0.27318 0.77199,0.15766 6.56864,0.19843 9.2773,0.0659 2.40379,-0.11757 4.02576,-0.25415 6.88825,-0.58103 0.56197,-0.0638 1.7126,-0.17397 2.55554,-0.24464 2.09611,-0.17533 3.87613,-0.34657 5.17568,-0.49812 0.99677,-0.11551 4.25898,-0.35743 5.17567,-0.38327 1.12675,-0.0327 6.18511,-0.23444 7.34767,-0.29356 0.74179,-0.038 2.31318,-0.0938 3.51437,-0.12504 1.20121,-0.0307 2.82317,-0.0775 3.62889,-0.10466 1.25246,-0.0428 1.51237,-0.017 1.85307,0.18553 0.21775,0.12843 0.4861,0.23444 0.59427,0.23444 0.10749,0 0.41516,0.10806 0.67085,0.23445 0.54369,0.2691 1.92963,0.32618 2.68407,0.10941 0.40883,-0.11688 1.11129,-0.7645 1.11129,-1.02342 0,-0.0421 0.15103,-0.2657 0.34489,-0.51305 0.27115,-0.34523 0.33859,-0.55045 0.3126,-0.95819 -0.0323,-0.50695 -0.31048,-1.24359 -0.51701,-1.3659 -0.0618,-0.0366 -0.26131,-0.30921 -0.43411,-0.59327 -0.29924,-0.49267 -0.31259,-0.5878 -0.21072,-1.51472 0.0597,-0.54841 0.17068,-1.59492 0.24865,-2.34922 0.078,-0.75365 0.23182,-1.82733 0.34491,-2.4104 0.11378,-0.58373 0.24445,-1.54531 0.29433,-2.16302 0.0491,-0.61229 0.15596,-1.78044 0.23672,-2.59659 0.32735,-3.30061 0.41095,-4.28801 0.52544,-6.15679 0.17281,-2.82015 0.24936,-11.00204 0.13838,-14.73551 z m -4.9804,11.63266 c -0.0681,0.94323 -0.18826,2.80656 -0.26483,4.12967 -0.0773,1.32241 -0.19809,2.94043 -0.26834,3.58465 -0.0703,0.64287 -0.14962,1.39854 -0.17491,1.669 -0.19598,2.07672 -0.47273,4.29276 -0.58022,4.64817 -0.0703,0.2324 -0.12646,0.68024 -0.12646,1.00167 0,1.22389 -0.55493,4.84251 -0.78042,5.09327 -0.0491,0.0544 -1.37961,0.11892 -2.9517,0.14271 -3.39918,0.0523 -6.33685,0.1366 -8.60016,0.24533 -2.49158,0.12026 -3.86839,0.13726 -4.11497,0.0509 -0.12643,-0.0442 -0.3449,-0.0109 -0.48538,0.0742 -0.14401,0.087 -1.17592,0.2161 -2.36376,0.2956 -2.41574,0.16242 -4.41703,0.32823 -6.07061,0.50354 -0.63573,0.0674 -2.1207,0.19912 -3.32191,0.29494 -1.20189,0.0959 -2.57308,0.2297 -3.06761,0.30037 -3.6928,0.52733 -13.99498,0.5178 -15.46242,-0.0136 -0.21705,-0.0781 -0.49381,-0.12505 -0.63851,-0.10737 -0.14332,0.017 -0.53669,-0.0292 -0.89493,-0.10533 -0.35756,-0.0762 -0.72354,-0.15086 -0.83031,-0.16989 -0.89492,-0.15833 -1.30376,-0.25347 -1.917,-0.44783 -0.38353,-0.12163 -0.96445,-0.25619 -1.27776,-0.29629 -1.11198,-0.14134 -1.72803,-0.27997 -2.1474,-0.48316 -0.24235,-0.11688 -0.49032,-0.17602 -0.56196,-0.13319 -0.15314,0.0918 -2.01956,-0.21883 -2.01956,-0.33638 0,-0.0489 0.15102,-0.2596 0.34562,-0.48249 0.31538,-0.36084 0.34349,-0.4818 0.32874,-1.3965 -0.0141,-0.88206 0.2283,-4.2649 0.40953,-5.71167 0.10959,-0.87459 0.44746,-9.81551 0.4552,-12.0533 0.005,-1.19194 -0.0548,-3.85716 -0.13135,-5.93389 -0.12787,-3.47389 -0.14965,-21.56845 -0.0287,-23.4019 l 0.0528,-0.79168 1.4309,-0.0639 c 1.35222,-0.0599 2.70936,-0.0163 8.12808,0.26094 3.09221,0.15834 4.65587,0.23649 7.66727,0.38463 1.36699,0.0679 3.24114,0.1794 4.15292,0.24872 1.4042,0.10601 2.2879,0.15766 4.21753,0.24668 0.45098,0.0204 14.12073,-0.14679 15.71811,-0.19231 0.84295,-0.0237 3.60358,-0.0722 6.13383,-0.10603 2.53024,-0.0339 4.96003,-0.0951 5.39907,-0.1359 0.58795,-0.0544 0.87453,-0.0252 1.08597,0.11145 0.20935,0.13522 0.64557,0.18212 1.60371,0.17328 0.72845,-0.008 1.34521,0.0177 1.38033,0.0551 0.0352,0.0374 0.085,2.23164 0.11028,4.87717 0.0478,5.0192 0.16298,8.74862 0.28027,9.06189 0.0379,0.10194 0.0983,1.16205 0.13348,2.34855 0.0352,1.18718 0.0814,2.18001 0.10185,2.20109 0.10538,0.10126 0.0597,8.78938 -0.0541,10.35916"
       style="fill:#000000;fill-opacity:1;fill-rule:nonzero;stroke:none"
       id="path1048"
       inkscape:connector-curvature="0" />
  </g>
</svg>
