<?xml version="1.0" encoding="UTF-8" standalone="no"?>
<!-- Created with Inkscape (http://www.inkscape.org/) -->

<svg
   xmlns:dc="http://purl.org/dc/elements/1.1/"
   xmlns:cc="http://creativecommons.org/ns#"
   xmlns:rdf="http://www.w3.org/1999/02/22-rdf-syntax-ns#"
   xmlns:svg="http://www.w3.org/2000/svg"
   xmlns="http://www.w3.org/2000/svg"
   xmlns:sodipodi="http://sodipodi.sourceforge.net/DTD/sodipodi-0.dtd"
   xmlns:inkscape="http://www.inkscape.org/namespaces/inkscape"
   width="21.26656mm"
   height="18.152674mm"
   viewBox="0 0 75.353953 64.320495"
   id="svg6079"
   version="1.1"
   inkscape:version="0.91 r13725"
   sodipodi:docname="buttonClear_clear.svg">
  <defs
     id="defs6081" />
  <sodipodi:namedview
     id="base"
     pagecolor="#ffffff"
     bordercolor="#666666"
     borderopacity="1.0"
     inkscape:pageopacity="0.0"
     inkscape:pageshadow="2"
     inkscape:zoom="2.8284271"
     inkscape:cx="-46.191442"
     inkscape:cy="-32.002608"
     inkscape:document-units="px"
     inkscape:current-layer="layer1"
     showgrid="false"
     inkscape:snap-global="true"
     fit-margin-top="0"
     fit-margin-left="0"
     fit-margin-right="0"
     fit-margin-bottom="0"
     inkscape:window-width="1920"
     inkscape:window-height="1080"
     inkscape:window-x="0"
     inkscape:window-y="0"
     inkscape:window-maximized="0" />
  <metadata
     id="metadata6084">
    <rdf:RDF>
      <cc:Work
         rdf:about="">
        <dc:format>image/svg+xml</dc:format>
        <dc:type
           rdf:resource="http://purl.org/dc/dcmitype/StillImage" />
        <dc:title></dc:title>
      </cc:Work>
    </rdf:RDF>
  </metadata>
  <g
     inkscape:label="Layer 1"
     inkscape:groupmode="layer"
     id="layer1"
     transform="translate(-145.93253,-142.78421)">
    <g
       id="g344"
       transform="matrix(0.41739889,0,0,-0.34831282,195.22144,185.80453)">
      <path
         d="m 0,0 c -2.151,-9.88 -9.555,-13.312 -16.809,-16.366 -20.678,-8.705 -41.925,-0.26 -50.21,21.692 -9.749,25.841 -0.286,57.412 20.871,70.953 3.246,2.076 7.14,3.863 10.898,4.268 7.225,0.779 14.566,0.439 21.858,0.626 4.085,0.105 7.327,-0.942 7.857,-5.628 0.494,-4.364 -2.629,-8.405 -7.35,-9.097 -2.926,-0.428 -5.964,-0.24 -8.945,-0.134 -6.378,0.234 -11.39,-2.129 -15.682,-6.924 -9.315,-10.409 -13.91,-22.831 -13.481,-36.371 0.205,-6.493 3.303,-13.578 7.011,-19.105 4.768,-7.106 13.621,-7.814 22.443,-3.873 3.284,1.469 6.607,2.883 10.008,4.04 C -6.843,5.677 -3.179,3.933 0,0"
         style="fill:#231f20;fill-opacity:1;fill-rule:evenodd;stroke:none"
         id="path346"
         inkscape:connector-curvature="0" />
    </g>
    <path
       d="m 220.21611,167.40801 c -0.0554,-1.84028 -0.16696,-3.69259 -0.24824,-4.11765 -0.0806,-0.42153 -0.14478,-1.20941 -0.14109,-1.73702 0.004,-0.53044 -0.0613,-3.62822 -0.14405,-6.88302 -0.14332,-5.63543 -0.25857,-7.56766 -0.50974,-8.54366 -0.12338,-0.48094 -1.12733,-1.67337 -1.67771,-1.99448 -0.67227,-0.3904 -3.20101,-0.087 -3.53198,0.42507 -0.0496,0.0764 -0.54003,0.0976 -1.21229,0.0516 -0.71216,-0.0488 -1.34231,-0.0205 -1.70652,0.0771 -0.345,0.0919 -1.88161,0.17256 -3.80384,0.19944 -1.77373,0.0247 -3.80013,0.0799 -4.50196,0.12165 -0.70476,0.0431 -2.02935,0.11812 -2.95648,0.16761 -0.92787,0.0496 -1.95104,0.10539 -2.28497,0.12377 -1.79368,0.0998 -18.35799,0.11246 -20.7641,0.0156 -1.55878,-0.0629 -3.66422,-0.13368 -4.70365,-0.15842 -1.03499,-0.0247 -2.27461,-0.11175 -2.7548,-0.19309 -1.08893,-0.18461 -4.8972,-0.51489 -5.98094,-0.51842 -0.44326,-0.002 -1.08081,-0.0834 -1.41768,-0.18318 -0.42994,-0.1266 -0.68334,-0.14146 -0.85324,-0.051 -0.16771,0.0885 -0.34945,0.0828 -0.59101,-0.0198 -0.22532,-0.0947 -0.64567,-0.11811 -1.18348,-0.0644 -0.45656,0.046 -0.90572,0.0403 -0.99437,-0.0127 -0.0894,-0.053 -0.67818,-0.11598 -1.3231,-0.14145 -0.64568,-0.0247 -1.49154,-0.10469 -1.90228,-0.18036 -0.40188,-0.0736 -1.22264,-0.1174 -1.8011,-0.0961 -1.04754,0.0381 -1.06675,0.0453 -1.4775,0.53399 -0.32135,0.38191 -0.41665,0.61743 -0.41665,1.02905 l 0,0.53399 -0.60504,-0.029 c -0.75278,-0.0361 -1.3268,0.17822 -1.41988,0.53114 -0.0399,0.14783 -0.011,1.74975 0.0621,3.55115 0.0746,1.80632 0.12854,5.73796 0.12116,8.74876 -0.007,3.0108 0.0302,7.81023 0.0834,10.67958 0.1448,7.80952 0.13076,13.57156 -0.0391,16.01796 -0.0834,1.21011 -0.15144,2.98178 -0.15144,3.96345 0,0.97743 -0.0606,2.01781 -0.13446,2.31557 -0.0739,0.29633 -0.19502,1.20941 -0.2689,2.01992 -0.0739,0.81052 -0.19503,1.79998 -0.26891,2.18755 -0.0746,0.39324 -0.20611,1.1705 -0.29549,1.74976 -0.15735,1.01633 -0.15294,1.05168 0.16769,1.42794 0.18691,0.21926 0.48387,0.48942 0.68556,0.62452 0.28221,0.18884 0.32949,0.28715 0.22828,0.47597 -0.0687,0.12872 -0.27556,0.3013 -0.4499,0.37556 -0.47725,0.20439 -0.68335,0.77586 -0.49349,1.36784 0.19873,0.61742 1.09926,1.74691 1.43391,1.79854 0.15219,0.0233 0.444,0.11671 0.67227,0.21502 0.22384,0.0961 0.67227,0.23976 1.00765,0.3218 0.33837,0.0827 0.88061,0.22986 1.23004,0.33452 0.34942,0.10396 0.8828,0.18602 1.20933,0.18602 0.37307,0 0.81336,0.1167 1.21673,0.3218 0.42922,0.21926 0.83923,0.32181 1.28321,0.32181 0.36273,0 0.70847,0.0544 0.77938,0.12234 0.0695,0.0665 0.58436,0.18318 1.13548,0.25745 0.55109,0.0736 1.20637,0.19662 1.445,0.27017 0.24156,0.075 0.49347,0.10039 0.5644,0.0573 0.0687,-0.041 0.30214,0.007 0.50382,0.10322 0.20686,0.099 1.21598,0.24967 2.23769,0.33453 1.0217,0.0849 2.15272,0.21289 2.50659,0.28432 0.81189,0.16408 6.90807,0.20652 9.7567,0.0686 2.528,-0.12236 4.23379,-0.26451 7.2442,-0.60471 0.591,-0.0664 1.80109,-0.18106 2.68759,-0.25461 2.20443,-0.18248 4.07643,-0.3607 5.44313,-0.51843 1.04828,-0.12022 4.47906,-0.372 5.44312,-0.39889 1.18497,-0.034 6.50472,-0.244 7.72735,-0.30553 0.78012,-0.0395 2.43271,-0.0976 3.69597,-0.13013 1.26329,-0.0319 2.96906,-0.0807 3.81642,-0.10893 1.31717,-0.0446 1.59052,-0.0177 1.94882,0.19309 0.229,0.13367 0.51122,0.244 0.62498,0.244 0.11304,0 0.43661,0.11246 0.70552,0.24401 0.57178,0.28007 2.02934,0.33947 2.82276,0.11387 0.42996,-0.12165 1.16872,-0.79567 1.16872,-1.06514 0,-0.0438 0.15883,-0.27653 0.36271,-0.53396 0.28516,-0.3593 0.35609,-0.57289 0.32875,-0.99725 -0.034,-0.52761 -0.32652,-1.29428 -0.54372,-1.42158 -0.065,-0.0381 -0.27482,-0.32181 -0.45655,-0.61745 -0.3147,-0.51275 -0.32874,-0.61176 -0.22161,-1.57646 0.0628,-0.57077 0.1795,-1.65993 0.2615,-2.44498 0.082,-0.78437 0.2438,-1.90182 0.36274,-2.50865 0.11966,-0.60753 0.25708,-1.6083 0.30954,-2.25119 0.0516,-0.63725 0.16401,-1.85302 0.24895,-2.70243 0.34426,-3.43515 0.43218,-4.4628 0.55259,-6.40776 0.18174,-2.9351 0.26225,-11.4505 0.14553,-15.33615 z m -5.23776,12.10683 c -0.0716,0.98167 -0.19799,2.92096 -0.27851,4.298 -0.0813,1.37631 -0.20833,3.06029 -0.28221,3.73077 -0.0739,0.66907 -0.15735,1.45554 -0.18395,1.73703 -0.2061,2.16137 -0.49716,4.46774 -0.6102,4.83764 -0.0739,0.24187 -0.13299,0.70796 -0.13299,1.0425 0,1.27377 -0.58361,5.0399 -0.82075,5.30088 -0.0516,0.0566 -1.4509,0.12377 -3.10423,0.14853 -3.57483,0.0544 -6.6643,0.14216 -9.04456,0.25532 -2.62034,0.12517 -4.06829,0.14286 -4.32761,0.053 -0.13297,-0.046 -0.36273,-0.0113 -0.51046,0.0772 -0.15146,0.0905 -1.23669,0.22491 -2.48591,0.30765 -2.54057,0.16904 -4.64528,0.34161 -6.3843,0.52407 -0.66858,0.0701 -2.23029,0.20723 -3.49357,0.30696 -1.264,0.0998 -2.70604,0.23906 -3.22613,0.31261 -3.88362,0.54883 -14.71816,0.53891 -16.26142,-0.0141 -0.22827,-0.0813 -0.51933,-0.13014 -0.67151,-0.11174 -0.15073,0.0177 -0.56442,-0.0304 -0.94117,-0.10963 -0.37604,-0.0793 -0.76093,-0.15701 -0.87322,-0.17681 -0.94116,-0.16479 -1.37113,-0.2638 -2.01606,-0.46609 -0.40335,-0.12659 -1.01429,-0.26663 -1.34379,-0.30836 -1.16944,-0.14711 -1.81732,-0.29139 -2.25836,-0.50286 -0.25487,-0.12164 -0.51566,-0.18319 -0.591,-0.13862 -0.16105,0.0955 -2.12392,-0.22775 -2.12392,-0.35009 0,-0.0509 0.15883,-0.27018 0.36348,-0.50216 0.33168,-0.37555 0.36124,-0.50144 0.34573,-1.45342 -0.0148,-0.91802 0.2401,-4.43875 0.43069,-5.94449 0.11525,-0.91024 0.47058,-10.21561 0.47872,-12.54461 0.005,-1.24053 -0.0576,-4.01439 -0.13814,-6.17577 -0.13447,-3.61549 -0.15738,-22.44762 -0.0302,-24.35581 l 0.0555,-0.82395 1.50484,-0.0665 c 1.42209,-0.0623 2.84936,-0.017 8.54809,0.27157 3.252,0.1648 4.89646,0.24613 8.06347,0.40031 1.43763,0.0707 3.40862,0.18672 4.36752,0.25886 1.47676,0.11033 2.40612,0.16409 4.43547,0.25674 0.47428,0.0212 14.8504,-0.15278 16.53033,-0.20015 0.8865,-0.0247 3.78979,-0.0751 6.45079,-0.11035 2.66099,-0.0353 5.21633,-0.099 5.67806,-0.14144 0.61833,-0.0566 0.91972,-0.0262 1.14209,0.11599 0.22016,0.14073 0.67892,0.18954 1.68658,0.18034 0.76609,-0.008 1.41472,0.0184 1.45165,0.0574 0.037,0.0389 0.0894,2.32261 0.11598,5.07597 0.0503,5.2238 0.1714,9.10523 0.29476,9.43127 0.0399,0.1061 0.10341,1.20942 0.14037,2.44428 0.037,1.23558 0.0856,2.26888 0.10712,2.29081 0.11082,0.10539 0.0628,9.14766 -0.0569,10.78142"
       style="fill:#000000;fill-opacity:1;fill-rule:nonzero;stroke:none"
       id="path1048"
       inkscape:connector-curvature="0" />
  </g>
</svg>
