<?xml version="1.0" encoding="UTF-8" standalone="no"?>
<!-- Created with Inkscape (http://www.inkscape.org/) -->

<svg
   xmlns:dc="http://purl.org/dc/elements/1.1/"
   xmlns:cc="http://creativecommons.org/ns#"
   xmlns:rdf="http://www.w3.org/1999/02/22-rdf-syntax-ns#"
   xmlns:svg="http://www.w3.org/2000/svg"
   xmlns="http://www.w3.org/2000/svg"
   xmlns:sodipodi="http://sodipodi.sourceforge.net/DTD/sodipodi-0.dtd"
   xmlns:inkscape="http://www.inkscape.org/namespaces/inkscape"
   id="svg2"
   version="1.1"
   inkscape:version="0.91 r13725"
   xml:space="preserve"
   width="7382.4951"
   height="4007.5154"
   viewBox="0 0 7382.4953 4007.5154"
   sodipodi:docname="hamburger_menu.svg"><metadata
     id="metadata8"><rdf:RDF><cc:Work
         rdf:about=""><dc:format>image/svg+xml</dc:format><dc:type
           rdf:resource="http://purl.org/dc/dcmitype/StillImage" /><dc:title></dc:title></cc:Work></rdf:RDF></metadata><defs
     id="defs6" /><sodipodi:namedview
     pagecolor="#ffffff"
     bordercolor="#666666"
     borderopacity="1"
     objecttolerance="10"
     gridtolerance="10"
     guidetolerance="10"
     inkscape:pageopacity="0"
     inkscape:pageshadow="2"
     inkscape:window-width="956"
     inkscape:window-height="1041"
     id="namedview4"
     showgrid="false"
     fit-margin-top="0"
     fit-margin-left="0"
     fit-margin-right="0"
     fit-margin-bottom="0"
     inkscape:zoom="0.093650794"
     inkscape:cx="4378.3526"
     inkscape:cy="728.22668"
     inkscape:window-x="960"
     inkscape:window-y="18"
     inkscape:window-maximized="0"
     inkscape:current-layer="g5572" /><g
     id="g10"
     inkscape:groupmode="layer"
     inkscape:label="ink_ext_XXXXXX"
     transform="matrix(1.25,0,0,-1.25,1055.6466,8319.2885)"><g
       id="g12"
       transform="matrix(0,-0.549693,0.549693,0,-1033.5171,7021.4296)"><path
         d="m 1115.2614,11054.219 c 0,-1.5 0.848,-2.8 1.817,-2.8 0.972,0 1.82,1.3 1.82,2.8 0,1.4 -0.848,2.7 -1.82,2.7 -0.969,0 -1.817,-1.3 -1.817,-2.7"
         style="fill:#000000;fill-opacity:1;fill-rule:nonzero;stroke:none"
         id="path372"
         inkscape:connector-curvature="0" /><path
         d="m 1093.8394,10653.619 c 0.7,-3.6 11.809,-6.6 13.637,-3.6 1.559,2.5 -4.586,6.7 -9.863,6.7 -3.094,0 -4.192,-0.9 -3.774,-3.1"
         style="fill:#000000;fill-opacity:1;fill-rule:nonzero;stroke:none"
         id="path384"
         inkscape:connector-curvature="0" /><path
         d="m 1118.2344,10650.319 c -1.508,-4 0.609,-8.1 3.574,-7 3.274,1.3 3.274,9.7 0,9.7 -1.359,0 -3.027,-1.2 -3.574,-2.7"
         style="fill:#000000;fill-opacity:1;fill-rule:nonzero;stroke:none"
         id="path386"
         inkscape:connector-curvature="0" /><path
         d="m 1129.2694,10524.619 c -1.726,-1.7 0.363,-4.4 3.453,-4.4 1.36,0 2.547,1.3 2.547,2.8 0,2.7 -3.859,3.7 -6,1.6"
         style="fill:#000000;fill-opacity:1;fill-rule:nonzero;stroke:none"
         id="path392"
         inkscape:connector-curvature="0" /><g
         id="g5572"
         transform="translate(-481.7481,-372.96627)"><g
           transform="translate(-233.10392,-2113.4755)"
           id="g5454"><g
             id="g5790"
             transform="matrix(0.99997349,-0.00728195,0.00728195,0.99997349,-84.960786,-503.12698)"><path
               inkscape:connector-curvature="0"
               id="path554"
               style="fill:#000000;fill-opacity:1;fill-rule:nonzero;stroke:none"
               d="m 3591,7703.57 c -3.45,-2.41 -8.07,-6.66 -10.27,-9.46 -5.71,-7.28 -13.28,-18.79 -13.28,-20.19 0,-0.62 -1.4,-2.64 -3.19,-4.64 -2.88,-3.21 -3.22,-9.28 -3.55,-63.85 -0.19,-33.11 -0.85,-84.52 -1.45,-113.98 -0.6,-29.47 -1.09,-55.72 -1.09,-58.21 0,-2.51 0.53,-34.57 1.18,-71.31 1.01,-57.31 0.79,-68.14 -1.61,-76.41 -3.49,-12.05 -4.88,-32.02 -4.96,-71.31 -0.07,-34.02 -0.01,-34.23 11.93,-39.53 4.01,-1.77 8.29,-4.86 9.54,-6.86 3.28,-5.3 19.39,-5.29 29.58,0.02 4.39,2.29 11.46,3.98 17.83,4.25 13.09,0.56 24.3,5.54 35.65,15.85 l 9.1,8.26 0.45,21.64 c 0.25,11.83 1.12,27.84 1.92,35.3 1.43,13.37 0.39,44.93 -3.03,91.87 -1.93,26.56 -2.79,110.29 -1.25,122.79 0.55,4.49 1.49,12.83 2.09,18.47 0.87,8.18 2.37,11.76 7.37,17.55 4.32,5.02 6.62,9.82 7.38,15.47 1.06,7.82 -1.66,29.23 -4.67,36.74 -2.33,5.83 -5.17,17.81 -5.17,21.83 0,2.02 -1.02,17.47 -2.27,34.57 -1.26,17.1 -2.19,39.67 -2.09,50.48 0.17,18.92 0.02,19.68 -4.55,23.2 -2.55,1.95 -6.66,3.63 -8.91,3.63 -2.89,0 -5.77,2.37 -9.29,7.64 -5.69,8.55 -14.26,11.32 -18.64,6.01 -2.86,-3.48 -7,-3.61 -10.82,-0.32 -1.59,1.36 -6.28,3.04 -10.28,3.68 -6.01,0.97 -8.53,0.38 -13.65,-3.18 z m 23.74,-100.05 c 0,-1.4 1.46,-5.1 3.22,-8.19 4.36,-7.62 1.51,-12.03 -7.58,-11.75 -8.55,0.26 -9.2,1.07 -6.75,8.47 3.33,10.01 11.11,18.04 11.11,11.47 z m 0.73,-36.77 c 4.4,-1.69 3.46,-7.18 -1.64,-9.53 -4.42,-2.04 -4.54,-1.92 -4.54,4.27 0,6.37 1.03,7.24 6.18,5.26 z m -3.55,-29.82 c 0.58,-0.95 0.1,-2.2 -1.18,-3 -1.22,-0.77 -2.5,-0.36 -2.91,0.91 -0.49,1.52 -2.18,0.94 -5.09,-1.73 -3.64,-3.34 -4.37,-3.52 -4.37,-1.09 0,5.09 10.99,9.07 13.55,4.91 z m 4.46,-20.53 c 5.05,1.3 4.73,-2.02 -0.73,-7.49 -5.64,-5.63 -8.19,-5.97 -8.19,-1.09 0,2.19 -0.82,5.38 -1.93,7.46 -2.91,5.46 -0.21,8.16 3.83,3.82 2.2,-2.36 4.66,-3.31 7.02,-2.7 z m -16.19,-26.95 c 0,-6.97 -4.24,-6.37 -5.06,0.73 -0.41,3.45 0.26,4.91 2.24,4.91 1.91,0 2.82,-1.82 2.82,-5.64 z m 16.01,-1.91 c 0.46,-5.27 -0.34,-6.93 -5,-10.37 -5.46,-4.03 -5.55,-4.03 -5.55,-0.36 0,2 0.92,3.73 2,3.73 1.06,0 1.51,1.27 0.95,2.73 -1.47,3.82 2.13,12.16 4.87,11.27 1.2,-0.4 2.43,-3.54 2.73,-7 z m -3.61,-22.83 c -0.36,-2.05 -2.21,-3.28 -4.94,-3.28 -5.28,0 -7.22,3.92 -2.55,5.14 6.37,1.66 8.03,1.25 7.49,-1.86 z m 1.43,-25.29 c -0.61,-1.63 -1.09,-3.62 -1.09,-4.54 0,-0.88 -1.28,-1.64 -2.73,-1.64 -3.28,0 -3.59,3.88 -0.55,6.91 3.15,3.15 5.67,2.73 4.37,-0.73 z m -1.46,-35.65 c -0.42,-1.28 -1.64,-2.49 -2.91,-2.91 -1.36,-0.46 -1.76,0.36 -1.06,2.18 1.25,3.27 5.05,3.97 3.97,0.73 z m 4.95,-17.47 c -0.83,-5.64 -17.32,-7.89 -17.32,-2.36 0,0.99 2.91,2.36 6.37,3 3.45,0.64 6.82,1.93 7.37,2.82 1.52,2.47 4.09,0 3.58,-3.46 z m -12.16,-35.47 c 4.15,-4.44 3.57,-6.73 -1.71,-6.73 -3.09,0 -5.27,3.45 -5.27,8.36 0,3.84 2.38,3.28 6.98,-1.63" /><path
               inkscape:connector-curvature="0"
               id="path562"
               style="fill:#000000;fill-opacity:1;fill-rule:nonzero;stroke:none"
               d="m 3417.18,7656.62 c -6.72,-4.51 -10.41,-8.9 -15.01,-17.82 l -6.1,-11.82 1.55,-19.1 c 0.85,-10.49 1.71,-51.48 1.91,-90.96 0.2,-39.47 0.79,-90.71 1.31,-113.7 1.97,-87.87 2.39,-207.88 0.76,-220.12 -2.8,-21.1 -2.25,-39.01 1.31,-42.94 3.88,-4.27 8.45,-4.24 28.28,0.14 12.91,2.86 18.05,3.18 27.92,1.77 6.73,-0.96 14.28,-1.19 17.01,-0.53 12.74,3.07 24.53,12.82 26.54,21.91 1.16,5.28 -3.38,59.21 -5.24,62.22 -0.87,1.4 -1.26,35.65 -0.95,83.86 0.4,62.04 0.52,60.1 -4.46,71.5 -2.55,5.82 -4.61,12.34 -4.61,14.55 0,2.18 -0.74,5.16 -1.64,6.55 -0.99,1.54 -0.63,4.91 0.91,8.55 1.65,3.87 2.16,9.09 1.46,14.73 -1.39,11.1 -1.32,16.55 0.3,22.93 0.8,3.16 0.35,8.18 -1.12,12.55 -2.21,6.55 -2.15,7.45 0.64,9 2.44,1.37 3.09,4.37 3.09,14.38 0,6.91 -0.74,12.64 -1.64,12.64 -0.98,0 -1.89,-0.69 -2.27,-1.73 -0.38,-1.04 -1.73,-1.07 -3.37,-0.09 -2.18,1.31 -2.26,2.11 -0.36,4 1.27,1.28 3.29,2.37 4.36,2.37 5.78,0 9.15,41.66 5.35,66.03 -1.5,9.65 -1.54,16.37 -0.13,24.56 2.68,15.65 2.66,43.5 -0.04,50.03 -1.28,3.09 -4,5.89 -6.27,6.46 -2.24,0.56 -7,3.04 -10.82,5.64 -6.82,4.64 -6.82,4.64 -17.19,1.64 -5.64,-1.64 -11.33,-3.38 -12.46,-3.82 -1.15,-0.45 -4.36,1.72 -7.11,4.82 -6.38,7.18 -11,7.14 -21.91,-0.2 z m 63.85,-175.9 c 0,-3.34 -3.55,-2.73 -4.27,0.73 -0.41,2 0.23,2.8 1.82,2.27 1.27,-0.42 2.45,-1.87 2.45,-3" /><path
               inkscape:connector-curvature="0"
               id="path564"
               style="fill:#000000;fill-opacity:1;fill-rule:nonzero;stroke:none"
               d="m 3250.18,7646.68 c -6.45,-5.98 -7.46,-6.34 -14.92,-5.24 -8.9,1.31 -12.9,-0.81 -25.56,-13.55 -12.4,-12.48 -13.69,-17.1 -11.82,-42.39 1.56,-21.28 3.09,-87.75 2.41,-104.96 -0.18,-4.52 0.62,-14.1 1.77,-21.38 1.64,-10.37 1.6,-13.77 -0.18,-15.92 -1.67,-2 -1.77,-3.36 -0.37,-5.09 1.23,-1.52 2.3,-26.11 3.01,-68.68 0.76,-46.38 1.82,-69.04 3.54,-75.4 1.34,-4.97 2.95,-18.01 3.55,-28.75 0.73,-13.09 2,-20.94 3.82,-23.55 1.51,-2.17 2.73,-7.73 2.73,-12.47 0,-5.09 1.03,-9.39 2.55,-10.64 2.68,-2.2 5,-12.28 5.67,-24.65 0.83,-15.46 6.43,-46.6 9.13,-50.75 1.54,-2.37 2.67,-5.08 2.48,-5.92 -0.2,-0.82 0.14,-2.82 0.72,-4.27 0.6,-1.48 1.35,-4.73 1.64,-7.09 0.31,-2.45 2.55,-5.84 5.1,-7.72 4.84,-3.56 6.91,-3.23 41.66,6.54 5.45,1.53 11.49,2.81 13.28,2.81 5.35,0 14.75,5.46 19.44,11.28 4.69,5.84 4.92,3.64 -3.19,31.47 -3.38,11.63 -6.14,28.93 -8.61,54.03 -0.5,5.1 -1.73,10.8 -2.73,12.65 -1.01,1.86 -1.9,11.28 -2,21.1 -0.13,12.37 -1.01,19 -2.91,21.92 -2.14,3.28 -2.26,5.05 -0.55,8.19 1.21,2.22 2.24,7.64 2.31,12.19 0.37,24.19 -0.52,44.4 -2.31,52.21 -1.09,4.73 -1.96,11.4 -1.91,14.55 0.05,3.28 -0.74,6.34 -1.82,7 -1.22,0.76 -1.45,5.01 -0.64,11.74 1.08,8.91 0.8,10.82 -1.81,12.28 -2.32,1.3 -2.75,2.82 -1.71,6.09 2.37,7.46 1.43,34.19 -1.31,37.48 -4.2,5.03 -5.18,32.56 -1.53,43.3 2.51,7.39 2.8,11.82 1.54,23.64 -2.03,19.11 -1.75,93.88 0.39,105.34 1.13,6 1.06,11.1 -0.2,15 -1.06,3.28 -1.79,7.38 -1.62,9.19 0.71,7.94 -0.29,9.27 -9.21,12.17 -14.55,4.73 -21.65,3.84 -29.83,-3.75 z m 0.72,-259.11 c 0,-0.89 -1.63,-1.63 -3.63,-1.63 -2,0 -3.64,1.14 -3.64,2.54 0,1.66 1.27,2.23 3.64,1.64 2,-0.5 3.63,-1.64 3.63,-2.55 z m 0.72,-19.1 c 0.62,-1.63 0.51,-3.82 -0.26,-5 -0.71,-1.09 -1.36,-2.66 -1.36,-3.27 0,-0.71 -0.55,-1.73 -1.37,-2.55 -0.75,-0.75 -1.36,2.09 -1.36,6.28 0,7.64 2.27,10.02 4.35,4.54" /></g><g
             id="g5776"
             transform="translate(-108.78183,-839.17412)"><path
               inkscape:connector-curvature="0"
               id="path648"
               style="fill:#000000;fill-opacity:1;fill-rule:nonzero;stroke:none"
               d="m 3430.19,6562.11 c -1.44,-2.72 -3.96,-6.12 -5.55,-7.47 -3.94,-3.34 -3.49,-15.54 1.08,-29.36 4.41,-13.33 5.35,-38.39 3.04,-81.14 -1.26,-23.28 -1.07,-26.43 1.88,-31.84 l 3.27,-6 33.57,-0.18 c 24.2,-0.13 37.27,-1.03 46.84,-3.21 24.02,-5.48 29.72,-3.95 38.39,10.3 4.17,6.85 4.27,8.74 1.14,22.93 -0.51,2.34 -2.97,6.54 -5.33,9.09 -2.34,2.55 -5.37,6.75 -6.54,9.1 -2.19,4.37 -2.19,4.37 -25.84,3.21 -28.38,-1.38 -40.82,0.62 -43.26,6.98 -0.92,2.39 -1.67,16.91 -1.67,32.19 0,29.29 -0.44,32.24 -5.96,39.48 -1.8,2.36 -3.32,6.37 -3.32,8.73 0,2.37 -0.8,5.87 -1.74,7.64 -2.5,4.69 -14.63,12.31 -21.55,13.53 -5.09,0.9 -6.14,0.4 -8.45,-3.98" /><path
               inkscape:connector-curvature="0"
               id="path664"
               style="fill:#000000;fill-opacity:1;fill-rule:nonzero;stroke:none"
               d="m 3415,6355.41 c -10.54,-8.84 -17.36,-33.52 -15.41,-55.71 0.83,-9.32 3.05,-15.65 11.13,-31.66 5.6,-11.09 11.23,-20.7 12.64,-21.56 1.42,-0.85 5.46,-4.32 9.1,-7.78 11.64,-11.09 25.13,-20.81 31.47,-22.68 3.38,-1 12.37,-2.59 19.83,-3.5 14.74,-1.81 33.25,1.05 45.3,7 12.48,6.15 24.52,22.51 30.64,41.61 2.37,7.4 0.83,37.48 -2.43,47.48 -1.43,4.37 -2.56,10.11 -2.56,13.01 0,2.91 -1.91,7.45 -4.37,10.37 -2.45,2.91 -4.65,6.7 -5.02,8.64 -1.22,6.45 -5.89,7.51 -13.17,2.98 -11.04,-6.86 -11.94,-13.9 -5.36,-41.73 3.03,-12.83 1.78,-21.83 -4.86,-34.93 -3.23,-6.37 -4.31,-7.09 -10.52,-7.09 -9.75,0 -13.15,4.36 -13.32,17.1 -0.08,5.63 -0.79,10.59 -1.59,11.09 -1.89,1.18 -7.28,11.83 -7.28,14.38 0,1.09 -3.91,5.78 -8.64,10.36 -4.74,4.6 -12.26,13.01 -16.65,18.65 -5.8,7.46 -10.82,11.68 -18.28,15.37 -5.64,2.8 -12.83,6.91 -15.92,9.12 -7.09,5.05 -8.15,5.01 -14.73,-0.52 z m 34.38,-62.95 c 1.82,-0.98 3.46,-2.64 3.46,-3.5 0,-0.87 0.99,-4 2.13,-6.73 4.96,-11.82 1.9,-18.33 -7.05,-14.96 -3.63,1.37 -11.26,12.6 -8.55,12.6 0.63,0 0.24,1.09 -0.91,2.54 -1.38,1.77 -1.45,4 -0.21,7.28 1.92,5.06 5.31,5.9 11.13,2.77" /><path
               inkscape:connector-curvature="0"
               id="path680"
               style="fill:#000000;fill-opacity:1;fill-rule:nonzero;stroke:none"
               d="m 3408.99,6195.41 c -7.62,-5.13 -11.03,-12.87 -9.58,-21.78 0.56,-3.46 0.15,-8.95 -0.89,-12.01 -2.17,-6.37 -0.99,-10.92 2.83,-10.92 4.01,0 16.49,-6.79 17.39,-9.46 0.44,-1.29 0.02,-4.63 -0.92,-7.36 -0.96,-2.78 -1.45,-11.56 -1.1,-19.74 0.61,-14.01 0.91,-14.93 6.1,-18.65 3.06,-2.19 8.65,-7.19 12.73,-11.37 10.09,-10.33 24.56,-15.58 45.84,-16.63 9.47,-0.47 19.13,-0.03 21.93,0.99 2.73,0.99 7.07,2.26 9.55,2.79 6.59,1.41 23.68,19.22 26.64,27.77 1.33,3.82 2.47,10.37 2.47,14.19 0,5.52 1.48,8.91 6.67,15.28 7.39,9.06 4.97,8.86 40.62,3.32 25.29,-3.94 36.48,-6.37 42.94,-9.36 3.27,-1.51 7.65,-2.69 10,-2.69 4.75,0 36.2,-14.97 44.94,-21.38 5.44,-3.99 5.82,-5 5.82,-15.37 0,-6.19 -0.97,-14.32 -2.18,-18.37 -1.83,-6.08 -3.55,-7.89 -10.47,-11.01 -6.89,-3.11 -11.91,-3.72 -30.1,-3.64 -12.01,0.05 -24.78,0.7 -28.38,1.45 -6.19,1.29 -6.68,1.05 -8.91,-4.36 -2.11,-5.09 -1.98,-6.17 1.09,-9.73 6.85,-7.92 12,-9.89 31.65,-12.11 10.76,-1.21 16.92,-0.83 29.11,1.81 35.11,7.59 55.12,20.13 58.26,36.49 2.3,12.01 2.04,22.2 -0.67,26.2 -1.39,2.05 -3.03,6.19 -3.74,9.46 -0.72,3.28 -2.47,6.82 -4.01,8.1 -1.52,1.26 -4.96,7.18 -7.78,13.37 -5.64,12.37 -7.18,13.79 -16.41,15.3 -5.1,0.83 -6.6,2 -6.79,5.25 -0.36,6.67 -5.95,10.99 -22.14,17.13 -8.37,3.17 -15.69,6.86 -16.19,8.16 -0.48,1.26 -3,2.36 -5.36,2.36 -2.41,0 -7.56,1.55 -11.19,3.37 -4.33,2.16 -12.92,3.79 -24.02,4.55 -9.45,0.65 -23.86,1.73 -31.83,2.39 -18.2,1.51 -25.18,1.44 -34.93,-0.33 -6.37,-1.16 -8.03,-0.88 -8.93,1.49 -1.25,3.27 -9.8,4.21 -12.72,1.39 -0.92,-0.88 -7,-1.02 -13.92,-0.3 -10,1.03 -12.83,2.06 -15.28,5.55 -2.86,4.07 -3.82,4.23 -20.74,3.36 -9.82,-0.5 -19.11,-0.14 -20.83,0.82 -5.15,2.88 -27.83,8.64 -34.02,8.64 -3.33,0 -8.91,-1.96 -12.55,-4.41 z m 74.77,-53.98 c 12.19,-4.88 18.19,-10.4 18.19,-16.74 0,-6.73 -1.06,-8.5 -7.64,-12.69 -3.12,-2 -8.55,-3.14 -14.92,-3.14 -9.09,0 -10.37,0.5 -14.09,5.46 -2.32,3.09 -5.04,5.46 -6.28,5.46 -3.95,0 -9.82,9.46 -9.82,15.83 0,4.73 0.94,6.58 4,7.87 5.44,2.3 22.56,1.15 30.56,-2.05" /><path
               inkscape:connector-curvature="0"
               id="path698"
               style="fill:#000000;fill-opacity:1;fill-rule:nonzero;stroke:none"
               d="m 3425.48,6051.92 c -5.21,-8.37 -5.96,-12.55 -5.09,-28.2 0.65,-11.46 2.02,-16.54 7.52,-27.92 5.46,-11.28 6.73,-15.97 6.73,-24.74 l 0,-10.83 7.28,-3.28 c 10.47,-4.73 9.28,-9.86 -5.64,-24.25 l -6.91,-6.67 -0.55,-20.01 -0.54,-20.01 20.01,-0.91 c 14.73,-0.67 21.64,-1.8 26.19,-4.28 3.4,-1.84 12.01,-4.96 19.11,-6.91 7.09,-1.95 16.85,-6.09 21.64,-9.18 7.65,-4.94 8.67,-6.33 8.2,-11.1 -0.85,-8.73 -7.11,-11.89 -27.66,-13.99 -18.92,-1.93 -22.73,-1.47 -30.2,3.62 -17.46,11.89 -23.05,14.62 -28.93,14.15 -5.36,-0.44 -6.9,-1.78 -11.64,-10.15 -4.77,-8.44 -5.41,-11.28 -5.11,-22.74 0.47,-17.64 2.99,-21.28 14.75,-21.28 4.91,0 11.61,-1.17 14.92,-2.6 8.33,-3.61 38.93,-7.41 59.67,-7.41 13.65,0 19.04,0.81 25.65,3.85 12.19,5.6 21.35,14.51 26.71,25.99 4.19,8.96 4.75,12.37 4.69,28.38 -0.09,21.64 -2.51,27.7 -13.94,34.86 -4.19,2.64 -11.36,7.95 -15.91,11.8 -4.55,3.85 -9.8,7 -11.64,7 -1.9,0 -6.65,1.51 -10.83,3.43 -11.1,5.1 -25.17,7.91 -32.75,6.53 -5.45,-1 -7.55,-0.46 -11.09,2.83 -5.03,4.68 -5.43,6.86 -2.46,13.41 3.55,7.85 9.91,9.12 37.57,7.44 39.66,-2.4 42.05,-2.3 45.82,1.84 4.03,4.41 7.24,15.82 7.17,25.46 -0.04,5.98 -1.47,8.83 -7.97,15.92 l -7.91,8.64 -34.75,0 c -34.38,0 -34.76,0.05 -36.38,4.1 -0.9,2.24 -3.9,10.27 -6.62,17.74 -12.55,34.38 -12.41,34.16 -25.04,41.9 -7.82,4.79 -9.79,4.45 -14.07,-2.43" /><path
               inkscape:connector-curvature="0"
               id="path716"
               style="fill:#000000;fill-opacity:1;fill-rule:nonzero;stroke:none"
               d="m 3742.82,5873.92 c -6.19,-3.03 -9.25,-10.65 -10.48,-26.11 l -1.17,-14.74 6.62,-8.55 c 7.56,-9.75 8.3,-10.03 29.76,-11.08 25.84,-1.27 48.36,-7.01 60.59,-15.44 11.64,-8.03 21.61,-18.61 20.43,-21.69 -0.55,-1.45 -0.97,-3.63 -0.97,-5.09 0,-3.94 -11.28,-15.61 -17.65,-18.26 -13.41,-5.58 -35.29,-1.74 -64.03,11.25 -15.46,6.99 -19.47,8.14 -22.92,6.59 -6.81,-3.04 -12.85,-13.04 -15.23,-25.23 -1.92,-9.82 -1.83,-12.24 0.59,-16.92 4.37,-8.43 14.82,-14.55 24.82,-14.55 5.28,0 9.39,-1.05 10.74,-2.73 1.19,-1.5 5.18,-2.77 8.82,-2.82 3.65,-0.05 9.92,-1.28 13.92,-2.73 4.52,-1.64 14.28,-2.64 25.74,-2.64 15.1,0 20.55,0.79 29.92,4.34 14.56,5.51 29.82,18.75 34.64,30.04 1.94,4.55 4.64,9.62 5.92,11.1 2.92,3.4 6.56,21.47 6.56,32.57 0,8 -2.47,18.39 -5.67,23.82 -0.86,1.46 -2.15,4.01 -2.78,5.47 -3.07,7.09 -19.62,27.33 -24.84,30.36 -8.95,5.2 -25.47,11.05 -37.47,13.27 -6.01,1.12 -15.5,4.03 -21.11,6.48 -5.64,2.47 -11,4.46 -12,4.46 -1.02,0 -6.01,1.93 -11.28,4.36 -10.92,5.03 -25.97,7.17 -31.47,4.47" /><path
               inkscape:connector-curvature="0"
               id="path720"
               style="fill:#000000;fill-opacity:1;fill-rule:nonzero;stroke:none"
               d="m 3474.12,5766.67 c -2.73,-0.78 -6.11,-2.26 -7.28,-3.18 -2.25,-1.78 -10.55,-1.51 -13.82,0.45 -1,0.6 -5.1,0.36 -9.1,-0.54 -5.33,-1.2 -10.15,-4.55 -18.06,-12.56 -17.06,-17.27 -18.79,-22.19 -22.11,-63.12 -2.36,-29.11 -3.67,-31.84 -15.32,-31.84 -12.89,0 -50.2,7.79 -69.13,14.43 -5.82,2.04 -11.77,3.76 -13,3.76 -1.24,0 -5.04,-2.91 -8.32,-6.36 -5.11,-5.38 -11.09,-18.92 -17.43,-39.48 -0.71,-2.3 2.1,-3.91 13.38,-7.64 7.82,-2.59 19.21,-5.22 25.2,-5.82 6,-0.6 17.46,-2.25 25.46,-3.66 18.24,-3.22 66.4,-6.16 100.79,-6.16 57.48,0 89.73,12.24 103.01,39.11 2.52,5.09 6.16,11.17 8.27,13.82 5.57,7.01 6.94,30.75 2.57,44.76 -5.22,16.73 -15.28,30.31 -26.9,36.29 -3.23,1.67 -9.45,5.65 -14.01,8.97 -7.07,5.16 -15.28,9.48 -34.56,18.17 -2.76,1.25 -6.55,1.48 -9.64,0.6 z m 9.64,-48.6 c 10.37,-5.3 27,-19.88 32.98,-28.9 5.3,-8 4.44,-15.22 -2.6,-21.67 -11.28,-10.34 -25.28,-15.05 -51.85,-17.44 -20.91,-1.88 -22.41,-1.8 -26.01,1.46 -3.31,2.99 -3.64,4.54 -2.46,11.64 0.75,4.5 1.24,13.1 1.08,19.1 -0.37,14.01 3.85,28.24 10.46,35.29 4.84,5.15 6.29,5.64 16.84,5.64 9.1,0 13.68,-1.08 21.56,-5.12" /><path
               inkscape:connector-curvature="0"
               id="path734"
               style="fill:#000000;fill-opacity:1;fill-rule:nonzero;stroke:none"
               d="m 3840.32,5686.86 c -4.53,-1.84 -13.46,-3.89 -20.01,-4.59 -20.49,-2.19 -41.9,-14.93 -64.2,-38.21 -8.72,-9.1 -12.2,-16.38 -12.2,-25.47 0,-4.02 -0.04,-12.28 -0.09,-18.46 -0.05,-6.19 0.76,-11.72 1.81,-12.38 1.1,-0.67 1.91,-8 1.91,-17.1 0,-15.28 0.22,-16.12 5.37,-21.1 4.6,-4.44 7.91,-5.53 23.2,-7.64 9.82,-1.36 22.73,-3.76 28.74,-5.37 6,-1.6 15.83,-3.65 21.83,-4.54 6,-0.91 14.19,-2.84 18.19,-4.3 12.56,-4.58 17.66,-4.1 25.83,2.42 7.28,5.81 9.33,10.24 12.3,26.61 0.55,3.1 1.46,7.12 2.07,9.29 0.93,3.24 -0.63,4.78 -10.45,10.27 -8.84,4.94 -15.19,6.93 -27.02,8.46 -22.01,2.84 -31.24,4.68 -35.84,7.14 -2.24,1.2 -6,2.14 -8.55,2.14 -5.65,0 -12,6.55 -12,12.37 0,5.54 12.18,16.63 22.92,20.86 4.41,1.74 15.55,4.13 24.83,5.34 15.1,1.95 17.43,2.78 22.74,8 3.27,3.22 5.46,6.96 4.91,8.37 -0.54,1.38 0.72,6.55 2.75,11.28 5.24,12.19 4.87,15.13 -2.29,18.08 -3.28,1.35 -7.41,4.63 -9.09,7.21 -3.66,5.62 -6.56,5.84 -17.66,1.32" /><path
               inkscape:connector-curvature="0"
               id="path750"
               style="fill:#000000;fill-opacity:1;fill-rule:nonzero;stroke:none"
               d="m 3507.41,5562.83 c -5.46,-2.03 -13.73,-4.38 -18.19,-5.15 -22.74,-3.97 -29.18,-5.38 -32.38,-7.1 -4.91,-2.65 -14.92,-14.38 -14.92,-17.49 0,-1.46 -1.09,-3.2 -2.55,-4.06 -4.03,-2.39 -6.57,-13.23 -6.93,-29.6 -0.37,-16.37 1.1,-23.65 4.75,-23.65 1.28,0 4.22,-2 6.4,-4.37 5.16,-5.58 3.75,-11.46 -5.25,-21.82 l -6.79,-7.83 0.18,-21.1 c 0.12,-14.01 0.95,-21.87 2.46,-23.37 1.47,-1.48 2.27,-8.47 2.27,-19.93 0,-13.46 0.65,-18.18 2.73,-19.92 2.51,-2.09 26.92,-3.29 71.31,-3.49 7.82,-0.04 13.4,-1.17 18.2,-3.7 8.36,-4.41 9.64,-4.44 9.64,-0.18 0,3.02 3.03,10.74 7.43,18.93 0.91,1.68 1.66,7.64 1.66,13.09 0,8.92 -0.59,10.54 -5.45,14.86 -7.32,6.5 -16.92,9.61 -29.11,9.43 -20.19,-0.31 -41.84,3.88 -41.84,8.1 0,8.17 18.19,17.61 34.2,17.75 4.73,0.04 11.35,1.45 14.82,3.16 6.01,2.97 6.4,3.74 8.92,17.93 2.52,14.18 2.47,15.05 -1.18,20.1 -2.31,3.19 -6.92,6.21 -11.65,7.64 -26.92,8.14 -31.8,9.94 -34.93,12.91 -3.45,3.29 -3.48,3.63 -0.52,6.92 4.44,4.92 25.27,14.91 31.09,14.91 8.18,0 24.67,5.59 28.45,9.65 2.8,3 3.56,6.45 3.56,16.1 0,11.09 -0.54,12.9 -5.63,18.74 -4.76,5.44 -6.83,6.44 -13.2,6.36 -4.11,-0.05 -12.09,-1.79 -17.55,-3.82" /><path
               inkscape:connector-curvature="0"
               id="path758"
               style="fill:#000000;fill-opacity:1;fill-rule:nonzero;stroke:none"
               d="m 3735.18,5495.63 c -10.24,-6.8 -16.7,-24.4 -16.64,-45.32 0.07,-20.92 3.13,-28.29 17.18,-41.3 10.73,-9.94 13.28,-11.46 19.28,-11.46 5.64,0 7.62,-1 10.74,-5.45 2.16,-3.09 5.28,-5.46 7.18,-5.46 1.82,0 4.53,-1.42 5.89,-3.09 3.05,-3.73 12.58,-7.82 18.22,-7.82 2.33,0 8.36,-1.73 13.64,-3.91 8.65,-3.58 10.37,-3.72 20.01,-1.64 5.82,1.25 13.57,3.52 17.28,5.07 10.37,4.3 38.65,36.13 40.67,45.77 0.53,2.55 1.77,6.16 2.67,7.83 2.3,4.24 2.22,33.65 -0.1,38.02 -1.05,1.97 -3.94,4.39 -6.31,5.27 -2.41,0.91 -6.36,4.74 -8.82,8.56 -6.34,9.82 -15.12,18.73 -18.46,18.73 -1.52,0 -4.15,-2.18 -5.91,-4.91 -2.7,-4.16 -3.19,-9.1 -3.19,-32.38 l 0,-27.47 -5.25,-6.92 c -6.92,-9.09 -23.14,-16.89 -29.31,-14.09 -4.8,2.17 -11.83,21.37 -11.83,32.29 0,8.57 -11.64,29.53 -21.47,38.64 -11.2,10.4 -16.37,12.91 -28.92,14.06 -8.73,0.8 -11.59,0.28 -16.55,-3.02" /><path
               inkscape:connector-curvature="0"
               id="path772"
               style="fill:#000000;fill-opacity:1;fill-rule:nonzero;stroke:none"
               d="m 3812.22,5345.53 c -10.01,-1.41 -19.08,-2.92 -20.29,-3.37 -1.27,-0.48 -2.7,-0.28 -3.43,0.46 -3.13,3.17 -62.24,3.75 -82.8,0.81 -17.82,-2.55 -37.59,-11.23 -49.11,-21.58 -8.56,-7.68 -12.74,-19.44 -12.74,-35.81 0,-10.19 0.37,-11.09 7.28,-17.83 6.28,-6.12 8.37,-7.09 15.28,-7.09 4.73,0 8.88,-1.05 10.14,-2.55 2.2,-2.64 13.33,-7.22 22.24,-9.16 2.55,-0.55 6.16,-3.21 7.82,-5.76 3.06,-4.67 2.97,-4.91 -7.71,-20.56 -11.97,-17.54 -12.79,-19.82 -15.09,-42.02 -1.56,-15.1 -1.51,-15.38 3.98,-23.83 4.58,-7.06 7.73,-9.53 18.1,-14.19 6.91,-3.1 13.49,-5.64 14.64,-5.64 1.18,0 3.36,-1.11 5,-2.55 1.61,-1.4 11.46,-6.36 22.01,-11.07 20.2,-9.01 52.96,-24.93 59.13,-28.71 1.99,-1.23 10.37,-6.55 18.55,-11.79 13.1,-8.39 16.07,-9.55 24.29,-9.55 9.04,0 9.72,0.36 19.38,10.37 11.06,11.46 15.09,19.1 15.09,28.56 0,5.42 -1.18,6.99 -9.55,12.64 -5.43,3.68 -14.64,7.76 -21.37,9.46 -6.55,1.67 -16.29,5.01 -21.83,7.5 -18.56,8.33 -20.98,9.28 -27.11,10.59 -3.31,0.71 -14.28,4.96 -24.47,9.48 -10.19,4.51 -22.54,9.4 -27.56,10.91 -5.09,1.53 -10.13,3.55 -11.46,4.6 -2.49,1.97 -2.97,10.13 -0.79,13.41 2.52,3.78 12.25,7.56 27.71,10.79 8.56,1.78 16.97,4.52 18.83,6.13 1.85,1.6 6.58,7.82 10.51,13.82 8.46,12.92 9.45,21.82 3.05,27.5 -6.4,5.68 -26.02,13.58 -37.84,15.23 -5.82,0.82 -12.06,2.25 -13.92,3.21 -1.88,0.97 -7.37,1.85 -12.46,2 -8.01,0.24 -9.95,1.12 -16.19,7.37 l -7.1,7.09 4.01,6.37 c 2.28,3.64 6.49,7.3 9.82,8.55 6.33,2.37 29.65,5.74 38.57,5.56 2.99,-0.06 19.83,-0.65 37.29,-1.31 56.94,-2.17 64.54,-1.92 70.22,2.29 2.7,2 5.98,6.65 7.28,10.29 1.29,3.64 4.18,9.1 6.38,12.1 4.15,5.63 3.7,11.09 -0.93,11.09 -1.47,0 -5.82,2.09 -9.45,4.55 -6.23,4.2 -8.19,4.54 -26.02,4.37 -10.55,-0.1 -27.48,-1.34 -37.38,-2.73" /><path
               inkscape:connector-curvature="0"
               id="path774"
               style="fill:#000000;fill-opacity:1;fill-rule:nonzero;stroke:none"
               d="m 3525,5334.25 c -11.16,-20.47 -16.32,-22.75 -48.15,-21.3 -38.02,1.73 -40.53,1.52 -46.21,-3.97 -4.56,-4.42 -5.09,-6.2 -5.09,-17.12 0,-9.86 -1.12,-14.55 -5.82,-24.56 -5.02,-10.64 -5.84,-14.46 -5.92,-27.38 -0.08,-13.82 0.29,-15.41 4.73,-20.1 2.59,-2.73 6.21,-7.91 7.83,-11.19 1.7,-3.45 5.52,-7.11 8.82,-8.46 3.27,-1.33 7.73,-4.43 10.19,-7.09 2.35,-2.55 5.92,-4.73 7.73,-4.73 1.82,0 4.78,-0.76 6.46,-1.64 13.6,-7.23 21.64,-9.54 36.38,-10.46 14.01,-0.87 17.74,-0.42 29.84,3.61 19.28,6.43 26.13,10.98 32.77,21.77 8.84,14.37 9.05,27.47 0.8,50.03 -3.32,9.09 -5.36,11.48 -13.38,15.62 -8.53,4.4 -9.38,10.57 -2.76,19.85 6.59,9.23 9.07,16.56 10.67,31.66 1.37,12.91 0.2,15.24 -10.46,20.69 -10.37,5.3 -13.12,4.52 -18.43,-5.23 z m -38.87,-74.24 c 6.18,-1.59 12.51,-3.92 14,-5.17 1.53,-1.27 6.73,-4.55 11.83,-7.46 10.92,-6.22 11.56,-7.04 10.41,-13 -2.09,-10.8 -26.24,-15.67 -38.97,-7.87 -3.28,2.01 -7.25,3.72 -8.74,3.78 -5.04,0.17 -15.87,11.54 -17.93,18.82 -2.21,7.82 -1.59,9.69 3.93,11.91 5.96,2.41 13.28,2.11 25.47,-1.01" /><path
               inkscape:connector-curvature="0"
               id="path786"
               style="fill:#000000;fill-opacity:1;fill-rule:nonzero;stroke:none"
               d="m 3264.09,5146.51 c -3.27,-2.02 -5.91,-5.18 -5.91,-7.1 0,-1.92 -2.02,-7.82 -4.56,-13.28 -5.4,-11.64 -6.03,-24.46 -1.26,-25.84 22.48,-6.51 28.93,-7.12 61.67,-5.84 l 33.11,1.3 4.64,-6.91 c 2.56,-3.82 4.64,-8.14 4.64,-9.64 0,-1.52 1.92,-8.01 4.3,-14.56 9.46,-25.96 11.84,-34.01 19.18,-64.76 2.92,-12.19 6.16,-23.72 7.28,-25.83 3.55,-6.73 2.3,-16.6 -2.75,-21.65 l -4.54,-4.55 -34.02,1.09 c -18.74,0.6 -36.64,1.58 -39.84,2.17 -11.5,2.12 -13.91,-1.07 -21.96,-29.09 l -4.61,-16.01 5.56,-5.55 5.54,-5.55 19.74,2.18 c 14.17,1.57 39.75,1.78 90.69,0.73 114.97,-2.36 143.02,-2.05 148.63,1.66 7.33,4.84 15.9,19.08 18.81,31.27 2.43,10.19 2.39,11.28 -0.53,13.28 -1.82,1.25 -3.96,2.84 -5.01,3.72 -3.98,3.36 -8.36,3.78 -20.19,1.97 -17.11,-2.63 -24.92,-3.1 -69.31,-4.19 l -38.75,-0.95 -2.82,4.36 c -1.97,3.06 -3.03,10.28 -3.54,24.11 -0.49,13.09 -1.92,23.41 -4.28,30.65 -1.95,6 -4.16,15.01 -4.91,20.01 -0.74,4.93 -3.32,13.56 -5.64,18.83 -2.32,5.28 -4.27,10.98 -4.27,12.46 0,1.46 -1.7,5.09 -3.64,7.82 -4.29,6.01 -7.61,21.47 -5.47,25.47 0.83,1.54 3.01,4.16 5.01,6.01 3.29,3.03 5.73,3.12 33.38,1.18 16.42,-1.15 50.67,-2.13 76.14,-2.18 l 46.29,-0.1 5.19,5.83 c 4.56,5.11 5.14,7.09 4.82,16.37 -0.2,5.82 0.24,11.53 0.98,12.73 2.07,3.36 -0.61,8.93 -4.98,10.35 -2.2,0.71 -32.2,1.3 -66.77,1.3 -34.56,0 -72.97,0.69 -85.5,1.54 -12.48,0.85 -42.02,1.88 -65.49,2.28 -26.56,0.45 -49.3,1.83 -60.03,3.63 -9.46,1.6 -17.7,2.91 -18.2,2.91 -0.5,0 -3.54,-1.62 -6.82,-3.63" /></g></g></g><g
         id="g5554"
         transform="matrix(0.99932321,-0.03678494,0.03678494,0.99932321,-480.27609,31.226911)"><path
           inkscape:connector-curvature="0"
           id="path550"
           style="fill:#000000;fill-opacity:1;fill-rule:nonzero;stroke:none"
           d="m 1581.43,7728 c -11.83,-1.31 -16.92,-5.65 -16.92,-14.43 0,-5.48 1.54,-8.02 9.55,-15.64 5.28,-5.02 12.69,-11.46 16.55,-14.37 3.84,-2.89 10.14,-10.1 13.92,-15.92 6.03,-9.28 6.79,-11.6 5.92,-18.1 -0.78,-5.76 -2.82,-9.16 -9.01,-14.92 -10.92,-10.18 -24.92,-17.64 -33.11,-17.64 -3.64,0 -7.74,-1.01 -8.92,-2.19 -2.62,-2.63 -30.37,-5.41 -55.3,-5.54 -14.91,-0.08 -18.55,0.52 -24.92,4.16 -9.15,5.23 -10.57,9.39 -12.1,35.4 -0.66,11.1 -2.32,24.02 -3.73,29.02 -1.39,4.91 -2.54,11.19 -2.54,13.82 0,2.73 -1.46,6.72 -3.37,9.19 -1.88,2.45 -4,6.37 -4.82,8.91 -0.81,2.54 -4.64,7.66 -8.64,11.56 -6.19,6.03 -8.05,6.87 -13.37,6.03 -8.37,-1.3 -17.1,-7.78 -17.1,-12.67 0,-4.61 4.39,-24.2 9.31,-41.48 1.87,-6.55 3.42,-14.03 3.42,-16.46 0,-2.37 0.77,-5.27 1.64,-6.19 0.9,-0.95 2,-6.18 2.45,-11.64 0.71,-8.55 0.25,-10.49 -3.36,-14.1 -4.79,-4.79 -9.1,-5.26 -14.01,-1.53 -1.92,1.46 -8.82,3.14 -15.56,3.8 -6.65,0.65 -18.64,3.11 -26.64,5.46 -8.01,2.35 -19.06,4.81 -24.56,5.46 -5.44,0.64 -14.74,2.76 -20.38,4.64 -5.71,1.9 -20.01,4.6 -31.83,6 -19.84,2.35 -22.03,2.3 -28.75,-0.73 -3.95,-1.78 -10.52,-6.64 -14.37,-10.64 l -7.09,-7.37 1.09,-13.28 c 0.98,-12 1.65,-13.75 6.91,-18.17 5.82,-4.9 21.56,-9.88 26.01,-8.23 1.38,0.5 5.83,0.2 9.65,-0.65 8.88,-1.98 36.93,-5.65 47.84,-6.27 13.64,-0.77 26.09,-2.83 32.75,-5.41 5.75,-2.24 19.82,-4.33 50.02,-7.44 12.56,-1.3 22.24,-4.26 23.34,-7.13 0.85,-2.24 -1.72,-38.02 -3.57,-49.67 -1.15,-7.29 -0.85,-7.97 6.8,-14.91 4.36,-3.97 9.57,-7.28 11.46,-7.28 5.27,0 15.64,7.24 15.64,10.92 0,1.82 1.55,4.54 3.27,5.75 4.25,2.98 5.74,8.8 7.64,29.72 1.07,11.82 2.27,16.78 4.46,18.37 1.98,1.45 11.55,2.24 28.11,2.35 31.47,0.2 66.33,4.83 71.86,9.56 0.97,0.83 3.09,1.56 4.54,1.56 5.93,0 22.56,10.16 32.39,19.79 11.09,10.88 25.93,37.08 25.86,45.7 -0.02,2.53 0.49,9.46 1.15,15.64 1,9.37 0.43,13.19 -3.63,24.47 -2.63,7.28 -5.49,14.24 -6.28,15.28 -0.82,1.07 -1.94,3.91 -2.56,6.46 -1.43,5.93 -16.36,22.97 -23.27,26.55 -2.96,1.54 -8.28,2.82 -12.1,2.92 -3.82,0.1 -8.03,0.71 -9.55,1.37 -1.53,0.66 -6.92,0.72 -12.19,0.14" /><path
           inkscape:connector-curvature="0"
           id="path582"
           style="fill:#000000;fill-opacity:1;fill-rule:nonzero;stroke:none"
           d="m 1601.74,7527.11 c -3.49,-5.24 -3.2,-9.65 1.9,-28.75 3.16,-11.82 3.15,-12.36 -0.2,-17.91 -1.91,-3.16 -7,-8.3 -11.37,-11.47 l -7.91,-5.73 -55.12,0 c -51.67,0 -55.37,-0.21 -58.95,-3.45 -2.18,-1.98 -3.86,-4.32 -3.91,-5.46 -0.05,-1.11 -3.69,-5.64 -8.18,-10.19 -6.48,-6.55 -8.1,-9.46 -8.1,-14.55 0,-8.01 -1.09,-9.61 -9.1,-13.38 -3.45,-1.62 -8.78,-4.95 -11.64,-7.27 -4.9,-3.97 -5.33,-5.36 -6.09,-19.56 -0.84,-15.82 2.63,-33.46 7.55,-38.38 1.32,-1.33 3.42,-4.37 4.76,-6.91 5.65,-10.74 31.58,-40.03 35.44,-40.03 1.21,0 3.97,-1.91 6.18,-4.27 2.17,-2.31 7.1,-5.19 10.74,-6.28 3.64,-1.08 9.53,-4.09 12.82,-6.55 3.35,-2.49 10.74,-5.86 16.38,-7.45 5.64,-1.6 12.74,-3.74 15.73,-4.73 3.02,-1.01 12.37,-2.29 20.92,-2.87 18.02,-1.22 40.85,3.34 56.58,11.29 11.28,5.7 28.56,22.41 34.56,33.42 2.39,4.36 5.33,9.74 6.48,11.82 2.49,4.52 3.41,31.29 1.47,42.93 -1.58,9.46 -11.89,24.83 -17.77,26.47 -10.37,2.88 -30.38,12.54 -30.38,14.65 0,1.89 13.65,18.34 20.92,25.21 1.11,1.06 4.35,5.53 7.28,10.08 4.34,6.74 5.47,10.92 6.37,23.65 0.6,8.55 0.44,17.9 -0.37,20.92 -0.78,2.94 -1.45,9.19 -1.45,13.55 0,5.82 -1.35,10.04 -4.78,15.01 -5.12,7.41 -6.14,7.93 -19.05,9.72 -7.83,1.09 -8.82,0.79 -11.71,-3.53 z m -51.78,-118.96 c 6.54,-1.02 13.85,-2.77 16.37,-3.94 10.91,-5.05 16.31,-8.7 20.8,-14.09 2.73,-3.27 6.36,-6.3 8.3,-6.91 1.92,-0.6 7.15,-6.64 11.74,-13.55 6.65,-10.01 8.28,-14.04 8.28,-20.47 0,-10.33 -7.65,-19.83 -21.11,-26.24 -9.47,-4.52 -10.64,-4.64 -33.02,-3.32 -22.37,1.32 -23.83,1.65 -41.38,9.55 -10.01,4.5 -20.49,9.89 -23.29,11.98 -14.92,11.14 -19.26,16.1 -22.14,25.31 -1.65,5.28 -4.14,11.64 -5.62,14.37 -5.4,9.95 2.84,27.75 13.57,29.34 8.56,1.27 55.31,-0.13 67.5,-2.03" /><path
           inkscape:connector-curvature="0"
           id="path606"
           style="fill:#000000;fill-opacity:1;fill-rule:nonzero;stroke:none"
           d="m 1454.63,7252.78 c -4.55,-2.52 -10.19,-8.26 -10.19,-10.38 0,-0.89 -2.88,-5.09 -6.37,-9.27 -3.48,-4.19 -6.36,-9.17 -6.36,-11.01 0,-1.82 -0.75,-3.83 -1.64,-4.37 -0.89,-0.54 -3.04,-7.36 -4.73,-15 -4.42,-20.02 -1.5,-54.75 5.24,-62.22 1.63,-1.82 2.95,-4.08 2.95,-5.1 0,-8.5 32.92,-36.46 62.94,-53.44 10.73,-6.08 12.42,-6.77 21.65,-8.88 10.01,-2.28 44.65,-0.06 48.76,3.14 1.19,0.93 6.73,3.23 12.18,5.06 5.46,1.84 11.33,4.44 12.92,5.73 1.64,1.34 3.66,2.37 4.64,2.37 0.95,0 8.64,7.09 17.16,15.82 16.31,16.74 29.95,38.5 34.53,55.13 3.12,11.28 2.51,41.33 -0.99,49.66 -3.07,7.28 -23.18,28 -29.69,30.59 -4.37,1.73 -12.96,-0.74 -15.25,-4.39 -2.2,-3.52 -1.49,-9.1 2.15,-16.74 1.9,-4 3.5,-9.08 3.55,-11.28 0.05,-2.18 0.92,-4.5 1.91,-5.09 0.99,-0.6 1.82,-7.46 1.82,-15.1 0,-16.74 -4.87,-29.02 -16.65,-42.03 -7.74,-8.54 -23.16,-18.37 -28.83,-18.37 -7.1,0 -10.98,6.01 -14.72,22.74 -2.03,9.1 -4.83,18.92 -6.29,22.11 -1.43,3.09 -2.64,7.4 -2.64,9.36 0,5.98 -16.01,32.48 -22.92,37.95 -3.62,2.85 -11.28,9.73 -17.1,15.36 -5.82,5.62 -14.06,11.82 -18.38,13.84 -9.46,4.42 -24.96,6.41 -29.65,3.81 z m 32.2,-60.08 c 2.73,-1.9 4.91,-4.11 4.91,-4.96 0,-0.85 4.19,-4.67 9.28,-8.46 5.64,-4.21 10.35,-9.45 12.01,-13.37 1.49,-3.54 4.29,-9.92 6.2,-14.1 4.46,-9.83 4.35,-13.58 -0.57,-18.2 -4.8,-4.54 -10.36,-5.45 -20.91,-3.45 -6.23,1.18 -9.3,3.36 -16.56,11.73 -4.89,5.64 -11.31,12.82 -14.23,15.92 -6.18,6.55 -9.78,13.79 -9.78,19.65 0,17.83 14.9,25.49 29.65,15.24" /><path
           inkscape:connector-curvature="0"
           id="path612"
           style="fill:#000000;fill-opacity:1;fill-rule:nonzero;stroke:none"
           d="m 1617.27,7041.93 c -3.49,-0.89 -14.2,-3.2 -23.65,-5.09 -9.46,-1.9 -22.64,-4.76 -29.11,-6.32 -11.49,-2.78 -52.94,-8.39 -90.05,-12.2 -10.01,-1.02 -20.08,-2.64 -22.38,-3.59 -2.27,-0.94 -8.91,-1.73 -14.55,-1.73 -9.31,0 -26.38,-2.45 -52.21,-7.5 -4.95,-0.96 -14.28,-2.4 -20.47,-3.14 -6.18,-0.74 -12.36,-2.36 -13.55,-3.55 -1.19,-1.19 -5.82,-2.18 -10.19,-2.18 -8,0 -29.66,-4.6 -35.47,-7.53 -1.64,-0.83 -4.12,-1.56 -5.28,-1.56 -4.41,0 -21.24,-9.28 -26.39,-14.56 -9.33,-9.55 -15.59,-24.19 -15.81,-36.93 -0.16,-9.64 0.55,-12.24 4.91,-17.92 2.79,-3.64 7.72,-7.58 10.91,-8.73 3.28,-1.18 8.21,-3.17 11.28,-4.54 10.19,-4.57 34.97,-11.92 40.2,-11.92 2.92,0 7.61,-1.23 10.47,-2.73 2.91,-1.53 7.14,-2.73 9.64,-2.73 2.47,0 6.64,-1.09 9.37,-2.46 2.72,-1.36 8.27,-2.9 12.46,-3.45 4.1,-0.55 11.37,-3.25 15.92,-5.92 7.27,-4.27 8.36,-5.72 8.36,-11.1 0,-7.37 -3.63,-9.6 -23.46,-14.39 -7.44,-1.8 -20.83,-6.38 -29.93,-10.25 -9.09,-3.87 -19.39,-7.03 -23.01,-7.06 -7.46,-0.07 -18.96,-3.82 -23.29,-7.61 -1.65,-1.45 -5.45,-3.27 -8.18,-3.92 -10.48,-2.5 -26.62,-22.8 -31.29,-39.36 -0.71,-2.54 -2.29,-5.75 -3.58,-7.27 -2.34,-2.78 -3.02,-5.1 -6.6,-22.56 l -1.83,-8.92 7.73,-7.91 c 4.27,-4.36 9.4,-8.4 11.46,-9 2.07,-0.61 6.37,-3.08 9.64,-5.55 3.24,-2.44 16.01,-7.8 28.2,-11.82 12.19,-4.04 23.6,-8.53 25.2,-9.92 1.58,-1.38 4.91,-2.59 7.28,-2.64 2.36,-0.05 5.99,-1.3 7.91,-2.73 1.89,-1.41 5.46,-2.64 7.64,-2.64 2.18,0 4.56,-0.71 5.09,-1.54 0.55,-0.84 5.1,-1.96 10.01,-2.46 5.64,-0.57 11.25,-2.57 15.01,-5.37 7.55,-5.61 21.83,-11.73 31.47,-13.49 4,-0.73 9.32,-2.31 11.82,-3.51 2.45,-1.18 7.37,-2.74 10.65,-3.37 3.27,-0.63 8.24,-2.87 10.73,-4.82 2.54,-2 6.11,-3.64 7.91,-3.64 1.81,0 13.28,-2.07 25.65,-4.64 12.38,-2.56 28.48,-5.73 36.02,-7.09 7.56,-1.36 24.2,-5.02 37.3,-8.19 13.09,-3.17 27.7,-6.62 32.74,-7.73 5.1,-1.12 10.3,-3 11.83,-4.27 1.54,-1.29 5.09,-2.67 8.18,-3.19 2.98,-0.49 10.01,-2.66 15.47,-4.76 9.43,-3.63 31.65,-9.43 45.66,-11.93 5.68,-1.02 7.09,-0.43 13.1,5.4 10.9,10.6 12.57,14.2 12.71,27.48 0.17,16.27 -3.44,19.85 -24.36,24.15 -8.36,1.72 -17.09,4.13 -19.28,5.32 -2.17,1.19 -6,2.19 -8.37,2.19 -2.39,0 -12.91,2.46 -23.28,5.45 -10.37,2.99 -24.68,7.12 -31.66,9.13 -12.31,3.54 -48.02,11.32 -68.22,14.86 -18.01,3.16 -37.16,7.36 -45.11,9.9 -4.37,1.39 -10.64,2.5 -14.19,2.5 -3.46,0 -8.2,1.16 -10.37,2.55 -2.2,1.39 -8.92,3.52 -14.92,4.73 -6,1.2 -12.35,2.91 -14.1,3.82 -1.82,0.93 -4.12,1.63 -5.36,1.63 -2.9,0 -18.74,6.22 -35.12,13.79 -13.28,6.14 -21.67,9.27 -31.1,11.6 -10.55,2.61 -42.98,18.61 -44.04,21.73 -1.2,3.53 9.29,12.26 18.75,15.61 26.74,9.48 48.96,17.96 51.12,19.52 1.11,0.8 6.37,2.93 11.82,4.8 5.36,1.84 15.28,5.96 21.83,9.06 13.07,6.2 40.75,13.65 61.86,16.65 15.28,2.17 19.6,4.53 27,14.77 5.31,7.34 6.16,10 8.23,25.83 1.1,8.37 0.86,8.99 -5.67,15.01 -5.09,4.68 -8.46,6.3 -13.28,6.37 -3.59,0.04 -10.1,0.85 -14.65,1.81 -4.58,0.97 -12.18,2.57 -17.28,3.64 -5.01,1.06 -17.83,2.89 -28.56,4.1 -16.19,1.81 -20.09,2.85 -23.2,6.18 -4.42,4.73 -10.62,5.47 -12.19,1.46 -1.34,-3.46 -6.63,-3.54 -13,-0.21 -2.7,1.42 -12.19,3.46 -21.1,4.55 -18.92,2.3 -25.83,5.66 -22.89,11.12 1.08,2 2.99,3.64 4.24,3.64 1.25,0 3.15,2.36 4.23,5.27 2.87,7.75 12.96,11.94 34.79,14.42 10.37,1.19 20.44,3.05 22.56,4.18 4.55,2.43 39.66,7.4 56.03,7.94 6.55,0.21 13.83,1.34 16.01,2.48 3.09,1.62 4.81,1.6 7.55,-0.09 2.82,-1.73 6.64,-1.7 18.65,0.18 8.39,1.32 22.37,2.73 31.47,3.19 9.1,0.45 22.03,1.67 29.1,2.72 7.1,1.07 17.98,2.56 24.57,3.37 6.48,0.8 22.92,2.81 36.38,4.47 27.83,3.41 32.74,5.13 39.08,13.72 4.96,6.73 6.37,20.99 2.22,22.38 -1.45,0.48 -2.1,4.54 -1.91,12.01 0.26,11.27 0.26,11.27 -6.1,13.91 -7.06,2.92 -18.01,3.18 -27.83,0.64" /><path
           inkscape:connector-curvature="0"
           id="path676"
           style="fill:#000000;fill-opacity:1;fill-rule:nonzero;stroke:none"
           d="m 1551.32,6199.91 -6.82,-5.73 0,-16.55 c 0,-14.37 0.59,-17.56 4.49,-24.2 4.85,-8.25 8.97,-10 23.52,-10 4.19,0 8.43,-0.79 9.37,-1.73 0.96,-0.96 10.28,-3.03 20.83,-4.64 10.55,-1.61 23.18,-3.64 28.2,-4.55 5.05,-0.91 14.64,-1.68 21.56,-1.72 7.09,-0.06 14.57,-1.24 17.37,-2.75 5.6,-3.01 28.2,-11.23 34.75,-12.63 5.67,-1.22 12.73,-12 12.73,-19.46 0,-4.38 -1.73,-7.25 -7.73,-12.83 -4.18,-3.89 -10.23,-8.24 -13.19,-9.49 -14.39,-6.08 -51.12,-9.47 -70.95,-6.55 -21.83,3.22 -48.54,8.55 -54.57,10.9 -2,0.77 -8.28,1.9 -13.92,2.5 -10.19,1.09 -10.32,1.04 -15.37,-5.64 -4.05,-5.34 -5.25,-9.09 -5.81,-18.19 -0.98,-15.64 0.09,-18.65 9.45,-26.54 6.64,-5.6 10.27,-7.09 21.37,-8.75 7.28,-1.09 14.2,-2.63 15.19,-3.38 3.35,-2.54 36.39,-5.41 42.75,-3.71 1.51,0.4 14.56,0.07 29.11,-0.73 24.56,-1.36 27.26,-1.18 39.11,2.6 25.59,8.15 37.14,17.23 55.04,43.24 6.18,8.98 6.67,10.73 7.17,25.47 0.69,20.01 2.08,21.63 20.57,23.96 10.73,1.35 14.47,1.15 18.46,-0.95 2.75,-1.45 9.19,-2.64 14.28,-2.64 5.28,0 12.18,-1.45 16.01,-3.36 3.72,-1.86 13.64,-4.83 22.19,-6.64 8.56,-1.81 18.64,-4.38 22.56,-5.73 3.93,-1.36 11.64,-2.54 17.28,-2.64 7.47,-0.14 12.02,-1.35 17.02,-4.55 3.82,-2.44 7.66,-4.36 8.73,-4.36 1.04,0 3.73,-1.16 5.91,-2.55 2.24,-1.43 8,-2.99 13.1,-3.55 5,-0.55 14.01,-2.77 20.01,-4.93 9.86,-3.55 18.19,-5.3 50.21,-10.58 5.57,-0.92 15.91,-4.65 22.83,-8.23 6.91,-3.58 13.55,-6.55 14.64,-6.55 1.11,0 2.94,-1.18 4.1,-2.64 1.13,-1.43 5.91,-3.92 10.46,-5.45 4.55,-1.53 9.69,-4.02 11.28,-5.44 9.46,-8.53 21.97,-19.02 27.65,-23.19 5.13,-3.77 6.92,-6.58 7.55,-11.85 0.45,-3.82 0.46,-8.21 0.03,-9.82 -1.11,-4.08 -14.5,-10.07 -27.96,-12.52 -13.09,-2.37 -21.2,-5 -25.28,-8.19 -4.18,-3.27 -16.92,-6.4 -26.02,-6.4 -4.55,0 -14.01,-1.16 -20.74,-2.55 -6.8,-1.4 -20.55,-3.58 -30.56,-4.85 -19.65,-2.49 -23.36,-4.05 -34.57,-14.53 -3.96,-3.72 -11.82,-9.25 -17.28,-12.18 -8.18,-4.39 -10.1,-6.33 -10.55,-10.64 -0.44,-4.3 0.46,-5.87 4.82,-8.46 2.91,-1.73 7.03,-3.18 9.01,-3.18 2,0 4.51,-1.07 5.59,-2.37 2.57,-3.12 45.89,-5.19 60.26,-2.88 5.51,0.88 16.56,2.02 24.56,2.52 8.01,0.5 18.65,2.42 23.65,4.27 4.94,1.83 14.46,3.95 20.83,4.64 6.37,0.69 14.56,2.48 17.92,3.91 3.46,1.48 7.71,2.64 9.64,2.64 1.82,0 4.97,0.86 6.64,1.82 1.75,1 8.28,3.45 14.47,5.44 11.28,3.62 16.19,6.37 35.47,19.87 15.37,10.77 17.04,14.89 16.47,40.73 -0.31,14.55 -1.28,22.75 -3.01,25.46 -1.41,2.22 -3.11,6.65 -3.82,9.92 -0.7,3.27 -2.04,6.4 -3,7 -0.94,0.6 -4.3,6.55 -7.38,13.1 -7.8,16.56 -24.52,33.86 -39.1,40.46 -6.19,2.8 -11.64,5.91 -12.32,7.02 -1.91,3.15 -12.06,7.92 -20.06,9.43 -15.1,2.84 -23.63,5.65 -38.02,12.49 -8.19,3.89 -17.57,7.37 -21.11,7.83 -3.45,0.44 -8.86,1.73 -11.82,2.81 -3.01,1.11 -11.37,3.72 -18.65,5.83 -7.28,2.1 -13.63,4.59 -14.19,5.54 -0.55,0.96 -3.36,1.74 -6.27,1.74 -2.92,0 -5.73,0.73 -6.28,1.63 -0.55,0.91 -3.64,2.2 -6.91,2.91 -3.25,0.7 -10.83,3.32 -16.83,5.82 -6.01,2.5 -15.42,5.65 -20.92,7.01 -5.5,1.35 -16.56,4.01 -24.56,5.91 -8.01,1.9 -20.28,4.48 -27.29,5.73 -7,1.25 -19.28,3.87 -27.29,5.82 -8,1.95 -27.65,4.74 -43.66,6.18 -16.01,1.46 -31.56,2.97 -34.56,3.37 -3.02,0.4 -14.01,1.6 -24.56,2.67 -27.11,2.75 -47.32,7.44 -53.3,12.38 -2.69,2.22 -8.83,4.59 -13.56,5.24 -4.73,0.64 -16.46,3.2 -25.92,5.63 -13.27,3.43 -23.83,4.7 -45.48,5.46 l -28.2,1 -6.82,-5.73" /><path
           inkscape:connector-curvature="0"
           id="path700"
           style="fill:#000000;fill-opacity:1;fill-rule:nonzero;stroke:none"
           d="m 1539.04,5972.88 c -5.56,-6.73 -5.62,-7 -4.36,-19.56 0.7,-7.09 1.11,-16.03 0.9,-20.19 -0.2,-4.11 1.36,-14.74 3.46,-23.65 2.96,-12.55 3.72,-21.1 3.37,-38.02 -0.5,-24.75 1.34,-33.54 8.65,-41.12 4.19,-4.35 6.63,-5.27 13.9,-5.27 4.92,0 10.36,-0.81 12.28,-1.82 1.94,-1.02 23.02,-2.22 47.94,-2.73 24.37,-0.5 46.7,-1.75 49.39,-2.77 6.73,-2.56 32.2,-5.27 38.39,-4.08 8.14,1.56 25.73,21.4 29.12,32.87 3.67,12.37 2.52,16.8 -6.02,23.27 -6.55,4.96 -7.73,5.17 -43.21,7.56 -20.01,1.34 -51.91,2.61 -70.67,2.79 -42.93,0.42 -40.3,-1.75 -41.83,34.41 -0.94,22.2 -1.88,28.21 -6.38,40.93 -7.84,22.2 -9.53,24.2 -20.38,24.2 -8,0 -9.48,-0.7 -14.55,-6.82" /><path
           inkscape:connector-curvature="0"
           id="path726"
           style="fill:#000000;fill-opacity:1;fill-rule:nonzero;stroke:none"
           d="m 1029.66,5755.94 c 0,-2 1.15,-3.64 2.55,-3.64 1.66,0 2.23,1.27 1.64,3.64 -0.5,2 -1.65,3.64 -2.55,3.64 -0.9,0 -1.64,-1.64 -1.64,-3.64" /><path
           inkscape:connector-curvature="0"
           id="path728"
           style="fill:#000000;fill-opacity:1;fill-rule:nonzero;stroke:none"
           d="m 1711.23,5750.3 c -5.75,-6.14 -6.64,-8.28 -6.64,-15.92 0,-6.91 1.12,-10.24 5.18,-15.37 4.62,-5.83 5.44,-8.92 7.56,-28.2 3.69,-33.65 0.53,-48.02 -14.37,-65.49 -4.64,-5.44 -12.92,-13.32 -18.57,-17.65 -9.41,-7.22 -11.28,-7.91 -24.55,-8.98 -19.65,-1.59 -28.76,1.51 -29.61,10.08 -0.37,3.69 0.98,8.73 3.5,13.09 3.79,6.57 4.02,8.83 3.18,30.11 -0.5,12.74 -1.76,24.64 -2.82,26.65 -1.05,2.01 -5.74,12.37 -10.46,23.11 -5.27,12 -10.22,20.54 -12.92,22.28 -2.43,1.57 -7.64,7.01 -11.76,12.28 -9.47,12.1 -17.16,15.7 -33.9,15.87 -12.73,0.14 -13.3,-0.05 -20.46,-6.59 -4,-3.66 -7.37,-7.86 -7.37,-9.19 0,-1.33 -1.59,-5.55 -3.45,-9.18 -2.63,-5.12 -3.53,-11.1 -3.74,-24.93 -0.52,-33.84 0.33,-41.94 4.88,-46.75 2.23,-2.37 4.13,-5.41 4.13,-6.64 0,-1.25 2.04,-6.28 4.55,-11.19 2.5,-4.91 4.55,-10.14 4.55,-11.64 0,-1.52 2.02,-4.91 4.54,-7.64 2.53,-2.73 4.55,-6.82 4.55,-9.19 0,-2.58 2.64,-6.62 6.64,-10.19 3.64,-3.24 7.96,-7.39 9.55,-9.19 1.65,-1.85 5.28,-4.41 8.37,-5.91 3.02,-1.46 10.73,-7.09 17.28,-12.62 16.44,-13.89 34.93,-22.46 51.49,-23.88 16.01,-1.36 31.89,1.64 43.3,8.18 9.27,5.33 44.18,41.72 48.18,50.25 1.44,3.05 4.93,9.45 7.94,14.55 3,5.09 5.4,11.54 5.45,14.64 0.05,3.09 1.1,6.56 2.37,7.83 1.63,1.62 2.27,10.64 2.27,31.74 0,25.83 -0.51,31.04 -4.16,42.2 -5.76,17.65 -12.74,31.84 -15.67,31.84 -1.34,0 -3.7,1.64 -5,3.46 -1.44,2.02 -5.55,3.83 -9.92,4.36 -6.73,0.82 -8.1,0.22 -14.09,-6.18 z m -124.16,-60.76 c 1.64,-1.65 2.91,-4.73 2.91,-7.1 0,-2.26 1.54,-6.18 3.37,-8.55 10.41,-13.46 12.08,-25.69 4.56,-33.29 -7.5,-7.56 -10.52,-6.19 -22.49,10.19 -9.85,13.46 -10.91,15.8 -10.91,24.01 0,6.91 0.94,10.1 3.92,13.28 4.61,4.91 14.41,5.68 18.64,1.46" /><path
           inkscape:connector-curvature="0"
           id="path746"
           style="fill:#000000;fill-opacity:1;fill-rule:nonzero;stroke:none"
           d="m 1034.03,5616.31 c -1.07,-0.72 -2.47,-3.27 -3,-5.45 -0.83,-3.38 -0.27,-4.09 3.18,-4.09 2.73,0 4.54,1.39 5.2,4 1.52,6 -0.95,8.54 -5.38,5.54" /><path
           inkscape:connector-curvature="0"
           id="path752"
           style="fill:#000000;fill-opacity:1;fill-rule:nonzero;stroke:none"
           d="m 1683.67,5533.94 c -11.83,-5.82 -19.1,-11.55 -19.1,-15.04 0,-1.21 7.09,-8.7 15.82,-16.72 22.38,-20.54 27.79,-26.84 35.7,-41.5 3.91,-7.27 8.1,-14.31 9.41,-15.82 6.13,-7.08 6.49,-26.75 0.66,-34.93 -8.18,-11.47 -26.2,-23.18 -35.76,-23.26 -2.37,-0.01 -5.93,-0.96 -8.19,-2.18 -6.71,-3.61 -62.76,-2.12 -80.04,2.12 -7.83,1.93 -15.26,4.35 -16.56,5.42 -2.65,2.17 -3.5,9.17 -3.14,25.72 0.17,7.64 -0.97,12.93 -4.32,20.1 -2.46,5.28 -4.54,11.98 -4.54,14.65 0,2.68 -1.2,7.64 -2.64,10.91 -1.43,3.25 -3.13,9.1 -3.71,12.73 -1.1,6.92 -12.78,19.65 -18.03,19.65 -9.83,0 -14.21,-2.57 -18.34,-10.73 -3.63,-7.2 -4.01,-9.64 -2.76,-17.47 0.81,-5.09 2.82,-12.29 4.57,-16.37 9.2,-21.46 8.77,-42.45 -0.94,-45.49 -4.27,-1.35 -26.19,4.01 -37.29,9.11 -4.96,2.28 -13.65,5.18 -19.1,6.37 -5.46,1.19 -11.91,2.92 -14.19,3.82 -2.32,0.9 -6.09,1.63 -8.46,1.63 -2.38,0 -7.18,1.22 -10.83,2.73 -3.81,1.59 -15.55,3.22 -28.1,3.91 l -21.56,1.18 -6.73,-6.19 c -12.19,-11.24 -14.97,-35.09 -5.3,-45.47 4.49,-4.82 5.03,-4.91 29.41,-5 13.64,-0.05 28.52,-0.87 33.01,-1.83 10.56,-2.24 33.11,-8.32 43.67,-11.77 20,-6.54 27.28,-8.43 36.92,-9.58 14.74,-1.78 21.29,-6.2 21.29,-14.39 0,-4.18 1.73,-8.85 4.8,-12.91 6.97,-9.23 14.12,-8.68 25.03,1.92 9.14,8.88 12.01,9.56 27.84,6.59 32.2,-6.04 42.43,-6.76 70.58,-5.03 23.47,1.45 22.78,1.27 43.66,11.25 11.83,5.65 19.53,10.88 27.75,18.83 6.18,5.99 11.36,12.37 11.36,14.01 0,1.7 1.98,5.36 4.55,8.46 2.58,3.09 5.02,7.54 5.64,10.27 0.6,2.66 2.23,8.1 3.63,12.1 3.25,9.35 6.2,28.38 6.2,40.03 0,11.09 -10.06,32.2 -20.29,42.57 -3.55,3.6 -8.15,9.82 -10.23,13.82 -3.38,6.52 -20.97,22.72 -36.07,33.21 -7.59,5.28 -12.18,5.02 -25.28,-1.43" /><path
           inkscape:connector-curvature="0"
           id="path778"
           style="fill:#000000;fill-opacity:1;fill-rule:nonzero;stroke:none"
           d="m 1681.85,5280.53 c -11.73,-5.7 -19.35,-13.96 -25.48,-27.6 -2.7,-6 -6.42,-14.19 -8.27,-18.19 -1.85,-4.01 -3.81,-9.53 -4.37,-12.28 -0.55,-2.78 -4.39,-8.64 -8.64,-13.19 -5.94,-6.37 -8.93,-8.19 -13.46,-8.19 -9.26,0 -12.05,4.92 -14.53,25.65 -1.22,10.19 -3.14,19.31 -4.3,20.47 -1.12,1.13 -5.82,2.09 -10.18,2.09 -7.1,0 -8.89,-0.85 -14.48,-6.91 -7.43,-8.05 -11.42,-22.38 -12.1,-43.48 -0.41,-12.74 -0.07,-14.12 5.11,-20.74 2.99,-3.82 6.08,-9.28 6.7,-11.82 4.16,-17.11 34.86,-29.81 50.33,-20.84 2.58,1.5 6.91,3.79 10.01,5.28 2.98,1.45 10.03,7.46 15.55,13.28 7.99,8.42 11.94,14.92 18.92,31.11 7.84,18.19 9.75,21.14 17.19,26.52 11.52,8.33 12.74,8.6 29.84,6.57 17.28,-2.05 33.11,-8.29 44.75,-17.65 l 8,-6.43 -1.09,-12.38 c -0.75,-8.55 -2.54,-14.84 -5.78,-20.37 -6.18,-10.55 -6.27,-20.07 -0.22,-24.06 5.4,-3.56 10.19,-2.43 20.01,4.72 7.01,5.1 13.4,13.88 22.3,30.62 3.75,7.04 4.26,10.55 4.26,29.29 l 0,21.28 -5.91,6.55 c -3.29,3.64 -8.26,9.46 -11.19,13.1 -3.66,4.53 -11.01,9.32 -23.92,15.55 -10.19,4.92 -20.01,9.01 -21.65,9.01 -1.69,0 -5.55,1.35 -8.82,3.09 -4.27,2.27 -11.65,3.26 -27.66,3.73 -20.01,0.58 -22.59,0.27 -30.92,-3.78" /><path
           inkscape:connector-curvature="0"
           id="path790"
           style="fill:#000000;fill-opacity:1;fill-rule:nonzero;stroke:none"
           d="m 1591.16,5072.01 c -8.18,-8.71 -8.46,-9.37 -8.46,-20.1 0,-8.19 1.24,-13.75 4.73,-21.2 l 4.73,-10.09 43.12,0.58 c 55.3,0.73 67.27,-0.11 73.67,-5.22 2.74,-2.18 9.1,-5.28 14.37,-7 6.53,-2.14 13.56,-6.77 22.65,-14.92 12.74,-11.42 13.19,-12.12 13.19,-20.29 0,-7.59 -0.87,-9.36 -8.6,-17.37 -13.01,-13.47 -50.34,-31.8 -72.35,-35.52 -15.83,-2.67 -41.24,-2.09 -47.3,1.09 -16.93,8.87 -35.24,-7.59 -38.37,-34.52 -1.11,-9.46 -1.11,-9.46 6.44,-14.64 4.19,-2.87 8.16,-6.32 8.92,-7.73 1.04,-1.95 6.09,-2.48 21.37,-2.24 34.39,0.52 41.3,1.19 55.3,5.32 7.47,2.19 17.36,5.09 21.84,6.38 4.54,1.31 11.82,4.06 16.37,6.18 4.55,2.12 9.16,3.82 10.37,3.82 2.74,0 14.92,7.83 19.83,12.74 2,2 4.45,3.66 5.45,3.68 2.37,0.07 11.65,8.44 11.65,10.51 0,0.92 2.09,3.53 4.82,6 2.64,2.39 8.4,11.73 12.73,20.65 7.08,14.55 7.92,17.66 7.92,29.29 0,7.09 -1.12,16.23 -2.46,20.1 -1.35,3.89 -3.03,11.73 -3.73,17.37 -1.24,10.01 -1.13,10.39 4.19,14.16 6.54,4.66 12.38,4.92 18.19,0.84 2.78,-1.97 10.37,-3.61 20.92,-4.54 9.14,-0.8 25.1,-3.62 35.66,-6.29 20.73,-5.25 27.06,-6.68 46.38,-10.48 7.1,-1.4 14.75,-3.6 17.29,-4.96 2.47,-1.34 7.46,-3.09 10.91,-3.82 3.5,-0.76 9.64,-2.11 13.65,-3.01 4,-0.9 9.89,-2.99 13.09,-4.64 3.28,-1.69 7.34,-3 9.28,-3 4.19,0 19.76,-6.66 21.26,-9.09 0.62,-1.01 4.21,-1.82 8.03,-1.82 4.55,0 8.04,-1.25 10.19,-3.64 1.8,-2 4.83,-3.64 6.73,-3.64 5.74,0 12.99,-4.73 22.03,-14.37 7.17,-7.64 8.53,-10.2 8.53,-16.01 0,-7.64 -0.55,-8.29 -23.1,-27.51 -12.73,-10.85 -21.11,-14.88 -30.93,-14.88 -3.83,0 -15.82,-1.25 -26.92,-2.82 -11.1,-1.56 -23.66,-3.24 -28.2,-3.77 -11.46,-1.32 -23.37,-6.96 -25.31,-11.96 -4.01,-10.37 -9.47,-21.03 -13.07,-25.47 -4.26,-5.28 -3.58,-14.19 1.09,-14.19 1.45,0 2.73,-0.85 2.73,-1.82 0,-4.73 9.27,-6.09 43.66,-6.41 30.56,-0.28 36.23,0.1 40.93,2.77 3,1.7 10.37,4.48 16.37,6.19 6.01,1.69 15.42,5.05 20.92,7.45 5.46,2.39 12.07,4.79 14.55,5.3 5.91,1.19 23.29,18.35 26.7,26.36 2.79,6.55 9.85,16.65 16.15,23.1 2.14,2.2 8.06,12.1 13.1,21.92 8.39,16.38 9.19,19.02 9.3,30.65 0.14,14.2 -2.23,26.89 -5.21,27.93 -1.04,0.36 -1.82,1.73 -1.82,3.18 0,3.41 -6.93,17.11 -10.97,21.65 -1.77,2 -3.7,5.28 -4.29,7.28 -1.09,3.71 -16.58,16.44 -22.58,18.56 -1.68,0.59 -5.82,3.65 -9.09,6.72 -5.52,5.18 -6.92,5.61 -17.11,5.19 -8.91,-0.36 -12.74,-1.56 -19.46,-6.09 -7.09,-4.79 -9.61,-5.5 -16.56,-4.69 -8.2,0.97 -20.01,4.68 -37.29,11.74 -10.95,4.48 -34.57,10.96 -48.21,13.25 -17.1,2.85 -38.56,7.17 -44.39,8.92 -20.6,6.19 -44.93,9.98 -82.04,12.79 -12.01,0.91 -29.2,2.47 -38.21,3.47 -8.98,1 -41.66,1.86 -72.4,1.91 -34.2,0.05 -57.38,0.8 -59.49,1.91 -1.87,0.98 -8.36,1.82 -14.19,1.82 -10.55,0 -10.87,-0.16 -19.19,-9.01" /><path
           inkscape:connector-curvature="0"
           id="path802"
           style="fill:#000000;fill-opacity:1;fill-rule:nonzero;stroke:none"
           d="m 1750.07,4797.07 c -7.46,-3.79 -15.01,-6.98 -16.65,-7.03 -1.63,-0.06 -5.91,-1.31 -9.37,-2.75 -11.38,-4.74 -44.2,-6.38 -124.43,-6.23 -43.3,0.08 -79.41,-0.34 -80.41,-0.94 -1,-0.6 -16.37,-2.31 -34.2,-3.8 -53.48,-4.47 -64.19,-6.1 -85.69,-13.02 -27.46,-8.85 -35.41,-14.23 -40.36,-27.39 -2.13,-5.64 -5.48,-12.29 -7.52,-14.91 -4.34,-5.58 -3.22,-11.83 3.37,-18.74 2.6,-2.73 5.57,-6.69 6.68,-8.92 1.12,-2.23 4,-4.57 6.55,-5.3 9.07,-2.59 28.19,-5.77 40.75,-6.77 7.09,-0.56 13.73,-1.6 14.73,-2.3 1,-0.7 6.73,-2.99 12.73,-5.09 6.01,-2.1 14.16,-5.5 18.11,-7.55 4,-2.08 10.04,-4.21 13.64,-4.82 3.51,-0.59 9.82,-2.67 13.83,-4.55 4,-1.88 9.53,-3.46 12.1,-3.46 2.65,0 7,-1.19 9.91,-2.72 2.91,-1.54 6.38,-2.73 7.91,-2.73 1.55,0 5.1,-1.58 8.19,-3.64 3.09,-2.06 7.58,-3.64 10.37,-3.64 2.73,0 5.96,-1.09 7.28,-2.45 1.32,-1.39 4.91,-2.96 8.18,-3.61 8.19,-1.61 20.05,-9.48 21.57,-14.32 1.6,-5.05 -6.11,-12.37 -13.02,-12.37 -2.53,0 -6.73,-1.05 -9.46,-2.36 -2.7,-1.3 -14.73,-3.87 -26.74,-5.72 -26.38,-4.06 -43.08,-9.28 -68.22,-21.33 -10.55,-5.06 -21.95,-10.48 -25.47,-12.12 -8.73,-4.08 -23.65,-19.19 -23.65,-23.95 0,-2.08 -1.33,-5.83 -2.91,-8.19 -1.62,-2.44 -3.35,-9.28 -3.91,-15.47 l -1,-11.09 8.73,-8.36 c 9.08,-8.69 36.38,-22.74 48.57,-25 3.64,-0.67 8.57,-2.79 11.1,-4.75 2.55,-1.99 6.03,-3.55 7.91,-3.55 1.86,0 8.28,-2.46 14.28,-5.46 6.01,-3 13.79,-5.46 17.29,-5.46 3.47,0 10.91,-1.65 16.37,-3.64 5.46,-1.98 11.25,-3.63 12.74,-3.63 1.52,0 6.73,-2.14 11.82,-4.85 8.67,-4.63 12.55,-5.93 29.11,-9.79 12.73,-2.97 21.72,-5.82 29.28,-9.3 3.99,-1.84 11.65,-4.17 16.92,-5.16 18.38,-3.46 56.52,-16.47 62.22,-21.23 1.66,-1.39 4.55,-2.43 6.73,-2.43 3.75,0 16.92,-4.61 28.74,-10.05 3.28,-1.51 6.9,-2.68 8.28,-2.68 1.37,0 4.91,-1.54 8,-3.46 3.1,-1.93 7.53,-4.06 10.01,-4.82 2.37,-0.73 6.51,-2.95 8.83,-4.73 2.36,-1.83 5.9,-3.37 7.73,-3.37 1.84,0 7.27,-2.71 12.01,-6 4.72,-3.29 10.03,-6.55 11.73,-7.2 5.08,-1.96 13.58,4.29 17.98,13.2 2.24,4.55 5.9,11.18 8.24,14.92 4.32,6.91 5.97,23.33 2.84,28.2 -2.94,4.56 -17.06,9.77 -37.79,13.96 -15.29,3.09 -23.93,5.83 -28.84,9.14 -3.82,2.58 -9.36,4.73 -12.19,4.73 -2.91,0 -6.54,0.78 -8.28,1.77 -5.41,3.1 -28.01,10.82 -54.21,18.51 -7.09,2.08 -17.57,5.99 -23.65,8.83 -6,2.8 -15.41,5.66 -20.92,6.37 -5.53,0.7 -16.91,3.55 -25.47,6.36 -8.55,2.82 -19.53,5.71 -24.55,6.46 -5.1,0.77 -10.02,2.09 -11.19,3 -1.15,0.9 -6.92,2.83 -12.74,4.28 -5.81,1.44 -19.1,4.66 -29.29,7.09 -10.18,2.44 -23.8,6.97 -30.01,10.01 -6.19,3.01 -13.11,5.55 -15.19,5.55 -5.83,0 -13.47,6.81 -13.47,12 0,3.8 1.73,5.32 10.46,9.19 5.82,2.58 13.69,6.09 17.74,7.91 4.05,1.82 11.64,3.72 17.1,4.28 6.19,0.63 12.28,2.72 16.46,5.64 5.2,3.63 8.92,4.64 17.11,4.64 5.82,0 12.23,0.93 14.46,2.09 2.21,1.16 10.92,2.69 19.47,3.44 18.37,1.6 42.62,7.45 55.66,13.42 7.83,3.59 10.53,6.15 15.64,14.88 5.67,9.67 10.56,28.39 10.56,40.39 0,4.07 -15.47,12.75 -33.11,18.59 -6.37,2.1 -13.32,4.99 -15.64,6.5 -5.06,3.28 -22.38,8.02 -29.29,8.02 -2.73,0 -6.54,1.13 -8.55,2.55 -4.92,3.43 -38,15.64 -42.39,15.64 -1.82,0 -4.65,1.46 -5.97,3.09 -3.11,3.82 -20.23,11.51 -25.69,11.53 -5.45,0.02 -32.99,15.15 -33.66,18.49 -0.31,1.59 3.37,5.27 8.83,8.82 l 9.37,6.1 25.74,0.27 c 14.19,0.15 32.27,0.36 40.3,0.46 8,0.1 17.79,-0.68 21.73,-1.73 3.91,-1.04 11.01,-1.32 15.56,-0.61 17.1,2.65 19.31,2.74 28.2,1.05 10.42,-1.98 66.76,-4.61 85.5,-4 13.1,0.43 40.55,4.35 51.85,7.39 3.45,0.93 8.57,2.17 11.18,2.72 2.65,0.54 9.01,4.3 14.11,8.32 13.46,10.63 18.07,23.86 12.03,34.52 -1.45,2.56 -2.61,7.1 -2.66,10.37 -0.09,6.26 -1.37,7.55 -11.02,10.98 -8.09,2.88 -7.82,2.94 -23.64,-5.13" /><path
           inkscape:connector-curvature="0"
           id="path852"
           style="fill:#000000;fill-opacity:1;fill-rule:nonzero;stroke:none"
           d="m 1835.93,4006.32 c -1.02,-2.91 -3.05,-6.41 -4.64,-8 -1.57,-1.57 -3.98,-5.55 -5.45,-9 -1.44,-3.37 -6.42,-10.92 -10.93,-16.56 -9.3,-11.64 -66.64,-65.18 -77.94,-72.78 -3.97,-2.67 -10.92,-8.25 -15.28,-12.27 -6.55,-6.02 -9.33,-7.36 -15.28,-7.36 -4.55,0 -8.51,1.22 -10.55,3.27 -2.89,2.89 -24.93,19.15 -30.75,22.69 -1.2,0.73 -6.46,2.14 -11.73,3.14 l -9.56,1.82 -7.51,-7.82 c -12.41,-12.91 -14.26,-16.55 -12,-23.47 1.96,-5.98 10.78,-14.42 18.79,-17.96 3.98,-1.77 14.37,-8.63 19.1,-12.61 3.99,-3.37 2.73,-5.77 -8,-15.32 -5.68,-5.05 -19.11,-17.85 -29.66,-28.27 -21.97,-21.7 -24.71,-27.17 -25.99,-51.91 l -0.75,-14.55 6.18,-5.25 c 10.31,-8.75 15.2,-6.4 38.13,18.35 10.79,11.64 28.67,30.18 39.46,40.93 16.74,16.66 21.15,20.06 29.02,22.38 9.1,2.67 9.41,2.64 15.92,-1.82 3.64,-2.5 8.98,-7.02 11.82,-10.01 2.94,-3.09 6.65,-5.46 8.55,-5.46 1.87,0 8.57,-5.27 15.01,-11.82 6.45,-6.55 12.74,-11.83 14.1,-11.83 1.33,0 7.37,-4.16 13.19,-9.09 5.82,-4.94 12.32,-9.6 14.19,-10.18 6.93,-2.17 24.02,-16.38 42.22,-35.12 12.73,-13.1 23.1,-16.84 30.55,-11.02 8.06,6.29 15.45,24.48 15.64,38.49 0.19,13.57 0.55,13.05 -16.19,23.63 -6.5,4.11 -18.37,11.78 -26.38,17.03 -8,5.25 -17.42,10.88 -20.92,12.5 -8.91,4.12 -19.32,10.65 -24.19,15.17 -2.2,2.03 -9.55,5.93 -16.28,8.62 -6.73,2.69 -12.28,5.61 -12.28,6.46 0,0.84 -4.55,3.74 -10.01,6.37 -5.46,2.63 -10.01,4.98 -10.01,5.18 0,0.2 1.5,3.27 3.26,6.73 3.67,7.16 12.02,15.17 36.58,35.05 21.84,17.67 33.69,28.9 46.55,44.09 9.14,10.79 13.3,17.46 25.29,40.56 4.82,9.31 4.41,23.47 -0.97,33.3 l -4.28,7.82 -12.1,0.54 c -11.83,0.54 -12.14,0.43 -13.92,-4.64" /><path
           inkscape:connector-curvature="0"
           id="path888"
           style="fill:#000000;fill-opacity:1;fill-rule:nonzero;stroke:none"
           d="m 1441.71,3673.73 c -14.91,-1.52 -32.74,-2.18 -43.02,-1.59 l -17.56,1 -7.45,-6.64 c -5.28,-4.7 -7.47,-8.08 -7.47,-11.55 0,-2.73 -0.96,-5.88 -2.17,-7.1 -1.25,-1.24 -2.09,-6.55 -1.97,-12.37 0.24,-10.55 3.63,-16.39 12.33,-21.25 4.98,-2.77 48.03,-1.78 61.85,1.43 6.01,1.4 14.2,2.5 18.2,2.45 4,-0.05 18.73,0.32 32.74,0.82 14.01,0.5 29.16,0.17 33.66,-0.73 4.48,-0.9 17.65,-2.44 29.11,-3.42 36.38,-3.1 51.93,-5 58.75,-7.17 3.65,-1.16 8.28,-1.64 10.1,-1.05 1.87,0.6 11.01,-0.29 20.47,-2.01 9.46,-1.71 22.38,-3.69 28.92,-4.44 17.1,-1.97 32.88,-5.06 35.3,-6.93 1.08,-0.83 6,-2.08 10.73,-2.72 4.73,-0.64 10.52,-2.44 12.64,-3.91 2.18,-1.53 5.12,-2.73 6.64,-2.73 3.1,0 25.52,-8.66 28.38,-10.96 4.84,-3.89 36.93,-19.58 42.57,-20.82 11.28,-2.48 54.54,-24.43 63.13,-32.04 14.19,-12.56 24.55,-24.73 26.21,-30.78 1,-3.64 2.97,-8.13 4.44,-10.1 1.44,-1.92 2.68,-7.37 2.73,-11.91 0.08,-7.01 -1.36,-10.55 -8.83,-21.83 -9.14,-13.81 -35.47,-40.82 -52.93,-54.31 -5.46,-4.21 -11.66,-9.34 -13.65,-11.28 -2.01,-1.96 -10.09,-8.99 -18.1,-15.73 -8,-6.75 -17.39,-14.86 -21.01,-18.17 -8.54,-7.79 -56.21,-31.23 -70.04,-34.43 -6.06,-1.4 -18.19,-3.62 -27.28,-4.98 -9.08,-1.36 -26.93,-4.2 -40.03,-6.37 -13.1,-2.16 -27.71,-4.19 -32.74,-4.54 -5.01,-0.36 -15.65,-1.46 -23.65,-2.46 -8.03,-1 -26.38,-1.94 -40.94,-2.09 -14.55,-0.15 -35.75,-0.93 -47.29,-1.75 -23.11,-1.63 -59.94,0.44 -78.23,4.38 -6.46,1.4 -18.01,3.5 -25.47,4.64 -7.46,1.15 -15.95,3.29 -18.74,4.73 -2.8,1.45 -10.46,2.8 -17,3.01 -10.56,0.32 -12.32,-0.14 -15.38,-4.01 -1.86,-2.35 -3.96,-6.55 -4.55,-9.09 -0.6,-2.63 -2.61,-7.64 -4.52,-11.28 -5.73,-10.92 -4.65,-18.34 3.8,-25.98 10.94,-9.9 16.19,-11.85 34.38,-12.81 9.09,-0.48 18.19,-1.75 20.19,-2.82 9.65,-5.17 136.99,-8.08 160.27,-3.66 5.22,0.98 17.47,1.79 27.29,1.79 10.92,0 21.92,1.13 28.38,2.91 5.82,1.61 14.63,3.19 19.65,3.53 25.83,1.76 51.11,4.57 56.21,6.26 3.1,1.02 13.55,3.04 23.2,4.49 9.64,1.45 20.71,4.2 24.56,6.1 3.82,1.88 9.89,3.99 13.37,4.64 11.77,2.2 39.65,17.97 55.12,31.19 8.19,6.99 16.97,14.07 19.46,15.69 9.12,5.91 61.56,51.99 73.66,64.72 13.14,13.84 20.57,24.93 33.14,49.48 7.56,14.79 7.81,15.83 7.81,32.2 0,19.83 -6.65,48.24 -13.76,58.76 -2.46,3.64 -4.43,7.44 -4.43,8.56 0,9.88 -16.92,31.19 -30.93,38.94 -23.83,13.18 -31.96,17.88 -36.92,21.33 -8.01,5.57 -68.15,35.05 -71.5,35.05 -0.91,0 -6.27,2.78 -12.1,6.28 -5.82,3.49 -14.89,7.56 -20.46,9.18 -5.46,1.59 -10.79,4.4 -11.73,6.19 -1.85,3.55 -6.46,4.91 -24.66,7.3 -6.03,0.79 -17.82,2.69 -26.38,4.25 -8.55,1.56 -27.65,4.16 -42.75,5.82 -15.1,1.66 -32.16,3.73 -38.2,4.64 -5.97,0.9 -18.74,2.2 -28.2,2.87 -22.56,1.6 -24.32,1.79 -38.2,4.05 -20.65,3.36 -71.5,3.94 -99.15,1.13" /><path
           inkscape:connector-curvature="0"
           id="path910"
           style="fill:#000000;fill-opacity:1;fill-rule:nonzero;stroke:none"
           d="m 1056.95,3335.5 c 0,-1.46 0.85,-2.73 1.82,-2.73 0.97,0 1.82,1.27 1.82,2.73 0,1.45 -0.85,2.73 -1.82,2.73 -0.97,0 -1.82,-1.28 -1.82,-2.73" /></g><path
         d="m 665.824,346.559 c 0,-1.457 0.852,-2.731 1.821,-2.731 0.972,0 1.82,1.274 1.82,2.731 0,1.453 -0.848,2.726 -1.82,2.726 -0.969,0 -1.821,-1.273 -1.821,-2.726"
         style="fill:#000000;fill-opacity:1;fill-rule:nonzero;stroke:none"
         id="path1316"
         inkscape:connector-curvature="0" /></g></g></svg>