<?xml version="1.0" encoding="UTF-8" standalone="no"?>
<!-- Created with Inkscape (http://www.inkscape.org/) -->

<svg
   xmlns:dc="http://purl.org/dc/elements/1.1/"
   xmlns:cc="http://creativecommons.org/ns#"
   xmlns:rdf="http://www.w3.org/1999/02/22-rdf-syntax-ns#"
   xmlns:svg="http://www.w3.org/2000/svg"
   xmlns="http://www.w3.org/2000/svg"
   xmlns:sodipodi="http://sodipodi.sourceforge.net/DTD/sodipodi-0.dtd"
   xmlns:inkscape="http://www.inkscape.org/namespaces/inkscape"
   width="21.26656mm"
   height="18.152674mm"
   viewBox="0 0 75.353953 64.320495"
   id="svg6079"
   version="1.1"
   inkscape:version="0.91 r13725"
   sodipodi:docname="buttonEqual_clear.svg">
  <defs
     id="defs6081" />
  <sodipodi:namedview
     id="base"
     pagecolor="#ffffff"
     bordercolor="#666666"
     borderopacity="1.0"
     inkscape:pageopacity="0.0"
     inkscape:pageshadow="2"
     inkscape:zoom="2"
     inkscape:cx="-52.790292"
     inkscape:cy="-18.748854"
     inkscape:document-units="px"
     inkscape:current-layer="layer1"
     showgrid="false"
     inkscape:snap-global="true"
     fit-margin-top="0"
     fit-margin-left="0"
     fit-margin-right="0"
     fit-margin-bottom="0"
     inkscape:window-width="1920"
     inkscape:window-height="1080"
     inkscape:window-x="0"
     inkscape:window-y="0"
     inkscape:window-maximized="0" />
  <metadata
     id="metadata6084">
    <rdf:RDF>
      <cc:Work
         rdf:about="">
        <dc:format>image/svg+xml</dc:format>
        <dc:type
           rdf:resource="http://purl.org/dc/dcmitype/StillImage" />
        <dc:title></dc:title>
      </cc:Work>
    </rdf:RDF>
  </metadata>
  <g
     inkscape:label="Layer 1"
     inkscape:groupmode="layer"
     id="layer1"
     transform="translate(-145.93253,-142.78421)">
    <g
       id="g7826"
       transform="matrix(0.11532286,0,0,0.13543101,163.37413,150.22867)">
      <path
         inkscape:connector-curvature="0"
         id="path132"
         style="fill:#000000;fill-opacity:1;fill-rule:nonzero;stroke:none"
         d="m 312.67854,212.29255 c -2.31559,-5.78552 -15.85178,-18.40098 -23.84981,-22.22822 -6.47263,-3.09889 -8.87754,-3.57987 -15.87926,-3.20883 -4.50061,0.23362 -9.55778,1.28491 -11.12441,2.30871 -1.58036,1.03068 -6.24588,2.27436 -10.37545,2.76221 -21.12196,2.5011 -27.0449,3.25693 -36.25226,4.62429 -5.49693,0.81767 -11.93521,1.43607 -14.30576,1.36049 -2.37742,-0.0618 -5.04343,0.49473 -5.93668,1.25055 -0.92761,0.78332 -3.62797,1.05816 -6.25276,0.62528 -2.54233,-0.41227 -11.68785,0.0412 -20.31803,1.00319 -8.60956,0.96196 -26.86624,2.34307 -40.49863,3.06454 -13.61864,0.72147 -25.3752,1.64908 -26.06232,2.06135 -0.68711,0.41227 -9.24858,1.00319 -18.99876,1.31239 -13.99656,0.43975 -18.72392,0.14429 -22.37251,-1.40172 -5.12588,-2.17816 -11.0557,-2.52859 -12.87655,-0.75583 -0.63902,0.61841 -2.74847,1.28491 -4.87166,1.53227 -3.0027,0.35043 -4.30135,1.55976 -6.50012,6.06037 -2.29497,4.693 -2.67975,7.31091 -2.31558,15.81054 0.24049,5.62749 1.05129,11.33742 1.81399,12.75288 0.73521,1.37423 1.38797,4.19141 1.40171,6.06037 0.0344,3.99901 6.16344,11.626 9.34478,11.626 1.08565,0 4.12957,1.69718 6.62381,3.68982 l 4.63116,3.68981 7.62012,-1.75215 c 4.25325,-0.9757 8.84318,-1.41545 10.37545,-1.00318 1.62847,0.44662 3.62111,-0.0138 4.87853,-1.12688 3.24319,-2.8584 8.37595,-3.84785 21.74723,-4.1914 6.6238,-0.16491 13.43312,-0.72835 14.99975,-1.24368 1.62846,-0.52908 4.50061,-1.01694 6.6238,-1.12688 2.06135,-0.0962 12.49864,-0.65963 23.12833,-1.24368 10.62282,-0.58404 20.42109,-1.60098 21.68539,-2.25374 1.28491,-0.65963 6.43828,-1.16122 11.56416,-1.12687 5.12589,0.0344 9.55779,-0.46724 9.93571,-1.12 0.38478,-0.65963 4.80981,-1.18871 9.94257,-1.18871 5.11901,0 10.72588,-0.55656 12.56048,-1.25055 2.39804,-0.90699 4.50061,-0.83828 7.62012,0.24736 3.75166,1.30552 4.85104,1.20933 8.44466,-0.74896 3.25693,-1.77963 7.37276,-2.29496 19.61717,-2.453 16.50453,-0.21301 24.48882,1.34675 29.50477,5.77865 2.32245,2.0476 3.37374,2.21251 6.74748,1.05129 2.24687,-0.76957 6.25276,-1.40172 9.12491,-1.43608 4.37693,-0.055 5.49693,-0.64589 7.62699,-4.06773 1.6422,-2.62478 3.78601,-4.21202 6.24588,-4.62429 2.63166,-0.43288 3.86847,-1.46356 4.12957,-3.43558 0.19927,-1.49791 0.84516,-2.8103 1.37423,-2.8103 1.46356,0 1.02381,-18.99877 -0.5222,-22.8741" />
      <path
         inkscape:connector-curvature="0"
         id="path134"
         style="fill:#000000;fill-opacity:1;fill-rule:nonzero;stroke:none"
         d="m 293.70726,134.16743 c -0.27485,-1.50479 -1.49792,-3.46307 -2.6935,-4.31509 -1.23681,-0.88638 -3.03018,-3.18822 -4.12957,-5.31141 -5.23582,-10.1281 -8.02552,-14.37447 -9.4341,-14.37447 -0.89326,0 -2.32933,-1.12687 -3.18822,-2.50111 -0.8589,-1.37423 -2.5973,-2.5011 -3.87534,-2.5011 -1.24368,0 -3.81349,-1.04442 -5.55877,-2.25374 -4.2876,-2.975213 -7.37276,-4.163933 -12.1276,-4.672393 -6.50012,-0.69399 -12.46429,-2.15755 -14.12711,-3.47681 -2.45301,-1.95141 -40.86968,-2.88589 -87.74475,-2.13006 -17.25349,0.27485 -27.38158,-0.0825 -31.00268,-1.09251 -2.99583,-0.83829 -6.42454,-1.1681 -7.75067,-0.74896 -1.31927,0.41914 -5.37325,-0.13742 -9.12491,-1.25055 -3.75165,-1.11313 -7.6957,-1.64221 -8.87067,-1.18871 -1.25055,0.48098 -3.0027,0.0343 -4.25325,-1.07878 -2.62478,-2.33619 -10.98699,-4.69987 -13.37815,-3.77914 -0.97571,0.37792 -3.6211,-0.48785 -5.99852,-1.95141 -2.51485,-1.55975 -6.30773,-2.62478 -9.31043,-2.62478 -4.1227,0 -5.66184,0.7146 -8.31411,3.87534 -1.77963,2.12318 -3.25006,4.32196 -3.25006,4.87165 0,0.53595 -1.18871,1.29178 -2.56294,1.62846 -2.22626,0.54283 -2.46675,1.25056 -1.81399,5.37325 2.48736,15.872393 3.7173,21.307483 5.22209,23.121473 0.93447,1.12687 1.65595,2.76907 1.65595,3.75165 0,2.92024 8.25226,10.97325 12.1276,11.84588 1.95828,0.43976 6.24589,1.5254 9.75018,2.46675 3.42184,0.92761 12.746,2.02699 20.62036,2.43926 7.87435,0.41227 16.80686,1.28491 19.75459,1.93767 2.99583,0.66651 5.84049,0.907 6.43828,0.56344 0.58405,-0.34356 13.87287,0.57718 29.62158,2.06135 15.7487,1.48417 40.34059,3.02331 54.81126,3.43558 21.63042,0.6184 26.95557,1.14061 30.25373,2.94086 2.24687,1.22993 4.84417,2.18503 5.93669,2.18503 1.11999,0 1.93766,0.47411 1.93766,1.12687 0,0.64588 0.93448,1.44294 2.18503,1.87582 1.22307,0.41914 3.55926,1.5735 5.31141,2.62479 1.75215,1.05128 4.44564,1.87582 6.12908,1.87582 1.62159,0 3.90969,0.79706 4.99533,1.74528 1.09939,0.96196 4.56246,2.11632 7.68883,2.56294 4.74798,0.68025 6.06724,0.39166 7.99804,-1.74527 1.24368,-1.37423 3.41497,-2.56295 4.693,-2.56295 2.37055,0 7.13914,-4.45938 7.21472,-6.75435 0.0206,-0.55656 1.11313,-2.37742 2.48049,-4.1227 2.39117,-3.05079 2.89963,-7.24907 1.68344,-13.87287" />
    </g>
    <path
       d="m 220.7381,167.55153 c -0.0568,-1.88147 -0.17105,-3.77523 -0.25433,-4.2098 -0.0825,-0.43097 -0.14834,-1.23648 -0.14456,-1.7759 0.004,-0.54231 -0.0628,-3.70942 -0.14759,-7.03707 -0.14684,-5.76154 -0.26492,-7.73702 -0.52227,-8.73487 -0.1264,-0.4917 -1.15502,-1.71082 -1.71892,-2.03911 -0.68878,-0.39914 -3.27965,-0.0889 -3.61875,0.43458 -0.0508,0.0781 -0.5533,0.0998 -1.24208,0.0528 -0.72965,-0.0499 -1.37529,-0.021 -1.74844,0.0788 -0.35347,0.094 -1.92783,0.17643 -3.89729,0.20391 -1.81731,0.0253 -3.89349,0.0817 -4.61256,0.12437 -0.72208,0.0441 -2.07921,0.12076 -3.02912,0.17137 -0.95066,0.0507 -1.99897,0.10774 -2.3411,0.12654 -1.83775,0.10196 -18.809,0.11497 -21.27423,0.0159 -1.59707,-0.0643 -3.75424,-0.13667 -4.8192,-0.16197 -1.06042,-0.0253 -2.3305,-0.11425 -2.82248,-0.19741 -1.11568,-0.18873 -5.01751,-0.52641 -6.12788,-0.53002 -0.45415,-0.002 -1.10736,-0.0853 -1.4525,-0.18728 -0.44051,-0.12943 -0.70014,-0.14462 -0.87421,-0.0521 -0.17183,0.0904 -0.35803,0.0847 -0.60553,-0.0202 -0.23086,-0.0969 -0.66153,-0.12075 -1.21256,-0.0658 -0.46777,0.047 -0.92796,0.0412 -1.01879,-0.013 -0.0916,-0.0542 -0.69484,-0.11858 -1.35561,-0.14462 -0.66154,-0.0253 -1.52818,-0.10701 -1.94902,-0.18438 -0.41175,-0.0752 -1.25267,-0.12004 -1.84534,-0.0983 -1.07328,0.039 -1.09296,0.0463 -1.5138,0.54594 -0.32925,0.39046 -0.42689,0.63125 -0.42689,1.05209 l 0,0.54593 -0.6199,-0.0297 c -0.77128,-0.0369 -1.35939,0.18221 -1.45477,0.54303 -0.0408,0.15113 -0.0113,1.78891 0.0636,3.63062 0.0764,1.84675 0.1317,5.86638 0.12414,8.94456 -0.008,3.07818 0.031,7.98503 0.0855,10.91859 0.14836,7.98431 0.13397,13.87529 -0.0401,16.37645 -0.0855,1.23719 -0.15517,3.04851 -0.15517,4.05216 0,0.9993 -0.062,2.06296 -0.13776,2.36738 -0.0757,0.30297 -0.19981,1.23648 -0.2755,2.06513 -0.0757,0.82866 -0.19983,1.84026 -0.27552,2.23651 -0.0764,0.40204 -0.21117,1.1967 -0.30275,1.78892 -0.16122,1.03907 -0.15669,1.07522 0.17181,1.4599 0.1915,0.22416 0.49576,0.50037 0.70241,0.63849 0.28913,0.19307 0.33758,0.29358 0.23388,0.48663 -0.0704,0.1316 -0.28233,0.30804 -0.46095,0.38396 -0.48897,0.20897 -0.70014,0.79323 -0.50562,1.39845 0.20361,0.63125 1.12627,1.78601 1.46914,1.8388 0.15593,0.0239 0.45491,0.11931 0.68879,0.21982 0.22933,0.0983 0.68878,0.24513 1.03241,0.32901 0.34667,0.0846 0.90224,0.235 1.26025,0.34201 0.35801,0.1063 0.90449,0.19018 1.23904,0.19018 0.38224,0 0.83335,0.11931 1.24662,0.329 0.43976,0.22416 0.85985,0.32901 1.31474,0.32901 0.37164,0 0.72587,0.0557 0.79853,0.12509 0.0712,0.068 0.59871,0.18727 1.16337,0.2632 0.56463,0.0752 1.23601,0.20102 1.4805,0.27622 0.2475,0.0766 0.5056,0.10268 0.57827,0.0586 0.0704,-0.042 0.30956,0.008 0.5162,0.10557 0.21193,0.10123 1.24586,0.25525 2.29266,0.34201 1.0468,0.0868 2.20561,0.21765 2.56817,0.29069 0.83183,0.16775 7.07779,0.21114 9.9964,0.0701 2.59011,-0.1251 4.3378,-0.27043 7.42217,-0.61825 0.60552,-0.0679 1.84534,-0.1851 2.75362,-0.2603 2.25859,-0.18656 4.17658,-0.36877 5.57685,-0.53003 1.07404,-0.12291 4.5891,-0.38033 5.57685,-0.40782 1.21408,-0.0348 6.66453,-0.24946 7.91719,-0.31236 0.79929,-0.0404 2.49248,-0.0998 3.78678,-0.13305 1.29431,-0.0326 3.042,-0.0825 3.91017,-0.11136 1.34954,-0.0456 1.6296,-0.0181 1.9967,0.1974 0.23463,0.13666 0.52378,0.24946 0.64034,0.24946 0.11581,0 0.44733,0.11498 0.72284,0.24947 0.58584,0.28634 2.07921,0.34708 2.89212,0.11642 0.44052,-0.12437 1.19742,-0.81347 1.19742,-1.08897 0,-0.0448 0.16274,-0.28272 0.37164,-0.54592 0.29216,-0.36734 0.36483,-0.58571 0.33682,-1.01956 -0.0348,-0.53942 -0.33455,-1.32325 -0.55708,-1.4534 -0.0666,-0.039 -0.28157,-0.32901 -0.46777,-0.63126 -0.32243,-0.52423 -0.33681,-0.62546 -0.22706,-1.61175 0.0643,-0.58354 0.18392,-1.69708 0.26793,-2.4997 0.0841,-0.80192 0.24979,-1.94439 0.37165,-2.56479 0.12261,-0.62113 0.2634,-1.6443 0.31715,-2.30158 0.0529,-0.65151 0.16803,-1.89449 0.25507,-2.76291 0.35271,-3.51203 0.44279,-4.56267 0.56616,-6.55116 0.1862,-3.0008 0.26869,-11.70676 0.1491,-15.67938 z m -5.36643,12.37778 c -0.0733,1.00364 -0.20285,2.98634 -0.28535,4.39419 -0.0833,1.40712 -0.21345,3.12878 -0.28914,3.81427 -0.0757,0.68404 -0.16122,1.48812 -0.18847,1.7759 -0.21117,2.20974 -0.50939,4.56773 -0.6252,4.94591 -0.0757,0.24729 -0.13625,0.7238 -0.13625,1.06583 0,1.30228 -0.59795,5.1527 -0.84092,5.41952 -0.0529,0.0579 -1.48655,0.12654 -3.18049,0.15185 -3.66266,0.0557 -6.82802,0.14534 -9.26676,0.26103 -2.68472,0.12798 -4.16825,0.14606 -4.43393,0.0542 -0.13624,-0.047 -0.37164,-0.0116 -0.52301,0.0789 -0.15517,0.0925 -1.26706,0.22994 -2.54698,0.31454 -2.60299,0.17282 -4.7594,0.34925 -6.54115,0.5358 -0.685,0.0717 -2.28508,0.21187 -3.57939,0.31382 -1.29505,0.10197 -2.77252,0.24441 -3.30539,0.31961 -3.97903,0.56111 -15.07975,0.55098 -16.66092,-0.0145 -0.23388,-0.0832 -0.5321,-0.13305 -0.68802,-0.11424 -0.15442,0.0181 -0.57828,-0.031 -0.96429,-0.11208 -0.38527,-0.081 -0.77962,-0.16052 -0.89466,-0.18077 -0.9643,-0.16848 -1.40482,-0.26971 -2.0656,-0.47652 -0.41326,-0.12943 -1.03921,-0.2726 -1.3768,-0.31526 -1.19817,-0.15041 -1.86197,-0.29791 -2.31385,-0.51411 -0.26113,-0.12437 -0.52832,-0.18729 -0.60552,-0.14173 -0.165,0.0976 -2.17609,-0.23284 -2.17609,-0.35793 0,-0.052 0.16273,-0.27622 0.3724,-0.51339 0.33984,-0.38395 0.37012,-0.51267 0.35423,-1.48595 -0.0152,-0.93856 0.246,-4.53808 0.44127,-6.07753 0.11808,-0.93061 0.48214,-10.44424 0.49048,-12.82536 0.005,-1.2683 -0.059,-4.10424 -0.14154,-6.31398 -0.13777,-3.69641 -0.16123,-22.95001 -0.031,-24.9009 l 0.0568,-0.84239 1.54181,-0.068 c 1.45703,-0.0637 2.91937,-0.0173 8.7581,0.27766 3.33189,0.16848 5.01675,0.25163 8.26158,0.40927 1.47294,0.0722 3.49235,0.19089 4.47481,0.26464 1.51304,0.1128 2.46524,0.16777 4.54444,0.26249 0.48593,0.0217 15.21524,-0.15619 16.93644,-0.20463 0.90828,-0.0253 3.8829,-0.0767 6.60927,-0.11281 2.72636,-0.0361 5.34449,-0.10123 5.81755,-0.14461 0.63353,-0.0579 0.94233,-0.0267 1.17015,0.11859 0.22557,0.14388 0.69561,0.19377 1.72802,0.18437 0.78491,-0.009 1.44947,0.0188 1.48732,0.0586 0.0379,0.0398 0.0916,2.3746 0.11883,5.18957 0.0515,5.34071 0.1756,9.30901 0.302,9.64235 0.0408,0.10847 0.10597,1.23648 0.14381,2.49898 0.0379,1.26323 0.0877,2.31966 0.10975,2.34208 0.11354,0.10774 0.0643,9.35239 -0.0583,11.02271"
       style="fill:#000000;fill-opacity:1;fill-rule:nonzero;stroke:none"
       id="path1048"
       inkscape:connector-curvature="0" />
  </g>
</svg>
