<?xml version="1.0" encoding="UTF-8" standalone="no"?>
<!-- Created with Inkscape (http://www.inkscape.org/) -->

<svg
   xmlns:dc="http://purl.org/dc/elements/1.1/"
   xmlns:cc="http://creativecommons.org/ns#"
   xmlns:rdf="http://www.w3.org/1999/02/22-rdf-syntax-ns#"
   xmlns:svg="http://www.w3.org/2000/svg"
   xmlns="http://www.w3.org/2000/svg"
   xmlns:sodipodi="http://sodipodi.sourceforge.net/DTD/sodipodi-0.dtd"
   xmlns:inkscape="http://www.inkscape.org/namespaces/inkscape"
   width="21.26656mm"
   height="18.152674mm"
   viewBox="0 0 75.353953 64.320495"
   id="svg6079"
   version="1.1"
   inkscape:version="0.91 r13725"
   sodipodi:docname="buttonPlus.svg">
  <defs
     id="defs6081" />
  <sodipodi:namedview
     id="base"
     pagecolor="#ffffff"
     bordercolor="#666666"
     borderopacity="1.0"
     inkscape:pageopacity="0.0"
     inkscape:pageshadow="2"
     inkscape:zoom="2.8284272"
     inkscape:cx="-47.919987"
     inkscape:cy="-1.4955502"
     inkscape:document-units="px"
     inkscape:current-layer="layer1"
     showgrid="false"
     inkscape:snap-global="true"
     fit-margin-top="0"
     fit-margin-left="0"
     fit-margin-right="0"
     fit-margin-bottom="0"
     inkscape:window-width="956"
     inkscape:window-height="1041"
     inkscape:window-x="960"
     inkscape:window-y="18"
     inkscape:window-maximized="0" />
  <metadata
     id="metadata6084">
    <rdf:RDF>
      <cc:Work
         rdf:about="">
        <dc:format>image/svg+xml</dc:format>
        <dc:type
           rdf:resource="http://purl.org/dc/dcmitype/StillImage" />
        <dc:title></dc:title>
      </cc:Work>
    </rdf:RDF>
  </metadata>
  <g
     inkscape:label="Layer 1"
     inkscape:groupmode="layer"
     id="layer1"
     transform="translate(-145.93253,-142.78421)">
    <g
       id="g584"
       transform="matrix(0.50698409,0,0,-0.39071772,166.06517,183.28295)">
      <path
         d="m 0,0 c 3.828,-15.463 21.228,-19.797 35.903,-17.34 17.026,2.852 27.451,25.817 13.602,41.34 -4.518,5.064 -10.141,9.142 -15.654,14.021 2.585,3.227 5.6,6.737 8.335,10.454 6.404,8.711 3.313,16.387 -6.975,19.75 -12.3,4.019 -24.288,0.486 -36.367,-0.47 -4.906,-0.389 -6.238,-3.956 -4.408,-8.682 3.058,-7.901 9.702,-9.583 15.943,-9.34 C 9.262,45.038 6.619,40.339 7.615,36.611 9.09,31.089 12.699,25.857 18.917,23.696 21.416,22.828 24.04,22.175 26.351,20.943 32.288,17.777 33.729,11.161 30.169,4.539 27.156,-1.062 24.399,-1.679 17.146,2.297 10.985,5.675 5.37,6.406 0,0 m 23.604,-42.156 c -6.281,1.357 -13.375,1.96 -19.742,4.435 -21.309,8.286 -26.435,20.637 -27.797,45.783 -1.023,18.897 2.863,37.079 10.417,54.437 5.081,11.674 11.554,22.386 22.099,30.011 8.513,6.155 17.71,6.388 27.456,3.121 3.62,-1.213 8.161,-2.705 11.364,-1.541 7.816,2.838 12.747,-1.319 17.85,-5.462 C 78.263,78.065 86.685,64.249 91.529,48.465 96.513,32.23 93.319,16.174 87.78,0.683 81.937,-15.659 70.403,-27.404 55.282,-35.473 45.681,-40.596 34.885,-40.757 23.604,-42.156"
         style="fill:#ffffff;fill-opacity:1;fill-rule:evenodd;stroke:none"
         id="path586"
         inkscape:connector-curvature="0" />
    </g>
    <rect
       style="fill:#f26700;fill-opacity:0.64313728"
       id="rect3344"
       width="65.209785"
       height="57.410622"
       x="151.91522"
       y="147.48929" />
    <path
       d="m 203.81791,170.11699 c -0.37503,0.0754 -0.41346,0.0562 -0.35582,-0.17435 0.0391,-0.15585 -0.0256,-0.3238 -0.16154,-0.42058 -0.12881,-0.0918 -0.306,-0.3302 -0.40919,-0.55081 -0.22487,-0.48177 -0.78849,-0.58282 -2.342,-0.42199 -0.80272,0.0833 -1.24677,0.2078 -1.75417,0.49316 -0.37574,0.21135 -0.81055,0.38499 -0.97138,0.38855 -0.16296,0.003 -0.43339,0.0862 -0.61486,0.18787 -0.17932,0.1003 -0.5629,0.18361 -0.86108,0.18788 -0.29745,0.003 -0.74437,0.0925 -1.00269,0.20068 -0.25904,0.10746 -0.62197,0.19214 -0.81553,0.19072 -0.51807,-0.005 -1.23112,0.15086 -1.52788,0.33518 -0.14375,0.0889 -0.62126,0.18858 -1.07457,0.22487 -0.45331,0.0356 -0.94506,0.15088 -1.10659,0.25904 -0.15869,0.1053 -0.67392,0.2263 -1.12652,0.26472 -0.45331,0.0391 -1.00412,0.1338 -1.20409,0.20709 -0.20708,0.0769 -0.42627,0.10253 -0.49814,0.0584 -0.0712,-0.042 -0.25904,-0.0128 -0.41488,0.0648 -0.35582,0.17791 -4.02573,0.78991 -4.73807,0.78991 l -0.54368,0 0.0648,-0.74437 c 0.0356,-0.40705 0.0997,-1.18415 0.14233,-1.71503 0.0428,-0.53088 0.13379,-1.17705 0.20068,-1.4247 0.0683,-0.25192 0.15727,-0.85396 0.19926,-1.35922 0.28038,-3.32689 0.34728,-4.34027 0.39139,-5.92864 0.0278,-0.98418 0.0762,-1.82747 0.10818,-1.87729 0.0328,-0.0505 0.0498,-0.62837 0.0391,-1.28805 -0.0156,-0.97138 -0.0563,-1.19769 -0.21349,-1.19769 -0.10392,0 -0.25477,-0.13592 -0.3238,-0.29176 -0.0733,-0.16511 -0.29746,-0.34729 -0.51735,-0.42058 -0.21349,-0.0712 -0.57002,-0.25904 -0.78992,-0.41702 -0.7337,-0.52733 -1.85168,-0.30601 -2.86149,0.56646 -0.38001,0.32735 -0.43623,0.46541 -0.51095,1.24252 -0.0598,0.62125 -0.0349,0.93366 0.0868,1.08097 0.19712,0.23839 0.22416,2.73125 0.0698,6.46022 -0.12525,3.04224 -0.13734,5.88308 -0.0264,6.31718 0.0683,0.26687 -0.007,0.41133 -0.43481,0.82265 -0.28465,0.27398 -0.66893,0.56148 -0.85395,0.63977 -0.55508,0.23341 -4.59645,0.21775 -6.00692,-0.0228 -0.67391,-0.11457 -1.6702,-0.25619 -2.20108,-0.31312 -0.53088,-0.0563 -1.26458,-0.1772 -1.61826,-0.26544 -0.50526,-0.12595 -0.78137,-0.12595 -1.25604,0 -0.3366,0.0897 -0.66039,0.12738 -0.72444,0.084 -0.0648,-0.0427 -0.28537,0.0676 -0.49245,0.24623 -0.20709,0.17861 -0.41845,0.32379 -0.47253,0.32379 -0.0555,0 -0.0968,0.0775 -0.0968,0.18146 0,0.10467 -0.0847,0.2135 -0.20068,0.25833 -0.11671,0.0455 -0.17079,0.12667 -0.12951,0.19427 0.037,0.0605 -0.0128,0.18503 -0.10392,0.25904 -0.1224,0.1003 -0.15656,0.36223 -0.11244,0.88029 0.0719,0.85468 0.21064,1.09805 0.59777,1.04611 0.23343,-0.0313 0.27755,0.0349 0.31099,0.46185 0.0356,0.4533 0.0669,0.49173 0.34941,0.42129 0.24623,-0.0619 0.33234,-0.0171 0.41418,0.21349 0.0555,0.15513 0.10529,0.38143 0.10674,0.48533 0.005,0.38357 2.84512,0.36863 3.68698,-0.0192 0.17791,-0.0818 1.13862,-0.17435 2.13562,-0.20566 2.46012,-0.0769 4.6242,-0.2391 5.61906,-0.42128 1.37062,-0.25192 1.35282,-0.33803 0.98704,4.73734 -0.10179,1.41118 -0.15584,2.60957 -0.12026,2.6665 0.0363,0.0584 0.0114,0.3174 -0.0576,0.58924 -0.0683,0.2697 -0.15798,0.79632 -0.20069,1.18416 -0.0434,0.38855 -0.11528,0.75717 -0.16224,0.82905 -0.0463,0.0712 -0.10675,0.84115 -0.13522,1.72144 -0.0534,1.63179 0.027,1.93067 0.42698,1.59834 0.16083,-0.13378 0.24907,-0.10243 0.51736,0.18218 0.1836,0.19428 0.4277,0.34301 0.5629,0.34301 0.1345,0 0.40136,0.0854 0.60845,0.19427 0.20567,0.10746 0.62837,0.19428 0.95217,0.19428 0.67321,0 1.83815,-0.40065 1.92213,-0.6604 0.032,-0.0989 0.19072,-0.34301 0.35012,-0.53729 0.2505,-0.30671 0.28465,-0.46611 0.24551,-1.15213 -0.032,-0.57002 -0.12098,-0.87531 -0.31027,-1.07457 -0.15087,-0.15798 -0.26758,-0.44691 -0.27042,-0.6668 -0.0264,-2.20109 0.0299,-8.57805 0.0812,-9.17867 0.0548,-0.64759 0.12454,-0.82549 0.41559,-1.06816 0.20922,-0.17506 0.53089,-0.29106 0.80273,-0.29106 0.24907,0 0.68601,-0.0555 0.97067,-0.12311 0.28607,-0.0683 0.90662,-0.14944 1.38555,-0.18147 0.47893,-0.032 0.94292,-0.10466 1.03542,-0.16154 0.0939,-0.0584 0.45332,-0.14659 0.81554,-0.20068 0.35298,-0.0534 1.26244,-0.21777 2.00041,-0.36223 0.73797,-0.14517 1.45245,-0.23341 1.57271,-0.19427 0.11671,0.0378 0.2569,0.01 0.29818,-0.0584 0.042,-0.0712 0.35582,-0.16795 0.69242,-0.21421 0.3366,-0.0455 0.81695,-0.14517 1.06105,-0.21989 0.24195,-0.0733 0.73156,-0.15372 1.06816,-0.17435 0.3366,-0.0214 0.73725,-0.10105 0.87388,-0.17506 0.13806,-0.0748 0.80914,-0.13593 1.48234,-0.13593 0.67321,0 1.26529,-0.0555 1.30799,-0.12311 0.042,-0.0662 0.29746,-0.11386 0.5565,-0.10317 0.2633,0.0106 1.26244,-0.0185 2.2203,-0.0648 l 1.74066,-0.0847 0.49245,-0.48534 c 0.27184,-0.26829 0.49173,-0.55436 0.49173,-0.64047 0,-0.0804 0.0847,-0.22416 0.17507,-0.29747 0.0947,-0.0775 0.21634,-0.4469 0.26544,-0.80983 0.0491,-0.36222 0.12596,-0.84329 0.16794,-1.05464 0.0769,-0.38215 0.0712,-0.38713 -0.34301,-0.30458"
       style="fill:#000000;fill-opacity:1;fill-rule:nonzero;stroke:none"
       id="path60"
       inkscape:connector-curvature="0" />
    <path
       d="m 220.29476,167.75137 c -0.0568,-1.88147 -0.17105,-3.77523 -0.25433,-4.2098 -0.0825,-0.43097 -0.14834,-1.23648 -0.14456,-1.7759 0.004,-0.54231 -0.0628,-3.70942 -0.14759,-7.03707 -0.14684,-5.76154 -0.26492,-7.73702 -0.52227,-8.73487 -0.1264,-0.4917 -1.15502,-1.71082 -1.71892,-2.03911 -0.68878,-0.39914 -3.27965,-0.0889 -3.61875,0.43458 -0.0508,0.0781 -0.5533,0.0998 -1.24208,0.0528 -0.72965,-0.0499 -1.37529,-0.021 -1.74844,0.0788 -0.35347,0.094 -1.92783,0.17643 -3.89729,0.20391 -1.81731,0.0253 -3.89349,0.0817 -4.61256,0.12437 -0.72208,0.0441 -2.07921,0.12076 -3.02912,0.17137 -0.95066,0.0507 -1.99897,0.10774 -2.3411,0.12654 -1.83775,0.10196 -18.809,0.11497 -21.27423,0.0159 -1.59707,-0.0643 -3.75424,-0.13667 -4.8192,-0.16197 -1.06042,-0.0253 -2.3305,-0.11425 -2.82248,-0.19741 -1.11568,-0.18873 -5.01751,-0.52641 -6.12788,-0.53002 -0.45415,-0.002 -1.10736,-0.0853 -1.4525,-0.18728 -0.44051,-0.12943 -0.70014,-0.14462 -0.87421,-0.0521 -0.17183,0.0904 -0.35803,0.0847 -0.60553,-0.0202 -0.23086,-0.0969 -0.66153,-0.12075 -1.21256,-0.0658 -0.46777,0.047 -0.92796,0.0412 -1.01879,-0.013 -0.0916,-0.0542 -0.69484,-0.11858 -1.35561,-0.14462 -0.66154,-0.0253 -1.52818,-0.10701 -1.94902,-0.18438 -0.41175,-0.0752 -1.25267,-0.12004 -1.84534,-0.0983 -1.07328,0.039 -1.09296,0.0463 -1.5138,0.54594 -0.32925,0.39046 -0.42689,0.63125 -0.42689,1.05209 l 0,0.54593 -0.6199,-0.0297 c -0.77128,-0.0369 -1.35939,0.18221 -1.45477,0.54303 -0.0408,0.15113 -0.0113,1.78891 0.0636,3.63062 0.0764,1.84675 0.1317,5.86638 0.12414,8.94456 -0.008,3.07818 0.031,7.98503 0.0855,10.91859 0.14836,7.98431 0.13397,13.87529 -0.0401,16.37645 -0.0855,1.23719 -0.15517,3.04851 -0.15517,4.05216 0,0.9993 -0.062,2.06296 -0.13776,2.36738 -0.0757,0.30297 -0.19981,1.23648 -0.2755,2.06513 -0.0757,0.82866 -0.19983,1.84026 -0.27552,2.23651 -0.0764,0.40204 -0.21117,1.1967 -0.30275,1.78892 -0.16122,1.03907 -0.15669,1.07522 0.17181,1.4599 0.1915,0.22416 0.49576,0.50037 0.70241,0.63849 0.28913,0.19307 0.33758,0.29358 0.23388,0.48663 -0.0704,0.1316 -0.28233,0.30804 -0.46095,0.38396 -0.48897,0.20897 -0.70014,0.79323 -0.50562,1.39845 0.20361,0.63125 1.12627,1.78601 1.46914,1.8388 0.15593,0.0239 0.45491,0.11931 0.68879,0.21982 0.22933,0.0983 0.68878,0.24513 1.03241,0.32901 0.34667,0.0846 0.90224,0.235 1.26025,0.34201 0.35801,0.1063 0.90449,0.19018 1.23904,0.19018 0.38224,0 0.83335,0.11931 1.24662,0.329 0.43976,0.22416 0.85985,0.32901 1.31474,0.32901 0.37164,0 0.72587,0.0557 0.79853,0.12509 0.0712,0.068 0.59871,0.18727 1.16337,0.2632 0.56463,0.0752 1.23601,0.20102 1.4805,0.27622 0.2475,0.0766 0.5056,0.10268 0.57827,0.0586 0.0704,-0.042 0.30956,0.008 0.5162,0.10557 0.21193,0.10123 1.24586,0.25525 2.29266,0.34201 1.0468,0.0868 2.20561,0.21765 2.56817,0.29069 0.83183,0.16775 7.07779,0.21114 9.9964,0.0701 2.59011,-0.1251 4.3378,-0.27043 7.42217,-0.61825 0.60552,-0.0679 1.84534,-0.1851 2.75362,-0.2603 2.25859,-0.18656 4.17658,-0.36877 5.57685,-0.53003 1.07404,-0.12291 4.5891,-0.38033 5.57685,-0.40782 1.21408,-0.0348 6.66453,-0.24946 7.91719,-0.31236 0.79929,-0.0404 2.49248,-0.0998 3.78678,-0.13305 1.29431,-0.0326 3.042,-0.0825 3.91017,-0.11136 1.34954,-0.0456 1.6296,-0.0181 1.9967,0.1974 0.23463,0.13666 0.52378,0.24946 0.64034,0.24946 0.11581,0 0.44733,0.11498 0.72284,0.24947 0.58584,0.28634 2.07921,0.34708 2.89212,0.11642 0.44052,-0.12437 1.19742,-0.81347 1.19742,-1.08897 0,-0.0448 0.16274,-0.28272 0.37164,-0.54592 0.29216,-0.36734 0.36483,-0.58571 0.33682,-1.01956 -0.0348,-0.53942 -0.33455,-1.32325 -0.55708,-1.4534 -0.0666,-0.039 -0.28157,-0.32901 -0.46777,-0.63126 -0.32243,-0.52423 -0.33681,-0.62546 -0.22706,-1.61175 0.0643,-0.58354 0.18392,-1.69708 0.26793,-2.4997 0.0841,-0.80192 0.24979,-1.94439 0.37165,-2.56479 0.12261,-0.62113 0.2634,-1.6443 0.31715,-2.30158 0.0529,-0.65151 0.16803,-1.89449 0.25507,-2.76291 0.35271,-3.51203 0.44279,-4.56267 0.56616,-6.55116 0.1862,-3.0008 0.26869,-11.70676 0.1491,-15.67938 z m -5.36643,12.37778 c -0.0733,1.00364 -0.20285,2.98634 -0.28535,4.39419 -0.0833,1.40712 -0.21345,3.12878 -0.28914,3.81427 -0.0757,0.68404 -0.16122,1.48812 -0.18847,1.7759 -0.21117,2.20974 -0.50939,4.56773 -0.6252,4.94591 -0.0757,0.24729 -0.13625,0.7238 -0.13625,1.06583 0,1.30228 -0.59795,5.1527 -0.84092,5.41952 -0.0529,0.0579 -1.48655,0.12654 -3.18049,0.15185 -3.66266,0.0557 -6.82802,0.14534 -9.26676,0.26103 -2.68472,0.12798 -4.16825,0.14606 -4.43393,0.0542 -0.13624,-0.047 -0.37164,-0.0116 -0.52301,0.0789 -0.15517,0.0925 -1.26706,0.22994 -2.54698,0.31454 -2.60299,0.17282 -4.7594,0.34925 -6.54115,0.5358 -0.685,0.0717 -2.28508,0.21187 -3.57939,0.31382 -1.29505,0.10197 -2.77252,0.24441 -3.30539,0.31961 -3.97903,0.56111 -15.07975,0.55098 -16.66092,-0.0145 -0.23388,-0.0832 -0.5321,-0.13305 -0.68802,-0.11424 -0.15442,0.0181 -0.57828,-0.031 -0.96429,-0.11208 -0.38527,-0.081 -0.77962,-0.16052 -0.89466,-0.18077 -0.9643,-0.16848 -1.40482,-0.26971 -2.0656,-0.47652 -0.41326,-0.12943 -1.03921,-0.2726 -1.3768,-0.31526 -1.19817,-0.15041 -1.86197,-0.29791 -2.31385,-0.51411 -0.26113,-0.12437 -0.52832,-0.18729 -0.60552,-0.14173 -0.165,0.0976 -2.17609,-0.23284 -2.17609,-0.35793 0,-0.052 0.16273,-0.27622 0.3724,-0.51339 0.33984,-0.38395 0.37012,-0.51267 0.35423,-1.48595 -0.0152,-0.93856 0.246,-4.53808 0.44127,-6.07753 0.11808,-0.93061 0.48214,-10.44424 0.49048,-12.82536 0.005,-1.2683 -0.059,-4.10424 -0.14154,-6.31398 -0.13777,-3.69641 -0.16123,-22.95001 -0.031,-24.9009 l 0.0568,-0.84239 1.54181,-0.068 c 1.45703,-0.0637 2.91937,-0.0173 8.7581,0.27766 3.33189,0.16848 5.01675,0.25163 8.26158,0.40927 1.47294,0.0722 3.49235,0.19089 4.47481,0.26464 1.51304,0.1128 2.46524,0.16777 4.54444,0.26249 0.48593,0.0217 15.21524,-0.15619 16.93644,-0.20463 0.90828,-0.0253 3.8829,-0.0767 6.60927,-0.11281 2.72636,-0.0361 5.34449,-0.10123 5.81755,-0.14461 0.63353,-0.0579 0.94233,-0.0267 1.17015,0.11859 0.22557,0.14388 0.69561,0.19377 1.72802,0.18437 0.78491,-0.009 1.44947,0.0188 1.48732,0.0586 0.0379,0.0398 0.0916,2.3746 0.11883,5.18957 0.0515,5.34071 0.1756,9.30901 0.302,9.64235 0.0408,0.10847 0.10597,1.23648 0.14381,2.49898 0.0379,1.26323 0.0877,2.31966 0.10975,2.34208 0.11354,0.10774 0.0643,9.35239 -0.0583,11.02271"
       style="fill:#000000;fill-opacity:1;fill-rule:nonzero;stroke:none"
       id="path1048"
       inkscape:connector-curvature="0" />
  </g>
</svg>
