<?xml version="1.0" encoding="UTF-8" standalone="no"?>
<!-- Created with Inkscape (http://www.inkscape.org/) -->

<svg
   xmlns:dc="http://purl.org/dc/elements/1.1/"
   xmlns:cc="http://creativecommons.org/ns#"
   xmlns:rdf="http://www.w3.org/1999/02/22-rdf-syntax-ns#"
   xmlns:svg="http://www.w3.org/2000/svg"
   xmlns="http://www.w3.org/2000/svg"
   xmlns:sodipodi="http://sodipodi.sourceforge.net/DTD/sodipodi-0.dtd"
   xmlns:inkscape="http://www.inkscape.org/namespaces/inkscape"
   width="21.26656mm"
   height="18.152674mm"
   viewBox="0 0 75.353953 64.320495"
   id="svg6079"
   version="1.1"
   inkscape:version="0.91 r13725"
   sodipodi:docname="button3_clear.svg">
  <defs
     id="defs6081" />
  <sodipodi:namedview
     id="base"
     pagecolor="#ffffff"
     bordercolor="#666666"
     borderopacity="1.0"
     inkscape:pageopacity="0.0"
     inkscape:pageshadow="2"
     inkscape:zoom="4"
     inkscape:cx="40.485658"
     inkscape:cy="33.082241"
     inkscape:document-units="px"
     inkscape:current-layer="layer1"
     showgrid="false"
     inkscape:snap-global="true"
     fit-margin-top="0"
     fit-margin-left="0"
     fit-margin-right="0"
     fit-margin-bottom="0"
     inkscape:window-width="1920"
     inkscape:window-height="1080"
     inkscape:window-x="0"
     inkscape:window-y="0"
     inkscape:window-maximized="0" />
  <metadata
     id="metadata6084">
    <rdf:RDF>
      <cc:Work
         rdf:about="">
        <dc:format>image/svg+xml</dc:format>
        <dc:type
           rdf:resource="http://purl.org/dc/dcmitype/StillImage" />
        <dc:title />
      </cc:Work>
    </rdf:RDF>
  </metadata>
  <g
     inkscape:label="Layer 1"
     inkscape:groupmode="layer"
     id="layer1"
     transform="translate(-145.93253,-142.78421)">
    <g
       id="g584"
       transform="matrix(0.45406431,0,0,-0.36748243,171.04,184.26246)">
      <path
         d="m 0,0 c 3.828,-15.463 21.228,-19.797 35.903,-17.34 17.026,2.852 27.451,25.817 13.602,41.34 -4.518,5.064 -10.141,9.142 -15.654,14.021 2.585,3.227 5.6,6.737 8.335,10.454 6.404,8.711 3.313,16.387 -6.975,19.75 -12.3,4.019 -24.288,0.486 -36.367,-0.47 -4.906,-0.389 -6.238,-3.956 -4.408,-8.682 3.058,-7.901 9.702,-9.583 15.943,-9.34 C 9.262,45.038 6.619,40.339 7.615,36.611 9.09,31.089 12.699,25.857 18.917,23.696 21.416,22.828 24.04,22.175 26.351,20.943 32.288,17.777 33.729,11.161 30.169,4.539 27.156,-1.062 24.399,-1.679 17.146,2.297 10.985,5.675 5.37,6.406 0,0 m 23.604,-42.156 c -6.281,1.357 -13.375,1.96 -19.742,4.435 -21.309,8.286 -26.435,20.637 -27.797,45.783 -1.023,18.897 2.863,37.079 10.417,54.437 5.081,11.674 11.554,22.386 22.099,30.011 8.513,6.155 17.71,6.388 27.456,3.121 3.62,-1.213 8.161,-2.705 11.364,-1.541 7.816,2.838 12.747,-1.319 17.85,-5.462 C 78.263,78.065 86.685,64.249 91.529,48.465 96.513,32.23 93.319,16.174 87.78,0.683 81.937,-15.659 70.403,-27.404 55.282,-35.473 45.681,-40.596 34.885,-40.757 23.604,-42.156"
         style="fill:#ffffff;fill-opacity:1;fill-rule:evenodd;stroke:none"
         id="path586"
         inkscape:connector-curvature="0" />
    </g>
    <g
       id="g588"
       transform="matrix(0.45406431,0,0,-0.36748243,171.04,184.26246)">
      <path
         d="m 0,0 c 5.37,6.406 10.985,5.675 17.146,2.297 7.253,-3.976 10.01,-3.359 13.023,2.242 3.56,6.622 2.119,13.238 -3.818,16.404 -2.311,1.232 -4.935,1.885 -7.434,2.753 -6.218,2.161 -9.827,7.393 -11.302,12.915 -0.996,3.728 1.647,8.427 2.764,13.122 -6.241,-0.243 -12.885,1.439 -15.943,9.34 -1.83,4.726 -0.498,8.293 4.408,8.682 12.079,0.956 24.067,4.489 36.367,0.47 C 45.499,64.862 48.59,57.186 42.186,48.475 39.451,44.758 36.436,41.248 33.851,38.021 39.364,33.142 44.987,29.064 49.505,24 63.354,8.477 52.929,-14.488 35.903,-17.34 21.228,-19.797 3.828,-15.463 0,0"
         style="fill:#231f20;fill-opacity:1;fill-rule:evenodd;stroke:none"
         id="path590"
         inkscape:connector-curvature="0" />
    </g>
    <g
       id="g580"
       transform="matrix(0.45406431,0,0,-0.36748243,178.48803,200.87767)">
      <path
         d="m 0,0 c 11.281,1.399 22.077,1.561 31.679,6.684 15.121,8.068 26.654,19.813 32.498,36.155 5.539,15.491 8.732,31.547 3.749,47.782 -4.845,15.784 -13.267,29.6 -26.279,40.163 -5.102,4.143 -10.034,8.3 -17.849,5.462 -3.203,-1.163 -7.744,0.328 -11.364,1.542 -9.746,3.266 -18.944,3.033 -27.456,-3.122 C -25.567,127.041 -32.04,116.33 -37.121,104.655 -44.676,87.297 -48.562,69.115 -47.538,50.218 -46.177,25.072 -41.051,12.722 -19.741,4.436 -13.374,1.96 -6.28,1.357 0,0 m -71.698,58.428 c 0.492,32.782 10.41,60.261 30.03,84.473 3.743,4.619 7.7,7.609 13.09,9.499 12.604,4.42 25.076,7.978 38.698,3.876 5.199,-1.565 11.224,-1.874 16.602,-1.031 8.998,1.409 16.84,-1.132 23.272,-6.387 12.075,-9.864 23.735,-20.436 31.935,-33.953 C 93.206,96.315 96.38,76.408 92.939,54.699 89.552,33.323 78.662,16.963 63.116,3.216 57.996,-1.312 51.489,-4.488 45.231,-7.476 19.797,-19.617 -6.56,-19.76 -32.271,-9.755 c -23.435,9.12 -35.153,28.48 -38.576,52.943 -0.781,5.582 -0.65,11.291 -0.851,15.24"
         style="fill:#231f20;fill-opacity:1;fill-rule:evenodd;stroke:none"
         id="path582"
         inkscape:connector-curvature="0" />
    </g>
  </g>
</svg>
