<?xml version="1.0" encoding="UTF-8" standalone="no"?>
<!-- Created with Inkscape (http://www.inkscape.org/) -->

<svg
   xmlns:dc="http://purl.org/dc/elements/1.1/"
   xmlns:cc="http://creativecommons.org/ns#"
   xmlns:rdf="http://www.w3.org/1999/02/22-rdf-syntax-ns#"
   xmlns:svg="http://www.w3.org/2000/svg"
   xmlns="http://www.w3.org/2000/svg"
   xmlns:sodipodi="http://sodipodi.sourceforge.net/DTD/sodipodi-0.dtd"
   xmlns:inkscape="http://www.inkscape.org/namespaces/inkscape"
   width="212.40028mm"
   height="86.771278mm"
   viewBox="0 0 752.59945 307.45727"
   id="svg6079"
   version="1.1"
   inkscape:version="0.91 r13725"
   sodipodi:docname="screen_alert.svg">
  <defs
     id="defs6081" />
  <sodipodi:namedview
     id="base"
     pagecolor="#ffffff"
     bordercolor="#666666"
     borderopacity="1.0"
     inkscape:pageopacity="0.0"
     inkscape:pageshadow="2"
     inkscape:zoom="0.35355339"
     inkscape:cx="755.60917"
     inkscape:cy="-451.63946"
     inkscape:document-units="px"
     inkscape:current-layer="layer1"
     showgrid="false"
     inkscape:snap-global="true"
     fit-margin-top="0"
     fit-margin-left="0"
     fit-margin-right="0"
     fit-margin-bottom="0"
     inkscape:window-width="956"
     inkscape:window-height="1041"
     inkscape:window-x="960"
     inkscape:window-y="18"
     inkscape:window-maximized="0" />
  <metadata
     id="metadata6084">
    <rdf:RDF>
      <cc:Work
         rdf:about="">
        <dc:format>image/svg+xml</dc:format>
        <dc:type
           rdf:resource="http://purl.org/dc/dcmitype/StillImage" />
        <dc:title></dc:title>
      </cc:Work>
    </rdf:RDF>
  </metadata>
  <g
     inkscape:label="Layer 1"
     inkscape:groupmode="layer"
     id="layer1"
     transform="translate(83.737596,111.10779)">
    <rect
       style="fill:#ff0000;fill-opacity:0.43137255"
       id="rect4134"
       width="690.13623"
       height="271.52899"
       x="-44.139614"
       y="-89.321648" />
    <path
       d="m 667.58056,-96.587337 c -1.49667,-0.6861 -1.70222,-2.453273 -0.33458,-2.835852 0.56178,-0.157295 -0.51284,-0.192295 -2.37421,-0.0782 -3.25133,0.197174 -3.98874,0.0025 -7.40003,-1.963251 -2.13491,-1.22442 -3.041,-1.34073 -5.43624,-0.69208 -2.15138,0.57488 -2.57739,0.54564 -3.45775,-0.23416 -0.74832,-0.67989 -1.60734,-0.83341 -3.53852,-0.65198 -2.0301,0.1925 -2.71399,0.047 -3.39338,-0.7118 -1.05792,-1.15774 -3.7995,-1.14689 -5.03449,0.0208 -0.69727,0.68499 -0.87195,0.68277 -1.64573,-0.004 -0.64177,-0.58728 -1.42078,-0.66992 -3.19251,-0.35534 -1.3044,0.22885 -2.12304,0.28423 -1.81083,0.12294 0.28777,-0.15419 0.52471,-0.6584 0.49361,-1.07887 -0.0399,-0.53855 -0.29663,-0.64046 -0.82168,-0.32322 -0.42996,0.25432 -2.74333,0.6615 -5.16843,0.90695 -3.43957,0.34892 -4.76629,0.27537 -6.00617,-0.30882 -0.85316,-0.41117 -2.6694,-0.6985 -3.98551,-0.62806 -1.34097,0.0718 -3.7413,-0.0224 -5.37542,-0.2067 -5.83247,-0.65641 -13.0863,-0.97942 -19.20976,-0.85116 -3.4352,0.0711 -6.61129,-0.0625 -7.07744,-0.29775 -0.46638,-0.23815 -3.31625,-0.34294 -6.39972,-0.23572 -3.05885,0.103 -6.05857,-0.005 -6.6998,-0.24857 -0.71875,-0.27958 -1.53546,-0.19828 -2.2271,0.22618 -0.81043,0.5031 -1.3319,0.53101 -2.13558,0.11431 -0.67353,-0.34272 -4.54578,-0.45061 -10.34262,-0.28779 -5.12506,0.14422 -10.36609,0.0691 -11.72938,-0.16151 -1.31366,-0.23328 -3.95295,-0.18741 -5.77667,0.0981 -2.07062,0.31901 -3.76541,0.32589 -4.41156,0.0163 -1.19064,-0.5926 -9.13719,-0.84384 -16.99321,-0.54478 -4.52485,0.16991 -5.73025,0.0523 -6.47922,-0.63625 -0.75131,-0.72021 -1.20189,-0.74524 -2.98018,-0.18166 -1.51021,0.47984 -2.35558,0.51063 -3.08305,0.11299 -0.70072,-0.37306 -5.85914,-0.34272 -16.12283,0.0997 -12.84821,0.55471 -15.26803,0.53388 -16.23967,-0.13117 -0.86547,-0.5782 -1.74355,-0.65264 -3.43676,-0.28733 -1.42326,0.30749 -2.39679,0.2902 -2.59619,-0.0461 -0.19694,-0.3046 -3.37826,-0.50731 -7.36465,-0.4732 -3.86178,0.0332 -8.67321,0.0363 -10.67006,0.004 -4.89187,-0.0736 -6.33343,-0.0138 -12.42665,0.52348 -2.84832,0.25365 -5.46551,0.26073 -5.78266,0.0174 -0.34222,-0.24479 -1.09484,-0.3086 -1.70608,-0.14577 -0.63585,0.16703 -1.23864,0.10678 -1.40597,-0.13291 -0.14196,-0.23817 -2.01959,-0.34006 -4.0807,-0.22974 -3.52619,0.18874 -3.83014,0.12406 -3.90168,-0.84361 -0.0969,-1.31037 -1.04335,-1.2973 -1.22066,0.0132 -0.15458,0.94506 -0.67193,1.0277 -8.60073,1.35378 -4.6479,0.19094 -8.63497,0.21643 -8.89629,0.054 -0.41711,-0.24656 -12.35475,0.48492 -14.22092,0.87106 -0.36824,0.0775 -2.19697,-0.0414 -4.08283,-0.25854 -2.33839,-0.26806 -3.5316,-0.22154 -3.82803,0.15287 -0.58943,0.79486 -4.41939,0.9218 -5.14799,0.17146 -0.35094,-0.36287 -2.18374,-0.53656 -4.56998,-0.44064 -2.16256,0.0868 -4.21245,0.0115 -4.50009,-0.1697 -0.67909,-0.41759 -11.76119,0.0831 -12.34941,0.55692 -0.25812,0.21911 -0.76341,0.1276 -1.13769,-0.21378 -0.39976,-0.3487 -1.95513,-0.4794 -3.73839,-0.32034 -4.30952,0.38391 -4.23484,0.38279 -11.23323,0.47982 -3.48676,0.0478 -6.66073,-0.0569 -7.07253,-0.23151 -1.02883,-0.42778 -14.88101,0.70977 -15.93362,1.30969 -0.47836,0.27426 -1.17875,0.24237 -1.6757,-0.0722 -0.9944,-0.63781 -43.31522,1.2053 -44.15977,1.9213 -0.30556,0.25055 -1.09028,0.0902 -1.89885,-0.39279 -1.22571,-0.72951 -1.72449,-0.73173 -4.66219,-0.002 -4.28413,1.06491 -6.73108,1.35202 -7.39023,0.86686 -0.2907,-0.22154 -1.59595,-0.3425 -2.96175,-0.26939 -1.34096,0.0718 -2.9302,0.15683 -3.55102,0.19007 -0.64563,0.0346 -4.79352,0.24505 -9.26462,0.46699 -4.49554,0.2291 -8.33551,0.22063 -8.55228,-0.0136 -0.24142,-0.22996 -0.90823,-0.14511 -1.45746,0.1821 -0.78946,0.44993 -1.36316,0.44594 -2.21968,-0.0113 -0.7797,-0.42956 -1.82992,-0.47165 -3.3009,-0.1356 -2.47609,0.56624 -24.47109,1.83316 -24.87469,1.43262 -0.13452,-0.13158 -0.62186,0.0188 -1.07325,0.32057 -0.54474,0.38768 -1.01697,0.40718 -1.46704,0.0525 -0.39825,-0.32853 -3.29308,-0.3673 -7.8113,-0.10812 -3.92249,0.22436 -7.54821,0.41555 -8.0464,0.42205 -2.56473,0.0419 -33.74921,1.78043 -47.19884,2.630429 -5.11189,0.322771 -9.54228,0.421128 -9.85624,0.221078 -0.31373,-0.197168 -1.30002,-0.04894 -2.14509,0.322993 -1.88263,0.838062 -14.00783,1.729945 -15.42304,1.134902 -0.644,-0.280685 -2.575413,-0.102122 -5.398132,0.497114 -6.749486,1.439744 -10.683803,1.841158 -15.218117,1.54607 -1.503138,-0.09883 -3.448134,-0.104576 -4.31432,-0.01764 -0.841106,0.0884 -2.704396,0.176562 -4.04962,0.190748 -4.633123,0.05427 -5.201687,0.119395 -8.774003,1.033443 -3.034286,0.772487 -6.66911,1.178109 -9.989705,1.112977 -2.396928,-0.04808 -13.652674,1.138445 -14.075604,1.487805 -0.282457,0.226188 -4.013184,0.683205 -8.251881,1.014173 -4.239104,0.325208 -10.076797,0.947043 -12.887439,1.372167 -2.860349,0.427778 -7.688838,0.874162 -10.7462425,0.99733 -3.0826197,0.118743 -5.6787425,0.410949 -5.7856412,0.650858 -0.1074845,0.234174 -1.3862798,0.470318 -2.7790492,0.515953 -4.9741444,0.162146 -22.8347131,1.71088 -24.8216441,2.149735 -1.104048,0.241249 -3.297544,0.584179 -4.830764,0.75299 -1.53322,0.168817 -3.393942,0.493924 -4.092794,0.719271 -1.149521,0.368011 -1.410841,0.205617 -2.471152,-1.524473 -1.33887,-2.19226 -2.263462,-2.929216 -3.567179,-2.859433 -0.692813,0.03708 -0.900346,-0.240942 -0.883311,-1.190217 0.02028,-1.053475 -0.122807,-1.187552 -0.948906,-0.897571 -0.648737,0.228446 -1.338621,0.0023 -2.069358,-0.675683 -0.789865,-0.735493 -1.406357,-0.913562 -2.201112,-0.636826 -1.30045,0.451264 -4.599976,4.918635 -6.103002,8.260522 l -1.089762,2.42345 1.083408,1.468639 1.083182,1.465767 -1.54345,4.581545 c -0.848475,2.517518 -1.527925,4.791787 -1.508749,5.050982 0.0658,0.889903 1.845556,2.133334 2.536904,1.772498 0.391113,-0.205971 1.019165,-0.04014 1.434389,0.382945 0.833129,0.848834 1.290535,3.730157 0.675079,4.240169 -0.211363,0.17612 -0.436292,1.584681 -0.497651,3.114598 -0.102752,2.587474 -0.7788,6.931764 -1.9525,12.569102 -0.516984,2.482421 -1.369334,10.172767 -1.730095,15.61046 -0.117399,1.749762 -0.39598,4.624217 -0.626903,6.423431 -0.230742,1.802093 -0.323783,4.522049 -0.208209,6.085858 0.116273,1.572449 -0.0017,3.11118 -0.265151,3.460674 -0.263325,0.349495 -0.45335,1.521986 -0.421668,2.624783 0.202125,7.7235282 0.126187,13.6750943 -0.185675,14.212227 -0.192211,0.3312284 -0.17148,4.0859789 0.04687,8.38817 0.215645,4.299458 0.488007,10.611142 0.603085,14.089057 0.407495,12.286649 2.728507,45.054368 3.379385,47.685355 0.352018,1.42394 1.041338,7.204433 1.53277,12.804689 0.489314,5.603257 1.177372,12.447836 1.528421,15.172926 0.351634,2.73374 0.5881,7.27785 0.521919,10.12358 -0.09058,4.00069 0.03538,5.50034 0.563381,6.67488 0.549591,1.22832 0.579808,1.94086 0.162917,3.75292 -0.671699,2.91863 -1.124869,10.57893 -0.799712,13.55986 0.13475,1.24763 0.02456,3.60419 -0.243045,5.14225 -0.470341,2.70835 -0.444855,2.91805 0.551123,4.52147 1.233728,1.98394 3.052244,3.65032 3.733295,3.42014 0.308979,-0.10337 0.663159,0.0339 0.847167,0.33053 1.102629,1.76255 4.70496,-1.40836 5.985445,-5.26457 0.336267,-1.01551 0.781933,-1.96749 1.009837,-2.15606 0.225447,-0.18843 0.329912,-0.96602 0.23455,-1.75025 -0.09779,-0.78121 0.06625,-2.94694 0.361121,-4.85944 0.643082,-4.14881 0.654146,-8.44884 0.04371,-17.88531 -0.251811,-3.87828 -0.277567,-8.03466 -0.06219,-9.19984 0.661672,-3.55996 -2.809627,-38.903025 -3.887853,-39.594169 -0.335072,-0.216258 -0.360242,-0.75849 -0.09036,-1.825388 0.24735,-0.970278 -0.009,-7.968105 -0.705161,-19.345845 -0.600156,-9.804232 -1.14898,-20.189489 -1.217933,-23.077144 -0.257377,-10.559876 -0.166296,-19.9818668 0.199421,-20.6317554 0.205055,-0.3608298 0.176888,-1.3510548 -0.06512,-2.23152023 -0.241897,-0.88047693 -0.234934,-1.59212377 0.01577,-1.60554707 0.248296,-0.013228 0.470431,-1.3927855 0.489381,-3.0245158 0.07999,-6.3681385 0.742905,-16.2833495 1.15894,-17.3667425 0.249085,-0.643643 0.411078,-1.554412 0.376354,-2.125041 -0.103429,-1.781312 0.281916,-6.23438 0.606127,-6.974571 0.426355,-0.976961 1.146546,-6.847355 1.116577,-9.106783 -0.01352,-0.996759 0.166747,-2.330678 0.395191,-2.915393 0.727312,-1.863367 1.937178,-10.989605 2.369662,-17.850788 0.106809,-1.688488 0.562435,-3.115169 1.368794,-4.280177 0.680104,-0.984763 1.430783,-2.060045 1.700463,-2.45903 0.270717,-0.384584 0.611355,-0.498228 0.779072,-0.252767 0.34039,0.557159 2.660929,-0.09039 3.02899,-0.844488 0.171029,-0.382141 0.299402,-0.334071 0.334328,0.13824 0.04214,0.570229 0.545197,0.630041 2.239239,0.276258 1.964014,-0.41161 2.191985,-0.363092 2.055928,0.494245 -0.110864,0.861766 0.143088,0.920465 2.713117,0.615201 1.556993,-0.184537 3.245514,-0.6132 3.768199,-0.962117 0.689478,-0.453259 1.362079,-0.460349 2.391587,-0.02393 0.952669,0.408733 2.126143,0.432662 3.545614,0.07333 1.1500396,-0.292868 4.9555096,-0.750995 8.4259073,-1.020596 5.4040824,-0.416474 10.5039409,-1.238805 12.0964697,-1.954362 0.240995,-0.111209 1.962617,-0.09353 3.891975,0.03744 2.631275,0.182984 3.792604,0.04277 4.966191,-0.606994 1.029237,-0.578427 1.86694,-0.712895 2.66059,-0.431545 0.640626,0.234609 1.714164,0.255211 2.472077,0.05272 0.733035,-0.201146 2.882387,-0.466544 4.841828,-0.603233 2.009307,-0.136456 3.455638,-0.468315 3.432,-0.78799 -0.02614,-0.354233 1.11144,-0.478735 3.164957,-0.354442 1.778227,0.110097 3.415462,-6.59e-4 3.721038,-0.251225 0.280946,-0.246343 2.251135,-0.574433 4.358508,-0.733494 2.107552,-0.156183 6.686866,-0.600789 10.148521,-0.988473 3.461632,-0.38768 7.816355,-0.834726 9.674552,-0.992017 1.833366,-0.155954 3.723516,-0.554937 4.173193,-0.879707 0.518833,-0.400752 1.610398,-0.473637 3.324359,-0.221309 2.546211,0.381265 6.270538,-0.162146 6.609734,-0.969644 0.129342,-0.272925 0.927454,-0.269386 1.845489,0.0082 1.223047,0.356671 2.041665,0.301285 3.100444,-0.215108 1.612019,-0.788882 3.664996,-1.008641 4.031908,-0.429772 0.340616,0.560036 9.614749,-0.115637 10.315629,-0.751654 0.302173,-0.296631 8.486681,-0.873499 19.519101,-1.371489 10.46088,-0.473179 19.52856,-0.906495 20.19756,-0.96255 2.30409,-0.195608 5.98418,-0.326068 9.64798,-0.340039 1.99385,-0.0084 4.21811,-0.272032 4.94287,-0.585512 0.89345,-0.391892 2.8875,-0.397428 6.33068,-0.0237 2.7395,0.298635 5.21284,0.36864 5.44647,0.156644 0.25832,-0.216224 1.5843,-0.489594 2.92205,-0.604564 1.36259,-0.116308 6.78684,-0.597472 12.01266,-1.065121 5.22582,-0.46765 9.64875,-0.666801 9.78995,-0.443049 0.28406,0.470546 22.65499,-0.770243 23.31434,-1.294166 0.23525,-0.188965 1.20673,-0.200492 2.16767,-0.01764 0.96062,0.179879 3.04934,0.105669 4.64939,-0.170791 1.62509,-0.27492 4.6587,-0.382358 6.78843,-0.239037 4.93563,0.328545 4.86116,0.332532 7.41638,-0.512621 1.94678,-0.644885 2.27194,-0.630486 2.79998,0.104557 0.52614,0.70913 1.07821,0.757649 3.7388,0.326102 2.68502,-0.438632 3.16236,-0.389011 3.4676,0.366643 0.24501,0.6172 0.50189,0.719104 0.87322,0.346484 0.83308,-0.871515 3.61488,-1.350029 10.41387,-1.783338 13.32461,-0.854887 15.96661,-0.863265 16.74873,-0.06378 0.78213,0.799519 1.68908,0.927343 1.63734,0.227519 -0.064,-0.863987 3.34642,-1.945732 5.13979,-1.631155 0.98485,0.169928 3.48365,0.24724 5.52202,0.167053 2.75918,-0.110117 3.74236,0.03677 3.78111,0.560929 0.0367,0.49535 0.41784,0.59349 1.27082,0.328094 2.60658,-0.824767 9.7669,-1.766057 10.27151,-1.347804 0.47809,0.396547 3.87352,0.125185 8.74863,-0.702471 1.35451,-0.225746 2.38559,-0.104538 3.14301,0.360885 0.83788,0.542098 1.96343,0.591721 4.80278,0.217107 8.19685,-1.083511 23.59952,-1.482914 25.70435,-0.664565 1.02671,0.398985 1.29691,0.344046 1.25283,-0.252094 -0.0428,-0.578873 0.44425,-0.735052 2.0204,-0.660396 1.15062,0.05117 2.36747,0.324331 2.68659,0.593496 0.39823,0.328537 1.19222,0.277365 2.43145,-0.159059 1.02079,-0.355337 2.23313,-0.480949 2.6719,-0.278896 0.77475,0.36332 3.05263,0.487158 6.28298,0.343164 0.77024,-0.03547 1.80964,0.198056 2.43311,0.537667 0.88372,0.487598 1.30352,0.433324 2.24614,-0.305279 0.8955,-0.701377 1.36347,-0.778468 2.09329,-0.349133 0.62431,0.351131 3.54611,0.417375 8.01593,0.178133 5.36384,-0.287101 7.23905,-0.214002 7.85148,0.314149 0.63793,0.53545 1.03803,0.55162 1.77528,0.06978 1.52218,-0.992246 3.81924,-1.282896 4.42135,-0.557596 0.8499,1.041658 4.70972,0.644228 6.55678,-0.674783 1.94212,-1.381928 2.68261,-1.48228 3.13497,-0.422239 0.24331,0.594163 0.70059,0.708468 1.6259,0.410284 0.70631,-0.225742 1.58331,-0.165711 1.92958,0.133811 0.34711,0.311034 2.25121,0.437531 4.40928,0.290217 2.08382,-0.140445 7.03334,-0.298401 11.01824,-0.352671 3.98493,-0.05427 7.55486,-0.326313 7.93274,-0.60964 0.47345,-0.340501 1.078,-0.257203 1.78848,0.248342 0.89435,0.631594 1.89319,0.653307 5.96778,0.125836 4.54405,-0.584401 5.02009,-0.552057 6.53747,0.413392 1.4121,0.890128 2.09131,0.97232 4.70377,0.563588 1.87295,-0.293972 3.23251,-0.788877 3.4945,-1.291537 0.64115,-1.107007 0.99794,-1.001776 1.09486,0.308595 0.0789,1.065585 0.25731,1.119637 2.12112,0.701826 1.39847,-0.306159 2.45123,-0.229513 3.33382,0.243691 0.80453,0.428227 1.53317,0.504882 1.88481,0.202707 0.68269,-0.545416 3.963,-0.350903 4.78241,0.278919 0.26422,0.202711 3.26013,0.259201 6.59092,0.124284 3.35559,-0.136246 6.92747,-0.04407 7.94315,0.20515 1.09208,0.271163 3.2084,0.233062 5.27814,-0.09746 1.99543,-0.32366 3.81311,-0.354444 4.30751,-0.07444 0.54534,0.294642 1.93808,0.249006 3.58185,-0.110749 1.69258,-0.373948 3.95595,-0.445941 6.11835,-0.197369 1.86104,0.218432 5.48263,0.307938 8.01765,0.201161 2.75876,-0.115848 4.83944,0.03878 5.16403,0.382823 0.40362,0.400532 1.10166,0.400754 2.343,-0.0069 1.72843,-0.563804 4.34999,-0.174989 5.64598,0.831207 0.26443,0.205595 1.62541,0.06623 3.01872,-0.309042 2.05291,-0.558042 3.07572,-0.549184 5.48827,0.04741 2.38768,0.597924 3.43578,0.611221 5.56425,0.06359 3.13214,-0.797963 9.02331,-1.370619 9.45552,-0.919574 0.18883,0.192287 1.11973,0.307267 2.06334,0.25676 0.96849,-0.05184 1.85318,0.111861 1.99669,0.367306 0.169,0.262745 1.17866,0.09305 2.36369,-0.401196 2.63646,-1.095263 3.87938,-1.144441 4.64838,-0.185188 0.46599,0.570675 1.17368,0.700497 2.42649,0.448392 0.98266,-0.197182 2.25934,-0.126699 2.87897,0.161052 0.903,0.411389 1.29585,0.329645 1.91563,-0.391669 0.61832,-0.741477 1.57696,-0.925789 5.23522,-1.01462 2.46351,-0.06248 5.55801,-0.358213 6.80762,-0.653516 2.05848,-0.483165 2.38663,-0.428446 2.87736,0.476301 0.49096,0.907626 0.91991,0.97719 3.9836,0.602134 2.74234,-0.337624 3.57099,-0.25764 4.01769,0.389243 0.50108,0.707582 1.12913,0.772272 4.82364,0.499345 0.61997,-0.04471 2.76195,-0.07268 4.75729,-0.0609 3.9157,0.02172 4.56349,0.01591 6.42678,-0.07222 2.40979,-0.114391 6.53745,0.07511 6.75422,0.309271 0.10793,0.109867 1.44451,-0.01948 3.01975,-0.294636 1.55059,-0.270933 3.16834,-0.308367 3.609,-0.0804 1.16645,0.602578 2.94501,0.380156 4.64423,-0.578196 1.33993,-0.759865 1.5647,-0.754545 2.54696,0.0545 0.87443,0.699165 1.37896,0.779143 2.44562,0.3693 1.09062,-0.422682 1.52067,-0.338722 2.30423,0.480961 0.94667,1.001777 0.94667,1.001777 0.0239,2.681896 -0.70282,1.283787 -0.88568,2.519505 -0.78351,5.249249 0.0687,1.942201 0.0284,4.09263 -0.10005,4.715359 -0.14962,0.673016 0.0683,1.598153 0.49128,2.260759 1.32557,2.080211 2.14119,5.355818 2.04306,8.411442 -0.0498,1.685433 0.2037,3.768087 0.55894,4.862236 1.44288,4.340751 2.04604,6.766109 2.38832,9.708529 0.20235,1.723972 0.65721,3.83055 1.0191,4.678584 0.39819,1.002224 0.64493,2.989828 0.66845,5.668845 0.0225,3.000015 0.19649,4.343862 0.66237,4.911638 0.38134,0.436428 0.77538,1.719333 0.91407,2.920489 0.41232,3.554527 1.12363,6.766326 1.73521,7.956629 0.43832,0.869965 0.44736,1.329209 0.0248,2.02262 -0.40035,0.654635 -0.40092,0.984275 -0.0113,1.212018 0.33791,0.187189 0.99699,3.705387 1.65373,8.877548 0.6221,4.702723 1.27548,8.8197258 1.49757,9.1258886 0.19717,0.3074894 0.91876,7.3671244 1.61324,15.7466654 0.69464,8.379525 1.9203,20.57323 2.78457,27.203086 0.83962,6.63407 1.98943,16.113972 2.51259,21.166065 0.5459,5.021959 1.36868,12.102198 1.83292,15.682856 0.49082,3.602369 1.07378,9.46373 1.31624,13.079393 0.2421,3.615679 0.49382,7.019774 0.53664,7.598649 0.31084,3.192757 0.53514,5.887055 0.60308,6.805755 0.018,0.58022 0.24987,3.037 0.48145,5.49671 0.50619,5.49536 2.0087,33.56799 1.81906,34.03787 -0.0863,0.18096 -0.29882,2.70204 -0.48319,5.60326 -0.72602,11.0838 -1.157,14.02136 -2.58609,17.28409 -1.70756,3.87908 -4.46451,7.72757 -6.82615,9.50495 -1.93618,1.46255 -6.28115,2.71577 -10.13022,2.9218 -1.39061,0.0744 -2.61667,0.35109 -2.74631,0.62117 -0.23511,0.53012 -21.84245,1.64333 -22.60075,1.1663 -0.26148,-0.16544 -6.49159,-0.12959 -13.83098,0.0753 -7.33948,0.20499 -16.199,0.41894 -19.6851,0.47542 -3.48635,0.0537 -11.32585,0.239 -17.44636,0.40758 -6.09565,0.16717 -13.61423,0.30947 -16.75487,0.31856 -3.11573,0.008 -10.01184,0.13976 -15.31069,0.29329 -5.27409,0.15222 -10.11781,0.0558 -10.71129,-0.21603 -0.79985,-0.36486 -1.31985,-0.31682 -2.05537,0.18825 -0.66289,0.47496 -2.44449,0.65708 -5.78947,0.59903 -2.67093,-0.0449 -7.7084,-0.0644 -11.19684,-0.0397 -7.37578,0.0508 -8.82372,0.0242 -13.20692,-0.25012 -2.22923,-0.14091 -3.31717,-0.0192 -3.51127,0.39041 -0.40901,0.87485 -1.80813,0.83407 -2.57328,-0.0732 -0.51996,-0.6256 -1.47619,-0.74501 -4.327,-0.52593 -6.89172,0.52794 -10.25481,0.56235 -10.83728,0.10294 -0.47807,-0.39654 -5.11678,-0.75545 -11.43351,-0.87995 -1.24822,-0.0228 -4.22737,-0.19017 -6.60882,-0.36621 -4.93838,-0.36599 -9.55435,-0.41674 -14.64693,-0.17024 -3.25417,0.15873 -5.5405,-0.0794 -10.92971,-1.1469 -1.87211,-0.36821 -10.67493,-0.0619 -15.06958,0.52037 -0.93809,0.12537 -1.37537,-0.0566 -1.41605,-0.60658 -0.0444,-0.59905 -0.50234,-0.72486 -1.93368,-0.52683 -1.13546,0.15317 -2.32131,-0.0376 -2.97665,-0.47099 -0.73321,-0.47539 -1.31246,-0.55426 -1.73667,-0.22218 -0.32845,0.2778 -1.16658,0.40651 -1.84898,0.28106 -0.68223,-0.1225 -1.34676,-0.006 -1.4515,0.26287 -0.23657,0.50997 -7.23357,-0.0495 -8.65196,-0.68767 -0.4645,-0.2123 -1.83388,-0.18807 -3.03789,0.0498 -1.20398,0.23808 -2.30005,0.25025 -2.44123,0.0266 -0.14128,-0.2238 -3.58558,-0.27648 -7.61265,-0.11867 -5.31992,0.20656 -7.54579,0.11176 -8.10388,-0.3556 -0.50696,-0.44993 -1.78449,-0.53189 -4.23356,-0.27358 -2.54774,0.27236 -3.50037,0.20079 -3.53606,-0.28202 -0.0367,-0.49537 -1.63678,-0.55716 -6.60052,-0.25388 -3.62342,0.22275 -6.69079,0.21061 -6.83306,-0.0274 -0.14241,-0.23808 -3.41024,-0.26563 -7.20958,-0.0623 -4.69335,0.25122 -6.99156,0.18903 -7.1447,-0.19582 -0.1521,-0.36775 -2.18225,-0.51642 -5.86491,-0.42051 -3.08559,0.0786 -6.975,0.0755 -8.60129,-0.002 -5.45478,-0.26896 -16.59464,0.12499 -17.18222,0.60742 -0.35269,0.28777 -1.07964,0.23412 -1.80459,-0.12902 -0.69986,-0.36153 -2.40637,-0.51306 -4.1151,-0.35799 -1.63467,0.14532 -3.40906,0.087 -3.99854,-0.12997 -0.58925,-0.21416 -4.78432,-0.30486 -9.31401,-0.20116 -10.1547,0.23123 -16.81396,0.19446 -18.93008,-0.10295 -0.88196,-0.12652 -3.32936,-0.18327 -5.44439,-0.12787 -2.13987,0.0567 -4.0658,-0.028 -4.32692,-0.18768 -0.26103,-0.15969 -2.66381,0.0502 -5.37519,0.4698 -3.2532,0.50953 -4.99213,0.59392 -5.21676,0.25311 -0.17013,-0.28001 -3.25239,-0.4909 -6.86608,-0.47386 -3.58843,0.0215 -7.48043,-0.0153 -8.60703,-0.0799 -6.88451,-0.38614 -12.439,-0.31726 -15.09407,0.18921 -1.86829,0.35732 -3.31156,0.39405 -3.63298,0.0932 -0.3195,-0.27493 -5.24709,-0.49403 -11.00576,-0.48939 -5.75887,0.002 -10.95341,-0.11924 -11.58809,-0.27318 -0.63506,-0.15969 -1.64454,-0.32542 -2.29659,-0.37726 -0.62742,-0.0562 -2.36382,-0.27537 -3.87552,-0.48937 -2.09111,-0.29576 -16.44977,-0.27607 -22.90903,0.032 -0.37261,0.0172 -1.41296,-0.22794 -2.3081,-0.53277 -1.53527,-0.5337 -4.91335,-0.36444 -7.84869,0.39744 -0.68531,0.17273 -1.74193,0.0441 -2.26454,-0.28071 -0.57296,-0.33077 -2.26123,-0.5729 -3.75437,-0.53634 -1.49315,0.0364 -5.33885,-0.0497 -8.61532,-0.19228 -10.605,-0.4646 -11.75392,-0.49273 -16.80769,-0.3957 -4.804792,0.0924 -5.90679,0.0241 -12.547756,-0.77693 -3.974651,-0.4812 -14.462661,-0.71204 -23.398184,-0.51424 -3.982335,0.089 -8.378857,-0.0286 -9.767007,-0.25788 -1.363115,-0.22773 -3.456878,-0.22263 -4.586411,0.0115 -1.670292,0.33812 -2.175244,0.25242 -2.548758,-0.41583 -0.400915,-0.70137 -0.67704,-0.72706 -1.631601,-0.14991 -0.883424,0.52727 -2.098968,0.60966 -5.159392,0.35435 -2.232681,-0.18691 -5.828342,-0.26341 -8.090226,-0.1712 -2.261885,0.0922 -4.687902,-0.0115 -5.452259,-0.23438 -0.789617,-0.22661 -1.799949,-0.40384 -2.299132,-0.41186 -2.845185,-0.0414 -12.759178,0.0728 -15.7431239,0.17771 -2.7600085,0.0985 -3.6451446,-0.0709 -4.3228153,-0.8066 -0.4358643,-0.50001 -1.0289445,-0.76608 -1.2642837,-0.57711 -0.6578188,0.5441 -6.1656226,0.56994 -7.1526774,0.033 -0.4674563,-0.25255 -2.9522639,-0.4781 -5.5221577,-0.50532 -6.361889,-0.0613 -8.723641,-0.30796 -9.117571,-0.949 -0.229368,-0.37228 -0.573904,-0.31043 -1.038318,0.18576 -0.54247,0.58706 -1.061821,0.64379 -2.406189,0.26479 -2.500513,-0.70752 -11.473217,-1.75391 -13.587169,-1.58291 -0.946877,0.0738 -2.049551,-0.10428 -2.387057,-0.3869 -0.770621,-0.64402 -2.057303,-0.84979 -6.335322,-1.01694 -1.772548,-0.0671 -3.603165,-0.37962 -4.133219,-0.70401 -0.555968,-0.33742 -2.166433,-0.47096 -3.87787,-0.31865 -1.62207,0.14761 -3.264622,0.0851 -3.684578,-0.13247 -1.219104,-0.64024 -4.46881,-0.35353 -9.192112,0.80716 -2.448551,0.60236 -5.201957,1.195 -6.115418,1.31618 -0.898814,0.11752 -1.78404,0.38464 -1.929335,0.57744 -0.147594,0.19289 -1.396037,1.04622 -2.743898,1.86724 -4.684567,2.86452 -5.262887,3.33782 -6.248883,5.10807 -0.543529,0.97748 -0.944377,2.46773 -0.8841,3.28275 0.06197,0.83806 -0.10771,1.78105 -0.386854,2.15163 -0.701533,0.93097 -0.0365,1.32619 0.996091,0.59146 0.817288,-0.57865 0.914745,-0.5087 1.003775,0.69512 0.07368,0.99646 0.324616,1.3242 0.980339,1.2891 0.49666,-0.0266 1.002603,0.13994 1.162658,0.38306 0.15458,0.23741 0.7916,0.28722 1.414222,0.10947 0.754532,-0.21404 1.33292,-0.0452 1.738072,0.51124 0.52762,0.72929 1.052311,0.74459 4.090225,0.12231 1.923071,-0.39206 3.659363,-0.8493 3.871357,-1.01679 1.612606,-1.28624 7.781158,-2.72668 12.929959,-3.02252 2.122605,-0.12135 4.483591,-0.25536 5.283191,-0.29816 0.903929,-0.0483 1.632254,0.25962 1.942585,0.81548 0.416936,0.74968 1.288507,0.87071 5.362441,0.73943 4.026771,-0.12883 5.039311,0.0115 5.885148,0.79525 1.408228,1.30957 2.973829,1.57851 8.959026,1.53574 2.855573,-0.0199 5.547102,0.16851 6.016767,0.41812 0.467231,0.24967 1.696813,0.25615 2.723436,0.0134 1.382044,-0.3255 2.016315,-0.24393 2.429353,0.31813 0.651081,0.88172 2.733622,1.43234 4.753001,1.26358 0.817536,-0.07 1.578085,0.10064 1.77363,0.385 0.42444,0.68278 2.4055125,0.50158 2.7485165,-0.25411 0.1935623,-0.41805 0.3989546,-0.33652 0.743581,0.27827 0.4550178,0.75919 1.3312081,0.80769 7.33382377,0.39388 3.96874733,-0.27313 7.23478923,-0.27161 7.77883663,0.006 0.5179537,0.26139 2.3747321,0.42225 4.0902701,0.35931 2.262538,-0.0834 3.298152,0.0982 3.737194,0.64134 0.469664,0.61965 0.870174,0.64156 2.252397,0.11656 1.963317,-0.75853 3.807814,-0.42642 3.891931,0.71111 0.0489,0.66238 0.380342,0.76031 1.530426,0.46744 4.282841,-1.08216 5.66644,-1.25165 5.707541,-0.69584 0.02749,0.37151 0.481066,0.43688 1.28542,0.18845 1.778902,-0.55495 3.600799,-1.54011 3.572699,-1.92025 -0.01352,-0.16985 0.921258,-0.35293 1.990131,-0.39568 1.491218,-0.0625 2.257671,0.18845 2.939015,0.9732 0.789346,0.89745 1.473641,1.04875 4.736506,1.00711 2.092298,-0.0253 4.690989,-0.28298 5.716937,-0.5691 1.173001,-0.32013 1.920953,-0.31965 1.944816,0.004 0.07143,0.96479 2.746917,1.07314 3.825547,0.15088 0.866839,-0.7519 1.435426,-0.81704 3.880169,-0.45924 1.562852,0.23151 4.015797,0.36333 5.381594,0.29023 3.402031,-0.18212 4.145387,0.0934 4.253998,1.56202 0.09058,1.22401 0.141285,1.23574 1.755197,0.47277 2.93969,-1.37749 6.150458,-1.78644 8.348032,-1.06267 1.507284,0.49179 3.056931,0.54474 5.797538,0.18404 2.469192,-0.32308 4.465813,-0.29396 5.839992,0.0836 1.170184,0.31611 2.280069,0.49095 2.522011,0.39122 0.241874,-0.0995 2.27288,-0.2807 4.482938,-0.399 3.849074,-0.20603 4.077024,-0.15739 4.509444,0.97011 0.64545,1.64822 0.64545,1.64822 2.37047,0.36465 1.72523,-1.28068 2.9042,-1.52018 3.65979,-0.74233 0.26932,0.2718 1.90291,0.44746 3.56901,0.3901 2.63544,-0.0976 3.11856,0.0297 3.38003,0.86863 0.1627,0.51753 0.50937,0.81991 0.72031,0.63803 0.51863,-0.40363 3.40464,-0.82121 10.50813,-1.51948 3.01955,-0.29762 6.31984,-0.84426 7.33939,-1.21688 1.55373,-0.56601 1.95403,-0.54697 2.45108,0.10602 0.30559,0.42311 1.3849,0.8598 2.3638,0.94906 1.73194,0.15892 2.92793,0.82346 3.71779,2.06493 0.50745,0.79397 2.81817,0.68765 4.07511,-0.18347 0.56935,-0.39186 3.13169,-0.80371 6.25846,-0.99998 4.51608,-0.28802 5.31926,-0.21538 5.37037,0.47586 0.0455,0.61632 0.5824,0.79575 2.32365,0.74303 1.26858,-0.0389 2.24827,-0.27632 2.22867,-0.54141 -0.0566,-0.76606 6.66949,-0.49875 7.4514,0.29798 0.86238,0.87328 5.20464,0.59458 7.6172,-0.49435 1.44755,-0.65287 1.84745,-0.63959 2.94936,0.10237 0.81436,0.56071 2.00277,0.78621 3.43921,0.65731 1.43646,-0.12902 2.09381,-0.006 1.94682,0.36708 -0.15255,0.29729 0.0158,0.89546 0.31662,1.24657 0.41209,0.51573 1.73843,0.58353 5.3816,0.29022 2.65171,-0.21435 5.1209,-0.53724 5.48126,-0.72133 1.27395,-0.64067 4.93468,-1.0332 5.24362,-0.564 0.16877,0.25985 1.04221,0.27094 2.02122,0.0247 1.3706,-0.34515 1.80045,-0.26389 2.07308,0.38922 0.42518,1.02967 1.0218,1.00644 2.61021,-0.10199 0.92565,-0.63071 1.44351,-0.70757 2.17078,-0.3129 0.49461,0.28288 1.52274,0.36376 2.18171,0.17234 0.87885,-0.25228 1.4898,-0.0817 2.08867,0.59951 0.68022,0.77023 1.05952,0.84247 1.97206,0.37148 1.46517,-0.7521 6.49272,-1.20337 8.74245,-0.78597 1.28923,0.24036 1.76412,0.59369 1.81992,1.34825 0.0647,0.8755 0.24412,0.94107 1.15601,0.46146 0.57638,-0.29686 1.65111,-0.59727 2.32054,-0.64755 0.69421,-0.0525 4.24838,-0.53678 7.92289,-1.08042 5.07994,-0.75475 6.89271,-0.85177 7.54909,-0.40406 0.47185,0.31302 1.20267,0.41848 1.5626,0.22861 0.48048,-0.24554 0.69531,-0.0372 0.74962,0.69718 0.15638,2.11389 3.47265,2.12144 6.45802,0.0134 2.43956,-1.73527 3.65206,-1.858 4.43034,-0.43659 0.43167,0.78065 0.8683,0.95389 1.56822,0.64177 1.18248,-0.5288 5.34101,-0.59526 5.82699,-0.092 0.4314,0.43951 10.37002,-0.35258 16.10978,-1.2873 2.31554,-0.37839 4.15594,-0.43926 4.70037,-0.15605 0.88076,0.44727 4.25911,0.61917 9.95957,0.50198 1.41889,-0.0297 2.59856,0.0776 2.61008,0.23331 0.0113,0.15835 2.65567,0.17579 5.81171,0.0387 7.0081,-0.30268 15.39077,-0.22242 15.96715,0.15432 0.23568,0.15222 0.81961,-0.042 1.28968,-0.42756 0.65804,-0.54119 1.12944,-0.5722 2.08403,-0.13764 0.64596,0.30661 1.83435,0.53214 2.55452,0.49358 0.72013,-0.0385 1.3338,0.16851 1.35489,0.4537 0.0248,0.33408 2.27027,0.35847 6.23706,0.0594 3.44637,-0.25688 7.12859,-0.35891 8.28473,-0.2324 1.13159,0.13036 3.36314,0.30284 5.01509,0.39079 1.62687,0.0863 3.46204,0.29176 4.09795,0.46301 0.63574,0.16851 3.10989,0.24991 5.47324,0.18116 2.3385,-0.0673 5.23317,-0.0314 6.33834,0.0799 1.13021,0.11272 3.87226,0.10793 6.03268,-0.008 2.70671,-0.14493 4.06323,-0.006 4.24523,0.43201 0.18432,0.47008 2.05935,0.54032 7.0492,0.25299 3.7486,-0.21601 6.91626,-0.19655 7.05867,0.0443 0.16697,0.23675 1.46184,0.21379 2.88825,-0.0506 2.18878,-0.40629 2.66721,-0.34224 3.12183,0.41117 0.43169,0.7807 0.93387,0.82899 3.89163,0.36999 2.14444,-0.33161 3.86489,-0.32828 4.68786,0.0115 1.3617,0.54587 6.55816,0.69275 12.19179,0.34494 1.73726,-0.1064 5.14168,0.0803 7.50996,0.41627 2.39299,0.33166 6.12369,0.5483 8.26248,0.47722 2.18842,-0.0738 4.09126,0.0355 4.28128,0.245 0.21429,0.20257 1.24572,0.32655 2.2887,0.27071 1.04296,-0.0558 2.03103,0.15739 2.15357,0.4659 0.15458,0.40232 1.24556,0.32368 3.79386,-0.27816 3.9206,-0.92401 13.01248,-1.36731 14.28377,-0.69521 0.41651,0.23793 1.57477,0.39277 2.51836,0.34227 0.96849,-0.0518 2.00793,0.18174 2.33124,0.50843 0.64669,0.65353 2.6923,0.67126 15.89327,0.16697 5.07137,-0.19634 9.28661,-0.17023 9.42781,0.0535 0.16607,0.22528 1.41149,0.20781 2.83874,-0.0449 2.01796,-0.35673 2.72136,-0.28434 3.2152,0.32523 0.41424,0.54452 1.07118,0.66263 2.14762,0.38525 0.85636,-0.2191 1.80831,-0.15777 2.15391,0.13343 0.55686,0.45015 5.28835,-0.29649 6.11203,-0.95749 0.14084,-0.11733 3.10637,-0.13439 6.60361,-0.0412 6.96934,0.185 31.77569,-0.48648 38.83931,-1.04961 2.89965,-0.23339 4.67533,-0.15778 5.12668,0.21425 0.53028,0.42844 1.17635,0.39965 2.68384,-0.11752 1.11843,-0.3837 2.44828,-0.60523 3.02901,-0.50622 0.58076,0.0991 3.90284,0.18423 7.39345,0.18826 8.02822,0.008 16.14756,0.23444 19.08679,0.53681 1.25613,0.12941 4.74097,0.0556 7.76629,-0.1641 4.53799,-0.32952 5.69026,-0.25539 6.74002,0.4546 1.02401,0.69982 1.85072,0.75388 4.48564,0.31213 1.79768,-0.30146 3.52232,-0.57884 3.89248,-0.63046 0.37056,-0.046 2.57392,0.0821 4.90785,0.28955 2.38419,0.21358 5.74508,0.14934 7.71766,-0.14704 2.12026,-0.32174 4.48701,-0.34409 5.95432,-0.0556 1.66876,0.31547 2.91292,0.28355 3.83186,-0.10122 0.74937,-0.3177 2.25276,-0.88969 3.34552,-1.28357 1.11761,-0.39521 2.3241,-0.93687 2.72729,-1.21579 1.73243,-1.18275 7.64879,-0.40363 9.03814,1.19031 1.03586,1.19653 4.67109,1.47033 5.79147,0.43887 0.44179,-0.4313 1.31742,-1.73881 1.90651,-2.87485 0.95781,-1.88148 1.04785,-2.68718 0.87788,-8.35673 -0.1192,-4.30749 0.005,-6.6821 0.38753,-7.57003 0.38501,-0.862 0.45074,-1.996 0.19717,-3.40211 -0.23448,-1.14974 -0.20415,-3.43555 0.0273,-5.0266 0.23139,-1.59105 0.34534,-4.09529 0.24079,-5.50936 -0.10478,-1.41692 -0.11943,-4.64867 -0.0532,-7.12431 0.121,-5.1068 0.24174,-14.26149 0.1992,-18.20879 -0.009,-1.47409 0.10545,-3.6314 0.31012,-4.90876 0.18027,-1.27318 0.18861,-2.50533 0.018,-2.78823 -0.56392,-0.88349 -2.17265,-17.24335 -2.41308,-24.53981 -0.0282,-0.72133 -0.31831,-4.979205 -0.67229,-9.433171 -0.35445,-4.451049 -0.65198,-8.474334 -0.68393,-8.906329 -0.50937,-7.230014 -1.80157,-16.945167 -2.34851,-17.598243 -0.73966,-0.900098 -1.86883,-13.471954 -1.46674,-16.124598 0.20505,-1.271608 0.0708,-1.738599 -0.69563,-2.327889 -0.84836,-0.683211 -0.9816,-1.474089 -1.67449,-10.168866 -0.40875,-5.18544 -0.9158,-10.362722 -1.10057,-11.512262 -0.42399,-2.362665 -0.38778,-1.873074 -1.40282,-15.598901 -0.46877,-6.338765 -1.00639,-10.91301063 -1.36832,-11.76104124 -0.33097,-0.7658384 -0.95858,-5.20805006 -1.38191,-9.92141276 -0.44803,-4.709156 -1.0378,-8.977022 -1.32767,-9.525316 -0.26378,-0.532345 -0.44317,-1.609891 -0.34443,-2.297532 0.11583,-0.795529 -0.12956,-1.75101 -0.631,-2.46435 -0.94886,-1.368863 -1.25011,-4.093733 -0.57064,-5.020637 0.38616,-0.509309 0.25508,-0.933101 -0.63785,-1.882822 -0.5968,-0.653307 -1.0625,-1.556501 -0.96493,-1.923139 0.0726,-0.368196 -0.12731,-1.045642 -0.4561,-1.447284 -0.44032,-0.560482 -0.57879,-1.758764 -0.53954,-4.600165 0.0942,-4.793114 -0.1379,-6.246604 -1.72854,-10.90038 -1.08539,-3.214906 -1.31924,-4.691433 -1.58631,-9.988542 -0.16787,-3.619653 -0.10928,-6.534378 0.15706,-6.979436 0.68844,-1.141344 0.32302,-5.071364 -0.49745,-5.377302 -0.35873,-0.131166 -0.70464,-0.763186 -0.75106,-1.391016 -0.0471,-0.636466 -0.62747,-2.753673 -1.27152,-4.720008 -1.05587,-3.152879 -1.33763,-3.591741 -2.49866,-3.784036 -0.73202,-0.12273 -1.46486,-0.592384 -1.64963,-1.068238 -0.18387,-0.464341 -0.48337,-1.142233 -0.65879,-1.491372 -0.20618,-0.428443 0.12416,-0.680332 0.96597,-0.760082 0.76746,-0.07289 0.9574,-0.201608 0.50019,-0.315907 -1.8282,-0.44861 -0.4716,-1.65752 2.43262,-2.165713 4.4797,-0.78046 6.56221,-0.938192 6.81808,-0.512406 0.16742,0.242587 1.091,0.256756 2.02107,0.02195 1.02807,-0.257416 1.75369,-0.221085 1.77669,0.08995 0.0561,0.760309 1.66809,0.980515 2.51841,0.342278 0.61476,-0.452153 0.94672,-0.345593 1.5839,0.51662 0.74759,1.006652 1.3011,1.075329 7.59974,0.955039 7.96663,-0.151735 10.70248,-0.914031 13.11588,-3.677228 1.24047,-1.431109 1.55688,-2.208471 1.49624,-3.702942 -0.087,-1.51908 -0.32186,-1.992261 -1.27602,-2.42115"
       style="fill:#000000;fill-opacity:1;fill-rule:nonzero;stroke:none"
       id="path20"
       inkscape:connector-curvature="0" />
    <g
       id="g4145"
       transform="matrix(0.49271443,0,0,0.53722934,-345.74175,28.759369)">
      <path
         inkscape:connector-curvature="0"
         id="path1114"
         style="fill:#ffff00;fill-opacity:1;fill-rule:nonzero;stroke:none"
         d="m 935.25293,208.55433 c -0.0536,-0.16802 -0.43332,-1.5138 -0.85561,-3.02594 -0.42226,-1.5138 -0.88078,-2.95939 -1.03206,-3.25383 -0.14654,-0.28779 -0.27101,-0.86337 -0.27101,-1.25596 0,-0.85338 -1.17546,-3.17399 -2.00742,-3.96416 -0.31513,-0.29943 -0.57355,-0.70866 -0.57355,-0.90828 0,-0.20128 -0.31829,-0.72695 -0.71536,-1.17943 -0.39864,-0.45414 -0.71693,-0.99977 -0.71693,-1.22601 0,-0.2279 -0.54204,-1.01475 -1.21958,-1.76998 -0.72164,-0.80847 -1.37556,-1.92302 -1.60403,-2.73981 -0.21272,-0.7569 -0.58772,-1.55372 -0.83197,-1.76998 -0.24736,-0.21959 -0.87133,-1.33081 -1.40865,-2.51191 -1.01473,-2.22578 -2.46436,-4.81089 -4.02271,-7.17141 -0.50264,-0.76356 -1.4496,-2.467 -2.0925,-3.76787 -0.64445,-1.30253 -1.55835,-2.79304 -2.02159,-3.29875 -0.47111,-0.51569 -0.84455,-1.09792 -0.84455,-1.3175 0,-0.21626 -0.26,-0.74027 -0.57355,-1.16447 -0.31515,-0.42419 -0.57354,-0.93489 -0.57354,-1.13451 0,-0.19962 -0.25842,-0.60885 -0.57355,-0.90828 -0.31515,-0.29943 -0.57355,-0.72197 -0.57355,-0.93822 0,-0.21127 -0.17176,-0.50571 -0.37186,-0.63547 -0.20326,-0.13141 -0.66179,-0.87833 -1.00372,-1.63357 -0.34349,-0.76023 -1.24951,-2.22412 -1.99165,-3.22389 -0.74372,-0.99811 -1.72063,-2.49694 -2.15079,-3.29875 -0.43017,-0.80182 -1.43701,-2.49694 -2.22013,-3.73626 -0.78468,-1.24098 -1.82305,-3.05255 -2.29419,-3.99577 -0.46799,-0.93822 -1.23219,-2.1792 -1.67651,-2.72317 -0.45066,-0.55062 -1.09983,-1.58866 -1.44805,-2.31561 -0.34666,-0.72363 -1.20383,-2.05777 -1.90501,-2.96605 -0.70274,-0.90662 -1.5473,-2.21913 -1.8782,-2.91947 -0.32933,-0.69535 -0.95328,-1.61361 -1.37556,-2.02783 -0.42702,-0.41588 -1.0431,-1.30087 -1.37242,-1.96627 -0.57513,-1.16446 -1.64185,-2.90616 -3.71073,-6.05353 -0.55148,-0.83842 -1.62767,-2.75312 -2.41393,-4.29686 -0.78626,-1.54375 -1.54574,-2.86791 -1.70488,-2.96938 -0.25842,-0.16802 -3.72648,-5.5445 -3.72648,-5.77739 0,-0.0649 -0.5893,-1.04303 -1.30466,-2.16257 -0.71535,-1.11955 -1.38186,-2.38548 -1.47483,-2.7997 -0.0961,-0.41421 -0.83985,-1.60363 -1.64973,-2.63334 -0.8099,-1.02805 -1.65762,-2.25739 -1.87664,-2.72318 -0.21902,-0.46245 -1.00056,-1.60363 -1.72064,-2.51191 -0.71852,-0.90828 -1.47642,-2.007861 -1.66707,-2.42041 -0.64131,-1.392365 -1.90184,-3.529981 -2.6424,-4.479848 -0.3892,-0.499055 -1.07463,-1.573685 -1.52684,-2.390474 -0.79257,-1.428958 -1.58986,-2.78306 -2.5321,-4.29686 -0.26315,-0.424195 -0.49478,-1.101247 -0.50267,-1.467219 -0.008,-0.392591 -0.68226,-1.392364 -1.59142,-2.360529 -0.8808,-0.938224 -1.57568,-1.934668 -1.57568,-2.254065 0,-0.304422 -0.14968,-0.668734 -0.31513,-0.773534 -0.1749,-0.108127 -0.55307,-0.755237 -0.84614,-1.452248 -0.29465,-0.695351 -0.8556,-1.794935 -1.26055,-2.465332 -0.40496,-0.670395 -1.26368,-2.362192 -1.92233,-3.782833 -0.65706,-1.422305 -1.5347,-3.045898 -1.9633,-3.631455 -0.41912,-0.575576 -0.86503,-1.357429 -0.97375,-1.710093 -0.1103,-0.357656 -0.69804,-1.468885 -1.30468,-2.466995 -0.61136,-1.004763 -1.70486,-3.010962 -2.45016,-4.494819 -0.74687,-1.48219 -1.52684,-2.892853 -1.74901,-3.160679 -0.22532,-0.272817 -0.40178,-0.590548 -0.40178,-0.726955 0,-0.302762 -2.87405,-5.665934 -3.15294,-5.883856 -0.33405,-0.259508 -1.1471,-2.074404 -1.1471,-2.560151 0,-0.266161 -0.25683,-0.650433 -0.57197,-0.855045 -0.9454,-0.612174 -3.18129,-4.772627 -4.34099,-8.071377 -0.20169,-0.575579 -0.65863,-1.404007 -1.03364,-1.876446 -0.36714,-0.462459 -0.98007,-1.680152 -1.34721,-2.678262 -0.36871,-0.999773 -0.94856,-2.195839 -1.2763,-2.633345 -0.34034,-0.45414 -0.60191,-0.986465 -0.60191,-1.226012 0,-0.229565 -0.38131,-1.209374 -0.83668,-2.147598 -1.44017,-2.966047 -2.84252,-6.519316 -3.05681,-7.746991 -0.156,-0.893307 -0.68227,-1.725067 -2.16814,-3.420188 -1.08879,-1.240983 -1.96329,-2.367181 -1.96329,-2.526879 0,-0.159699 -0.91862,-0.740265 -2.06571,-1.305861 -2.54945,-1.259281 -6.53907,-1.778298 -7.53805,-0.981473 -0.30883,0.2462 -0.91704,0.460793 -1.31884,0.467446 -0.90128,0.01332 -1.48429,0.472439 -2.17286,1.713422 -0.28047,0.505708 -0.93752,1.483857 -1.42441,2.119319 -0.49949,0.652099 -1.47798,1.936331 -2.19334,2.874555 -0.71379,0.938221 -1.64186,2.288997 -2.07675,3.025933 -0.43646,0.736939 -1.70015,2.360529 -2.82361,3.631455 -1.12503,1.270927 -2.61247,3.064196 -3.32626,4.010736 -0.70117,0.929905 -1.9822,2.571796 -2.80943,3.601512 -0.83353,1.038035 -2.2154,2.859583 -3.06627,4.039017 -0.85086,1.179432 -1.94281,2.503591 -2.42181,2.934442 -0.48846,0.439166 -0.8745,0.89497 -0.8745,1.029716 0,0.134744 -0.28363,0.575576 -0.64446,0.999773 -0.35295,0.41255 -1.3409,1.78495 -2.17916,3.025934 -0.83826,1.23932 -1.91602,2.679923 -2.37612,3.177314 -1.71276,1.846502 -3.38928,3.940868 -3.5374,4.418298 -0.0835,0.26949 -0.62554,1.013082 -1.2243,1.68015 -0.5956,0.662078 -1.8073,2.192513 -2.71962,3.433496 -2.04365,2.784726 -3.64296,4.885746 -5.02168,6.597502 -0.58615,0.726957 -1.12031,1.482194 -1.17703,1.665181 -0.12921,0.404233 -1.98851,2.916141 -2.50375,3.381926 -0.19066,0.169679 -0.94226,1.096255 -1.67652,2.064422 -0.73585,0.968167 -1.55205,2.012855 -1.82149,2.330586 -0.26944,0.317731 -0.99898,1.21104 -1.63398,1.997883 -0.63342,0.786843 -1.65761,2.031153 -2.29261,2.78306 -0.63657,0.7569 -1.36296,1.645217 -1.63397,1.997883 -0.26629,0.347674 -1.27315,1.5138 -2.22171,2.571794 -0.94856,1.059661 -1.73325,2.04779 -1.73325,2.179207 0,0.129754 -0.30095,0.495726 -0.64602,0.786843 -0.34665,0.292777 -0.8619,0.908278 -1.11716,1.330812 -0.25841,0.43085 -1.49689,1.923023 -2.72435,3.283779 -1.22745,1.362418 -2.37297,2.72484 -2.52108,2.995993 -0.14811,0.271153 -0.80359,1.053004 -1.43386,1.710093 -0.63028,0.658752 -1.55992,1.695123 -2.03578,2.270699 -0.47428,0.573911 -1.26684,1.427291 -1.73324,1.866461 -0.9722,0.91327 -3.98647,4.33679 -5.84262,6.63743 -0.70905,0.87667 -1.88608,2.29565 -2.59986,3.1324 -0.72324,0.84673 -1.60405,2.0062 -1.97748,2.60174 -0.37974,0.60552 -1.02419,1.2859 -1.47641,1.55871 -0.44749,0.26949 -1.18806,1.058 -1.67652,1.78495 -0.47586,0.70866 -1.58041,2.08772 -2.42182,3.02594 -0.84299,0.93822 -1.63398,2.01618 -1.73482,2.36053 -0.10714,0.36431 -0.32144,0.63712 -0.50106,0.63712 -0.36241,0 -3.09621,2.96439 -3.09621,3.35864 0,0.14972 -0.18593,0.27116 -0.41598,0.27116 -0.22532,0 -0.61924,0.40922 -0.86032,0.8933 -0.24108,0.48575 -1.32514,1.90639 -2.37927,3.11743 -1.05255,1.21104 -2.45648,2.8862 -3.08045,3.67637 -0.62082,0.78684 -1.32357,1.61195 -1.53471,1.79992 -0.20799,0.18965 -0.66809,0.68205 -1.00213,1.0763 -0.33405,0.39259 -0.89971,1.04469 -1.23218,1.42231 -0.34823,0.39258 -0.66021,0.82011 -0.71694,0.98313 -0.0552,0.15637 -1.33617,1.69346 -2.82361,3.38858 -1.48744,1.69513 -2.83464,3.32204 -2.967,3.58654 -0.13393,0.2645 -0.71693,0.98314 -1.29048,1.58866 -0.57197,0.60552 -1.36926,1.60363 -1.76318,2.20915 -0.39077,0.60219 -1.69859,2.16423 -2.88034,3.43516 -1.18019,1.27093 -2.61405,3.03924 -3.15293,3.8893 -0.53731,0.84673 -1.34878,1.78495 -1.77737,2.05777 -0.43016,0.27115 -0.97377,0.87002 -1.19751,1.31584 -0.36714,0.73195 -1.28103,1.82321 -2.22801,2.65996 -0.37659,0.33437 -1.65919,1.87977 -4.74752,5.72249 -0.94855,1.1811 -2.03735,2.44038 -2.4612,2.84461 -0.43017,0.41089 -0.75948,0.85838 -0.75948,1.02972 0,0.16802 -0.66809,1.07297 -1.50477,2.0428 -0.83826,0.96816 -1.86088,2.20249 -2.30837,2.78306 -0.44119,0.57558 -1.21327,1.48718 -1.71906,2.02782 -0.5121,0.54897 -1.42127,1.68016 -2.05469,2.55683 -2.23431,3.08748 -4.32051,5.54117 -5.31318,6.24816 -0.54519,0.3876 -1.8656,1.65187 -2.89452,2.77142 l -1.89082,2.05777 0.14339,1.51213 c 0.1166,1.24099 0.32617,1.70344 1.1597,2.57346 0.57355,0.59554 1.12976,1.058 1.2763,1.058 0.25053,0 1.26054,0.85172 3.0962,2.61005 0.37186,0.356 0.88396,0.95653 1.11716,1.30919 0.23635,0.35766 0.94541,0.78684 1.57725,0.9532 4.45287,1.1761 4.09834,1.15947 16.05143,0.70034 12.03975,-0.46246 14.75622,-0.50904 17.34191,-0.29112 4.67346,0.39425 9.28862,0.62548 18.05884,0.90495 1.34405,0.0433 4.81527,0.22125 7.73973,0.39592 2.92445,0.17467 5.56056,0.31773 5.8757,0.31773 0.57354,0 1.57725,0.0682 10.89266,0.73195 2.52265,0.17966 6.58633,0.34102 9.0302,0.35765 2.436,0.0166 5.80165,0.13308 7.45296,0.25785 1.65603,0.12476 4.67188,0.3011 6.70608,0.39259 2.03578,0.0915 3.80841,0.23455 3.94235,0.31773 0.13393,0.0832 5.10204,0.21958 11.0644,0.30276 5.96237,0.0832 12.36592,0.27947 14.26146,0.43917 1.89712,0.15803 7.16618,0.42253 11.7514,0.58888 4.5868,0.16802 9.79126,0.40424 11.6096,0.53066 1.80572,0.12477 4.46232,0.15804 5.87727,0.0765 2.55102,-0.14972 27.88949,0.16801 31.24254,0.38926 1.4764,0.0982 3.29789,0.37761 8.74342,1.33913 0.5452,0.0965 1.42285,0.51569 1.92076,0.91826 0.51526,0.41754 1.04941,0.65542 1.218,0.54563 0.16387,-0.10813 0.58772,0.015 0.93124,0.27115 0.34505,0.25619 0.84613,0.46912 1.10453,0.46912 0.26,0 1.36138,0.44249 2.45018,0.9848 1.49059,0.74026 2.40291,0.98979 3.69811,1.01308 0.94541,0.0166 2.75115,0.23954 4.01327,0.49406 3.43969,0.69702 4.25273,0.84673 4.87357,0.88832 0.31512,0.0216 1.60403,0.16302 2.86614,0.31274 1.26684,0.14972 4.72862,0.40091 7.73974,0.55894 3.00954,0.1597 6.72813,0.42919 8.31168,0.60552 1.57727,0.17467 3.70444,0.35267 4.7302,0.39426 1.01787,0.0416 3.48223,0.45913 5.43136,0.92325 2.92447,0.69368 4.01168,0.81678 6.01908,0.68037 1.34878,-0.0915 2.49115,-0.173 2.53843,-0.18132 0.0457,-0.008 0.64445,-0.60552 1.30308,-1.30253 0.6602,-0.69535 1.52211,-1.54208 1.8782,-1.84484 0.53573,-0.45581 0.62239,-0.74193 0.46641,-1.52877 -0.43488,-2.17921 -0.48689,-3.13906 -0.17963,-3.342 0.2789,-0.18299 0.42071,-3.49672 0.18121,-4.25361 z m -13.31133,0.72529 c -0.19224,0.31773 -0.60033,0.37096 -1.6324,0.20794 -1.83724,-0.28779 -6.0191,-0.72363 -10.43415,-1.08794 -10.29073,-0.84839 -13.35542,-1.20106 -13.9605,-1.60862 -0.14181,-0.0965 -1.64657,-0.25452 -3.36721,-0.35599 -1.72066,-0.0998 -3.34044,-0.30942 -3.62564,-0.46911 -0.29465,-0.16303 -0.77365,-0.28613 -1.11873,-0.28613 -0.32774,0 -0.88867,-0.19297 -1.23219,-0.4242 -0.77206,-0.51735 -2.06413,-0.71531 -6.99443,-1.06464 -2.26424,-0.16137 -4.07942,-0.44749 -4.57103,-0.72197 -0.49792,-0.27614 -3.34045,-0.71365 -7.26703,-1.11955 -5.74335,-0.59221 -7.91147,-0.66041 -19.77948,-0.62049 -7.33793,0.0266 -16.80775,0.0532 -21.06838,0.0616 -8.34164,0.0166 -23.3799,-0.3144 -23.70449,-0.52234 -0.11188,-0.0715 -2.4943,-0.18299 -5.30373,-0.24953 -2.80944,-0.0665 -5.55269,-0.19962 -6.10575,-0.29444 -1.49375,-0.25785 -13.12855,-0.89165 -16.91175,-0.91993 -1.81676,-0.015 -5.934,-0.19629 -9.1736,-0.40423 -3.22541,-0.20794 -8.9136,-0.51569 -12.61172,-0.68038 -3.69811,-0.16635 -7.25442,-0.36597 -7.88311,-0.43916 -0.63027,-0.0749 -4.24173,-0.27948 -8.02493,-0.45415 -3.78478,-0.17466 -8.94355,-0.46079 -11.4662,-0.63546 -2.52266,-0.17467 -5.61887,-0.37595 -6.87941,-0.44416 -3.41134,-0.18798 -17.83982,-0.57391 -19.49271,-0.52234 -2.22801,0.0715 -10.92102,0.67206 -13.61543,0.94155 -3.55473,0.35599 -3.98489,-0.23955 -1.87663,-2.59342 0.70433,-0.78685 1.43387,-1.76666 1.6324,-2.19418 0.20011,-0.42919 0.82408,-1.37573 1.40551,-2.13263 0.58142,-0.7569 1.19909,-1.66517 1.38974,-2.04279 0.18593,-0.36764 0.93123,-1.25263 1.6198,-1.92136 0.68699,-0.6704 1.56622,-1.75002 1.90499,-2.34722 0.34665,-0.60386 0.80045,-1.21271 1.00371,-1.34579 0.20169,-0.12975 0.37344,-0.40922 0.37344,-0.60552 0,-0.19962 0.61609,-1.05799 1.36453,-1.90639 1.73955,-1.96627 3.84466,-4.59962 4.21021,-5.26502 0.25211,-0.4608 4.28742,-5.11531 7.68773,-8.86654 0.57513,-0.63547 1.06989,-1.23599 1.06989,-1.30253 0,-0.1597 2.75428,-3.63146 4.66085,-5.87055 0.77208,-0.90828 1.89397,-2.25573 2.46909,-2.96605 1.49374,-1.8465 3.2459,-3.69134 3.50431,-3.69134 0.11187,0 0.45379,-0.45414 0.77365,-1.02972 0.31671,-0.56725 1.64816,-2.284 2.96701,-3.82774 1.32041,-1.54375 2.93548,-3.49172 3.59884,-4.34345 2.86931,-3.66971 10.08749,-12.25511 13.91796,-16.55364 0.91705,-1.02805 1.64501,-1.96627 1.64501,-2.11765 0,-0.14473 0.20169,-0.27282 0.43016,-0.27282 0.23005,0 0.43016,-0.21127 0.43016,-0.45248 0,-0.24287 0.10715,-0.4558 0.23005,-0.4558 0.12605,0 0.47113,-0.4375 0.77366,-0.98314 0.29937,-0.54064 1.90341,-2.46533 3.5689,-4.28189 3.96756,-4.3268 3.84781,-4.19206 5.55899,-6.32468 0.83354,-1.0397 3.03003,-3.51002 4.92085,-5.53785 4.28899,-4.59962 5.58735,-6.090125 5.58735,-6.416174 0,-0.148055 0.42858,-0.688695 0.9454,-1.191077 1.13449,-1.101247 4.99018,-5.436369 6.82742,-7.675462 0.74529,-0.908279 1.96487,-2.333912 2.74325,-3.208921 1.71591,-1.926352 3.60988,-4.235311 5.41088,-6.595839 0.76263,-0.999774 1.77894,-2.232438 2.25952,-2.739809 0.48688,-0.514027 1.09667,-1.277582 1.37714,-1.723404 0.27259,-0.439169 1.05413,-1.483856 1.71907,-2.300642 0.66808,-0.821776 1.801,-2.270697 2.50847,-3.207258 0.70748,-0.938221 1.55362,-2.011189 1.87664,-2.377164 0.31986,-0.360982 0.89498,-1.149488 1.26211,-1.725064 0.37344,-0.588886 1.41654,-1.951305 2.34934,-3.07085 0.93438,-1.119545 1.6781,-2.180868 1.6781,-2.390472 0,-0.214593 0.28519,-0.675387 0.65863,-1.059659 1.13764,-1.177768 3.32468,-3.887637 4.79321,-5.947069 0.77838,-1.089602 1.88293,-2.450358 2.43127,-2.995991 0.54361,-0.540643 1.00213,-1.157807 1.00213,-1.345784 0,-0.191306 0.57355,-1.013081 1.2763,-1.83153 0.70118,-0.815123 1.89396,-2.29898 2.65029,-3.298753 0.7579,-0.998107 1.60246,-2.087712 1.87821,-2.420415 0.27574,-0.332702 1.14709,-1.422304 1.93493,-2.422078 0.78784,-0.99811 1.65919,-2.087712 1.93493,-2.420414 0.27102,-0.327713 0.86347,-1.194406 1.28891,-1.89142 0.42858,-0.695348 0.90128,-1.285897 1.03364,-1.285897 0.13708,0 0.37344,-0.30276 0.54203,-0.695349 0.32459,-0.756899 3.93605,-5.045443 4.60256,-5.466312 0.25526,-0.16136 0.63027,-0.02662 1.03207,0.370965 0.60663,0.602192 3.62721,6.698976 4.66873,9.422151 0.6933,1.816559 2.64241,5.792361 3.13087,6.386237 0.22375,0.271154 0.39865,0.642118 0.39865,0.846729 0,0.630473 1.062,2.571796 2.22013,4.05565 0.61293,0.786843 1.44174,2.104347 1.8073,2.874556 0.36713,0.776863 1.35508,2.526881 2.17758,3.859356 0.82251,1.330813 1.76476,3.135727 2.07675,3.979129 0.70905,1.914707 1.32199,3.117429 2.68338,5.265027 0.59403,0.938224 1.07461,1.849828 1.07461,2.042798 0,0.191303 0.77365,1.710092 1.71906,3.373607 0.94541,1.665181 1.71907,3.135729 1.71907,3.26881 0,0.231228 0.39077,0.816786 1.65131,2.481964 0.34507,0.45414 0.64287,0.979812 0.64287,1.134519 0,0.159697 0.38447,0.801815 0.86033,1.437277 0.47427,0.635461 0.85875,1.285897 0.85875,1.45225 0,0.171342 0.17962,0.51569 0.40809,0.786843 0.46955,0.558941 2.10667,3.693004 3.17499,6.083476 0.40651,0.908278 0.96747,1.939658 1.23375,2.270697 0.27259,0.337694 0.72639,1.057996 1.03207,1.633572 0.3041,0.573915 0.75948,1.255955 1.03048,1.543742 0.27103,0.284462 0.83827,1.239321 1.2779,2.147599 1.15495,2.390472 1.62923,3.257164 2.81572,5.145253 0.59088,0.93823 1.06674,1.82987 1.06674,1.99622 0,0.16469 0.34349,0.63879 0.7453,1.02972 0.41124,0.4009 1.18649,1.55871 1.73481,2.58676 0.54676,1.02972 1.17388,2.03116 1.40393,2.24076 0.23163,0.2096 0.67123,0.98314 0.98794,1.73837 0.31988,0.75856 1.08408,1.94798 1.72066,2.67993 0.63184,0.72529 1.1471,1.45225 1.1471,1.6186 0,0.16968 0.44118,0.96816 1.00211,1.81489 0.56252,0.8484 1.0037,1.63358 1.0037,1.78662 0,0.15138 0.41915,0.92325 0.94541,1.74004 0.52787,0.81678 1.43546,2.40544 2.04996,3.58487 0.61452,1.1811 1.66865,2.92446 2.37928,3.93421 0.70116,0.99978 1.59773,2.49029 1.99165,3.31539 0.39078,0.81679 1.25109,2.14427 1.89239,2.91947 0.65076,0.78684 1.62926,2.30064 2.19336,3.38858 0.56251,1.09127 1.5678,2.72484 2.25006,3.66306 0.68227,0.93823 1.50792,2.20084 1.84825,2.82965 0.34508,0.63546 0.96905,1.57368 1.41971,2.13262 0.43804,0.54563 0.80201,1.16446 0.80201,1.36242 0,0.19962 0.51367,1.07463 1.14709,1.9513 0.63343,0.87834 1.14551,1.69014 1.14551,1.81656 0,0.12643 0.47428,0.89331 1.07619,1.74004 0.58458,0.82178 1.43388,2.29898 1.86245,3.2372 0.43018,0.93823 1.04312,1.91138 1.34722,2.13429 0.30095,0.21959 0.64603,0.77187 0.7453,1.19607 0.10241,0.42752 0.60347,1.31584 1.10453,1.9513 0.50108,0.63713 1.48114,2.19418 2.1634,3.4335 0.68229,1.24265 1.46697,2.54518 1.73484,2.87622 0.2647,0.32771 0.57827,1.01308 0.68699,1.49716 0.10872,0.48409 0.45696,1.2676 0.75947,1.7101 0.31199,0.45414 0.55938,1.00476 0.55938,1.24098 0,0.23955 0.44432,0.88 1.01787,1.46722 0.55779,0.57225 1.56151,2.0428 2.22172,3.25384 0.6602,1.21103 1.49531,2.71652 1.84827,3.32869 0.35295,0.61217 1.0289,1.92136 1.49059,2.88953 0.46324,0.96983 0.96274,1.92136 1.10297,2.10434 0.53415,0.69535 2.35092,4.5048 2.35092,4.93233 0,0.25119 0.30095,0.75191 0.67437,1.11954 0.37659,0.37263 0.82408,1.33248 1.0179,2.17921 0.18907,0.83009 0.7248,2.20915 1.18963,3.05588 0.57985,1.05966 0.84457,1.96128 0.84457,2.87622 0,1.2626 0.56724,3.20725 1.37715,4.72105 0.24736,0.46412 0.63025,0.69535 1.14551,0.69535 0.635,0 1.04626,0.39259 2.27529,2.17921 1.58355,2.29898 1.67651,2.53686 1.2495,3.2372" />
      <path
         inkscape:connector-curvature="0"
         id="path1424"
         style="fill:#ffff00;fill-opacity:1;fill-rule:nonzero;stroke:none"
         d="m 839.4344,105.20676 c -0.041,-0.58223 -0.20326,-1.60363 -0.36083,-2.26904 -0.15757,-0.6654 -0.40338,-2.52688 -0.54519,-4.130506 -0.16229,-1.846502 -0.479,-3.400225 -0.86032,-4.222003 -0.33562,-0.726956 -0.60191,-1.796595 -0.60191,-2.420414 0,-1.302533 -1.16757,-4.170433 -2.03419,-4.995537 -0.34035,-0.324387 -0.75791,-0.966504 -0.96274,-1.482194 -0.43804,-1.099584 -1.90815,-3.145708 -3.47753,-4.840829 -0.64602,-0.697014 -1.37556,-1.668507 -1.61349,-2.149262 -1.18806,-2.400454 -1.22587,-2.450358 -4.25905,-5.870546 -1.37084,-1.543743 -1.76004,-1.816559 -2.60145,-1.816559 -0.54361,0 -1.11715,-0.113119 -1.27472,-0.252855 -1.35508,-1.197732 -5.01696,-0.996447 -7.36787,0.40257 -1.10455,0.658752 -1.94911,0.870019 -4.29845,1.076294 -1.60561,0.1414 -3.29316,0.264501 -3.74065,0.272817 -0.54519,0.01 -0.86505,0.201285 -0.96117,0.573912 -0.0788,0.309415 -0.70118,1.056333 -1.38975,1.665181 -0.68857,0.610509 -1.32357,1.375727 -1.41811,1.710093 -0.0961,0.331039 -0.61924,1.300869 -1.16285,2.149264 -0.54203,0.846729 -0.98795,1.706766 -0.98795,1.906388 0,0.202949 -0.63027,1.014745 -1.43386,1.844839 -0.91705,0.949867 -1.43229,1.745028 -1.43229,2.209148 0,0.655425 -1.15498,3.177314 -1.76004,3.844385 -0.14023,0.154707 -0.2458,0.452475 -0.2458,0.695348 0,0.229565 -0.18593,0.863366 -0.4018,1.377393 -0.21744,0.517353 -0.48058,1.437276 -0.57355,2.012852 -0.0945,0.573913 -0.3624,1.438942 -0.58772,1.891417 -0.22848,0.457467 -0.55149,2.390472 -0.71694,4.296862 -0.16544,1.906392 -0.41125,3.777842 -0.54518,4.160452 -0.13393,0.38593 -0.33247,1.65021 -0.44434,2.82964 -0.1103,1.1811 -0.37186,2.75645 -0.58615,3.52499 -0.21115,0.75856 -0.30884,1.47554 -0.21587,1.57535 0.31198,0.32771 0.041,3.48007 -0.39392,4.56801 -0.63342,1.59365 -0.41283,6.11342 0.59088,12.10541 0.22217,1.33247 0.48846,3.37527 0.59088,4.53973 0.16229,1.8465 0.31041,2.26904 1.14709,3.28378 0.54834,0.66541 1.03522,1.64521 1.13449,2.28567 0.38289,2.4803 0.8745,4.1671 1.50004,5.14359 0.36714,0.57558 0.74845,1.41232 0.83354,1.83153 0.0867,0.41754 0.4081,1.36076 0.70275,2.05777 0.29465,0.69535 0.54518,1.48053 0.54518,1.71009 0,0.23289 0.18593,0.89165 0.41441,1.46722 0.34507,0.86503 0.86032,1.28756 3.00954,2.467 2.52423,1.38238 2.65344,1.41731 4.68764,1.2859 2.35091,-0.15139 2.60932,-0.0616 2.91815,1.01308 0.31356,1.0896 0.71694,1.51379 1.4386,1.51379 0.34035,0 1.14709,0.3693 1.749,0.79849 1.63083,1.16613 3.61145,1.64855 5.99073,1.45558 2.92288,-0.23622 3.19862,-0.33104 3.40031,-1.16613 0.10242,-0.42253 0.65548,-1.12786 1.25739,-1.60363 0.58615,-0.46079 1.85615,-1.67848 2.79525,-2.67659 0.93753,-0.99978 2.08462,-1.99622 2.52266,-2.19418 0.51525,-0.23456 0.77208,-0.55894 0.71693,-0.90828 -0.0488,-0.30442 0.30726,-1.07463 0.80203,-1.74003 0.49476,-0.66541 1.09824,-1.59698 1.36138,-2.10435 0.26787,-0.51403 0.59718,-1.10291 0.75948,-1.36076 0.15599,-0.24786 0.61293,-1.24098 1.0037,-2.1792 0.3892,-0.93823 0.83354,-1.80159 0.97377,-1.89475 0.47901,-0.31108 2.08305,-4.18873 2.32255,-5.61104 0.12448,-0.74192 0.42386,-2.11765 0.65863,-3.02593 0.23478,-0.90662 0.52155,-2.35221 0.63185,-3.17732 0.1103,-0.83009 0.43961,-2.48196 0.72954,-3.66139 0.29308,-1.1811 0.66021,-2.88454 0.81778,-3.78284 0.15914,-0.90495 0.47585,-2.5119 0.70905,-3.60151 0.38604,-1.79493 0.73112,-9.71493 0.54046,-12.40816 z m -13.04504,9.83637 c -0.0882,1.17943 -0.36713,2.72151 -0.63027,3.48007 -0.26314,0.7569 -0.51839,1.78495 -0.57354,2.31395 -0.0552,0.51569 -0.26629,1.28091 -0.45853,1.66518 -0.20011,0.39592 -0.37186,1.48219 -0.38761,2.45202 -0.0158,0.99811 -0.15599,1.74004 -0.32932,1.74004 -0.16702,0 -0.46955,0.63546 -0.67754,1.42064 -0.93438,3.54163 -1.22903,4.53807 -1.61822,5.47796 -0.22532,0.54563 -0.41283,1.23932 -0.41283,1.52877 0,0.29444 -0.37501,1.05966 -0.84614,1.72506 -0.47112,0.66541 -0.85086,1.409 -0.86032,1.68016 -0.008,0.26616 -0.27101,0.72862 -0.58772,1.02805 -0.31514,0.29943 -0.57198,0.72196 -0.57198,0.93822 0,0.21626 -0.25841,0.54397 -0.57354,0.72696 -0.31514,0.18298 -0.57355,0.48242 -0.57355,0.6654 0,0.18299 -0.44277,0.84673 -0.98952,1.4822 -0.54676,0.63546 -1.07147,1.4955 -1.17389,1.92302 -0.11029,0.45248 -0.38761,0.77021 -0.67438,0.77021 -0.60506,0 -1.6135,1.0896 -2.27056,2.45202 -0.27731,0.57391 -0.85874,1.15947 -1.36926,1.37739 l -0.88868,0.37762 -0.18436,-3.72295 c -0.1938,-3.94919 -0.48373,-4.96227 -2.73222,-9.56189 -1.92548,-3.9392 -3.47595,-11.37844 -3.47595,-16.67508 0,-0.93822 -0.14338,-2.12597 -0.31986,-2.66328 -0.32144,-0.97982 -0.24423,-1.96628 0.62082,-7.89838 0.13551,-0.91992 0.37344,-2.81467 0.53573,-4.23697 0.44591,-3.93422 1.18648,-7.870093 1.76633,-9.382229 0.2915,-0.76189 0.60349,-2.026163 0.70748,-2.874555 0.12606,-1.028053 0.42071,-1.75501 0.91705,-2.269037 0.40179,-0.415878 1.02892,-1.452248 1.39132,-2.30064 0.36083,-0.846731 0.85875,-1.623592 1.10298,-1.725067 0.25841,-0.1048 0.44434,-0.34601 0.44434,-0.573912 0,-0.533988 1.89081,-2.42707 3.06626,-3.069185 0.5121,-0.281135 1.57726,-0.502384 2.40922,-0.502384 1.47798,0 1.50319,0.01496 3.22383,2.012855 0.96589,1.119545 1.90027,2.340567 2.10668,2.753117 0.20169,0.402573 0.69488,1.151154 1.07461,1.635237 0.37974,0.482418 0.79572,1.407334 0.90287,2.012853 0.10872,0.603858 0.39234,1.522118 0.61766,1.99622 0.2269,0.48242 0.5247,1.573685 0.65864,2.420414 0.39077,2.481964 0.75159,4.207031 1.07776,5.175203 0.35138,1.03969 0.86662,6.35629 0.89498,9.23084 0.011,1.05966 0.0851,1.99788 0.1623,2.07274 0.0788,0.0749 0.0331,0.28779 -0.10084,0.46911 -0.13394,0.18632 -0.31199,1.27093 -0.40023,2.45203" />
      <path
         inkscape:connector-curvature="0"
         id="path1426"
         style="fill:#ffff00;fill-opacity:1;fill-rule:nonzero;stroke:none"
         d="m 830.53497,174.17611 c -0.28205,-0.39425 -0.75632,-1.39236 -1.03522,-2.1792 -0.5893,-1.66352 -2.39976,-4.00741 -3.72648,-4.82253 -2.60932,-1.60031 -6.31374,-2.95441 -8.08322,-2.95441 -1.31884,0 -3.55473,-0.78185 -3.55473,-1.24098 0,-0.15304 -0.27259,-0.27281 -0.61609,-0.27281 -0.33247,0 -1.03207,-0.27282 -1.51895,-0.59055 -0.68857,-0.44915 -1.6198,-0.62548 -3.91241,-0.7386 -3.01427,-0.15139 -3.12614,-0.13142 -6.27908,1.15447 -0.23635,0.0948 -0.9454,0.50904 -1.57567,0.9166 -0.63185,0.40756 -1.66234,0.99977 -2.29419,1.31584 -0.62869,0.31607 -2.18074,1.69513 -3.44128,3.05588 -3.7312,4.03403 -4.93817,7.3544 -5.16192,14.19312 -0.0772,2.36219 -0.0425,2.52189 0.70748,3.31538 0.42701,0.45081 0.96432,1.31584 1.17388,1.88975 0.21587,0.58889 0.95013,1.78662 1.65288,2.69324 1.64029,2.11932 1.72537,2.20582 3.06312,3.10412 0.63027,0.42419 1.32042,0.98813 1.53314,1.25429 0.21114,0.2645 1.10455,0.76688 1.96329,1.10457 0.86032,0.33936 1.76634,0.82677 1.99323,1.07463 0.23793,0.25951 0.63027,0.45414 0.91705,0.45414 0.27574,0 0.75947,0.18965 1.07461,0.42087 0.82093,0.6022 5.04532,1.22269 7.85475,1.15448 2.23589,-0.0549 4.28742,-0.45414 5.01538,-0.97648 0.15915,-0.11312 0.77366,-0.3011 1.37557,-0.41754 0.60979,-0.11811 1.6781,-0.60552 2.42339,-1.10458 0.7453,-0.49905 1.43387,-0.89331 1.5615,-0.89331 0.12763,0 1.06043,-0.84839 2.0925,-1.9014 2.20752,-2.25406 5.49911,-7.36604 5.7528,-8.93307 0.0993,-0.61218 0.49161,-1.96628 0.86977,-2.99433 0.87765,-2.39047 0.96589,-5.97535 0.1749,-7.08159 z m -11.78449,4.99887 c -0.14496,0.0981 -0.40337,0.79682 -0.58773,1.582 -0.18435,0.78684 -0.68384,1.95463 -1.13291,2.64832 -0.45064,0.69701 -0.89026,1.54041 -1.00213,1.92302 -0.11187,0.37429 -0.63342,1.22435 -1.16128,1.88975 -0.52785,0.66708 -1.00528,1.33415 -1.06043,1.48386 -0.0552,0.14639 -0.61766,0.63713 -1.21957,1.06132 -1.8656,1.31917 -3.3814,1.02639 -6.47761,-1.25096 -1.20382,-0.88499 -2.29261,-2.00287 -2.29261,-2.35221 0,-0.0815 -0.32144,-0.66541 -0.70118,-1.27093 -0.85087,-1.36241 -1.64028,-5.04877 -1.2889,-6.02192 0.1355,-0.37263 0.2915,-1.36242 0.3561,-2.24076 0.0646,-0.87667 0.24108,-1.66019 0.4018,-1.76998 0.15757,-0.10979 0.52312,-0.63546 0.8162,-1.17943 0.29307,-0.54563 0.74214,-0.9848 1.0037,-0.9848 0.25842,0 0.80203,-0.27282 1.20382,-0.60386 0.40023,-0.3327 0.97692,-0.60552 1.27473,-0.60552 0.28677,0 0.80359,-0.20461 1.08879,-0.43085 0.84929,-0.67206 3.72805,-0.59055 5.5905,0.1597 0.86032,0.34601 1.91603,0.61883 2.32255,0.60053 1.12976,-0.0516 2.2611,1.42563 2.69283,3.51334 0.43647,2.11932 0.50422,3.6248 0.17333,3.84938" />
    </g>
  </g>
</svg>
