<?xml version="1.0" encoding="UTF-8" standalone="no"?>
<!-- Created with Inkscape (http://www.inkscape.org/) -->

<svg
   xmlns:dc="http://purl.org/dc/elements/1.1/"
   xmlns:cc="http://creativecommons.org/ns#"
   xmlns:rdf="http://www.w3.org/1999/02/22-rdf-syntax-ns#"
   xmlns:svg="http://www.w3.org/2000/svg"
   xmlns="http://www.w3.org/2000/svg"
   xmlns:sodipodi="http://sodipodi.sourceforge.net/DTD/sodipodi-0.dtd"
   xmlns:inkscape="http://www.inkscape.org/namespaces/inkscape"
   width="21.26656mm"
   height="18.152674mm"
   viewBox="0 0 75.353953 64.320495"
   id="svg6079"
   version="1.1"
   inkscape:version="0.91 r13725"
   sodipodi:docname="buttonEqual.svg">
  <defs
     id="defs6081" />
  <sodipodi:namedview
     id="base"
     pagecolor="#ffffff"
     bordercolor="#666666"
     borderopacity="1.0"
     inkscape:pageopacity="0.0"
     inkscape:pageshadow="2"
     inkscape:zoom="2"
     inkscape:cx="14.459708"
     inkscape:cy="-22.998854"
     inkscape:document-units="px"
     inkscape:current-layer="layer1"
     showgrid="false"
     inkscape:snap-global="true"
     fit-margin-top="0"
     fit-margin-left="0"
     fit-margin-right="0"
     fit-margin-bottom="0"
     inkscape:window-width="1920"
     inkscape:window-height="1080"
     inkscape:window-x="0"
     inkscape:window-y="0"
     inkscape:window-maximized="0" />
  <metadata
     id="metadata6084">
    <rdf:RDF>
      <cc:Work
         rdf:about="">
        <dc:format>image/svg+xml</dc:format>
        <dc:type
           rdf:resource="http://purl.org/dc/dcmitype/StillImage" />
        <dc:title />
      </cc:Work>
    </rdf:RDF>
  </metadata>
  <g
     inkscape:label="Layer 1"
     inkscape:groupmode="layer"
     id="layer1"
     transform="translate(-145.93253,-142.78421)">
    <ellipse
       style="fill:#008000;fill-opacity:0.431694;stroke:none;stroke-opacity:1"
       id="path7888-3"
       cx="181.93253"
       cy="173.60471"
       rx="30.75"
       ry="28.75" />
    <g
       id="g580"
       transform="matrix(0.45406431,0,0,-0.36748243,178.48803,200.87767)">
      <path
         d="m 0,0 c 11.281,1.399 22.077,1.561 31.679,6.684 15.121,8.068 26.654,19.813 32.498,36.155 5.539,15.491 8.732,31.547 3.749,47.782 -4.845,15.784 -13.267,29.6 -26.279,40.163 -5.102,4.143 -10.034,8.3 -17.849,5.462 -3.203,-1.163 -7.744,0.328 -11.364,1.542 -9.746,3.266 -18.944,3.033 -27.456,-3.122 C -25.567,127.041 -32.04,116.33 -37.121,104.655 -44.676,87.297 -48.562,69.115 -47.538,50.218 -46.177,25.072 -41.051,12.722 -19.741,4.436 -13.374,1.96 -6.28,1.357 0,0 m -71.698,58.428 c 0.492,32.782 10.41,60.261 30.03,84.473 3.743,4.619 7.7,7.609 13.09,9.499 12.604,4.42 25.076,7.978 38.698,3.876 5.199,-1.565 11.224,-1.874 16.602,-1.031 8.998,1.409 16.84,-1.132 23.272,-6.387 12.075,-9.864 23.735,-20.436 31.935,-33.953 C 93.206,96.315 96.38,76.408 92.939,54.699 89.552,33.323 78.662,16.963 63.116,3.216 57.996,-1.312 51.489,-4.488 45.231,-7.476 19.797,-19.617 -6.56,-19.76 -32.271,-9.755 c -23.435,9.12 -35.153,28.48 -38.576,52.943 -0.781,5.582 -0.65,11.291 -0.851,15.24"
         style="fill:#231f20;fill-opacity:1;fill-rule:evenodd;stroke:none"
         id="path582"
         inkscape:connector-curvature="0" />
    </g>
    <g
       id="g7826"
       transform="matrix(0.11532286,0,0,0.13543101,163.37413,150.22867)">
      <path
         inkscape:connector-curvature="0"
         id="path132"
         style="fill:#000000;fill-opacity:1;fill-rule:nonzero;stroke:none"
         d="m 312.67854,212.29255 c -2.31559,-5.78552 -15.85178,-18.40098 -23.84981,-22.22822 -6.47263,-3.09889 -8.87754,-3.57987 -15.87926,-3.20883 -4.50061,0.23362 -9.55778,1.28491 -11.12441,2.30871 -1.58036,1.03068 -6.24588,2.27436 -10.37545,2.76221 -21.12196,2.5011 -27.0449,3.25693 -36.25226,4.62429 -5.49693,0.81767 -11.93521,1.43607 -14.30576,1.36049 -2.37742,-0.0618 -5.04343,0.49473 -5.93668,1.25055 -0.92761,0.78332 -3.62797,1.05816 -6.25276,0.62528 -2.54233,-0.41227 -11.68785,0.0412 -20.31803,1.00319 -8.60956,0.96196 -26.86624,2.34307 -40.49863,3.06454 -13.61864,0.72147 -25.3752,1.64908 -26.06232,2.06135 -0.68711,0.41227 -9.24858,1.00319 -18.99876,1.31239 -13.99656,0.43975 -18.72392,0.14429 -22.37251,-1.40172 -5.12588,-2.17816 -11.0557,-2.52859 -12.87655,-0.75583 -0.63902,0.61841 -2.74847,1.28491 -4.87166,1.53227 -3.0027,0.35043 -4.30135,1.55976 -6.50012,6.06037 -2.29497,4.693 -2.67975,7.31091 -2.31558,15.81054 0.24049,5.62749 1.05129,11.33742 1.81399,12.75288 0.73521,1.37423 1.38797,4.19141 1.40171,6.06037 0.0344,3.99901 6.16344,11.626 9.34478,11.626 1.08565,0 4.12957,1.69718 6.62381,3.68982 l 4.63116,3.68981 7.62012,-1.75215 c 4.25325,-0.9757 8.84318,-1.41545 10.37545,-1.00318 1.62847,0.44662 3.62111,-0.0138 4.87853,-1.12688 3.24319,-2.8584 8.37595,-3.84785 21.74723,-4.1914 6.6238,-0.16491 13.43312,-0.72835 14.99975,-1.24368 1.62846,-0.52908 4.50061,-1.01694 6.6238,-1.12688 2.06135,-0.0962 12.49864,-0.65963 23.12833,-1.24368 10.62282,-0.58404 20.42109,-1.60098 21.68539,-2.25374 1.28491,-0.65963 6.43828,-1.16122 11.56416,-1.12687 5.12589,0.0344 9.55779,-0.46724 9.93571,-1.12 0.38478,-0.65963 4.80981,-1.18871 9.94257,-1.18871 5.11901,0 10.72588,-0.55656 12.56048,-1.25055 2.39804,-0.90699 4.50061,-0.83828 7.62012,0.24736 3.75166,1.30552 4.85104,1.20933 8.44466,-0.74896 3.25693,-1.77963 7.37276,-2.29496 19.61717,-2.453 16.50453,-0.21301 24.48882,1.34675 29.50477,5.77865 2.32245,2.0476 3.37374,2.21251 6.74748,1.05129 2.24687,-0.76957 6.25276,-1.40172 9.12491,-1.43608 4.37693,-0.055 5.49693,-0.64589 7.62699,-4.06773 1.6422,-2.62478 3.78601,-4.21202 6.24588,-4.62429 2.63166,-0.43288 3.86847,-1.46356 4.12957,-3.43558 0.19927,-1.49791 0.84516,-2.8103 1.37423,-2.8103 1.46356,0 1.02381,-18.99877 -0.5222,-22.8741" />
      <path
         inkscape:connector-curvature="0"
         id="path134"
         style="fill:#000000;fill-opacity:1;fill-rule:nonzero;stroke:none"
         d="m 293.70726,134.16743 c -0.27485,-1.50479 -1.49792,-3.46307 -2.6935,-4.31509 -1.23681,-0.88638 -3.03018,-3.18822 -4.12957,-5.31141 -5.23582,-10.1281 -8.02552,-14.37447 -9.4341,-14.37447 -0.89326,0 -2.32933,-1.12687 -3.18822,-2.50111 -0.8589,-1.37423 -2.5973,-2.5011 -3.87534,-2.5011 -1.24368,0 -3.81349,-1.04442 -5.55877,-2.25374 -4.2876,-2.975213 -7.37276,-4.163933 -12.1276,-4.672393 -6.50012,-0.69399 -12.46429,-2.15755 -14.12711,-3.47681 -2.45301,-1.95141 -40.86968,-2.88589 -87.74475,-2.13006 -17.25349,0.27485 -27.38158,-0.0825 -31.00268,-1.09251 -2.99583,-0.83829 -6.42454,-1.1681 -7.75067,-0.74896 -1.31927,0.41914 -5.37325,-0.13742 -9.12491,-1.25055 -3.75165,-1.11313 -7.6957,-1.64221 -8.87067,-1.18871 -1.25055,0.48098 -3.0027,0.0343 -4.25325,-1.07878 -2.62478,-2.33619 -10.98699,-4.69987 -13.37815,-3.77914 -0.97571,0.37792 -3.6211,-0.48785 -5.99852,-1.95141 -2.51485,-1.55975 -6.30773,-2.62478 -9.31043,-2.62478 -4.1227,0 -5.66184,0.7146 -8.31411,3.87534 -1.77963,2.12318 -3.25006,4.32196 -3.25006,4.87165 0,0.53595 -1.18871,1.29178 -2.56294,1.62846 -2.22626,0.54283 -2.46675,1.25056 -1.81399,5.37325 2.48736,15.872393 3.7173,21.307483 5.22209,23.121473 0.93447,1.12687 1.65595,2.76907 1.65595,3.75165 0,2.92024 8.25226,10.97325 12.1276,11.84588 1.95828,0.43976 6.24589,1.5254 9.75018,2.46675 3.42184,0.92761 12.746,2.02699 20.62036,2.43926 7.87435,0.41227 16.80686,1.28491 19.75459,1.93767 2.99583,0.66651 5.84049,0.907 6.43828,0.56344 0.58405,-0.34356 13.87287,0.57718 29.62158,2.06135 15.7487,1.48417 40.34059,3.02331 54.81126,3.43558 21.63042,0.6184 26.95557,1.14061 30.25373,2.94086 2.24687,1.22993 4.84417,2.18503 5.93669,2.18503 1.11999,0 1.93766,0.47411 1.93766,1.12687 0,0.64588 0.93448,1.44294 2.18503,1.87582 1.22307,0.41914 3.55926,1.5735 5.31141,2.62479 1.75215,1.05128 4.44564,1.87582 6.12908,1.87582 1.62159,0 3.90969,0.79706 4.99533,1.74528 1.09939,0.96196 4.56246,2.11632 7.68883,2.56294 4.74798,0.68025 6.06724,0.39166 7.99804,-1.74527 1.24368,-1.37423 3.41497,-2.56295 4.693,-2.56295 2.37055,0 7.13914,-4.45938 7.21472,-6.75435 0.0206,-0.55656 1.11313,-2.37742 2.48049,-4.1227 2.39117,-3.05079 2.89963,-7.24907 1.68344,-13.87287" />
    </g>
  </g>
</svg>
