<?xml version="1.0" encoding="UTF-8" standalone="no"?>
<!-- Created with Inkscape (http://www.inkscape.org/) -->

<svg
   xmlns:dc="http://purl.org/dc/elements/1.1/"
   xmlns:cc="http://creativecommons.org/ns#"
   xmlns:rdf="http://www.w3.org/1999/02/22-rdf-syntax-ns#"
   xmlns:svg="http://www.w3.org/2000/svg"
   xmlns="http://www.w3.org/2000/svg"
   xmlns:sodipodi="http://sodipodi.sourceforge.net/DTD/sodipodi-0.dtd"
   xmlns:inkscape="http://www.inkscape.org/namespaces/inkscape"
   width="21.26656mm"
   height="18.152674mm"
   viewBox="0 0 75.353953 64.320495"
   id="svg6079"
   version="1.1"
   inkscape:version="0.91 r13725"
   sodipodi:docname="buttonMinus_highlight.svg">
  <defs
     id="defs6081" />
  <sodipodi:namedview
     id="base"
     pagecolor="#ffffff"
     bordercolor="#666666"
     borderopacity="1.0"
     inkscape:pageopacity="0.0"
     inkscape:pageshadow="2"
     inkscape:zoom="1.4142136"
     inkscape:cx="-145.37655"
     inkscape:cy="-15.468626"
     inkscape:document-units="px"
     inkscape:current-layer="layer1"
     showgrid="false"
     inkscape:snap-global="true"
     fit-margin-top="0"
     fit-margin-left="0"
     fit-margin-right="0"
     fit-margin-bottom="0"
     inkscape:window-width="956"
     inkscape:window-height="1041"
     inkscape:window-x="960"
     inkscape:window-y="18"
     inkscape:window-maximized="0" />
  <metadata
     id="metadata6084">
    <rdf:RDF>
      <cc:Work
         rdf:about="">
        <dc:format>image/svg+xml</dc:format>
        <dc:type
           rdf:resource="http://purl.org/dc/dcmitype/StillImage" />
        <dc:title></dc:title>
      </cc:Work>
    </rdf:RDF>
  </metadata>
  <g
     inkscape:label="Layer 1"
     inkscape:groupmode="layer"
     id="layer1"
     transform="translate(-145.93253,-142.78421)">
    <g
       id="g584"
       transform="matrix(0.50698409,0,0,-0.39071772,166.06517,183.28295)">
      <path
         d="m 0,0 c 3.828,-15.463 21.228,-19.797 35.903,-17.34 17.026,2.852 27.451,25.817 13.602,41.34 -4.518,5.064 -10.141,9.142 -15.654,14.021 2.585,3.227 5.6,6.737 8.335,10.454 6.404,8.711 3.313,16.387 -6.975,19.75 -12.3,4.019 -24.288,0.486 -36.367,-0.47 -4.906,-0.389 -6.238,-3.956 -4.408,-8.682 3.058,-7.901 9.702,-9.583 15.943,-9.34 C 9.262,45.038 6.619,40.339 7.615,36.611 9.09,31.089 12.699,25.857 18.917,23.696 21.416,22.828 24.04,22.175 26.351,20.943 32.288,17.777 33.729,11.161 30.169,4.539 27.156,-1.062 24.399,-1.679 17.146,2.297 10.985,5.675 5.37,6.406 0,0 m 23.604,-42.156 c -6.281,1.357 -13.375,1.96 -19.742,4.435 -21.309,8.286 -26.435,20.637 -27.797,45.783 -1.023,18.897 2.863,37.079 10.417,54.437 5.081,11.674 11.554,22.386 22.099,30.011 8.513,6.155 17.71,6.388 27.456,3.121 3.62,-1.213 8.161,-2.705 11.364,-1.541 7.816,2.838 12.747,-1.319 17.85,-5.462 C 78.263,78.065 86.685,64.249 91.529,48.465 96.513,32.23 93.319,16.174 87.78,0.683 81.937,-15.659 70.403,-27.404 55.282,-35.473 45.681,-40.596 34.885,-40.757 23.604,-42.156"
         style="fill:#ffffff;fill-opacity:1;fill-rule:evenodd;stroke:none"
         id="path586"
         inkscape:connector-curvature="0" />
    </g>
    <rect
       style="fill:#ffff00;fill-opacity:0.43137255"
       id="rect3344"
       width="65.563339"
       height="59.885498"
       x="152.74884"
       y="146.04926" />
    <path
       d="m 205.14648,170.68778 c -0.0734,-0.14832 -0.13218,-0.53545 -0.13218,-0.86992 0,-0.49008 -0.0467,-0.5918 -0.25345,-0.54767 -0.24375,0.0501 -0.52024,-0.38842 -0.75004,-1.18972 -0.13824,-0.48394 -0.45232,-0.57339 -1.89722,-0.53664 -0.50749,0.0142 -1.12231,0.15802 -1.3794,0.32469 -0.25345,0.16428 -0.63726,0.37125 -0.84887,0.45703 -0.20979,0.0845 -0.43655,0.23767 -0.49659,0.33446 -0.16613,0.27078 -0.97073,0.6751 -1.56615,0.78661 -1.25754,0.23769 -3.14202,0.88951 -3.41972,1.18478 -0.12248,0.12993 -0.86524,0.23402 -1.67105,0.23402 -0.7937,0 -1.51281,0.0808 -1.58799,0.17883 -0.0764,0.098 -2.14582,0.18631 -4.6051,0.1948 -4.97496,0.0182 -8.10485,0.21318 -9.43151,0.58322 -0.48507,0.13599 -1.10535,0.19722 -1.3788,0.13599 -0.27286,-0.0612 -1.19085,0.038 -2.04032,0.22177 -1.93056,0.41657 -7.17171,0.56483 -7.93083,0.22545 -0.30317,-0.13599 -1.20236,-0.25729 -1.99666,-0.26833 -1.2351,-0.0202 -1.47278,0.0331 -1.63771,0.36757 -0.10186,0.20462 -0.29225,0.38964 -0.4026,0.38964 -0.29892,0 -0.4596,0.73513 -0.37896,1.73858 0.0431,0.53419 0.023,0.9275 -0.0515,1.02183 -0.1722,0.21686 -0.15461,2.07186 0.0219,2.29116 0.0734,0.0893 0.33106,0.16914 0.57419,0.1752 0.3638,0.008 0.44384,0.0893 0.45779,0.457 0.009,0.24506 0.0212,0.56607 0.0279,0.71309 0.0139,0.33449 0.36319,0.37982 0.5178,0.0675 0.0746,-0.15075 0.27043,-0.0637 0.60088,0.26709 0.29468,0.29406 0.69001,0.48641 0.98772,0.47905 0.27103,-0.006 0.8713,0 1.32362,0.0142 2.5369,0.076 6.78851,-0.1263 7.50035,-0.35777 0.45778,-0.14832 1.24662,-0.29529 1.76503,-0.32713 1.09201,-0.0697 4.1073,-0.56851 4.30193,-0.71186 0.19464,-0.14327 1.57708,-0.16792 2.01849,-0.0344 0.29043,0.0871 1.51098,0.0833 2.70243,-0.008 1.19144,-0.0919 2.89584,-0.0919 3.7726,0 0.88222,0.0919 2.16764,0.0772 2.86734,-0.0331 0.6979,-0.11155 2.16219,-0.23158 3.2542,-0.26833 1.092,-0.0368 2.15915,-0.12751 2.37198,-0.19965 0.21403,-0.0748 0.82703,-0.24626 1.37819,-0.38472 1.20236,-0.30386 2.08518,-0.61998 2.57024,-0.92015 0.52448,-0.32469 1.73169,-0.30754 2.47081,0.0368 0.34198,0.15923 0.73609,0.22667 0.88282,0.15075 0.33045,-0.16914 1.30119,-2.11229 1.30119,-2.60607 0,-0.18753 0.0746,-0.55625 0.15765,-0.77923 0.19948,-0.53543 0.2201,-2.60361 0.0297,-2.9871"
       style="fill:#000000;fill-opacity:1;fill-rule:nonzero;stroke:none"
       id="path56"
       inkscape:connector-curvature="0" />
    <path
       d="m 220.92187,167.93883 c -0.0568,-1.88147 -0.17105,-3.77523 -0.25433,-4.2098 -0.0825,-0.43097 -0.14834,-1.23648 -0.14456,-1.7759 0.004,-0.54231 -0.0628,-3.70942 -0.14759,-7.03707 -0.14684,-5.76154 -0.26492,-7.73702 -0.52227,-8.73487 -0.1264,-0.4917 -1.15502,-1.71082 -1.71892,-2.03911 -0.68878,-0.39914 -3.27965,-0.0889 -3.61875,0.43458 -0.0508,0.0781 -0.5533,0.0998 -1.24208,0.0528 -0.72965,-0.0499 -1.37529,-0.021 -1.74844,0.0788 -0.35347,0.094 -1.92783,0.17643 -3.89729,0.20391 -1.81731,0.0253 -3.89349,0.0817 -4.61256,0.12437 -0.72208,0.0441 -2.07921,0.12076 -3.02912,0.17137 -0.95066,0.0507 -1.99897,0.10774 -2.3411,0.12654 -1.83775,0.10196 -18.809,0.11497 -21.27423,0.0159 -1.59707,-0.0643 -3.75424,-0.13667 -4.8192,-0.16197 -1.06042,-0.0253 -2.3305,-0.11425 -2.82248,-0.19741 -1.11568,-0.18873 -5.01751,-0.52641 -6.12788,-0.53002 -0.45415,-0.002 -1.10736,-0.0853 -1.4525,-0.18728 -0.44051,-0.12943 -0.70014,-0.14462 -0.87421,-0.0521 -0.17183,0.0904 -0.35803,0.0847 -0.60553,-0.0202 -0.23086,-0.0969 -0.66153,-0.12075 -1.21256,-0.0658 -0.46777,0.047 -0.92796,0.0412 -1.01879,-0.013 -0.0916,-0.0542 -0.69484,-0.11858 -1.35561,-0.14462 -0.66154,-0.0253 -1.52818,-0.10701 -1.94902,-0.18438 -0.41175,-0.0752 -1.25267,-0.12004 -1.84534,-0.0983 -1.07328,0.039 -1.09296,0.0463 -1.5138,0.54594 -0.32925,0.39046 -0.42689,0.63125 -0.42689,1.05209 l 0,0.54593 -0.6199,-0.0297 c -0.77128,-0.0369 -1.35939,0.18221 -1.45477,0.54303 -0.0408,0.15113 -0.0113,1.78891 0.0636,3.63062 0.0764,1.84675 0.1317,5.86638 0.12414,8.94456 -0.008,3.07818 0.031,7.98503 0.0855,10.91859 0.14836,7.98431 0.13397,13.87529 -0.0401,16.37645 -0.0855,1.23719 -0.15517,3.04851 -0.15517,4.05216 0,0.9993 -0.062,2.06296 -0.13776,2.36738 -0.0757,0.30297 -0.19981,1.23648 -0.2755,2.06513 -0.0757,0.82866 -0.19983,1.84026 -0.27552,2.23651 -0.0764,0.40204 -0.21117,1.1967 -0.30275,1.78892 -0.16122,1.03907 -0.15669,1.07522 0.17181,1.4599 0.1915,0.22416 0.49576,0.50037 0.70241,0.63849 0.28913,0.19307 0.33758,0.29358 0.23388,0.48663 -0.0704,0.1316 -0.28233,0.30804 -0.46095,0.38396 -0.48897,0.20897 -0.70014,0.79323 -0.50562,1.39845 0.20361,0.63125 1.12627,1.78601 1.46914,1.8388 0.15593,0.0239 0.45491,0.11931 0.68879,0.21982 0.22933,0.0983 0.68878,0.24513 1.03241,0.32901 0.34667,0.0846 0.90224,0.235 1.26025,0.34201 0.35801,0.1063 0.90449,0.19018 1.23904,0.19018 0.38224,0 0.83335,0.11931 1.24662,0.329 0.43976,0.22416 0.85985,0.32901 1.31474,0.32901 0.37164,0 0.72587,0.0557 0.79853,0.12509 0.0712,0.068 0.59871,0.18727 1.16337,0.2632 0.56463,0.0752 1.23601,0.20102 1.4805,0.27622 0.2475,0.0766 0.5056,0.10268 0.57827,0.0586 0.0704,-0.042 0.30956,0.008 0.5162,0.10557 0.21193,0.10123 1.24586,0.25525 2.29266,0.34201 1.0468,0.0868 2.20561,0.21765 2.56817,0.29069 0.83183,0.16775 7.07779,0.21114 9.9964,0.0701 2.59011,-0.1251 4.3378,-0.27043 7.42217,-0.61825 0.60552,-0.0679 1.84534,-0.1851 2.75362,-0.2603 2.25859,-0.18656 4.17658,-0.36877 5.57685,-0.53003 1.07404,-0.12291 4.5891,-0.38033 5.57685,-0.40782 1.21408,-0.0348 6.66453,-0.24946 7.91719,-0.31236 0.79929,-0.0404 2.49248,-0.0998 3.78678,-0.13305 1.29431,-0.0326 3.042,-0.0825 3.91017,-0.11136 1.34954,-0.0456 1.6296,-0.0181 1.9967,0.1974 0.23463,0.13666 0.52378,0.24946 0.64034,0.24946 0.11581,0 0.44733,0.11498 0.72284,0.24947 0.58584,0.28634 2.07921,0.34708 2.89212,0.11642 0.44052,-0.12437 1.19742,-0.81347 1.19742,-1.08897 0,-0.0448 0.16274,-0.28272 0.37164,-0.54592 0.29216,-0.36734 0.36483,-0.58571 0.33682,-1.01956 -0.0348,-0.53942 -0.33455,-1.32325 -0.55708,-1.4534 -0.0666,-0.039 -0.28157,-0.32901 -0.46777,-0.63126 -0.32243,-0.52423 -0.33681,-0.62546 -0.22706,-1.61175 0.0643,-0.58354 0.18392,-1.69708 0.26793,-2.4997 0.0841,-0.80192 0.24979,-1.94439 0.37165,-2.56479 0.12261,-0.62113 0.2634,-1.6443 0.31715,-2.30158 0.0529,-0.65151 0.16803,-1.89449 0.25507,-2.76291 0.35271,-3.51203 0.44279,-4.56267 0.56616,-6.55116 0.1862,-3.0008 0.26869,-11.70676 0.1491,-15.67938 z m -5.36643,12.37778 c -0.0733,1.00364 -0.20285,2.98634 -0.28535,4.39419 -0.0833,1.40712 -0.21345,3.12878 -0.28914,3.81427 -0.0757,0.68404 -0.16122,1.48812 -0.18847,1.7759 -0.21117,2.20974 -0.50939,4.56773 -0.6252,4.94591 -0.0757,0.24729 -0.13625,0.7238 -0.13625,1.06583 0,1.30228 -0.59795,5.1527 -0.84092,5.41952 -0.0529,0.0579 -1.48655,0.12654 -3.18049,0.15185 -3.66266,0.0557 -6.82802,0.14534 -9.26676,0.26103 -2.68472,0.12798 -4.16825,0.14606 -4.43393,0.0542 -0.13624,-0.047 -0.37164,-0.0116 -0.52301,0.0789 -0.15517,0.0925 -1.26706,0.22994 -2.54698,0.31454 -2.60299,0.17282 -4.7594,0.34925 -6.54115,0.5358 -0.685,0.0717 -2.28508,0.21187 -3.57939,0.31382 -1.29505,0.10197 -2.77252,0.24441 -3.30539,0.31961 -3.97903,0.56111 -15.07975,0.55098 -16.66092,-0.0145 -0.23388,-0.0832 -0.5321,-0.13305 -0.68802,-0.11424 -0.15442,0.0181 -0.57828,-0.031 -0.96429,-0.11208 -0.38527,-0.081 -0.77962,-0.16052 -0.89466,-0.18077 -0.9643,-0.16848 -1.40482,-0.26971 -2.0656,-0.47652 -0.41326,-0.12943 -1.03921,-0.2726 -1.3768,-0.31526 -1.19817,-0.15041 -1.86197,-0.29791 -2.31385,-0.51411 -0.26113,-0.12437 -0.52832,-0.18729 -0.60552,-0.14173 -0.165,0.0976 -2.17609,-0.23284 -2.17609,-0.35793 0,-0.052 0.16273,-0.27622 0.3724,-0.51339 0.33984,-0.38395 0.37012,-0.51267 0.35423,-1.48595 -0.0152,-0.93856 0.246,-4.53808 0.44127,-6.07753 0.11808,-0.93061 0.48214,-10.44424 0.49048,-12.82536 0.005,-1.2683 -0.059,-4.10424 -0.14154,-6.31398 -0.13777,-3.69641 -0.16123,-22.95001 -0.031,-24.9009 l 0.0568,-0.84239 1.54181,-0.068 c 1.45703,-0.0637 2.91937,-0.0173 8.7581,0.27766 3.33189,0.16848 5.01675,0.25163 8.26158,0.40927 1.47294,0.0722 3.49235,0.19089 4.47481,0.26464 1.51304,0.1128 2.46524,0.16777 4.54444,0.26249 0.48593,0.0217 15.21524,-0.15619 16.93644,-0.20463 0.90828,-0.0253 3.8829,-0.0767 6.60927,-0.11281 2.72636,-0.0361 5.34449,-0.10123 5.81755,-0.14461 0.63353,-0.0579 0.94233,-0.0267 1.17015,0.11859 0.22557,0.14388 0.69561,0.19377 1.72802,0.18437 0.78491,-0.009 1.44947,0.0188 1.48732,0.0586 0.0379,0.0398 0.0916,2.3746 0.11883,5.18957 0.0515,5.34071 0.1756,9.30901 0.302,9.64235 0.0408,0.10847 0.10597,1.23648 0.14381,2.49898 0.0379,1.26323 0.0877,2.31966 0.10975,2.34208 0.11354,0.10774 0.0643,9.35239 -0.0583,11.02271"
       style="fill:#000000;fill-opacity:1;fill-rule:nonzero;stroke:none"
       id="path1048"
       inkscape:connector-curvature="0" />
  </g>
</svg>
