<?xml version="1.0" encoding="UTF-8" standalone="no"?>
<!-- Created with Inkscape (http://www.inkscape.org/) -->

<svg
   xmlns:dc="http://purl.org/dc/elements/1.1/"
   xmlns:cc="http://creativecommons.org/ns#"
   xmlns:rdf="http://www.w3.org/1999/02/22-rdf-syntax-ns#"
   xmlns:svg="http://www.w3.org/2000/svg"
   xmlns="http://www.w3.org/2000/svg"
   xmlns:sodipodi="http://sodipodi.sourceforge.net/DTD/sodipodi-0.dtd"
   xmlns:inkscape="http://www.inkscape.org/namespaces/inkscape"
   width="21.26656mm"
   height="18.152674mm"
   viewBox="0 0 75.353953 64.320495"
   id="svg6079"
   version="1.1"
   inkscape:version="0.91 r13725"
   sodipodi:docname="buttonMult_clear.svg">
  <defs
     id="defs6081" />
  <sodipodi:namedview
     id="base"
     pagecolor="#ffffff"
     bordercolor="#666666"
     borderopacity="1.0"
     inkscape:pageopacity="0.0"
     inkscape:pageshadow="2"
     inkscape:zoom="8"
     inkscape:cx="38.986963"
     inkscape:cy="43.270675"
     inkscape:document-units="px"
     inkscape:current-layer="layer1"
     showgrid="false"
     inkscape:snap-global="true"
     fit-margin-top="0"
     fit-margin-left="0"
     fit-margin-right="0"
     fit-margin-bottom="0"
     inkscape:window-width="1920"
     inkscape:window-height="1080"
     inkscape:window-x="0"
     inkscape:window-y="0"
     inkscape:window-maximized="0" />
  <metadata
     id="metadata6084">
    <rdf:RDF>
      <cc:Work
         rdf:about="">
        <dc:format>image/svg+xml</dc:format>
        <dc:type
           rdf:resource="http://purl.org/dc/dcmitype/StillImage" />
        <dc:title />
      </cc:Work>
    </rdf:RDF>
  </metadata>
  <g
     inkscape:label="Layer 1"
     inkscape:groupmode="layer"
     id="layer1"
     transform="translate(-145.93253,-142.78421)">
    <g
       id="g584"
       transform="matrix(0.50698409,0,0,-0.39071772,166.06517,183.28295)">
      <path
         d="m 0,0 c 3.828,-15.463 21.228,-19.797 35.903,-17.34 17.026,2.852 27.451,25.817 13.602,41.34 -4.518,5.064 -10.141,9.142 -15.654,14.021 2.585,3.227 5.6,6.737 8.335,10.454 6.404,8.711 3.313,16.387 -6.975,19.75 -12.3,4.019 -24.288,0.486 -36.367,-0.47 -4.906,-0.389 -6.238,-3.956 -4.408,-8.682 3.058,-7.901 9.702,-9.583 15.943,-9.34 C 9.262,45.038 6.619,40.339 7.615,36.611 9.09,31.089 12.699,25.857 18.917,23.696 21.416,22.828 24.04,22.175 26.351,20.943 32.288,17.777 33.729,11.161 30.169,4.539 27.156,-1.062 24.399,-1.679 17.146,2.297 10.985,5.675 5.37,6.406 0,0 m 23.604,-42.156 c -6.281,1.357 -13.375,1.96 -19.742,4.435 -21.309,8.286 -26.435,20.637 -27.797,45.783 -1.023,18.897 2.863,37.079 10.417,54.437 5.081,11.674 11.554,22.386 22.099,30.011 8.513,6.155 17.71,6.388 27.456,3.121 3.62,-1.213 8.161,-2.705 11.364,-1.541 7.816,2.838 12.747,-1.319 17.85,-5.462 C 78.263,78.065 86.685,64.249 91.529,48.465 96.513,32.23 93.319,16.174 87.78,0.683 81.937,-15.659 70.403,-27.404 55.282,-35.473 45.681,-40.596 34.885,-40.757 23.604,-42.156"
         style="fill:#ffffff;fill-opacity:1;fill-rule:evenodd;stroke:none"
         id="path586"
         inkscape:connector-curvature="0" />
    </g>
    <g
       id="g580"
       transform="matrix(0.45406431,0,0,-0.36748243,178.48803,200.87767)">
      <path
         d="m 0,0 c 11.281,1.399 22.077,1.561 31.679,6.684 15.121,8.068 26.654,19.813 32.498,36.155 5.539,15.491 8.732,31.547 3.749,47.782 -4.845,15.784 -13.267,29.6 -26.279,40.163 -5.102,4.143 -10.034,8.3 -17.849,5.462 -3.203,-1.163 -7.744,0.328 -11.364,1.542 -9.746,3.266 -18.944,3.033 -27.456,-3.122 C -25.567,127.041 -32.04,116.33 -37.121,104.655 -44.676,87.297 -48.562,69.115 -47.538,50.218 -46.177,25.072 -41.051,12.722 -19.741,4.436 -13.374,1.96 -6.28,1.357 0,0 m -71.698,58.428 c 0.492,32.782 10.41,60.261 30.03,84.473 3.743,4.619 7.7,7.609 13.09,9.499 12.604,4.42 25.076,7.978 38.698,3.876 5.199,-1.565 11.224,-1.874 16.602,-1.031 8.998,1.409 16.84,-1.132 23.272,-6.387 12.075,-9.864 23.735,-20.436 31.935,-33.953 C 93.206,96.315 96.38,76.408 92.939,54.699 89.552,33.323 78.662,16.963 63.116,3.216 57.996,-1.312 51.489,-4.488 45.231,-7.476 19.797,-19.617 -6.56,-19.76 -32.271,-9.755 c -23.435,9.12 -35.153,28.48 -38.576,52.943 -0.781,5.582 -0.65,11.291 -0.851,15.24"
         style="fill:#231f20;fill-opacity:1;fill-rule:evenodd;stroke:none"
         id="path582"
         inkscape:connector-curvature="0" />
    </g>
    <g
       id="g7168"
       transform="matrix(0.08393749,0,0,0.09733559,203.47412,147.11834)">
      <path
         d="m -2.6358379,422.26416 c -5.6145771,-2.6608 -7.8237461,-4.59166 -7.4668101,-6.49897 0.6077682,-3.17884 0.01013,-3.48497 -4.206098,-2.14278 -3.907041,1.25585 -9.25148,-1.27939 -16.496407,-7.849 -3.299273,-2.99834 -8.807725,-6.2949 -11.923699,-7.14261 -3.164239,-0.85554 -7.515045,-3.16315 -9.569863,-5.07045 -2.006573,-1.85236 -4.591974,-3.50066 -5.527739,-3.50066 -0.945418,0 -1.755771,-1.20875 -1.755771,-2.63726 0,-2.01719 -1.13833,-2.50383 -4.823499,-2.07214 -4.283274,0.51018 -5.334796,-0.28257 -9.299726,-6.99346 -3.125627,-5.28237 -5.643506,-7.69988 -8.335021,-7.99815 -2.189883,-0.2433 -5.045392,-2.28404 -6.588924,-4.70938 -1.987287,-3.14745 -3.607974,-4.05795 -6.058331,-3.43002 -2.276687,0.58868 -3.94562,-0.0706 -5.257617,-2.07214 -1.041867,-1.5698 -3.115977,-2.92768 -4.476217,-2.92768 -1.40846,0 -2.54682,-0.57299 -2.54682,-1.27938 0,-2.14279 -16.09121,-15.855 -18.59945,-15.855 -1.40847,0 -2.45999,-0.66716 -2.45999,-1.5698 0,-2.58232 -7.19667,-6.99347 -11.40278,-6.99347 -4.91997,0 -6.64679,-1.39712 -4.40868,-3.57129 2.72045,-2.65296 0.19294,-6.78153 -3.66587,-5.97309 -2.46,0.51018 -3.33786,-0.0235 -3.33786,-2.02504 0,-1.42852 -1.08046,-2.7079 -2.27671,-2.7079 -1.24446,0 -5.35408,-2.27622 -9.03925,-4.99982 -3.68516,-2.72361 -7.39927,-4.99982 -8.16139,-4.99982 -0.77175,0 -2.27669,-1.27938 -3.33785,-2.84919 -1.06118,-1.57765 -3.116,-2.85704 -4.56305,-2.85704 -1.50493,0 -3.11599,-1.07532 -3.772,-2.50383 -0.65599,-1.42851 -2.04515,-3.25733 -3.24138,-4.28555 -1.18659,-0.99683 -2.38282,-2.25267 -2.72046,-2.8492 -0.35694,-0.61222 -2.90375,-2.12707 -5.88468,-3.50065 -4.00352,-1.84452 -5.39268,-3.64194 -5.78822,-7.49581 -0.35693,-3.43 0.21223,-5.07045 1.75576,-5.07045 1.24447,0 7.63079,-4.03438 14.12323,-8.92432 6.49245,-4.88992 15.88865,-11.82844 20.79899,-15.35264 4.91032,-3.52421 9.65665,-7.87256 10.52489,-9.63074 0.84894,-1.71893 2.73012,-3.21809 4.0421,-3.21809 1.36023,0 4.0614,-2.07213 6.04868,-4.63876 1.99693,-2.57447 5.40233,-6.04374 7.64044,-7.78622 2.2767,-1.77387 4.87175,-3.94804 5.97151,-4.99195 1.03223,-1.00468 5.08399,-4.24632 8.76914,-7.03271 14.39335,-10.88658 30.542461,-25.43862 30.542461,-27.52647 0,-1.27938 1.225178,-2.28405 2.807293,-2.28405 1.495287,0 3.714098,-1.85237 4.755967,-3.99515 1.591758,-3.25734 30.513538,-26.44329 44.549954,-35.72082 3.125637,-2.05644 4.099964,-4.68586 5.093617,-13.68867 0.800701,-7.27602 2.016226,-11.38106 3.511523,-11.84413 3.579044,-1.11456 2.980929,-6.13008 -0.70425,-5.87891 -7.023004,0.47094 -10.88182,-0.38461 -10.88182,-2.40964 0,-1.31864 -1.755761,-2.13493 -4.563054,-2.13493 -3.328213,0 -4.30257,-0.56514 -3.598331,-2.08 0.530583,-1.13811 0.106145,-2.50382 -0.964704,-3.03756 -2.807283,-1.41282 -34.681043,-1.82097 -35.713259,-0.45524 -0.511296,0.67501 -2.546828,1.28724 -4.292936,1.28724 -4.669159,0 -14.219691,4.2934 -20.885801,9.39525 -3.80092,2.91198 -5.44091,5.5257 -5.44091,8.66531 0,2.42534 -1.13835,5.25098 -2.45999,6.13791 -1.38918,0.92619 -2.07412,2.85704 -1.58211,4.42684 0.49199,1.5698 0.0386,2.78639 -1.05154,2.78639 -1.08046,0 -3.78162,2.35471 -6.14515,5.35304 -2.35386,2.99831 -6.01972,6.92281 -8.33501,8.92431 -2.2574,1.95441 -7.1388,6.64026 -10.79502,10.35284 -3.68516,3.74397 -12.51219,11.63221 -19.7378,17.63671 -7.22562,5.99664 -13.08136,11.74212 -13.08136,12.84882 0,1.1381 -0.74282,2.0015 -1.75576,2.0015 -0.96469,0 -7.53432,5.92599 -14.64417,13.20988 -7.11951,7.27602 -18.33899,17.43263 -25.01474,22.62868 -9.8303,7.64492 -13.54441,9.62287 -19.7378,10.49411 l -7.64044,1.07531 -13.0717,-11.21623 c -7.16775,-6.13791 -15.02041,-12.88806 -17.37428,-14.92095 -2.31529,-1.99364 -4.30257,-4.30125 -4.30257,-4.99196 0,-0.70642 -2.97129,-4.003 -6.57927,-7.28389 -3.60799,-3.28874 -7.49573,-6.83648 -8.5955,-7.85685 -1.09975,-1.00467 -5.26727,-4.13643 -9.12608,-6.85218 -3.86846,-2.71575 -7.14844,-6.07514 -7.19668,-7.35451 -0.0578,-1.31863 -2.98093,-3.57916 -6.66609,-5.1411 -4.0421,-1.70324 -6.38633,-3.63409 -6.05832,-4.99982 0.27975,-1.1852 -1.148,-2.63726 -3.0774,-3.1396 -2.44071,-0.62792 -3.59834,-2.21342 -3.59834,-4.92133 0,-2.43319 -1.75576,-5.32163 -4.46659,-7.35452 -2.45997,-1.84451 -4.08067,-4.15997 -3.59833,-5.14109 0.47271,-0.96542 -1.49528,-2.63727 -4.30256,-3.64194 -2.98093,-1.06747 -5.18046,-2.91983 -5.18046,-4.35619 0,-1.39713 -1.9294,-3.11606 -4.37975,-3.89311 -4.56303,-1.45207 -5.6435,-3.50066 -2.63363,-5.00768 0.99364,-0.50232 1.75576,-1.5227 1.75576,-2.37823 0,-1.03607 -0.70423,-1.03607 -2.28635,0 -1.70752,1.1224 -3.04846,0.78489 -5.35409,-1.35788 -2.22846,-2.07214 -4.11927,-2.55878 -6.92656,-1.76603 -4.62092,1.29508 -7.37032,1.16165 -22.29426,-1.06747 -9.82067,-1.46776 -12.36749,-1.38927 -16.75688,0.54944 -2.88445,1.27154 -7.54396,3.20239 -10.53454,4.35619 -2.89411,1.12242 -7.9395,5.21173 -10.98796,8.92432 -6.00044,7.28388 -6.46351,8.46122 -3.83952,9.81126 0.95506,0.48664 1.32164,2.3233 0.79106,4.04223 -0.65599,2.13494 0.0964,3.587 2.37317,4.56813 1.79434,0.7692 6.31879,2.70791 9.82067,4.20706 3.68516,1.5855 6.91691,4.20707 7.45714,6.06728 0.54987,1.86022 1.89082,3.29658 3.0774,3.32012 2.49858,0.0314 10.65031,6.96208 12.05878,10.25082 0.71388,1.64828 2.85552,2.56662 6.01974,2.56662 3.32822,0 5.47951,1.03606 6.66609,3.21023 0.93576,1.71894 3.55974,3.42217 5.61456,3.65764 3.96493,0.45524 8.13244,7.40945 6.50209,10.83948 -0.54023,1.13026 1.91976,2.88843 6.30916,4.49748 4.03245,1.48346 7.96843,3.79892 8.95242,5.28238 1.1673,1.75818 3.33788,2.50384 6.49245,2.21342 3.85881,-0.34536 4.85246,0.21977 5.3541,3.06896 0.328,1.88376 3.77197,6.00449 7.45714,8.92431 3.68517,2.91984 6.83975,5.72192 6.83975,6.06729 0,0.36106 1.95835,2.3547 4.38939,4.50533 l 4.38939,3.85385 0,-6.56961 4.38939,3.28088 c 2.46,1.84453 4.38941,4.32479 4.38941,5.64344 0,1.33433 2.27669,3.43787 5.26726,4.85069 2.98093,1.42066 5.25763,3.67332 5.25763,5.21173 0,1.45992 2.11269,3.90095 4.56305,5.28238 2.45998,1.38928 5.85572,3.72827 7.37031,5.07046 1.60141,1.42852 3.79129,2.49597 5.09363,2.49597 2.83623,0 10.92043,7.1426 10.9976,9.71709 0.0386,0.99682 -0.6753,1.71108 -1.69787,1.71108 -0.984,0 -2.52752,1.5698 -3.51151,3.57128 -0.98399,1.99365 -2.37318,3.5713 -3.15457,3.57916 -2.73012,0.0235 -37.2375,29.40236 -41.25067,35.11644 -0.79106,1.1381 -2.0741,1.99365 -2.98092,1.99365 -0.86824,0 -8.42186,5.44721 -16.84371,12.14241 -8.42184,6.6952 -15.57994,12.13456 -15.96581,12.13456 -1.65929,0 -54.82402,45.12393 -54.85296,46.55244 -0.0386,1.73463 -11.31595,10.41563 -21.14627,16.27883 -3.32822,1.99366 -8.05526,4.98413 -10.69855,6.78155 -2.63363,1.78173 -5.9908,3.21024 -7.55361,3.21024 -1.57247,0 -2.84587,0.4631 -2.89411,1.06747 -0.0482,0.60437 -3.15457,2.62157 -7.01338,4.56813 -3.86846,1.9544 -7.40891,4.67015 -7.98774,6.14576 -0.56916,1.42852 -2.98093,3.35937 -5.26727,4.21491 -2.98092,1.10671 -3.92634,2.31546 -3.25105,4.13643 0.54025,1.41282 0.15436,3.85386 -0.84893,5.42367 -2.22846,3.48495 -0.79105,6.7109 6.01974,13.56308 3.116,3.14744 6.63715,5.14894 9.04891,5.14894 2.18987,0 5.57598,1.71108 7.62115,3.85386 4.05174,4.25416 12.12629,7.56645 18.43544,7.56645 2.32494,0 9.22255,-1.47562 15.35806,-3.28875 8.68232,-2.55878 13.68912,-5.32163 22.64157,-12.49561 6.31878,-5.05476 13.34182,-11.38889 15.60886,-14.05756 5.55669,-6.56962 10.78537,-10.89442 14.48984,-11.97758 1.58211,-0.4631 2.98093,-1.78174 2.98093,-2.8021 0,-1.05962 4.73668,-5.72192 10.53453,-10.35284 5.78823,-4.63876 10.5249,-9.13624 10.5249,-9.99177 0,-0.8634 4.74633,-5.23531 10.53456,-9.70923 5.78821,-4.48177 10.5249,-9.04205 10.5249,-10.14091 0,-1.08316 3.8588,-4.29342 8.43148,-7.00132 4.61128,-2.73145 18.68628,-13.84564 31.1213,-24.55953 34.45915,-29.70064 40.90336,-34.62194 51.18708,-39.0645 8.06491,-3.48496 16.31312,-1.20874 16.31312,4.51319 0,1.57764 2.19951,3.31228 5.71102,4.49747 4.83317,1.63259 5.70139,2.63726 5.70139,6.64027 0,3.99513 0.66565,4.71723 4.3894,4.78003 3.84915,0.0628 4.35079,0.64362 4.11928,4.78789 -0.22188,3.99514 0.12538,4.45039 2.28634,2.99833 2.05481,-1.38928 3.19317,-1.14595 5.96186,1.28724 1.95834,1.71108 3.42468,3.48495 3.43433,4.13642 0.0101,1.71107 29.51988,26.12933 31.58435,26.12933 0.96471,0 1.75576,0.92619 1.75576,2.07215 0,1.13811 1.57246,2.45673 3.50187,2.92767 1.9294,0.47094 3.51152,1.75817 3.51152,2.85703 0,1.09887 2.72046,3.05327 6.05832,4.35621 3.64659,1.42067 7.30281,4.41898 9.21291,7.56643 1.72682,2.85705 4.93927,5.85537 7.1002,6.64026 2.1127,0.76136 3.95528,2.26052 3.95528,3.21025 0,0.99683 1.9294,1.78172 4.38939,1.78172 3.15458,0 4.3894,0.8006 4.3894,2.85704 0,1.86021 1.22518,2.85704 3.50187,2.85704 1.93904,0 3.5115,0.83983 3.5115,1.86021 0,1.04392 1.10942,3.06897 2.54683,4.63876 2.08375,2.28407 2.92304,2.48029 4.64986,1.09886 3.453647,-2.76285 8.595495,1.82881 8.595495,7.68418 0,3.71257 0.935765,5.01551 4.389378,6.13792 2.816937,0.91049 4.389398,2.58233 4.389398,4.63877 0,2.57447 0.33765,2.78639 1.678596,1.07531 1.929398,-2.48029 2.122331,-2.28407 5.16116,4.99196 3.212455,7.70772 4.572687,8.84584 15.80181,13.26482 8.682325,3.42216 11.055467,3.76752 20.355213,2.95123 19.834282,-1.73464 25.323438,-3.36723 33.6970424,-9.97609 7.37031807,-5.82396 7.83337877,-6.6324 6.9362069,-12.16596 -0.7428217,-4.56811 -0.18329971,-6.74229 2.4503472,-9.48945 1.9197546,-2.00149 3.4246842,-4.19922 3.4246842,-4.99981 0,-0.78489 -3.5983307,-3.13175 -7.9877186,-5.21174 z m -71.1660831,27.76978 c -0.839293,0 -1.572462,-0.99682 -1.572462,-2.14278 0,-2.28406 2.016216,-2.92768 4.032462,-1.27938 1.447041,1.1695 -0.173646,3.42216 -2.46,3.42216"
         style="fill:#000000;fill-opacity:1;fill-rule:nonzero;stroke:none"
         id="path62"
         inkscape:connector-curvature="0" />
    </g>
  </g>
</svg>
