<?xml version="1.0" encoding="UTF-8" standalone="no"?>
<!-- Created with Inkscape (http://www.inkscape.org/) -->

<svg
   xmlns:dc="http://purl.org/dc/elements/1.1/"
   xmlns:cc="http://creativecommons.org/ns#"
   xmlns:rdf="http://www.w3.org/1999/02/22-rdf-syntax-ns#"
   xmlns:svg="http://www.w3.org/2000/svg"
   xmlns="http://www.w3.org/2000/svg"
   xmlns:sodipodi="http://sodipodi.sourceforge.net/DTD/sodipodi-0.dtd"
   xmlns:inkscape="http://www.inkscape.org/namespaces/inkscape"
   width="212.40028mm"
   height="86.771278mm"
   viewBox="0 0 752.59945 307.45727"
   id="svg6079"
   version="1.1"
   inkscape:version="0.91 r13725"
   sodipodi:docname="screen.svg">
  <defs
     id="defs6081" />
  <sodipodi:namedview
     id="base"
     pagecolor="#ffffff"
     bordercolor="#666666"
     borderopacity="1.0"
     inkscape:pageopacity="0.0"
     inkscape:pageshadow="2"
     inkscape:zoom="0.35355339"
     inkscape:cx="342.60803"
     inkscape:cy="-475.68109"
     inkscape:document-units="px"
     inkscape:current-layer="layer1"
     showgrid="false"
     inkscape:snap-global="true"
     fit-margin-top="0"
     fit-margin-left="0"
     fit-margin-right="0"
     fit-margin-bottom="0"
     inkscape:window-width="1128"
     inkscape:window-height="1041"
     inkscape:window-x="788"
     inkscape:window-y="18"
     inkscape:window-maximized="0" />
  <metadata
     id="metadata6084">
    <rdf:RDF>
      <cc:Work
         rdf:about="">
        <dc:format>image/svg+xml</dc:format>
        <dc:type
           rdf:resource="http://purl.org/dc/dcmitype/StillImage" />
        <dc:title></dc:title>
      </cc:Work>
    </rdf:RDF>
  </metadata>
  <g
     inkscape:label="Layer 1"
     inkscape:groupmode="layer"
     id="layer1"
     transform="translate(83.737596,111.10779)">
    <path
       d="m 667.58056,-96.587337 c -1.49667,-0.6861 -1.70222,-2.453273 -0.33458,-2.835852 0.56178,-0.157295 -0.51284,-0.192295 -2.37421,-0.0782 -3.25133,0.197174 -3.98874,0.0025 -7.40003,-1.963251 -2.13491,-1.22442 -3.041,-1.34073 -5.43624,-0.69208 -2.15138,0.57488 -2.57739,0.54564 -3.45775,-0.23416 -0.74832,-0.67989 -1.60734,-0.83341 -3.53852,-0.65198 -2.0301,0.1925 -2.71399,0.047 -3.39338,-0.7118 -1.05792,-1.15774 -3.7995,-1.14689 -5.03449,0.0208 -0.69727,0.68499 -0.87195,0.68277 -1.64573,-0.004 -0.64177,-0.58728 -1.42078,-0.66992 -3.19251,-0.35534 -1.3044,0.22885 -2.12304,0.28423 -1.81083,0.12294 0.28777,-0.15419 0.52471,-0.6584 0.49361,-1.07887 -0.0399,-0.53855 -0.29663,-0.64046 -0.82168,-0.32322 -0.42996,0.25432 -2.74333,0.6615 -5.16843,0.90695 -3.43957,0.34892 -4.76629,0.27537 -6.00617,-0.30882 -0.85316,-0.41117 -2.6694,-0.6985 -3.98551,-0.62806 -1.34097,0.0718 -3.7413,-0.0224 -5.37542,-0.2067 -5.83247,-0.65641 -13.0863,-0.97942 -19.20976,-0.85116 -3.4352,0.0711 -6.61129,-0.0625 -7.07744,-0.29775 -0.46638,-0.23815 -3.31625,-0.34294 -6.39972,-0.23572 -3.05885,0.103 -6.05857,-0.005 -6.6998,-0.24857 -0.71875,-0.27958 -1.53546,-0.19828 -2.2271,0.22618 -0.81043,0.5031 -1.3319,0.53101 -2.13558,0.11431 -0.67353,-0.34272 -4.54578,-0.45061 -10.34262,-0.28779 -5.12506,0.14422 -10.36609,0.0691 -11.72938,-0.16151 -1.31366,-0.23328 -3.95295,-0.18741 -5.77667,0.0981 -2.07062,0.31901 -3.76541,0.32589 -4.41156,0.0163 -1.19064,-0.5926 -9.13719,-0.84384 -16.99321,-0.54478 -4.52485,0.16991 -5.73025,0.0523 -6.47922,-0.63625 -0.75131,-0.72021 -1.20189,-0.74524 -2.98018,-0.18166 -1.51021,0.47984 -2.35558,0.51063 -3.08305,0.11299 -0.70072,-0.37306 -5.85914,-0.34272 -16.12283,0.0997 -12.84821,0.55471 -15.26803,0.53388 -16.23967,-0.13117 -0.86547,-0.5782 -1.74355,-0.65264 -3.43676,-0.28733 -1.42326,0.30749 -2.39679,0.2902 -2.59619,-0.0461 -0.19694,-0.3046 -3.37826,-0.50731 -7.36465,-0.4732 -3.86178,0.0332 -8.67321,0.0363 -10.67006,0.004 -4.89187,-0.0736 -6.33343,-0.0138 -12.42665,0.52348 -2.84832,0.25365 -5.46551,0.26073 -5.78266,0.0174 -0.34222,-0.24479 -1.09484,-0.3086 -1.70608,-0.14577 -0.63585,0.16703 -1.23864,0.10678 -1.40597,-0.13291 -0.14196,-0.23817 -2.01959,-0.34006 -4.0807,-0.22974 -3.52619,0.18874 -3.83014,0.12406 -3.90168,-0.84361 -0.0969,-1.31037 -1.04335,-1.2973 -1.22066,0.0132 -0.15458,0.94506 -0.67193,1.0277 -8.60073,1.35378 -4.6479,0.19094 -8.63497,0.21643 -8.89629,0.054 -0.41711,-0.24656 -12.35475,0.48492 -14.22092,0.87106 -0.36824,0.0775 -2.19697,-0.0414 -4.08283,-0.25854 -2.33839,-0.26806 -3.5316,-0.22154 -3.82803,0.15287 -0.58943,0.79486 -4.41939,0.9218 -5.14799,0.17146 -0.35094,-0.36287 -2.18374,-0.53656 -4.56998,-0.44064 -2.16256,0.0868 -4.21245,0.0115 -4.50009,-0.1697 -0.67909,-0.41759 -11.76119,0.0831 -12.34941,0.55692 -0.25812,0.21911 -0.76341,0.1276 -1.13769,-0.21378 -0.39976,-0.3487 -1.95513,-0.4794 -3.73839,-0.32034 -4.30952,0.38391 -4.23484,0.38279 -11.23323,0.47982 -3.48676,0.0478 -6.66073,-0.0569 -7.07253,-0.23151 -1.02883,-0.42778 -14.88101,0.70977 -15.93362,1.30969 -0.47836,0.27426 -1.17875,0.24237 -1.6757,-0.0722 -0.9944,-0.63781 -43.31522,1.2053 -44.15977,1.9213 -0.30556,0.25055 -1.09028,0.0902 -1.89885,-0.39279 -1.22571,-0.72951 -1.72449,-0.73173 -4.66219,-0.002 -4.28413,1.06491 -6.73108,1.35202 -7.39023,0.86686 -0.2907,-0.22154 -1.59595,-0.3425 -2.96175,-0.26939 -1.34096,0.0718 -2.9302,0.15683 -3.55102,0.19007 -0.64563,0.0346 -4.79352,0.24505 -9.26462,0.46699 -4.49554,0.2291 -8.33551,0.22063 -8.55228,-0.0136 -0.24142,-0.22996 -0.90823,-0.14511 -1.45746,0.1821 -0.78946,0.44993 -1.36316,0.44594 -2.21968,-0.0113 -0.7797,-0.42956 -1.82992,-0.47165 -3.3009,-0.1356 -2.47609,0.56624 -24.47109,1.83316 -24.87469,1.43262 -0.13452,-0.13158 -0.62186,0.0188 -1.07325,0.32057 -0.54474,0.38768 -1.01697,0.40718 -1.46704,0.0525 -0.39825,-0.32853 -3.29308,-0.3673 -7.8113,-0.10812 -3.92249,0.22436 -7.54821,0.41555 -8.0464,0.42205 -2.56473,0.0419 -33.74921,1.78043 -47.19884,2.630429 -5.11189,0.322771 -9.54228,0.421128 -9.85624,0.221078 -0.31373,-0.197168 -1.30002,-0.04894 -2.14509,0.322993 -1.88263,0.838062 -14.00783,1.729945 -15.42304,1.134902 -0.644,-0.280685 -2.575413,-0.102122 -5.398132,0.497114 -6.749486,1.439744 -10.683803,1.841158 -15.218117,1.54607 -1.503138,-0.09883 -3.448134,-0.104576 -4.31432,-0.01764 -0.841106,0.0884 -2.704396,0.176562 -4.04962,0.190748 -4.633123,0.05427 -5.201687,0.119395 -8.774003,1.033443 -3.034286,0.772487 -6.66911,1.178109 -9.989705,1.112977 -2.396928,-0.04808 -13.652674,1.138445 -14.075604,1.487805 -0.282457,0.226188 -4.013184,0.683205 -8.251881,1.014173 -4.239104,0.325208 -10.076797,0.947043 -12.887439,1.372167 -2.860349,0.427778 -7.688838,0.874162 -10.7462425,0.99733 -3.0826197,0.118743 -5.6787425,0.410949 -5.7856412,0.650858 -0.1074845,0.234174 -1.3862798,0.470318 -2.7790492,0.515953 -4.9741444,0.162146 -22.8347131,1.71088 -24.8216441,2.149735 -1.104048,0.241249 -3.297544,0.584179 -4.830764,0.75299 -1.53322,0.168817 -3.393942,0.493924 -4.092794,0.719271 -1.149521,0.368011 -1.410841,0.205617 -2.471152,-1.524473 -1.33887,-2.19226 -2.263462,-2.929216 -3.567179,-2.859433 -0.692813,0.03708 -0.900346,-0.240942 -0.883311,-1.190217 0.02028,-1.053475 -0.122807,-1.187552 -0.948906,-0.897571 -0.648737,0.228446 -1.338621,0.0023 -2.069358,-0.675683 -0.789865,-0.735493 -1.406357,-0.913562 -2.201112,-0.636826 -1.30045,0.451264 -4.599976,4.918635 -6.103002,8.260522 l -1.089762,2.42345 1.083408,1.468639 1.083182,1.465767 -1.54345,4.581545 c -0.848475,2.517518 -1.527925,4.791787 -1.508749,5.050982 0.0658,0.889903 1.845556,2.133334 2.536904,1.772498 0.391113,-0.205971 1.019165,-0.04014 1.434389,0.382945 0.833129,0.848834 1.290535,3.730157 0.675079,4.240169 -0.211363,0.17612 -0.436292,1.584681 -0.497651,3.114598 -0.102752,2.587474 -0.7788,6.931764 -1.9525,12.569102 -0.516984,2.482421 -1.369334,10.172767 -1.730095,15.61046 -0.117399,1.749762 -0.39598,4.624217 -0.626903,6.423431 -0.230742,1.802093 -0.323783,4.522049 -0.208209,6.085858 0.116273,1.572449 -0.0017,3.11118 -0.265151,3.460674 -0.263325,0.349495 -0.45335,1.521986 -0.421668,2.624783 0.202125,7.7235282 0.126187,13.6750943 -0.185675,14.212227 -0.192211,0.3312284 -0.17148,4.0859789 0.04687,8.38817 0.215645,4.299458 0.488007,10.611142 0.603085,14.089057 0.407495,12.286649 2.728507,45.054368 3.379385,47.685355 0.352018,1.42394 1.041338,7.204433 1.53277,12.804689 0.489314,5.603257 1.177372,12.447836 1.528421,15.172926 0.351634,2.73374 0.5881,7.27785 0.521919,10.12358 -0.09058,4.00069 0.03538,5.50034 0.563381,6.67488 0.549591,1.22832 0.579808,1.94086 0.162917,3.75292 -0.671699,2.91863 -1.124869,10.57893 -0.799712,13.55986 0.13475,1.24763 0.02456,3.60419 -0.243045,5.14225 -0.470341,2.70835 -0.444855,2.91805 0.551123,4.52147 1.233728,1.98394 3.052244,3.65032 3.733295,3.42014 0.308979,-0.10337 0.663159,0.0339 0.847167,0.33053 1.102629,1.76255 4.70496,-1.40836 5.985445,-5.26457 0.336267,-1.01551 0.781933,-1.96749 1.009837,-2.15606 0.225447,-0.18843 0.329912,-0.96602 0.23455,-1.75025 -0.09779,-0.78121 0.06625,-2.94694 0.361121,-4.85944 0.643082,-4.14881 0.654146,-8.44884 0.04371,-17.88531 -0.251811,-3.87828 -0.277567,-8.03466 -0.06219,-9.19984 0.661672,-3.55996 -2.809627,-38.903025 -3.887853,-39.594169 -0.335072,-0.216258 -0.360242,-0.75849 -0.09036,-1.825388 0.24735,-0.970278 -0.009,-7.968105 -0.705161,-19.345845 -0.600156,-9.804232 -1.14898,-20.189489 -1.217933,-23.077144 -0.257377,-10.559876 -0.166296,-19.9818668 0.199421,-20.6317554 0.205055,-0.3608298 0.176888,-1.3510548 -0.06512,-2.23152023 -0.241897,-0.88047693 -0.234934,-1.59212377 0.01577,-1.60554707 0.248296,-0.013228 0.470431,-1.3927855 0.489381,-3.0245158 0.07999,-6.3681385 0.742905,-16.2833495 1.15894,-17.3667425 0.249085,-0.643643 0.411078,-1.554412 0.376354,-2.125041 -0.103429,-1.781312 0.281916,-6.23438 0.606127,-6.974571 0.426355,-0.976961 1.146546,-6.847355 1.116577,-9.106783 -0.01352,-0.996759 0.166747,-2.330678 0.395191,-2.915393 0.727312,-1.863367 1.937178,-10.989605 2.369662,-17.850788 0.106809,-1.688488 0.562435,-3.115169 1.368794,-4.280177 0.680104,-0.984763 1.430783,-2.060045 1.700463,-2.45903 0.270717,-0.384584 0.611355,-0.498228 0.779072,-0.252767 0.34039,0.557159 2.660929,-0.09039 3.02899,-0.844488 0.171029,-0.382141 0.299402,-0.334071 0.334328,0.13824 0.04214,0.570229 0.545197,0.630041 2.239239,0.276258 1.964014,-0.41161 2.191985,-0.363092 2.055928,0.494245 -0.110864,0.861766 0.143088,0.920465 2.713117,0.615201 1.556993,-0.184537 3.245514,-0.6132 3.768199,-0.962117 0.689478,-0.453259 1.362079,-0.460349 2.391587,-0.02393 0.952669,0.408733 2.126143,0.432662 3.545614,0.07333 1.1500396,-0.292868 4.9555096,-0.750995 8.4259073,-1.020596 5.4040824,-0.416474 10.5039409,-1.238805 12.0964697,-1.954362 0.240995,-0.111209 1.962617,-0.09353 3.891975,0.03744 2.631275,0.182984 3.792604,0.04277 4.966191,-0.606994 1.029237,-0.578427 1.86694,-0.712895 2.66059,-0.431545 0.640626,0.234609 1.714164,0.255211 2.472077,0.05272 0.733035,-0.201146 2.882387,-0.466544 4.841828,-0.603233 2.009307,-0.136456 3.455638,-0.468315 3.432,-0.78799 -0.02614,-0.354233 1.11144,-0.478735 3.164957,-0.354442 1.778227,0.110097 3.415462,-6.59e-4 3.721038,-0.251225 0.280946,-0.246343 2.251135,-0.574433 4.358508,-0.733494 2.107552,-0.156183 6.686866,-0.600789 10.148521,-0.988473 3.461632,-0.38768 7.816355,-0.834726 9.674552,-0.992017 1.833366,-0.155954 3.723516,-0.554937 4.173193,-0.879707 0.518833,-0.400752 1.610398,-0.473637 3.324359,-0.221309 2.546211,0.381265 6.270538,-0.162146 6.609734,-0.969644 0.129342,-0.272925 0.927454,-0.269386 1.845489,0.0082 1.223047,0.356671 2.041665,0.301285 3.100444,-0.215108 1.612019,-0.788882 3.664996,-1.008641 4.031908,-0.429772 0.340616,0.560036 9.614749,-0.115637 10.315629,-0.751654 0.302173,-0.296631 8.486681,-0.873499 19.519101,-1.371489 10.46088,-0.473179 19.52856,-0.906495 20.19756,-0.96255 2.30409,-0.195608 5.98418,-0.326068 9.64798,-0.340039 1.99385,-0.0084 4.21811,-0.272032 4.94287,-0.585512 0.89345,-0.391892 2.8875,-0.397428 6.33068,-0.0237 2.7395,0.298635 5.21284,0.36864 5.44647,0.156644 0.25832,-0.216224 1.5843,-0.489594 2.92205,-0.604564 1.36259,-0.116308 6.78684,-0.597472 12.01266,-1.065121 5.22582,-0.46765 9.64875,-0.666801 9.78995,-0.443049 0.28406,0.470546 22.65499,-0.770243 23.31434,-1.294166 0.23525,-0.188965 1.20673,-0.200492 2.16767,-0.01764 0.96062,0.179879 3.04934,0.105669 4.64939,-0.170791 1.62509,-0.27492 4.6587,-0.382358 6.78843,-0.239037 4.93563,0.328545 4.86116,0.332532 7.41638,-0.512621 1.94678,-0.644885 2.27194,-0.630486 2.79998,0.104557 0.52614,0.70913 1.07821,0.757649 3.7388,0.326102 2.68502,-0.438632 3.16236,-0.389011 3.4676,0.366643 0.24501,0.6172 0.50189,0.719104 0.87322,0.346484 0.83308,-0.871515 3.61488,-1.350029 10.41387,-1.783338 13.32461,-0.854887 15.96661,-0.863265 16.74873,-0.06378 0.78213,0.799519 1.68908,0.927343 1.63734,0.227519 -0.064,-0.863987 3.34642,-1.945732 5.13979,-1.631155 0.98485,0.169928 3.48365,0.24724 5.52202,0.167053 2.75918,-0.110117 3.74236,0.03677 3.78111,0.560929 0.0367,0.49535 0.41784,0.59349 1.27082,0.328094 2.60658,-0.824767 9.7669,-1.766057 10.27151,-1.347804 0.47809,0.396547 3.87352,0.125185 8.74863,-0.702471 1.35451,-0.225746 2.38559,-0.104538 3.14301,0.360885 0.83788,0.542098 1.96343,0.591721 4.80278,0.217107 8.19685,-1.083511 23.59952,-1.482914 25.70435,-0.664565 1.02671,0.398985 1.29691,0.344046 1.25283,-0.252094 -0.0428,-0.578873 0.44425,-0.735052 2.0204,-0.660396 1.15062,0.05117 2.36747,0.324331 2.68659,0.593496 0.39823,0.328537 1.19222,0.277365 2.43145,-0.159059 1.02079,-0.355337 2.23313,-0.480949 2.6719,-0.278896 0.77475,0.36332 3.05263,0.487158 6.28298,0.343164 0.77024,-0.03547 1.80964,0.198056 2.43311,0.537667 0.88372,0.487598 1.30352,0.433324 2.24614,-0.305279 0.8955,-0.701377 1.36347,-0.778468 2.09329,-0.349133 0.62431,0.351131 3.54611,0.417375 8.01593,0.178133 5.36384,-0.287101 7.23905,-0.214002 7.85148,0.314149 0.63793,0.53545 1.03803,0.55162 1.77528,0.06978 1.52218,-0.992246 3.81924,-1.282896 4.42135,-0.557596 0.8499,1.041658 4.70972,0.644228 6.55678,-0.674783 1.94212,-1.381928 2.68261,-1.48228 3.13497,-0.422239 0.24331,0.594163 0.70059,0.708468 1.6259,0.410284 0.70631,-0.225742 1.58331,-0.165711 1.92958,0.133811 0.34711,0.311034 2.25121,0.437531 4.40928,0.290217 2.08382,-0.140445 7.03334,-0.298401 11.01824,-0.352671 3.98493,-0.05427 7.55486,-0.326313 7.93274,-0.60964 0.47345,-0.340501 1.078,-0.257203 1.78848,0.248342 0.89435,0.631594 1.89319,0.653307 5.96778,0.125836 4.54405,-0.584401 5.02009,-0.552057 6.53747,0.413392 1.4121,0.890128 2.09131,0.97232 4.70377,0.563588 1.87295,-0.293972 3.23251,-0.788877 3.4945,-1.291537 0.64115,-1.107007 0.99794,-1.001776 1.09486,0.308595 0.0789,1.065585 0.25731,1.119637 2.12112,0.701826 1.39847,-0.306159 2.45123,-0.229513 3.33382,0.243691 0.80453,0.428227 1.53317,0.504882 1.88481,0.202707 0.68269,-0.545416 3.963,-0.350903 4.78241,0.278919 0.26422,0.202711 3.26013,0.259201 6.59092,0.124284 3.35559,-0.136246 6.92747,-0.04407 7.94315,0.20515 1.09208,0.271163 3.2084,0.233062 5.27814,-0.09746 1.99543,-0.32366 3.81311,-0.354444 4.30751,-0.07444 0.54534,0.294642 1.93808,0.249006 3.58185,-0.110749 1.69258,-0.373948 3.95595,-0.445941 6.11835,-0.197369 1.86104,0.218432 5.48263,0.307938 8.01765,0.201161 2.75876,-0.115848 4.83944,0.03878 5.16403,0.382823 0.40362,0.400532 1.10166,0.400754 2.343,-0.0069 1.72843,-0.563804 4.34999,-0.174989 5.64598,0.831207 0.26443,0.205595 1.62541,0.06623 3.01872,-0.309042 2.05291,-0.558042 3.07572,-0.549184 5.48827,0.04741 2.38768,0.597924 3.43578,0.611221 5.56425,0.06359 3.13214,-0.797963 9.02331,-1.370619 9.45552,-0.919574 0.18883,0.192287 1.11973,0.307267 2.06334,0.25676 0.96849,-0.05184 1.85318,0.111861 1.99669,0.367306 0.169,0.262745 1.17866,0.09305 2.36369,-0.401196 2.63646,-1.095263 3.87938,-1.144441 4.64838,-0.185188 0.46599,0.570675 1.17368,0.700497 2.42649,0.448392 0.98266,-0.197182 2.25934,-0.126699 2.87897,0.161052 0.903,0.411389 1.29585,0.329645 1.91563,-0.391669 0.61832,-0.741477 1.57696,-0.925789 5.23522,-1.01462 2.46351,-0.06248 5.55801,-0.358213 6.80762,-0.653516 2.05848,-0.483165 2.38663,-0.428446 2.87736,0.476301 0.49096,0.907626 0.91991,0.97719 3.9836,0.602134 2.74234,-0.337624 3.57099,-0.25764 4.01769,0.389243 0.50108,0.707582 1.12913,0.772272 4.82364,0.499345 0.61997,-0.04471 2.76195,-0.07268 4.75729,-0.0609 3.9157,0.02172 4.56349,0.01591 6.42678,-0.07222 2.40979,-0.114391 6.53745,0.07511 6.75422,0.309271 0.10793,0.109867 1.44451,-0.01948 3.01975,-0.294636 1.55059,-0.270933 3.16834,-0.308367 3.609,-0.0804 1.16645,0.602578 2.94501,0.380156 4.64423,-0.578196 1.33993,-0.759865 1.5647,-0.754545 2.54696,0.0545 0.87443,0.699165 1.37896,0.779143 2.44562,0.3693 1.09062,-0.422682 1.52067,-0.338722 2.30423,0.480961 0.94667,1.001777 0.94667,1.001777 0.0239,2.681896 -0.70282,1.283787 -0.88568,2.519505 -0.78351,5.249249 0.0687,1.942201 0.0284,4.09263 -0.10005,4.715359 -0.14962,0.673016 0.0683,1.598153 0.49128,2.260759 1.32557,2.080211 2.14119,5.355818 2.04306,8.411442 -0.0498,1.685433 0.2037,3.768087 0.55894,4.862236 1.44288,4.340751 2.04604,6.766109 2.38832,9.708529 0.20235,1.723972 0.65721,3.83055 1.0191,4.678584 0.39819,1.002224 0.64493,2.989828 0.66845,5.668845 0.0225,3.000015 0.19649,4.343862 0.66237,4.911638 0.38134,0.436428 0.77538,1.719333 0.91407,2.920489 0.41232,3.554527 1.12363,6.766326 1.73521,7.956629 0.43832,0.869965 0.44736,1.329209 0.0248,2.02262 -0.40035,0.654635 -0.40092,0.984275 -0.0113,1.212018 0.33791,0.187189 0.99699,3.705387 1.65373,8.877548 0.6221,4.702723 1.27548,8.8197258 1.49757,9.1258886 0.19717,0.3074894 0.91876,7.3671244 1.61324,15.7466654 0.69464,8.379525 1.9203,20.57323 2.78457,27.203086 0.83962,6.63407 1.98943,16.113972 2.51259,21.166065 0.5459,5.021959 1.36868,12.102198 1.83292,15.682856 0.49082,3.602369 1.07378,9.46373 1.31624,13.079393 0.2421,3.615679 0.49382,7.019774 0.53664,7.598649 0.31084,3.192757 0.53514,5.887055 0.60308,6.805755 0.018,0.58022 0.24987,3.037 0.48145,5.49671 0.50619,5.49536 2.0087,33.56799 1.81906,34.03787 -0.0863,0.18096 -0.29882,2.70204 -0.48319,5.60326 -0.72602,11.0838 -1.157,14.02136 -2.58609,17.28409 -1.70756,3.87908 -4.46451,7.72757 -6.82615,9.50495 -1.93618,1.46255 -6.28115,2.71577 -10.13022,2.9218 -1.39061,0.0744 -2.61667,0.35109 -2.74631,0.62117 -0.23511,0.53012 -21.84245,1.64333 -22.60075,1.1663 -0.26148,-0.16544 -6.49159,-0.12959 -13.83098,0.0753 -7.33948,0.20499 -16.199,0.41894 -19.6851,0.47542 -3.48635,0.0537 -11.32585,0.239 -17.44636,0.40758 -6.09565,0.16717 -13.61423,0.30947 -16.75487,0.31856 -3.11573,0.008 -10.01184,0.13976 -15.31069,0.29329 -5.27409,0.15222 -10.11781,0.0558 -10.71129,-0.21603 -0.79985,-0.36486 -1.31985,-0.31682 -2.05537,0.18825 -0.66289,0.47496 -2.44449,0.65708 -5.78947,0.59903 -2.67093,-0.0449 -7.7084,-0.0644 -11.19684,-0.0397 -7.37578,0.0508 -8.82372,0.0242 -13.20692,-0.25012 -2.22923,-0.14091 -3.31717,-0.0192 -3.51127,0.39041 -0.40901,0.87485 -1.80813,0.83407 -2.57328,-0.0732 -0.51996,-0.6256 -1.47619,-0.74501 -4.327,-0.52593 -6.89172,0.52794 -10.25481,0.56235 -10.83728,0.10294 -0.47807,-0.39654 -5.11678,-0.75545 -11.43351,-0.87995 -1.24822,-0.0228 -4.22737,-0.19017 -6.60882,-0.36621 -4.93838,-0.36599 -9.55435,-0.41674 -14.64693,-0.17024 -3.25417,0.15873 -5.5405,-0.0794 -10.92971,-1.1469 -1.87211,-0.36821 -10.67493,-0.0619 -15.06958,0.52037 -0.93809,0.12537 -1.37537,-0.0566 -1.41605,-0.60658 -0.0444,-0.59905 -0.50234,-0.72486 -1.93368,-0.52683 -1.13546,0.15317 -2.32131,-0.0376 -2.97665,-0.47099 -0.73321,-0.47539 -1.31246,-0.55426 -1.73667,-0.22218 -0.32845,0.2778 -1.16658,0.40651 -1.84898,0.28106 -0.68223,-0.1225 -1.34676,-0.006 -1.4515,0.26287 -0.23657,0.50997 -7.23357,-0.0495 -8.65196,-0.68767 -0.4645,-0.2123 -1.83388,-0.18807 -3.03789,0.0498 -1.20398,0.23808 -2.30005,0.25025 -2.44123,0.0266 -0.14128,-0.2238 -3.58558,-0.27648 -7.61265,-0.11867 -5.31992,0.20656 -7.54579,0.11176 -8.10388,-0.3556 -0.50696,-0.44993 -1.78449,-0.53189 -4.23356,-0.27358 -2.54774,0.27236 -3.50037,0.20079 -3.53606,-0.28202 -0.0367,-0.49537 -1.63678,-0.55716 -6.60052,-0.25388 -3.62342,0.22275 -6.69079,0.21061 -6.83306,-0.0274 -0.14241,-0.23808 -3.41024,-0.26563 -7.20958,-0.0623 -4.69335,0.25122 -6.99156,0.18903 -7.1447,-0.19582 -0.1521,-0.36775 -2.18225,-0.51642 -5.86491,-0.42051 -3.08559,0.0786 -6.975,0.0755 -8.60129,-0.002 -5.45478,-0.26896 -16.59464,0.12499 -17.18222,0.60742 -0.35269,0.28777 -1.07964,0.23412 -1.80459,-0.12902 -0.69986,-0.36153 -2.40637,-0.51306 -4.1151,-0.35799 -1.63467,0.14532 -3.40906,0.087 -3.99854,-0.12997 -0.58925,-0.21416 -4.78432,-0.30486 -9.31401,-0.20116 -10.1547,0.23123 -16.81396,0.19446 -18.93008,-0.10295 -0.88196,-0.12652 -3.32936,-0.18327 -5.44439,-0.12787 -2.13987,0.0567 -4.0658,-0.028 -4.32692,-0.18768 -0.26103,-0.15969 -2.66381,0.0502 -5.37519,0.4698 -3.2532,0.50953 -4.99213,0.59392 -5.21676,0.25311 -0.17013,-0.28001 -3.25239,-0.4909 -6.86608,-0.47386 -3.58843,0.0215 -7.48043,-0.0153 -8.60703,-0.0799 -6.88451,-0.38614 -12.439,-0.31726 -15.09407,0.18921 -1.86829,0.35732 -3.31156,0.39405 -3.63298,0.0932 -0.3195,-0.27493 -5.24709,-0.49403 -11.00576,-0.48939 -5.75887,0.002 -10.95341,-0.11924 -11.58809,-0.27318 -0.63506,-0.15969 -1.64454,-0.32542 -2.29659,-0.37726 -0.62742,-0.0562 -2.36382,-0.27537 -3.87552,-0.48937 -2.09111,-0.29576 -16.44977,-0.27607 -22.90903,0.032 -0.37261,0.0172 -1.41296,-0.22794 -2.3081,-0.53277 -1.53527,-0.5337 -4.91335,-0.36444 -7.84869,0.39744 -0.68531,0.17273 -1.74193,0.0441 -2.26454,-0.28071 -0.57296,-0.33077 -2.26123,-0.5729 -3.75437,-0.53634 -1.49315,0.0364 -5.33885,-0.0497 -8.61532,-0.19228 -10.605,-0.4646 -11.75392,-0.49273 -16.80769,-0.3957 -4.804792,0.0924 -5.90679,0.0241 -12.547756,-0.77693 -3.974651,-0.4812 -14.462661,-0.71204 -23.398184,-0.51424 -3.982335,0.089 -8.378857,-0.0286 -9.767007,-0.25788 -1.363115,-0.22773 -3.456878,-0.22263 -4.586411,0.0115 -1.670292,0.33812 -2.175244,0.25242 -2.548758,-0.41583 -0.400915,-0.70137 -0.67704,-0.72706 -1.631601,-0.14991 -0.883424,0.52727 -2.098968,0.60966 -5.159392,0.35435 -2.232681,-0.18691 -5.828342,-0.26341 -8.090226,-0.1712 -2.261885,0.0922 -4.687902,-0.0115 -5.452259,-0.23438 -0.789617,-0.22661 -1.799949,-0.40384 -2.299132,-0.41186 -2.845185,-0.0414 -12.759178,0.0728 -15.7431239,0.17771 -2.7600085,0.0985 -3.6451446,-0.0709 -4.3228153,-0.8066 -0.4358643,-0.50001 -1.0289445,-0.76608 -1.2642837,-0.57711 -0.6578188,0.5441 -6.1656226,0.56994 -7.1526774,0.033 -0.4674563,-0.25255 -2.9522639,-0.4781 -5.5221577,-0.50532 -6.361889,-0.0613 -8.723641,-0.30796 -9.117571,-0.949 -0.229368,-0.37228 -0.573904,-0.31043 -1.038318,0.18576 -0.54247,0.58706 -1.061821,0.64379 -2.406189,0.26479 -2.500513,-0.70752 -11.473217,-1.75391 -13.587169,-1.58291 -0.946877,0.0738 -2.049551,-0.10428 -2.387057,-0.3869 -0.770621,-0.64402 -2.057303,-0.84979 -6.335322,-1.01694 -1.772548,-0.0671 -3.603165,-0.37962 -4.133219,-0.70401 -0.555968,-0.33742 -2.166433,-0.47096 -3.87787,-0.31865 -1.62207,0.14761 -3.264622,0.0851 -3.684578,-0.13247 -1.219104,-0.64024 -4.46881,-0.35353 -9.192112,0.80716 -2.448551,0.60236 -5.201957,1.195 -6.115418,1.31618 -0.898814,0.11752 -1.78404,0.38464 -1.929335,0.57744 -0.147594,0.19289 -1.396037,1.04622 -2.743898,1.86724 -4.684567,2.86452 -5.262887,3.33782 -6.248883,5.10807 -0.543529,0.97748 -0.944377,2.46773 -0.8841,3.28275 0.06197,0.83806 -0.10771,1.78105 -0.386854,2.15163 -0.701533,0.93097 -0.0365,1.32619 0.996091,0.59146 0.817288,-0.57865 0.914745,-0.5087 1.003775,0.69512 0.07368,0.99646 0.324616,1.3242 0.980339,1.2891 0.49666,-0.0266 1.002603,0.13994 1.162658,0.38306 0.15458,0.23741 0.7916,0.28722 1.414222,0.10947 0.754532,-0.21404 1.33292,-0.0452 1.738072,0.51124 0.52762,0.72929 1.052311,0.74459 4.090225,0.12231 1.923071,-0.39206 3.659363,-0.8493 3.871357,-1.01679 1.612606,-1.28624 7.781158,-2.72668 12.929959,-3.02252 2.122605,-0.12135 4.483591,-0.25536 5.283191,-0.29816 0.903929,-0.0483 1.632254,0.25962 1.942585,0.81548 0.416936,0.74968 1.288507,0.87071 5.362441,0.73943 4.026771,-0.12883 5.039311,0.0115 5.885148,0.79525 1.408228,1.30957 2.973829,1.57851 8.959026,1.53574 2.855573,-0.0199 5.547102,0.16851 6.016767,0.41812 0.467231,0.24967 1.696813,0.25615 2.723436,0.0134 1.382044,-0.3255 2.016315,-0.24393 2.429353,0.31813 0.651081,0.88172 2.733622,1.43234 4.753001,1.26358 0.817536,-0.07 1.578085,0.10064 1.77363,0.385 0.42444,0.68278 2.4055125,0.50158 2.7485165,-0.25411 0.1935623,-0.41805 0.3989546,-0.33652 0.743581,0.27827 0.4550178,0.75919 1.3312081,0.80769 7.33382377,0.39388 3.96874733,-0.27313 7.23478923,-0.27161 7.77883663,0.006 0.5179537,0.26139 2.3747321,0.42225 4.0902701,0.35931 2.262538,-0.0834 3.298152,0.0982 3.737194,0.64134 0.469664,0.61965 0.870174,0.64156 2.252397,0.11656 1.963317,-0.75853 3.807814,-0.42642 3.891931,0.71111 0.0489,0.66238 0.380342,0.76031 1.530426,0.46744 4.282841,-1.08216 5.66644,-1.25165 5.707541,-0.69584 0.02749,0.37151 0.481066,0.43688 1.28542,0.18845 1.778902,-0.55495 3.600799,-1.54011 3.572699,-1.92025 -0.01352,-0.16985 0.921258,-0.35293 1.990131,-0.39568 1.491218,-0.0625 2.257671,0.18845 2.939015,0.9732 0.789346,0.89745 1.473641,1.04875 4.736506,1.00711 2.092298,-0.0253 4.690989,-0.28298 5.716937,-0.5691 1.173001,-0.32013 1.920953,-0.31965 1.944816,0.004 0.07143,0.96479 2.746917,1.07314 3.825547,0.15088 0.866839,-0.7519 1.435426,-0.81704 3.880169,-0.45924 1.562852,0.23151 4.015797,0.36333 5.381594,0.29023 3.402031,-0.18212 4.145387,0.0934 4.253998,1.56202 0.09058,1.22401 0.141285,1.23574 1.755197,0.47277 2.93969,-1.37749 6.150458,-1.78644 8.348032,-1.06267 1.507284,0.49179 3.056931,0.54474 5.797538,0.18404 2.469192,-0.32308 4.465813,-0.29396 5.839992,0.0836 1.170184,0.31611 2.280069,0.49095 2.522011,0.39122 0.241874,-0.0995 2.27288,-0.2807 4.482938,-0.399 3.849074,-0.20603 4.077024,-0.15739 4.509444,0.97011 0.64545,1.64822 0.64545,1.64822 2.37047,0.36465 1.72523,-1.28068 2.9042,-1.52018 3.65979,-0.74233 0.26932,0.2718 1.90291,0.44746 3.56901,0.3901 2.63544,-0.0976 3.11856,0.0297 3.38003,0.86863 0.1627,0.51753 0.50937,0.81991 0.72031,0.63803 0.51863,-0.40363 3.40464,-0.82121 10.50813,-1.51948 3.01955,-0.29762 6.31984,-0.84426 7.33939,-1.21688 1.55373,-0.56601 1.95403,-0.54697 2.45108,0.10602 0.30559,0.42311 1.3849,0.8598 2.3638,0.94906 1.73194,0.15892 2.92793,0.82346 3.71779,2.06493 0.50745,0.79397 2.81817,0.68765 4.07511,-0.18347 0.56935,-0.39186 3.13169,-0.80371 6.25846,-0.99998 4.51608,-0.28802 5.31926,-0.21538 5.37037,0.47586 0.0455,0.61632 0.5824,0.79575 2.32365,0.74303 1.26858,-0.0389 2.24827,-0.27632 2.22867,-0.54141 -0.0566,-0.76606 6.66949,-0.49875 7.4514,0.29798 0.86238,0.87328 5.20464,0.59458 7.6172,-0.49435 1.44755,-0.65287 1.84745,-0.63959 2.94936,0.10237 0.81436,0.56071 2.00277,0.78621 3.43921,0.65731 1.43646,-0.12902 2.09381,-0.006 1.94682,0.36708 -0.15255,0.29729 0.0158,0.89546 0.31662,1.24657 0.41209,0.51573 1.73843,0.58353 5.3816,0.29022 2.65171,-0.21435 5.1209,-0.53724 5.48126,-0.72133 1.27395,-0.64067 4.93468,-1.0332 5.24362,-0.564 0.16877,0.25985 1.04221,0.27094 2.02122,0.0247 1.3706,-0.34515 1.80045,-0.26389 2.07308,0.38922 0.42518,1.02967 1.0218,1.00644 2.61021,-0.10199 0.92565,-0.63071 1.44351,-0.70757 2.17078,-0.3129 0.49461,0.28288 1.52274,0.36376 2.18171,0.17234 0.87885,-0.25228 1.4898,-0.0817 2.08867,0.59951 0.68022,0.77023 1.05952,0.84247 1.97206,0.37148 1.46517,-0.7521 6.49272,-1.20337 8.74245,-0.78597 1.28923,0.24036 1.76412,0.59369 1.81992,1.34825 0.0647,0.8755 0.24412,0.94107 1.15601,0.46146 0.57638,-0.29686 1.65111,-0.59727 2.32054,-0.64755 0.69421,-0.0525 4.24838,-0.53678 7.92289,-1.08042 5.07994,-0.75475 6.89271,-0.85177 7.54909,-0.40406 0.47185,0.31302 1.20267,0.41848 1.5626,0.22861 0.48048,-0.24554 0.69531,-0.0372 0.74962,0.69718 0.15638,2.11389 3.47265,2.12144 6.45802,0.0134 2.43956,-1.73527 3.65206,-1.858 4.43034,-0.43659 0.43167,0.78065 0.8683,0.95389 1.56822,0.64177 1.18248,-0.5288 5.34101,-0.59526 5.82699,-0.092 0.4314,0.43951 10.37002,-0.35258 16.10978,-1.2873 2.31554,-0.37839 4.15594,-0.43926 4.70037,-0.15605 0.88076,0.44727 4.25911,0.61917 9.95957,0.50198 1.41889,-0.0297 2.59856,0.0776 2.61008,0.23331 0.0113,0.15835 2.65567,0.17579 5.81171,0.0387 7.0081,-0.30268 15.39077,-0.22242 15.96715,0.15432 0.23568,0.15222 0.81961,-0.042 1.28968,-0.42756 0.65804,-0.54119 1.12944,-0.5722 2.08403,-0.13764 0.64596,0.30661 1.83435,0.53214 2.55452,0.49358 0.72013,-0.0385 1.3338,0.16851 1.35489,0.4537 0.0248,0.33408 2.27027,0.35847 6.23706,0.0594 3.44637,-0.25688 7.12859,-0.35891 8.28473,-0.2324 1.13159,0.13036 3.36314,0.30284 5.01509,0.39079 1.62687,0.0863 3.46204,0.29176 4.09795,0.46301 0.63574,0.16851 3.10989,0.24991 5.47324,0.18116 2.3385,-0.0673 5.23317,-0.0314 6.33834,0.0799 1.13021,0.11272 3.87226,0.10793 6.03268,-0.008 2.70671,-0.14493 4.06323,-0.006 4.24523,0.43201 0.18432,0.47008 2.05935,0.54032 7.0492,0.25299 3.7486,-0.21601 6.91626,-0.19655 7.05867,0.0443 0.16697,0.23675 1.46184,0.21379 2.88825,-0.0506 2.18878,-0.40629 2.66721,-0.34224 3.12183,0.41117 0.43169,0.7807 0.93387,0.82899 3.89163,0.36999 2.14444,-0.33161 3.86489,-0.32828 4.68786,0.0115 1.3617,0.54587 6.55816,0.69275 12.19179,0.34494 1.73726,-0.1064 5.14168,0.0803 7.50996,0.41627 2.39299,0.33166 6.12369,0.5483 8.26248,0.47722 2.18842,-0.0738 4.09126,0.0355 4.28128,0.245 0.21429,0.20257 1.24572,0.32655 2.2887,0.27071 1.04296,-0.0558 2.03103,0.15739 2.15357,0.4659 0.15458,0.40232 1.24556,0.32368 3.79386,-0.27816 3.9206,-0.92401 13.01248,-1.36731 14.28377,-0.69521 0.41651,0.23793 1.57477,0.39277 2.51836,0.34227 0.96849,-0.0518 2.00793,0.18174 2.33124,0.50843 0.64669,0.65353 2.6923,0.67126 15.89327,0.16697 5.07137,-0.19634 9.28661,-0.17023 9.42781,0.0535 0.16607,0.22528 1.41149,0.20781 2.83874,-0.0449 2.01796,-0.35673 2.72136,-0.28434 3.2152,0.32523 0.41424,0.54452 1.07118,0.66263 2.14762,0.38525 0.85636,-0.2191 1.80831,-0.15777 2.15391,0.13343 0.55686,0.45015 5.28835,-0.29649 6.11203,-0.95749 0.14084,-0.11733 3.10637,-0.13439 6.60361,-0.0412 6.96934,0.185 31.77569,-0.48648 38.83931,-1.04961 2.89965,-0.23339 4.67533,-0.15778 5.12668,0.21425 0.53028,0.42844 1.17635,0.39965 2.68384,-0.11752 1.11843,-0.3837 2.44828,-0.60523 3.02901,-0.50622 0.58076,0.0991 3.90284,0.18423 7.39345,0.18826 8.02822,0.008 16.14756,0.23444 19.08679,0.53681 1.25613,0.12941 4.74097,0.0556 7.76629,-0.1641 4.53799,-0.32952 5.69026,-0.25539 6.74002,0.4546 1.02401,0.69982 1.85072,0.75388 4.48564,0.31213 1.79768,-0.30146 3.52232,-0.57884 3.89248,-0.63046 0.37056,-0.046 2.57392,0.0821 4.90785,0.28955 2.38419,0.21358 5.74508,0.14934 7.71766,-0.14704 2.12026,-0.32174 4.48701,-0.34409 5.95432,-0.0556 1.66876,0.31547 2.91292,0.28355 3.83186,-0.10122 0.74937,-0.3177 2.25276,-0.88969 3.34552,-1.28357 1.11761,-0.39521 2.3241,-0.93687 2.72729,-1.21579 1.73243,-1.18275 7.64879,-0.40363 9.03814,1.19031 1.03586,1.19653 4.67109,1.47033 5.79147,0.43887 0.44179,-0.4313 1.31742,-1.73881 1.90651,-2.87485 0.95781,-1.88148 1.04785,-2.68718 0.87788,-8.35673 -0.1192,-4.30749 0.005,-6.6821 0.38753,-7.57003 0.38501,-0.862 0.45074,-1.996 0.19717,-3.40211 -0.23448,-1.14974 -0.20415,-3.43555 0.0273,-5.0266 0.23139,-1.59105 0.34534,-4.09529 0.24079,-5.50936 -0.10478,-1.41692 -0.11943,-4.64867 -0.0532,-7.12431 0.121,-5.1068 0.24174,-14.26149 0.1992,-18.20879 -0.009,-1.47409 0.10545,-3.6314 0.31012,-4.90876 0.18027,-1.27318 0.18861,-2.50533 0.018,-2.78823 -0.56392,-0.88349 -2.17265,-17.24335 -2.41308,-24.53981 -0.0282,-0.72133 -0.31831,-4.979205 -0.67229,-9.433171 -0.35445,-4.451049 -0.65198,-8.474334 -0.68393,-8.906329 -0.50937,-7.230014 -1.80157,-16.945167 -2.34851,-17.598243 -0.73966,-0.900098 -1.86883,-13.471954 -1.46674,-16.124598 0.20505,-1.271608 0.0708,-1.738599 -0.69563,-2.327889 -0.84836,-0.683211 -0.9816,-1.474089 -1.67449,-10.168866 -0.40875,-5.18544 -0.9158,-10.362722 -1.10057,-11.512262 -0.42399,-2.362665 -0.38778,-1.873074 -1.40282,-15.598901 -0.46877,-6.338765 -1.00639,-10.91301063 -1.36832,-11.76104124 -0.33097,-0.7658384 -0.95858,-5.20805006 -1.38191,-9.92141276 -0.44803,-4.709156 -1.0378,-8.977022 -1.32767,-9.525316 -0.26378,-0.532345 -0.44317,-1.609891 -0.34443,-2.297532 0.11583,-0.795529 -0.12956,-1.75101 -0.631,-2.46435 -0.94886,-1.368863 -1.25011,-4.093733 -0.57064,-5.020637 0.38616,-0.509309 0.25508,-0.933101 -0.63785,-1.882822 -0.5968,-0.653307 -1.0625,-1.556501 -0.96493,-1.923139 0.0726,-0.368196 -0.12731,-1.045642 -0.4561,-1.447284 -0.44032,-0.560482 -0.57879,-1.758764 -0.53954,-4.600165 0.0942,-4.793114 -0.1379,-6.246604 -1.72854,-10.90038 -1.08539,-3.214906 -1.31924,-4.691433 -1.58631,-9.988542 -0.16787,-3.619653 -0.10928,-6.534378 0.15706,-6.979436 0.68844,-1.141344 0.32302,-5.071364 -0.49745,-5.377302 -0.35873,-0.131166 -0.70464,-0.763186 -0.75106,-1.391016 -0.0471,-0.636466 -0.62747,-2.753673 -1.27152,-4.720008 -1.05587,-3.152879 -1.33763,-3.591741 -2.49866,-3.784036 -0.73202,-0.12273 -1.46486,-0.592384 -1.64963,-1.068238 -0.18387,-0.464341 -0.48337,-1.142233 -0.65879,-1.491372 -0.20618,-0.428443 0.12416,-0.680332 0.96597,-0.760082 0.76746,-0.07289 0.9574,-0.201608 0.50019,-0.315907 -1.8282,-0.44861 -0.4716,-1.65752 2.43262,-2.165713 4.4797,-0.78046 6.56221,-0.938192 6.81808,-0.512406 0.16742,0.242587 1.091,0.256756 2.02107,0.02195 1.02807,-0.257416 1.75369,-0.221085 1.77669,0.08995 0.0561,0.760309 1.66809,0.980515 2.51841,0.342278 0.61476,-0.452153 0.94672,-0.345593 1.5839,0.51662 0.74759,1.006652 1.3011,1.075329 7.59974,0.955039 7.96663,-0.151735 10.70248,-0.914031 13.11588,-3.677228 1.24047,-1.431109 1.55688,-2.208471 1.49624,-3.702942 -0.087,-1.51908 -0.32186,-1.992261 -1.27602,-2.42115"
       style="fill:#000000;fill-opacity:1;fill-rule:nonzero;stroke:none"
       id="path20"
       inkscape:connector-curvature="0" />
  </g>
</svg>
