<?xml version="1.0" encoding="UTF-8" standalone="no"?>
<!-- Created with Inkscape (http://www.inkscape.org/) -->

<svg
   xmlns:dc="http://purl.org/dc/elements/1.1/"
   xmlns:cc="http://creativecommons.org/ns#"
   xmlns:rdf="http://www.w3.org/1999/02/22-rdf-syntax-ns#"
   xmlns:svg="http://www.w3.org/2000/svg"
   xmlns="http://www.w3.org/2000/svg"
   xmlns:sodipodi="http://sodipodi.sourceforge.net/DTD/sodipodi-0.dtd"
   xmlns:inkscape="http://www.inkscape.org/namespaces/inkscape"
   width="21.26656mm"
   height="18.152674mm"
   viewBox="0 0 75.353953 64.320495"
   id="svg6079"
   version="1.1"
   inkscape:version="0.91 r13725"
   sodipodi:docname="button0.svg">
  <defs
     id="defs6081" />
  <sodipodi:namedview
     id="base"
     pagecolor="#ffffff"
     bordercolor="#666666"
     borderopacity="1.0"
     inkscape:pageopacity="0.0"
     inkscape:pageshadow="2"
     inkscape:zoom="2"
     inkscape:cx="3.209708"
     inkscape:cy="-27.248854"
     inkscape:document-units="px"
     inkscape:current-layer="layer1"
     showgrid="false"
     inkscape:snap-global="true"
     fit-margin-top="0"
     fit-margin-left="0"
     fit-margin-right="0"
     fit-margin-bottom="0"
     inkscape:window-width="1879"
     inkscape:window-height="511"
     inkscape:window-x="37"
     inkscape:window-y="18"
     inkscape:window-maximized="0" />
  <metadata
     id="metadata6084">
    <rdf:RDF>
      <cc:Work
         rdf:about="">
        <dc:format>image/svg+xml</dc:format>
        <dc:type
           rdf:resource="http://purl.org/dc/dcmitype/StillImage" />
        <dc:title />
      </cc:Work>
    </rdf:RDF>
  </metadata>
  <g
     inkscape:label="Layer 1"
     inkscape:groupmode="layer"
     id="layer1"
     transform="translate(-145.93253,-142.78421)">
    <ellipse
       style="fill:#008000;fill-opacity:0.431694;stroke:none;stroke-opacity:1"
       id="path7888-3"
       cx="183.43253"
       cy="174.60471"
       rx="30.75"
       ry="28.75" />
    <g
       id="g580"
       transform="matrix(0.45406431,0,0,-0.36748243,178.48803,200.87767)">
      <path
         d="m 0,0 c 11.281,1.399 22.077,1.561 31.679,6.684 15.121,8.068 26.654,19.813 32.498,36.155 5.539,15.491 8.732,31.547 3.749,47.782 -4.845,15.784 -13.267,29.6 -26.279,40.163 -5.102,4.143 -10.034,8.3 -17.849,5.462 -3.203,-1.163 -7.744,0.328 -11.364,1.542 -9.746,3.266 -18.944,3.033 -27.456,-3.122 C -25.567,127.041 -32.04,116.33 -37.121,104.655 -44.676,87.297 -48.562,69.115 -47.538,50.218 -46.177,25.072 -41.051,12.722 -19.741,4.436 -13.374,1.96 -6.28,1.357 0,0 m -71.698,58.428 c 0.492,32.782 10.41,60.261 30.03,84.473 3.743,4.619 7.7,7.609 13.09,9.499 12.604,4.42 25.076,7.978 38.698,3.876 5.199,-1.565 11.224,-1.874 16.602,-1.031 8.998,1.409 16.84,-1.132 23.272,-6.387 12.075,-9.864 23.735,-20.436 31.935,-33.953 C 93.206,96.315 96.38,76.408 92.939,54.699 89.552,33.323 78.662,16.963 63.116,3.216 57.996,-1.312 51.489,-4.488 45.231,-7.476 19.797,-19.617 -6.56,-19.76 -32.271,-9.755 c -23.435,9.12 -35.153,28.48 -38.576,52.943 -0.781,5.582 -0.65,11.291 -0.851,15.24"
         style="fill:#231f20;fill-opacity:1;fill-rule:evenodd;stroke:none"
         id="path582"
         inkscape:connector-curvature="0" />
    </g>
    <path
       d="m 198.07357,174.67499 c -0.12462,-0.17512 -0.32563,-0.86503 -0.44221,-1.52149 -0.19095,-1.0727 -0.36683,-1.63149 -0.82813,-2.64083 -0.0804,-0.176 -0.27035,-0.76911 -0.4211,-1.31294 -0.2794,-1.00846 -1.83114,-3.82792 -2.44018,-4.43423 -0.18493,-0.18392 -0.55779,-0.64063 -0.82311,-1.00846 -0.26532,-0.36871 -0.70753,-0.80694 -0.97788,-0.96886 -0.80401,-0.48311 -2.99796,-2.37507 -2.99796,-2.58539 0,-0.43207 -1.28743,-2.57043 -1.6824,-2.79483 -0.81105,-0.45935 -2.61405,-0.90462 -3.9859,-0.98382 -1.27938,-0.0739 -1.42008,-0.0493 -2.10249,0.36872 -0.40201,0.24639 -0.75879,0.59223 -0.79095,0.76822 -0.0693,0.36871 -1.78792,1.82509 -2.15274,1.82509 -0.12965,0 -0.35779,0.19975 -0.50251,0.44087 -0.14573,0.24111 -0.5216,0.60631 -0.83215,0.80782 -0.36583,0.2376 -0.56683,0.51039 -0.56683,0.76823 0,0.22439 -0.11257,0.43823 -0.25528,0.48663 -0.36582,0.12231 -1.93867,1.89724 -1.93867,2.18763 0,0.13464 -0.12764,0.33176 -0.29246,0.44968 -0.32965,0.23759 -1.22813,1.87084 -1.63617,2.9761 -0.15377,0.41623 -0.33367,0.87822 -0.39296,1.00846 -0.18291,0.39951 -0.79899,2.27299 -0.99999,3.04122 -0.10553,0.40391 -0.2995,1.0727 -0.4412,1.52061 -0.65628,2.08116 -0.55578,5.85012 0.18994,7.12434 0.16885,0.28775 0.2603,0.54735 0.20905,0.59223 -0.0513,0.0449 0.0693,0.40831 0.27437,0.82454 0.201,0.40919 0.53467,1.17654 0.74069,1.70453 0.20603,0.52799 0.48945,1.07622 0.63015,1.21701 0.14372,0.14432 0.25628,0.34056 0.25628,0.44791 0,0.10472 0.37688,0.54471 0.8221,0.96095 0.44623,0.41623 0.82311,0.81222 0.82311,0.86414 0,0.2068 2.25827,2.68923 3.37886,3.71441 0.62914,0.57551 1.26331,1.04014 1.4211,1.04014 0.15879,0 0.61205,0.23935 1.03215,0.54471 0.71758,0.52007 0.83215,0.5491 2.66028,0.65646 1.70048,0.0994 1.99696,0.0757 2.69645,-0.21647 0.43116,-0.17952 1.27135,-0.42239 1.85627,-0.53591 0.84622,-0.16544 1.31657,-0.39335 2.24923,-1.08942 0.64019,-0.47783 1.44621,-1.04982 1.7638,-1.25134 0.78592,-0.49895 2.13968,-1.6614 2.13968,-1.83828 0,-0.0783 0.37487,-0.52007 0.8221,-0.96798 0.44723,-0.44879 0.82311,-0.89758 0.82311,-0.9847 0,-0.19096 0.71859,-1.44141 1.28944,-2.24132 0.27135,-0.38015 0.40401,-0.81662 0.39296,-1.28037 -0.01,-0.38456 0.0603,-0.74799 0.15477,-0.80079 0.0965,-0.0537 0.17387,-0.28775 0.17387,-0.52799 0,-0.23671 0.1196,-0.73654 0.26532,-1.10526 0.14372,-0.36519 0.31055,-1.16773 0.36583,-1.76084 0.0543,-0.59223 0.14573,-1.56285 0.201,-2.12868 0.0653,-0.67231 0.0191,-1.15366 -0.12864,-1.36045 z m -8.12958,4.09808 c -0.14371,0.14431 -0.25326,0.46375 -0.25326,0.73566 0,0.56055 -1.18291,2.93034 -1.4623,2.93034 -0.10251,0 -0.18291,0.176 -0.18291,0.39952 0,0.22439 -0.26935,0.66438 -0.61206,1.00054 -0.34271,0.33615 -0.74069,0.81926 -0.9025,1.09734 -0.37487,0.63974 -1.50049,1.50477 -1.95878,1.50477 -0.19397,0 -0.55075,0.19183 -0.80502,0.43207 l -0.45627,0.43207 -1.33567,-1.20822 c -0.7407,-0.6723 -1.72461,-1.78548 -2.21204,-2.50619 -0.48743,-0.71982 -0.95477,-1.33845 -1.05125,-1.39213 -0.0955,-0.0528 -0.17387,-0.24024 -0.17387,-0.41623 0,-0.17776 -0.19195,-0.65647 -0.42914,-1.0727 -0.32663,-0.57111 -0.4603,-1.15278 -0.55778,-2.41731 -0.12462,-1.61741 0.11156,-4.3744 0.43416,-5.05902 0.0834,-0.176 0.25729,-0.75239 0.38794,-1.28038 0.13166,-0.52799 0.42713,-1.24869 0.65929,-1.60069 0.23116,-0.35287 0.4201,-0.7955 0.4201,-0.9847 0,-0.19184 0.12161,-0.42943 0.27437,-0.53679 0.15477,-0.10824 0.27437,-0.35199 0.27437,-0.55967 0,-0.20679 0.18392,-0.56847 0.42009,-0.82454 0.23015,-0.24992 0.70653,-0.84039 1.05125,-1.30502 0.57085,-0.76822 0.68241,-0.84038 1.17989,-0.7603 0.31055,0.0502 0.74572,0.22704 1.00502,0.40831 0.24723,0.17248 0.7226,0.42327 1.03315,0.54383 0.31055,0.12144 0.63015,0.30535 0.69447,0.40039 0.0663,0.0986 0.31959,0.17688 0.57587,0.17688 1.01105,0 1.85024,0.62391 2.25828,1.68077 0.13567,0.35199 0.39899,0.92398 0.58492,1.27245 0.18894,0.35199 0.33869,0.85534 0.33869,1.13694 0,0.27191 0.16381,0.68815 0.35577,0.90374 0.19698,0.22088 0.35678,0.60895 0.35678,0.86502 0,0.63975 0.28744,2.26772 0.4201,2.38476 0.21306,0.18567 -0.0794,3.36241 -0.33166,3.61849"
       style="fill:#000000;fill-opacity:1;fill-rule:nonzero;stroke:none"
       id="path146"
       inkscape:connector-curvature="0" />
  </g>
</svg>
