<?xml version="1.0" encoding="UTF-8" standalone="no"?>
<!-- Created with Inkscape (http://www.inkscape.org/) -->

<svg
   xmlns:dc="http://purl.org/dc/elements/1.1/"
   xmlns:cc="http://creativecommons.org/ns#"
   xmlns:rdf="http://www.w3.org/1999/02/22-rdf-syntax-ns#"
   xmlns:svg="http://www.w3.org/2000/svg"
   xmlns="http://www.w3.org/2000/svg"
   xmlns:sodipodi="http://sodipodi.sourceforge.net/DTD/sodipodi-0.dtd"
   xmlns:inkscape="http://www.inkscape.org/namespaces/inkscape"
   width="75.838127mm"
   height="61.056782mm"
   viewBox="0 0 268.71778 216.34292"
   id="svg6079"
   version="1.1"
   inkscape:version="0.91 r13725"
   sodipodi:docname="popup_0.svg">
  <defs
     id="defs6081" />
  <sodipodi:namedview
     id="base"
     pagecolor="#ffffff"
     bordercolor="#666666"
     borderopacity="1.0"
     inkscape:pageopacity="0.0"
     inkscape:pageshadow="2"
     inkscape:zoom="1.1007702"
     inkscape:cx="-168.83951"
     inkscape:cy="73.843746"
     inkscape:document-units="px"
     inkscape:current-layer="g7168"
     showgrid="false"
     inkscape:snap-global="true"
     fit-margin-top="0"
     fit-margin-left="0"
     fit-margin-right="0"
     fit-margin-bottom="0"
     inkscape:window-width="1160"
     inkscape:window-height="1041"
     inkscape:window-x="756"
     inkscape:window-y="18"
     inkscape:window-maximized="0" />
  <metadata
     id="metadata6084">
    <rdf:RDF>
      <cc:Work
         rdf:about="">
        <dc:format>image/svg+xml</dc:format>
        <dc:type
           rdf:resource="http://purl.org/dc/dcmitype/StillImage" />
        <dc:title></dc:title>
      </cc:Work>
    </rdf:RDF>
  </metadata>
  <g
     inkscape:label="Layer 1"
     inkscape:groupmode="layer"
     id="layer1"
     transform="translate(-55.285154,-85.514146)">
    <g
       id="g7168"
       transform="matrix(0.07986003,0,0,0.07986003,203.49594,152.15719)">
      <rect
         style="fill:#ffffff;fill-opacity:0"
         id="rect4160"
         width="3155.6985"
         height="2447.668"
         x="-1757.0634"
         y="-698.44482"
         transform="matrix(0.9991425,0.04140375,-0.04597408,0.99894263,0,0)" />
      <rect
         style="fill:#ffffff;fill-opacity:1"
         id="rect4163"
         width="3207.9155"
         height="2548.1323"
         x="-1730.7504"
         y="-719.10583" />
      <g
         id="g4154"
         transform="matrix(0.13397715,0,0,0.13935294,-259.89704,299.92064)">
        <path
           inkscape:connector-curvature="0"
           id="path1198"
           style="fill:#000000;fill-opacity:1;fill-rule:nonzero;stroke:none"
           d="m -11572.563,-4035.1241 c -1.253,216.0664 4.288,375.2179 13.867,395.21 10.136,21.2182 12.475,132.8073 6.508,304.8709 -5.171,148.674 -3.84,309.9053 3.015,356.486 6.915,47.2717 11.339,114.9418 9.93,152.3426 -1.396,37.057 7.371,108.3346 19.585,158.9057 28.751,119.0417 41.6,294.4832 33.065,452.4156 -3.708,68.7412 -0.441,153.4156 7.291,188.1473 7.808,34.9929 16.91,108.7802 20.553,165.2275 6.623,105.2929 60.356,555.3015 71.319,597.9902 3.386,12.9567 9.731,125.6437 14.104,249.5358 4.286,123.8889 17.122,290.54761 28.367,369.15104 11.238,78.77547 24.033,189.38091 28.293,245.42094 4.413,56.56263 10.767,130.16016 14.191,164.98784 9.912,100.25079 27.491,383.23858 30.701,494.60227 5.384,190.74456 58.942,821.38671 86.71,1021.32641 10.22,73.8294 23.359,278.1257 29.166,455.3685 5.892,177.2457 13.959,427.0706 18.2,556.7262 4.136,130.169 13.103,266.9776 19.889,306.2369 13.665,78.3501 37.138,399.1863 51.809,706.7757 10.294,218.1372 36.003,538.9717 54.582,683.4606 6.74,51.9146 13.834,133.2894 15.75,180.7171 6.461,155.3114 23.49,430.0123 34.229,549.4943 5.811,65.14 12.083,177.4798 13.956,251.1666 3.067,124.2736 7.404,185.139 36.391,510.401 6.089,69.1963 14.129,196.3261 17.764,282.6512 3.64,86.2372 13.902,177.2031 22.953,202.0835 8.957,25.048 13.945,123.4765 10.979,220.4877 -9.288,308.2358 0.133,709.477 17.651,754.1352 6.836,17.3927 12.338,127.2918 12.105,243.1752 -0.716,416.6164 14.421,759.8697 37.082,839.4193 12.849,45.1708 24.071,170.0958 26.07,290.7126 4.615,277.4195 22.154,470.0854 45.397,499.8907 16.183,20.6719 22.1,55.5934 40.88,242.7102 5.503,55.0542 32.148,149.9937 59.882,213.7201 12.439,28.6236 17.673,61.1097 11.847,74.0635 -5.46,12.3652 0,31.9437 11.765,41.9437 12.508,10.8026 21.578,30.6041 20.989,46.253 -0.567,15.0453 18.283,56.3093 42.008,91.6436 55.917,83.5584 89.594,156.378 88.279,191.2842 -0.943,25.0213 31.44,84.1865 205.828,375.8384 24.863,41.662 58.461,80.037 75.118,85.832 16.486,5.785 38.006,26.486 47.356,45.695 19.989,40.789 144.451,165.246 273.4906,273.344 51.6694,43.188 115.7447,97.607 141.9161,120.549 25.8437,22.499 61.8636,42.282 78.2855,42.901 17.4536,0.658 42.5474,15.637 58.5181,35.095 43.6413,52.874 234.5509,148.235 301.7865,150.768 32.844,1.238 59.1751,8.515 58.8803,16.34 -1.0916,28.973 116.9872,96.621 190.1397,108.935 82.4855,13.697 157.4458,37.444 233.7389,73.812 75.4493,35.906 148.5149,59.667 188.8391,61.187 20.1191,0.758 65.1439,16.918 97.3561,34.922 33.3042,18.734 87.2073,34.627 121.599,35.922 34.3915,1.296 94.9718,13.653 136.7972,27.886 41.7396,14.229 123.1919,34.777 183.8013,46.359 115.1529,21.903 605.3412,76.362 686.3674,76.228 77.1538,-0.192 276.9432,8.024 652.1529,26.811 268.9055,13.403 361.4786,13.018 382.2636,-1.612 20.8773,-14.798 32.6662,-14.612 50.0724,1.022 33.6471,30.198 1567.1057,103.386 2192.0699,104.547 377.4376,0.788 752.5626,-12.458 784.2166,-27.626 41.4747,-19.876 162.7994,-13.238 184.4772,10.138 13.9862,14.991 45.547,16.008 140.0064,4.41 67.2106,-8.23 237.6936,-10.59 379.9891,-5.229 142.3812,5.364 286.1383,10.781 320.7018,12.083 34.7356,1.309 116.489,4.727 183.7081,7.698 67.3056,2.962 133.6467,-0.474 149.0708,-7.642 15.513,-7.251 118.825,-13.863 231.6553,-14.864 112.827,-0.915 276.8921,-6.615 367.7876,-12.749 89.5138,-6.012 194.1234,-5.945 230.2317,0.07 37.3028,6.312 70.6069,4.468 76.3577,-4.184 14.1364,-20.992 414.93707,-2.706 496.98454,22.598 50.4707,15.593 180.13423,20.306 535.7617942,19.497 258.5008458,-0.679 536.0204258,-1.072 617.9847158,-0.997 81.45071,0.05 205.62762,-2.757 274.29159,-6.112 69.0959,-3.423 167.90556,-7.105 219.60636,-8.171 51.4429,-1.075 147.6466,-10.967 212.286,-21.792 64.6394,-10.825 157.1977,-17.669 204.1992,-15.124 79.8224,4.386 200.355,4.622 682.9018,1.364 104.9836,-0.694 224.0782,-8.004 266.9278,-16.376 42.6746,-8.294 164.9623,-13.502 272.95,-11.673 107.9845,1.916 262.3686,1.792 344.5877,-0.275 81.6166,-2.092 244.51,-4.134 360.4128,-4.417 116.8557,-0.419 344.6905,-3.028 509.337,-5.865 164.5629,-2.927 430.7666,-2.368 595.0842,1.24 164.4036,3.611 388.6621,2.244 501.3959,-3.065 112.216,-5.243 302.7853,-12.873 423.5669,-16.933 120.7804,-4.059 307.8004,-11.133 415.684,-15.679 108.3143,-4.529 343.4091,-10.136 525.1752,-12.587 407.4579,-5.312 574.6857,-12.702 597.7667,-26.556 16.7338,-9.959 1524.6616,25.588 2040.6769,48.128 392.5756,17.203 1071.311,-12.501 1241.039,-54.237 40.063,-9.856 121.428,-21.256 181.083,-25.466 59.744,-4.292 126.648,-15.806 149.067,-25.811 22.591,-9.997 68.14,-21.453 102.744,-25.833 34.088,-4.313 102.66,-23.598 151.948,-42.836 49.367,-19.148 101.017,-30.291 114.497,-24.703 14.154,5.958 51.175,-5.39 86.408,-26.448 34.001,-20.332 96.45,-46.133 139.237,-57.436 42.703,-11.307 123.069,-44.184 178.919,-73.161 55.938,-28.975 104.95,-52.356 109.25,-52.194 4.298,0.162 27.951,-12.895 52.049,-28.606 24.015,-15.798 48.194,-24.53 53.159,-19.178 7.859,8.477 68.252,-24.464 238.321,-130.073 23.981,-14.939 50.596,-26.592 59.708,-26.249 9.373,0.353 16.666,-5.831 16.983,-14.258 0.308,-8.167 56.884,-54.079 124.438,-101.128 220.347,-153.482 323.285,-253.012 384.864,-372.267 143.591,-278.1199 167.218,-320.1942 202.345,-358.9942 20.121,-22.1441 42.832,-69.5917 49.633,-103.8619 6.891,-34.3529 36.767,-107.4459 66.082,-161.1023 52.82,-97.0261 94.734,-231.4013 115.946,-371.6351 5.945,-38.9518 17.086,-76.4169 25.221,-84.3763 8.135,-7.9593 15.516,-37.0421 16.575,-65.1561 1.063,-28.202 9.038,-54.7645 17.919,-59.6817 8.704,-4.7526 16.65,-25.9785 17.414,-46.2691 0.774,-20.5495 15.111,-60.562 31.474,-88.1015 18.379,-30.7348 33.138,-88.8123 37.701,-148.2237 4.151,-53.0543 15.857,-116.9298 25.68,-139.9793 9.826,-23.1355 23.237,-104.8575 29.505,-179.7877 6.18,-74.9324 19.021,-150.6486 28.231,-166.5742 9.213,-16.0124 19.333,-99.4936 22.576,-185.5585 3.239,-85.98 13.294,-172.3037 22.378,-191.7655 16.58,-35.538 60.094,-381.4889 77.067,-612.6328 5.109,-69.2918 24.041,-215.2935 42.471,-327.3931 64.518,-393.8051 75.551,-485.5187 82.417,-686.0474 3.818,-112.6491 15.737,-255.4726 26.613,-320.155 28.143,-166.4925 36.814,-417.2368 15.071,-431.9168 -12.176,-8.2082 -11.374,-66.0381 2.585,-208.0092 41.426,-418.527 79.541,-2067.7353 62.175,-2685.4765 -9.149,-323.9127 3.639,-859.8408 55.114,-2308.36088 20.014,-563.12214 33.094,-1102.31121 29.088,-1197.08712 -9.62,-229.1331 -39.803,-833.4948 -52.82,-1059.3119 -5.716,-99.6621 -21.648,-268.6762 -35.381,-377.2505 -40.934,-321.2356 -87.553,-1005.774 -95.262,-1397.6524 -1.443,-73.6707 -8.049,-147.45 -14.706,-165.0071 -14.569,-38.3474 -34.812,-344.3385 -30.452,-460.0663 1.711,-45.3969 -4.468,-98.4958 -13.577,-117.2647 -9.353,-19.1223 -20.847,-72.852 -25.983,-121.6066 -5.081,-47.9775 -20.462,-172.1982 -34.284,-276.1264 -13.735,-103.9251 -29.833,-247.9759 -35.726,-320.0924 -5.887,-72.2885 -17.203,-144.437 -25.198,-160.753 -7.68,-15.5293 -14.029,-43.5791 -13.439,-59.2273 1.166,-30.9525 -16.859,-105.5925 -74.971,-311.4111 -17.478,-61.7042 -34.5,-135.5315 -38.579,-166.6815 -4.151,-31.4973 -23.514,-79.7547 -44.393,-110.5906 -20.56,-30.2212 -60.798,-104.8371 -90.057,-166.9851 -29.254,-62.234 -66.157,-133.969 -82.548,-160.5891 -51.359,-83.3867 -150.392,-185.7898 -180.83,-186.9366 -15.647,-0.5895 -31.578,-11.9524 -35.798,-25.6293 -4.382,-13.9412 -25.396,-34.3641 -48.418,-47.1995 -22.093,-12.3699 -60.963,-52.4938 -85.203,-87.8475 -24.072,-35.2613 -74.426,-81.3284 -109.696,-100.4802 -35.357,-19.0689 -65.054,-42.1436 -64.753,-50.1397 0.301,-7.9961 -10.359,-15.2858 -22.825,-15.7555 -12.811,-0.4826 -53.686,-30.7805 -89.964,-66.5877 -60.435,-59.6204 -200.71,-132.3227 -259.606,-134.5417 -12.123,-0.4567 -41.702,-17.4999 -65.984,-38.0457 -39.048,-33.0704 -118.051,-66.0962 -222.001,-92.8295 -21.746,-5.5549 -52.353,-15.9209 -69.627,-23.632 -17.191,-7.6219 -79.043,-22.7813 -139.659,-34.1919 -60.699,-11.4998 -136.435,-26.063 -171.043,-33.0495 -34.264,-6.9737 -118.167,-24.1694 -186.513,-38.368 -68.432,-14.202 -222.63,-37.318 -342.73,-51.3141 -120.013,-13.9928 -288.354,-36.5223 -374.027,-50.1685 -88.673,-14.0175 -310.59,-29.0945 -515.546,-35.0083 -918.475,-26.5117 -1650.3498,-39.7935 -1721.7971,-31.1201 -152.6561,18.2706 -2187.1289,-87.1394 -2280.8378,-118.3085 -40.0557,-13.219 -213.5911,-28.1089 -469.9732,-40.2655 -223.5503,-10.5752 -436.8903,-27.051 -473.984,-36.6282 -40.5031,-10.4806 -224.9153,-17.7731 -461.4205,-18.1598 -216.0984,-0.3928 -506.8587,-5.0623 -644.1673,-10.2356 -137.9961,-5.1993 -366.2909,-6.3959 -508.9261,-2.7293 -142.7253,3.7492 -291.1428,0.9126 -331.0847,-6.1889 -40.1096,-7.1938 -139.1322,-7.0501 -222.4084,0.2305 -113.1666,9.9429 -179.9884,7.8558 -271.5099,-8.2493 -131.8094,-23.2145 -182.2505,-25.8899 -1059.8879,-55.3401 -389.4613,-13.0378 -664.28787,-29.2472 -796.98346,-47.1619 -112.22816,-14.991 -237.43486,-30.5572 -280.6687,-34.8552 -42.80961,-4.1099 -187.22212,-19.5385 -319.7927107,-33.9184 -132.6532893,-14.4691 -248.8760493,-26.2526 -257.4901393,-26.1466 -8.6141,0.1059 -114.35492,0.3408 -234.99062,0.5312 -120.54876,0.1937 -430.15278,-16.2067 -687.77757,-36.5036 -562.3012,-44.0885 -931.7305,-58.6101 -1133.9163,-44.3581 -82.0998,5.7752 -276.0307,8.8867 -431.0248,6.9215 -154.994,-1.9651 -302.8725,3.7426 -328.6089,12.6746 -25.9115,9.0114 -85.9617,14.5842 -134.4442,12.4992 -307.4824,-13.3069 -1301.7215,3.4771 -1677.026,28.3407 -82.3447,5.4215 -310.5744,11.6319 -509.6349,13.7753 -369.7819,3.9768 -448.8659,9.6935 -722.4822,52.7672 -88.2573,13.8089 -170.4593,20.0107 -184.6039,13.7951 -13.7213,-6.0275 -60.2081,-1.6657 -101.3557,9.5269 -42.1029,11.4149 -121.4997,23.1469 -177.9244,26.187 -56.5107,3.037 -123.1813,8.3603 -149.3154,11.8528 -60.2269,7.9769 -295.3506,23.4848 -527.5578,34.7115 -100.4035,4.8273 -193.4274,12.6017 -207.4643,17.2389 -13.9511,4.6404 -164.8096,9.4609 -335.5944,10.6893 -366.6349,2.7178 -395.3567,4.0465 -640.1127,28.4043 -212.0016,21.1146 -687.2581,31.9663 -1026.8654,23.476 -125.161,-3.0796 -253.5243,1.1247 -286.2087,9.3643 -33.2925,8.389 -87.7754,42.1544 -124.2945,76.7687 -47.5103,45.2212 -77.1326,61.3253 -110.321,60.0749 -59.4104,-2.2384 -223.3974,53.9203 -234.8144,80.4399 -5.004,11.6933 -32.064,19.1978 -64.908,17.9604 -57.09,-2.151 -126.54,31.2226 -232.916,112.2826 -27.475,20.8345 -64.191,42.3541 -84.954,49.5791 -20.59,7.1456 -36.84,22.5482 -37.323,35.3591 -0.467,12.3809 -16.691,27.0957 -35.662,32.408 -66.303,18.4245 -212.444,151.7133 -257.24,234.5769 -158.366,293.2346 -246.98,481.0404 -285.312,604.8734 -18.626,60.1717 -25.688,94.5182 -60.719,295.2776 -8.911,51.4111 -25.537,124.7456 -36.967,163.0604 -11.448,38.7446 -23.604,93.9941 -27.33,124.3336 -3.716,30.0814 -19.932,94.8213 -36.003,144.3265 -16.158,49.5021 -29.937,108.9954 -30.831,132.7257 -0.885,23.4723 -8.324,49.5388 -16.281,57.3326 -8.135,7.9592 -20.154,59.5975 -27.091,115.7325 -6.855,56.224 -22.438,163.6077 -34.925,241.4032 -12.493,77.8812 -31.388,195.4722 -42.434,264.7118 -31.091,194.4503 -42.305,391.5439 -44.512,781.4989 z m 521.293,-512.8949 c 25.576,-285.7532 103.394,-826.8941 125.431,-872.4724 8.214,-16.9107 28.665,-86.6569 45.357,-154.909 37.818,-153.6433 52.786,-208.0979 89.181,-323.9963 16.048,-51.1422 30.24,-119.3162 31.454,-151.5583 1.238,-32.8441 8.543,-62.1877 16.549,-66.7076 8.005,-4.5201 19.125,-34.5809 25.005,-67.25 17.322,-96.3833 71.949,-257.4007 94.522,-278.3338 11.774,-10.8356 26.064,-38.194 32.193,-61.4687 16.287,-62.0679 75.812,-172.5315 92.577,-171.8998 7.911,0.298 14.43,-10.4774 14.958,-24.492 1.396,-37.057 234.417,-234.4037 336.547,-285.0577 49.483,-24.4826 132.484,-65.6114 181.9715,-90.1799 122.753,-60.9841 236.694,-86.9126 477.1403,-108.8498 89.5911,-8.0759 116.2797,-17.1443 143.556,-48.6627 25.0197,-28.7622 47.664,-37.8969 88.3127,-35.8487 29.9046,1.5572 108.1823,-3.3288 172.692,-10.7138 64.9428,-7.4548 188.3304,-9.8662 274.3502,-5.4199 196.9603,10.1761 541.1977,-5.9564 563.3238,-26.4758 8.922,-8.274 65.5168,-13.5463 126.4921,-11.6795 60.3735,1.8441 177.8675,-1.8225 259.56,-8.2158 82.4664,-6.364 222.8226,-11.2359 313.6438,-10.8275 90.8246,0.3223 224.2635,-3.7768 297.9974,-9.1783 73.2181,-5.4211 243.227,-13.4807 376.5929,-17.927 133.28,-4.4496 284.0765,-16.7632 333.8982,-27.3708 49.9076,-10.6043 150.9746,-17.0425 224.4867,-14.2728 73.5122,2.7697 149.5706,-2.6303 168.8683,-12.0631 54.6469,-26.6989 263.3942,-48.2806 695.0474,-71.8822 43.1386,-2.3352 205.4129,-6.2091 360.5689,-8.5429 155.156,-2.3338 352.7579,-9.1816 439.09,-15.3139 341.0865,-23.9142 525.8889,-29.2638 1121.2112,-32.0617 339.9004,-1.5726 661.184,-2.6411 712.7501,-2.4203 51.7415,0.1413 221.113,-6.9952 376.5152,-15.8635 467.1654,-26.913 2025.20437,42.8959 2924.13505,131.0944 155.09984,15.1426 455.93925,37.9287 671.65165,50.8777 215.6287,12.8597 417.0144,31.296 449.5332,41.1313 41.7959,12.7679 75.0952,13.3337 115.0396,2.0958 31.6781,-8.9665 77.2119,-10.8671 104.3452,-4.3344 53.0751,12.7623 1047.5427,51.6083 1488.998,58.0809 279.0688,4.1429 574.5584,6.6659 1135.2203,9.7086 351.1336,1.9503 1014.4543,54.5805 1577.302,125.2949 64.5305,8.0278 190.3374,19.1393 280.963,24.7063 90.4525,5.6466 307.8588,19.3482 484.4565,30.6513 503.0776,32.3 998.2166,49.061 1329.6923,44.8463 797.6724,-9.9833 2079.7835,27.1293 2393.8395,69.3555 394.326,52.9998 587.285,89.372 871.008,164.2932 80.646,21.3779 177.55,45.4349 214.195,53.1871 37.238,8.0328 87.27,30.6682 113.186,51.2757 25.742,20.6009 97.721,66.3634 162.114,103.23 64.392,36.8665 139.338,86.0987 168.881,110.9757 72.852,61.4658 243.587,251.2077 243.298,270.3113 -0.149,8.6046 23.188,35.8307 52.043,60.6818 33.776,29.0832 77.423,100.0391 123.236,200.4371 39.289,86.1177 81.594,176.7401 94.886,203.3295 13.701,27.1215 23.719,58.3232 23.2,72.0798 -0.492,13.0687 9.016,39.5155 20.577,57.1716 11.883,18.2705 26.533,91.0613 32.935,163.3692 6.401,72.3077 17.26,138.326 24.295,148.1481 12.434,17.3444 39.547,170.6788 47.614,269.6546 2.107,26.3403 10.09,81.8318 18.071,125.958 7.838,43.3458 18.934,121.3411 24.728,173.22 10.817,96.8408 25.508,193.6554 50.302,330.8875 14.749,81.5769 21.215,133.9117 52.699,424.9142 10.336,95.8757 24.67,197.5846 32.126,228.2592 18.691,77.5063 18.03,79.0312 -35.621,77.0098 -31.296,-1.1791 -60.474,-17.4322 -87.449,-48.7561 -24.341,-28.1251 -62.314,-50.9088 -94.983,-56.7892 -30.016,-5.436 -84.473,-22.6415 -121.512,-38.2436 -58.139,-24.5769 -97.637,-27.4425 -296.843,-21.4302 -191.28,5.8807 -237.147,2.9471 -274.18,-17.3905 -24.131,-13.1354 -78.936,-25.6186 -119.605,-27.1509 -40.668,-1.5322 -79.347,-10.1359 -84.357,-18.8486 -13.418,-23.2364 -72.366,-21.7549 -140.652,3.5691 -32.748,12.1979 -94.678,19.6801 -140.042,17.1099 -221.909,-13.0102 -885.931,-15.0394 -939.683,-2.944 -36.21,8.1068 -200.793,6.9858 -399.324,-2.6467 -404.961,-19.821 -1020.7683,-24.0803 -1097.6708,-7.6911 -30.2961,6.5215 -136.9218,16.5387 -235.8092,22.2841 -98.8895,5.7453 -233.9382,18.3079 -298.7041,27.9219 -86.3237,12.7622 -349.7527,11.7056 -978.8188,-3.9882 -474.1445,-11.8371 -934.4837,-22.1209 -1025.1167,-22.9526 -90.2032,-0.8155 -498.4314,-11.6329 -905.1403,-23.9428 -605.5469,-18.3378 -743.3012,-18.534 -754.209,-0.9499 -10.4509,16.8265 -17.8738,17.3218 -34.5286,2.3154 -26.813,-24.1714 -647.9526,-56.0119 -1114.6614,-57.2367 -180.6237,-0.4338 -522.9483,-5.3241 -759.2633,-10.7835 -236.314,-5.4596 -578.6909,-11.299 -759.1833,-12.9332 -181.18,-1.6602 -529.1967,-6.3345 -774.9469,-10.4275 -245.7501,-4.0929 -585.25899,-3.7971 -755.81619,0.5394 -170.90196,4.3237 -326.04983,4.1609 -346.10872,-0.4694 -19.97395,-4.6271 -109.55024,-3.783 -197.50322,1.9438 -87.863791,5.644 -176.308392,3.8616 -194.783219,-3.981 -43.055041,-18.1536 -935.269551,3.3354 -1153.944951,27.9011 -91.2197,10.1671 -221.2127,18.7871 -290.4533,19.1919 -206.8618,1.2469 -513.7534,20.2501 -568.3864,35.1536 -28.538,7.8793 -129.0258,14.9421 -221.4369,15.5931 -455.9505,3.4855 -669.71,9.5523 -779.2771,22.214 -52.0575,5.9599 -252.5323,9.0832 -446.6988,7.0198 -194.1631,-2.1494 -454.4079,1.3912 -579.8427,7.8584 -125.5238,6.5499 -318.7701,9.7734 -431.0376,7.2655 -112.6113,-2.5208 -252.2019,0.3134 -312.6951,6.2138 -59.8052,5.9263 -180.4026,7.4096 -266.4353,3.3073 -85.9466,-4.0991 -196.3676,-0.7687 -243.7675,7.2609 -47.575,8.1092 -202.457,10.0227 -343.1884,4.29 -140.8175,-5.7365 -296.2495,-5.2207 -344.7055,1.1333 -48.2841,6.3604 -211.8838,11.1313 -362.1976,10.634 -150.3998,-0.5005 -304.7137,4.6203 -341.9065,11.3986 -37.6226,6.7621 -239.7202,2.6779 -453.9203,-9.267 -212.5665,-11.8833 -431.9638,-18.4275 -488.077,-14.5146 -56.1991,3.9097 -182.5153,-0.505 -280.8368,-9.8066 -132.6417,-12.4883 -187.1637,-11.9595 -211.5468,2.1896 -24.9151,14.5594 -60.8171,14.4982 -149.5497,-0.2102 -169.6737,-28.2624 -362.8268,-41.2225 -393.7799,-26.3738 -14.9048,7.1013 -352.5537,3.7649 -751.5532,-7.4796 -901.2059,-25.5167 -1156.3919,-21.4411 -1360.3529,21.6738 -78.979,16.6555 -194.789,9.8813 -215.723,-12.691 -21.098,-22.7507 -13.289,-257.4264 21.415,-646.0708 z m 36.936,1094.7036 c 21.743,-10.374 69.551,-17.7855 105.489,-16.4315 36.026,1.3573 117.628,-2.6285 180.458,-8.8713 63.433,-6.2203 194.676,-11.4353 293.356,-11.6781 98.678,-0.1567 185.1,-6.3717 193.215,-13.815 8.743,-8.1086 222.486,-2.294 533.5355,14.5913 286.0461,15.513 659.4874,30.9606 832.0717,34.5356 172.0746,3.3835 393.8665,10.3623 492.7798,15.3805 98.4834,5.002 218.6238,11.0783 265.8004,13.5447 162.5054,8.2752 1368.7014,35.5534 1486.7325,33.6289 680.1846,-11.0521 1345.9788,-17.2218 1864.566,-17.228 219.2997,0 466.6333,-1.3611 548.4056,-3.0156 81.8583,-1.6516 233.4568,-3.2583 336.8763,-3.5808 383.8015,-1.2961 820.4699,-9.4689 979.6585,-18.2806 90.8566,-5.1008 266.7089,-12.8541 392.2346,-17.1653 296.8358,-10.3415 644.9258,-30.4617 965.4064,-55.927 78.0684,-6.1854 229.2319,-14.5247 337.4466,-18.7131 108.2114,-4.1026 224.35534,-13.0723 259.22676,-19.9381 34.69925,-6.8722 189.98802,-12.7313 345.05967,-12.8296 155.07813,-0.2704 289.97408,-6.4671 299.72068,-13.763 9.75208,-7.4677 94.29808,-9.6206 188.05941,-4.9686 171.61919,8.6185 930.07629,11.1061 1220.07308,4.0372 230.1019,-5.6235 1155.6345,9.5305 2064.7193,33.8801 480.3899,12.8474 802.6464,15.6902 811.9282,6.999 9.9887,-9.1808 34.7414,-7.9898 70.2987,3.5096 30.2026,9.6619 91.1404,14.7991 135.0977,11.2892 44.0443,-3.5066 288.2054,1.6458 541.489,11.4471 961.9838,37.1917 1289.2853,47.8016 1775.6365,57.8595 275.311,5.6372 920.1062,24.3345 1431.6762,41.4563 511.5711,17.1217 940.201,25.7803 951.6373,19.323 60.88,-34.4713 301.5514,-64.6657 546.1386,-68.5379 147.2326,-2.2879 326.0163,-7.8644 399.8077,-12.4889 73.0954,-4.4785 200.5463,-0.4515 281.6393,9.0615 81.093,9.5129 204.87,17.362 273.405,17.3612 69.568,0.038 201.991,2.3581 297.456,5.1801 228.429,6.7984 228.429,6.7984 415.044,1.3447 90.678,-2.6106 261.593,-0.4761 380.47,4.8637 193.828,8.7665 220.262,13.2927 259.802,44.7456 54.673,43.4745 171.923,53.1442 307.632,25.3667 53.71,-10.9777 100.936,-16.6891 104.66,-12.6742 3.723,4.0148 40.046,-2.538 79.662,-14.2188 45.366,-13.4446 148.798,-20.9991 274.13,-20.1515 111.133,0.6569 215.12,-5.585 232.315,-14.0641 16.752,-8.1511 59.337,-16.3621 92.274,-17.618 l 61.223,-2.429 0.05,62.6835 c 0.568,282.0027 6.007,507.8785 14.633,598.8681 34.84,371.0307 47.08,478.0851 63.028,550.6665 9.621,44.0157 13.234,121.8151 7.906,171.8114 -5.353,50.684 0.128,154.298 12.402,233.0263 12.27,78.8144 22.612,183.6447 23.315,235.8484 1.833,141.0166 9.73,271.9296 23.166,381.5259 12.178,99.5611 -25.47,1357.02711 -69.985,2337.4192 -13.112,290.8723 -20.01,535.7423 -15.179,544.5343 4.836,8.7924 5.208,204.6002 0.844,434.6702 -4.367,230.156 -4.631,499.9869 -0.705,599.1511 16.842,421.4103 -0.106,1357.9832 -41.907,2316.6071 -12.18,279.8869 -21.972,532.9136 -21.815,563.0539 1.308,246.3849 -5.287,375.7183 -32.932,640.9876 -17.398,166.9843 -38.7,378.163 -47.254,468.0747 -8.58,90.5992 -22.57,171.696 -31.115,181.3611 -8.451,9.4966 -21.954,111.9659 -29.693,225.9303 -7.658,114.1406 -19.196,226.1536 -25.334,247.3605 -17.706,60.8956 -115.109,733.3771 -116.243,802.3013 -1.278,81.921 -36.806,282.1453 -74.55,420.1211 -16.569,60.421 -28.802,131.4238 -27.735,160.2224 1.088,28.282 -8.856,65.9643 -21.897,83.0374 -12.858,16.7358 -20.665,41.1521 -16.877,52.5749 3.858,11.8536 -3.088,47.6695 -15.588,80.0899 -12.416,32.4215 -21.248,70.3178 -19.636,84.6707 1.626,14.0111 -9.195,52.0908 -23.443,82.8942 -14.617,31.4789 -27.428,83.5185 -28.665,116.3622 -1.237,32.8427 -13.044,67.4417 -26.419,77.3562 -13.375,9.9145 -24.652,30.4124 -25.241,46.0603 -0.574,15.2192 -17.23,61.9462 -36.302,101.9546 -57.302,120.0166 -84.539,196.2242 -86.23,241.1053 -0.885,23.4714 -9.421,46.6564 -19.188,52.2296 -16.627,9.3607 -85.879,138.0566 -125.815,233.6728 -29.71,70.9479 -141.276,216.6469 -180.114,235.0719 -32.261,15.317 -83.434,52.649 -230.268,167.746 -116.579,91.352 -164.284,118.915 -317.037,183.16 -77.951,32.794 -152.468,65.805 -165.671,73.488 -13.295,7.764 -87.048,43.387 -165.142,79.965 -113.15,52.908 -165.631,67.806 -265.196,75.507 -168.129,13.038 -233.186,23.502 -243.507,39.214 -5.017,7.474 -36.471,12.746 -69.314,11.509 -32.844,-1.238 -80.503,6.783 -104.851,17.747 -94.154,42.344 -231.095,63.962 -449.106,70.902 -123.8763,3.943 -275.4497,11.751 -335.8416,17.224 -60.39,5.474 -360.28,0.89 -665.2638,-10.169 -305.0696,-11.068 -576.5258,-20.769 -602.2387,-21.576 -87.5538,-2.609 -375.9192,0.04 -681.6401,6.262 -167.6855,3.498 -405.1895,2.212 -526.2314,-2.779 -121.9025,-5.018 -275.9826,-3.854 -344.5925,2.687 -68.5218,6.46 -240.1016,10.5 -382.6283,9.004 -142.4441,-1.405 -307.6614,2.874 -368.4446,9.624 -60.5264,6.76 -180.594,12.483 -266.7026,12.682 -86.7101,0.178 -261.7132,3.657 -391.8813,7.794 -393.6008,12.292 -885.168,17.277 -1049.8805,10.469 -85.9701,-3.502 -202.3708,-1.427 -258.5649,4.637 -56.1081,6.065 -255.7063,8.791 -441.9272,6.08 -186.3069,-2.715 -391.4871,-2.697 -454.2741,0.104 -63.5604,2.772 -191.4631,8.458 -287.1952,12.686 -95.0403,4.167 -316.7994,12.344 -494.0427,18.151 -177.1606,5.896 -356.9023,16.343 -400.3017,23.319 -43.3125,6.978 -247.8423,10.293 -454.4625,7.416 -510.39892,-7.09 -550.53673,-6.709 -564.18286,5.866 -7.14046,6.704 -52.06028,10.608 -100.55287,8.781 -48.40566,-1.824 -220.93176,2.18 -385.64043,8.977 -202.3931,8.303 -393.344979,5.5 -594.8861,-8.81 -645.15734,-45.66 -1233.56314,-52.762 -1382.49854,-16.7 -44.6663,10.888 -126.7125,17.526 -179.9011,14.661 -53.9624,-2.898 -171.4906,-0.607 -262.5387,5.004 -91.0512,5.695 -234.6798,3.729 -320.9106,-4.256 -87.4313,-8.116 -179.0296,-8.468 -208.3351,-0.789 -36.3506,9.565 -63.3286,8.032 -89.0158,-4.904 -26.3623,-13.306 -49.6626,-14.184 -81.3363,-3.065 -26.3479,9.168 -229.2497,12.717 -498.505,8.599 -250.4097,-3.838 -459.7294,-3.631 -466.7695,0.408 -7.0436,4.127 -74.079,12.278 -149.4757,18.391 -160.0286,12.827 -570.1115,-1.332 -2294.8846,-79.145 -697.3538,-31.44 -1308.6782,-58.692 -1360.4376,-60.642 -51.4155,-1.937 -202.6811,-22.876 -334.9975,-46.287 -132.2271,-23.494 -272.7845,-47.559 -311.2305,-53.228 -38.9553,-5.858 -76.8887,-15.983 -85.3265,-22.845 -8.1894,-6.594 -47.0867,-18.565 -84.35,-25.909 -37.3526,-7.261 -76.2401,-19.489 -84.4134,-26.513 -15.2644,-13.061 -135.8027,-54.281 -256.7219,-87.68 -30.0784,-8.366 -84.9294,-31.097 -123.3437,-51.315 -38.4175,-20.13 -90.989,-37.093 -118.4163,-38.126 -26.5676,-1.001 -69.0124,-12.502 -92.2194,-25 -182.7012,-98.409 -310.7308,-162.47 -325.9492,-163.044 -9.0277,-0.34 -21.1353,-14.917 -25.4466,-30.749 -4.626,-16.62 -26.6963,-38.719 -49.796,-49.491 -37.3111,-17.506 -97.6065,-71.697 -248.5019,-223.582 -64.8708,-65.299 -161.9097,-193.1988 -161.1808,-212.5431 0.3304,-8.7698 -9.9961,-24.916 -23.6659,-36.8821 -13.2527,-11.6062 -53.1935,-85.0051 -87.849,-161.5631 -34.7448,-76.4764 -68.6697,-140.4359 -74.5958,-140.8313 -22.0839,-1.1703 -79.6321,-107.6985 -78.3891,-145.2783 1.661,-53.2343 -28.928,-148.5805 -59.565,-185.5532 -13.918,-16.798 -24.624,-52.5884 -23.623,-79.1556 1.001,-26.5681 -5.064,-52.9712 -13.468,-58.4545 -8.4,-5.5692 -14.673,-26.4682 -13.909,-46.7598 0.765,-20.2906 -13.534,-104.6918 -31.991,-188.3891 -18.459,-83.6972 -32.701,-171.885 -31.755,-196.9912 0.962,-25.5348 -7.61,-69.9421 -19.672,-101.7368 -12.062,-31.7956 -19.843,-78.928 -17.802,-107.9528 10.999,-159.3899 9.141,-382.0307 -3.25,-407.3811 -20.392,-41.4942 -51.66,-310.7914 -39.857,-342.9778 5.369,-14.5222 2.371,-46.9231 -6.575,-72.3149 -9.03,-25.396 -15.454,-133.6946 -14.399,-241.7114 0.974,-108.107 -0.73,-227.4218 -3.908,-266.4581 -14.804,-180.6815 -21.451,-433.8973 -15.996,-608.3916 3.319,-106.3815 -0.419,-205.9688 -8.484,-222.7184 -7.9,-16.5701 -13.116,-67.8249 -11.406,-113.2217 1.708,-45.3108 3.351,-93.4671 3.578,-106.3727 0.957,-52.8294 -17.952,-298.2423 -30.234,-392.7278 -7.423,-56.6756 -15.968,-133.8 -19.312,-173.0157 -3.255,-39.2984 -7.9,-91.9957 -10.341,-118.6064 -2.521,-26.7849 -7.964,-65.1341 -12.405,-86.6535 -4.369,-21.1745 -10.338,-148.3975 -13.154,-281.617 -8.666,-407.5842 -22.312,-680.6946 -35.691,-714.089 -6.921,-17.3949 -18.298,-99.3614 -25.122,-181.0702 -6.822,-81.7088 -16.79,-191.9493 -22.164,-243.5542 -5.358,-52.0346 -16.262,-210.5265 -24.225,-353.4106 -8.051,-142.8004 -19.909,-294.2682 -26.451,-337.7384 -6.615,-43.8161 -9.805,-135.1169 -7.155,-205.448 2.653,-70.4171 -1.814,-146.0959 -10.027,-170.3413 -8.217,-24.1595 -15.783,-118.123 -17.122,-210.56 -1.253,-92.4337 -10.728,-195.1642 -21.288,-230.2617 -17.201,-57.6465 -28.041,-295.5223 -27.608,-604.092 0.186,-153.5113 -25.357,-501.6333 -45.027,-612.5838 -29.322,-165.55791 -39.547,-259.7935 -38.98,-361.71579 0.232,-56.38758 -4.119,-110.02021 -9.765,-120.13456 -5.729,-10.20363 -11.967,-66.31827 -14.114,-125.89499 -2.079,-59.05758 -7.411,-178.07811 -11.909,-264.34863 -4.496,-86.3566 -7.623,-181.616157 -6.919,-211.724895 0.698,-29.93706 -4.188,-108.21473 -10.713,-172.692115 -6.595,-64.91031 -21.517,-231.045 -33.097,-369.32923 -11.579,-138.28413 -23.941,-274.10082 -27.375,-301.78255 -21.12,-168.4346 -28.081,-260.22234 -26.58,-350.31374 0.918,-56.3617 -4.689,-108.664 -12.635,-117.143 -7.859,-8.4758 -12.723,-57.6504 -10.776,-109.3239 1.944,-51.5874 -4.797,-133.207 -15.033,-181.465 -10.391,-48.6942 -23.949,-150.4598 -30.718,-229.0669 -12.029,-142.3479 -15.737,-219.8924 -26.589,-564.8781 -8.215,-261.8846 -39.217,-638.7979 -55.255,-672.4651 -6.938,-14.6402 -12.465,-57.6407 -11.971,-93.6123 0.498,-36.0576 -2.886,-87.9319 -7.449,-113.0732 -4.64,-25.4024 -7.018,-85.6767 -5.249,-132.6213 2.886,-76.6073 7.622,-88.0525 43.21,-104.7929" />
        <g
           id="g4150">
          <path
             d="m 8342.857,-5458.1409 c 3.3656,70.6436 14.9406,140.4772 25.55,153.7059 10.9351,13.6716 15.2266,46.0352 9.7834,73.9852 -11.7592,60.6886 -4.194,90.6785 23.1496,91.7087 23.4724,0.8844 41.9769,44.46 27.761,65.2775 -6.1033,8.8968 -4.5807,23.333 3.6917,34.5796 7.8622,10.7144 18.387,39.8687 23.55,65.1186 10.5257,51.9712 88.1125,156.8382 235.7791,319.0196 78.2102,86.0343 110.3447,110.6646 145.6806,111.9959 24.6775,0.9298 77.6876,17.6503 116.1544,36.492 78.196,38.4198 218.3101,67.3767 461.6073,95.4856 176.1673,20.4136 365.3925,57.6783 528.6051,104.2952 226.2548,64.4902 868.4178,77.6638 961.0118,19.5902 17.635,-11.0453 45.769,-19.6287 62.536,-18.997 16.938,0.6382 60.482,-23.8959 97.646,-55.0418 36.539,-30.5669 109.081,-88.8795 159.112,-127.8925 50.03,-39.0131 92.432,-83.4796 92.963,-97.5802 0.528,-14.0145 34.575,-65.2535 74.662,-112.3042 75.038,-88.0094 129.351,-199.5304 116.176,-238.3418 -4.349,-12.5625 3.134,-37.5081 17.226,-57.297 35.387,-50.2414 50.086,-125.0261 62.468,-318.8036 25.372,-396.9174 25.566,-562.0519 0.868,-676.6361 -8.586,-39.4994 -19.644,-102.5115 -24.962,-141.8879 -12.517,-92.8581 -104.94,-276.9804 -160.497,-319.7995 -24.346,-18.8262 -47.512,-46.1321 -51.688,-61.0127 -6.372,-22.7986 -175.307,-150.6522 -200.328,-151.5949 -5.159,-0.1943 -74.732,-32.0901 -154.723,-70.8358 -132.332,-64.1373 -150.054,-69.1101 -196.929,-54.4309 -28.402,8.8316 -108.582,13.9042 -178.912,11.2543 -90.709,-3.4176 -150.889,3.3556 -208.475,23.4862 -44.411,15.547 -109.17,27.2277 -143.475,25.9352 -34.477,-1.299 -81.953,6.4694 -105.608,17.288 -79.728,36.5165 -161.122,39.563 -194.5168,7.2223 -30.6532,-29.6544 -42.6291,-31.7416 -347.0714,-59.485 -112.4086,-10.1762 -130.7533,-7.7677 -183.3799,24.776 -33.589,20.7764 -94.7291,39.3094 -143.4462,43.4148 -88.7108,7.5925 -214.7098,45.0349 -326.2798,97.1414 -97.2805,45.3263 -289.9469,197.6987 -320.4578,253.3759 -14.3307,26.1513 -43.3343,64.6651 -64.3456,85.3127 -21.0145,20.7335 -54.9097,79.3828 -75.3392,130.2738 -20.5187,50.9736 -48.6187,115.7822 -62.6008,144.0993 -13.981,28.3172 -36.6789,105.1252 -50.3299,170.3922 -13.653,65.2668 -33.4691,143.3027 -44.1461,173.0359 -10.4073,29.3988 -18.1431,54.1628 -16.853,54.2114 1.2901,0.049 5.0995,58.913 8.3825,129.4675 z m 471.2495,-9.6251 c 7.0364,-13.0806 10.0739,-43.4459 6.8651,-70.2582 -7.5855,-63.7422 85.7088,-291.2366 194.2608,-473.4694 22.1554,-37.3081 102.7597,-103.927 263.6877,-218.3192 25.7449,-18.3167 57.5443,-32.7889 70.8728,-32.2867 14.099,0.5312 28.0766,-4.7971 33.3718,-12.7772 5.1116,-7.7287 30.4648,-17.8806 57.2587,-22.8982 26.2782,-5.037 109.9888,-30.7269 184.5804,-56.5882 139.677,-48.5506 195.311,-46.6267 213.3428,7.2632 4.3287,13.0782 36.9281,43.667 72.0951,67.8087 48.8506,33.4396 77.614,42.4447 120.7503,37.8707 77.022,-8.119 193.587,-28.2662 222.295,-38.3777 13.002,-4.59 62.994,-10.5417 110.096,-12.986 47.108,-2.5302 122.148,-10.6377 165.213,-17.8836 116.635,-19.7139 271.876,-19.7198 368.085,-0.08 242.745,49.6133 276.269,117.3465 285.57,576.6158 4.091,202.2334 -42.005,443.0435 -110.74,578.5601 -17.115,33.7954 -42.061,85.7217 -55.317,115.3577 -33.757,75.5303 -202.055,246.1272 -278.318,282.0855 -117.992,55.7391 -661.646,62.8944 -720.853,9.5196 -16.323,-14.6494 -54.7574,-22.8994 -104.8919,-22.2915 -43.8481,0.5866 -87.9064,-6.9282 -98.8174,-16.7243 -17.9877,-16.1759 -134.8216,-39.1757 -388.7056,-76.4658 -68.5883,-10.075 -145.4307,-27.2629 -170.8528,-38.1224 -27.2032,-11.5293 -76.1688,-16.8181 -118.6009,-12.6481 -83.3108,8.2266 -168.5429,-24.0008 -221.9913,-83.9607 -111.3604,-124.8233 -160.3312,-356.2138 -99.2566,-468.944"
             style="fill:#000000;fill-opacity:1;fill-rule:nonzero;stroke:none"
             id="path2124"
             inkscape:connector-curvature="0" />
          <path
             d="m 9306.5724,-5261.2527 c 7.8671,12.8672 14.1458,40.4839 13.4396,59.2273 -0.7191,19.0873 15.4498,46.9907 35.3317,60.9132 19.7982,13.8332 39.7584,39.3824 43.4516,55.6225 7.8178,34.7349 139.9701,105.9258 174.8509,94.2387 10.9878,-3.7189 21.0795,-17.8897 21.5524,-30.4426 0.473,-12.553 21.5702,-33.1973 45.5026,-44.522 24.3652,-11.3944 74.6845,-51.1716 110.6636,-87.4421 82.4252,-82.9957 197.239,-161.7575 233.866,-160.3775 15.4762,0.5831 46.8062,23.7194 69.3602,51.2605 22.557,27.4551 58.874,59.906 80.292,71.906 21.673,12.0958 92.684,76.678 159.005,144.6136 105.621,108.0758 127.011,123.0882 179.346,125.749 48.035,2.499 74.737,-9.1523 139.354,-60.531 74.29,-59.0216 80.082,-68.7911 82.683,-137.8322 2.355,-62.5068 -2.778,-77.079 -32.521,-92.062 -19.859,-9.961 -47.671,-46.4826 -63.426,-83.0665 -22.409,-51.9883 -48.002,-76.5443 -126.242,-120.6484 -53.707,-30.2647 -107.734,-65.7075 -119.235,-78.1089 -37.898,-40.776 -14.932,-60.7473 225.049,-196.0111 75.391,-42.5346 142.717,-156.6651 146.798,-248.984 3.311,-76.5913 0.07,-84.204 -55.64,-132.0229 -52.546,-45.1163 -71.676,-51.5198 -170.127,-57.3817 -82.906,-4.8456 -118.552,-0.2476 -140.945,18.1953 -16.086,13.3424 -36.309,24.4624 -43.961,24.1741 -7.824,-0.2948 -45.458,29.6281 -84.763,67.3231 -40.825,39.1878 -95.069,73.4787 -128.343,81.3517 -31.62,7.4188 -79.444,26.7118 -105.7967,42.8531 -57.722,35.193 -122.7525,35.8424 -155.129,1.6459 -12.0071,-12.6787 -28.0246,-24.0448 -34.3011,-24.2813 -6.5344,-0.2462 -42.0874,-27.8467 -79.8885,-62.0753 -107.5856,-97.0427 -174.6613,-135.8185 -257.5264,-148.584 -114.535,-17.747 -148.079,24.7285 -126.5806,160.2868 7.52,47.2085 95.5912,161.7693 125.3401,162.8902 8.7688,0.3303 15.1448,13.9162 14.4969,31.112 -0.6479,17.1958 11.0695,39.8514 26.975,51.9021 15.7359,11.9583 35.2162,36.5421 44.1401,55.6486 14.3358,30.8477 2.1233,46.4884 -120.9667,155.2459 -118.2779,104.4617 -137.2433,127.9415 -138.9246,172.5647 -1.0625,28.2011 4.7906,62.5177 12.8189,75.6492"
             style="fill:#000000;fill-opacity:1;fill-rule:nonzero;stroke:none"
             id="path2130"
             inkscape:connector-curvature="0" />
        </g>
      </g>
      <path
         d="m -1611.3177,462.67966 c 11.395,11.14846 23.2185,13.89517 33.9281,7.879 5.7404,-3.1744 6.2545,-4.07731 7.711,-14.28484 0.8568,-5.94964 1.3708,-16.77494 1.1138,-23.85559 -0.6854,-23.69402 5.9974,-64.00139 12.509,-75.0453 1.1137,-1.95786 2.5703,-6.5674 3.0843,-10.02693 0.5998,-3.45954 2.399,-7.74594 4.0269,-9.33316 1.5422,-1.54918 2.9129,-4.33392 2.9129,-5.8831 0,-1.5872 1.371,-4.83765 2.9131,-7.09014 1.5422,-2.30002 4.5409,-7.60337 6.6829,-11.92779 3.5127,-7.02362 18.1636,-25.53785 34.9564,-44.14709 8.3107,-9.12405 16.2787,-13.38194 21.248,-11.29101 6.5115,2.73721 19.9629,23.79856 19.9629,31.23085 0,1.51118 1.0281,4.4955 2.3989,6.56742 4.3696,6.89055 7.968,30.95523 9.853,65.3605 1.2851,23.85558 2.6559,28.27503 11.138,34.82344 4.3695,3.44053 17.3925,7.38478 25.5319,7.73644 8.0537,0.35165 13.1087,-3.65913 17.9922,-14.1993 4.1126,-8.81991 7.6253,-25.97502 6.7686,-32.50442 -0.5998,-4.32441 0.086,-6.70998 3.2557,-10.89183 2.2276,-2.94631 4.1126,-7.08065 4.1126,-9.17157 0,-2.07192 2.4845,-10.45464 5.569,-18.40967 3.0843,-7.95503 6.3401,-16.97452 7.2826,-19.79728 0.9425,-2.94631 3.5128,-7.2137 6.0831,-9.85587 2.4847,-2.62317 4.3696,-6.26328 4.3696,-8.29718 0,-2.01492 3.0843,-7.26124 6.8542,-11.76623 3.6841,-4.4955 7.1968,-9.47571 7.7109,-11.14844 0.5141,-1.72977 1.6278,-3.02234 2.5704,-3.02234 0.9424,0 1.6278,-1.12151 1.6278,-2.6802 0,-1.45414 1.7135,-4.56202 3.6842,-6.78601 7.1883,-7.83147 12.1404,-2.81324 18.2578,18.4572 1.6365,5.70253 4.3439,13.24887 6.0145,16.77494 3.8555,8.1166 6.3146,16.87948 6.3146,22.46797 0,2.46159 2.0219,7.78395 4.4637,11.76622 4.2496,6.90956 7.1969,22.99069 6.7428,36.81933 -0.077,2.38556 0.9853,7.4418 2.3562,11.24349 1.8506,5.14176 2.6302,14.77905 3.0415,37.60819 0.3941,22.30639 1.1824,32.38087 2.8788,36.91437 1.3023,3.45003 1.9534,6.90957 1.4822,7.77446 -2.1248,3.8492 4.4467,13.37243 12.2348,17.75387 12.6288,7.09014 25.1892,5.31285 31.4093,-4.43847 3.0243,-4.74261 3.1701,-14.00921 0.3084,-19.18902 -1.3194,-2.39506 -3.3842,-19.54067 -5.5605,-46.16198 -3.1186,-38.21645 -4.6608,-49.26035 -9.6729,-69.16217 -0.8225,-3.27897 -2.2019,-8.991 -2.9987,-12.45052 -0.7969,-3.45956 -2.9131,-9.01951 -4.601,-12.1084 -1.6963,-3.10788 -3.1186,-7.39427 -3.1186,-9.41866 0,-2.09093 -1.0195,-6.39635 -2.339,-9.85587 -1.3108,-3.45955 -2.339,-7.6509 -2.339,-9.59927 0,-1.88184 -1.7649,-7.77444 -3.8897,-12.96375 -2.1248,-5.1893 -3.8983,-10.30257 -3.8983,-11.24349 0,-0.93141 -1.7907,-4.66657 -3.8984,-8.1166 -2.1077,-3.45952 -3.8983,-8.06909 -3.8983,-10.03645 0,-9.50422 -20.1856,-30.77464 -27.5881,-29.06389 -1.2681,0.29463 -4.8322,-0.76034 -7.7881,-2.30953 -7.2654,-3.78269 -14.1711,-2.262 -24.4524,5.41741 -17.4782,13.01127 -22.7902,18.37164 -22.7902,23.01921 0,1.71076 -2.8274,5.60749 -6.2545,8.64884 -3.4271,3.04135 -6.1687,6.38683 -6.1687,7.43229 0,1.02645 -1.1995,3.374 -2.5703,5.10376 -1.4566,1.79629 -3.3415,4.66657 -4.2839,6.56742 -0.9425,1.83431 -4.6267,8.72486 -8.1394,15.12122 -3.5128,6.40584 -6.9399,13.73358 -7.6253,16.09062 -1.7993,6.39635 -7.3683,13.99022 -9.8529,13.44848 -1.1995,-0.26612 -3.9412,-5.15128 -6.0832,-10.86332 -2.1419,-5.70254 -5.1406,-11.9278 -6.6827,-13.82864 -1.5422,-1.91986 -4.3696,-6.91907 -6.3403,-11.2435 -4.0267,-8.81039 -9.4244,-17.80138 -11.3093,-18.7328 -0.5997,-0.34215 -3.5128,-3.393 -6.1688,-6.68146 -11.7378,-14.27533 -39.3259,-21.30846 -54.9193,-13.99022 -3.4271,1.60622 -7.9679,3.32649 -10.1099,3.8207 -5.7404,1.31159 -19.0203,11.44308 -19.8771,15.18774 -0.3428,1.72977 -1.2852,3.10788 -2.0564,3.10788 -2.5703,0 -27.7595,29.7387 -31.615,37.35158 -2.1418,4.33392 -5.312,2.59463 -7.7966,-4.32443 -4.1982,-11.58563 -19.1917,-19.26504 -29.473,-15.14021 -8.0536,3.20291 -9.1675,5.79758 -7.968,18.42868 1.628,16.07162 1.0281,63.38361 -0.9424,79.18913 -0.9425,7.32774 -2.1419,32.33333 -2.6561,55.66621 l -0.9423,42.36029 5.312,5.19879"
         style="fill:#000000;fill-opacity:1;fill-rule:nonzero;stroke:none"
         id="path842"
         inkscape:connector-curvature="0" />
      <path
         d="m -1391.7265,676.63858 c 1.7136,1.18803 3.0843,3.47855 3.0843,5.09427 0,1.66324 2.142,5.62648 4.8837,9.07653 4.7122,6.02566 5.055,6.13971 17.0499,6.13971 9.6815,0 13.4513,-0.78884 18.1636,-3.75416 24.7865,-15.71996 61.7221,-29.14943 79.8,-29.00687 l 10.2898,0.0855 6.2375,8.991 6.2287,8.99099 0,25.68038 c 0,22.12582 -0.3513,25.87999 -2.5704,27.22958 -1.4393,0.86489 -3.35,4.14384 -4.3353,7.43229 -1.5421,5.14179 -6.8027,11.34804 -24.2638,28.5982 -2.9816,2.94633 -6.8542,3.7732 -29.6188,6.32028 -4.3609,0.48477 -8.8161,1.33058 -10.127,1.91036 -1.2937,0.57028 -5.9974,1.92936 -10.5212,3.02234 -6.897,1.67276 -8.5249,1.56824 -10.1528,-0.59878 -2.2276,-2.90826 -4.2839,-30.95521 -2.656,-34.7569 0.6855,-1.42562 0.2571,-8.64884 -0.9425,-16.08113 -2.8273,-17.81089 -6.597,-21.92622 -20.1342,-21.80267 -11.8234,0.10458 -23.8183,2.262 -26.0459,4.68558 -2.3133,2.56613 -1.7135,29.39654 1.1995,53.08108 0.4283,3.81115 1.1138,38.38748 1.4565,76.93662 1.0281,104.09015 0.3428,95.73595 7.9679,103.45335 3.5986,3.6592 8.6536,7.5369 11.6523,8.8485 2.9987,1.302 5.9974,3.0033 6.8542,3.8587 2.0562,1.9864 8.7391,1.7488 14.6507,-0.5228 8.9106,-3.4024 9.6817,-8.6108 8.6536,-53.2141 -0.5998,-21.44146 -1.628,-43.2917 -2.399,-48.41443 -0.7711,-5.1893 -1.0281,-12.10837 -0.5141,-15.5584 0.4283,-3.43103 0.086,-11.58566 -0.7711,-18.15305 -2.399,-18.67582 2.5704,-23.63702 13.2886,-13.21085 9.1675,8.93394 31.0153,11.1294 42.8558,4.30535 2.339,-1.34958 5.9204,-2.50907 7.7196,-2.50907 1.8335,0 8.6449,-2.74674 15.045,-6.05419 6.383,-3.30751 12.389,-6.05418 13.2458,-6.05418 3.0757,0 13.2455,-6.90957 17.5381,-11.92784 2.5188,-2.93677 5.3634,-5.36033 6.3058,-5.36033 2.0306,0 10.1356,-8.99101 10.1356,-11.23398 0,-0.83638 1.3709,-3.20293 2.9559,-5.10379 1.6193,-1.92936 4.8836,-9.77032 7.1712,-17.20265 3.9411,-12.79266 4.1639,-15.04515 3.4271,-35.44121 -0.4284,-11.9278 -1.645,-24.52089 -2.6903,-27.83785 -4.0611,-12.79268 -12.783,-31.85813 -17.5724,-38.38754 -6.1088,-8.33519 -21.6592,-17.32618 -35.3761,-20.44356 -16.8357,-3.83971 -49.9244,-2.55663 -60.7883,2.36655 -2.3562,1.06448 -7.1711,2.28101 -17.1783,4.33392 -2.9987,0.61777 -8.6535,3.32647 -12.7659,6.05418 -4.0269,2.71823 -7.9681,4.45748 -8.9105,3.88723 -0.8567,-0.58925 -3.9412,0.47522 -7.0255,2.42358 -2.9987,1.87232 -8.9962,4.39094 -13.023,5.49344 -8.9105,2.42357 -20.477,12.69762 -20.5626,18.19107 0,2.243 1.3708,4.91367 3.0843,6.13971"
         style="fill:#000000;fill-opacity:1;fill-rule:nonzero;stroke:none"
         id="path886"
         inkscape:connector-curvature="0" />
      <path
         d="m -1213.8772,368.95858 c 0.6683,2.59466 1.8935,5.80708 2.6474,6.91907 0.7626,1.12149 1.9021,4.40996 2.4933,7.17568 0.5912,2.76573 2.4847,6.16824 4.1296,7.4323 1.7136,1.32108 3.0416,3.69713 3.0416,5.44592 0,3.32648 1.8677,5.33186 21.9762,23.58946 9.4074,8.5443 13.717,11.16747 23.3815,14.26583 15.4305,4.94219 22.336,4.82815 33.2,-0.54174 11.6863,-5.76904 16.4329,-9.81786 23.4585,-20.02538 5.0035,-7.26123 6.6143,-8.46825 11.2151,-8.46825 3.7442,0 5.6805,0.89339 6.3488,2.9368 1.6621,5.01823 7.1796,12.6216 9.1675,12.6216 1.028,0 2.7073,1.1215 3.7354,2.50911 1.0282,1.3686 4.4468,3.3645 7.5568,4.40996 3.1187,1.04545 7.1027,2.55664 8.8163,3.36449 11.9948,5.64551 21.128,6.66245 24.0924,2.68969 1.071,-1.44464 3.5642,-2.59464 5.5947,-2.59464 2.0221,0 4.0869,-0.77936 4.6009,-1.72977 1.2938,-2.36655 11.0611,-2.21448 15.2677,0.2471 1.8764,1.09299 4.31824,3.374 5.38066,5.02773 1.07953,1.67275 4.20673,3.6021 7.01692,4.31492 2.80166,0.72233 6.65709,2.45208 8.65345,3.89674 4.62652,3.35498 30.54407,7.73642 37.71523,6.38683 2.98154,-0.56075 8.4136,-2.94631 12.0034,-5.26535 3.58129,-2.31902 7.56534,-4.23888 8.79903,-4.23888 1.26804,0 4.21537,-1.77728 6.70862,-4.05829 2.49324,-2.28102 5.80891,-4.57153 7.55672,-5.21782 5.14064,-1.90084 13.45136,-11.44308 13.90544,-15.96708 0.23989,-2.42359 1.46511,-5.23683 2.77596,-6.39634 1.28516,-1.15001 4.2753,-5.00874 6.66569,-8.63934 5.13208,-7.78395 7.71096,-8.1071 10.84679,-1.38762 2.32188,4.97071 12.8773,16.92702 19.4231,21.99276 3.45279,2.6802 23.07296,4.41947 29.30169,2.61367 2.03061,-0.59876 8.33642,-5.36039 13.79413,-10.42613 9.03894,-8.39222 10.05853,-9.96992 10.05853,-15.55841 0,-7.26122 -0.70263,-8.62032 -6.55436,-12.76416 -3.88974,-2.74672 -4.66944,-2.76573 -10.43554,-0.2471 -15.81607,6.93807 -19.50873,0.90289 -21.90768,-35.75486 -1.73068,-26.45024 -0.80539,-82.95282 1.44787,-88.86443 3.41853,-8.98149 5.97173,-35.96396 7.09418,-75.21638 0.60822,-21.00432 2.94723,-62.75634 4.70369,-83.855713 0.47977,-5.70252 1.88483,-12.82117 3.12717,-15.815 1.21665,-2.94631 2.26192,-6.56742 2.26192,-7.86949 0,-1.38763 0.72822,-3.24095 1.71355,-4.32442 2.54463,-2.82277 2.99015,-14.35138 0.77104,-20.22498 -1.09666,-2.89878 -4.66934,-7.94552 -7.78805,-10.98687 -5.02065,-4.88517 -6.85418,-5.61699 -14.18815,-5.61699 -9.65593,0 -22.59318,5.94013 -22.59318,10.3786 0,1.48266 -1.43941,5.8736 -3.1187,9.50421 -1.6792,3.63061 -3.1186,9.0195 -3.1186,11.67119 0,2.65167 -1.43941,8.04056 -3.11871,11.67117 -1.7221,3.72565 -3.57278,11.24348 -4.12962,16.77494 -0.55694,5.531463 -1.49935,10.796803 -2.10768,11.756723 -0.60833,0.96943 -1.63647,5.53145 -2.33043,10.3691 -0.70253,4.84716 -1.52505,10.16951 -1.87637,12.10838 -0.34264,1.90083 -0.89958,8.12609 -1.24224,13.82863 -0.34275,5.70252 -1.32807,18.15305 -2.18485,27.66677 -1.79918,19.95885 -1.24224,50.4864 1.42228,77.80152 1.02815,10.54968 1.52505,24.7965 1.12235,31.9912 -0.82252,14.52244 -5.96317,41.86607 -8.5077,45.29708 -0.91682,1.22605 -2.16772,5.96866 -2.76739,10.45464 -0.73687,5.54097 -2.58754,9.99844 -5.68902,13.66707 -2.47612,2.9368 -4.99496,7.70792 -5.44914,10.3691 -0.47976,2.76573 -1.85057,5.79757 -3.1186,6.91907 -1.24234,1.08348 -3.3072,4.40997 -4.57514,7.34676 -5.00362,11.58563 -13.16012,23.51342 -16.08175,23.51342 -0.90817,0 -1.71355,1.21655 -1.71355,2.59467 0,4.70458 -14.48799,11.23397 -24.94067,11.23397 -8.09651,0 -10.52977,-0.76983 -16.44146,-5.26532 -4.51522,-3.44053 -6.93138,-6.53891 -6.93138,-8.90546 0,-2.0244 -1.5593,-6.39633 -3.51272,-9.85588 -2.99872,-5.33185 -3.4785,-8.47774 -3.30721,-21.96423 0.22275,-17.97248 6.20301,-40.25037 12.58604,-46.91282 2.02205,-2.11944 3.58135,-4.41946 3.58135,-5.29385 0,-3.17442 24.47806,-22.83863 38.18643,-30.69861 9.98142,-5.71203 16.69,-8.35422 23.22714,-9.16206 7.63389,-0.93143 9.74157,-1.93887 12.38896,-5.96865 2.96446,-4.48599 3.01584,-5.17031 0.66828,-9.50424 -4.12106,-7.62237 -14.7708,-11.0819 -35.50476,-11.53811 -16.51855,-0.36116 -18.22359,-0.0855 -21.82205,3.49756 -2.15047,2.14794 -7.55668,5.20832 -12.0719,6.83353 -4.52375,1.61571 -8.18226,3.47854 -8.18226,4.14383 0,0.66529 -4.83217,4.90418 -10.60679,9.30464 -20.57116,15.69145 -35.38486,35.4127 -37.80946,50.35333 -0.6341,3.89673 -2.2448,11.75672 -3.5728,17.45925 -1.585,6.81452 -2.4418,18.50471 -2.4932,34.06311 -0.068,21.6126 -0.3342,23.84608 -3.0331,25.47131 -5.6632,3.42152 -9.3302,2.01488 -14.1881,-5.41741 -7.0684,-10.83481 -8.4735,-18.50471 -8.0022,-43.73841 0.4626,-25.2527 3.2214,-41.50491 8.859,-52.22567 3.5299,-6.70997 3.6841,-7.94553 2.0134,-16.42328 -2.1162,-10.71125 -4.2582,-13.90467 -12.3804,-18.37165 -6.5458,-3.6021 -14.6508,-3.00334 -21.1966,1.55868 -4.5495,3.17441 -7.2912,0.21861 -7.7966,-8.43023 -1.1567,-19.71175 -0.514,-18.40967 -9.8101,-19.83531 -7.8223,-1.20703 -17.6153,-2.26199 -30.3984,-3.29796 -2.6474,-0.2186 -6.6999,0.40868 -9.3474,1.43515 -2.5446,0.98843 -7.1712,2.79423 -10.1356,3.96325 -16.8356,6.62443 -20.1513,8.90545 -33.2,22.81962 -7.4797,7.97405 -13.5628,15.61543 -13.5628,17.05057 0,1.39712 -1.7906,5.53145 -3.8898,8.99098 -2.1076,3.45954 -3.8983,7.10916 -3.8983,7.95503 0,0.83637 -1.3537,3.45004 -2.9644,5.70254 -1.6279,2.28102 -4.8836,10.3786 -7.2483,17.98198 -3.333,10.77778 -4.3524,17.45924 -4.5923,30.26142 -0.1714,8.99099 0.2485,18.60925 0.9338,21.26093 z m 46.3259,-42.36028 c 6.4343,-13.13484 14.685,-27.88538 19.0718,-34.06313 2.0905,-2.9368 5.4405,-7.6984 7.4282,-10.54017 6.8027,-9.72282 15.0792,-13.54351 30.6639,-14.15178 l 14.034,-0.55124 -0.2485,4.32441 c -0.3341,5.99717 -3.3585,32.50443 -4.5409,39.76565 -0.5311,3.28847 -2.0134,8.66785 -3.2385,11.75671 -1.251,3.1554 -2.8017,9.34265 -3.4699,13.83815 -1.2167,8.19262 -1.7908,9.68479 -10.8811,28.52215 -9.0904,18.84686 -21.7279,34.06311 -28.2821,34.06311 -5.612,0 -15.5077,-9.2381 -15.5505,-14.52244 -0.017,-1.97689 -2.1591,-7.09015 -4.7123,-11.24349 -4.3267,-7.04263 -4.6694,-8.72487 -4.6694,-22.90516 0,-13.48649 0.5226,-16.36626 4.3953,-24.29277"
         style="fill:#000000;fill-opacity:1;fill-rule:nonzero;stroke:none"
         id="path920"
         inkscape:connector-curvature="0" />
      <path
         d="m -1175.0653,706.40578 c 1.0453,0.71283 2.836,3.85873 4.0525,7.14718 1.2167,3.27896 2.9388,5.87361 3.8899,5.87361 1.2765,0 1.2765,0.60827 0,2.33803 -1.1482,1.5682 -1.7136,14.77906 -1.7136,40.19333 0,25.42379 -0.7626,43.54834 -2.339,55.16251 -1.7736,13.13477 -1.9192,18.40965 -0.6169,21.9547 2.3733,6.46287 19.6373,16.94605 27.8966,16.94605 3.2729,0 6.5201,0.79831 7.0341,1.72976 3.2043,5.76902 13.3829,-7.44183 13.1944,-17.11714 -0.068,-3.45003 0.6511,-11.24342 1.6107,-17.46869 2.2105,-14.3134 4.1725,-35.44122 5.5775,-59.81954 1.0796,-18.8469 1.0111,-19.47416 -2.5874,-23.51346 -7.3768,-8.29718 -7.8565,-9.39017 -6.1601,-14.18029 0.9852,-2.76572 2.733,-4.49549 4.558,-4.49549 1.585,0 4.9864,-1.112 7.3254,-2.39506 8.2593,-4.53352 12.2347,-6.14924 19.0118,-7.74594 3.7442,-0.8839 8.3792,-3.14591 10.2128,-4.98972 1.8163,-1.82481 6.6229,-4.70459 10.5212,-6.31079 4.5151,-1.85332 8.919,-5.36038 11.9177,-9.50422 4.4981,-6.22527 4.6695,-7.00461 3.1958,-14.60797 -1.2852,-6.62445 -2.9559,-9.27613 -9.5017,-15.03568 -8.7306,-7.66991 -9.8101,-7.97404 -16.2101,-4.41947 -2.3648,1.31159 -7.7967,3.28847 -11.8493,4.32443 -4.121,1.04545 -11.3008,4.61905 -15.9788,7.95503 -4.6694,3.32647 -9.8615,6.04468 -11.5322,6.04468 -1.7135,0 -3.4443,0.76033 -3.9754,1.72976 -0.5056,0.94091 -3.9755,1.72976 -7.5568,1.72976 -3.5813,0 -8.0194,1.07398 -9.6644,2.33804 -1.6793,1.29259 -7.9508,3.95375 -14.0254,5.95916 -6.0831,2.01488 -12.1233,5.02772 -13.537,6.74798 -3.5299,4.31492 -5.0721,11.86126 -2.7503,13.42945"
         style="fill:#000000;fill-opacity:1;fill-rule:nonzero;stroke:none"
         id="path924"
         inkscape:connector-curvature="0" />
      <path
         d="m -1072.835,769.57085 c 1.1996,2.34749 2.1934,8.38267 2.1934,13.22985 0,5.53142 0.8568,9.65631 2.2619,10.89181 1.2509,1.10248 2.6732,4.05831 3.1957,6.65296 0.5142,2.56615 4.0526,9.33313 7.8738,15.0452 3.8127,5.7025 8.1651,12.46949 9.6644,15.03563 1.5079,2.59465 5.8433,6.40586 9.7416,8.56332 3.8898,2.15746 9.5788,6.1397 12.7745,8.96251 7.1369,6.27272 21.8221,9.53272 43.64415,9.68474 11.22371,0.0855 17.04972,-0.71279 22.6016,-3.08885 4.05255,-1.72976 9.98149,-3.70663 12.9374,-4.31491 2.98155,-0.61779 9.58732,-4.38143 14.57374,-8.30672 l 9.11608,-7.17567 -1.08809,-8.21164 c -0.6683,-5.00871 -0.39413,-9.65624 0.70253,-11.92778 1.45654,-3.03184 1.34511,-4.49551 -0.62545,-7.95504 -2.1334,-3.73514 -3.51276,-4.23884 -11.60927,-4.23884 -9.45891,0 -13.40853,1.72026 -27.12548,11.8137 -9.48447,6.97613 -20.26275,9.35219 -31.16952,6.88106 -8.38779,-1.91036 -10.07569,-3.12686 -19.17459,-13.84764 -7.6253,-8.99101 -9.9729,-12.98275 -9.9729,-16.94599 0,-5.29388 0.1542,-5.38889 11.6864,-7.55591 12.62892,-2.37606 18.94331,-4.02025 21.82207,-5.68351 1.68786,-0.9789 5.61192,-2.98433 8.56784,-4.39092 22.29324,-10.5782 28.96745,-16.12868 38.46909,-31.9912 5.18353,-8.64884 5.38059,-9.47571 3.50426,-14.70302 -3.4785,-9.6753 -7.95943,-15.40633 -14.53951,-18.55224 -3.58129,-1.71076 -7.27402,-4.26738 -8.41346,-5.81658 -1.13957,-1.55868 -4.20679,-3.25994 -7.01698,-3.89673 -2.73317,-0.61777 -9.34746,-2.29052 -14.64237,-3.71614 -12.33759,-3.30748 -25.87464,-1.23554 -39.75434,6.06368 -5.4491,2.87978 -12.7917,6.19675 -16.5186,7.47031 -8.2421,2.81326 -22.8331,20.00638 -26.8256,31.59203 -0.8225,2.42356 -2.2619,4.4955 -3.1016,4.4955 -0.8909,0 -1.5593,1.03594 -1.5593,2.42356 0,1.3306 -1.0624,4.66656 -2.3732,7.4323 -2.7931,5.8831 -2.7417,10.3311 0.1798,16.08117"
         style="fill:#000000;fill-opacity:1;fill-rule:nonzero;stroke:none"
         id="path946"
         inkscape:connector-curvature="0" />
      <path
         d="m -891.70413,832.21308 c 5.7661,6.27284 11.97771,12.22244 13.8711,13.29642 7.2312,4.08682 23.38145,8.49681 35.06779,9.57073 10.28995,0.95046 12.88597,0.60828 18.23224,-2.43306 3.43566,-1.94837 7.42817,-3.54505 8.8847,-3.54505 3.56421,0 21.93348,-14.86461 24.35811,-19.71173 1.07097,-2.13845 3.94979,-7.08065 6.22875,-10.71128 6.40011,-10.1695 7.47107,-23.86511 2.716,-34.75692 -5.81748,-13.31543 -13.71695,-23.46593 -22.38755,-28.76925 -11.22371,-6.85256 -22.77303,-11.51912 -28.522,-11.51912 -5.61185,0 -15.32773,-5.62651 -16.70709,-9.67531 -0.97677,-2.87027 11.55788,-21.98324 17.01549,-25.937 2.63037,-1.91034 5.61195,-2.30002 11.2238,-1.48266 8.8847,1.29258 15.996,-1.84382 20.18557,-8.89595 2.39905,-4.03929 2.39905,-4.93268 0,-13.57202 -1.39649,-5.01822 -3.78687,-9.80836 -5.22628,-10.47365 -11.37795,-5.24632 -32.6774,-7.32775 -38.96609,-3.8112 -2.39049,1.34012 -6.93137,2.98435 -10.04997,3.64964 -3.1187,0.66528 -6.57149,2.38555 -7.63389,3.80169 -1.07954,1.43512 -5.7661,4.58103 -10.4441,7.0046 -6.08306,3.1554 -9.0989,5.95914 -10.59835,9.85587 -1.14804,2.97482 -5.70605,9.77033 -10.03274,14.95964 -10.70968,12.85921 -10.81254,18.4952 -0.5912,32.50441 8.86757,12.1369 18.80621,19.78777 31.89771,24.54937 5.4577,1.98644 13.50275,5.82615 17.76949,8.47781 4.36095,2.70867 9.63871,5.35083 12.0034,6.00668 5.33771,1.4826 6.49442,6.09219 4.83226,19.40756 -0.9939,7.94553 -1.99636,10.43567 -4.83226,12.01335 -2.0305,1.12148 -5.08069,3.56411 -7.017,5.61699 -1.87626,1.98637 -6.54569,4.41943 -10.28985,5.36039 l -6.85419,1.72977 -10.28986,-10.45462 -10.28129,-10.46417 -9.356,1.17849 c -18.39495,2.32855 -19.64586,10.43567 -4.2067,27.22958"
         style="fill:#000000;fill-opacity:1;fill-rule:nonzero;stroke:none"
         id="path974"
         inkscape:connector-curvature="0" />
      <path
         d="m -799.54087,357.7246 c 1.75637,4.14383 3.22147,8.54429 3.22147,9.6753 0,5.28434 5.61185,13.76209 16.6814,25.22417 12.93725,13.39144 36.29291,31.14533 40.98806,31.14533 1.55938,0 3.40141,0.81736 3.89837,1.72978 0.52259,0.95991 3.27286,1.72976 6.2373,1.72976 2.95591,0 7.18827,0.79835 9.57879,1.81531 2.37321,0.99793 10.59821,2.00537 18.39495,2.24299 11.22371,0.35166 16.17584,-0.38017 24.23813,-3.53557 5.61186,-2.20498 11.03525,-4.00128 12.15765,-4.01078 4.8321,-0.0855 29.92715,-23.83659 29.92715,-28.32257 0,-2.31903 -4.8323,-7.47983 -10.91535,-11.67117 -3.59847,-2.48061 -4.36105,-2.45209 -10.12715,0.35164 -11.95187,5.83559 -31.16937,10.30258 -49.10164,11.41457 -15.43051,0.95993 -18.21507,0.71281 -20.02289,-1.73927 -1.14803,-1.5587 -2.88728,-2.85125 -3.82122,-2.85125 -1.98769,0 -13.71695,-9.62778 -19.48306,-15.97661 -6.13454,-6.75749 -9.20175,-13.94268 -10.30698,-24.1407 l -1.07097,-9.85588 7.3254,3.6021 c 7.47965,3.67813 8.73055,3.69715 31.01527,0.51323 7.64243,-1.09299 23.21859,-8.18313 25.00924,-11.37654 0.4883,-0.8839 2.42474,-1.5587 4.45524,-1.5587 3.52996,0 18.23211,-9.6943 28.98469,-19.11298 3.11862,-2.72772 7.44531,-5.4174 9.7415,-6.04468 2.33899,-0.63678 4.54092,-2.43308 5.06357,-4.14384 0.53118,-1.71076 2.26184,-4.39094 3.97539,-6.13973 1.86781,-1.91034 3.00738,-5.1893 2.95592,-8.47775 -0.0857,-5.70253 -3.17866,-19.66423 -5.08075,-22.9907 -1.36219,-2.36655 -23.20142,-14.35137 -26.16585,-14.35137 -1.02813,0 -4.28389,-1.67274 -7.23973,-3.71615 -4.80648,-3.31698 -6.78558,-3.6021 -18.47204,-2.62317 -17.46115,1.47316 -28.2564,4.79964 -39.59155,12.22243 -5.30343,3.46904 -10.02428,6.21576 -10.67542,6.21576 -0.64258,0 -3.58135,2.41406 -6.5458,5.36988 -2.90441,2.88928 -8.02792,6.86204 -11.14663,8.63933 -3.19577,1.82481 -8.05371,6.48187 -10.90674,10.46415 -2.84446,3.96325 -8.1051,10.80629 -11.77208,15.29228 -12.68023,15.5679 -17.75237,40.00324 -11.40364,54.9914 z m 61.83338,-60.6559 c 9.19322,-9.79885 12.13203,-11.88029 18.69479,-13.2584 4.36963,-0.92191 9.44165,-2.34753 11.5322,-3.24093 9.82724,-4.19135 15.91036,-5.6645 18.86621,-4.57153 1.71355,0.63679 2.90445,1.70126 2.6389,2.36655 -1.52502,3.83021 -16.20161,16.41378 -23.52702,20.15844 -4.67799,2.39507 -9.42455,5.53146 -10.44409,6.89057 -0.98533,1.33058 -3.11875,2.5186 -4.51522,2.5186 -1.45653,0 -5.61186,1.57771 -9.20174,3.48805 -7.32548,3.91573 -11.36083,4.29592 -14.02545,1.34961 -2.39895,-2.66119 -2.64739,-2.26201 9.98142,-15.70096"
         style="fill:#000000;fill-opacity:1;fill-rule:nonzero;stroke:none"
         id="path994"
         inkscape:connector-curvature="0" />
      <path
         d="m -764.67871,833.24905 c 1.09666,0.99797 5.22628,3.5166 8.96187,5.48397 3.74406,1.95786 10.13561,5.74051 13.87113,8.21164 3.84698,2.53758 10.44409,5.1988 14.81365,5.96861 4.36098,0.76037 10.99238,2.10995 14.88216,3.01284 12.46615,2.90832 36.84994,-0.63679 46.2916,-6.73848 1.54213,-0.9979 5.61185,-2.86075 9.03889,-4.14382 4.05255,-1.52068 7.43686,-4.39093 9.66441,-8.21165 1.9106,-3.28844 5.15777,-8.47774 7.35976,-11.75668 4.72939,-7.08066 5.02922,-13.49602 1.51651,-32.51396 -1.37092,-7.43233 -2.75028,-15.03569 -3.08447,-16.93648 -0.61685,-3.54511 -8.1308,-9.72288 -20.91382,-17.19316 -16.05601,-9.38066 -32.21475,-17.90594 -35.06774,-18.50473 -1.65364,-0.34214 -3.7185,-2.25249 -4.67799,-4.33391 -0.95963,-2.07192 -2.51042,-4.78062 -3.51286,-6.13973 -5.36341,-7.17567 2.74169,-27.94238 13.64846,-35.02303 14.17956,-9.20008 19.24313,-14.36088 22.78168,-23.2378 3.43563,-8.64884 3.52983,-9.57076 1.20801,-12.45054 -4.53233,-5.636 -13.08299,-9.0005 -19.93714,-7.86949 -16.83564,2.78474 -20.77682,4.26739 -30.55259,11.50012 -1.27665,0.9409 -4.28389,2.5091 -6.62289,3.45952 -2.33899,0.94092 -4.28388,2.9083 -4.28388,4.32443 0,1.3781 -1.05383,2.58514 -2.26184,2.58514 -1.24236,0 -4.2924,2.13845 -6.78564,4.76161 -2.54464,2.6802 -6.9314,7.16618 -10.04999,10.28357 -4.98641,4.98972 -5.64621,6.65294 -6.69995,17.03155 -1.03672,10.19803 -0.66837,12.8782 3.3071,23.77005 5.37197,14.70302 6.72564,16.64187 17.81233,25.51883 8.70484,6.97607 15.58476,11.04389 28.05076,16.61337 7.88235,3.50704 13.4086,7.60336 21.5137,15.91002 5.45767,5.58848 5.45767,5.58848 4.35238,16.30926 -1.29375,12.62158 -2.7502,15.0452 -9.03044,15.0452 -2.49325,0 -6.263,1.27357 -8.41346,2.85125 -4.67799,3.42153 -23.12432,5.29382 -24.66659,2.50908 -0.56546,-1.01691 -2.69023,-1.9008 -4.55803,-1.9008 -1.8678,0 -4.23249,-0.81737 -5.0635,-1.72976 -0.85685,-0.95046 -7.33407,-2.63266 -14.34248,-3.7162 -12.46604,-1.94837 -12.8773,-1.90079 -16.67284,2.00543 -4.21526,4.32442 -5.18346,12.21289 -1.87626,15.24473"
         style="fill:#000000;fill-opacity:1;fill-rule:nonzero;stroke:none"
         id="path1000"
         inkscape:connector-curvature="0" />
      <path
         d="m -464.91891,386.59841 c 0.33406,2.93681 0.92528,6.83353 1.36226,8.99099 1.01102,5.00872 22.13907,31.63954 25.10343,31.63954 2.3133,0 14.96784,7.4418 19.32881,11.36704 7.11984,6.41534 38.6491,5.54095 50.6525,-1.40663 2.64749,-1.53016 6.64013,-3.71614 9.19328,-5.03722 2.51028,-1.29258 10.28978,-8.68685 17.46101,-16.59437 7.17131,-7.90752 13.93971,-14.26584 15.19931,-14.26584 1.25068,0 5.80884,5.01823 10.22114,11.23399 8.33651,11.75672 15.43917,16.92702 25.70331,18.67579 3.27287,0.56075 7.77105,2.83226 9.7415,4.9327 3.04159,3.22191 5.61192,3.93474 15.12215,4.14382 9.50164,0.2186 12.48311,-0.42768 17.52958,-3.80168 3.27279,-2.18596 7.29978,-4.54301 8.73061,-5.09427 1.46504,-0.57975 3.72681,-2.86076 5.0635,-5.10375 2.20186,-3.70665 2.10759,-4.76161 -1.0025,-11.84226 -3.49561,-7.95503 -10.02423,-13.14434 -16.53573,-13.14434 -1.60218,0 -6.62295,1.69176 -10.98386,3.71615 l -8.02808,3.71614 -3.55552,-5.00871 c -7.37687,-10.41662 -13.48562,-27.83785 -14.90778,-42.53136 -1.46511,-15.14973 1.11367,-60.00013 4.41229,-76.94614 1.825,-9.33313 0.46275,-16.08113 -3.24702,-16.08113 -0.95111,0 -4.60097,-2.27153 -8.18233,-5.10376 -6.03165,-4.75213 -6.93982,-4.98022 -13.33137,-3.36451 -3.73567,0.94092 -7.84806,1.30208 -9.03903,0.78886 -3.18718,-1.35911 -0.77969,-4.96121 2.65608,-3.96326 3.09278,0.9029 5.78321,-1.84382 9.24446,-9.4472 1.81641,-3.98227 1.74798,-5.31285 -0.44549,-8.99099 -1.43935,-2.42357 -4.14675,-5.26533 -6.15169,-6.46286 -5.61186,-3.34549 -19.05453,-6.37733 -21.51349,-4.84715 -1.27657,0.79834 -9.03903,1.99588 -17.14399,2.65167 -14.02545,1.131 -28.20515,5.37939 -34.75939,10.41663 -1.71355,1.31158 -4.24108,2.38555 -5.612,2.38555 -1.37077,0 -5.92021,1.88184 -10.127,4.18186 -11.06954,6.04468 -36.62713,34.38624 -36.62713,40.60202 0,0.84587 -1.17379,2.61365 -2.57033,3.88722 -1.42223,1.28307 -3.8726,5.44591 -5.45768,9.2571 -1.585,3.8017 -3.55552,8.07859 -4.3609,9.50422 -4.25819,7.46082 -9.58739,22.82913 -11.10382,31.9912 -1.85069,11.23397 -3.00731,36.58173 -2.03909,44.95494 z m 45.94016,-30.60359 c 0.75399,-1.57769 1.41372,-4.58103 1.41372,-6.48187 0,-1.91984 1.35366,-6.91907 2.95591,-10.90133 1.60211,-3.97277 3.39276,-8.53479 3.8983,-9.94142 0.52259,-1.43512 3.35861,-6.04467 6.39155,-10.3691 3.03293,-4.32441 6.3058,-9.70379 7.3768,-12.10836 4.38674,-9.85588 20.554,-28.65522 28.62481,-33.28377 9.66454,-5.54096 36.47287,-15.42535 38.34075,-14.14228 2.36462,1.61572 1.35366,6.10171 -4.18962,18.55224 -3.00731,6.748 -5.4662,13.83814 -5.4662,15.73899 0,3.49753 -4.02699,21.78366 -6.12599,27.83784 -0.65114,1.87233 -2.02205,8.1261 -2.9902,13.65756 -0.97667,5.53145 -2.87017,11.54762 -4.13809,13.14433 -1.23391,1.54918 -2.33914,3.91574 -2.33914,5.00872 0,1.13101 -2.17608,7.09015 -4.79788,13.14433 -5.48337,12.6216 -26.20879,36.68628 -34.47659,40.03176 -12.78309,5.1798 -19.9886,1.3306 -23.17586,-12.37449 -0.8824,-3.80168 -2.22755,-8.85793 -2.99013,-11.23397 -1.55072,-4.84715 -0.4626,-21.81219 1.68786,-26.27918"
         style="fill:#000000;fill-opacity:1;fill-rule:nonzero;stroke:none"
         id="path1046"
         inkscape:connector-curvature="0" />
      <path
         d="m -412.94709,830.08419 c 0.71977,2.37605 1.37091,7.43227 1.45659,11.23398 0.10271,4.32442 1.67927,9.41864 4.20679,13.58153 2.21045,3.63056 3.73547,8.03105 3.35002,9.67524 -0.45422,1.97687 1.79917,5.79759 6.46864,10.98689 12.16616,13.47701 29.4644,29.87178 33.97956,32.18128 2.33913,1.1881 5.6291,2.9463 7.09421,3.7732 1.49067,0.8554 4.67799,1.5967 7.01685,1.6442 2.33913,0.048 5.69774,1.2736 7.40256,2.6802 3.47851,2.8988 9.03911,3.1364 18.38643,0.7793 3.60705,-0.9029 12.15765,-2.9462 19.02038,-4.5335 12.46615,-2.8987 26.12305,-9.9319 33.50837,-17.26915 2.18489,-2.16696 5.61207,-4.89463 7.79674,-6.20621 2.16771,-1.30207 7.86518,-5.77858 12.85159,-10.1125 8.89338,-7.71744 8.97054,-7.86002 8.97054,-16.86047 0,-5.00871 -0.7026,-9.07653 -1.55938,-9.07653 -0.84812,0 -1.55938,-1.90085 -1.55938,-4.15339 0,-7.24218 -5.61185,-8.42073 -20.26267,-4.23884 -9.35598,2.66116 -34.40795,15.70092 -37.08973,19.28404 -1.21666,1.63475 -3.43576,2.93683 -4.99507,2.93683 -1.5422,0 -4.98642,2.03387 -7.63377,4.4955 -4.48093,4.16283 -5.77476,4.45744 -17.46114,3.89673 l -12.6204,-0.60828 -6.54558,-7.95504 c -5.56053,-6.73848 -6.94003,-10.02699 -9.12464,-21.61259 -1.4052,-7.47984 -3.23865,-21.08987 -4.05269,-30.08082 -1.31086,-14.52249 -1.16513,-16.92705 1.25088,-20.7477 1.5422,-2.45213 3.07595,-6.56746 3.53855,-9.51372 1.77347,-11.37657 10.65833,-32.84663 18.60925,-44.95498 2.3818,-3.63062 4.42088,-7.69841 4.42088,-8.81992 0,-2.15744 14.49665,-18.47619 27.90525,-31.41143 7.71951,-7.4418 19.01179,-12.36498 28.52195,-12.42201 5.0892,-0.038 12.15757,-8.72488 12.15757,-14.95013 0,-7.96452 -9.03889,-21.1849 -17.92368,-26.20313 -5.24352,-2.96531 -31.48645,0.97893 -39.7458,5.97817 -17.61533,10.64471 -22.64455,14.53192 -32.11197,24.85351 -10.44402,11.37656 -23.99821,29.86225 -23.99821,32.72302 0,0.85537 -1.01095,2.17646 -2.26184,2.93681 -1.24236,0.76033 -4.47241,6.05418 -7.17982,11.75672 -8.60198,18.15305 -9.54444,19.88282 -10.82102,19.88282 -5.7661,0 -15.01936,72.96385 -10.96681,86.45037"
         style="fill:#000000;fill-opacity:1;fill-rule:nonzero;stroke:none"
         id="path1052"
         inkscape:connector-curvature="0" />
      <path
         d="m -98.099409,396.62535 c 2.41615,3.43103 2.95584,6.05418 2.2619,11.06292 -1.04538,7.60338 1.40513,16.08113 4.65223,16.08113 1.18231,0 3.63275,2.59465 5.37193,5.70253 7.54815,13.46747 25.36919,12.80219 36.55003,-1.37811 5.32061,-6.74799 6.11733,-11.47158 2.63038,-15.56791 -2.67319,-3.12688 -3.09299,-5.87361 -3.09299,-20.05389 0,-8.99099 0.63389,-17.16462 1.39654,-18.06752 0.77103,-0.89339 2.11625,-5.95914 2.97303,-11.14844 1.5422,-9.33315 4.12105,-18.72332 6.78558,-24.72997 0.69401,-1.54919 1.31086,-4.15335 1.31086,-5.53146 0,-4.45747 14.1283,-32.16227 20.27999,-39.76564 2.35603,-2.91779 5.44895,-7.60338 7.0597198,-10.72076 3.6671,-7.09014 6.98277,-8.31619 13.03153,-4.84715 3.42711,1.96737 4.83224,4.00127 4.83224,7.01411 0,2.24299 0.72823,4.22937 1.55931,4.22937 0.9083102,0 1.6193602,6.66246 1.7136902,15.99559 0.086,8.77241 0.60819,25.24321 1.16506,36.4772 0.93394,18.84686 1.31087,20.72869 4.67799,23.34234 2.02205,1.57771 7.18834,6.91909 11.53228,11.93731 l 7.87369,9.07652 10.36701,0 c 9.65588,0 10.70112,-0.38967 15.34476,-5.71204 3.74419,-4.27689 4.98648,-7.26122 4.98648,-11.92779 0,-8.63932 3.23865,-24.17871 5.7233,-27.48618 1.16521,-1.5587 2.07331,-3.75418 2.07331,-5.01823 0,-2.6802 2.67318,-12.27945 5.53483,-19.88281 1.08805,-2.8988 2.98148,-8.47777 4.28396,-12.62161 3.09292,-9.85587 9.06459,-19.3601 12.15744,-19.3601 2.90459,0 6.006099,6.56742 7.762459,16.42329 2.53604,14.1803 3.22998,17.38322 4.48093,20.74771 2.63039,7.05212 5.77463,48.06282 4.30952,56.18892 -1.89336,10.51167 2.31336,20.03489 14.30825,32.4569 8.58488,8.88646 8.88471,9.03852 18.24076,9.03852 5.29484,0 11.67787,-0.83637 14.4109,-1.90083 4.78084,-1.85333 4.90918,-2.15747 4.67799,-11.6712 -0.12849,-5.36038 0.29124,-11.87075 0.93386,-14.43691 0.91683,-3.66862 0.30836,-5.70251 -2.87876,-9.51371 -2.32188,-2.76572 -4.05254,-6.83353 -4.05254,-9.50421 0,-2.59466 -0.69402,-5.13229 -1.55931,-5.70254 -0.85685,-0.57025 -1.55938,-4.32442 -1.55938,-8.29718 0,-4.02028 -1.07952,-13.83814 -2.41615,-21.96424 -1.33656,-8.12611 -2.82723,-18.95141 -3.34995,-24.20724 -0.51414,-5.1893 -1.82486,-11.08193 -2.88735,-12.96375 -1.071,-1.91035 -3.13572,-9.07654 -4.59231,-15.99561 -1.46511,-6.91906 -3.28138,-12.96375 -4.05255,-13.48647 -0.77955,-0.53224 -1.40506,-2.33804 -1.40506,-4.06781 0,-2.84176 -2.86158,-11.23398 -8.36206,-24.5494 -3.58136,-8.64882 -11.90054,-14.62697 -23.74132,-17.07907 -8.267929,-1.70125 -11.900539,-1.77728 -14.342319,-0.29463 -1.85936,1.1215 -5.30357,1.98638 -7.95099,1.98638 -3.85543,0 -6.19442,1.98638 -13.32278,11.32903 -4.75508,6.22526 -8.65345,12.09887 -8.65345,13.04928 0,3.1174 -11.62641,20.52913 -13.71689,20.55764 -1.00243,0.01 -3.08447,-2.23349 -4.48959,-4.81865 -10.94099,-20.23448 -13.6398,-23.46591 -23.72407,-28.49364 -9.8615302,-4.91368 -10.4354402,-4.99922 -21.8134002,-3.10788 -16.3730298,2.71821 -27.9738098,6.81453 -29.7985998,10.50216 -0.83974,1.70126 -3.47857,3.98227 -5.82615,5.01822 -2.33041,1.03597 -5.48338,2.88929 -6.93138,4.05831 -2.09055,1.71076 -3.74405,1.67274 -7.79667,-0.16157 -5.92014,-2.6897 -5.92014,-2.6897 -17.144,-2.30002 -6.85414,0.23761 -9.75867,1.26406 -13.55411,4.79963 l -4.83231,4.49548 0,23.4279 c 0,15.21625 -0.78821,26.51677 -2.26184,32.2478 -3.26427,12.79269 -7.43671,49.36491 -6.31438,55.49512 0.59108,3.28847 0.06,7.09015 -1.45652,10.37862 -3.195781,6.91907 -3.075811,9.96041 0.62544,15.21624"
         style="fill:#000000;fill-opacity:1;fill-rule:nonzero;stroke:none"
         id="path1090"
         inkscape:connector-curvature="0" />
      <path
         d="m -74.041219,754.60167 c 2.18482,1.60625 4.44679,2.86075 5.14059,2.86075 0.68542,0 3.88134,3.11742 7.09408,6.91913 4.24115,5.01821 7.08562,6.91901 10.36714,6.91901 7.0512,0 8.07074,2.93682 7.87362,22.64855 -0.18846,18.67582 3.07588,43.61485 6.15162,47.02688 0.90824,1.00747 1.71369,3.88723 1.71369,6.1397 0,2.97483 3.50413,8.02161 11.76348,16.94605 6.54572,7.07115 12.53457,12.70715 13.48562,12.70715 0.9338598,0 4.0525498,1.96736 6.8627998,4.32441 2.80160001,2.35706 6.66576,4.31492 8.49055,4.31492 1.87632,0 5.3035702,1.29257 7.7966702,2.94633 3.58136,2.36655 5.21775,2.53758 8.49068,0.86482 2.21903,-1.14049 7.40257,-2.08138 11.45505,-2.08138 6.58001,0 8.33651,-0.86489 15.82468,-7.81246 21.50504,-19.96839 26.87697,-28.03745 23.45845,-35.23212 -0.89972,-1.91036 -1.21666,-4.6666 -0.70253,-6.13976 0.52259,-1.51117 0.0258,-3.89673 -1.13092,-5.4459 -2.56188,-3.42153 -12.90305,-9.34263 -16.33009,-9.34263 -2.69043,0 -13.71702,8.20214 -19.79155,14.73152 -4.995,5.35089 -14.18822,11.20548 -17.61526,11.20548 -3.89837,0 -6.8542802,-3.21243 -6.8542802,-7.43233 0,-1.6537 -1.17372,-5.10373 -2.49325,-7.34676 -1.67068,-2.82275 -2.95577,-10.97738 -3.87246,-24.47334 -1.49947,-21.95476 -0.47992,-29.83373 4.81492,-37.34207 3.1701502,-4.49551 14.2825502,-9.25712 17.1355402,-7.33726 0.75393,0.5037 4.83217,0.0665 8.88479,-0.9599 4.16399,-1.06447 12.31183,-2.11945 18.38643,-2.40462 10.10131,-0.45619 21.51355,-2.32848 32.42039,-5.32232 5.32906,-1.46366 9.7843,-10.42614 8.2849,-16.6514 -0.53976,-2.2525 -2.57885,-6.22527 -4.69509,-9.16207 l -3.74406,-5.18929 -66.55434,0 0.31694,-7.09015 c 0.1972,-4.53351 2.02205,-10.19803 5.06365,-15.72948 2.65587,-4.84715 4.75508,-10.09348 4.75508,-11.93729 0,-3.33598 2.70747,-11.58564 11.94349,-36.30612 6.45152,-17.28817 6.64857,-22.78159 0.99377,-28.37008 -2.33899,-2.30953 -5.4576,-6.15873 -6.71714,-8.27817 -4.51523,-7.66991 -24.6150702,-9.84637 -33.65410019,-3.65913 -5.61186001,3.8397 -6.86274001,6.42485 -6.86274001,14.19931 0,8.37322 -5.2776598,29.90976 -10.8810698,44.43221 -2.74162,7.09014 -5.7233,16.88899 -6.57135,21.62209 -0.87402,4.83765 -2.17623,9.47571 -2.96457,10.54017 -0.76251,1.03597 -1.04517,2.30002 -0.61678,2.76573 1.44786,1.61573 -7.17124,18.65679 -10.76118,21.26094 -1.9363,1.40662 -5.29477,2.56613 -7.32541,2.50912 -2.07331,-0.0476 -8.25921,0.41817 -13.87106,1.04545 -7.78816,0.86489 -11.13811,2.16697 -14.49665,5.63599 -5.45774,5.64551 -5.6548,12.66917 -0.46274,16.48032"
         style="fill:#000000;fill-opacity:1;fill-rule:nonzero;stroke:none"
         id="path1092"
         inkscape:connector-curvature="0" />
      <path
         d="m 107.58647,833.54372 c 0.58257,4.32442 2.15053,10.47362 3.53841,13.82863 1.35374,3.28845 2.92178,7.71738 3.42725,9.68481 1.51637,5.88309 21.06792,26.62129 25.09485,26.62129 1.19956,0 3.48716,1.55868 5.08075,3.45954 5.49182,6.55788 15.33624,9.01951 36.22436,9.08602 21.50511,0.0665 27.12548,-1.65375 40.83392,-12.53606 10.90669,-8.65833 24.63224,-22.71506 24.63224,-25.2432 0,-1.23557 3.16148,-6.23478 7.00846,-11.0724 3.85536,-4.83768 7.01699,-9.86539 7.01699,-11.14847 0,-1.24506 1.08797,-3.30744 2.33892,-4.40993 1.25954,-1.12148 2.33048,-4.40999 2.33048,-7.17567 0,-2.76574 0.76251,-6.68146 1.66209,-8.55382 2.15905,-4.505 2.30478,-20.7572 0.23134,-25.07211 -0.85678,-1.79634 -2.45037,-5.88316 -3.49561,-8.99102 -1.7993,-5.36039 -15.06203,-19.36961 -18.34355,-19.36961 -0.84812,0 -2.66453,-1.90079 -3.97539,-4.14383 -1.31094,-2.25247 -3.94977,-4.7046 -5.76625,-5.36038 -2.33885,-0.84582 -3.11854,-2.17647 -2.57019,-4.40994 0.4198,-1.72977 -0.051,-4.31492 -1.03672,-5.617 -2.77597,-3.72564 -19.69722,-8.89593 -27.49396,-8.39221 -3.73547,0.2376 -8.4821,-0.50372 -10.43551,-1.63473 -2.81877,-1.63472 -4.90932,-1.59671 -9.74149,0.16158 -4.36956,1.5967 -6.75143,1.71075 -8.18226,0.38967 -2.099,-1.92936 -18.39487,1.72026 -31.33221,7.0141 -7.53098,3.07938 -20.37405,16.98403 -24.63224,26.65934 -1.82486,4.15332 -4.23235,8.05005 -5.44902,8.81992 -1.19955,0.7603 -3.58135,6.74798 -5.28646,13.31543 -3.16142,12.12737 -3.77827,28.36056 -1.6792,44.09005 z m 49.28166,-29.39653 c 1.29382,-6.84306 3.62416,-11.40508 11.19801,-21.95477 l 5.08928,-7.09015 14.34239,-0.79838 c 23.53561,-1.30207 32.42039,5.59799 32.42039,25.1767 0,7.78395 -7.11977,26.37419 -11.68645,30.54652 -1.25081,1.14056 -2.339,3.09842 -2.339,4.2104 0,3.59262 -6.23729,11.329 -11.38654,14.12324 -6.07446,3.29795 -12.95445,7.63193 -18.54061,11.69025 -3.27272,2.37605 -4.91777,2.63265 -7.41102,1.15949 -1.71355,-1.02647 -3.19591,-2.98434 -3.19591,-4.23891 0,-1.31157 -1.08797,-3.32645 -2.4931,-4.60002 -7.17116,-6.51038 -9.84428,-27.98994 -5.99744,-48.22437"
         style="fill:#000000;fill-opacity:1;fill-rule:nonzero;stroke:none"
         id="path1114"
         inkscape:connector-curvature="0" />
      <path
         d="m 199.03002,277.14785 c 0.42846,0.47522 1.14809,6.22526 1.59373,12.79267 2.69881,39.59457 3.82114,60.94104 4.12964,78.84698 0.29125,16.4233 0.86522,20.89026 3.08433,23.77006 1.46504,1.91034 3.70124,3.54507 4.83216,3.54507 1.19949,0 3.36713,1.55868 5.0464,3.6306 4.80647,5.92114 10.76977,8.47777 19.80859,8.47777 6.08319,0 9.06466,-0.81736 10.72682,-2.94631 3.05864,-3.88723 4.84935,-23.85558 2.84455,-31.63954 -0.8653,-3.33598 -1.93631,-27.31512 -2.3818,-53.4232 -0.90824,-52.38724 -0.78828,-51.83599 -11.49792,-55.59966 -3.11862,-1.1025 -6.30594,-2.68019 -7.17131,-3.56409 -2.94732,-3.01284 -18.07786,-1.71076 -23.53553,2.0339 -6.54573,4.486 -10.0928,11.16745 -7.47966,14.07575"
         style="fill:#000000;fill-opacity:1;fill-rule:nonzero;stroke:none"
         id="path1132"
         inkscape:connector-curvature="0" />
      <path
         d="m 204.64187,180.73708 c 1.86781,1.47315 4.35246,2.69919 5.45775,2.69919 1.08805,0 2.02198,0.72233 2.02198,1.5587 0,2.86076 16.51869,14.07574 22.29325,15.1307 7.63376,1.38762 11.79776,-0.095 17.7695,-6.31078 4.81513,-5.01825 5.07202,-5.88312 4.09535,-13.48649 -1.26805,-9.85588 -3.88119,-14.05674 -12.51739,-20.14894 -6.84563,-4.82814 -12.93734,-5.08476 -23.84411,-1.01696 -2.18474,0.81737 -5.61185,1.87233 -7.7966,2.40458 -2.43333,0.58925 -5.20916,3.54506 -7.41116,7.86948 -4.20665,8.29718 -4.20665,8.05008 -0.0684,11.30052"
         style="fill:#000000;fill-opacity:1;fill-rule:nonzero;stroke:none"
         id="path1136"
         inkscape:connector-curvature="0" />
      <path
         d="m 285.54713,385.73352 c 4.91798,9.96993 16.35593,21.66012 29.13887,29.75771 8.35355,5.30336 8.56778,5.33186 30.69832,4.82813 14.34226,-0.32313 16.02167,-0.73182 21.04237,-5.02771 2.96443,-2.52813 8.73054,-6.76702 12.62891,-9.26662 10.28978,-6.59593 18.01788,-16.73692 17.1868,-22.544 -0.11096,-0.76985 0.75399,-3.45955 1.94496,-6.05418 3.26427,-7.08065 4.2496,-32.91311 1.4908,-38.90076 -1.19955,-2.59466 -1.78205,-5.63601 -1.26812,-6.56742 1.31093,-2.34753 -8.60192,-23.86509 -12.33746,-26.78289 -1.72207,-1.3401 -4.17251,-2.44258 -5.45774,-2.44258 -1.30235,0 -4.44659,-2.13845 -7.09408,-4.83764 -2.61313,-2.66118 -8.9618,-6.35833 -14.10247,-8.21165 -6.86273,-2.4711 -11.14669,-5.44591 -16.05602,-11.14845 -6.10874,-7.09014 -6.61422,-8.3732 -5.68894,-14.35136 1.64498,-10.72076 12.06345,-19.8448 20.49408,-17.95347 2.46748,0.55125 7.63377,0.20909 11.37796,-0.74132 10.75245,-2.74672 12.0034,-7.70793 4.57514,-18.13405 -7.00833,-9.82736 -12.83448,-12.65963 -24.0582,-11.68068 -13.8712,1.20703 -25.98604,4.33391 -30.70684,7.91701 -2.17629,1.65373 -5.13207,3.06985 -6.38302,3.06985 -1.30227,0 -6.6314,4.60005 -11.92631,10.29308 -8.57629,9.20008 -9.72432,11.24349 -10.91522,19.36008 -1.18238,8.12611 -0.93393,9.72282 2.41609,15.21625 2.10772,3.45955 3.74419,6.96659 3.74419,8.04058 0,2.59464 7.47966,10.09347 13.40846,13.43895 2.8016,1.5777 6.41724,5.04674 8.2592,7.90752 1.81641,2.85126 6.85429,7.06162 11.37803,9.53272 14.64224,8.00256 23.74125,14.39889 28.08505,19.77827 3.95835,4.90418 4.24967,6.22526 3.33291,15.38733 -1.48222,14.8741 -4.72079,27.61925 -8.30215,32.67551 -4.65229,6.57692 -12.59462,12.63111 -16.56994,12.63111 -6.01469,0 -16.83571,-10.54969 -18.62628,-18.16258 -0.89114,-3.73515 -3.21302,-10.28356 -5.06372,-14.25632 -2.75013,-5.88311 -4.29233,-7.33725 -7.71951,-7.26122 -2.33893,0.0381 -6.05735,1.17853 -8.18205,2.49961 -2.18489,1.35909 -5.612,2.45209 -7.79674,2.4806 -5.75752,0.0855 -7.76246,3.23144 -7.70241,12.04183 0.051,5.35089 1.60211,11.07243 4.75508,17.46876"
         style="fill:#000000;fill-opacity:1;fill-rule:nonzero;stroke:none"
         id="path1142"
         inkscape:connector-curvature="0" />
      <path
         d="m 410.90181,251.73357 c 1.25095,1.89134 5.60333,7.17569 9.61308,11.67118 5.55187,6.22527 8.4564,8.21164 12.0034,8.21164 8.7563,0 9.35598,1.38761 9.43314,21.95475 0.0426,10.20754 1.25088,25.34775 2.66452,33.3693 2.716,15.38732 9.48447,37.02843 12.98873,41.50492 1.14803,1.46365 2.50183,4.3149 3.11862,6.5674 1.17379,4.29592 17.30694,22.11631 28.99326,32.04823 8.52483,7.2327 16.2102,9.77033 29.46441,9.70381 13.09158,-0.057 21.96771,-4.39095 27.06557,-13.22038 2.09055,-3.6306 5.60334,-8.43023 7.84807,-10.72075 2.45902,-2.51862 4.04396,-6.05419 4.04396,-9.00049 0,-5.00874 4.62652,-15.37782 6.8628,-15.37782 0.67684,0 5.98027,5.35087 11.63506,11.7472 8.70485,9.86539 25.73733,22.82914 29.97848,22.82914 0.66831,0 3.27279,0.9219 5.61185,1.98637 5.92029,2.70871 23.32983,3.74467 24.59796,1.47316 0.53131,-0.95994 2.9902,-1.72976 5.4833,-1.72976 4.72087,0 11.64366,-5.53146 19.47461,-15.55841 11.73785,-15.04519 15.06203,-16.82247 20.32266,-10.90133 1.52495,1.72975 3.96687,3.88722 5.48331,4.84714 1.5165,0.95992 6.70003,5.17981 11.68645,9.51372 4.98642,4.32443 10.21276,8.81042 11.7722,10.11249 1.91047,1.59671 7.55661,2.30003 17.83787,2.24299 12.47466,-0.0665 16.45012,-0.80785 23.22725,-4.32441 6.86274,-3.54507 8.34502,-5.13228 9.18458,-9.76082 0.8996,-5.01825 6.2289,-11.93731 9.2875,-12.06086 0.5912,-0.0285 3.0244,3.32647 5.3034,7.29923 2.2705,3.98227 6.64,10.72075 9.5016,14.70302 4.4895,6.21576 6.1516,7.34677 10.8297,7.34677 3.1272,0 6.6572,1.09298 8.1137,2.49961 1.4222,1.39713 5.4489,3.01283 9.0389,3.63061 5.6119,0.97894 6.9998,0.53225 10.5211,-3.3645 3.6842,-4.09632 4.0097,-5.53146 3.5815,-16.08114 l -0.4713,-11.58564 -5.6033,-1.76778 c -10.2899,-3.25043 -10.2899,-3.25043 -10.6154,-34.36725 -0.1628,-15.5584 0.1627,-29.68167 0.7282,-31.29737 1.208,-3.45955 5.8774,-3.55459 8.4049,-0.17107 1.0453,1.3876 2.9302,2.59463 4.0526,2.59463 1.1567,0 2.8701,1.55869 3.8126,3.45955 0.951,1.90084 2.3818,3.45953 3.1958,3.45953 0.8224,0 4.3697,2.30952 7.9509,5.17979 3.5898,2.87979 7.9253,5.18931 9.7415,5.18931 1.7736,0 6.3144,3.08887 9.8958,6.73848 3.5898,3.64963 8.5592,7.27073 10.8382,7.86949 2.339,0.62729 9.8186,4.29591 16.827,8.25917 15.1221,8.53479 24.3581,10.65423 31.6407,7.26122 6.0146,-2.80374 6.8628,-2.4806 14.3423,5.58849 9.4503,10.18851 20.5712,18.65677 31.9493,24.31177 13.3572,6.64345 33.3541,8.62033 47.07965,4.65708 4.6695,-1.35911 9.7588,-2.4426 11.4553,-2.4426 1.7134,0 4.2239,-1.32108 5.7661,-3.02233 1.4735,-1.64422 5.2177,-4.98971 8.182,-7.32774 9.5103,-7.48933 12.3376,-12.26044 12.4148,-20.9473 0.137,-15.86254 -7.8996,-18.90389 -25.5063,-9.64679 -22.139,11.64268 -22.3617,11.71871 -31.80345,11.33853 -9.0733,-0.37067 -14.9592,-2.81324 -26.3372,-10.94885 -9.5789,-6.84304 -17.3154,-32.2383 -14.8736,-48.83267 1.1909,-8.11661 4.7379,-9.77033 13.3142,-6.20624 6.5457,2.7277 7.4111,2.7182 13.0144,-0.10457 3.2815,-1.65375 11.3009,-4.51452 17.6924,-6.31082 6.39165,-1.7963 12.53465,-4.61904 13.55435,-6.22526 1.0366,-1.61572 5.3033,-3.54506 9.5101,-4.2864 11.6949,-2.0624 26.8342,-12.92573 31.1266,-22.3444 1.9021,-4.14384 3.4442,-9.96042 3.3929,-12.79268 -0.1198,-7.43231 -10.6755,-25.937 -15.1907,-26.62132 -1.8677,-0.28512 -3.4271,-1.22605 -3.4271,-2.08142 0,-1.87233 -7.6423,-5.75954 -16.6814,-8.48726 -10.9067,-3.28847 -38.97465,1.71075 -46.60005,8.30668 -2.339,2.0244 -5.4576,3.64011 -7.0168,3.64011 -5.9204,0 -34.9994,29.73869 -40.2342,41.15327 -1.8251,3.97275 -3.2473,8.26867 -3.2473,9.77032 0,1.43514 -1.8763,3.99178 -4.0525,5.53146 -3.2729,2.30003 -3.8983,3.88722 -3.2729,8.21164 0.4284,2.96533 -0.3085,8.29719 -1.6364,11.9278 -1.7564,4.7711 -2.142,9.51373 -1.4051,17.29767 1.3708,14.52244 -0.7112,18.11503 -8.8077,15.20676 -3.1187,-1.12151 -6.2031,-2.87028 -6.717,-3.8017 -1.3282,-2.42357 -12.6118,-10.19803 -14.7881,-10.19803 -0.9337,0 -5.2263,-3.49754 -9.433,-7.69841 -4.2582,-4.24838 -12.389,-10.14099 -18.155,-13.15385 -18.712,-9.78932 -21.6423,-13.73359 -17.0328,-22.89565 1.0281,-2.06241 3.6242,-5.35087 5.6548,-7.18519 10.2813,-9.30461 17.7438,-17.62081 19.7572,-22.03076 1.268,-2.76574 4.0183,-5.34137 6.4259,-6.00667 5.4576,-1.51117 14.6166,-12.15589 21.4877,-24.94858 0.8741,-1.63472 3.7957,-7.08063 6.563,-12.26994 4.1639,-7.78395 4.8407,-10.46414 4.1039,-16.08112 -1.2509,-9.51373 -8.6191,-18.15306 -15.4818,-18.15306 -10.1615,0 -17.1185,4.83765 -28.7962,20.0539 -14.5995,19.01793 -36.5844,40.45945 -41.4937,40.45945 -2.0647,0 -3.8211,-10.19803 -2.2362,-12.96375 0.5398,-0.95042 1.7736,-9.17157 2.7246,-18.15307 1.8078,-17.10758 4.2497,-36.31559 6.9828,-54.99138 1.3109,-8.99099 1.148,-11.60465 -1.011,-16.25221 -4.3525,-9.33314 -9.4417,-13.9712 -14.2568,-12.97326 -2.3391,0.48471 -5.6633,0.14256 -7.4797,-0.76985 -2.3989,-1.19752 -5.6119,-0.67479 -12.0034,1.97689 -8.105,3.35498 -16.5443,10.38811 -12.4661,10.38811 2.0563,0 1.3367,18.66628 -1.6021,41.4954 -0.9167,7.10915 -1.4823,25.07213 -1.2595,39.76565 0.4884,31.46846 0.5912,49.96366 0.3512,66.56752 -0.3768,26.97297 0.9426,81.49866 2.0478,84.37844 2.6132,6.81452 -6.2373,10.71126 -12.47476,5.48394 -4.4123,-3.70664 -10.75245,-3.11739 -19.48292,1.79629 -4.36104,2.46159 -10.30695,4.29592 -13.8712,4.29592 -5.45761,0 -6.58008,-0.71282 -8.96188,-5.70255 -3.22146,-6.72897 -5.5518,-22.13531 -5.8089,-38.37801 -0.14566,-9.07653 0.86536,-15.56791 4.04396,-25.93702 4.97796,-16.25221 8.25927,-47.46405 5.61185,-53.4327 -2.99872,-6.73849 -16.6043,-18.32412 -21.53932,-18.32412 -2.49317,0 -4.93502,-0.76985 -5.45761,-1.72978 -0.50548,-0.94091 -3.42718,-1.72977 -6.39154,-1.72977 -2.95599,0 -7.23122,-1.30208 -9.34732,-2.85126 -4.61815,-3.374 -21.04244,-4.0773 -27.90524,-1.18803 -8.4136,3.54507 -15.49908,6.0637 -21.81347,7.76495 -3.28152,0.88389 -8.6362,3.39299 -11.61788,5.44591 -2.97303,2.0434 -8.3363,5.23684 -11.6093,6.90957 -3.27286,1.67274 -8.5249,5.66451 -11.37796,8.64884 -11.03525,11.51911 -27.80231,42.36029 -31.22084,57.40547 -2.50183,11.06291 -2.64742,29.67217 -0.27414,36.64825 1.33656,3.93475 1.10523,4.12484 -4.50663,3.71617 -3.27293,-0.23762 -7.98521,0.80785 -10.52118,2.33801 -2.53619,1.52069 -7.40257,4.12484 -10.83834,5.78808 -3.43563,1.67274 -10.28126,7.17569 -15.26767,12.27944 -4.99508,5.10378 -9.94721,9.24761 -11.06953,9.24761 -3.60706,0 -18.03506,-23.34236 -18.06935,-29.21596 -0.0126,-1.49216 -0.99377,-4.84715 -2.14194,-7.26123 -3.25568,-6.85254 -4.08676,-14.52243 -4.00974,-37.00942 0.0349,-11.40506 0.0265,-23.54193 -0.0175,-26.96345 -0.0426,-3.63062 1.19083,-8.03108 2.96436,-10.54968 2.84441,-4.0488 12.08042,-8.29718 18.00078,-8.29718 1.46511,0 5.29491,-2.31904 8.56784,-5.18931 3.27286,-2.87026 7.39391,-5.18931 9.20166,-5.18931 2.92163,0 9.03903,-2.99381 17.29838,-8.47775 1.27651,-0.84588 6.2373,-3.51656 10.90677,-5.8736 4.67792,-2.35705 10.59827,-6.68147 13.02287,-9.50423 4.21525,-4.92318 4.38674,-5.71203 3.37572,-15.38732 -1.73925,-16.59437 -3.61557,-17.89645 -21.84775,-15.14972 -9.66448,1.46365 -14.22236,3.01283 -16.83564,5.72153 -2.00494,2.08143 -7.00833,4.43847 -11.37796,5.36038 -4.36104,0.92191 -9.98135,3.03186 -12.78309,4.79962 -7.15398,4.54303 -9.19321,1.68226 -6.70004,-9.38065 1.01103,-4.4955 2.58744,-11.47159 3.42718,-15.21626 0.85671,-3.80167 2.15898,-8.46824 2.88728,-10.36909 0.73688,-1.91985 2.54463,-8.04057 4.05269,-13.7526 1.51636,-5.70254 4.00974,-12.70714 5.61185,-15.72948 1.60211,-3.03184 3.9925,-9.59926 5.38052,-14.78856 1.37936,-5.1798 3.04153,-10.10299 3.73547,-11.0629 0.69401,-0.95994 2.32188,-5.17981 3.66696,-9.51373 2.14194,-6.90957 2.15919,-8.19264 0.15425,-11.576133 -1.23363,-2.08143 -2.26191,-5.21782 -2.26191,-6.91907 0,-4.33393 -11.06946,-10.89183 -18.39494,-10.89183 -9.34732,0 -19.96284,5.92112 -21.98489,12.27944 -0.95097,2.99383 -4.20666,9.162073 -7.39391,13.999723 -3.40993,5.18929 -5.84312,11.03439 -6.07446,14.60796 -0.21416,3.28847 -1.23382,7.05214 -2.26189,8.39223 -1.0282,1.33059 -1.41371,3.97277 -0.85677,5.87361 0.65113,2.22399 -0.10216,5.18931 -2.10759,8.29719 -1.74798,2.71819 -3.90696,8.64883 -4.90947,13.49599 -0.9766,4.69508 -3.13579,13.5625 -4.75501,19.44562 -1.61083,5.8736 -2.9902,13.76209 -3.033,17.28816 -0.051,3.63062 -1.07094,7.96454 -2.339,9.85588 -1.25088,1.86284 -2.2619,7.00462 -2.2619,11.5001 0,12.65011 -4.2068,17.06007 -17.14406,17.96297 -7.32548,0.51323 -12.20905,1.97687 -17.61526,5.30335 -7.79667,4.79014 -8.87613,7.79346 -4.93502,13.73359 z m 194.64216,79.88294 c 1.19942,-5.1893 2.85306,-10.79678 3.71829,-12.62159 0.85685,-1.7963 2.79308,-6.57693 4.29254,-10.54969 2.57885,-6.87154 9.27024,-14.61748 25.32625,-29.3205 12.31176,-11.28151 17.74367,-14.4274 24.94067,-14.4274 l 6.85415,0 -1.01103,6.49137 c -0.5568,3.53557 -1.40506,10.8063 -1.87625,15.98611 -0.49696,5.53144 -2.09055,11.25297 -3.81262,13.65755 -1.61084,2.2525 -2.96451,5.34137 -2.96451,6.74798 0,3.29798 -9.9729,21.375 -14.02531,25.41429 -1.71362,1.71075 -3.11868,4.20086 -3.11868,5.53146 0,4.27688 -21.04243,26.45972 -25.09498,26.45972 -4.05248,0 -10.75252,-6.30129 -10.83813,-10.20752 -0.0426,-1.54917 -1.03672,-4.66657 -2.27043,-7.08064 -2.67318,-5.27484 -2.67318,-5.01823 -0.11968,-16.08114 z m 384.41768,-79.88294 c 5.1406,-3.77317 10.42695,-7.67941 11.60935,-8.60131 2.9043,-2.243 5.9887,0.81736 4.6694,4.62856 -0.8054,2.30951 -21.81365,15.20674 -24.76935,15.20674 -0.5228,0 -0.934,-0.95042 -0.934,-2.15746 0,-1.17852 4.284,-5.30335 9.4246,-9.07653"
         style="fill:#000000;fill-opacity:1;fill-rule:nonzero;stroke:none"
         id="path1156"
         inkscape:connector-curvature="0" />
      <path
         d="m 413.13809,784.43539 c 3.32432,17.11714 18.16353,42.26527 31.52926,53.44225 4.52374,3.78264 8.7563,7.76495 9.35612,8.80086 0.60819,1.06447 4.05241,3.24093 7.79646,4.93269 3.73553,1.69176 8.35368,3.90623 10.44423,5.01828 2.29603,1.2165 12.77448,1.91979 27.27105,1.81528 25.41186,-0.19009 23.38988,0.40869 44.88647,-13.22035 8.70484,-5.52198 12.1661,-11.68068 12.1661,-21.70766 0,-4.83763 -0.99378,-7.76495 -3.51265,-10.37861 -3.41852,-3.53554 -3.82135,-3.56405 -15.979,-1.2355 -21.50497,4.14383 -26.98834,6.31079 -30.68973,12.12737 -0.60819,0.9504 -6.47715,1.57768 -13.02287,1.38759 -11.69498,-0.34211 -12.07191,-0.4942 -19.40597,-7.78395 -4.05253,-4.02975 -7.55666,-8.78192 -7.64241,-10.3691 -0.0773,-1.55868 -1.3279,-4.2389 -2.64742,-5.71201 -1.98769,-2.20502 -2.49324,-6.39636 -2.49324,-20.74776 0,-19.36005 1.11388,-24.93903 8.47357,-42.36027 6.21158,-14.6935 13.17711,-23.53244 22.54167,-28.61719 4.05262,-2.19548 9.33887,-5.75956 11.53221,-7.77445 2.53612,-2.32853 7.79667,-4.2864 14.02538,-5.21782 20.1085,-3.03185 27.90524,-6.90956 27.90524,-13.88566 0,-6.05419 -6.46018,-18.10553 -11.37796,-21.22291 -3.34157,-2.11944 -9.66447,-3.45953 -19.17463,-4.07731 -16.2102,-1.05497 -31.51215,2.9273 -40.98817,10.65422 -2.96441,2.41408 -6.16877,4.43848 -7.01696,4.43848 -4.05255,0 -16.04736,8.30667 -22.75592,15.73898 -9.51023,10.54968 -24.93215,36.32511 -24.93215,41.66649 0,1.30208 -1.44786,5.53144 -3.12727,9.16206 -3.6155,7.80296 -5.4148,33.5404 -3.16141,45.126"
         style="fill:#000000;fill-opacity:1;fill-rule:nonzero;stroke:none"
         id="path1158"
         inkscape:connector-curvature="0" />
      <path
         d="m 577.56157,776.48992 c 1.15683,10.02692 3.5558,22.41089 5.36355,27.65727 1.78206,5.1893 3.27279,10.92981 3.27279,12.62157 0,6.06368 4.66948,13.03026 14.34247,21.37498 19.79148,17.08858 25.81455,18.93242 44.26089,13.58153 11.84915,-3.43103 16.21019,-8.09762 16.21019,-17.31667 0,-5.88315 -0.7882,-7.73644 -4.60083,-10.89186 -2.49331,-2.06239 -5.30343,-3.80165 -6.15162,-3.80165 -0.89106,0 -2.86172,-1.55874 -4.60097,-3.63063 -1.67927,-2.01493 -4.67799,-3.47853 -6.6999,-3.28844 -2.03063,0.19003 -4.49818,0.2661 -5.53476,0.15202 -2.46762,-0.2471 -7.49684,-18.65675 -9.96425,-36.45812 -2.48479,-17.98203 -2.63904,-69.43784 -0.2314,-77.81105 2.03916,-7.09966 4.18955,-18.6758 6.59711,-35.44124 0.95971,-6.73848 2.76746,-15.92905 4.06973,-20.74769 1.27658,-4.7331 4.09542,-15.21626 6.22885,-23.17128 2.13321,-7.95503 6.64843,-20.58614 9.98135,-27.92339 l 6.07446,-13.40095 -3.82115,-6.31078 c -2.09062,-3.45955 -3.81276,-7.05215 -3.81276,-7.95505 0,-0.88389 -2.81005,-3.19341 -6.08305,-5.00872 -5.39762,-3.00334 -7.17123,-3.18391 -15.89311,-1.64423 -12.93734,2.29052 -15.50753,4.33393 -21.97616,17.45925 -6.06601,12.33647 -7.00847,15.04517 -12.83448,36.82884 -2.31344,8.64884 -4.8837,17.86792 -5.80046,20.74771 -0.89099,2.85126 -3.35861,17.63982 -5.47486,32.85607 -4.75508,34.23419 -6.06587,84.24537 -2.92163,111.52251"
         style="fill:#000000;fill-opacity:1;fill-rule:nonzero;stroke:none"
         id="path1188"
         inkscape:connector-curvature="0" />
      <path
         d="m 671.80679,766.11125 c 0.58277,4.32448 2.1934,10.084 3.62416,12.97326 1.39661,2.81331 3.75271,7.94553 5.14066,11.23404 2.51035,5.8736 10.70113,15.5584 13.17726,15.5584 0.70253,0 1.58494,1.4731 2.02198,3.37396 0.41987,1.84385 4.90933,5.79758 9.89574,8.73441 4.98642,2.92726 11.44646,7.23268 14.26531,9.50422 2.81026,2.27147 8.09644,4.93269 11.68639,5.88309 3.58987,0.9409 9.36456,2.50907 12.78308,3.45953 3.41,0.9409 13.55426,2.27148 22.44748,2.93683 14.6424,1.09298 16.8185,0.86482 22.5932,-2.38562 9.0475,-5.08472 17.4867,-9.02895 19.3288,-9.02895 0.8739,0 2.853,-2.41412 4.5238,-5.53148 2.9216,-5.4649 2.9216,-5.61699 -0.077,-12.19394 -1.6622,-3.63056 -5.4492,-8.69634 -8.345,-11.14841 l -5.2949,-4.49551 -13.4086,4.9232 c -18.0778,6.63396 -33.5598,6.29178 -46.44575,-1.01697 -9.13316,-5.1893 -20.93092,-26.55478 -20.97386,-37.96936 -0.0126,-3.80164 10.40129,-7.06158 12.69748,-3.97273 2.16764,2.89876 19.80852,3.14592 30.40703,0.41819 19.483,-5.01822 24.0752,-7.44178 34.7593,-18.41919 16.8356,-17.27866 21.3079,-32.89409 13.4256,-46.83676 -4.6866,-8.29719 -10.3069,-12.48855 -16.8527,-12.56458 -2.8275,-0.0285 -7.9509,-1.17853 -11.378,-2.55663 -10.8382,-4.35294 -36.94425,-0.45621 -53.00006,7.89799 -3.39289,1.76779 -10.12708,5.13228 -14.80514,7.3943 -4.66947,2.26198 -10.45261,6.12071 -12.69748,8.47774 -2.29598,2.39507 -6.62281,6.03518 -9.74149,8.17363 -8.43929,5.80708 -15.87587,17.06008 -17.7952,26.92545 -2.55316,13.13482 -3.11003,21.69814 -1.962,30.25189"
         style="fill:#000000;fill-opacity:1;fill-rule:nonzero;stroke:none"
         id="path1208"
         inkscape:connector-curvature="0" />
      <path
         d="m 821.39975,779.94939 c 0.7367,7.51785 2.4761,12.09887 8.3364,21.95476 4.1125,6.90957 8.6533,12.86874 10.2128,13.40094 1.5851,0.54177 4.3182,3.19343 6.3058,6.13976 1.9877,2.93677 4.6609,5.1798 6.1602,5.1798 1.4821,0 4.5924,1.14049 7.0855,2.59465 2.4933,1.4541 5.7833,2.59465 7.4882,2.59465 1.7136,0 4.2925,0.7128 5.9204,1.64419 1.585,0.90289 8.8848,1.75827 16.2102,1.90086 11.061,0.2186 14.2224,-0.35168 18.6262,-3.37402 2.9644,-2.02438 6.5372,-3.63056 8.1051,-3.63056 3.1444,0 10.5984,-6.23478 21.3509,-17.85844 7.4882,-8.07856 7.7195,-8.19264 11.5321,-5.48397 2.1849,1.54923 4.4895,4.51457 5.2435,6.74804 1.6365,4.87562 8.9448,8.42073 15.9532,7.74594 2.8615,-0.26616 7.6424,0.12352 10.7611,0.89339 4.5752,1.13099 7.1711,0.4942 14.0253,-3.43103 12.00345,-6.86206 17.61535,-11.89927 21.03395,-18.86585 1.7821,-3.63062 4.1554,-6.05424 5.9288,-6.05424 2.6218,0 2.8446,0.95046 1.9534,8.21164 -0.5569,4.4955 -1.4222,10.55925 -1.9105,13.401 -1.1053,6.3963 5.0035,17.57328 9.1589,16.7654 1.5079,-0.29461 4.0439,0.56078 5.9203,1.99593 1.8678,1.4256 4.1383,2.16696 5.3035,1.72977 1.088,-0.41819 2.4846,0.0189 3.0157,0.9504 1.7051,2.95583 7.1114,2.12895 15.8418,-2.43307 8.0451,-4.20089 8.3023,-4.57158 9.9729,-14.25638 0.951,-5.53142 2.4075,-11.8232 3.2729,-14.18025 0.8482,-2.30955 1.8421,-8.99101 2.1763,-14.69352 0.3426,-5.72157 0.9852,-16.33777 1.4136,-23.42793 0.4198,-7.09009 1.5593,-16.65136 2.5103,-21.08982 2.5446,-11.89929 9.3304,-15.50139 31.1523,-16.52783 10.4442,-0.48472 17.4612,-1.64424 19.4059,-3.18392 1.6795,-1.3401 6.306,-2.42357 10.3585,-2.42357 4.5238,0 8.0452,-0.98844 9.2018,-2.59466 1.0367,-1.43513 4.1296,-2.59466 6.9313,-2.59466 3.1186,0 6.1431,-1.32108 7.8739,-3.45952 1.6791,-2.07192 3.9581,-3.06986 5.6888,-2.49961 1.6364,0.54174 5.1407,-0.58927 8.1051,-2.59466 2.8017,-1.90084 6.2288,-3.54506 7.4025,-3.54506 1.208,0 4.2067,-1.78679 6.7001,-3.97277 3.9668,-3.48805 4.3866,-4.7616 3.4356,-10.29307 -0.9938,-5.75954 -1.8763,-6.63393 -9.9814,-10.03645 -9.039,-3.80168 -23.1243,-3.89672 -27.2711,-0.19008 -1.0196,0.90289 -4.3696,2.05291 -7.3255,2.50911 -5.2264,0.79835 -19.0203,4.44797 -31.9577,8.46826 -3.7955,1.16901 -18.5492,1.82481 -37.7152,1.67275 l -31.4865,-0.26613 -10.2128,9.68481 -10.2042,9.68478 0,13.48648 c 0,21.44153 -0.7453,23.55144 -9.9728,28.37012 -4.3696,2.27147 -11.1123,7.32775 -14.9678,11.22448 -3.8983,3.93473 -7.49685,7.09009 -8.10515,7.09009 -0.5827,0 -2.0219,1.01697 -3.1186,2.20503 -4.3611,4.76161 -9.8188,8.16413 -13.0916,8.16413 -4.4466,0 -5.4319,-5.53147 -3.667,-20.57667 0.7282,-6.22527 1.3623,-15.37782 1.4137,-20.13942 0.043,-4.83765 1.0196,-10.27407 2.2105,-12.19392 2.5103,-4.05829 5.6546,-17.63032 5.6546,-24.3688 0,-5.36039 -2.4589,-9.17158 -5.9202,-9.17158 -1.3194,0 -3.4271,-1.00745 -4.8323,-2.3 -3.35,-3.09838 -15.7389,-8.06909 -20.1085,-8.06909 -1.9277,0 -6.3915,1.58719 -9.6645,3.43102 -8.5676,4.85665 -9.9042,4.46697 -13.5456,-3.95376 -3.0157,-6.9856 -3.9067,-7.71743 -10.9237,-8.93396 -10.5983,-1.84381 -15.679,-1.73927 -25.4034,0.53224 -4.6781,1.09298 -11.7635,2.4806 -15.5848,3.04135 -3.8983,0.57975 -8.3964,2.34754 -10.1356,3.98227 -1.6963,1.6062 -5.0635,4.3149 -7.4025,5.95915 -2.3476,1.66322 -6.1517,6.31078 -8.4136,10.29304 -2.279,4.00128 -8.5763,11.79475 -14.0253,17.37372 -5.4576,5.57897 -9.9044,10.85382 -9.9044,11.75672 0,0.91241 -1.3707,3.71615 -3.0929,6.3108 -2.9046,4.37193 -8.0452,25.76593 -7.5655,31.46843 0.1199,1.41616 0.6427,6.90957 1.1568,12.10837 z m 53.694,-28.18947 c 5.3805,-8.99099 25.1379,-30.60358 27.9738,-30.60358 0.7795,0 4.2924,-2.2335 7.8736,-5.00872 4.3096,-3.34548 9.1933,-5.33188 14.6509,-5.96866 l 8.1823,-0.95041 0,8.63934 c 0,7.51783 -4.0012,20.92828 -9.0304,30.26142 -10.247,19.01792 -35.916,50.9996 -40.6883,50.68599 -5.7661,-0.37068 -9.7759,-2.77524 -12.7403,-7.63193 -2.6474,-4.35292 -3.0586,-7.17567 -2.536,-17.54477 0.5398,-10.73028 1.3794,-13.62904 6.3144,-21.87868"
         style="fill:#000000;fill-opacity:1;fill-rule:nonzero;stroke:none"
         id="path1234"
         inkscape:connector-curvature="0" />
      <path
         d="m 1100.3227,126.38245 c 5.0124,5.70255 9.9558,10.36912 10.9754,10.36912 1.0537,0 4.6866,1.5967 8.2679,3.63061 8.1051,4.60003 17.0411,3.28845 21.1709,-3.10788 2.7074,-4.21038 8.4392,-6.63395 26.6799,-11.28151 8.1051,-2.06241 11.4036,0.13306 8.3364,5.57897 -1.0709,1.90084 -1.9449,4.89467 -1.9449,6.65296 0,1.75828 -1.4051,5.18929 -3.1186,7.60337 -1.7135,2.42357 -3.1187,5.58848 -3.1187,7.0046 0,2.75623 -18.9091,52.21617 -24.9235,65.17993 -1.9963,4.32442 -4.2239,11.24348 -5.0036,15.5679 -0.7882,4.35293 -2.0906,11.58564 -2.9645,16.42329 -0.8738,4.83764 -1.7306,10.92984 -1.9449,13.82863 -0.214,2.87027 -1.9361,9.6848 -3.8298,15.21625 -6.4172,18.67579 -3.6583,31.554 9.5189,44.48924 7.6339,7.48932 14.9679,11.68068 22.9101,13.08731 2.9216,0.52273 5.6119,-1.03596 10.7525,-6.22527 l 6.8628,-6.90955 -0.9339,-11.41458 c -0.5397,-6.56741 -0.2742,-12.80217 0.6169,-14.69352 0.9852,-2.08141 1.0195,-4.37194 0.086,-6.22525 -0.9853,-1.96738 -0.7283,-5.27484 0.7711,-9.94142 1.2337,-3.80169 1.8764,-8.5823 1.4136,-10.46414 -0.4798,-1.90085 0.1197,-6.56741 1.3195,-10.37859 1.2166,-3.83971 3.0844,-10.36911 4.2068,-14.69353 1.1223,-4.31492 2.93,-9.27611 4.0525,-11.14845 1.1394,-1.90085 2.0305,-4.61905 2.0305,-6.22525 0,-1.56821 1.3965,-4.24839 3.1187,-5.96865 1.6536,-1.64424 3.1102,-5.09427 3.1102,-7.34677 0,-2.34754 1.3107,-6.31081 2.9471,-8.90545 3.4015,-5.38888 6.4259,-12.79268 11.0011,-26.97296 1.8507,-5.70253 3.9497,-11.14845 4.678,-12.09888 0.7368,-0.95042 1.8164,-5.10376 2.416,-9.2476 0.5997,-4.15334 2.0392,-9.54223 3.2044,-12.02283 2.9559,-6.29179 4.3781,-20.91877 3.0501,-31.45896 -1.0109,-8.07858 -2.1162,-9.95091 -13.1086,-22.220863 l -12.0034,-13.40094 -17.1442,0.25661 c -9.5101,0.14256 -21.6249,1.45415 -27.2024,2.9368 -5.5263,1.47316 -15.6619,3.97277 -22.516,5.55998 -25.2578,5.80707 -29.9187,7.56534 -37.5697,14.094753 -8.0708,6.90006 -7.2484,12.25093 3.8298,24.87252"
         style="fill:#000000;fill-opacity:1;fill-rule:nonzero;stroke:none"
         id="path1284"
         inkscape:connector-curvature="0" />
      <path
         d="m 1134.5252,423.25617 c 1.6536,3.89674 4.6781,6.64345 10.29,9.33315 4.3609,2.08142 10.4097,5.63599 13.3999,7.85048 8.2764,6.15874 12.0377,5.28435 20.5284,-4.74261 9.0646,-10.72075 10.3069,-15.14022 6.7171,-24.03617 -3.847,-9.51371 -6.0489,-11.2625 -19.6032,-15.59642 -13.5626,-4.34343 -21.1109,-3.14589 -29.4644,4.65707 -3.7098,3.47855 -4.6179,5.67403 -4.438,10.68274 0.1284,3.45954 1.2937,8.81041 2.5702,11.85176"
         style="fill:#000000;fill-opacity:1;fill-rule:nonzero;stroke:none"
         id="path1292"
         inkscape:connector-curvature="0" />
    </g>
  </g>
</svg>
