<?xml version="1.0" encoding="UTF-8" standalone="no"?>
<!-- Created with Inkscape (http://www.inkscape.org/) -->

<svg
   xmlns:dc="http://purl.org/dc/elements/1.1/"
   xmlns:cc="http://creativecommons.org/ns#"
   xmlns:rdf="http://www.w3.org/1999/02/22-rdf-syntax-ns#"
   xmlns:svg="http://www.w3.org/2000/svg"
   xmlns="http://www.w3.org/2000/svg"
   xmlns:sodipodi="http://sodipodi.sourceforge.net/DTD/sodipodi-0.dtd"
   xmlns:inkscape="http://www.inkscape.org/namespaces/inkscape"
   width="122.94934mm"
   height="20.212128mm"
   viewBox="0 0 435.64727 71.617773"
   id="svg6079"
   version="1.1"
   inkscape:version="0.91 r13725"
   sodipodi:docname="buttonMode_0.svg">
  <defs
     id="defs6081" />
  <sodipodi:namedview
     id="base"
     pagecolor="#ffffff"
     bordercolor="#666666"
     borderopacity="1.0"
     inkscape:pageopacity="0.0"
     inkscape:pageshadow="2"
     inkscape:zoom="1.0806949"
     inkscape:cx="192.19329"
     inkscape:cy="182.25046"
     inkscape:document-units="px"
     inkscape:current-layer="layer1"
     showgrid="false"
     inkscape:snap-global="true"
     fit-margin-top="0"
     fit-margin-left="0"
     fit-margin-right="0"
     fit-margin-bottom="0"
     inkscape:window-width="956"
     inkscape:window-height="1041"
     inkscape:window-x="960"
     inkscape:window-y="18"
     inkscape:window-maximized="0" />
  <metadata
     id="metadata6084">
    <rdf:RDF>
      <cc:Work
         rdf:about="">
        <dc:format>image/svg+xml</dc:format>
        <dc:type
           rdf:resource="http://purl.org/dc/dcmitype/StillImage" />
        <dc:title></dc:title>
      </cc:Work>
    </rdf:RDF>
  </metadata>
  <g
     inkscape:label="Layer 1"
     inkscape:groupmode="layer"
     id="layer1"
     transform="translate(57.95017,-138.29277)">
    <path
       d="m 377.5859,153.50848 c -0.0602,-0.15009 -0.11227,-0.51855 -0.11569,-0.81947 -0.003,-0.30393 -0.14376,-0.96881 -0.31763,-1.50161 -0.17319,-0.53206 -0.31147,-1.15492 -0.31147,-1.40631 0,-0.24239 -0.11501,-0.69565 -0.24917,-0.98231 -0.13349,-0.28667 -0.2485,-0.71216 -0.2485,-0.92153 0,-0.21838 -0.0493,-0.44651 -0.11226,-0.51855 -0.0623,-0.0728 -0.30531,-0.55307 -0.54832,-1.08587 -0.24302,-0.53206 -0.57913,-1.10388 -0.75916,-1.28999 -0.17662,-0.1816 -0.46002,-0.65513 -0.62294,-1.03709 -0.21015,-0.49454 -0.53532,-0.92078 -1.09596,-1.43558 -0.93372,-0.85924 -2.21724,-1.78902 -2.91412,-2.11321 -0.2615,-0.12232 -0.58597,-0.28291 -0.70371,-0.34895 -0.12459,-0.0705 -0.27382,-0.12307 -0.34843,-0.12307 -0.0705,0 -0.34227,-0.15684 -0.59145,-0.34144 -0.24917,-0.18461 -0.56407,-0.34145 -0.68524,-0.34145 -0.12389,0 -0.48533,-0.0848 -0.80913,-0.19061 -0.32447,-0.10581 -1.04598,-0.2664 -1.61895,-0.35945 -1.25751,-0.20562 -5.35726,-0.21162 -5.54209,-0.009 -0.0753,0.0825 -0.26765,0.15008 -0.42921,0.15008 -0.16155,0 -0.45454,0.0908 -0.65374,0.20337 -0.51957,0.29342 -1.35746,0.58609 -1.99271,0.69565 -0.31353,0.0548 -0.8153,0.23864 -1.13978,0.41799 -0.32379,0.17935 -0.61199,0.32118 -0.65374,0.32118 -0.11363,0 -1.79283,0.91327 -2.59033,1.40931 -0.38608,0.23939 -0.94193,0.67689 -1.24518,0.97931 -0.29846,0.29792 -0.79681,0.70315 -1.09528,0.89151 -0.69755,0.4405 -1.35266,1.17067 -1.4533,1.62093 -0.0424,0.19061 -0.18482,0.50579 -0.30941,0.68214 -0.12459,0.17785 -0.23,0.40298 -0.23,0.49153 0,0.0938 -0.11227,0.27466 -0.2615,0.42249 -0.3012,0.29868 -0.74273,1.18869 -0.83994,1.69372 -0.12869,0.66864 -0.0281,2.22053 0.1643,2.53946 0.10678,0.1771 0.18961,0.41424 0.18961,0.54556 0,0.13133 0.0952,0.3482 0.21837,0.49829 0.18209,0.22288 0.21221,0.49153 0.1862,1.65244 -0.0171,0.76394 -0.0856,1.75226 -0.15266,2.20477 -0.17182,1.15716 -0.39703,5.52841 -0.35185,6.83942 0.0274,0.7917 -0.0116,1.17142 -0.13692,1.33726 -0.14101,0.18836 -0.14511,0.32794 -0.0219,0.73767 0.1328,0.44126 0.13006,5.74755 -0.005,10.40247 -0.0123,0.41348 -0.0726,3.35817 -0.13418,6.55275 -0.0643,3.31765 -0.18962,6.58577 -0.29298,7.63113 -0.11432,1.1609 -0.15061,2.29406 -0.0993,3.09927 0.0554,0.8735 0.0363,1.32901 -0.0616,1.46108 -0.1198,0.16059 -0.31763,2.75709 -0.29847,3.91801 0.0383,2.32032 0.003,3.45497 -0.11499,3.74088 -0.10679,0.25665 -0.10269,0.44351 0.0144,0.75719 0.0869,0.23188 0.12527,0.50729 0.0869,0.62135 -0.0376,0.11332 0.0123,0.45702 0.11227,0.77145 0.10063,0.31668 0.18073,0.84573 0.18073,1.20143 0,0.35496 0.063,0.70391 0.14306,0.79171 0.0801,0.087 0.13623,0.36171 0.12733,0.6206 -0.0315,0.94179 1.52449,2.92893 2.19534,2.80211 0.12459,-0.0233 0.319,0.03 0.41073,0.11256 0.0972,0.0878 0.56064,0.18461 1.04598,0.21837 0.48604,0.0345 0.99054,0.10732 1.13977,0.16435 0.20742,0.0796 0.37993,-0.009 0.76533,-0.39247 0.63526,-0.63037 0.7263,-1.02059 0.39977,-1.71698 -0.13485,-0.28667 -0.24985,-0.76544 -0.24985,-1.03785 0,-0.47202 -0.0849,-0.92829 -0.39568,-2.12972 -0.089,-0.3437 -0.0862,-1.3035 0.01,-3.20134 0.0753,-1.48735 0.13964,-2.8021 0.14307,-2.91467 0.003,-0.11255 -0.0137,-0.57332 -0.0376,-1.02358 -0.0465,-0.8675 0.01,-1.43332 0.34433,-3.45348 0.17388,-1.05135 0.18482,-1.38529 0.0609,-1.93911 -0.0828,-0.36846 -0.102,-0.74817 -0.0438,-0.84649 0.0589,-0.0983 0.1417,-0.60034 0.18688,-1.1324 0.0452,-0.5328 0.13896,-1.3185 0.21221,-1.77551 0.16429,-1.02359 0.2129,-3.6696 0.0787,-4.28646 -0.065,-0.30017 -0.0438,-0.55757 0.0644,-0.77144 0.102,-0.20262 0.13418,-0.56658 0.0869,-0.98981 -0.0507,-0.45026 -0.0205,-0.75344 0.091,-0.92829 0.23069,-0.35871 0.44701,-3.34466 0.41552,-5.71978 -0.0281,-2.11622 0.0698,-2.52594 0.60172,-2.52594 0.1684,0 0.52299,0.1028 0.77216,0.22362 0.67702,0.32719 1.51902,0.47428 3.17562,0.55382 1.59362,0.0765 2.37812,-0.10505 3.73557,-0.86524 0.34912,-0.19511 0.7352,-0.31594 0.87827,-0.27391 0.14034,0.0413 0.39841,-0.008 0.57297,-0.10881 0.17456,-0.10131 0.65374,-0.28742 1.06447,-0.41349 1.03367,-0.31669 1.40675,-0.48028 2.09198,-0.91852 0.32379,-0.20637 0.68386,-0.38123 0.78517,-0.38123 0.24096,0 0.6469,-0.23638 1.08295,-0.62961 0.1992,-0.1801 0.44769,-0.32644 0.55448,-0.32644 0.10817,0 0.27998,-0.0803 0.39225,-0.18385 0.10816,-0.10055 0.3984,-0.27015 0.63526,-0.37146 0.57228,-0.24614 1.24176,-0.74293 1.4574,-1.08287 0.0958,-0.15009 0.25739,-0.27316 0.36007,-0.27316 0.41142,0 1.93522,-1.47384 2.28639,-2.21152 0.14923,-0.31217 0.55311,-0.86074 0.91455,-1.24046 0.85911,-0.90426 1.20822,-1.43707 1.20822,-1.84455 0,-0.19136 0.0733,-0.4375 0.16772,-0.55982 0.0924,-0.12007 0.25671,-0.70991 0.36486,-1.31025 0.31489,-1.74776 0.48603,-2.4404 0.6558,-2.66253 0.18346,-0.23864 0.23001,-4.27295 0.0541,-4.7097 z m -6.60314,3.63133 c -0.0643,0.13357 -0.11911,0.42999 -0.11911,0.64837 0,0.21837 -0.13075,0.58083 -0.28615,0.7917 -0.15881,0.21613 -0.35322,0.64162 -0.43605,0.95605 -0.0828,0.31368 -0.22727,0.59959 -0.32378,0.64162 -0.0965,0.0413 -0.25534,0.25214 -0.35529,0.47052 -0.28614,0.62811 -1.80514,2.56271 -2.14811,2.73681 -0.18619,0.0946 -0.31147,0.26941 -0.31147,0.4375 0,0.15009 -0.10953,0.32419 -0.23616,0.37522 -0.13006,0.0525 -0.60446,0.47727 -1.05215,0.94179 -0.44838,0.46527 -0.97274,0.89001 -1.16441,0.94254 -0.18963,0.0518 -0.54832,0.24239 -0.78518,0.41649 -0.23617,0.1741 -0.52368,0.32043 -0.62841,0.32043 -0.10748,0 -0.41073,0.12382 -0.68523,0.27991 -0.26903,0.15309 -0.75916,0.31668 -1.08364,0.36171 -0.32311,0.045 -0.77149,0.22738 -0.98986,0.40298 -0.22384,0.1801 -0.54284,0.32118 -0.72835,0.32118 -0.18209,0 -0.65375,0.12157 -1.05215,0.27166 -0.78449,0.29492 -2.48011,0.37521 -2.62387,0.12382 -0.0445,-0.0765 -0.25328,-0.10056 -0.47712,-0.0548 -0.28684,0.0593 -0.55381,-0.006 -0.9529,-0.23188 l -0.5538,-0.31443 0.0438,-2.86665 c 0.0904,-5.87061 0.1992,-8.05961 0.45865,-9.21528 0.26012,-1.16016 0.0513,-2.94393 -0.45591,-3.89023 -0.26355,-0.49153 -0.26493,-0.51704 -0.0589,-0.94178 0.45111,-0.92829 0.56132,-1.07837 0.94604,-1.27949 0.22452,-0.11781 0.44358,-0.34069 0.5004,-0.50954 0.12459,-0.36696 1.57925,-1.46109 2.7998,-2.10571 0.48534,-0.25664 1.17537,-0.65812 1.55666,-0.90652 0.75984,-0.49528 2.35689,-1.17292 2.5157,-1.06711 0.0548,0.0368 0.94605,-0.0293 1.9804,-0.14633 2.16659,-0.24464 2.27475,-0.22288 3.8848,0.7812 1.64908,1.02809 2.59649,2.92592 2.77584,5.56068 0.0281,0.41124 0.0767,1.11289 0.10747,1.54964 0.0308,0.43675 0.089,0.83598 0.12938,0.88025 0.11021,0.12232 -0.0582,3.0445 -0.19099,3.31766"
       style="fill:#000000;fill-opacity:1;fill-rule:nonzero;stroke:none"
       id="path74"
       inkscape:connector-curvature="0" />
    <path
       d="m 344.05817,154.84649 c -0.0513,-0.21012 -0.12732,-0.99657 -0.1684,-1.74775 -0.0411,-0.75043 -0.11979,-1.42657 -0.17455,-1.50161 -0.0555,-0.0765 -0.13759,-0.45026 -0.1862,-0.84649 -0.0486,-0.39547 -0.19236,-0.93578 -0.3238,-1.22169 -0.1328,-0.28667 -0.23685,-0.58684 -0.23685,-0.6829 0,-0.0931 -0.1766,-0.49828 -0.39018,-0.89376 -0.63253,-1.17367 -1.35335,-2.72331 -1.35335,-2.90791 0,-0.0976 -0.20537,-0.35346 -0.45455,-0.56658 -0.24917,-0.21387 -0.74068,-0.6949 -1.0898,-1.06711 -0.55516,-0.59209 -1.17057,-1.07537 -2.19123,-1.71924 -0.17456,-0.11031 -0.42099,-0.29566 -0.56064,-0.42174 -0.13622,-0.12307 -0.56064,-0.36471 -0.93441,-0.53205 -0.37308,-0.1681 -0.76875,-0.41274 -0.87006,-0.53956 -0.24438,-0.30467 -0.91045,-0.54631 -1.50806,-0.54631 -0.26149,0 -0.50382,-0.0518 -0.54216,-0.11632 -0.0377,-0.0645 -0.27381,-0.15159 -0.53531,-0.19736 -0.27382,-0.048 -0.52848,-0.19512 -0.6161,-0.35496 -0.12458,-0.22738 -0.28682,-0.27315 -0.95905,-0.27315 -0.48602,0 -0.95905,-0.0848 -1.18289,-0.21087 -0.43606,-0.24539 -1.07474,-0.27916 -1.19796,-0.0623 -0.0472,0.0833 -0.18414,0.12157 -0.30873,0.0848 -0.48603,-0.14183 -1.66002,0.18085 -2.05501,0.56432 -0.21426,0.20787 -0.5668,0.45701 -0.79065,0.55907 -0.37376,0.17035 -0.42716,0.16059 -0.6914,-0.11781 -0.3361,-0.35421 -0.3847,-0.35496 -0.69755,-0.012 -0.21973,0.24089 -0.36075,0.2724 -0.88374,0.19586 -0.62089,-0.0916 -1.04667,-0.003 -2.16727,0.44951 -0.27383,0.11031 -0.71125,0.22888 -0.97138,0.2634 -0.4607,0.06 -0.84062,0.19961 -1.20754,0.442 -0.102,0.0675 -0.61061,0.38797 -1.12129,0.70616 -0.93372,0.58308 -1.60731,1.10988 -2.3035,1.80328 -0.21153,0.21087 -0.47096,0.40598 -0.59761,0.45026 -0.22042,0.0773 -1.45603,1.81904 -1.61005,2.27005 -0.0459,0.13433 -0.28957,0.35045 -0.53874,0.47727 -0.2615,0.13358 -0.52847,0.40899 -0.62841,0.64912 -0.0972,0.23189 -0.22659,0.50654 -0.29299,0.62061 -0.065,0.11256 -0.24438,0.57333 -0.39841,1.02434 -0.15402,0.45025 -0.35253,0.91702 -0.44222,1.03709 -0.0904,0.12157 -0.16154,0.45776 -0.16154,0.75793 0,0.40299 -0.11022,0.70991 -0.43606,1.21495 -0.23754,0.36846 -0.43606,0.75343 -0.43606,0.84649 0,0.0953 -0.10884,0.39622 -0.24848,0.68289 -0.13966,0.28666 -0.24918,0.64387 -0.24918,0.81196 0,0.1696 -0.0465,0.43675 -0.10611,0.6146 -0.0575,0.17035 -0.16907,0.53206 -0.24438,0.79171 -0.19989,0.68814 -0.22796,5.5832 -0.0383,6.68933 0.0842,0.49153 0.19373,1.19168 0.24576,1.5699 0.052,0.38197 0.18619,0.875 0.30463,1.11889 0.11842,0.24389 0.21151,0.69715 0.21151,1.02434 0,0.41724 0.10817,0.76469 0.37377,1.20144 0.2081,0.34144 0.37513,0.73542 0.3765,0.887 0.005,0.42325 0.29093,1.2232 0.53258,1.4881 0.11227,0.12308 0.21152,0.31294 0.21152,0.40299 0,0.0923 0.19715,0.38872 0.4299,0.64837 0.2389,0.26565 0.57023,0.80597 0.74547,1.21495 0.28614,0.66938 1.07268,1.90159 1.44028,2.25653 0.0746,0.072 0.4922,0.51555 0.91524,0.97257 0.42305,0.45625 1.05968,0.99506 1.39442,1.18042 0.33611,0.18611 0.92825,0.59885 1.30202,0.90802 0.37307,0.30918 0.82624,0.6011 0.99601,0.64163 0.17388,0.042 0.39361,0.11106 0.49766,0.15683 0.10337,0.045 0.523,0.0946 0.93441,0.10956 0.40936,0.0143 1.28284,0.0548 1.93042,0.0885 0.6469,0.0338 1.3068,0 1.45672,-0.075 0.2033,-0.10131 0.36144,-0.075 0.61062,0.10206 0.2697,0.19211 0.48533,0.22063 1.09526,0.14708 0.90977,-0.11031 2.12963,-0.44049 2.59033,-0.70089 0.18688,-0.10582 0.42511,-0.18986 0.53531,-0.18986 0.17388,0 2.82718,-1.32301 3.59935,-1.79429 0.13349,-0.081 0.4299,-0.2634 0.67907,-0.41724 0.24849,-0.15383 0.63253,-0.27315 0.87759,-0.27315 0.25396,0 0.70372,-0.16509 1.07748,-0.39548 0.34843,-0.21613 0.82282,-0.39622 1.03982,-0.39622 0.2615,0 0.50109,-0.11257 0.69688,-0.32794 0.16224,-0.1771 0.41621,-0.36847 0.55448,-0.41649 0.13691,-0.0473 0.25534,-0.14558 0.25534,-0.21162 0,-0.0668 0.30668,-0.47052 0.67838,-0.89377 0.37239,-0.42324 0.76601,-0.9748 0.87212,-1.22245 0.10541,-0.24538 0.33131,-0.54931 0.49766,-0.66863 0.16908,-0.12081 0.5093,-0.66187 0.75985,-1.20819 0.25122,-0.54556 0.61882,-1.23446 0.82008,-1.53538 0.45659,-0.68214 0.78312,-1.37929 1.18153,-2.52595 0.17114,-0.49153 0.41689,-1.13089 0.55174,-1.43332 0.13349,-0.30017 0.24233,-0.65062 0.24233,-0.77819 0,-0.12908 0.1109,-0.45026 0.24918,-0.72342 0.13828,-0.27315 0.24917,-0.58909 0.24917,-0.70991 0,-0.12307 0.102,-0.46451 0.23275,-0.77819 0.48397,-1.16467 0.7708,-2.49818 0.85979,-3.99979 0.05,-0.84649 0.0493,-1.69973 -0.003,-1.91135 z m -5.83439,-1.99314 c -0.0815,0.0893 -0.0965,0.27991 -0.0376,0.47127 0.0555,0.1771 0.0774,0.38122 0.05,0.45701 -0.0274,0.0758 -0.0609,0.53206 -0.0746,1.02359 -0.0301,1.10613 -0.22865,2.60699 -0.38882,2.94919 -0.0664,0.14108 -0.15608,0.53205 -0.19647,0.85999 -0.0411,0.32719 -0.15676,0.65288 -0.25534,0.71666 -0.0999,0.0638 -0.21632,0.3482 -0.26081,0.63487 -0.12937,0.84648 -0.76669,2.53495 -1.14251,3.03023 -0.14444,0.18986 -0.29641,0.50579 -0.34364,0.70991 -0.078,0.3437 -0.29026,0.65587 -1.61006,2.36235 -0.23274,0.30017 -0.46207,0.71816 -0.5093,0.92828 -0.0472,0.20412 -0.19441,0.42625 -0.31831,0.47728 -0.12459,0.0525 -0.46071,0.38272 -0.73452,0.72341 -0.32858,0.40974 -0.64279,0.65963 -0.90292,0.71741 -0.22385,0.0495 -0.47439,0.20787 -0.57228,0.36171 -0.0965,0.15009 -0.28682,0.27315 -0.42374,0.27315 -0.13553,0 -0.43674,0.21838 -0.6599,0.47728 -0.3368,0.39172 -0.50451,0.47802 -0.92824,0.47802 -0.41073,0 -0.61473,0.0983 -0.99602,0.47802 -0.2615,0.2604 -0.536,0.47804 -0.60377,0.47804 -0.0698,0 -0.26149,0.11631 -0.43606,0.26565 -0.17181,0.14708 -0.47302,0.30917 -0.67222,0.36171 -0.19578,0.0518 -0.57296,0.21161 -0.82214,0.34819 -0.24917,0.13658 -0.59829,0.2529 -0.75984,0.2529 -0.16224,0 -0.63527,0.14783 -1.03367,0.32268 -2.01736,0.88851 -3.18588,0.75719 -4.43312,-0.49678 -0.38609,-0.38797 -0.81188,-0.90953 -0.93373,-1.14366 -0.12322,-0.23563 -0.52299,-0.91477 -0.88443,-1.50161 -0.36144,-0.58684 -0.69071,-1.2262 -0.72699,-1.41306 -0.0698,-0.35495 -0.21495,-0.73692 -0.41415,-1.09188 -0.21426,-0.38271 -0.51136,-1.72748 -0.43127,-1.95186 0.0424,-0.11857 -0.0116,-0.5193 -0.11706,-0.87425 -0.16291,-0.54632 -0.37923,-2.63476 -0.34364,-3.31766 0.0555,-1.0641 0.32106,-2.60099 0.51204,-2.96194 0.13007,-0.24614 0.204,-0.54707 0.16362,-0.66263 -0.0418,-0.11857 0.0109,-0.40223 0.12115,-0.64837 0.29436,-0.65513 0.60994,-1.744 0.64485,-2.22503 0.0171,-0.23188 0.14101,-0.60184 0.27381,-0.81872 0.13349,-0.21837 0.34091,-0.64161 0.4607,-0.94254 0.11981,-0.30017 0.27109,-0.63786 0.33612,-0.75043 0.0664,-0.11481 0.22796,-0.42999 0.3676,-0.71666 0.13965,-0.28666 0.29025,-0.51179 0.34228,-0.51179 0.0513,0 0.33885,-0.36921 0.63799,-0.81947 0.74,-1.11439 1.28627,-1.64419 2.73066,-2.65052 0.87211,-0.6071 2.06459,-0.80146 2.33568,-0.38047 0.11705,0.18086 0.37308,0.28216 0.84609,0.33469 0.37377,0.0413 0.82146,0.17936 0.9967,0.30693 0.19921,0.14558 0.41484,0.19661 0.57912,0.13658 0.17799,-0.0653 0.42306,0.0218 0.77149,0.27315 0.39841,0.28817 0.60925,0.35121 0.95905,0.28892 0.53463,-0.0953 1.15963,-0.80746 1.46219,-1.66746 0.1157,-0.32793 0.306,-0.6236 0.43058,-0.66938 0.1246,-0.0458 0.19715,-0.16059 0.16224,-0.2589 -0.0938,-0.2664 0.14923,-0.39247 0.43537,-0.22738 0.3279,0.18911 0.62636,0.0495 0.77012,-0.3602 0.10953,-0.31293 0.1458,-0.32344 0.83035,-0.23864 0.39841,0.0495 0.98986,0.20112 1.33282,0.34144 0.33611,0.13733 0.74615,0.21763 0.90291,0.17561 0.47918,-0.12833 1.02888,0.24088 1.29175,0.86824 0.13143,0.31443 0.30736,0.62061 0.38882,0.67839 0.25808,0.17935 0.69003,0.91928 0.83241,1.42432 0.28545,1.01008 0.66949,2.11471 0.77901,2.23928 0.0582,0.0668 0.10747,0.37522 0.10747,0.67539 0,0.30017 0.0555,0.64612 0.12186,0.75793 0.16224,0.27241 0.1595,0.45626 -0.01,0.64162"
       style="fill:#000000;fill-opacity:1;fill-rule:nonzero;stroke:none"
       id="path90"
       inkscape:connector-curvature="0" />
    <rect
       style="fill:#008000;fill-opacity:0.43137255"
       id="rect4219"
       width="183.00932"
       height="49.113056"
       x="90.162125"
       y="145.42519" />
    <path
       d="m 278.99819,177.2525 c -0.0523,-0.0437 -0.0665,-0.89033 -0.0322,-1.88431 0.0978,-2.78833 0.0615,-4.65631 -0.0996,-5.14022 -0.0806,-0.24248 -0.16497,-0.78129 -0.18829,-1.2071 -0.024,-0.42528 -0.0982,-0.82634 -0.16677,-0.89705 -0.0673,-0.0701 -0.11239,-0.57773 -0.0995,-1.11836 0.0128,-0.54011 -0.0393,-1.08501 -0.11456,-1.19996 -0.0916,-0.14083 -0.11236,-1.14735 -0.0621,-3.01952 0.0592,-2.18146 0.0394,-2.85828 -0.0861,-3.02969 -0.11148,-0.15245 -0.16379,-0.68039 -0.16557,-1.68483 -8.6e-4,-0.80162 -0.0575,-1.58872 -0.12472,-1.74169 -0.0673,-0.15296 -0.12432,-0.6258 -0.12799,-1.05059 -0.003,-0.49272 -0.10624,-1.03624 -0.28475,-1.49934 -0.15374,-0.39985 -0.27479,-0.82862 -0.26869,-0.95321 0.006,-0.12514 -0.0616,-0.32325 -0.15296,-0.44337 -0.18959,-0.2505 -0.67593,-1.43634 -0.89326,-2.1754 -0.0827,-0.28235 -0.25354,-0.65184 -0.38591,-0.83563 -0.12727,-0.17675 -0.23456,-0.38698 -0.23124,-0.45486 0.003,-0.0684 -0.14783,-0.40925 -0.33426,-0.75205 -0.18578,-0.34224 -0.33838,-0.65447 -0.33668,-0.68894 0.002,-0.0349 -0.12866,-0.14866 -0.29659,-0.25848 -0.16728,-0.10926 -0.35454,-0.36607 -0.42289,-0.58013 -0.0684,-0.21406 -0.19491,-0.43326 -0.28501,-0.49495 -0.0848,-0.0578 -0.15687,-0.19714 -0.15214,-0.29364 0.005,-0.0965 -0.0466,-0.18431 -0.10916,-0.18585 -0.0625,-0.002 -0.20359,-0.14523 -0.30553,-0.3118 -0.1051,-0.17197 -0.64645,-0.6924 -1.2164,-1.17002 -0.81936,-0.68659 -1.23548,-0.94698 -2.05751,-1.28754 -1.28437,-0.53147 -1.71276,-0.68015 -2.49212,-0.86462 -0.34268,-0.0806 -0.66305,-0.2007 -0.72884,-0.27293 -0.0639,-0.07 -0.53352,-0.20863 -1.0358,-0.30552 -0.50229,-0.0969 -1.16876,-0.2276 -1.46964,-0.28764 -0.30625,-0.0611 -0.66129,-0.11146 -0.79849,-0.11328 -0.40894,-0.005 -2.1883,-0.25454 -2.70147,-0.37879 -0.27135,-0.0662 -0.98218,-0.13748 -1.59953,-0.16133 -0.61735,-0.0233 -1.22034,-0.0483 -1.35723,-0.0566 -1.07284,-0.0627 -2.57821,0.0188 -2.77695,0.14916 -0.13205,0.0875 -0.44011,0.1462 -0.72385,0.13914 -0.27222,-0.008 -0.53439,0.0171 -0.58375,0.0535 -0.12192,0.0888 -2.18903,0.26038 -3.42652,0.28429 -0.93676,0.0177 -1.21362,0.0362 -2.79084,0.18278 -0.47519,0.0439 -1.28991,0.0816 -1.79698,0.0822 -0.51113,5.9e-4 -1.58493,0.0406 -2.39072,0.0903 -1.07913,0.0655 -1.53963,0.0594 -1.75439,-0.0245 -0.2401,-0.0936 -0.40493,-0.0721 -0.9337,0.1217 -0.58134,0.21276 -0.82793,0.23796 -2.60921,0.26322 -1.0767,0.0157 -2.08192,0.0714 -2.21974,0.1237 -0.13988,0.0528 -0.44891,0.0903 -0.69602,0.0841 -0.24709,-0.007 -0.54846,0.0273 -0.67789,0.075 -0.12806,0.0471 -0.79056,0.11307 -1.47187,0.14655 -0.76851,0.0377 -1.36241,0.1185 -1.56274,0.21226 -0.25116,0.11798 -0.56283,0.13996 -1.41387,0.10021 -0.60487,-0.0283 -1.17376,-0.0143 -1.27521,0.031 -0.1015,0.0451 -0.85064,0.0771 -1.66657,0.07 -1.06322,-0.01 -1.59039,0.0268 -1.86105,0.12732 -0.21946,0.0817 -0.69906,0.13234 -1.14302,0.12129 -0.4202,-0.0105 -0.9076,0.0188 -1.07909,0.0651 -0.17287,0.0462 -1.1168,0.0853 -2.10652,0.0878 -0.98901,0.002 -1.90047,0.0441 -2.03204,0.0939 -0.13228,0.0504 -0.9807,0.068 -1.89415,0.04 -0.95011,-0.0293 -1.97205,-0.008 -2.40106,0.0512 -0.41055,0.0561 -1.02561,0.11093 -1.36592,0.12052 -0.34303,0.0101 -0.97832,0.0336 -1.42438,0.0517 -0.44336,0.0181 -1.24974,0.0241 -1.79362,0.0133 -0.64235,-0.0125 -1.05535,0.0242 -1.17965,0.10604 -0.13974,0.0916 -0.6738,0.11597 -1.95853,0.0915 -1.03751,-0.0209 -1.87283,0.008 -2.02453,0.0654 -0.15102,0.0583 -0.46691,0.0691 -0.76177,0.0251 -0.93255,-0.13785 -2.0586,-0.1133 -2.87133,0.064 -0.2068,0.0453 -1.00001,0.0877 -1.76704,0.0951 -0.76703,0.008 -1.44823,0.0389 -1.51773,0.07 -0.22584,0.10108 -3.88349,0.025 -4.13771,-0.0853 -0.26021,-0.11317 -1.74658,-0.19737 -4.83396,-0.27412 -1.03725,-0.0259 -1.98006,-0.0933 -2.10707,-0.1506 -0.20746,-0.0938 -1.42661,-0.15278 -4.27987,-0.2078 -0.61792,-0.0118 -1.39871,-0.0566 -1.75749,-0.0999 -0.35606,-0.0434 -0.81306,-0.0377 -1.02013,0.0129 -0.30063,0.0737 -0.44602,0.0591 -0.72624,-0.0759 -0.30016,-0.14388 -0.41866,-0.1532 -0.83148,-0.0642 -0.26379,0.0571 -1.45754,0.10392 -2.6449,0.10359 -1.18669,-2.9e-4 -2.27557,7.1e-4 -2.41091,0.003 -0.13673,0.002 -1.16089,-0.0274 -2.28452,-0.0663 -1.12296,-0.0385 -2.67123,-0.0664 -3.45239,-0.0619 -1.00211,0.007 -1.55893,-0.0323 -1.90412,-0.13121 -0.49267,-0.14072 -1.63352,-0.21634 -3.18003,-0.21073 -0.15634,3.7e-4 -1.38887,-0.0351 -2.74672,-0.0795 -1.8023,-0.0593 -2.53078,-0.11703 -2.71623,-0.21616 -0.27881,-0.14974 -1.70739,-0.22083 -3.82334,-0.19009 -1.79423,0.0259 -2.36055,0.002 -2.72644,-0.11871 -0.21675,-0.0708 -0.41166,-0.0601 -0.67601,0.0363 -0.25745,0.094 -0.89099,0.13764 -2.06566,0.14189 -4.08077,0.0149 -5.0162,0.0192 -6.65339,0.0303 -0.95254,0.007 -2.03922,0.046 -2.41503,0.087 -0.3772,0.041 -1.59699,0.0367 -2.72024,-0.01 -1.66589,-0.069 -2.08842,-0.0594 -2.32707,0.0531 -0.24771,0.11755 -0.33945,0.11739 -0.61787,0.002 -0.42432,-0.17672 -1.64992,-0.25655 -2.08332,-0.13621 -0.19362,0.0536 -0.62322,0.11032 -0.95838,0.12589 -0.33447,0.0156 -0.71429,0.0688 -0.84657,0.1191 -0.13159,0.0498 -1.05749,0.13721 -2.06148,0.19507 -1.00463,0.0572 -2.24173,0.15661 -2.75599,0.22081 -0.51015,0.0638 -1.25035,0.1202 -1.6318,0.12347 -0.38352,0.004 -0.79153,0.0637 -0.90294,0.13203 -0.23613,0.14436 -1.71575,0.43566 -2.69708,0.5307 -0.37834,0.0367 -1.04353,0.10201 -1.49085,0.14555 -1.03125,0.10123 -1.21739,0.0993 -1.73023,-0.018 -0.64793,-0.14829 -5.5186,-0.21416 -5.7455,-0.0775 -0.14635,0.0877 -0.27603,0.0849 -0.556,-0.0134 -0.4664,-0.16342 -1.42088,-0.0199 -2.3294,0.35085 -0.55484,0.22671 -0.74953,0.26061 -1.14682,0.1987 -0.3804,-0.0598 -0.50427,-0.0423 -0.6037,0.0864 -0.084,0.10674 -0.22988,0.14187 -0.43808,0.10484 -0.23985,-0.0431 -0.44073,0.0342 -0.86313,0.33209 -0.75605,0.53279 -1.14675,0.87769 -1.43928,1.27176 -0.13389,0.18034 -0.40444,0.43109 -0.59102,0.54909 -0.60035,0.37897 -2.754449,1.5358 -2.984062,1.60282 -0.113754,0.0328 -0.216623,0.12096 -0.219869,0.18724 -0.01148,0.23435 -1.328046,1.10993 -1.661518,1.10483 -0.172497,-0.003 -0.417943,0.0545 -0.556196,0.1295 -0.135408,0.0725 -0.401912,0.12964 -0.587915,0.12501 -0.184639,-0.006 -0.377757,0.0389 -0.424735,0.0961 -0.04772,0.0583 -0.323922,0.17456 -0.624645,0.26424 -0.301405,0.0896 -0.577631,0.20648 -0.625344,0.26475 -0.04774,0.0588 -0.190513,0.10144 -0.326288,0.0981 -0.135764,-0.004 -0.302733,0.0891 -0.382859,0.21238 -0.142575,0.21889 -0.735636,0.53221 -0.994945,0.52576 -0.391013,-0.01 -2.058121,1.09817 -2.605012,1.73169 -0.188034,0.21724 -0.40275,0.42425 -0.475692,0.45642 -0.07505,0.0337 -0.137449,0.15584 -0.143603,0.28151 -0.0062,0.12512 -0.12182,0.29478 -0.266469,0.38939 -0.200117,0.13094 -0.261741,0.2929 -0.283942,0.74625 -0.02186,0.44644 -0.119357,0.71634 -0.42829,1.18168 -0.220869,0.33267 -0.403618,0.66416 -0.40728,0.73893 -0.0038,0.0769 -0.07121,0.14952 -0.156476,0.16969 -0.08251,0.0192 -0.206334,0.31339 -0.273794,0.64988 -0.203472,1.01845 -0.503009,2.05522 -0.636773,2.20532 -0.06972,0.0775 -0.179111,0.38202 -0.242136,0.66978 -0.193498,0.88386 -0.704895,2.62459 -0.845681,2.87644 -0.07305,0.13144 -0.181755,0.46371 -0.243658,0.74247 -0.0612,0.27824 -0.221297,0.605 -0.357241,0.73008 -0.135182,0.12352 -0.250978,0.33671 -0.257573,0.47138 -0.0066,0.13522 -0.06856,0.34495 -0.136286,0.46537 -0.427758,0.75435 -0.764473,2.1342 -0.815379,3.34011 -0.0314,0.75253 0.05933,2.34153 0.175001,3.04675 0.121861,0.74519 0.04113,4.87811 -0.118065,6.03304 -0.01801,0.13173 0.01792,0.74419 0.07982,1.3541 0.0612,0.60989 0.08592,1.24329 0.05372,1.40122 -0.08213,0.40036 -0.09526,0.87674 -0.0625,2.22012 0.015,0.63743 0.03007,1.39854 0.03275,1.69058 0.0026,0.29522 0.03546,0.80248 0.07391,1.14161 0.05846,0.5132 0.03397,0.63841 -0.15211,0.78828 -0.325489,0.26211 -0.473647,1.34458 -0.208719,1.52794 0.109774,0.076 0.187752,0.20482 0.183026,0.30131 -0.0048,0.0965 0.02775,0.19658 0.07557,0.23333 0.04646,0.0367 0.08856,0.28729 0.09589,0.56775 0.01086,0.44463 0.06703,0.54688 0.488118,0.88596 0.261532,0.21089 0.472142,0.44865 0.468248,0.52816 -0.01304,0.26618 0.976519,1.03029 1.489859,1.15134 0.268789,0.063 0.665514,0.24747 0.882545,0.40949 0.328444,0.24651 0.461736,0.28645 0.810516,0.24257 0.372724,-0.047 0.432071,-0.0238 0.56958,0.22174 0.108772,0.19381 0.306139,0.31338 0.672626,0.40743 0.281211,0.0729 0.640354,0.20597 0.78304,0.2902 0.144668,0.0853 0.362646,0.15872 0.480756,0.16166 0.118802,0.003 0.332129,0.14362 0.473445,0.31117 0.239554,0.28522 0.294411,0.30301 0.815697,0.26182 0.421671,-0.0335 0.611885,-0.004 0.779101,0.12078 0.155374,0.11641 0.344623,0.1519 0.643094,0.12217 0.236329,-0.0239 0.479579,0.007 0.553373,0.0669 0.07574,0.0634 0.470487,0.10778 0.940269,0.10512 0.56899,-0.002 0.886912,0.0428 1.068446,0.15238 0.181542,0.10962 0.56019,0.16363 1.277049,0.18145 0.555291,0.0138 1.159334,0.0729 1.328511,0.12964 0.182552,0.0614 0.426649,0.0732 0.592604,0.0291 0.157687,-0.0417 0.415444,-0.031 0.586053,0.0241 0.166558,0.0546 0.681138,0.10878 1.137998,0.12013 0.45686,0.0114 0.85587,0.0521 0.88327,0.0894 0.12414,0.17135 7.71718,0.38347 8.94848,0.25006 0.80762,-0.0872 1.03617,-0.0767 1.71436,0.0782 0.56261,0.12813 0.82254,0.14999 0.92403,0.076 0.21711,-0.15865 0.5249,-0.11542 0.88364,0.12336 0.31728,0.21069 1.09316,0.411 1.61219,0.41594 0.14877,0.002 0.5097,-0.0548 0.79721,-0.12405 0.36111,-0.0876 0.78396,-0.10367 1.35031,-0.0519 0.89855,0.0828 3.86465,-0.0149 4.63193,-0.1524 0.33665,-0.0601 0.52041,-0.0513 0.63534,0.0306 0.12083,0.0863 0.32362,0.0813 0.81039,-0.0185 0.4497,-0.0924 0.73977,-0.10319 0.94167,-0.0344 0.17917,0.0608 0.62732,0.0696 1.16109,0.0231 1.04301,-0.0914 3.35398,-0.0238 3.88896,0.11316 0.27991,0.0717 0.50989,0.0663 0.81113,-0.0197 0.25087,-0.0713 0.54326,-0.0879 0.72513,-0.0404 0.59794,0.15607 2.6418,0.30667 3.00618,0.22177 0.22275,-0.0518 0.84276,-0.0411 1.60605,0.0278 1.31684,0.11821 2.96737,0.16772 4.20983,0.1254 0.40915,-0.0138 0.99155,0.0155 1.29563,0.0656 0.30341,0.05 0.9983,0.0582 1.54397,0.0188 0.54634,-0.0394 1.24407,-0.089 1.55168,-0.11114 0.30826,-0.0215 1.83033,-0.0138 3.39885,0.0171 1.5692,0.0311 2.9265,0.0171 3.03078,-0.0308 0.1036,-0.0473 0.40612,-0.0903 0.66663,-0.0944 0.25983,-0.005 0.69295,-0.0768 0.95325,-0.15999 0.30171,-0.096 0.54421,-0.12077 0.65843,-0.0658 0.29892,0.14121 3.87259,-0.0386 4.57388,-0.2303 0.19287,-0.0525 0.60316,-0.0614 0.90966,-0.0194 0.30718,0.0421 0.68399,0.0366 0.83522,-0.0122 0.74849,-0.23939 1.25277,-0.32189 2.33083,-0.38003 1.67368,-0.0901 1.86496,-0.0821 2.54218,0.10671 0.46599,0.12998 0.73485,0.14994 1.21963,0.0908 0.34395,-0.0425 1.33927,-0.076 2.22891,-0.0752 0.89031,7e-4 2.10576,-0.031 2.7235,-0.0708 1.19114,-0.0772 4.38474,-0.12934 5.19748,-0.0847 0.2908,0.0156 0.73796,-0.0523 1.09016,-0.16615 0.54765,-0.17695 0.65183,-0.18074 1.26396,-0.0509 0.50107,0.10748 0.75341,0.118 1.01802,0.0439 0.60165,-0.16924 1.50764,-0.21095 1.69755,-0.0777 0.115,0.0804 0.85749,0.15776 2.06649,0.21541 1.82674,0.0879 4.64842,0.2743 6.69207,0.44295 0.53747,0.0447 1.45105,0.0425 2.0093,-0.005 0.56235,-0.0471 1.62433,-0.0817 2.35338,-0.0769 0.72905,0.005 1.6701,-0.0174 2.0856,-0.0495 0.43458,-0.0332 0.84225,-0.0168 0.95643,0.0386 0.12548,0.0611 0.67136,0.0586 1.47793,-0.008 1.19344,-0.0961 2.04353,-0.065 4.59102,0.1693 0.33694,0.0312 1.14595,0.0826 1.78735,0.11455 0.6414,0.0319 1.30932,0.10529 1.47575,0.1625 0.16712,0.0573 0.52763,0.079 0.80163,0.0491 0.27336,-0.0303 0.68433,-0.0116 0.91279,0.0418 0.22916,0.0534 0.94817,0.0824 1.60425,0.0648 1.69668,-0.0464 1.85691,-0.043 3.84147,0.0833 2.36672,0.15015 2.4469,0.15054 3.9554,0.0192 0.72013,-0.0627 1.66476,-0.13009 2.10957,-0.15034 0.91208,-0.041 7.78867,0.02 8.89838,0.0795 0.10169,0.007 0.9408,-0.017 1.85723,-0.0494 1.73409,-0.061 7.6194,-0.0346 8.93702,0.0402 0.21959,0.0124 0.89103,3.6e-4 1.51019,-0.0273 0.61302,-0.0272 1.78198,-0.0396 2.59766,-0.0273 0.81568,0.0123 1.71325,-0.0238 1.99471,-0.081 0.2876,-0.0577 1.4261,-0.0866 2.59953,-0.0654 1.14899,0.0205 2.18984,7.1e-4 2.31437,-0.0438 0.13767,-0.0491 0.75583,-0.0286 1.5681,0.0533 1.10717,0.1114 1.42379,0.11343 1.81688,0.0112 0.26641,-0.0688 0.7492,-0.14276 1.09636,-0.16758 0.61384,-0.0436 1.07845,-0.0518 4.64045,-0.0768 2.06553,-0.0145 2.53291,-0.0374 3.47042,-0.16748 0.37296,-0.0518 0.96409,-0.062 1.29926,-0.0224 0.61426,0.0725 2.58211,-0.18159 2.86182,-0.36947 0.0618,-0.0419 0.23204,-0.075 0.36781,-0.0716 0.14255,0.004 0.41107,-0.053 0.61261,-0.12969 0.20151,-0.0762 0.45377,-0.13364 0.57527,-0.13063 0.11676,0.003 0.43106,-0.10023 0.68452,-0.22399 0.32313,-0.15867 0.63568,-0.22574 1.00633,-0.21653 0.32108,0.008 0.59955,-0.0434 0.69271,-0.12771 0.086,-0.0785 0.35468,-0.17805 0.60437,-0.22492 0.59948,-0.11144 0.68129,-0.15824 1.08253,-0.62128 0.19669,-0.2271 0.41822,-0.40686 0.50046,-0.40693 0.29979,-7.1e-4 0.83276,-0.41993 1.12745,-0.88561 0.1673,-0.26604 0.37761,-0.50767 0.47611,-0.54821 0.0937,-0.0385 0.18231,-0.18394 0.18844,-0.30908 0.007,-0.14209 0.1382,-0.29597 0.32808,-0.38468 0.34296,-0.16082 0.74347,-0.95566 0.64818,-1.28609 -0.033,-0.11497 0.049,-0.27909 0.20042,-0.4006 0.18037,-0.14417 0.31574,-0.4657 0.45071,-1.07071 0.17488,-0.78134 0.67132,-2.04998 1.19928,-3.06036 0.15903,-0.30502 0.19152,-0.57972 0.14676,-1.24708 -0.0313,-0.47379 -0.006,-0.98863 0.0565,-1.15271 0.0624,-0.16302 0.19013,-1.23166 0.28319,-2.36857 0.0931,-1.13747 0.21444,-2.31085 0.26941,-2.60093 0.055,-0.28849 0.0569,-0.56503 0.005,-0.60824 z m -6.10218,0.89092 c -0.0751,1.1188 -0.23293,2.75736 -0.35263,3.66164 -0.11975,0.90428 -0.2494,1.9421 -0.29101,2.32008 -0.0909,0.82803 -0.17382,1.02345 -0.67559,1.59598 -0.25631,0.29304 -0.41189,0.59708 -0.43827,0.85814 -0.0467,0.45273 -0.77256,1.63338 -1.05153,1.70872 -0.0985,0.0268 -0.21943,0.22018 -0.27509,0.4407 -0.0809,0.31863 -0.26652,0.51521 -0.97134,1.02908 -0.47502,0.34547 -0.9099,0.70414 -0.95611,0.7874 -0.15149,0.276 -1.3875,0.92213 -1.63431,0.85441 -0.12943,-0.0357 -0.46562,0.0425 -0.81949,0.19039 -0.33234,0.13878 -0.87871,0.27596 -1.22687,0.30712 -0.34273,0.0314 -1.04951,0.0992 -1.55902,0.1497 -0.50953,0.051 -1.21053,0.0702 -1.5477,0.0438 -1.0345,-0.0825 -1.56659,-0.0703 -2.47553,0.059 -0.48181,0.0681 -1.55107,0.11273 -2.39119,0.0998 -0.84012,-0.0129 -1.62108,0.0155 -1.74645,0.0634 -0.35595,0.13499 -1.62507,0.11087 -2.14977,-0.0418 -0.26471,-0.0767 -0.68694,-0.11529 -0.98452,-0.0898 -0.28599,0.0247 -0.61913,0.0404 -0.73779,0.0347 -0.12069,-0.007 -0.41959,-0.01 -0.67931,-0.008 -0.25633,0.002 -1.51427,-0.0142 -2.81137,-0.036 -1.40848,-0.0234 -2.49721,0.002 -2.72314,0.0635 -0.53867,0.14641 -2.69835,0.25143 -2.86274,0.13853 -0.24199,-0.16581 -2.45507,-0.1088 -2.76085,0.0704 -0.38002,0.22361 -3.11061,0.14776 -3.60551,-0.0998 -0.26604,-0.13296 -0.37623,-0.14525 -0.51645,-0.0574 -0.11988,0.0746 -1.30388,0.11677 -3.56775,0.12843 -1.8675,0.01 -3.52865,0.0519 -3.70136,0.0948 -0.28757,0.0709 -6.5742,-0.0875 -6.85411,-0.17323 -0.067,-0.0208 -0.43163,-0.0129 -0.81647,0.0179 -0.38003,0.0299 -1.05302,0.046 -1.48544,0.0352 -0.43243,-0.0107 -1.00274,0.0185 -1.25855,0.0654 -0.31955,0.058 -0.70023,0.0451 -1.20379,-0.0394 -0.57565,-0.0976 -0.79575,-0.0999 -1.01291,-0.01 -0.39542,0.16377 -2.42122,0.1994 -6.34882,0.11237 -4.9277,-0.10871 -4.94194,-0.10956 -5.77451,-0.23485 -0.73677,-0.1107 -3.26286,-0.30994 -3.90458,-0.30731 -3.72254,0.0137 -4.74397,0.0115 -5.2921,-0.01 -0.3697,-0.0149 -0.77842,0.0178 -0.91845,0.0737 -0.19961,0.0789 -0.32422,0.0556 -0.59996,-0.1147 -0.3484,-0.21411 -0.84198,-0.22478 -0.85209,-0.0184 -0.006,0.12352 -0.53696,0.0976 -0.94997,-0.0459 -0.29807,-0.1035 -1.74386,-0.23924 -2.78201,-0.26082 -0.18604,-0.005 -0.58992,0.055 -0.91526,0.13333 -0.52819,0.12702 -0.6361,0.12382 -1.185,-0.0344 -0.4336,-0.12546 -0.80835,-0.16184 -1.32919,-0.12967 -0.45879,0.0279 -0.91869,-0.005 -1.25026,-0.09 -1.10758,-0.28343 -5.89266,-0.36202 -7.17828,-0.11848 -0.39928,0.076 -0.80574,0.118 -0.8881,0.0925 -0.0838,-0.0259 -0.73594,-0.003 -1.4434,0.0511 -0.70743,0.0535 -1.55829,0.0935 -1.88359,0.088 -0.32123,-0.006 -0.75485,0.0503 -0.94592,0.12141 -0.26238,0.0975 -0.6485,0.11289 -1.51105,0.0585 -2.61346,-0.16371 -3.95908,-0.20778 -5.60439,-0.18339 -1.06445,0.0159 -1.8853,-0.0156 -2.12885,-0.0804 -0.28109,-0.0755 -0.47956,-0.0751 -0.68045,0.002 -0.15724,0.0602 -0.52996,0.0935 -0.83826,0.0742 -0.75149,-0.0463 -2.6349,0.0518 -2.80128,0.14645 -0.0706,0.0402 -0.29401,0.0634 -0.50351,0.0528 -0.20948,-0.011 -0.45478,0.0156 -0.55273,0.059 -0.0986,0.0433 -0.42579,0.10356 -0.73663,0.13618 -0.31085,0.0326 -0.7144,0.0848 -0.90836,0.11756 -0.21175,0.0357 -0.46521,0.007 -0.64546,-0.0738 -0.21747,-0.0978 -0.37125,-0.10798 -0.57922,-0.0388 -0.15478,0.0519 -0.61177,0.11271 -1.0084,0.13417 -0.39664,0.0219 -0.84503,0.0872 -0.98988,0.14475 -0.22943,0.0909 -1.54969,0.0841 -3.36219,-0.0167 -1.06077,-0.0592 -2.24281,-0.002 -2.50376,0.12249 -0.31594,0.15034 -1.24688,0.0905 -1.37744,-0.0883 -0.0453,-0.0611 -0.49569,-0.0374 -1.19317,0.0627 -0.9336,0.13339 -1.23297,0.14028 -1.795,0.042 -0.46702,-0.0818 -0.91022,-0.0943 -1.44433,-0.0409 -0.52183,0.0524 -0.9542,0.0406 -1.3398,-0.0382 -0.33042,-0.0672 -0.62809,-0.0815 -0.70922,-0.0346 -0.17207,0.0993 -0.89983,0.19318 -1.76674,0.22789 -0.3473,0.0136 -0.68518,0.0292 -0.76839,0.0349 -0.0812,0.007 -0.37358,-0.0741 -0.6405,-0.17519 -0.35233,-0.13351 -0.53734,-0.15829 -0.65087,-0.0883 -0.10234,0.0623 -0.82563,0.066 -2.00964,0.0111 -2.15912,-0.10094 -4.582,-0.15905 -6.38545,-0.1531 -3.89502,0.0111 -6.15126,-0.0499 -6.20395,-0.16753 -0.09,-0.20291 -0.38932,-0.15513 -0.6234,0.10024 -0.16444,0.17959 -0.26672,0.2142 -0.42775,0.14385 -0.11647,-0.0508 -0.80599,-0.0853 -1.52346,-0.0767 -0.81678,0.01 -1.46805,-0.0286 -1.72618,-0.10078 -0.22659,-0.064 -1.22235,-0.16045 -2.19641,-0.21386 -0.97406,-0.0535 -1.84111,-0.1408 -1.91335,-0.19249 -0.0821,-0.0594 -0.46634,-0.0673 -1.02529,-0.0205 -0.59577,0.0495 -0.97049,0.0402 -1.12341,-0.0293 -0.27795,-0.12529 -2.28245,-0.10824 -2.75857,0.0238 -0.48849,0.13489 -0.97709,0.10523 -1.28216,-0.0771 -0.22648,-0.13568 -0.38233,-0.14539 -1.09093,-0.068 -0.64644,0.071 -0.88869,0.0628 -1.11148,-0.0372 -0.20417,-0.0916 -0.59987,-0.11683 -1.40464,-0.0881 -0.755743,0.0269 -1.205788,0.002 -1.381343,-0.0778 -0.142307,-0.0641 -0.864039,-0.14887 -1.592133,-0.18714 -1.331471,-0.0692 -2.200254,-0.26016 -2.189426,-0.48126 0.0037,-0.0759 -0.106712,-0.0971 -0.318464,-0.0614 -0.259751,0.044 -0.399163,-0.01 -0.697817,-0.26793 -0.337122,-0.29133 -0.447542,-0.32646 -1.126356,-0.35767 -1.072838,-0.049 -2.559142,-0.67624 -2.609639,-1.10218 -0.0076,-0.0654 -0.03164,-0.24234 -0.05484,-0.40696 -0.02281,-0.15876 -0.0033,-0.84999 0.04341,-1.52464 0.04827,-0.69422 0.03092,-1.50581 -0.03896,-1.85528 -0.09653,-0.48549 -0.08906,-0.65199 0.03454,-0.762 0.147794,-0.13116 0.206151,-0.98972 0.260373,-3.81787 0.0096,-0.50198 0.03695,-1.30981 0.06021,-1.78489 0.04962,-1.01325 0.05264,-1.15811 0.04823,-2.31709 -0.0022,-0.48261 -0.06044,-1.04202 -0.131379,-1.25878 -0.115843,-0.35485 -0.197232,-2.81478 -0.123964,-3.76958 0.01587,-0.21248 0.06638,-0.92524 0.113227,-1.59031 0.06484,-0.93537 0.129506,-1.24273 0.289546,-1.37412 0.113989,-0.0932 0.260076,-0.36992 0.326665,-0.61936 0.424159,-1.58312 0.740209,-2.7214 0.869287,-3.13652 0.08154,-0.26342 0.216275,-0.73837 0.298374,-1.05485 0.174279,-0.67198 0.33036,-1.08325 0.630014,-1.66453 0.117918,-0.22905 0.22155,-0.52696 0.22786,-0.65581 0.0064,-0.12989 0.128357,-0.34504 0.270727,-0.47634 0.150219,-0.13909 0.254432,-0.36583 0.248667,-0.53957 -0.0056,-0.16416 0.06209,-0.39341 0.148586,-0.50805 0.08933,-0.11722 0.16757,-0.3823 0.178424,-0.60393 0.02883,-0.58856 0.529613,-1.75198 0.970885,-2.25487 0.215955,-0.24628 0.400243,-0.4981 0.402814,-0.5506 0.01086,-0.22163 0.672641,-0.71693 0.949605,-0.71004 0.207728,0.005 0.349786,-0.0783 0.473755,-0.27808 0.177102,-0.28546 0.864637,-0.6543 1.203376,-0.64587 0.09368,0.002 0.265866,-0.0996 0.375883,-0.22265 0.110018,-0.12307 0.339848,-0.25008 0.502258,-0.27737 0.16174,-0.0273 0.335289,-0.12915 0.377901,-0.22206 0.08222,-0.18004 1.635374,-0.7514 2.030764,-0.74794 0.12905,0.002 0.34957,-0.0598 0.48923,-0.13595 0.20531,-0.11222 0.61175,-0.126 2.13024,-0.0729 1.56731,0.0553 1.92826,0.0408 2.19272,-0.0857 0.40019,-0.19179 0.55298,-0.18904 1.04976,0.0204 0.60604,0.25449 1.3692,0.0623 1.3894,-0.35034 0.006,-0.11612 0.0907,-0.2961 0.18661,-0.39617 0.1038,-0.10837 0.19786,-0.47339 0.22902,-0.88775 0.0291,-0.38575 0.0889,-0.74632 0.13292,-0.79831 0.10604,-0.12531 -0.2742,-0.47982 -0.5213,-0.48596 -0.23487,-0.007 -0.74738,-0.39391 -0.73927,-0.55933 0.01,-0.193 0.76193,-0.41691 1.50567,-0.44832 0.42157,-0.0177 0.7561,-0.0895 0.87646,-0.1879 0.4531,-0.36989 0.68753,-0.43839 1.46593,-0.42806 0.60583,0.01 0.87715,-0.0355 1.15922,-0.18831 0.39586,-0.21419 0.91443,-0.24162 1.42561,-0.0766 0.24353,0.0788 0.39612,0.0719 0.58857,-0.0274 0.1938,-0.0992 0.45688,-0.11392 1.03516,-0.056 0.43083,0.0431 1.09601,0.0336 1.49695,-0.0206 0.39755,-0.0544 1.16751,-0.10793 1.71252,-0.11986 1.55948,-0.0345 1.71588,-0.0497 2.12451,-0.20571 0.21403,-0.0818 0.49575,-0.14429 0.62459,-0.13843 0.13021,0.007 0.59482,-0.0298 1.04247,-0.0802 0.44765,-0.0504 1.16855,-0.12915 1.61608,-0.17695 0.44752,-0.0479 1.03117,-0.14106 1.30843,-0.20954 0.73883,-0.18125 2.89786,-0.43919 3.54479,-0.42311 0.9015,0.0224 2.52288,-0.15176 2.75968,-0.29609 0.14711,-0.0898 0.32674,-0.10761 0.55872,-0.0562 0.66096,0.14598 2.77855,0.19277 3.18691,0.0703 0.22071,-0.0657 0.87027,-0.10311 1.50014,-0.0859 2.29692,0.0627 2.68997,0.0589 3.00629,-0.0303 0.17921,-0.0508 1.54314,-0.0752 3.02584,-0.0543 2.14966,0.0301 2.71077,0.0638 2.75475,0.1651 0.0678,0.15617 0.35805,0.18303 0.42695,0.0392 0.0939,-0.19463 4.15031,-0.33852 6.25905,-0.22185 0.18842,0.0103 0.65623,-0.0213 1.02971,-0.07 0.5055,-0.066 1.10281,-0.0495 2.28473,0.0617 0.88627,0.0836 2.09505,0.17419 2.7101,0.20275 0.61166,0.0285 2.2448,0.11417 3.63843,0.19079 3.14451,0.17267 3.26539,0.17515 3.97729,0.0717 0.37376,-0.0544 0.64473,-0.0498 0.7782,0.0144 0.15943,0.0751 4.62087,0.32298 6.10378,0.33914 1.55767,0.0165 5.07482,-0.009 5.69016,-0.0411 0.9792,-0.0516 1.48204,-0.0353 2.30855,0.0749 0.35589,0.0471 0.79357,0.0473 0.98892,-3.8e-4 0.43821,-0.10696 2.69859,0.0773 2.9313,0.2385 0.1249,0.0864 0.34126,0.0956 0.85118,0.0366 0.37324,-0.0437 0.958,-0.0489 1.28649,-0.0114 0.33593,0.0381 0.98754,0.0281 1.47253,-0.0213 0.79515,-0.0822 0.91565,-0.0723 1.40414,0.11189 0.40842,0.15403 0.94033,0.22882 2.25933,0.31683 0.9491,0.0634 2.05951,0.10849 2.46773,0.10012 0.40889,-0.009 0.93734,-0.002 1.17442,0.0149 1.19482,0.0838 2.74274,0.091 3.52262,0.0159 1.16291,-0.11124 2.74266,-0.19884 4.83534,-0.26785 0.95376,-0.0315 1.95719,-0.0782 2.23099,-0.10381 0.97225,-0.09 3.50651,-0.15488 5.5088,-0.14069 1.86569,0.0135 2.82042,-0.0239 5.45039,-0.21115 1.68807,-0.12047 4.37948,-0.2022 5.28751,-0.16052 0.53099,0.0243 1.19093,-0.0171 1.60623,-0.10075 0.38713,-0.0775 0.8804,-0.1156 1.09225,-0.0838 0.21523,0.0324 0.6862,0.007 1.0605,-0.0602 0.37433,-0.0661 1.03778,-0.10958 1.49464,-0.0982 0.45686,0.0114 1.11676,-0.0154 1.48664,-0.0596 0.36646,-0.044 1.09787,-0.0736 1.62898,-0.0657 0.75387,0.0114 1.03161,-0.0254 1.27572,-0.16629 0.24203,-0.13996 0.36583,-0.15599 0.55337,-0.0716 0.29725,0.13375 0.84641,0.14792 1.32159,0.0349 0.20083,-0.0482 0.72296,-0.12058 1.1702,-0.16255 0.44727,-0.0425 1.08493,-0.11477 1.42982,-0.16247 0.34078,-0.0473 1.15574,-0.11725 1.80051,-0.15432 1.72378,-0.1 1.74017,-0.10165 2.35887,-0.20306 1.29702,-0.2125 1.96274,-0.2331 2.27897,-0.0701 0.27708,0.14333 0.32061,0.14282 0.54386,-0.002 0.15025,-0.0982 0.6146,-0.18433 1.22293,-0.22654 1.22825,-0.0851 4.81537,-0.17916 5.80632,-0.15134 0.42018,0.0112 1.08193,-0.0394 1.49551,-0.11572 0.56922,-0.10423 1.05093,-0.11455 2.0609,-0.0448 0.87519,0.0598 1.3477,0.0573 1.40394,-0.009 0.0476,-0.0556 0.36863,-0.0885 0.72681,-0.0749 1.234,0.0476 4.94076,0.01 5.18309,-0.0543 0.32629,-0.0843 1.21348,0.11936 1.48001,0.3394 0.24297,0.20139 0.27398,0.20641 1.20118,0.20397 1.00196,-0.003 1.53659,0.16934 1.61796,0.52013 0.0419,0.18472 0.15692,0.29322 0.35588,0.33853 0.36097,0.0818 1.62461,1.09203 1.88038,1.50398 0.10146,0.16283 0.23167,0.47398 0.29273,0.69793 0.0611,0.22341 0.19037,0.45702 0.28974,0.52374 0.0962,0.0639 0.17657,0.18327 0.17304,0.25539 -0.004,0.0759 0.11592,0.29753 0.27232,0.50421 0.1519,0.20123 0.39,0.61328 0.52381,0.90646 0.24807,0.54129 0.36253,0.77187 0.77842,1.56417 0.1287,0.24474 0.23395,0.49634 0.23125,0.55148 -0.003,0.0577 0.10252,0.18305 0.2453,0.29276 0.38129,0.29138 0.5606,0.66904 0.53793,1.13192 -0.0681,1.38918 0.0838,3.92307 0.24811,4.14906 0.2656,0.36388 0.26688,3.29375 0.002,3.525 -0.10937,0.096 -0.12071,0.25819 -0.0422,0.59778 0.20634,0.8938 0.23851,1.23648 0.18597,2.00387 -0.0539,0.79389 0.003,1.38139 0.26235,2.72031 0.0836,0.43155 0.14807,1.50073 0.1429,2.36962 -0.005,0.86891 0.0462,2.1517 0.11432,2.84246 0.0685,0.69661 0.13723,1.43091 0.15459,1.64528 0.0167,0.21489 -0.0188,0.77195 -0.0805,1.2535 -0.0607,0.47839 -0.17111,1.77256 -0.24625,2.89082"
       style="fill:#000000;fill-opacity:1;fill-rule:nonzero;stroke:none"
       id="path104"
       inkscape:connector-curvature="0" />
    <path
       d="m 55.117878,190.81235 c -0.236851,-0.20712 -0.491505,-0.37596 -0.566803,-0.37596 -0.267655,0 -1.339661,-1.31026 -1.430022,-1.74701 -0.04996,-0.24615 -0.197827,-0.52155 -0.33816,-0.62961 -0.22385,-0.17336 -0.7222,-1.50011 -0.7222,-1.92335 0,-0.0908 -0.09994,-0.26416 -0.224527,-0.38947 -0.123905,-0.12458 -0.301887,-0.53206 -0.398404,-0.91478 -0.09653,-0.38197 -0.218371,-0.71966 -0.273822,-0.75719 -0.05476,-0.0375 -0.09994,-0.22512 -0.09994,-0.41648 0,-0.19061 -0.07804,-0.53956 -0.173878,-0.77144 -0.312835,-0.75943 -0.656475,-1.88358 -1.067891,-3.49475 -0.220423,-0.86 -0.503141,-1.8198 -0.625671,-2.12297 -0.12527,-0.30692 -0.290938,-0.82623 -0.373767,-1.16692 -0.08352,-0.34145 -0.204682,-0.7812 -0.2745,-0.98982 -0.06777,-0.20487 -0.09584,-0.50278 -0.06161,-0.65587 0.03491,-0.15759 -0.01643,-0.49078 -0.118425,-0.76394 -0.101997,-0.27316 -0.153344,-0.5178 -0.118426,-0.55982 0.03354,-0.0405 -0.01575,-0.23864 -0.106111,-0.43 -0.09104,-0.19285 -0.208099,-0.57332 -0.255332,-0.83297 -0.04723,-0.2589 -0.169773,-0.57783 -0.267655,-0.6964 -0.09858,-0.11932 -0.234121,-0.58009 -0.29847,-1.01683 -0.06503,-0.43675 -0.174554,-0.86 -0.243008,-0.93504 -0.06983,-0.0765 -0.124592,-0.2664 -0.124592,-0.43 0,-0.16134 -0.16771,-0.83973 -0.373757,-1.50836 -0.205369,-0.66939 -0.373767,-1.33802 -0.373767,-1.4881 0,-0.15609 -0.06571,-0.39623 -0.154022,-0.55983 -0.527788,-0.98306 -0.63663,-1.26297 -0.668122,-1.71998 -0.02053,-0.28667 -0.142385,-0.74818 -0.273134,-1.03109 -0.13074,-0.28141 -0.30393,-0.75794 -0.386081,-1.05811 -0.317628,-1.16016 -0.529841,-1.54964 -0.934403,-1.71323 -0.971373,-0.39322 -1.403322,-0.6041 -1.593628,-0.77895 -0.331316,-0.30467 -2.104978,-0.19361 -2.45341,0.15309 -0.124592,0.12382 -0.301887,0.22438 -0.398415,0.22513 -0.38608,0.005 -1.272563,0.436 -1.484089,0.72191 -0.120487,0.1636 -0.319002,0.6889 -0.434011,1.15341 -0.114998,0.46377 -0.260123,0.88476 -0.317627,0.92153 -0.05887,0.0383 -0.254644,0.41649 -0.44221,0.85324 -0.186889,0.43675 -0.46618,0.91778 -0.628421,1.08512 -0.162231,0.16585 -0.292981,0.41949 -0.292981,0.56658 0,0.15008 -0.08967,0.3467 -0.205369,0.45026 -0.111581,0.10055 -0.304616,0.4375 -0.423729,0.73767 -0.118426,0.30017 -0.381299,0.74593 -0.575022,0.97631 -0.715354,0.84648 -1.182212,1.71998 -1.466983,2.74357 -0.159501,0.57332 -0.408676,1.27123 -0.547634,1.53614 -0.138969,0.26265 -0.335431,0.887 -0.429897,1.36502 -0.09446,0.47802 -0.240278,1.01759 -0.318315,1.18043 -0.164293,0.34295 -0.208099,1.55714 -0.08009,2.19801 0.06229,0.31443 0.0397,0.44125 -0.08078,0.451 -0.09174,0.008 -0.36761,0.0233 -0.604461,0.0338 -0.236163,0.0113 -0.478494,0.0923 -0.529154,0.17786 -0.05134,0.0863 -0.205359,0.12607 -0.342275,0.0885 -0.136906,-0.0375 -0.249174,-0.001 -0.249174,0.0818 0,0.0863 -0.09309,0.15609 -0.218371,0.16359 -0.134166,0.009 -0.08693,0.066 0.12528,0.15008 0.186878,0.0751 0.342265,0.19287 0.342265,0.25965 0,0.17485 0.460701,0.16359 0.560646,-0.0135 0.138281,-0.24615 0.390882,-0.15009 0.53806,0.20487 0.118425,0.28666 0.111581,0.39322 -0.03423,0.55306 -0.153334,0.1681 -0.192358,0.15684 -0.258758,-0.075 -0.07872,-0.27316 -0.431949,-0.38497 -0.431949,-0.13658 0,0.25364 -0.216318,0.15009 -0.284771,-0.13658 -0.06161,-0.26115 -0.089,-0.25515 -0.63663,0.14333 -0.312148,0.22588 -0.581866,0.49078 -0.592127,0.58009 -0.0096,0.0871 -0.02465,0.25964 -0.03149,0.36845 -0.01986,0.31444 -0.592138,0.38798 -0.846104,0.10957 -0.277239,-0.30393 -0.283396,-0.49153 -0.0267,-0.80596 0.156084,-0.19061 0.25055,-0.21087 0.425104,-0.0885 0.174565,0.12232 0.266978,0.10881 0.416895,-0.0615 0.176607,-0.19962 0.162231,-0.22438 -0.173877,-0.29341 -0.249175,-0.051 -0.3676,-0.15835 -0.3676,-0.3347 0,-0.34069 0.312836,-0.47577 0.508621,-0.21837 0.240268,0.31667 0.464805,0.23188 0.397717,-0.15009 -0.08283,-0.47803 -0.484661,-0.70916 -0.592137,-0.34144 -0.102675,0.35495 -0.440158,0.35495 -0.523675,0 -0.0356,-0.15009 -0.143073,-0.27241 -0.238903,-0.27241 -0.09789,0 -0.256019,-0.21162 -0.360756,-0.48478 -0.121165,-0.31443 -0.237538,-0.45101 -0.329951,-0.38947 -0.09858,0.066 -0.07531,0.14933 0.07461,0.2664 0.169772,0.13358 0.187566,0.23188 0.08078,0.45026 -0.10679,0.21837 -0.09447,0.32644 0.05614,0.49153 0.111581,0.12307 0.24506,0.21162 0.317627,0.21162 0.236164,0 0.51683,0.41199 0.436741,0.64162 -0.06366,0.1846 -0.206734,0.20412 -0.916609,0.12307 -0.460701,-0.0525 -0.941934,-0.0968 -1.064474,-0.0983 -0.29846,-0.004 -0.2745,-0.3527 0.03697,-0.5343 0.192358,-0.11257 0.23959,-0.25515 0.205359,-0.62361 -0.02327,-0.2589 -0.108842,-0.54931 -0.186191,-0.63486 -0.08146,-0.0886 -0.143761,-0.29342 -0.143761,-0.47052 0,-0.17785 -0.05408,-0.31368 -0.124582,-0.31368 -0.06983,0 -0.123905,0.0953 -0.123905,0.21837 0,0.13583 -0.06777,0.18986 -0.180721,0.14333 -0.124583,-0.0525 -0.159502,-0.0143 -0.112269,0.12232 0.03766,0.10957 0.141021,0.19812 0.230694,0.19812 0.12801,0 0.310783,0.27315 0.310783,0.46452 0,0.015 -0.360755,0.015 -0.809132,0 -0.547635,-0.0188 -0.809133,0.0233 -0.809133,0.12907 0,0.10431 -0.224527,0.14108 -0.66059,0.10956 -0.746837,-0.0548 -0.944674,-0.19286 -0.713293,-0.49829 0.150595,-0.19886 0.184139,-0.19961 0.371017,-0.0135 0.184837,0.18385 0.227277,0.17709 0.422375,-0.0683 0.282031,-0.35496 0.270395,-0.52155 -0.03013,-0.436 -0.147177,0.042 -0.342275,-0.0488 -0.51683,-0.24013 -0.261498,-0.28667 -0.265603,-0.31519 -0.0623,-0.43676 0.151282,-0.0901 0.311471,-0.075 0.522997,0.048 0.261498,0.15233 0.321732,0.14783 0.423729,-0.027 0.195785,-0.33994 0.130749,-0.49528 -0.243008,-0.57783 -0.299834,-0.0668 -0.359391,-0.15984 -0.423739,-0.66488 -0.04997,-0.39623 -0.01643,-0.68514 0.104049,-0.88776 0.37034,-0.62435 0.546957,-0.2724 0.314898,0.62812 -0.06709,0.25964 -0.09241,0.51254 -0.05819,0.57332 0.09926,0.17861 1.101435,-0.46376 1.150043,-0.73692 0.0267,-0.15009 -0.01164,-0.22063 -0.09105,-0.16735 -0.136906,0.0923 -0.54079,-0.66037 -0.423052,-0.7887 0.04039,-0.0443 0.230006,0.008 0.416895,0.11632 0.249174,0.14408 0.325847,0.26865 0.282031,0.45776 -0.07598,0.32869 0.110216,0.45551 0.757796,0.51329 0.759847,0.0675 1.165096,0.28967 1.228757,0.67389 0.03628,0.21837 -0.0021,0.32794 -0.113633,0.32794 -0.08762,0 -0.168398,0.0653 -0.168398,0.13658 0,0.0818 0,0.1771 0,0.23863 0,0.0585 0.07461,0.10206 0.174555,0.10206 0.09584,0 0.286145,0.11182 0.423051,0.24765 0.347755,0.34519 0.453169,0.0946 0.218371,-0.52006 -0.104737,-0.27315 -0.193046,-0.56207 -0.193046,-0.6281 0,-0.23939 0.611993,-0.12308 0.787235,0.15008 0.105415,0.16359 0.282719,0.30468 0.414146,0.32794 0.174564,0.0308 0.233434,0.16359 0.243018,0.54556 0.0069,0.27315 0.07256,0.57108 0.143072,0.64912 0.06982,0.0758 0.09857,0.23864 0.06229,0.34745 -0.05749,0.17185 -0.02532,0.17936 0.199212,0.048 0.14923,-0.0878 0.267655,-0.27766 0.267655,-0.43 0,-0.30016 0.358704,-0.35795 0.597607,-0.0953 0.1198,0.13058 0.180722,0.12982 0.305304,-0.007 0.124592,-0.13658 0.112268,-0.19812 -0.06229,-0.30768 -0.141021,-0.0878 -0.217693,-0.30017 -0.217693,-0.60034 0,-0.25965 -0.04997,-0.49754 -0.112259,-0.53956 -0.0623,-0.0413 -0.147865,-0.29342 -0.193045,-0.56657 -0.04587,-0.27541 -0.182087,-0.73693 -0.311471,-1.0506 -0.291615,-0.70992 -0.629098,-2.31959 -0.629098,-3.00398 0,-0.27316 -0.05134,-0.50504 -0.111582,-0.50504 -0.131426,0 -0.201254,-0.19061 -0.579126,-1.59691 -0.169085,-0.62811 -0.308731,-1.32827 -0.313523,-1.5699 -0.0219,-1.20369 -0.477129,-2.04493 -1.896879,-3.50601 -0.549,-0.56508 -0.597607,-0.58684 -1.170566,-0.51405 -1.245884,0.15759 -1.719586,0.25665 -1.868138,0.39023 -0.08556,0.0773 -0.261488,0.0938 -0.410718,0.039 -0.177305,-0.0645 -0.399092,0.0195 -0.685238,0.25965 -0.236851,0.19811 -0.533258,0.35495 -0.672227,0.35495 -0.182774,0 -0.335421,0.20487 -0.569542,0.76469 -0.377184,0.90052 -0.405249,1.35903 -0.106789,1.71999 0.158814,0.19135 0.180722,0.32043 0.0842,0.49153 -0.07052,0.12457 -0.104737,0.42999 -0.07462,0.66188 0.0308,0.23188 -0.0069,0.47052 -0.08078,0.51854 -0.0753,0.0495 -0.136906,0.26641 -0.136906,0.48478 0,0.22138 -0.08009,0.65513 -0.182086,0.98306 -0.24507,0.79171 -0.468233,2.35485 -0.446325,3.1263 0.01231,0.42324 -0.0445,0.68364 -0.174565,0.79845 -0.106789,0.0938 -0.193035,0.38197 -0.193035,0.64163 0,0.25964 -0.08694,0.65512 -0.193045,0.88024 -0.133489,0.28292 -0.169773,0.58759 -0.118426,0.98306 0.05339,0.4105 -0.01917,0.94255 -0.255341,1.87008 -0.180722,0.70991 -0.347068,1.53238 -0.3676,1.81604 -0.02053,0.28667 -0.08967,0.59208 -0.155387,0.68289 -0.06504,0.09 -0.160189,0.62061 -0.212214,1.18043 -0.05134,0.55982 -0.168397,1.18267 -0.261498,1.38604 -0.0931,0.20412 -0.206734,0.62061 -0.254654,0.93504 -0.0486,0.31367 -0.190296,0.7887 -0.317628,1.06486 -0.126634,0.27316 -0.230694,0.61535 -0.230694,0.75794 0,0.27165 -0.552426,2.26554 -0.763952,2.75707 -0.329952,0.76469 -0.601711,1.25998 -0.779693,1.41907 -0.110904,0.0991 -0.199203,0.32193 -0.199203,0.49903 0,0.17786 -0.111581,0.38797 -0.249862,0.47127 -0.207421,0.12533 -0.248487,0.28667 -0.248487,0.96956 0,0.60034 0.04929,0.83898 0.186191,0.89376 0.104737,0.042 0.24781,0.33469 0.323795,0.66188 0.159501,0.68289 0.646891,1.01984 1.095956,0.75944 0.210838,-0.12232 0.282719,-0.0901 0.467545,0.21011 0.11706,0.19137 0.441532,0.51255 0.703031,0.69641 0.41552,0.29117 0.579813,0.32943 1.127448,0.25965 0.356651,-0.0458 0.95905,-0.11858 1.357454,-0.16435 0.622254,-0.0713 0.7886,-0.15684 1.276678,-0.65963 0.60993,-0.62961 0.861845,-1.19993 0.746846,-1.68847 -0.04176,-0.1741 0.01095,-0.58683 0.118426,-0.92828 0.108154,-0.34445 0.193035,-1.08512 0.193035,-1.68621 0,-0.79171 0.04861,-1.11439 0.186889,-1.23521 0.09857,-0.0871 0.186191,-0.32043 0.186191,-0.49829 0,-0.1771 0.09105,-0.36996 0.193045,-0.40973 0.176617,-0.0683 0.17593,-0.0953 -0.0062,-0.31368 -0.182096,-0.21913 -0.176617,-0.27991 0.06845,-0.73017 0.14923,-0.27316 0.234799,-0.55232 0.193036,-0.62811 -0.04449,-0.0818 -0.02943,-0.1666 0.03766,-0.21162 0.06161,-0.0413 0.08419,-0.34145 0.04997,-0.66939 -0.04313,-0.40973 0.0069,-0.73767 0.161543,-1.0581 0.209474,-0.43525 0.27177,-0.73693 0.54353,-2.64827 0.06435,-0.45025 0.1732,-1.09562 0.241653,-1.43333 0.212203,-1.03709 0.172502,-1.48059 -0.137594,-1.52937 -0.149229,-0.0233 -0.285458,-0.11932 -0.31695,-0.22512 -0.04175,-0.13659 0.01164,-0.1591 0.211526,-0.0885 0.195098,0.0698 0.354599,0 0.59145,-0.25966 0.477816,-0.52379 0.709875,-0.40898 0.803653,0.39623 0.108842,0.94179 0.293678,1.65694 0.529841,2.04792 0.107477,0.1771 0.197838,0.45927 0.197838,0.61385 0,0.16435 0.08009,0.37522 0.186878,0.49153 0.105425,0.11633 0.186879,0.34145 0.186879,0.51931 0,0.1726 0.112268,0.47051 0.249175,0.66188 0.136916,0.19135 0.249174,0.49002 0.249174,0.66187 0,0.2649 0.658538,1.95262 1.00697,2.58073 0.06504,0.11632 0.162241,0.32719 0.227267,0.49154 0.221798,0.55907 1.204808,1.51212 1.654549,1.60367 0.236861,0.048 0.566813,0.24464 0.722199,0.42999 0.160867,0.19136 0.401832,0.34145 0.548322,0.34145 0.144438,0 0.504516,0.12232 0.802976,0.27315 0.299147,0.15008 0.659216,0.27091 0.803653,0.26866 0.282042,-0.004 0.807768,-0.46001 1.035035,-0.89676 0.09584,-0.18386 0.303262,-0.27091 0.714667,-0.30018 0.510674,-0.0368 0.602409,-0.0923 0.778329,-0.47127 0.110903,-0.23939 0.251237,-0.887 0.317637,-1.46034 0.06571,-0.57333 0.197828,-1.16467 0.29846,-1.33127 0.100632,-0.16733 0.180722,-0.53955 0.180722,-0.83972 0,-0.35495 0.06366,-0.56582 0.186878,-0.6161 0.199203,-0.0825 0.260124,-0.56583 0.08693,-0.6859 -0.05476,-0.0383 -0.08557,-0.84799 -0.06845,-1.79052 0.02465,-1.33727 0.07667,-1.79878 0.236861,-2.07419 0.138958,-0.24089 0.203307,-0.63561 0.199202,-1.22246 -0.0048,-0.69639 0.06571,-1.02283 0.360068,-1.65844 0.385404,-0.83298 0.438106,-1.1249 0.243696,-1.33802 -0.08693,-0.0953 -0.04997,-0.21238 0.124592,-0.38872 0.141011,-0.14334 0.249175,-0.40973 0.249175,-0.61461 0,-0.20486 0.09446,-0.50654 0.217683,-0.69639 0.119112,-0.18236 0.36486,-0.67539 0.542164,-1.08513 0.17593,-0.40973 0.416885,-0.83447 0.529154,-0.93503 0.111581,-0.10056 0.205359,-0.2619 0.205359,-0.35495 0,-0.0938 0.112269,-0.28142 0.249175,-0.41649 0.133489,-0.13133 0.249175,-0.42325 0.249175,-0.62811 0,-0.24614 0.09721,-0.45852 0.273822,-0.59509 0.469597,-0.36621 0.509985,-0.30618 0.717407,1.07311 0.06366,0.42324 0.233423,0.94029 0.372392,1.13315 0.160866,0.22438 0.255331,0.55232 0.255331,0.89377 0,0.30016 0.10132,0.76017 0.230007,1.03784 0.126645,0.2739 0.331326,0.98981 0.454544,1.59016 0.123217,0.6011 0.327899,1.28248 0.454534,1.51587 0.126644,0.23188 0.230694,0.57108 0.230694,0.75043 0,0.18235 0.115695,0.60109 0.261498,0.94179 0.145125,0.34145 0.273822,0.82697 0.288876,1.09262 0.02465,0.42025 0.279301,1.13316 0.897441,2.51169 0.0931,0.20862 0.171137,0.58683 0.171137,0.83298 0,0.24538 0.07872,0.5223 0.173878,0.6086 0.22111,0.20036 0.76464,1.88958 0.718772,2.23102 -0.01848,0.13658 0.01917,0.31819 0.08488,0.40974 0.06504,0.09 0.297095,0.65512 0.515465,1.25547 0.706458,1.93836 0.841312,2.36385 1.049411,3.30339 0.08694,0.39623 0.305991,0.93429 0.483296,1.18794 0.177294,0.25439 0.386081,0.75793 0.4607,1.11288 0.08078,0.38197 0.275187,0.79696 0.473702,1.01008 0.187566,0.20262 0.499037,0.56657 0.706448,0.82623 0.447012,0.55981 0.974114,0.9553 1.273261,0.9553 0.117061,0 0.454544,0.12831 0.753691,0.28665 0.298459,0.15834 0.658528,0.2529 0.802966,0.21163 0.144438,-0.0413 0.423739,0.0165 0.622941,0.12982 0.333369,0.18911 0.392248,0.18385 0.766005,-0.0683 0.22385,-0.15158 0.562698,-0.3647 0.75916,-0.47802 0.19441,-0.11181 0.600347,-0.53205 0.896764,-0.92828 0.460013,-0.6146 0.542155,-0.81572 0.542155,-1.33802 0,-0.53206 -0.0575,-0.66413 -0.429896,-0.98907 z M 30.821271,179.63094 c -0.199203,0.0413 -0.208109,0.0188 -0.06435,-0.17034 0.196463,-0.25966 0.425782,-0.29492 0.350485,-0.0548 -0.03012,0.096 -0.161554,0.19961 -0.286136,0.22512 z m -3.087999,-1.45358 c -0.243695,0.3497 -0.431948,0.30017 -0.364173,-0.0953 0.03765,-0.21837 0.144438,-0.34144 0.29572,-0.34144 0.279979,0 0.297095,0.10881 0.06845,0.43675 z m -1.948904,-6.80941 c -0.136906,-0.039 -0.249175,-0.15758 -0.249175,-0.26265 0,-0.21236 0.02465,-0.22137 0.29847,-0.1058 0.294355,0.12307 0.249175,0.45401 -0.0493,0.36845 z m -2.75461,5.94941 c -0.141021,-0.24613 -0.131437,-0.66938 0.01438,-0.66938 0.06435,0 0.147178,0.0615 0.193035,0.14333 0.05614,0.0991 0.13075,0.0983 0.243018,-0.004 0.309419,-0.28216 0.286146,0.06 -0.02464,0.37747 -0.249185,0.25365 -0.347755,0.28891 -0.425792,0.15234"
       style="fill:#000000;fill-opacity:1;fill-rule:nonzero;stroke:none"
       id="path166"
       inkscape:connector-curvature="0" />
    <path
       d="m 28.36785,175.3715 c -0.14923,-0.0398 -0.308731,-0.0818 -0.342275,-0.09 -0.180722,-0.045 -0.09926,0.2814 0.09995,0.39997 0.186878,0.11032 0.283406,0.0998 0.386091,-0.0435 0.109518,-0.1531 0.08078,-0.20637 -0.143761,-0.26641"
       style="fill:#000000;fill-opacity:1;fill-rule:nonzero;stroke:none"
       id="path172"
       inkscape:connector-curvature="0" />
    <path
       d="m 25.724134,173.54946 c -0.119113,-0.24614 -0.171138,-0.26115 -0.363496,-0.10732 -0.252601,0.20263 -0.186878,0.66789 0.112269,0.79396 0.261498,0.11032 0.423042,-0.33169 0.251227,-0.68664"
       style="fill:#000000;fill-opacity:1;fill-rule:nonzero;stroke:none"
       id="path174"
       inkscape:connector-curvature="0" />
    <path
       d="m 12.352886,163.81563 c -0.470285,-0.8735 -1.070631,-1.79803 -1.338296,-2.06068 -0.198515,-0.19511 -0.510663,-0.22738 -1.9181002,-0.19886 -1.4936731,0.0308 -1.7572238,0.0728 -2.3657894,0.37896 -1.1185513,0.56208 -1.1322399,0.59735 -1.071996,2.64527 0.057494,1.95187 0.1820864,2.72631 0.5271014,3.28988 0.132114,0.21613 0.2443826,0.55982 0.2580712,0.79171 0.013689,0.22438 0.079402,1.20144 0.1444378,2.15673 0.1225301,1.80329 0.1026846,2.04792 -0.3566512,4.32774 -0.3046165,1.51511 -0.3142006,1.5834 -0.5031413,3.82269 -0.093101,1.10538 -0.2204226,1.85055 -0.3614333,2.1162 -0.1423855,0.26716 -0.2265894,0.76469 -0.2430178,1.43332 -0.013689,0.55982 -0.078725,1.08287 -0.1430729,1.15342 -0.066401,0.0728 -0.1184255,0.25964 -0.1184255,0.42324 0,0.1636 -0.1567615,0.55307 -0.3545989,0.88025 -0.1985148,0.32794 -0.3285766,0.70165 -0.2950325,0.84649 0.059556,0.25965 -0.378559,1.39354 -0.5955545,1.54063 -0.068463,0.0458 -0.1245923,0.20712 -0.1245923,0.3572 0,0.5283 -1.0459836,2.28206 -1.5313318,2.56798 -0.1683978,0.0991 -0.3922476,0.34669 -0.5113505,0.56506 -0.12254,0.22589 -0.45454376,0.50955 -0.79065209,0.67615 -0.55995807,0.2769 -0.59555445,0.27841 -1.08912173,0.0413 -0.61060798,-0.29341 -1.30815948,-0.91253 -1.30815948,-1.16091 0,-0.0976 -0.152657,-0.42324 -0.3402229,-0.72342 -0.5702295,-0.91478 -1.0295553,-1.97513 -1.0295553,-2.37586 0,-0.20412 -0.066401,-0.44126 -0.1492398,-0.53206 -0.3011994,-0.33019 -0.6845404,-4.17764 -0.590075,-5.92464 0.00956,-0.1741 -0.00478,-1.10614 -0.032169,-2.0892 -0.028075,-0.98306 0,-1.9271 0.062286,-2.11621 0.061609,-0.18835 0.1088514,-0.66187 0.1054243,-1.05735 -0.00339,-0.39623 0.080089,-0.97706 0.1868785,-1.2975 0.1047368,-0.31367 0.2129008,-0.7054 0.2368509,-0.85324 0.02396,-0.15008 0.082839,-0.51854 0.1307492,-0.81871 0.04792,-0.30018 0.1711376,-0.65363 0.2738221,-0.78495 0.1690853,-0.21688 0.1636059,-0.28742 -0.062296,-0.75119 -0.1396458,-0.28666 -0.2272669,-0.57783 -0.1985148,-0.66187 0.07461,-0.22288 -0.9597374,-1.14666 -1.283522,-1.14666 -0.1465001,0 -0.4360632,-0.14784 -0.6229417,-0.31743 -0.4730244,-0.4315 -2.0296811,-0.64387 -2.2774909,-0.31068 -0.087621,0.11707 -0.3559638,0.21838 -0.580491,0.21838 -0.2861359,0 -0.4559086,0.081 -0.5414774,0.25964 -0.066401,0.13883 -0.2861359,0.30317 -0.4730244,0.35421 -0.5353106,0.14558 -1.4074268,0.99132 -1.4074268,1.36578 0,0.1771 -0.05134,0.36246 -0.112259,0.40298 -0.196472,0.13283 -0.06778,1.95862 0.157439,2.23177 0.225902,0.27316 0.276562,0.64238 0.10405,0.75719 -0.06092,0.0413 -0.152647,0.52605 -0.201255,1.07236 -0.104737,1.17368 -0.105414,1.25773 -0.0089,1.88359 0.04039,0.26265 0.0931,0.94854 0.117061,1.52187 0.02396,0.57332 0.08283,1.11589 0.130749,1.20144 0.04791,0.0863 0.10131,1.7545 0.118426,3.70712 0.030117,3.46699 0.036961,3.55628 0.3107831,3.86997 0.1752422,0.19961 0.2923028,0.51855 0.3114709,0.84648 0.017106,0.28667 0.1471775,0.74292 0.2868233,1.00332 0.1410107,0.26416 0.349797,0.79846 0.4668575,1.19469 0.1170606,0.39548 0.3313164,0.80821 0.4791813,0.92153 0.1437604,0.10956 0.3566512,0.38196 0.4593358,0.58683 0.6961767,1.38679 1.9256217,2.55296 3.7061282,3.51652 0.6352653,0.3437 1.1459384,0.66863 1.1459384,0.72942 0,0.44125 3.39945933,0.78795 4.3591868,0.44425 0.3970396,-0.14258 1.7428577,-0.40598 2.5027055,-0.48928 0.1889308,-0.021 0.510673,-0.19511 0.7345228,-0.39848 0.2245271,-0.20411 0.4394703,-0.36246 0.4921824,-0.36246 0.051347,0 0.7160422,-0.67313 1.4752025,-1.49485 1.1089672,-1.19844 1.4122189,-1.61118 1.5320093,-2.08169 0.083516,-0.32794 0.3121582,-0.7767 0.5168399,-1.01683 0.2416429,-0.28292 0.4442623,-0.75119 0.5914399,-1.3658 0.1245923,-0.51853 0.3381706,-1.1474 0.4798687,-1.4123 0.1423855,-0.2664 0.3073657,-0.84649 0.3737667,-1.311 0.06571,-0.46377 0.206047,-1.05961 0.31694,-1.34477 0.111581,-0.28666 0.199203,-0.64987 0.199203,-0.82547 0,-0.17335 0.08146,-0.52606 0.180721,-0.78495 0.09994,-0.25965 0.149917,-0.50504 0.112269,-0.54631 -0.03834,-0.0413 0.0014,-0.21838 0.08693,-0.39623 0.10132,-0.20787 0.147178,-0.79846 0.13075,-1.68546 -0.01369,-0.75119 0.03423,-1.70349 0.106111,-2.11622 0.310784,-1.78828 0.550374,-3.84445 0.579804,-4.98285 0.105424,-4.05458 0.211526,-6.30662 0.307366,-6.51223 0.06297,-0.13283 0.08078,-0.39548 0.04039,-0.57333 -0.04449,-0.19436 0.01095,-0.50504 0.136906,-0.76394 0.143073,-0.29642 0.185513,-0.58759 0.130749,-0.90127 -0.04518,-0.25965 -0.02875,-0.56957 0.03765,-0.70315 0.08694,-0.17485 0.03013,-0.40298 -0.212203,-0.85324"
       style="fill:#000000;fill-opacity:1;fill-rule:nonzero;stroke:none"
       id="path180"
       inkscape:connector-curvature="0" />
    <path
       d="m -17.584397,151.46055 c -0.07325,-0.15309 -0.253967,-0.42324 -0.410728,-0.61385 -0.155387,-0.18911 -0.371705,-0.59434 -0.486026,-0.90802 -0.190306,-0.52455 -0.261498,-0.58383 -0.958363,-0.7917 -0.473711,-0.14183 -0.92962,-0.19512 -1.227392,-0.14334 -0.29847,0.051 -0.566813,0.0188 -0.728356,-0.0893 -0.188253,-0.12607 -0.329952,-0.13132 -0.541478,-0.0203 -0.154021,0.0803 -0.479181,0.18836 -0.703718,0.23188 -0.228642,0.045 -0.622254,0.26716 -0.871429,0.49154 -0.249175,0.22437 -0.522309,0.40973 -0.604451,0.40973 -0.251227,0 -0.659903,0.88776 -0.659903,1.43332 0,0.28667 0.08899,0.62586 0.199202,0.75794 0.159502,0.19061 0.169763,0.30017 0.04997,0.54556 -0.112956,0.23263 -0.112956,0.38047 0,0.60785 0.105414,0.21162 0.112268,0.4435 0.02464,0.78495 -0.06708,0.2634 -0.09309,0.77144 -0.05544,1.11288 0.0397,0.36847 0.0076,0.70691 -0.07872,0.81872 -0.135541,0.17711 -0.117738,1.82955 0.02258,2.0892 0.09036,0.1681 -0.134854,3.03024 -0.285448,3.61707 -0.110217,0.43 -0.31969,7.68665 -0.275187,9.52896 0.05613,2.3481 0.04175,6.67883 -0.02396,6.96249 -0.07531,0.32643 -0.117061,0.95606 -0.284094,4.30071 -0.107467,2.14324 -0.155387,3.29739 -0.206047,4.92807 -0.02532,0.83298 -0.112946,1.63595 -0.195775,1.80179 -0.0801,0.16134 -0.132801,0.47802 -0.112956,0.68289 0.05614,0.59734 -0.48466,0.57933 -1.232184,-0.0413 -0.933715,-0.77519 -3.008577,-3.20583 -3.261866,-3.82193 -0.123895,-0.30092 -0.37307,-0.71816 -0.554479,-0.92828 -0.177294,-0.20487 -0.329951,-0.44576 -0.329951,-0.51929 0,-0.0758 -0.221798,-0.46377 -0.49835,-0.87351 -0.276561,-0.40973 -0.498349,-0.7977 -0.498349,-0.8735 0,-0.15384 -0.809133,-1.88433 -0.996011,-2.12972 -0.06983,-0.0923 -0.09242,-0.25965 -0.05066,-0.38272 0.08419,-0.2499 -0.198525,-0.88926 -0.546957,-1.23521 -0.282719,-0.28066 -1.519695,-2.94169 -1.519695,-3.26963 0,-0.10881 -0.08419,-0.27765 -0.180712,-0.3617 -0.100632,-0.0878 -0.237538,-0.45701 -0.310106,-0.83973 -0.148542,-0.7782 -0.392925,-1.35752 -0.679748,-1.61192 -0.106789,-0.0946 -0.199213,-0.35346 -0.199213,-0.55832 0,-0.20487 -0.08077,-0.45552 -0.174554,-0.53881 -0.218371,-0.19661 -0.779703,-1.44083 -0.896067,-1.98714 -0.0493,-0.23188 -0.147865,-0.49228 -0.226589,-0.60034 -0.142386,-0.19437 -0.348432,-0.7782 -0.64211,-1.81604 -0.09652,-0.34145 -0.262863,-0.70241 -0.364173,-0.79171 -0.104049,-0.0908 -0.186878,-0.32719 -0.186878,-0.53205 0,-0.20487 -0.09858,-0.5208 -0.221798,-0.70991 -0.226589,-0.34895 -0.58871,-1.36578 -0.774223,-2.17099 -0.06092,-0.26641 -0.266968,-0.79171 -0.449065,-1.14666 -0.182086,-0.35495 -0.384716,-0.94329 -0.441532,-1.28324 -0.05749,-0.34144 -0.219736,-0.86824 -0.355277,-1.15341 -0.135541,-0.28666 -0.249174,-0.60334 -0.249174,-0.6964 0,-0.0931 -0.101998,-0.38947 -0.22385,-0.64837 -0.124583,-0.26565 -0.318315,-0.75118 -0.436053,-1.09187 -0.117738,-0.34145 -0.405249,-0.83898 -0.64758,-1.11964 -0.235486,-0.27316 -0.436063,-0.58684 -0.436063,-0.6829 0,-0.0998 -0.204671,-0.42324 -0.466857,-0.73692 -0.261499,-0.31443 -0.565438,-0.71591 -0.690707,-0.91477 -0.121166,-0.19136 -0.356652,-0.44951 -0.510674,-0.55907 -0.380601,-0.27166 -1.793507,-0.50954 -2.877149,-0.48478 -0.709876,0.0165 -0.945352,0.0818 -1.269834,0.3542 -0.224527,0.18836 -0.486025,0.33469 -0.597607,0.33469 -0.324472,0 -1.269146,1.18793 -1.335546,1.67872 -0.03287,0.23938 -0.02259,0.7992 0.02122,1.23595 0.06503,0.64162 0.0356,0.89077 -0.14923,1.26973 -0.126644,0.2589 -0.19715,0.52605 -0.156084,0.59359 0.04108,0.0675 -0.02396,0.32794 -0.143063,0.57333 -0.120488,0.25064 -0.225902,0.72341 -0.236173,1.06486 -0.01027,0.33769 -0.111581,0.98306 -0.224528,1.43332 -0.11432,0.45626 -0.262873,1.24271 -0.336118,1.77477 -0.07256,0.5328 -0.230006,1.2277 -0.354589,1.5699 -0.124592,0.34069 -0.319002,1.01083 -0.436063,1.50236 -0.117738,0.49078 -0.270395,1.1309 -0.342275,1.43332 -0.07256,0.30017 -0.12527,0.73017 -0.118426,0.9553 0.0069,0.22738 -0.0705,0.68289 -0.174554,1.02358 -0.101997,0.3362 -0.220423,1.21495 -0.261499,1.93912 -0.04997,0.887 -0.132114,1.37553 -0.249174,1.48135 -0.09926,0.0893 -0.174555,0.40222 -0.174555,0.73016 0,0.31368 -0.07119,0.6904 -0.158137,0.83298 -0.29572,0.48252 -0.451794,1.35152 -0.381288,2.11546 0.07119,0.76469 -0.100633,1.47459 -0.771484,3.19458 -0.114321,0.29267 -0.287511,1.33802 -0.384716,2.32108 -0.270395,2.74357 -0.561333,4.65716 -0.774224,5.09241 -0.0664,0.13583 -0.126645,1.0371 -0.135541,2.02017 -0.01574,1.87006 -0.08967,2.61224 -0.271083,2.73606 -0.06161,0.042 -0.114998,0.85399 -0.118425,1.81004 -0.0034,0.9553 -0.05065,1.85581 -0.105414,2.00665 -0.05409,0.14783 -0.04861,0.42324 0.01231,0.60109 0.07736,0.22664 0.05477,0.48403 -0.07461,0.83898 -0.104736,0.28666 -0.151282,0.54782 -0.106101,0.59434 0.04449,0.0443 0.06982,0.83973 0.05613,1.75376 -0.01369,0.91478 0.02875,2.01266 0.0931,2.42314 0.06502,0.40973 0.197827,1.26298 0.29298,1.87757 0.158136,1.02359 0.217693,1.17293 0.653746,1.63819 l 0.479868,0.51179 1.282158,-0.0278 c 1.606629,-0.0338 1.971489,-0.22438 2.326088,-1.21494 0.132114,-0.36847 0.233424,-0.93504 0.227267,-1.26223 -0.0069,-0.32794 0.07393,-0.78044 0.180034,-1.01008 0.139646,-0.30092 0.171138,-0.60109 0.112269,-1.07911 -0.04518,-0.36847 -0.03149,-0.76769 0.0308,-0.90052 0.0623,-0.13283 0.07393,-0.78496 0.02533,-1.46784 -0.05203,-0.73693 -0.0397,-1.33277 0.0308,-1.4881 0.06504,-0.14184 0.110217,-1.13991 0.09995,-2.20477 -0.01027,-1.06486 0.03218,-1.97889 0.0931,-2.02016 0.0623,-0.042 0.151282,-0.74443 0.199202,-1.5774 0.0486,-0.83223 0.144438,-1.82355 0.216318,-2.22503 0.121853,-0.6874 0.197827,-1.24195 0.474389,-3.45348 0.0664,-0.5313 0.204682,-1.5016 0.312149,-2.1845 0.107476,-0.68288 0.247122,-1.62317 0.31421,-2.11621 0.181409,-1.32451 0.334056,-2.16949 0.541478,-3.00321 0.171825,-0.68965 0.309418,-1.72 0.409363,-3.07151 0.07325,-0.98307 0.262863,-2.03517 0.46343,-2.56648 0.108842,-0.28967 0.234121,-0.83298 0.282719,-1.22845 0.04861,-0.39623 0.139646,-0.8615 0.205369,-1.05135 0.06435,-0.18686 0.132802,-0.71666 0.149917,-1.16767 0.01643,-0.45026 0.09583,-0.95905 0.173868,-1.11889 0.0801,-0.1651 0.143073,-0.53956 0.143073,-0.85399 0,-0.31368 0.07941,-0.76619 0.180721,-1.03034 0.09926,-0.25965 0.147178,-0.56583 0.106102,-0.68289 -0.04175,-0.11782 0.0267,-0.41574 0.155397,-0.67539 0.230694,-0.46452 0.230694,-0.46452 -0.07462,-0.75118 -0.273812,-0.2574 -0.279292,-0.27841 -0.04997,-0.21162 0.184827,0.0548 0.313524,-0.0338 0.466868,-0.32044 0.117051,-0.21837 0.212203,-0.49378 0.212203,-0.6146 0,-0.15309 0.111581,-0.21837 0.37308,-0.21837 0.311471,0 0.373767,0.0563 0.373767,0.33469 0,0.18235 0.107466,0.53881 0.236851,0.78495 0.128009,0.24464 0.276552,0.66863 0.323784,0.92828 0.04723,0.25815 0.195785,0.70991 0.323795,0.98306 0.128009,0.27316 0.236851,0.64612 0.236851,0.81197 0,0.16359 0.107476,0.43825 0.230006,0.58683 0.12801,0.15534 0.325847,0.55307 0.445648,0.89452 0.249174,0.71141 0.457273,1.24196 0.936454,2.38861 0.188254,0.45102 0.487401,1.18794 0.664008,1.63894 0.706458,1.80179 0.996699,2.46292 1.182212,2.68955 0.104737,0.12757 0.159501,0.3542 0.121853,0.50504 -0.04518,0.17784 0.0308,0.37446 0.217683,0.56582 0.154709,0.15909 0.355286,0.49153 0.436063,0.72416 0.08351,0.24014 0.281344,0.70991 0.447689,1.06487 0.167711,0.35494 0.299147,0.71591 0.299147,0.81871 0,0.10282 0.166346,0.45776 0.373767,0.79846 0.207412,0.34144 0.373757,0.70916 0.373757,0.82623 0,0.12007 0.161554,0.36545 0.373767,0.56657 0.211526,0.20112 0.37307,0.46752 0.37307,0.6146 0,0.27991 0.299147,0.98232 0.651694,1.52863 0.123217,0.19136 0.220422,0.44951 0.220422,0.58759 0,0.20036 0.522997,1.23144 0.746837,1.47308 0.183461,0.19737 1.10829,1.77552 1.280792,2.18526 0.109529,0.25965 0.397717,0.68664 0.631151,0.93503 0.236173,0.25214 0.46891,0.61986 0.516152,0.81872 0.04997,0.20562 0.249853,0.53956 0.461379,0.77144 0.203994,0.22438 0.946048,1.06486 1.637433,1.85657 0.750951,0.86074 1.395113,1.4836 1.588149,1.53613 0.175252,0.048 0.477129,0.30693 0.659902,0.56657 0.210849,0.30017 0.44496,0.47802 0.628421,0.47802 0.162232,0 0.359381,0.0916 0.442211,0.20487 0.0801,0.10882 0.227954,0.20412 0.317637,0.20412 0.09583,0 0.246435,0.12307 0.351172,0.28667 0.17593,0.2754 0.700969,0.46601 1.722315,0.62511 0.249175,0.0383 0.522309,0.15308 0.594877,0.24914 0.212203,0.28066 2.767621,0.12381 3.439838,-0.21087 0.299147,-0.14934 0.588032,-0.26716 0.653746,-0.26716 0.0664,0 0.187566,-0.18461 0.274499,-0.41648 0.08352,-0.22364 0.348442,-0.57709 0.572282,-0.7647 0.230694,-0.19211 0.581866,-0.72341 0.785183,-1.18717 0.308043,-0.70391 0.390872,-1.12641 0.51409,-2.61451 0.166345,-2.00665 0.169085,-2.1905 0.04313,-3.18106 -0.05956,-0.46377 -0.04039,-0.77595 0.05476,-0.90127 0.17593,-0.23189 0.299825,-6.08824 0.138271,-6.55275 -0.07119,-0.20412 -0.05955,-0.36847 0.03423,-0.47053 0.07872,-0.087 0.154022,-0.72341 0.16771,-1.41981 0.0137,-0.70015 0.05271,-1.93161 0.08763,-2.76458 0.03422,-0.82998 0.05682,-2.78485 0.05134,-4.36901 -0.02259,-5.86986 0.01848,-7.18761 0.247122,-7.98607 0.07598,-0.26415 0.167711,-1.26973 0.205359,-2.25204 0.07598,-1.95262 0.295043,-3.88047 0.464805,-4.08234 0.0664,-0.0788 0.114321,-0.22513 0.114321,-0.3482 0,-0.11481 0.105425,-0.43 0.230694,-0.68889 0.12527,-0.25965 0.207422,-0.55307 0.180035,-0.64162 -0.02738,-0.0908 0.06161,-0.41649 0.199202,-0.73092 0.202629,-0.46001 0.235486,-0.73017 0.174565,-1.44008 -0.04518,-0.53205 -0.02327,-0.94028 0.05613,-1.04459 0.09174,-0.11932 0.09174,-0.25215 0,-0.44351"
       style="fill:#000000;fill-opacity:1;fill-rule:nonzero;stroke:none"
       id="path184"
       inkscape:connector-curvature="0" />
    <g
       id="g4244"
       transform="translate(-7.9292494,195.79125)">
      <ellipse
         ry="21.310167"
         rx="19.026936"
         cy="-24.262829"
         cx="133.75528"
         id="path4221"
         style="fill:#ffffff;fill-opacity:0.94117647" />
      <ellipse
         ry="21.310167"
         rx="19.026936"
         cy="-25.784975"
         cx="134.51637"
         id="path4221-3"
         style="fill:#ffff00;fill-opacity:0.43137255" />
      <path
         inkscape:connector-curvature="0"
         id="path750"
         style="fill:#000000;fill-opacity:1;fill-rule:nonzero;stroke:none"
         d="m 153.08648,-31.68598 c -0.0561,-0.34295 -0.24302,-0.92828 -0.42374,-1.32451 -0.18073,-0.39548 -0.38129,-0.99357 -0.45386,-1.35152 -0.1417,-0.6964 -0.67975,-1.80479 -1.00286,-2.06669 -0.11637,-0.0945 -0.40045,-0.52005 -0.62909,-0.94329 -0.22865,-0.42324 -0.47919,-0.8825 -0.55381,-1.01758 -0.0753,-0.13358 -0.41688,-0.57333 -0.75368,-0.96881 -0.33748,-0.39622 -0.72356,-0.92453 -0.85295,-1.16691 -0.13143,-0.24615 -0.30325,-0.44426 -0.38608,-0.44426 -0.18894,0 -0.9214,-0.90051 -0.9214,-1.13315 0,-0.19961 -0.7222,-0.98606 -0.98437,-1.07161 -0.10337,-0.0338 -0.29984,-0.30017 -0.44222,-0.60035 -0.16156,-0.34144 -0.35802,-0.55456 -0.53532,-0.58008 -0.15197,-0.0225 -0.60377,-0.36996 -0.98985,-0.76244 -0.70988,-0.72116 -1.36087,-1.17817 -1.68124,-1.18117 -0.17457,-10e-4 -1.09597,-0.90427 -1.09597,-1.07387 0,-0.19361 -0.97137,-0.46076 -2.24121,-0.61685 -0.72218,-0.0893 -1.39167,-0.20037 -1.49436,-0.24764 -0.17524,-0.0811 -0.90907,-0.23564 -1.18357,-0.24839 -0.0678,-0.004 -0.3238,0.0323 -0.55997,0.078 -0.42304,0.0818 -0.83446,-0.0398 -1.28284,-0.37897 -0.18894,-0.14258 -0.27313,-0.10806 -0.53532,0.21913 -0.25122,0.31443 -0.37649,0.37071 -0.64758,0.29417 -0.18346,-0.0525 -0.52299,-0.0893 -0.74752,-0.0825 -0.22385,0.007 -0.52984,-0.054 -0.67223,-0.13658 -0.18687,-0.10731 -0.28477,-0.10731 -0.34227,0 -0.0452,0.0833 -0.34295,0.20412 -0.66675,0.27016 -0.69686,0.14333 -1.43892,0.65737 -1.89619,1.314 -0.18072,0.25965 -0.43538,0.47802 -0.55722,0.47802 -0.1239,0 -0.29299,0.0908 -0.37924,0.20412 -0.0856,0.11181 -0.31147,0.19211 -0.49834,0.17785 -0.18689,-0.015 -0.43264,0.0563 -0.54148,0.15684 -0.14171,0.13058 -0.42374,0.16209 -0.97138,0.10806 -0.87211,-0.0863 -1.44713,0.10356 -1.75928,0.58159 -0.16909,0.25814 -0.2704,0.28966 -0.73178,0.22513 -0.51068,-0.072 -0.55243,-0.0503 -0.90908,0.45701 -0.20126,0.28666 -0.54558,0.59884 -0.74684,0.67613 -0.20673,0.0788 -0.51478,0.37522 -0.68934,0.66188 -0.27929,0.45927 -0.80503,1.06111 -1.49026,1.70423 -0.13554,0.12832 -0.24917,0.37146 -0.24917,0.53431 0,0.28966 -0.62226,1.2247 -1.25751,1.88808 -0.1862,0.19436 -0.40047,0.60409 -0.47987,0.91777 -0.1,0.39548 -0.25328,0.63862 -0.50999,0.80597 -0.27451,0.17785 -0.3676,0.33544 -0.3676,0.6206 0,0.20937 -0.15129,0.64162 -0.33406,0.95605 -0.59624,1.02359 -0.78654,1.52337 -0.78654,2.06143 0,0.3407 -0.0637,0.54406 -0.18689,0.59359 -0.0999,0.0398 -0.18688,0.21838 -0.18688,0.38197 0,0.1696 -0.1061,0.60785 -0.23685,0.97631 -0.12869,0.36471 -0.33269,1.01008 -0.44837,1.41981 -0.11501,0.40974 -0.28136,0.84424 -0.36555,0.9553 -0.28136,0.37296 -0.33064,0.72341 -0.41416,2.93568 -0.0931,2.45691 -0.0876,3.71313 0.0281,6.2796 0.0438,0.98306 0.0767,1.95412 0.0733,2.17775 -0.003,0.21837 0.0794,0.54331 0.18071,0.7099 0.10132,0.1666 0.18689,0.55907 0.18689,0.86 0,0.34144 0.11158,0.74893 0.2923,1.06485 0.16429,0.28667 0.33611,0.66189 0.39224,0.85325 0.0561,0.1906 0.20127,0.48552 0.32995,0.66863 0.12528,0.17711 0.2307,0.43375 0.2307,0.55983 0,0.36921 1.07063,2.23852 1.61895,2.82461 0.2615,0.27991 0.55175,0.6904002 0.62841,0.8885102 0.0801,0.20487 0.24028,0.40223 0.36145,0.4435 0.11774,0.0413 0.28066,0.22588 0.35527,0.40298 0.076,0.18235 0.47303,0.59059 0.89608,0.92228 1.35745,1.06111 1.5505,1.22545 1.59363,1.35753 0.0746,0.22812 1.7935,1.4881 2.03035,1.4881 0.11227,0 0.28204,0.0968 0.36145,0.20486 0.0794,0.10882 0.21632,0.20488 0.2923,0.20488 0.0774,0 0.35528,0.15683 0.60445,0.34069 0.2485,0.18535 0.56339,0.34219 0.68455,0.34219 0.12185,0 0.42373,0.14634 0.6599,0.32044 0.31148,0.22888 0.68523,0.34445 1.30817,0.40298 0.48124,0.045 1.34445,0.17935 1.92974,0.30017 2.86414,0.59209 8.14748,0.37747 9.40225,-0.38196 0.14102,-0.0856 0.41141,-0.1606 0.62294,-0.17336 1.33212,-0.0795 1.99202,-0.21237 2.22888,-0.44726 0.34912,-0.34519 0.75779,-0.56732 1.04599,-0.56732 0.1328,0 0.3628,-0.15084 0.52299,-0.34145 0.16018,-0.19135 0.41004,-0.34144 0.5668,-0.34144 0.14923,0 0.31215,-0.0953 0.34912,-0.20487 0.0356,-0.1073 0.18004,-0.20487 0.30463,-0.20487 0.13553,0 0.33816,-0.12232 0.47301,-0.28666 0.13418,-0.1621 0.39909,-0.38272 0.61062,-0.50804 0.38608,-0.22963 1.55666,-1.52037 1.55666,-1.71699 0,-0.1058 0.35049,-0.58683 1.19317,-1.63818 0.24369,-0.30317 0.62636,-0.9830602 0.86115,-1.5293702 0.23549,-0.54557 0.46824,-1.00258 0.52368,-1.02734 0.20947,-0.0946 0.6599,-0.91102 0.6599,-1.19769 0,-0.16434 0.18826,-0.92828 0.4169,-1.69297 0.22932,-0.76394 0.48739,-1.71249 0.57296,-2.10196 0.0869,-0.39623 0.23274,-0.77969 0.32995,-0.86674 0.10063,-0.0908 0.17456,-0.40973 0.17456,-0.75118 0,-0.32718 0.0554,-0.63036 0.12458,-0.67614 0.0691,-0.045 0.12734,-0.51855 0.13075,-1.0641 0.004,-0.64163 0.0685,-1.07537 0.1862,-1.24947 0.102,-0.15009 0.18073,-0.47803 0.18073,-0.75044 0,-0.26939 0.0773,-0.75793 0.17455,-1.09937 0.0972,-0.34145 0.22932,-0.85699 0.29915,-1.16017 0.0691,-0.30392 0.22111,-0.81947 0.34227,-1.16091 0.16771,-0.47277 0.22522,-1.13315 0.24918,-2.86665 0.0171,-1.24196 -0.0137,-2.5282 -0.0685,-2.86664 z m -6.93036,4.87329 c -0.16223,0.47803 -0.29298,1.06636 -0.29298,1.32451 0,0.2544 -0.0869,0.68965 -0.19305,0.9628 -0.1061,0.27467 -0.21221,0.85249 -0.23617,1.28999 -0.024,0.43675 -0.0993,0.90802 -0.16702,1.05135 -0.18688,0.39247 -0.64896,2.51169 -0.64896,2.97546 0,0.51929 -0.73793,2.65877 -1.06378,3.08577 -0.0876,0.11406 -0.19646,0.35495 -0.24849,0.54556 -0.15402,0.57333 -1.36909,2.50494 -1.78871,2.84263 -0.27382,0.22062 -0.38541,0.42024 -0.38541,0.68664 0,0.28366 -0.13759,0.48928 -0.56064,0.83973 -0.31147,0.25741 -0.56065,0.51254 -0.56065,0.57333 0,0.1771 -0.77216,0.6551202 -1.0583,0.6551202 -0.14855,0 -0.38334,0.17786 -0.54148,0.40974 -0.21015,0.30693 -0.3806,0.41124 -0.67907,0.41649 -0.22453,0.004 -0.53463,0.09 -0.70988,0.19736 -0.17455,0.10732 -0.41552,0.19436 -0.54763,0.19812 -0.12458,0.004 -0.33132,0.0976 -0.43605,0.19811 -0.11091,0.10656 -0.5853,0.29867 -1.07132,0.4345 -1.23288,0.34369 -4.3147,0.33319 -4.93148,-0.0165 -0.23274,-0.13207 -0.79064,-0.2679 -1.23903,-0.30167 -0.51066,-0.0383 -1.02271,-0.17936 -1.36978,-0.37596 -0.30804,-0.17411 -0.80297,-0.44427 -1.11444,-0.6071 -0.31352,-0.16435 -0.83446,-0.49454 -1.1829,-0.7504402 -0.89675,-0.65737 -2.80184,-2.76083 -2.80184,-3.09251 0,-0.0916 -0.16634,-0.45777 -0.37377,-0.82623 -0.21563,-0.38197 -0.37376,-0.84948 -0.37376,-1.10538 0,-0.24464 -0.10679,-0.68965 -0.23753,-0.98982 -0.45591,-1.05136 -0.66197,-1.64495 -0.73384,-2.11622 -0.12254,-0.8052 -0.05,-5.5059 0.091,-5.91113 0.0733,-0.21087 0.1328,-0.64837 0.1328,-0.97631 0,-0.32719 0.0842,-0.76844 0.18689,-0.98306 0.102,-0.21238 0.18688,-0.59359 0.18688,-0.83973 0,-0.2484 0.13965,-0.75043 0.31147,-1.1189 0.17182,-0.36846 0.31147,-0.82847 0.31147,-1.02433 0,-0.32719 0.43606,-1.42732 0.62225,-1.57065 0.0486,-0.0368 0.1239,-0.27916 0.16839,-0.53806 0.0445,-0.25965 0.15677,-0.56658 0.24918,-0.68289 0.0945,-0.11857 0.20058,-0.40298 0.24302,-0.64837 0.0411,-0.24089 0.27313,-0.73693 0.51615,-1.10614 0.24369,-0.36846 0.44495,-0.75418 0.44906,-0.85999 0.003,-0.10356 0.25944,-0.55982 0.55996,-0.99657 0.30051,-0.43675 0.55517,-0.87425 0.55585,-0.9553 0.002,-0.20111 1.36841,-1.82955 1.70452,-2.03291 0.15334,-0.0923 0.49835,-0.3392 0.78449,-0.56133 0.41073,-0.31818 0.62294,-0.39172 1.08363,-0.37521 0.3861,0.0135 0.64553,-0.051 0.79682,-0.20036 0.32311,-0.31819 2.04201,-0.1666 2.41577,0.21387 0.20399,0.20637 0.34912,0.23263 0.79749,0.14333 0.29846,-0.0593 0.70029,-0.0593 0.88375,0 0.18688,0.0608 0.41415,0.0548 0.51068,-0.0135 0.0965,-0.0683 0.37375,-0.12307 0.62293,-0.12307 0.36076,0 0.47713,-0.0713 0.59762,-0.36846 0.0828,-0.20487 0.25738,-0.45026 0.39223,-0.55232 0.13144,-0.10055 0.24302,-0.33469 0.24302,-0.51254 0,-0.20412 0.091,-0.35795 0.24233,-0.40973 0.13212,-0.0443 0.36281,-0.26566 0.50451,-0.48403 0.14171,-0.21838 0.36692,-0.40298 0.49219,-0.40298 0.12458,0 0.25054,-0.066 0.27382,-0.14333 0.024,-0.0788 0.15539,-0.14184 0.2923,-0.14034 0.7975,0.009 1.03503,0.0825 1.40743,0.43826 0.22453,0.21312 0.52162,0.39172 0.65374,0.39172 0.13691,0 0.24302,0.0473 0.24302,0.10881 0,0.06 0.19303,0.21087 0.42989,0.3347 0.23617,0.12382 0.55791,0.41873 0.71603,0.65512 0.15471,0.23188 0.40937,0.48328 0.55381,0.54631 0.14512,0.063 0.45042,0.41649 0.66606,0.77144 0.21631,0.35496 0.55311,0.78946 0.7352,0.94855 0.18414,0.16134 0.46823,0.60785 0.62909,0.98982 0.22317,0.53205 0.39225,0.73542 0.71604,0.86299 0.54558,0.21387 0.957,1.10238 0.83857,1.81304 -0.0698,0.42324 -0.0438,0.49228 0.23206,0.60485 0.40389,0.16509 0.57844,0.51404 0.4963,0.99206 -0.0322,0.19136 0.0178,0.50654 0.10953,0.68214 0.40387,0.7797 0.3409,4.23243 -0.10132,5.52917" />
    </g>
  </g>
</svg>
