<?xml version="1.0" encoding="UTF-8" standalone="no"?>
<!-- Created with Inkscape (http://www.inkscape.org/) -->

<svg
   xmlns:dc="http://purl.org/dc/elements/1.1/"
   xmlns:cc="http://creativecommons.org/ns#"
   xmlns:rdf="http://www.w3.org/1999/02/22-rdf-syntax-ns#"
   xmlns:svg="http://www.w3.org/2000/svg"
   xmlns="http://www.w3.org/2000/svg"
   xmlns:sodipodi="http://sodipodi.sourceforge.net/DTD/sodipodi-0.dtd"
   xmlns:inkscape="http://www.inkscape.org/namespaces/inkscape"
   width="21.26656mm"
   height="18.152674mm"
   viewBox="0 0 75.353953 64.320495"
   id="svg6079"
   version="1.1"
   inkscape:version="0.91 r13725"
   sodipodi:docname="button7.svg">
  <defs
     id="defs6081" />
  <sodipodi:namedview
     id="base"
     pagecolor="#ffffff"
     bordercolor="#666666"
     borderopacity="1.0"
     inkscape:pageopacity="0.0"
     inkscape:pageshadow="2"
     inkscape:zoom="4"
     inkscape:cx="48.360658"
     inkscape:cy="63.046428"
     inkscape:document-units="px"
     inkscape:current-layer="layer1"
     showgrid="false"
     inkscape:snap-global="true"
     fit-margin-top="0"
     fit-margin-left="0"
     fit-margin-right="0"
     fit-margin-bottom="0"
     inkscape:window-width="1920"
     inkscape:window-height="1080"
     inkscape:window-x="0"
     inkscape:window-y="0"
     inkscape:window-maximized="0" />
  <metadata
     id="metadata6084">
    <rdf:RDF>
      <cc:Work
         rdf:about="">
        <dc:format>image/svg+xml</dc:format>
        <dc:type
           rdf:resource="http://purl.org/dc/dcmitype/StillImage" />
        <dc:title />
      </cc:Work>
    </rdf:RDF>
  </metadata>
  <g
     inkscape:label="Layer 1"
     inkscape:groupmode="layer"
     id="layer1"
     transform="translate(-145.93253,-142.78421)">
    <g
       id="g584"
       transform="matrix(0.50698409,0,0,-0.39071772,166.06517,183.28295)">
      <path
         d="m 0,0 c 3.828,-15.463 21.228,-19.797 35.903,-17.34 17.026,2.852 27.451,25.817 13.602,41.34 -4.518,5.064 -10.141,9.142 -15.654,14.021 2.585,3.227 5.6,6.737 8.335,10.454 6.404,8.711 3.313,16.387 -6.975,19.75 -12.3,4.019 -24.288,0.486 -36.367,-0.47 -4.906,-0.389 -6.238,-3.956 -4.408,-8.682 3.058,-7.901 9.702,-9.583 15.943,-9.34 C 9.262,45.038 6.619,40.339 7.615,36.611 9.09,31.089 12.699,25.857 18.917,23.696 21.416,22.828 24.04,22.175 26.351,20.943 32.288,17.777 33.729,11.161 30.169,4.539 27.156,-1.062 24.399,-1.679 17.146,2.297 10.985,5.675 5.37,6.406 0,0 m 23.604,-42.156 c -6.281,1.357 -13.375,1.96 -19.742,4.435 -21.309,8.286 -26.435,20.637 -27.797,45.783 -1.023,18.897 2.863,37.079 10.417,54.437 5.081,11.674 11.554,22.386 22.099,30.011 8.513,6.155 17.71,6.388 27.456,3.121 3.62,-1.213 8.161,-2.705 11.364,-1.541 7.816,2.838 12.747,-1.319 17.85,-5.462 C 78.263,78.065 86.685,64.249 91.529,48.465 96.513,32.23 93.319,16.174 87.78,0.683 81.937,-15.659 70.403,-27.404 55.282,-35.473 45.681,-40.596 34.885,-40.757 23.604,-42.156"
         style="fill:#ffffff;fill-opacity:1;fill-rule:evenodd;stroke:none"
         id="path586"
         inkscape:connector-curvature="0" />
    </g>
    <ellipse
       style="fill:#008000;fill-opacity:0.431694;stroke:none;stroke-opacity:1"
       id="path7888-3"
       cx="183.43253"
       cy="175.85471"
       rx="30.75"
       ry="28.75" />
    <g
       id="g580"
       transform="matrix(0.45406431,0,0,-0.36748243,178.48803,200.87767)">
      <path
         d="m 0,0 c 11.281,1.399 22.077,1.561 31.679,6.684 15.121,8.068 26.654,19.813 32.498,36.155 5.539,15.491 8.732,31.547 3.749,47.782 -4.845,15.784 -13.267,29.6 -26.279,40.163 -5.102,4.143 -10.034,8.3 -17.849,5.462 -3.203,-1.163 -7.744,0.328 -11.364,1.542 -9.746,3.266 -18.944,3.033 -27.456,-3.122 C -25.567,127.041 -32.04,116.33 -37.121,104.655 -44.676,87.297 -48.562,69.115 -47.538,50.218 -46.177,25.072 -41.051,12.722 -19.741,4.436 -13.374,1.96 -6.28,1.357 0,0 m -71.698,58.428 c 0.492,32.782 10.41,60.261 30.03,84.473 3.743,4.619 7.7,7.609 13.09,9.499 12.604,4.42 25.076,7.978 38.698,3.876 5.199,-1.565 11.224,-1.874 16.602,-1.031 8.998,1.409 16.84,-1.132 23.272,-6.387 12.075,-9.864 23.735,-20.436 31.935,-33.953 C 93.206,96.315 96.38,76.408 92.939,54.699 89.552,33.323 78.662,16.963 63.116,3.216 57.996,-1.312 51.489,-4.488 45.231,-7.476 19.797,-19.617 -6.56,-19.76 -32.271,-9.755 c -23.435,9.12 -35.153,28.48 -38.576,52.943 -0.781,5.582 -0.65,11.291 -0.851,15.24"
         style="fill:#231f20;fill-opacity:1;fill-rule:evenodd;stroke:none"
         id="path582"
         inkscape:connector-curvature="0" />
    </g>
    <path
       d="m 172.95533,175.21765 c 0.45761,0.88356 1.44061,1.96699 2.14398,2.36394 0.22881,0.1317 0.68641,0.28861 1.02538,0.35493 0.33897,0.0663 0.83895,0.23536 1.13555,0.382 0.2966,0.14477 0.73725,0.28113 0.99996,0.30354 0.68641,0.0597 1.24571,1.09838 0.58472,1.09838 -0.21185,0 -0.32202,0.16998 -0.38134,0.59402 -0.10169,0.64632 -0.98301,2.12484 -1.27113,2.12484 -0.25423,0 -0.6949,0.5604 -0.6949,0.88263 0,0.1513 -0.36439,0.67995 -0.81352,1.18991 -0.95759,1.07035 -1.39825,1.88666 -1.27113,2.32751 0.0678,0.23163 0.008,0.35398 -0.20339,0.43338 -0.16948,0.0626 -0.33897,0.21762 -0.38981,0.35678 -0.0424,0.13636 -0.17796,0.24657 -0.2966,0.24657 -0.20338,0 -0.28813,0.27179 -0.51694,1.63076 -0.0762,0.45298 0.0254,0.63792 0.91523,1.6569 0.92369,1.05355 1.03386,1.1292 1.33045,0.92653 0.2627,-0.18027 0.41524,-0.17933 0.81353,9.1e-4 0.60167,0.27086 0.60167,0.27086 1.57621,0.0187 0.83048,-0.21482 1.32198,-0.60243 1.32198,-1.03954 0,-0.15317 0.0848,-0.34091 0.16949,-0.39974 0.0932,-0.0616 0.13559,-0.25405 0.0932,-0.44085 -0.0424,-0.19334 0.0678,-0.50156 0.27117,-0.73972 0.18644,-0.2223 0.44066,-0.83219 0.55083,-1.34215 0.12711,-0.59496 0.35591,-1.10118 0.63557,-1.39352 0.23727,-0.24658 0.51692,-0.72198 0.60166,-1.0274 0.0848,-0.30635 0.37287,-0.73412 0.6271,-0.92652 0.36439,-0.28487 0.42371,-0.40442 0.27964,-0.59402 -0.1271,-0.17933 -0.11016,-0.26432 0.0678,-0.34372 0.25422,-0.10739 0.71183,-0.98256 0.71183,-1.35615 0,-0.24097 0.58473,-1.02833 1.43214,-1.92683 0.31356,-0.3269 0.57625,-0.69022 0.57625,-0.79203 0,-0.17933 1.1864,-0.54359 1.77112,-0.54359 0.83048,0 1.9745,-0.19147 2.12703,-0.35678 0.0932,-0.10185 0.32203,-0.1868 0.50846,-0.1868 0.18644,0 0.60167,-0.12142 0.92369,-0.27179 0.32202,-0.15037 0.78811,-0.23724 1.03386,-0.19615 0.44067,0.0738 2.09314,-0.35305 2.66939,-0.68648 0.16101,-0.0924 0.57624,-0.26338 0.91522,-0.37453 0.35592,-0.11582 0.68641,-0.35772 0.77115,-0.5604 0.0848,-0.20267 0.38982,-0.43617 0.72031,-0.53891 0.70336,-0.22696 1.7118,-1.21793 1.59316,-1.56818 -0.0508,-0.14009 -0.0848,-0.57814 -0.0848,-0.96855 0,-1.01992 -0.4915,-1.54109 -1.6779,-1.77273 -0.80506,-0.15784 -1.04234,-0.13729 -1.7457,0.15038 -0.44913,0.1812 -0.93216,0.33064 -1.06775,0.33064 -0.12711,0 -0.36439,0.14476 -0.50846,0.31475 -0.16948,0.20641 -0.57624,0.35212 -1.17792,0.42496 -0.50845,0.0607 -1.0508,0.20456 -1.22028,0.32223 -0.26271,0.18119 -0.34745,0.16906 -0.56778,-0.0757 -0.23728,-0.26712 -0.2288,-0.32316 0.008,-0.73132 0.14406,-0.23817 0.36439,-0.48474 0.48303,-0.53517 0.12712,-0.0495 0.2288,-0.25498 0.2288,-0.44178 0,-0.19334 0.30508,-0.66875 0.6949,-1.07036 0.39828,-0.4175 0.69488,-0.87236 0.69488,-1.07876 0,-0.20362 0.0932,-0.35679 0.2288,-0.35679 0.12712,0 0.2966,-0.1868 0.38134,-0.42497 0.0848,-0.23817 0.25423,-0.42497 0.38982,-0.42497 0.11864,0 0.27117,-0.19521 0.32202,-0.41563 0.0508,-0.22136 0.22881,-0.55199 0.38134,-0.70516 0.16101,-0.15225 0.2966,-0.39788 0.2966,-0.51836 0,-0.11956 0.0932,-0.22977 0.19491,-0.22977 0.10169,0 0.32202,-0.29701 0.48303,-0.67061 0.16102,-0.3736 0.49151,-0.87889 0.72879,-1.13854 0.25423,-0.26245 0.44065,-0.55666 0.44065,-0.67155 0,-0.11394 0.16949,-0.32316 0.38982,-0.47539 0.21186,-0.15224 0.38135,-0.3764 0.38135,-0.50996 0,-0.13357 0.16948,-0.35773 0.3898,-0.50996 0.24576,-0.17747 0.38135,-0.43338 0.38135,-0.7388 0,-0.32316 0.11017,-0.51836 0.33897,-0.63324 0.54235,-0.26526 1.02538,-1.53362 1.03386,-2.7226 0.017,-1.68213 -0.37287,-2.52833 -1.65248,-3.63791 -0.60167,-0.52677 -0.72031,-0.56506 -1.3813,-0.44738 -0.94064,0.16624 -1.68637,0.12795 -2.29653,-0.11862 -0.41523,-0.16625 -0.54234,-0.15131 -0.7881,0.0924 -0.16949,0.16626 -0.39829,0.24564 -0.54235,0.18774 -0.23728,-0.0962 -1.52536,0.28392 -2.15246,0.63418 -0.15253,0.0812 -0.69488,0.14664 -1.23723,0.14664 -0.54236,0 -1.03386,0.071 -1.1186,0.16064 -0.0762,0.0897 -0.89827,0.21108 -1.83892,0.2718 -0.94063,0.0616 -1.9067,0.20547 -2.16093,0.32316 -0.34745,0.16157 -1.0169,0.17559 -2.77107,0.0597 -1.55927,-0.10273 -2.43211,-0.0943 -2.66939,0.0253 -0.20338,0.10085 -0.48303,0.1784 -0.65251,0.1784 -0.18644,0 -0.30508,0.10739 -0.30508,0.28019 0,0.15318 -0.0424,0.2307 -0.10169,0.16999 -0.0508,-0.0626 -0.25422,0 -0.44914,0.14476 -0.20338,0.14385 -0.45761,0.21389 -0.58472,0.16066 -0.16101,-0.0663 -0.25423,0.085 -0.3305,0.54452 -0.0848,0.52677 -0.0508,0.68275 0.20338,0.90037 0.16949,0.14476 0.35593,0.5688 0.41524,0.94333 0.0848,0.5193 0.31355,0.90877 0.99149,1.65597 0.84742,0.93493 0.92369,0.97697 1.65248,0.97697 0.41524,0 0.84742,0.0924 0.94911,0.20454 0.13559,0.1541 0.36439,0.15598 0.91522,0.009 0.39829,-0.1074 1.39825,-0.24564 2.19483,-0.30635 1.06775,-0.0803 1.6101,-0.20362 1.9745,-0.4502 0.39829,-0.26245 0.74574,-0.33623 1.56774,-0.32316 0.64403,0.0112 1.2796,-0.085 1.62705,-0.24563 0.30507,-0.14291 0.66947,-0.22416 0.78811,-0.1784 0.11863,0.0477 0.36439,0.0215 0.56777,-0.0597 0.22881,-0.0943 0.44066,-0.07 0.61861,0.0692 0.34745,0.28674 0.33898,0.36426 -0.11863,0.90784 -0.21186,0.24938 -0.43219,0.73038 -0.48303,1.05355 -0.15254,1.00218 -0.21186,1.15068 -0.52541,1.23848 -0.17795,0.0495 -0.44066,0.41843 -0.61862,0.86021 -0.16948,0.42497 -0.45761,0.91158 -0.64404,1.07969 -0.50845,0.4614 -1.05081,1.35336 -1.05081,1.73164 0,0.19986 -0.12711,0.38573 -0.31354,0.45018 -0.20339,0.07 -0.28812,0.2008 -0.23728,0.35678 0.0508,0.14851 -0.16101,0.52678 -0.5254,0.95174 -0.34745,0.39135 -0.61862,0.82285 -0.61862,0.96856 0,0.1457 -0.51693,0.90877 -1.15251,1.70734 -0.63556,0.79856 -1.16943,1.59619 -1.19486,1.78486 -0.11016,0.83032 -3.29648,0.0645 -5.31335,-1.27771 -0.56777,-0.37546 -1.83891,-0.46045 -3.17784,-0.21295 -0.84742,0.15598 -1.17792,0.38948 -1.18639,0.84527 0,0.0981 -0.12712,0.17466 -0.26271,0.16159 -0.46608,-0.0439 -0.40676,1.02739 0.11017,2.01275"
       style="fill:#000000;fill-opacity:1;fill-rule:nonzero;stroke:none"
       id="path20"
       inkscape:connector-curvature="0" />
  </g>
</svg>
