<?xml version="1.0" encoding="UTF-8" standalone="no"?>
<!-- Created with Inkscape (http://www.inkscape.org/) -->

<svg
   xmlns:dc="http://purl.org/dc/elements/1.1/"
   xmlns:cc="http://creativecommons.org/ns#"
   xmlns:rdf="http://www.w3.org/1999/02/22-rdf-syntax-ns#"
   xmlns:svg="http://www.w3.org/2000/svg"
   xmlns="http://www.w3.org/2000/svg"
   xmlns:sodipodi="http://sodipodi.sourceforge.net/DTD/sodipodi-0.dtd"
   xmlns:inkscape="http://www.inkscape.org/namespaces/inkscape"
   width="21.26656mm"
   height="18.152674mm"
   viewBox="0 0 75.353953 64.320495"
   id="svg6079"
   version="1.1"
   inkscape:version="0.91 r13725"
   sodipodi:docname="buttonPlus.svg">
  <defs
     id="defs6081" />
  <sodipodi:namedview
     id="base"
     pagecolor="#ffffff"
     bordercolor="#666666"
     borderopacity="1.0"
     inkscape:pageopacity="0.0"
     inkscape:pageshadow="2"
     inkscape:zoom="1.4142136"
     inkscape:cx="71.35167"
     inkscape:cy="-21.479033"
     inkscape:document-units="px"
     inkscape:current-layer="layer1"
     showgrid="false"
     inkscape:snap-global="true"
     fit-margin-top="0"
     fit-margin-left="0"
     fit-margin-right="0"
     fit-margin-bottom="0"
     inkscape:window-width="1920"
     inkscape:window-height="1080"
     inkscape:window-x="0"
     inkscape:window-y="0"
     inkscape:window-maximized="0" />
  <metadata
     id="metadata6084">
    <rdf:RDF>
      <cc:Work
         rdf:about="">
        <dc:format>image/svg+xml</dc:format>
        <dc:type
           rdf:resource="http://purl.org/dc/dcmitype/StillImage" />
        <dc:title />
      </cc:Work>
    </rdf:RDF>
  </metadata>
  <g
     inkscape:label="Layer 1"
     inkscape:groupmode="layer"
     id="layer1"
     transform="translate(-145.93253,-142.78421)">
    <g
       id="g584"
       transform="matrix(0.50698409,0,0,-0.39071772,166.06517,183.28295)">
      <path
         d="m 0,0 c 3.828,-15.463 21.228,-19.797 35.903,-17.34 17.026,2.852 27.451,25.817 13.602,41.34 -4.518,5.064 -10.141,9.142 -15.654,14.021 2.585,3.227 5.6,6.737 8.335,10.454 6.404,8.711 3.313,16.387 -6.975,19.75 -12.3,4.019 -24.288,0.486 -36.367,-0.47 -4.906,-0.389 -6.238,-3.956 -4.408,-8.682 3.058,-7.901 9.702,-9.583 15.943,-9.34 C 9.262,45.038 6.619,40.339 7.615,36.611 9.09,31.089 12.699,25.857 18.917,23.696 21.416,22.828 24.04,22.175 26.351,20.943 32.288,17.777 33.729,11.161 30.169,4.539 27.156,-1.062 24.399,-1.679 17.146,2.297 10.985,5.675 5.37,6.406 0,0 m 23.604,-42.156 c -6.281,1.357 -13.375,1.96 -19.742,4.435 -21.309,8.286 -26.435,20.637 -27.797,45.783 -1.023,18.897 2.863,37.079 10.417,54.437 5.081,11.674 11.554,22.386 22.099,30.011 8.513,6.155 17.71,6.388 27.456,3.121 3.62,-1.213 8.161,-2.705 11.364,-1.541 7.816,2.838 12.747,-1.319 17.85,-5.462 C 78.263,78.065 86.685,64.249 91.529,48.465 96.513,32.23 93.319,16.174 87.78,0.683 81.937,-15.659 70.403,-27.404 55.282,-35.473 45.681,-40.596 34.885,-40.757 23.604,-42.156"
         style="fill:#ffffff;fill-opacity:1;fill-rule:evenodd;stroke:none"
         id="path586"
         inkscape:connector-curvature="0" />
    </g>
    <ellipse
       style="fill:#008000;fill-opacity:0.431694;stroke:none;stroke-opacity:1"
       id="path7888-3"
       cx="181.28784"
       cy="175.992"
       rx="30.75"
       ry="28.75" />
    <g
       id="g580"
       transform="matrix(0.45406431,0,0,-0.36748243,178.48803,200.87767)">
      <path
         d="m 0,0 c 11.281,1.399 22.077,1.561 31.679,6.684 15.121,8.068 26.654,19.813 32.498,36.155 5.539,15.491 8.732,31.547 3.749,47.782 -4.845,15.784 -13.267,29.6 -26.279,40.163 -5.102,4.143 -10.034,8.3 -17.849,5.462 -3.203,-1.163 -7.744,0.328 -11.364,1.542 -9.746,3.266 -18.944,3.033 -27.456,-3.122 C -25.567,127.041 -32.04,116.33 -37.121,104.655 -44.676,87.297 -48.562,69.115 -47.538,50.218 -46.177,25.072 -41.051,12.722 -19.741,4.436 -13.374,1.96 -6.28,1.357 0,0 m -71.698,58.428 c 0.492,32.782 10.41,60.261 30.03,84.473 3.743,4.619 7.7,7.609 13.09,9.499 12.604,4.42 25.076,7.978 38.698,3.876 5.199,-1.565 11.224,-1.874 16.602,-1.031 8.998,1.409 16.84,-1.132 23.272,-6.387 12.075,-9.864 23.735,-20.436 31.935,-33.953 C 93.206,96.315 96.38,76.408 92.939,54.699 89.552,33.323 78.662,16.963 63.116,3.216 57.996,-1.312 51.489,-4.488 45.231,-7.476 19.797,-19.617 -6.56,-19.76 -32.271,-9.755 c -23.435,9.12 -35.153,28.48 -38.576,52.943 -0.781,5.582 -0.65,11.291 -0.851,15.24"
         style="fill:#231f20;fill-opacity:1;fill-rule:evenodd;stroke:none"
         id="path582"
         inkscape:connector-curvature="0" />
    </g>
    <path
       d="m 203.81791,170.11699 c -0.37503,0.0754 -0.41346,0.0562 -0.35582,-0.17435 0.0391,-0.15585 -0.0256,-0.3238 -0.16154,-0.42058 -0.12881,-0.0918 -0.306,-0.3302 -0.40919,-0.55081 -0.22487,-0.48177 -0.78849,-0.58282 -2.342,-0.42199 -0.80272,0.0833 -1.24677,0.2078 -1.75417,0.49316 -0.37574,0.21135 -0.81055,0.38499 -0.97138,0.38855 -0.16296,0.003 -0.43339,0.0862 -0.61486,0.18787 -0.17932,0.1003 -0.5629,0.18361 -0.86108,0.18788 -0.29745,0.003 -0.74437,0.0925 -1.00269,0.20068 -0.25904,0.10746 -0.62197,0.19214 -0.81553,0.19072 -0.51807,-0.005 -1.23112,0.15086 -1.52788,0.33518 -0.14375,0.0889 -0.62126,0.18858 -1.07457,0.22487 -0.45331,0.0356 -0.94506,0.15088 -1.10659,0.25904 -0.15869,0.1053 -0.67392,0.2263 -1.12652,0.26472 -0.45331,0.0391 -1.00412,0.1338 -1.20409,0.20709 -0.20708,0.0769 -0.42627,0.10253 -0.49814,0.0584 -0.0712,-0.042 -0.25904,-0.0128 -0.41488,0.0648 -0.35582,0.17791 -4.02573,0.78991 -4.73807,0.78991 l -0.54368,0 0.0648,-0.74437 c 0.0356,-0.40705 0.0997,-1.18415 0.14233,-1.71503 0.0428,-0.53088 0.13379,-1.17705 0.20068,-1.4247 0.0683,-0.25192 0.15727,-0.85396 0.19926,-1.35922 0.28038,-3.32689 0.34728,-4.34027 0.39139,-5.92864 0.0278,-0.98418 0.0762,-1.82747 0.10818,-1.87729 0.0328,-0.0505 0.0498,-0.62837 0.0391,-1.28805 -0.0156,-0.97138 -0.0563,-1.19769 -0.21349,-1.19769 -0.10392,0 -0.25477,-0.13592 -0.3238,-0.29176 -0.0733,-0.16511 -0.29746,-0.34729 -0.51735,-0.42058 -0.21349,-0.0712 -0.57002,-0.25904 -0.78992,-0.41702 -0.7337,-0.52733 -1.85168,-0.30601 -2.86149,0.56646 -0.38001,0.32735 -0.43623,0.46541 -0.51095,1.24252 -0.0598,0.62125 -0.0349,0.93366 0.0868,1.08097 0.19712,0.23839 0.22416,2.73125 0.0698,6.46022 -0.12525,3.04224 -0.13734,5.88308 -0.0264,6.31718 0.0683,0.26687 -0.007,0.41133 -0.43481,0.82265 -0.28465,0.27398 -0.66893,0.56148 -0.85395,0.63977 -0.55508,0.23341 -4.59645,0.21775 -6.00692,-0.0228 -0.67391,-0.11457 -1.6702,-0.25619 -2.20108,-0.31312 -0.53088,-0.0563 -1.26458,-0.1772 -1.61826,-0.26544 -0.50526,-0.12595 -0.78137,-0.12595 -1.25604,0 -0.3366,0.0897 -0.66039,0.12738 -0.72444,0.084 -0.0648,-0.0427 -0.28537,0.0676 -0.49245,0.24623 -0.20709,0.17861 -0.41845,0.32379 -0.47253,0.32379 -0.0555,0 -0.0968,0.0775 -0.0968,0.18146 0,0.10467 -0.0847,0.2135 -0.20068,0.25833 -0.11671,0.0455 -0.17079,0.12667 -0.12951,0.19427 0.037,0.0605 -0.0128,0.18503 -0.10392,0.25904 -0.1224,0.1003 -0.15656,0.36223 -0.11244,0.88029 0.0719,0.85468 0.21064,1.09805 0.59777,1.04611 0.23343,-0.0313 0.27755,0.0349 0.31099,0.46185 0.0356,0.4533 0.0669,0.49173 0.34941,0.42129 0.24623,-0.0619 0.33234,-0.0171 0.41418,0.21349 0.0555,0.15513 0.10529,0.38143 0.10674,0.48533 0.005,0.38357 2.84512,0.36863 3.68698,-0.0192 0.17791,-0.0818 1.13862,-0.17435 2.13562,-0.20566 2.46012,-0.0769 4.6242,-0.2391 5.61906,-0.42128 1.37062,-0.25192 1.35282,-0.33803 0.98704,4.73734 -0.10179,1.41118 -0.15584,2.60957 -0.12026,2.6665 0.0363,0.0584 0.0114,0.3174 -0.0576,0.58924 -0.0683,0.2697 -0.15798,0.79632 -0.20069,1.18416 -0.0434,0.38855 -0.11528,0.75717 -0.16224,0.82905 -0.0463,0.0712 -0.10675,0.84115 -0.13522,1.72144 -0.0534,1.63179 0.027,1.93067 0.42698,1.59834 0.16083,-0.13378 0.24907,-0.10243 0.51736,0.18218 0.1836,0.19428 0.4277,0.34301 0.5629,0.34301 0.1345,0 0.40136,0.0854 0.60845,0.19427 0.20567,0.10746 0.62837,0.19428 0.95217,0.19428 0.67321,0 1.83815,-0.40065 1.92213,-0.6604 0.032,-0.0989 0.19072,-0.34301 0.35012,-0.53729 0.2505,-0.30671 0.28465,-0.46611 0.24551,-1.15213 -0.032,-0.57002 -0.12098,-0.87531 -0.31027,-1.07457 -0.15087,-0.15798 -0.26758,-0.44691 -0.27042,-0.6668 -0.0264,-2.20109 0.0299,-8.57805 0.0812,-9.17867 0.0548,-0.64759 0.12454,-0.82549 0.41559,-1.06816 0.20922,-0.17506 0.53089,-0.29106 0.80273,-0.29106 0.24907,0 0.68601,-0.0555 0.97067,-0.12311 0.28607,-0.0683 0.90662,-0.14944 1.38555,-0.18147 0.47893,-0.032 0.94292,-0.10466 1.03542,-0.16154 0.0939,-0.0584 0.45332,-0.14659 0.81554,-0.20068 0.35298,-0.0534 1.26244,-0.21777 2.00041,-0.36223 0.73797,-0.14517 1.45245,-0.23341 1.57271,-0.19427 0.11671,0.0378 0.2569,0.01 0.29818,-0.0584 0.042,-0.0712 0.35582,-0.16795 0.69242,-0.21421 0.3366,-0.0455 0.81695,-0.14517 1.06105,-0.21989 0.24195,-0.0733 0.73156,-0.15372 1.06816,-0.17435 0.3366,-0.0214 0.73725,-0.10105 0.87388,-0.17506 0.13806,-0.0748 0.80914,-0.13593 1.48234,-0.13593 0.67321,0 1.26529,-0.0555 1.30799,-0.12311 0.042,-0.0662 0.29746,-0.11386 0.5565,-0.10317 0.2633,0.0106 1.26244,-0.0185 2.2203,-0.0648 l 1.74066,-0.0847 0.49245,-0.48534 c 0.27184,-0.26829 0.49173,-0.55436 0.49173,-0.64047 0,-0.0804 0.0847,-0.22416 0.17507,-0.29747 0.0947,-0.0775 0.21634,-0.4469 0.26544,-0.80983 0.0491,-0.36222 0.12596,-0.84329 0.16794,-1.05464 0.0769,-0.38215 0.0712,-0.38713 -0.34301,-0.30458"
       style="fill:#000000;fill-opacity:1;fill-rule:nonzero;stroke:none"
       id="path60"
       inkscape:connector-curvature="0" />
  </g>
</svg>
