<?xml version="1.0" encoding="UTF-8" standalone="no"?>
<!-- Created with Inkscape (http://www.inkscape.org/) -->

<svg
   xmlns:dc="http://purl.org/dc/elements/1.1/"
   xmlns:cc="http://creativecommons.org/ns#"
   xmlns:rdf="http://www.w3.org/1999/02/22-rdf-syntax-ns#"
   xmlns:svg="http://www.w3.org/2000/svg"
   xmlns="http://www.w3.org/2000/svg"
   xmlns:sodipodi="http://sodipodi.sourceforge.net/DTD/sodipodi-0.dtd"
   xmlns:inkscape="http://www.inkscape.org/namespaces/inkscape"
   width="21.26656mm"
   height="18.152674mm"
   viewBox="0 0 75.353953 64.320495"
   id="svg6079"
   version="1.1"
   inkscape:version="0.91 r13725"
   sodipodi:docname="buttonDivide.svg">
  <defs
     id="defs6081" />
  <sodipodi:namedview
     id="base"
     pagecolor="#ffffff"
     bordercolor="#666666"
     borderopacity="1.0"
     inkscape:pageopacity="0.0"
     inkscape:pageshadow="2"
     inkscape:zoom="8.8061618"
     inkscape:cx="21.990068"
     inkscape:cy="43.45784"
     inkscape:document-units="px"
     inkscape:current-layer="g7168"
     showgrid="false"
     inkscape:snap-global="true"
     fit-margin-top="0"
     fit-margin-left="0"
     fit-margin-right="0"
     fit-margin-bottom="0"
     inkscape:window-width="1920"
     inkscape:window-height="1080"
     inkscape:window-x="0"
     inkscape:window-y="0"
     inkscape:window-maximized="0" />
  <metadata
     id="metadata6084">
    <rdf:RDF>
      <cc:Work
         rdf:about="">
        <dc:format>image/svg+xml</dc:format>
        <dc:type
           rdf:resource="http://purl.org/dc/dcmitype/StillImage" />
        <dc:title />
      </cc:Work>
    </rdf:RDF>
  </metadata>
  <g
     inkscape:label="Layer 1"
     inkscape:groupmode="layer"
     id="layer1"
     transform="translate(-145.93253,-142.78421)">
    <g
       id="g7168"
       transform="matrix(0.07986003,0,0,0.07986003,203.49594,152.15719)">
      <ellipse
         style="fill:#008000;fill-opacity:0.431694;stroke:none;stroke-opacity:1"
         id="path7888-3"
         cx="-242.1075"
         cy="298.86508"
         rx="385.04871"
         ry="360.00488" />
      <path
         inkscape:connector-curvature="0"
         id="path58"
         style="fill:#000000;fill-opacity:1;fill-rule:nonzero;stroke:none"
         d="m 20.591269,254.00009 c -0.259769,-1.1584 -1.420103,-1.63174 -2.528479,-1.02139 -1.134349,0.63525 -2.537137,-0.68507 -3.143278,-2.95204 -0.614798,-2.26698 -0.406987,-4.39694 0.467592,-4.80797 2.736303,-1.25805 1.896366,-6.77601 -1.255581,-8.27072 -1.575969,-0.74735 -3.368417,-3.40044 -3.784063,-5.60514 -0.7013872,-3.74922 -1.4980352,-3.94852 -7.4815206,-1.81856 -4.8837793,1.73136 -8.1049889,1.65664 -11.8890511,-0.3114 -6.1480063,-3.18871 -38.3081823,-1.60681 -43.1659793,2.1175 -3.697473,2.83995 -14.807192,4.16027 -45.685801,5.46814 -47.408978,1.99294 -103.806188,5.72971 -121.921168,8.0714 -23.15463,2.98942 -240.03232,0.8221 -242.75129,-2.41643 -2.14748,-2.56591 -43.32185,-2.0054 -45.68581,0.6228 -0.87456,0.97156 -4.48546,5.5304 -8.11363,10.23872 -5.68909,7.3988 -6.54634,9.75296 -6.61562,18.13576 -0.0433,5.89164 0.83994,10.71206 2.28601,12.40607 9.29131,10.97364 11.43012,14.99688 10.55554,19.87959 -0.73603,4.07308 -0.41563,4.92008 1.49804,3.84887 1.66257,-0.92174 2.77094,0.44841 3.46367,4.30973 0.85726,4.73324 1.8877,5.56778 6.30388,5.09445 2.83155,-0.29893 6.44243,0.8221 7.79326,2.44136 2.99607,3.54992 37.80595,3.91115 51.35755,0.52315 4.76255,-1.19576 12.91949,-1.70646 18.11501,-1.14595 19.2147,2.05524 44.62073,2.27944 61.43684,0.5356 9.44715,-0.98401 17.91582,-1.02137 18.82503,-0.0872 0.90055,0.93418 9.83683,1.23312 19.7689,0.68507 10.00135,-0.56052 32.92219,-1.33278 51.19304,-1.70646 18.27086,-0.37367 35.19953,-1.28296 37.80594,-2.01786 8.82371,-2.50362 86.48784,-6.42723 131.37701,-6.62653 34.974403,-0.14937 44.941108,0.44843 46.239987,2.75276 1.108371,1.98049 4.875107,2.7652 11.499375,2.37906 7.559466,-0.43595 10.555538,0.32386 12.910838,3.28836 1.731832,2.16732 3.3511,3.46273 3.706117,2.95206 0.346371,-0.49825 5.983497,-0.0872 12.443233,0.89681 6.4597466,0.99647 12.5298343,1.0463 13.38708655,0.12454 0.883237,-0.9591 3.30781195,-2.30433 5.51589325,-3.06415 2.2080936,-0.75981 6.7022002,-5.44321 10.2351512,-10.64978 l 6.30387,-9.29209 0,-21.41165 c 0,-11.78326 -0.20781,-22.38322 -0.467592,-23.56653" />
      <path
         inkscape:connector-curvature="0"
         id="path64"
         style="fill:#000000;fill-opacity:1;fill-rule:nonzero;stroke:none"
         d="m -161.89927,442.8421 c -1.66262,-0.63676 -2.12249,-2.37896 -1.46805,-5.58923 0.95511,-4.66946 -1.9633,-14.31793 -4.32457,-14.31793 -0.73403,0 -1.73337,-1.21159 -2.33474,-2.82114 -0.56598,-1.52996 -2.47623,-5.38581 -4.18307,-8.44572 -1.7422,-3.12182 -3.1395,-8.20695 -3.1395,-11.4172 0,-4.02389 -1.22927,-7.11918 -4.01504,-10.13487 -2.56466,-2.76808 -4.02388,-6.27903 -4.02388,-9.65732 0,-7.27836 -4.66946,-10.11718 -18.9874,-11.54986 -6.43821,-0.6456 -11.99205,-1.80411 -12.50498,-2.60889 -1.37962,-2.17555 -16.60846,0.25647 -24.8154,3.96198 -4.02389,1.8218 -9.0294,4.05925 -11.26686,5.03206 -9.33009,4.05924 -37.00201,27.05285 -37.00201,30.74067 0,1.14967 -1.84834,4.35109 -4.10347,7.08379 -2.24631,2.73271 -3.62592,5.74841 -3.05107,6.67699 0.58367,0.93743 -0.48641,2.07827 -2.41433,2.57352 -2.57352,0.65442 -3.19258,1.68915 -2.41433,4.02388 0.64559,1.92792 -0.009,3.90891 -1.68915,5.14702 -3.81163,2.81229 -1.29118,12.66417 3.53748,13.84922 2.73269,0.67212 3.20142,1.42384 2.05174,3.28101 -2.21977,3.60823 -1.94562,4.34226 4.2538,11.26687 3.7409,4.18307 7.17225,6.42936 9.78113,6.42936 3.2191,0 3.8647,0.6456 3.2191,3.21911 -0.52178,2.09595 -0.0441,3.21911 1.37078,3.21911 1.23812,0 2.96264,1.45036 4.02388,3.37828 1.75989,3.2191 1.99868,3.2368 4.98784,0.4864 2.89189,-2.67963 3.33408,-2.68848 5.78377,-0.16803 2.03406,2.09596 2.20209,3.19257 0.72518,4.66948 -2.90956,2.90957 -2.24628,4.79328 1.29119,3.68781 1.65376,-0.51293 5.62458,0.26532 8.68449,1.69799 4.32458,2.04289 8.36614,2.44971 17.37787,1.75105 20.75615,-1.61839 23.87797,-2.17555 26.86713,-4.86402 1.60955,-1.44152 4.11232,-2.59121 5.62459,-2.59121 6.84502,0 19.99559,-8.36613 30.36924,-19.30578 5.94295,-6.27903 10.82469,-12.11586 10.82469,-12.95601 0,-0.9109 0.64558,-1.52996 1.60955,-1.52996 2.42317,0 1.92792,-3.2191 -0.6456,-4.21843 z m -8.69334,-13.47779 c -2.31706,0 -3.34292,-1.76874 -2.43202,-4.18307 1.28234,-3.36945 3.72319,-2.7327 3.72319,0.9728 0,1.76874 -0.57485,3.21027 -1.29117,3.21027" />
      <path
         inkscape:connector-curvature="0"
         id="path66"
         style="fill:#000000;fill-opacity:1;fill-rule:nonzero;stroke:none"
         d="m -174.58541,127.13926 c -0.95365,-2.93757 -2.83541,-6.08802 -4.26587,-7.11831 -1.40494,-1.03027 -2.55442,-3.25262 -2.55442,-4.96408 0,-3.14193 -7.2801,-13.34256 -12.08238,-16.927249 -2.17127,-1.617799 -2.27344,-2.324526 -0.62158,-3.984887 2.73322,-2.724707 2.47778,-5.883678 -0.4598,-5.883678 -1.39641,0 -2.85242,-1.013241 -3.32925,-2.324509 -0.50237,-1.36236 -2.7162,-2.324522 -5.34724,-2.324522 -2.51185,0 -7.0502,-1.362359 -10.30282,-3.099352 -3.25262,-1.728493 -7.95274,-3.099366 -10.68596,-3.099366 -2.78432,0 -5.22803,-0.928096 -5.68784,-2.162732 -0.79186,-2.145706 -18.40031,-5.159925 -24.75228,-4.240331 -7.15236,1.038793 -18.15338,8.421056 -24.09666,16.169452 -3.55914,4.64903 -6.42009,9.051138 -6.42009,9.911128 0,0.83445 -2.21383,4.333986 -4.8023,7.586616 -8.13155,10.22617 -12.17604,20.80146 -11.25645,29.43537 1.2772,11.92912 0.88554,16.34826 -1.70295,19.2007 -1.9073,2.12016 -2.1457,3.49103 -0.97919,5.66229 0.85147,1.55818 1.94135,4.80229 2.40116,7.12681 0.4683,2.31601 1.77104,4.25736 2.86945,4.25736 2.04354,0 8.82975,8.20818 8.82975,10.68597 0,0.78335 1.70296,2.51185 3.86569,3.92528 4.18924,2.73322 5.33873,6.42862 1.54968,4.97261 -3.33776,-1.28573 -2.78431,3.26963 0.62158,5.1003 1.53265,0.81742 4.18924,1.10693 5.89218,0.63861 2.29898,-0.63008 3.95083,0.54495 6.42862,4.57241 1.80512,2.93758 4.46171,5.8496 5.80703,6.36901 6.50524,2.50333 49.12992,-0.55346 52.34848,-3.755 0.86851,-0.85146 2.40967,-1.53266 3.49104,-1.53266 1.07285,0 4.5724,-1.76254 7.82503,-3.95082 3.25261,-2.17976 8.16561,-5.04922 10.99249,-6.40306 6.19872,-2.97164 14.25363,-12.00576 14.25363,-15.98212 0,-1.70296 0.51941,-3.09085 1.15802,-3.09085 0.63861,0 1.3453,-5.80704 1.54967,-12.78059 0.21286,-6.97355 0.57049,-15.94807 0.77485,-19.75415 0.22138,-3.86567 -0.36614,-9.30659 -1.31127,-12.23565" />
    </g>
    <g
       id="g580"
       transform="matrix(0.45406431,0,0,-0.36748243,178.48803,200.87767)">
      <path
         d="m 0,0 c 11.281,1.399 22.077,1.561 31.679,6.684 15.121,8.068 26.654,19.813 32.498,36.155 5.539,15.491 8.732,31.547 3.749,47.782 -4.845,15.784 -13.267,29.6 -26.279,40.163 -5.102,4.143 -10.034,8.3 -17.849,5.462 -3.203,-1.163 -7.744,0.328 -11.364,1.542 -9.746,3.266 -18.944,3.033 -27.456,-3.122 C -25.567,127.041 -32.04,116.33 -37.121,104.655 -44.676,87.297 -48.562,69.115 -47.538,50.218 -46.177,25.072 -41.051,12.722 -19.741,4.436 -13.374,1.96 -6.28,1.357 0,0 m -71.698,58.428 c 0.492,32.782 10.41,60.261 30.03,84.473 3.743,4.619 7.7,7.609 13.09,9.499 12.604,4.42 25.076,7.978 38.698,3.876 5.199,-1.565 11.224,-1.874 16.602,-1.031 8.998,1.409 16.84,-1.132 23.272,-6.387 12.075,-9.864 23.735,-20.436 31.935,-33.953 C 93.206,96.315 96.38,76.408 92.939,54.699 89.552,33.323 78.662,16.963 63.116,3.216 57.996,-1.312 51.489,-4.488 45.231,-7.476 19.797,-19.617 -6.56,-19.76 -32.271,-9.755 c -23.435,9.12 -35.153,28.48 -38.576,52.943 -0.781,5.582 -0.65,11.291 -0.851,15.24"
         style="fill:#231f20;fill-opacity:1;fill-rule:evenodd;stroke:none"
         id="path582"
         inkscape:connector-curvature="0" />
    </g>
  </g>
</svg>
