<?xml version="1.0" encoding="UTF-8" standalone="no"?>
<!-- Created with Inkscape (http://www.inkscape.org/) -->

<svg
   xmlns:dc="http://purl.org/dc/elements/1.1/"
   xmlns:cc="http://creativecommons.org/ns#"
   xmlns:rdf="http://www.w3.org/1999/02/22-rdf-syntax-ns#"
   xmlns:svg="http://www.w3.org/2000/svg"
   xmlns="http://www.w3.org/2000/svg"
   xmlns:sodipodi="http://sodipodi.sourceforge.net/DTD/sodipodi-0.dtd"
   xmlns:inkscape="http://www.inkscape.org/namespaces/inkscape"
   width="21.26656mm"
   height="18.152674mm"
   viewBox="0 0 75.353953 64.320495"
   id="svg6079"
   version="1.1"
   inkscape:version="0.91 r13725"
   sodipodi:docname="button1.svg">
  <defs
     id="defs6081" />
  <sodipodi:namedview
     id="base"
     pagecolor="#ffffff"
     bordercolor="#666666"
     borderopacity="1.0"
     inkscape:pageopacity="0.0"
     inkscape:pageshadow="2"
     inkscape:zoom="4"
     inkscape:cx="-18.014342"
     inkscape:cy="33.082241"
     inkscape:document-units="px"
     inkscape:current-layer="layer1"
     showgrid="false"
     inkscape:snap-global="true"
     fit-margin-top="0"
     fit-margin-left="0"
     fit-margin-right="0"
     fit-margin-bottom="0"
     inkscape:window-width="1210"
     inkscape:window-height="1041"
     inkscape:window-x="706"
     inkscape:window-y="18"
     inkscape:window-maximized="0" />
  <metadata
     id="metadata6084">
    <rdf:RDF>
      <cc:Work
         rdf:about="">
        <dc:format>image/svg+xml</dc:format>
        <dc:type
           rdf:resource="http://purl.org/dc/dcmitype/StillImage" />
        <dc:title></dc:title>
      </cc:Work>
    </rdf:RDF>
  </metadata>
  <g
     inkscape:label="Layer 1"
     inkscape:groupmode="layer"
     id="layer1"
     transform="translate(-145.93253,-142.78421)">
    <g
       id="g584"
       transform="matrix(0.45406431,0,0,-0.36748243,171.04,184.26246)">
      <path
         d="m 0,0 c 3.828,-15.463 21.228,-19.797 35.903,-17.34 17.026,2.852 27.451,25.817 13.602,41.34 -4.518,5.064 -10.141,9.142 -15.654,14.021 2.585,3.227 5.6,6.737 8.335,10.454 6.404,8.711 3.313,16.387 -6.975,19.75 -12.3,4.019 -24.288,0.486 -36.367,-0.47 -4.906,-0.389 -6.238,-3.956 -4.408,-8.682 3.058,-7.901 9.702,-9.583 15.943,-9.34 C 9.262,45.038 6.619,40.339 7.615,36.611 9.09,31.089 12.699,25.857 18.917,23.696 21.416,22.828 24.04,22.175 26.351,20.943 32.288,17.777 33.729,11.161 30.169,4.539 27.156,-1.062 24.399,-1.679 17.146,2.297 10.985,5.675 5.37,6.406 0,0 m 23.604,-42.156 c -6.281,1.357 -13.375,1.96 -19.742,4.435 -21.309,8.286 -26.435,20.637 -27.797,45.783 -1.023,18.897 2.863,37.079 10.417,54.437 5.081,11.674 11.554,22.386 22.099,30.011 8.513,6.155 17.71,6.388 27.456,3.121 3.62,-1.213 8.161,-2.705 11.364,-1.541 7.816,2.838 12.747,-1.319 17.85,-5.462 C 78.263,78.065 86.685,64.249 91.529,48.465 96.513,32.23 93.319,16.174 87.78,0.683 81.937,-15.659 70.403,-27.404 55.282,-35.473 45.681,-40.596 34.885,-40.757 23.604,-42.156"
         style="fill:#ffffff;fill-opacity:1;fill-rule:evenodd;stroke:none"
         id="path586"
         inkscape:connector-curvature="0" />
    </g>
    <ellipse
       style="fill:#008000;fill-opacity:0.43137255;stroke:none;stroke-opacity:1"
       id="path4143"
       cx="183.93253"
       cy="175.60471"
       rx="34"
       ry="30.25" />
    <g
       id="g580"
       transform="matrix(0.45406431,0,0,-0.36748243,178.48803,200.87767)">
      <path
         d="m 0,0 c 11.281,1.399 22.077,1.561 31.679,6.684 15.121,8.068 26.654,19.813 32.498,36.155 5.539,15.491 8.732,31.547 3.749,47.782 -4.845,15.784 -13.267,29.6 -26.279,40.163 -5.102,4.143 -10.034,8.3 -17.849,5.462 -3.203,-1.163 -7.744,0.328 -11.364,1.542 -9.746,3.266 -18.944,3.033 -27.456,-3.122 C -25.567,127.041 -32.04,116.33 -37.121,104.655 -44.676,87.297 -48.562,69.115 -47.538,50.218 -46.177,25.072 -41.051,12.722 -19.741,4.436 -13.374,1.96 -6.28,1.357 0,0 m -71.698,58.428 c 0.492,32.782 10.41,60.261 30.03,84.473 3.743,4.619 7.7,7.609 13.09,9.499 12.604,4.42 25.076,7.978 38.698,3.876 5.199,-1.565 11.224,-1.874 16.602,-1.031 8.998,1.409 16.84,-1.132 23.272,-6.387 12.075,-9.864 23.735,-20.436 31.935,-33.953 C 93.206,96.315 96.38,76.408 92.939,54.699 89.552,33.323 78.662,16.963 63.116,3.216 57.996,-1.312 51.489,-4.488 45.231,-7.476 19.797,-19.617 -6.56,-19.76 -32.271,-9.755 c -23.435,9.12 -35.153,28.48 -38.576,52.943 -0.781,5.582 -0.65,11.291 -0.851,15.24"
         style="fill:#231f20;fill-opacity:1;fill-rule:evenodd;stroke:none"
         id="path582"
         inkscape:connector-curvature="0" />
    </g>
    <g
       id="g600"
       transform="matrix(0.1352488,0,0,-0.25225956,169.65812,171.54065)">
      <path
         d="m 0,0 c 0,-7.286 -0.035,-14.572 0.011,-21.858 0.041,-6.477 -4.551,-11.257 -10.705,-11.041 -5.128,0.18 -11.327,6.609 -11.285,11.775 0.072,8.588 0.594,17.193 0.189,25.757 -0.529,11.192 -1.624,22.366 -2.776,33.515 -0.64,6.185 0.436,7.828 6.595,8.076 9.669,0.39 12.597,-1.407 14.117,-10.757 C -1.949,23.758 -0.878,11.915 0.553,0.129 0.369,0.086 0.185,0.043 0,0"
         style="fill:#231f20;fill-opacity:1;fill-rule:evenodd;stroke:none"
         id="path602"
         inkscape:connector-curvature="0" />
    </g>
    <path
       inkscape:connector-curvature="0"
       id="path58"
       style="fill:#000000;fill-opacity:1;fill-rule:nonzero;stroke:none"
       d="m 185.46547,153.16499 c -0.0383,-0.0575 -0.0793,4.9e-4 -0.089,0.12686 -0.01,0.13025 -0.0799,0.15033 -0.15721,0.0454 -0.0776,-0.1043 -0.13157,-0.26314 -0.12188,-0.35857 0.0308,-0.29593 -0.14224,-0.60064 -0.25927,-0.45704 -0.0585,0.0719 -0.17505,0.0327 -0.24609,-0.0828 -0.12069,-0.19696 -0.14534,-0.14869 -0.22993,0.45684 -0.0692,0.49376 -0.14861,0.73788 -0.29395,0.89871 -0.23588,0.26189 -0.96384,2.85536 -0.97724,3.48063 -0.0101,0.47629 -0.24008,1.42405 -0.94489,3.90005 -1.08251,3.80048 -2.33242,8.41302 -2.70227,9.97106 -0.47284,1.99124 -5.73754,18.62097 -5.89253,18.61427 -0.12262,-0.006 -1.0952,3.21646 -1.07913,3.57537 0.006,0.13266 0.0456,0.71748 0.089,1.31354 0.0684,0.93578 0.11308,1.15982 0.34365,1.72686 0.16232,0.39766 0.31694,0.65272 0.39856,0.65438 0.527,0.0165 0.68978,0.12071 0.80407,0.51549 0.0952,0.32982 0.12619,0.36217 0.14258,0.14203 0.0144,-0.19034 0.0789,-0.1843 0.20251,0.0209 0.15172,0.2508 0.19956,0.22704 0.29243,-0.14622 0.0597,-0.23908 0.17748,-0.44295 0.25467,-0.43917 0.17024,0.006 1.01561,-2.66217 1.24699,-3.93729 0.0812,-0.44848 0.26276,-1.11363 0.40298,-1.47791 0.51792,-1.34894 1.13397,-3.29859 1.48922,-4.71607 0.19945,-0.79666 0.40164,-1.45419 0.44933,-1.46194 0.0474,-0.008 0.27025,-0.6782 0.4934,-1.48318 0.22447,-0.81117 0.75315,-2.63576 1.18126,-4.07398 0.42814,-1.4382 0.80918,-2.80853 0.85137,-3.05939 0.14239,-0.85022 1.89749,-7.1202 2.96923,-10.60562 0.83519,-2.71517 1.09092,-3.44603 1.18593,-3.3921 0.0815,0.047 0.1936,-0.19186 0.34188,-0.73005 0.16934,-0.61393 0.26229,-0.79473 0.40094,-0.7783 0.1016,0.0115 0.17635,-0.0273 0.17073,-0.0888 -0.006,-0.0602 0.14115,-0.46872 0.32346,-0.90235 0.18263,-0.43286 0.32968,-0.89903 0.32474,-1.02705 -0.005,-0.13262 0.0155,-0.41026 0.0475,-0.63194 0.0319,-0.22174 0.0101,-0.8831 -0.0494,-1.50522 l -0.10614,-1.11017 -0.59319,-1.43457 c -0.32645,-0.78948 -0.62511,-1.48362 -0.6641,-1.54284" />
    <g
       id="g344"
       transform="matrix(0.21277658,0,0,-0.19968307,200.72145,188.23877)">
      <path
         d="m 0,0 c -2.151,-9.88 -9.555,-13.312 -16.809,-16.366 -20.678,-8.705 -41.925,-0.26 -50.21,21.692 -9.749,25.841 -0.286,57.412 20.871,70.953 3.246,2.076 7.14,3.863 10.898,4.268 7.225,0.779 14.566,0.439 21.858,0.626 4.085,0.105 7.327,-0.942 7.857,-5.628 0.494,-4.364 -2.629,-8.405 -7.35,-9.097 -2.926,-0.428 -5.964,-0.24 -8.945,-0.134 -6.378,0.234 -11.39,-2.129 -15.682,-6.924 -9.315,-10.409 -13.91,-22.831 -13.481,-36.371 0.205,-6.493 3.303,-13.578 7.011,-19.105 4.768,-7.106 13.621,-7.814 22.443,-3.873 3.284,1.469 6.607,2.883 10.008,4.04 C -6.843,5.677 -3.179,3.933 0,0"
         style="fill:#231f20;fill-opacity:1;fill-rule:evenodd;stroke:none"
         id="path346"
         inkscape:connector-curvature="0" />
    </g>
  </g>
</svg>
