<?xml version="1.0" encoding="UTF-8" standalone="no"?>
<!-- Created with Inkscape (http://www.inkscape.org/) -->

<svg
   xmlns:dc="http://purl.org/dc/elements/1.1/"
   xmlns:cc="http://creativecommons.org/ns#"
   xmlns:rdf="http://www.w3.org/1999/02/22-rdf-syntax-ns#"
   xmlns:svg="http://www.w3.org/2000/svg"
   xmlns="http://www.w3.org/2000/svg"
   xmlns:sodipodi="http://sodipodi.sourceforge.net/DTD/sodipodi-0.dtd"
   xmlns:inkscape="http://www.inkscape.org/namespaces/inkscape"
   width="21.26656mm"
   height="18.152674mm"
   viewBox="0 0 75.353953 64.320495"
   id="svg6079"
   version="1.1"
   inkscape:version="0.91 r13725"
   sodipodi:docname="button9_highlight.svg">
  <defs
     id="defs6081" />
  <sodipodi:namedview
     id="base"
     pagecolor="#ffffff"
     bordercolor="#666666"
     borderopacity="1.0"
     inkscape:pageopacity="0.0"
     inkscape:pageshadow="2"
     inkscape:zoom="1.4142136"
     inkscape:cx="71.35167"
     inkscape:cy="-21.479033"
     inkscape:document-units="px"
     inkscape:current-layer="layer1"
     showgrid="false"
     inkscape:snap-global="true"
     fit-margin-top="0"
     fit-margin-left="0"
     fit-margin-right="0"
     fit-margin-bottom="0"
     inkscape:window-width="1920"
     inkscape:window-height="1080"
     inkscape:window-x="0"
     inkscape:window-y="0"
     inkscape:window-maximized="0" />
  <metadata
     id="metadata6084">
    <rdf:RDF>
      <cc:Work
         rdf:about="">
        <dc:format>image/svg+xml</dc:format>
        <dc:type
           rdf:resource="http://purl.org/dc/dcmitype/StillImage" />
        <dc:title />
      </cc:Work>
    </rdf:RDF>
  </metadata>
  <g
     inkscape:label="Layer 1"
     inkscape:groupmode="layer"
     id="layer1"
     transform="translate(-145.93253,-142.78421)">
    <g
       id="g584"
       transform="matrix(0.50698409,0,0,-0.39071772,166.06517,183.28295)">
      <path
         d="m 0,0 c 3.828,-15.463 21.228,-19.797 35.903,-17.34 17.026,2.852 27.451,25.817 13.602,41.34 -4.518,5.064 -10.141,9.142 -15.654,14.021 2.585,3.227 5.6,6.737 8.335,10.454 6.404,8.711 3.313,16.387 -6.975,19.75 -12.3,4.019 -24.288,0.486 -36.367,-0.47 -4.906,-0.389 -6.238,-3.956 -4.408,-8.682 3.058,-7.901 9.702,-9.583 15.943,-9.34 C 9.262,45.038 6.619,40.339 7.615,36.611 9.09,31.089 12.699,25.857 18.917,23.696 21.416,22.828 24.04,22.175 26.351,20.943 32.288,17.777 33.729,11.161 30.169,4.539 27.156,-1.062 24.399,-1.679 17.146,2.297 10.985,5.675 5.37,6.406 0,0 m 23.604,-42.156 c -6.281,1.357 -13.375,1.96 -19.742,4.435 -21.309,8.286 -26.435,20.637 -27.797,45.783 -1.023,18.897 2.863,37.079 10.417,54.437 5.081,11.674 11.554,22.386 22.099,30.011 8.513,6.155 17.71,6.388 27.456,3.121 3.62,-1.213 8.161,-2.705 11.364,-1.541 7.816,2.838 12.747,-1.319 17.85,-5.462 C 78.263,78.065 86.685,64.249 91.529,48.465 96.513,32.23 93.319,16.174 87.78,0.683 81.937,-15.659 70.403,-27.404 55.282,-35.473 45.681,-40.596 34.885,-40.757 23.604,-42.156"
         style="fill:#ffffff;fill-opacity:1;fill-rule:evenodd;stroke:none"
         id="path586"
         inkscape:connector-curvature="0" />
    </g>
    <ellipse
       style="fill:#ffff00;fill-opacity:0.43137255;stroke:none;stroke-opacity:1"
       id="path7888-3"
       cx="181.99495"
       cy="175.2849"
       rx="30.75"
       ry="28.75" />
    <g
       id="g580"
       transform="matrix(0.45406431,0,0,-0.36748243,178.48803,200.87767)">
      <path
         d="m 0,0 c 11.281,1.399 22.077,1.561 31.679,6.684 15.121,8.068 26.654,19.813 32.498,36.155 5.539,15.491 8.732,31.547 3.749,47.782 -4.845,15.784 -13.267,29.6 -26.279,40.163 -5.102,4.143 -10.034,8.3 -17.849,5.462 -3.203,-1.163 -7.744,0.328 -11.364,1.542 -9.746,3.266 -18.944,3.033 -27.456,-3.122 C -25.567,127.041 -32.04,116.33 -37.121,104.655 -44.676,87.297 -48.562,69.115 -47.538,50.218 -46.177,25.072 -41.051,12.722 -19.741,4.436 -13.374,1.96 -6.28,1.357 0,0 m -71.698,58.428 c 0.492,32.782 10.41,60.261 30.03,84.473 3.743,4.619 7.7,7.609 13.09,9.499 12.604,4.42 25.076,7.978 38.698,3.876 5.199,-1.565 11.224,-1.874 16.602,-1.031 8.998,1.409 16.84,-1.132 23.272,-6.387 12.075,-9.864 23.735,-20.436 31.935,-33.953 C 93.206,96.315 96.38,76.408 92.939,54.699 89.552,33.323 78.662,16.963 63.116,3.216 57.996,-1.312 51.489,-4.488 45.231,-7.476 19.797,-19.617 -6.56,-19.76 -32.271,-9.755 c -23.435,9.12 -35.153,28.48 -38.576,52.943 -0.781,5.582 -0.65,11.291 -0.851,15.24"
         style="fill:#231f20;fill-opacity:1;fill-rule:evenodd;stroke:none"
         id="path582"
         inkscape:connector-curvature="0" />
    </g>
    <path
       d="m 166.63393,169.29382 c 0.0869,0.59313 0.30417,1.35682 0.47798,1.67946 0.17382,0.33676 0.31504,0.68765 0.31504,0.8104 0,0.11841 0.34762,0.75174 0.74956,1.38398 0.9777,1.50131 4.44309,4.22908 5.37733,4.22908 0.21726,0 0.93424,0.28788 1.58604,0.63224 1.16237,0.61704 1.26014,0.63116 3.50883,0.58336 1.90108,-0.0402 2.45511,-0.12275 3.1069,-0.45843 1.93366,-1.00268 2.67237,-1.35031 2.85704,-1.35031 0.1195,0 0.20641,-0.0782 0.20641,-0.19771 0,-0.10537 0.13036,-0.19662 0.29331,-0.19662 0.16294,0 0.2933,-0.14883 0.2933,-0.34654 0,-0.18685 0.3259,-0.68222 0.70612,-1.07764 0.64093,-0.67135 0.7387,-0.71154 1.20582,-0.50297 0.48885,0.2227 0.49971,0.25637 0.36935,1.69902 -0.0652,0.8104 -0.19554,1.61428 -0.28244,1.78918 -0.0869,0.17273 -0.21727,1.34379 -0.29331,2.58872 -0.0869,1.42309 -0.24986,2.43446 -0.42367,2.70713 -0.16295,0.23899 -0.29331,0.71154 -0.29331,1.04722 0,0.33567 -0.076,0.76477 -0.16295,0.94945 -0.0978,0.18576 -0.10863,0.90817 -0.0326,1.61971 0.0978,0.88971 0.0652,1.40571 -0.0978,1.67947 -0.13036,0.21726 -0.29331,1.17649 -0.36935,2.12485 l -0.13036,1.72944 0.64094,0.54316 c 0.34762,0.30635 0.80388,0.72132 1.03201,0.94945 0.21726,0.22053 0.90165,0.75065 1.48827,1.16563 0.95597,0.66918 1.26014,0.77129 2.48769,0.84951 l 1.3905,0.0891 0.81474,-0.77999 c 1.31446,-1.27426 1.80331,-2.995 1.10806,-3.98247 -0.51058,-0.7311 -0.43454,-6.84604 0.0978,-7.37182 0.16295,-0.16295 0.22813,-1.11675 0.22813,-3.05367 0,-1.69902 0.0869,-2.86247 0.2064,-2.93417 0.10863,-0.0652 0.18467,-0.67244 0.18467,-1.34379 -0.0217,-2.23349 0.38022,-6.27137 0.78216,-7.7466 0.11949,-0.43453 0.21726,-1.19605 0.21726,-1.69033 0,-0.49428 0.14123,-1.09936 0.31504,-1.34379 0.2064,-0.29656 0.30417,-0.82017 0.29331,-1.57083 -0.0543,-2.25304 -0.0543,-2.25304 -1.14065,-3.34045 -0.57575,-0.5725 -1.17323,-1.04722 -1.32532,-1.04722 -0.33676,0 -1.65121,-1.58061 -2.16179,-2.58872 -0.55403,-1.07655 -1.69467,-2.16723 -3.41107,-3.24812 l -1.56431,-0.98096 -1.78158,0.005 c -2.65064,0.009 -5.00797,0.27593 -6.12689,0.69308 -0.55402,0.2064 -1.34704,0.46386 -1.81416,0.58662 -0.45626,0.1184 -0.96684,0.34653 -1.12978,0.50296 -0.15209,0.15318 -0.39108,0.28679 -0.51058,0.28679 -0.42367,0 -2.46596,1.28513 -2.99826,1.87718 -1.28187,1.44264 -1.68381,1.83046 -2.23784,2.1531 -0.93424,0.54968 -3.07431,3.79563 -3.11776,4.74399 -0.0109,0.23248 -0.17381,0.63225 -0.34762,0.90926 -0.18468,0.26941 -0.39108,0.98856 -0.45626,1.58061 -0.076,0.59313 -0.16295,1.26666 -0.2064,1.48284 -0.0435,0.21509 -0.0109,0.8897 0.076,1.48175 z m 7.62602,-1.87717 c -0.16295,-0.63225 0.43453,-1.59256 1.60776,-2.57895 1.26015,-1.07003 2.43338,-2.2487 2.92223,-2.93525 0.30417,-0.43236 0.63007,-0.5964 1.4774,-0.75066 0.59748,-0.10754 1.22755,-0.31829 1.3905,-0.46169 0.39108,-0.35088 2.85705,-0.74522 3.69352,-0.58987 0.51057,0.0967 0.65179,0.22161 0.65179,0.5877 0,0.25637 0.21727,0.84951 0.48885,1.32315 0.27158,0.47472 0.49971,1.04179 0.49971,1.26557 0,0.21727 0.0761,0.49211 0.17381,0.59313 0.0978,0.10212 0.3259,0.66158 0.51058,1.23516 0.29331,0.90817 0.30417,1.09067 0.0543,1.38289 -0.16295,0.19229 -0.33677,0.48451 -0.40195,0.68113 -0.076,0.19771 -0.22813,0.34654 -0.38021,0.34654 -0.14122,0 -0.46712,0.22704 -0.74957,0.52361 -0.27158,0.28353 -0.87992,0.68656 -1.33618,0.87993 -0.45626,0.19228 -1.05374,0.57249 -1.31446,0.82995 -0.26072,0.25746 -0.79302,0.53773 -1.16237,0.61269 -0.38021,0.075 -0.92338,0.31395 -1.1841,0.52361 -0.28244,0.21618 -0.59748,0.38456 -0.71697,0.38456 -0.1195,0 -0.49971,0.17707 -0.8582,0.39542 -0.44539,0.27702 -0.99942,0.39543 -1.82503,0.39543 -1.10806,0 -1.26014,-0.0576 -2.29215,-0.86907 -0.91252,-0.7148 -1.14065,-1.02332 -1.29273,-1.72943 -0.1195,-0.51383 -0.1195,-1.00702 -0.0109,-1.22538 0.0978,-0.2064 0.11949,-0.56272 0.0543,-0.82017"
       style="fill:#000000;fill-opacity:1;fill-rule:nonzero;stroke:none"
       id="path34"
       inkscape:connector-curvature="0" />
  </g>
</svg>
