<?xml version="1.0" encoding="UTF-8" standalone="no"?>
<!-- Created with Inkscape (http://www.inkscape.org/) -->

<svg
   xmlns:dc="http://purl.org/dc/elements/1.1/"
   xmlns:cc="http://creativecommons.org/ns#"
   xmlns:rdf="http://www.w3.org/1999/02/22-rdf-syntax-ns#"
   xmlns:svg="http://www.w3.org/2000/svg"
   xmlns="http://www.w3.org/2000/svg"
   xmlns:sodipodi="http://sodipodi.sourceforge.net/DTD/sodipodi-0.dtd"
   xmlns:inkscape="http://www.inkscape.org/namespaces/inkscape"
   width="21.26656mm"
   height="18.152674mm"
   viewBox="0 0 75.353953 64.320495"
   id="svg6079"
   version="1.1"
   inkscape:version="0.91 r13725"
   sodipodi:docname="button8_highlight.svg">
  <defs
     id="defs6081" />
  <sodipodi:namedview
     id="base"
     pagecolor="#ffffff"
     bordercolor="#666666"
     borderopacity="1.0"
     inkscape:pageopacity="0.0"
     inkscape:pageshadow="2"
     inkscape:zoom="4"
     inkscape:cx="13.782234"
     inkscape:cy="93.046428"
     inkscape:document-units="px"
     inkscape:current-layer="layer1"
     showgrid="false"
     inkscape:snap-global="true"
     fit-margin-top="0"
     fit-margin-left="0"
     fit-margin-right="0"
     fit-margin-bottom="0"
     inkscape:window-width="1920"
     inkscape:window-height="1080"
     inkscape:window-x="0"
     inkscape:window-y="0"
     inkscape:window-maximized="0" />
  <metadata
     id="metadata6084">
    <rdf:RDF>
      <cc:Work
         rdf:about="">
        <dc:format>image/svg+xml</dc:format>
        <dc:type
           rdf:resource="http://purl.org/dc/dcmitype/StillImage" />
        <dc:title />
      </cc:Work>
    </rdf:RDF>
  </metadata>
  <g
     inkscape:label="Layer 1"
     inkscape:groupmode="layer"
     id="layer1"
     transform="translate(-145.93253,-142.78421)">
    <g
       id="g584"
       transform="matrix(0.50698409,0,0,-0.39071772,166.06517,183.28295)">
      <path
         d="m 0,0 c 3.828,-15.463 21.228,-19.797 35.903,-17.34 17.026,2.852 27.451,25.817 13.602,41.34 -4.518,5.064 -10.141,9.142 -15.654,14.021 2.585,3.227 5.6,6.737 8.335,10.454 6.404,8.711 3.313,16.387 -6.975,19.75 -12.3,4.019 -24.288,0.486 -36.367,-0.47 -4.906,-0.389 -6.238,-3.956 -4.408,-8.682 3.058,-7.901 9.702,-9.583 15.943,-9.34 C 9.262,45.038 6.619,40.339 7.615,36.611 9.09,31.089 12.699,25.857 18.917,23.696 21.416,22.828 24.04,22.175 26.351,20.943 32.288,17.777 33.729,11.161 30.169,4.539 27.156,-1.062 24.399,-1.679 17.146,2.297 10.985,5.675 5.37,6.406 0,0 m 23.604,-42.156 c -6.281,1.357 -13.375,1.96 -19.742,4.435 -21.309,8.286 -26.435,20.637 -27.797,45.783 -1.023,18.897 2.863,37.079 10.417,54.437 5.081,11.674 11.554,22.386 22.099,30.011 8.513,6.155 17.71,6.388 27.456,3.121 3.62,-1.213 8.161,-2.705 11.364,-1.541 7.816,2.838 12.747,-1.319 17.85,-5.462 C 78.263,78.065 86.685,64.249 91.529,48.465 96.513,32.23 93.319,16.174 87.78,0.683 81.937,-15.659 70.403,-27.404 55.282,-35.473 45.681,-40.596 34.885,-40.757 23.604,-42.156"
         style="fill:#ffffff;fill-opacity:1;fill-rule:evenodd;stroke:none"
         id="path586"
         inkscape:connector-curvature="0" />
    </g>
    <ellipse
       style="fill:#ffff00;fill-opacity:0.43137255;stroke:none;stroke-opacity:1"
       id="path7888-3"
       cx="182.68253"
       cy="174.60471"
       rx="30.75"
       ry="28.75" />
    <g
       id="g580"
       transform="matrix(0.45406431,0,0,-0.36748243,178.48803,200.87767)">
      <path
         d="m 0,0 c 11.281,1.399 22.077,1.561 31.679,6.684 15.121,8.068 26.654,19.813 32.498,36.155 5.539,15.491 8.732,31.547 3.749,47.782 -4.845,15.784 -13.267,29.6 -26.279,40.163 -5.102,4.143 -10.034,8.3 -17.849,5.462 -3.203,-1.163 -7.744,0.328 -11.364,1.542 -9.746,3.266 -18.944,3.033 -27.456,-3.122 C -25.567,127.041 -32.04,116.33 -37.121,104.655 -44.676,87.297 -48.562,69.115 -47.538,50.218 -46.177,25.072 -41.051,12.722 -19.741,4.436 -13.374,1.96 -6.28,1.357 0,0 m -71.698,58.428 c 0.492,32.782 10.41,60.261 30.03,84.473 3.743,4.619 7.7,7.609 13.09,9.499 12.604,4.42 25.076,7.978 38.698,3.876 5.199,-1.565 11.224,-1.874 16.602,-1.031 8.998,1.409 16.84,-1.132 23.272,-6.387 12.075,-9.864 23.735,-20.436 31.935,-33.953 C 93.206,96.315 96.38,76.408 92.939,54.699 89.552,33.323 78.662,16.963 63.116,3.216 57.996,-1.312 51.489,-4.488 45.231,-7.476 19.797,-19.617 -6.56,-19.76 -32.271,-9.755 c -23.435,9.12 -35.153,28.48 -38.576,52.943 -0.781,5.582 -0.65,11.291 -0.851,15.24"
         style="fill:#231f20;fill-opacity:1;fill-rule:evenodd;stroke:none"
         id="path582"
         inkscape:connector-curvature="0" />
    </g>
    <path
       d="m 167.06227,186.18062 c 0.36436,0.60216 0.66162,2.3723 0.53697,3.21036 l -0.12475,0.83712 1.59177,1.71834 c 0.86301,0.94164 1.65889,1.71834 1.73561,1.71834 0.0862,0 0.8534,0.34616 1.68763,0.76712 l 1.52466,0.76712 2.63695,0.12282 c 1.74519,0.0807 2.70409,0.0603 2.84792,-0.0614 0.12475,-0.10079 0.75751,-0.27712 1.42874,-0.3922 0.90138,-0.15835 1.33288,-0.33176 1.72603,-0.70671 0.29725,-0.28191 0.69039,-0.49671 0.90134,-0.49671 0.58492,0 2.36847,-1.48341 2.78081,-2.3205 0.10548,-0.20049 0.51779,-0.60699 0.92054,-0.89851 0.4219,-0.30395 0.73834,-0.68175 0.74793,-0.88025 0.011,-0.19277 0.13411,-0.50248 0.2685,-0.68944 0.14375,-0.18506 0.25887,-0.51494 0.25887,-0.72396 0,-0.21012 0.11511,-0.47849 0.24922,-0.59357 0.16303,-0.13715 0.22059,-0.38357 0.16303,-0.71533 -0.0575,-0.29728 0.0193,-0.74985 0.18231,-1.0989 0.15339,-0.33083 0.23022,-0.70767 0.18231,-0.85437 -0.0576,-0.1476 0.0193,-0.48903 0.17266,-0.78535 0.40273,-0.78436 0.3644,-1.98585 -0.0768,-2.26011 -0.22059,-0.13714 -0.35478,-0.39986 -0.35478,-0.71342 0,-0.27806 -0.19167,-0.75943 -0.43151,-1.09026 -0.24922,-0.33176 -0.51781,-0.80162 -0.63287,-1.06437 -0.1823,-0.47081 -2.76161,-2.93038 -3.06845,-2.93038 -0.0862,0 -0.30687,-0.13329 -0.49865,-0.30587 -0.1823,-0.16496 -0.68081,-0.53701 -1.07395,-0.81124 -0.40273,-0.27318 -0.74793,-0.53794 -0.74793,-0.57534 0,-0.3241 0.44109,-0.74985 0.76712,-0.74985 0.24923,0 0.73834,-0.28671 1.16985,-0.68465 1.22737,-1.11328 1.25615,-1.13629 2.16708,-1.56012 0.48903,-0.22822 0.9589,-0.54178 1.08357,-0.71246 0.11511,-0.16972 0.71918,-0.56 1.36163,-0.88027 0.71917,-0.35479 1.21779,-0.72684 1.31368,-0.96848 0.0862,-0.24452 0.3452,-0.43918 0.68082,-0.51493 0.29725,-0.0681 0.6137,-0.2685 0.70959,-0.45355 0.0958,-0.17452 0.30683,-0.33082 0.43148,-0.33082 0.13438,0 0.39317,-0.19275 0.58492,-0.4363 0.19167,-0.24452 0.41234,-0.4363 0.51781,-0.4363 0.0958,0 0.21095,-0.15724 0.25887,-0.34904 0.0479,-0.19178 0.22058,-0.34903 0.38356,-0.34903 0.16303,0 0.49861,-0.15725 0.73834,-0.34808 0.24922,-0.19178 0.53698,-0.35 0.64248,-0.35 0.0958,0 0.40273,-0.21766 0.6712,-0.47945 0.26851,-0.26754 0.83426,-0.8256 1.28493,-1.26478 0.44109,-0.42479 1.00685,-1.21204 1.22738,-1.71738 0.36439,-0.80259 0.39315,-1.01834 0.22059,-1.53519 -0.10548,-0.33177 -0.44109,-0.86109 -0.74793,-1.17752 -0.29725,-0.31356 -0.88218,-0.94259 -1.27535,-1.37793 -0.49862,-0.55808 -0.94929,-0.86397 -1.47668,-1.00396 -0.42193,-0.11027 -0.89176,-0.26369 -1.04521,-0.34329 -0.2685,-0.14097 -1.93694,-0.39315 -4.00816,-0.60985 -0.6137,-0.0633 -1.11232,-0.22918 -1.34246,-0.44205 -0.21095,-0.19371 -0.51782,-0.34041 -0.71918,-0.34041 -0.19167,0 -0.41231,-0.0978 -0.48903,-0.21767 -0.0768,-0.11985 -0.62329,-0.47465 -1.2178,-0.78534 -0.89176,-0.46794 -1.27532,-0.5667 -2.17669,-0.5667 -1.01643,0 -1.16026,0.0489 -1.78352,0.61944 -0.5274,0.47657 -0.77671,0.59548 -1.10274,0.51493 -0.31645,-0.0796 -0.54659,0.0259 -0.94932,0.42671 -0.29725,0.29725 -0.86301,0.61753 -1.2849,0.72396 -0.62329,0.1611 -0.76712,0.27423 -0.85343,0.69808 -0.0862,0.4478 -0.17267,0.50534 -0.70959,0.50534 -0.33559,0 -0.61368,0.0758 -0.61368,0.16685 0,0.0911 -0.41233,0.43055 -0.91095,0.75849 -0.5082,0.32698 -1.02601,0.79972 -1.16027,1.05478 -0.14375,0.26179 -0.37397,0.46219 -0.54656,0.46219 -0.31645,0 -0.7767,0.4363 -0.90137,0.85533 -0.0383,0.14577 -0.37395,0.42 -0.76712,0.61849 -0.43148,0.22725 -0.69998,0.49863 -0.73834,0.74219 -0.0289,0.20904 -0.16303,0.47465 -0.30684,0.58396 -0.13439,0.11123 -0.24923,0.34041 -0.24923,0.51493 0,0.17451 -0.12475,0.4152 -0.27808,0.54178 -0.42193,0.34711 -0.76712,1.13245 -0.76712,1.76052 0,0.33178 -0.11512,0.75465 -0.25887,0.95986 -0.33561,0.46602 -0.23986,2.2323 0.16303,3.00038 0.15339,0.2963 0.2685,0.60985 0.2685,0.72396 0,0.10931 0.35481,0.65397 0.78632,1.19479 0.42189,0.54081 0.78629,1.09793 0.78629,1.22067 0,0.1256 0.4315,0.64725 0.97806,1.16889 1.15069,1.10945 1.18902,1.52848 0.20131,2.04533 -0.69039,0.36629 -2.65614,2.1882 -2.66572,2.47298 0,0.0958 -0.45068,0.6367 -1.00685,1.19477 -0.54656,0.55811 -0.99724,1.12287 -0.99724,1.24754 0,0.12089 -0.12475,0.3241 -0.25886,0.43533 -0.15339,0.11897 -0.2685,0.35864 -0.2685,0.55042 0,0.19167 -0.11512,0.38163 -0.25887,0.4363 -0.17267,0.0633 -0.25886,0.33944 -0.25886,0.82847 0,0.40083 -0.0768,0.80739 -0.16303,0.89752 -0.0862,0.092 -0.20131,0.51492 -0.25887,0.95122 -0.0575,0.4363 -0.14375,0.97809 -0.19167,1.22068 -0.0479,0.24455 -0.011,0.55904 0.0768,0.71535 z m 5.83965,-0.29632 c 0.0862,-1.20339 0.48904,-2.33777 0.81507,-2.33777 0.0862,0 0.16303,-0.15725 0.16303,-0.33082 0,-0.3663 0.52739,-1.4134 0.70959,-1.4134 0.0672,0 0.0862,-0.15725 0.0383,-0.33179 -0.0862,-0.32793 0.10547,-0.66548 0.62326,-1.11518 0.14375,-0.11704 0.65206,-0.59548 1.15068,-1.08068 2.06163,-1.97726 2.21505,-2.05492 3.07806,-1.59946 0.45068,0.23959 1.43833,1.05287 1.79314,1.47575 0.10547,0.12365 0.36436,0.39315 0.57531,0.59261 0.21095,0.20434 0.46987,0.64532 0.58492,0.99437 0.11512,0.34903 0.33562,0.7834 0.51782,0.97711 0.2685,0.29725 0.29725,0.60219 0.23986,2.06736 -0.0576,1.4307 -0.13439,1.8104 -0.46026,2.26779 -0.21094,0.29629 -0.39314,0.74986 -0.39314,0.98575 0,0.31356 -0.10547,0.45068 -0.39317,0.48807 -0.23986,0.0325 -0.49862,0.28767 -0.68082,0.67123 -0.17266,0.36726 -0.47942,0.68754 -0.75751,0.78533 -0.25886,0.092 -0.55617,0.35577 -0.67123,0.59357 -0.13411,0.27902 -0.34519,0.42671 -0.60409,0.42671 -0.23022,0 -0.56575,0.12172 -0.7959,0.27903 -0.22058,0.16192 -0.55614,0.23876 -0.78628,0.18313 -0.22059,-0.0548 -0.55618,0.0193 -0.77671,0.1746 -0.31645,0.21755 -0.64245,0.24647 -1.63013,0.1487 -1.08354,-0.10657 -1.3041,-0.19277 -1.76435,-0.68081 -0.68082,-0.73641 -0.80549,-1.09888 -0.72876,-2.11052 0.0383,-0.47848 0.10547,-1.43067 0.15339,-2.11052 z m 3.31779,-19.2498 c 0.0193,-0.41808 0.12475,-0.80835 0.23987,-0.84574 0.11511,-0.0403 0.21094,-0.22725 0.21094,-0.4363 0,-0.51013 1.89861,-2.32148 2.59859,-2.47587 0.3644,-0.0815 0.6137,-0.26754 0.71918,-0.54177 0.40272,-1.06629 1.45752,-1.41341 2.66573,-0.87835 0.70959,0.31835 1.48629,0.48233 2.04244,0.43534 0.71917,-0.0623 1.77396,-0.0307 2.90545,0.0873 0.85343,0.0892 1.08354,0.0595 1.16985,-0.15055 0.10547,-0.2963 0.72876,-0.35576 0.89176,-0.0873 0.0576,0.0863 -0.12475,0.27424 -0.40273,0.41904 -0.41231,0.2167 -0.48903,0.34233 -0.41231,0.7326 0.0768,0.43629 0.0479,0.46218 -0.38356,0.35766 -0.32603,-0.0815 -0.56576,-0.0154 -0.84384,0.23494 -0.21095,0.19081 -0.48904,0.34903 -0.61368,0.34903 -0.11511,0 -0.22058,0.12274 -0.22058,0.26179 0,0.1419 -0.19167,0.38547 -0.42192,0.53218 -0.22059,0.1467 -0.46026,0.42671 -0.50821,0.61082 -0.0479,0.19178 -0.22058,0.39314 -0.40275,0.46218 -0.18231,0.0662 -0.40273,0.22629 -0.49862,0.34904 -0.20131,0.2704 -0.74792,0.60123 -1.69724,1.01547 -0.36437,0.16204 -0.66165,0.39794 -0.66165,0.52835 0,0.12946 -0.15339,0.28192 -0.3452,0.33945 -0.19167,0.0585 -0.35478,0.17931 -0.35478,0.27041 0,0.0921 -0.10547,0.16589 -0.24923,0.16589 -0.13438,0 -0.33561,0.14863 -0.42192,0.32314 -0.0958,0.17645 -0.46984,0.46027 -0.81504,0.62808 -0.34522,0.16686 -0.67123,0.43917 -0.71917,0.60123 -0.18231,0.71533 -2.20547,0.87547 -2.41642,0.19178 -0.0576,-0.17355 -0.22059,-0.35863 -0.36439,-0.4152 -0.36437,-0.14191 -0.94929,-1.52081 -0.82465,-1.93984 0.0575,-0.18796 0.12475,-0.70575 0.13439,-1.12479"
       style="fill:#000000;fill-opacity:1;fill-rule:nonzero;stroke:none"
       id="path32"
       inkscape:connector-curvature="0" />
  </g>
</svg>
