<?xml version="1.0" encoding="UTF-8" standalone="no"?>
<!-- Created with Inkscape (http://www.inkscape.org/) -->

<svg
   xmlns:dc="http://purl.org/dc/elements/1.1/"
   xmlns:cc="http://creativecommons.org/ns#"
   xmlns:rdf="http://www.w3.org/1999/02/22-rdf-syntax-ns#"
   xmlns:svg="http://www.w3.org/2000/svg"
   xmlns="http://www.w3.org/2000/svg"
   xmlns:sodipodi="http://sodipodi.sourceforge.net/DTD/sodipodi-0.dtd"
   xmlns:inkscape="http://www.inkscape.org/namespaces/inkscape"
   width="25.709885mm"
   height="10.509089mm"
   viewBox="0 0 91.098018 37.236929"
   id="svg6079"
   version="1.1"
   inkscape:version="0.91 r13725"
   sodipodi:docname="okay.svg">
  <defs
     id="defs6081" />
  <sodipodi:namedview
     id="base"
     pagecolor="#ffffff"
     bordercolor="#666666"
     borderopacity="1.0"
     inkscape:pageopacity="0.0"
     inkscape:pageshadow="2"
     inkscape:zoom="0.55038511"
     inkscape:cx="-8.1437718"
     inkscape:cy="23.340357"
     inkscape:document-units="px"
     inkscape:current-layer="layer1"
     showgrid="false"
     inkscape:snap-global="true"
     fit-margin-top="0"
     fit-margin-left="0"
     fit-margin-right="0"
     fit-margin-bottom="0"
     inkscape:window-width="1920"
     inkscape:window-height="1080"
     inkscape:window-x="0"
     inkscape:window-y="0"
     inkscape:window-maximized="0" />
  <metadata
     id="metadata6084">
    <rdf:RDF>
      <cc:Work
         rdf:about="">
        <dc:format>image/svg+xml</dc:format>
        <dc:type
           rdf:resource="http://purl.org/dc/dcmitype/StillImage" />
        <dc:title></dc:title>
      </cc:Work>
    </rdf:RDF>
  </metadata>
  <g
     inkscape:label="Layer 1"
     inkscape:groupmode="layer"
     id="layer1"
     transform="translate(-154.86173,-177.7786)">
    <g
       id="g4391"
       transform="matrix(0.00721377,0,0,0.00792232,224.67691,187.59134)">
      <g
         id="g4781"
         transform="translate(-881.53439,-9460.2946)">
        <rect
           y="8658"
           x="-8490.7148"
           height="4070.7935"
           width="12152.581"
           id="rect4779"
           style="fill:#008000;fill-opacity:0.43137255" />
        <g
           transform="matrix(0.08833986,-0.00171042,0.00136722,0.100872,-4453.7517,11193.559)"
           id="g4774">
          <path
             d="m -48126.225,-21525.74 c 71.675,871.201 87.796,2975.656 35.966,4663.35 -51.882,1688.562 -46.748,3898.445 10.66,4898.365 120.477,2081.7639 -413.129,10661.4255 -793.5,12760.39104 -229.313,1268.18546 -482.456,6402.06226 -371.806,7550.50456 29.938,301.1188 164.033,663.7875 305.477,820.9654 133.344,148.9645 249.375,332.6938 245.953,390.7202 -17.518,297.0611 1570.4,1903.3758 1899.392,1921.1988 482.073,26.174 905.876,522.871 876.152,1026.924 -28.499,483.266 202.856,684.793 990.786,862.289 324.771,73.206 698.293,241.729 844.563,381.772 211.431,199.684 1058.121,302.751 4273.449,516.417 2211.897,148.101 4085.1,313.516 4178.099,370.177 91.099,56.568 928.195,144.4 1844.836,193.561 1176.249,62.718 1829.042,170.204 2182.263,359.451 336.613,179.748 921.229,278.686 1752.797,298.498 684.889,16.116 2278.623,197.399 3533.305,402.058 1677.033,273.08 3877.579,451.895 8255.303,672.018 6170.516,309.511 7790.601,302.739 18935.84198,-71.274 1200.44922,-40.322 3067.10292,-55.019 4166.50222,-31.666 1091.7893,22.982 2467.1473,-7.052 3041.0852,-66.715 988.5059,-101.931 8185.1716,-193.03 10419.2966,-130.698 555.177,15.857 1083.862,-4.331 1156.8,-44.193 72.886,-38.996 1295.327,-47.842 2699.55,-17.402 1403.322,29.527 3704.014,62.977 5079.772,74.654 1379.614,10.998 3726.996,61.495 5199.681,111.786 1483.147,50.802 4158.075,111.236 5978.627,134.237 1820.502,23.868 4185.616,64.81 5286.661,92.588 1102.95,27.87 3154.935,56.977 4594.727,66.574 1435.036,9.364 5629.79,177.98 9348.716,376.314 17454.571,929.85 29662.014,1436.384 30033.701,1247.839 107.195,-54.691 970.328,28.334 1898.07,180.527 1512.389,250.266 1785.774,256.685 2460.509,56.899 989.276,-292.978 1684.612,-1424.596 1037.22,-1688.156 -197.452,-80.875 -191.989,-869.267 34.721,-4713.746 317.72,-5387.8146 420.949,-9338.2174 251.932,-9626.1586 -118.719,-202.9702 -311.177,-4218.2066 -293.92,-6144.7104 4.924,-568.6696 -128.907,-1421.1961 -299.407,-1910.7174 -443.177,-1268.0609 -473.609,-4100.2057 -111.252,-10244.9636 222.062,-3765.667 255.027,-5327.474 115.936,-5492.355 -134.634,-159.449 -136.255,-536.487 -6.905,-1209.38 102.002,-532.656 197.285,-1323.603 209.192,-1735.59 20.839,-741.605 -313.147,-1548.33 -647.944,-1564.699 -449.892,-21.997 -2770.799,-1136.063 -2969.314,-1425.447 -162.575,-235.513 -423.734,-336.008 -943.055,-361.399 -394.722,-19.299 -1961.139,-146.263 -3479.381,-281.295 -1519.192,-135.078 -3661.003,-242.405 -4758.178,-238.724 -3089.18,8.775 -8499.691,172.439 -9561.505,288.156 -524.172,56.885 -1117.911,96.472 -1306.236,87.264 -190.229,-9.301 -1250.842,21.356 -2346.667,66.793 -2348.554,98.839 -3186.617,367.073 -3667.155,1172.189 -174.559,291.121 -489.271,564.965 -688.659,597.777 -964.089,156.975 -10166.531,260.312 -15454.398,172.008 -1438.975,-23.454 -3221.092,-35.022 -3989.618,-23.959 -770.377,10.105 -2237.017,-29.468 -3292.319,-88.882 -2092.531,-117.946 -2301.086,-123.799 -3811.657,-97.772 -571.927,9.384 -2876.672,-68.56 -5108.295,-173.328 -2232.521,-105.683 -4422.524,-139.799 -4854.487,-77.538 -835.035,119.857 -5634.785,197.864 -8250.334,133.387 -858.201,-21.116 -2343.193,7.9 -3301.359,64.411 -2300.189,135.945 -7177.0949,179.78 -9549.5538,85.496 -1315.2375,-51.277 -1961.2903,-14.248 -2088.5068,121.107 -137.3417,145.285 -947.0713,159.546 -3092.836082,54.632 -1591.250618,-77.802 -3098.828718,-86.371 -3330.849918,-17.808 -613.4765,180.198 -6438.7816,17.847 -14916.1404,-414.881 -6729.375,-343.789 -9364.898,-538.661 -15446.355,-1145.213 -1086.734,-108.723 -2534.946,-153.474 -3203.895,-100.194 -677.613,54.594 -1917.066,141.65 -2788.269,195.464 -870.304,54.728 -2073.549,174.821 -2704.952,270.76 -630.451,95.986 -1262.325,167.582 -1415.459,160.095 -321.483,-15.718 -1443.427,877.031 -1831.641,1459.098 -242.778,364.218 -222.709,412.102 436.726,1005.438 1336.022,1203.144 2189.695,1414.254 4327.622,1069.736 3465.94,-558.397 6034.719,-525.737 20634.181,261.043 4704.845,253.487 10398.9677,472.831 12638.7554,487.668 2237.9351,13.879 4232.5134,29.755 4422.9978,34.726 653.2962,18.045 6074.3553,-0.921 8244.154,-28.591 2269.0756,-28.896 5108.6718,-108.068 8604.7518,-239.394 1147.187,-42.927 2866.465,-65.699 3820.34,-49.46 957.68,16.424 3365.602,10.82 5379.701,-13.171 2014.099,-23.992 5431.298,1.511 7632.439,57.018 2200.19,55.461 4879.249,94.383 5981.438,86.604 1103.089,-6.866 3467.181,51.398 5285.365,130.741 3807.674,165.325 13198.888,160.68 14229.474,-7.809 385.205,-61.943 1948.446,-91.476 3474.025,-64.655 1525.578,26.82 3049.875,-5.486 3388.576,-71.439 337.749,-66 1082.707,-130.33 1656.741,-143.087 1372.452,-29.306 4300.008,-322.188 4870.615,-487.11 294.016,-84.641 467.048,-269.003 518.94,-550.487 159.757,-865.097 610.117,-948.174 4788.273,-886.334 5132.086,77.212 10866.4,391.458 12021.987,659.02 1420.95,329.176 1574.837,420.951 1434.054,850.956 -66.316,202.608 -13.481,568.251 122.928,843.308 203.717,411.238 189.35,1447.603 -91.517,6695.644 -309.504,5814.6812 -311.141,6230.6447 -22.207,6555.717 248.74,278.8123 280.31,503.578 158.51,1145.5729 -109.503,579.1909 -82.993,938.3358 96.451,1308.4327 135.247,278.4745 250.911,905.1543 254.461,1378.6959 16.893,1913.408 199.482,4058.1398 373.19,4363.68233 210.779,372.49772 -240.712,9500.76467 -580.902,11743.27117 -112.148,737.141 -152.576,1406.565 -90.15,1496.475 60.528,89.816 75.871,541.352 33.687,997.892 -165.672,1774.197 15.8,1689.264 -3325.733,1561.496 -1557.927,-60.538 -3948.403,-124.435 -5336.118,-143.645 -3033.648,-43.229 -14869.743,-619.333 -23532.273,-1147.099 -4685.835,-284.695 -7429.718,-372.822 -10651.941,-340.15 -4028.742,41.008 -7057.723,31.881 -8935.305,-26.915 -428.42,-13.995 -3396.912,-78.362 -6585.781,-142.21 -3189.717,-65.625 -6508.43,-143.637 -7365.066,-175.099 -2579.522,-93.115 -8870.406,-43.719 -11197.071,88.325 -1203.036,67.991 -3173.3506,109.758 -4404.7738,92.976 -1231.4214,-16.779 -2288.3122,-0.707 -2361.9467,34.779 -73.6335,35.485 -984.4599,65.648 -2026.165,66.831 -1039.8029,1.274 -3611.10312,27.552 -5712.4705,59.437 -4601.742,68.579 -4601.742,68.579 -10515.975,6.976 -2618.696,-27.284 -5141.482,-47.272 -5619.533,-44.588 -1354.055,8.492 -6987.72,-540.557 -7971.576,-776.271 -480.669,-114.701 -1675.876,-276.498 -2660.162,-359.367 -983.284,-83.686 -2092.941,-240.432 -2468.984,-350.018 -373.19,-109.446 -1183.922,-223.782 -1789.796,-253.406 -608.728,-29.763 -1968.469,-167.468 -3019.124,-305.695 -1049.703,-138.18 -3213.111,-396.824 -4798.489,-574.224 -1586.33,-177.446 -2999.782,-407.239 -3136.886,-508.617 -201.876,-151.4471 -217.832,-722.0058 -82.184,-3022.2851 207.66,-3521.4348 160.292,-3041.6973 687.516,-6919.25453 505.513,-3719.67097 1086.832,-12687.85537 851.879,-13151.86537 -81.267,-158.579 -150.722,-1002.746 -153.832,-1855.831 -10.201,-2544.527 -245.681,-6121.504 -415.793,-6293.98 -90.907,-92.17 -155.028,-315.052 -143.843,-504.721 10.929,-185.339 -125.343,-527.268 -301.647,-756.505 -177.204,-230.148 -318.819,-497.641 -313.201,-592.909 16.547,-280.607 -1370.801,-872.185 -2132.662,-909.435 -1168.947,-57.154 -1307.362,235.735 -1128.399,2393.317"
             style="fill:#000000;fill-opacity:1;fill-rule:nonzero;stroke:none"
             id="path1814"
             inkscape:connector-curvature="0" />
          <path
             d="m -7957.5501,-1627.6028 c 28.3717,570.2976 129.1439,1174.53481 223.5036,1353.73153 93.5624,176.549989 319.6355,742.6169 496.2769,1241.12421 408.6642,1157.80386 2460.5356,3388.71896 3590.9487,3905.19736 2169.9147,989.4265 2572.7435,1097.7156 4868.6715,1308.9881 862.4384,78.6471 1835.4248,191.3626 2188.5978,252.0579 343.6596,60.2313 821.9145,54.0843 1042.3169,-11.5734 223.4094,-68.1164 878.1687,-188.1015 1455.2355,-268.4569 578.0677,-81.1766 1210.1218,-220.5122 1407.1726,-310.7623 195.1497,-90.3442 956.4883,-335.4027 1680.1832,-540.6128 1941.2734,-552.1651 3121.7764,-1046.8538 4003.0634,-1676.0347 435.156,-310.5169 855.815,-553.124 951.88,-548.427 95.114,4.6504 355.752,-306.5811 578.677,-690.0108 222.977,-384.2953 524.91,-732.592 670.391,-773.2517 141.624,-39.977 271.048,-180.4371 278.249,-302.5522 7.508,-127.3126 303.819,-719.95223 665.338,-1334.592867 899.751,-1524.637533 1272.441,-3477.192433 1220.813,-6386.806533 -28.876,-1596.9671 -120.987,-2331.9346 -365.011,-2917.1198 -182.271,-435.3776 -313.007,-1016.7603 -295.693,-1310.3573 16.904,-286.669 -102.413,-786.717 -260.703,-1094.98 -424.369,-826.778 -2083.505,-2665.008 -2512.353,-2784.993 -204.538,-57.771 -834.216,-282.249 -1377,-492.054 -2154.481,-830.593 -4309.8185,-1226.076 -5853.5777,-1073.993 -3892.4188,382.071 -6403.76802,944.582 -7298.24178,1635.655 -353.81215,273.67 -919.68282,584.743 -1273.65902,699.458 -1114.5185,362.42 -3126.4306,2160.998 -3467.9519,3099.721 -119.3788,325.956 -284.4556,601.906 -359.5954,598.232 -233.9799,-11.44 -1432.8688,3027.2479 -1957.0766,4961.1032 -336.6706,1244.6952 -384.575,1798.2367 -300.4557,3461.31 z m 5298.9905,-3011.933 c 39.5277,-282.089 163.797,-593.9073 282.383,-712.3139 116.5306,-115.9013 266.558,-492.4732 333.6427,-837.4872 166.1596,-860.4433 812.8362,-1991.834 1609.08938,-2812.7824 862.31523,-889.8098 1260.67679,-1158.6967 2204.34022,-1486.9097 443.1352,-154.652 839.5301,-325.487 893.5155,-383.647 242.714,-266.074 1601.5208,-743.359 2051.4087,-721.362 275.8296,13.486 1334.9547,186 2346.8421,383.132 1594.6837,310.745 1968.0726,335.95 2765.4898,190.802 508.1942,-93.277 1096.9752,-259.048 1314.3782,-370.887 210.489,-107.833 616.618,-168.752 874.796,-130.941 413.247,61.027 493.826,166.59 564.046,738.934 45.233,365.272 152.753,806.5489 239.166,974.933 235.055,462.278 321.684,4266.4903 123.555,5410.2584 -94.357,548.6624 -292.056,1151.335 -436.093,1329.2977 -146.247,183.0661 -222.288,437.3113 -172.338,576.9869 54.839,153.8127 -52.678,310.9765 -284.738,412.5457 -218.334,95.2893 -383.302,320.8675 -396.326,541.7154 -14.964,253.7584 -412.739,706.80847 -1209.719,1378.32834 C 9789.4158,393.56439 9110.16,912.76082 8927.6319,999.37882 8743.0974,1087.6362 8328.9308,1301.0302 7988.1934,1482.4033 7656.22,1660.7308 6939.9415,1901.9137 6412.5011,2014.227 c -527.3903,111.4474 -1220.1696,293.8481 -1524.0231,399.7223 -301.8492,104.2357 -761.518,183.382 -999.3014,171.756 -242.5396,-11.8587 -636.4894,36.6272 -874.3706,107.51 -237.8792,70.883 -1142.9154,116.0953 -2009.9827,99.7588 l -1577.8389,-30.2437 -835.2791,-830.3665 c -473.945,-471.3526 -1027.9296,-1251.48509 -1279.7555,-1801.44017 -462.9497,-1013.66884 -460.2925,-1317.53823 29.4906,-4770.45953"
             style="fill:#000000;fill-opacity:1;fill-rule:nonzero;stroke:none"
             id="path1858"
             inkscape:connector-curvature="0" />
          <path
             d="m 21485.396,-11406.431 c 139.51,141.449 6.802,5546.1264 -222.242,9074.3331 -418.108,6426.9229 -440.554,5756.1611 215.281,6345.8463 313.414,281.9735 572.984,587.3719 568.183,668.7826 -4.801,81.4097 196.297,343.1275 443.035,574.9374 380.511,357.3449 676.422,450.8527 1865.4,588.895 l 1413.529,163.7856 487.712,-473.842 c 416.893,-405.2138 482.836,-585.2572 454.306,-1233.733 -17.693,-411.6971 -159.601,-900.6899 -310.098,-1066.1276 -197.892,-218.9998 -293.591,-796.0642 -335.204,-2031.4631 -75.416,-2215.0554 -5.382,-4745.2379 133.975,-4860.0231 253.509,-206.484 1923.861,341.6054 2673.475,877.6822 432.881,310.3981 1154.587,737.4073 1576.087,933.4664 1210.609,563.8279 3305.158,2216.62805 5339.38,4213.0361 1033.312,1014.6312 2029.04,1890.1893 2226.41,1956.2967 204.826,69.0776 351.689,215.2282 344.284,340.8083 -39.939,677.2663 2642.587,835.3502 3199.636,188.5777 300.083,-349.2554 460.066,-1751.9853 216.493,-1908.0759 -85.545,-53.6908 -189.134,-302.8237 -239.88,-574.5602 -143.146,-759.1759 -2201.964,-2742.88966 -5520.423,-5316.2803 -249.038,-192.8382 -533.458,-351.7952 -639.035,-356.9573 -355.725,-17.3926 -1486.968,-681.5679 -2045.813,-1201.3683 -296.6,-275.9399 -708.039,-513.198 -906.826,-522.9173 -467.008,-22.8337 -987.699,-591.147 -832.482,-910.1388 67.243,-137.4186 457.957,-373.6745 883.277,-533.5411 1571.504,-590.2221 3148.46,-1305.251 4867.112,-2207.0424 519.666,-271.6416 1019.59,-483.4478 1130.872,-478.0068 109.382,5.3481 483.741,-244.7349 837.099,-559.2513 655.451,-584.6339 841.757,-1204.3659 413.069,-1375.5879 -138.858,-55.43 -245.105,-259.527 -233.92,-449.194 44.177,-749.151 -340.476,-987.704 -1657.583,-1023.44 -761.879,-20.748 -1382.985,46.163 -1632.899,175.52 -218.456,113.525 -682.496,250.652 -1015.318,297.783 -331.973,48.912 -778.421,211.22 -974.834,355.352 -198.418,145.772 -807.735,449.51 -1341.508,669.217 -532.824,219.752 -1089.636,490.446 -1223.676,595.937 -135.094,107.177 -472.85,221.815 -752.44,255.917 -279.59,34.101 -601.79,159.924 -719.578,280.975 -115.784,119.4128 -460.838,309.2598 -762.144,420.4702 -301.307,111.2102 -670.643,259.9163 -817.807,329.1557 -714.441,339.4203 -1665.598,568.2504 -1953.645,470.7847 -478.758,-163.2477 -509.077,-651.9953 -177.324,-2832.3786 391.083,-2571.81 447.506,-3690.37 210.076,-4177.085 -263.851,-540.119 -1172.72,-1028.395 -2456.691,-1318.737 -1027.915,-232.658 -1101.612,-228.444 -1558.103,87.978 -428.58,296.072 -500.536,481.032 -674.747,1720.643 -107.381,769.511 -279.778,1913.668 -384.918,2564.295 -104.731,643.699 -153.606,1213.694 -109.553,1259.276"
             style="fill:#000000;fill-opacity:1;fill-rule:nonzero;stroke:none"
             id="path1890"
             inkscape:connector-curvature="0" />
        </g>
      </g>
    </g>
  </g>
</svg>
