<?xml version="1.0" encoding="UTF-8" standalone="no"?>
<!-- Created with Inkscape (http://www.inkscape.org/) -->

<svg
   xmlns:dc="http://purl.org/dc/elements/1.1/"
   xmlns:cc="http://creativecommons.org/ns#"
   xmlns:rdf="http://www.w3.org/1999/02/22-rdf-syntax-ns#"
   xmlns:svg="http://www.w3.org/2000/svg"
   xmlns="http://www.w3.org/2000/svg"
   xmlns:sodipodi="http://sodipodi.sourceforge.net/DTD/sodipodi-0.dtd"
   xmlns:inkscape="http://www.inkscape.org/namespaces/inkscape"
   width="25.709885mm"
   height="10.509089mm"
   viewBox="0 0 91.098018 37.236929"
   id="svg6079"
   version="1.1"
   inkscape:version="0.91 r13725"
   sodipodi:docname="okay_highlight.svg">
  <defs
     id="defs6081" />
  <sodipodi:namedview
     id="base"
     pagecolor="#ffffff"
     bordercolor="#666666"
     borderopacity="1.0"
     inkscape:pageopacity="0.0"
     inkscape:pageshadow="2"
     inkscape:zoom="0.55038511"
     inkscape:cx="139.93436"
     inkscape:cy="23.340357"
     inkscape:document-units="px"
     inkscape:current-layer="g4781"
     showgrid="false"
     inkscape:snap-global="true"
     fit-margin-top="0"
     fit-margin-left="0"
     fit-margin-right="0"
     fit-margin-bottom="0"
     inkscape:window-width="1920"
     inkscape:window-height="1080"
     inkscape:window-x="0"
     inkscape:window-y="0"
     inkscape:window-maximized="0" />
  <metadata
     id="metadata6084">
    <rdf:RDF>
      <cc:Work
         rdf:about="">
        <dc:format>image/svg+xml</dc:format>
        <dc:type
           rdf:resource="http://purl.org/dc/dcmitype/StillImage" />
        <dc:title></dc:title>
      </cc:Work>
    </rdf:RDF>
  </metadata>
  <g
     inkscape:label="Layer 1"
     inkscape:groupmode="layer"
     id="layer1"
     transform="translate(-154.86173,-177.7786)">
    <g
       id="g4391"
       transform="matrix(0.00721377,0,0,0.00792232,224.67691,187.59134)">
      <g
         id="g4781"
         transform="translate(-881.53439,-9460.2946)">
        <rect
           y="8658"
           x="-8490.7148"
           height="4070.7935"
           width="12152.581"
           id="rect4779"
           style="fill:#ffff00;fill-opacity:0.43137255" />
        <path
           inkscape:connector-curvature="0"
           id="path1814"
           style="fill:#000000;fill-opacity:1;fill-rule:nonzero;stroke:none"
           d="m -8734.6461,9104.5306 c 7.5229,87.7572 11.8243,300.0102 9.5531,470.3399 -2.2747,170.4174 1.2003,393.3239 7.6388,494.0895 13.4892,209.786 -21.9192,1076.146 -52.6514,1288.524 -18.5236,128.316 -33.8671,646.614 -22.5221,762.27 3.0564,30.323 15.3982,66.677 28.1082,82.29 11.9833,14.798 22.4846,33.133 22.2617,38.992 -1.1414,29.995 141.3312,189.311 170.4187,190.546 42.6221,1.816 80.7398,51.194 78.8032,102.09 -1.8569,48.796 18.8565,68.729 88.7048,85.286 28.7903,6.829 62.0176,23.189 75.1306,37.065 18.9508,19.781 93.8882,28.73 378.2219,44.783 195.6012,11.156 361.3058,24.638 369.5988,30.194 8.125,5.55 82.194,12.979 163.2372,16.37 103.9954,4.314 161.81,14.04 193.2723,32.526 29.9821,17.555 81.7622,26.536 155.2499,27.112 60.525,0.454 201.5631,16.014 312.6814,34.513 148.5222,24.677 343.1626,38.951 730.1911,53.667 545.5257,20.667 688.6345,17.213 1672.6922,-39.577 105.9924,-6.121 270.8722,-10.796 368.0249,-10.321 96.4799,0.451 217.9378,-4.931 268.5578,-11.931 87.1851,-11.973 722.813,-33.472 920.2605,-31.005 49.066,0.649 95.7423,-2.291 102.1312,-6.437 6.3854,-4.058 114.3636,-7.041 238.454,-6.373 124.0097,0.579 327.2982,0.02 448.8485,-1.158 121.8899,-1.25 329.3263,-0.171 459.4919,2.383 131.0904,2.587 367.4758,4.108 528.3346,3.315 160.85551,-0.707 369.84532,-0.622 467.14946,0.297 97.47256,0.924 278.78442,0.351 405.98857,-1.144 126.783678,-1.51 497.57819,8.324 826.37876,21.97 1543.20571,63.941 2622.30201,94.156 2654.87901,74.501 9.3948,-5.7 85.7574,1.199 167.9221,14.964 133.9464,22.658 158.1059,22.838 217.4388,1.531 86.9919,-31.245 146.8706,-146.583 89.3198,-172.062 -17.5535,-7.82 -18.1488,-87.356 -3.3775,-475.544 20.701,-544.023 24.4192,-942.685 9.0945,-971.441 -10.7651,-20.271 -33.2565,-424.967 -34.366,-619.326 -0.3425,-57.372 -13.3307,-143.139 -29.0619,-192.226 -40.8839,-127.154 -47.4445,-412.786 -23.8351,-1033.2399 14.4684,-380.2302 15.2452,-537.8292 2.7325,-554.2232 -12.1116,-15.8536 -12.7703,-53.8834 -2.2635,-121.9807 8.2826,-53.9046 15.6185,-133.8519 16.1071,-175.4303 0.8269,-74.8428 -29.7803,-155.6475 -59.3786,-156.726 -39.7735,-1.4494 -246.3252,-109.8577 -264.2577,-138.7089 -14.6838,-23.4786 -37.892,-33.1691 -83.8034,-34.8421 -34.8961,-1.2716 -173.4468,-11.3994 -307.7527,-22.4236 -134.3899,-11.0271 -323.7439,-18.19 -420.6631,-15.942 -272.8858,6.1689 -750.6258,31.9323 -844.2681,45.421 -46.2275,6.6347 -98.6242,11.6434 -115.2734,11.0367 -16.8175,-0.6128 -110.47,4.2937 -207.2129,10.7514 -207.3358,13.9871 -281.0034,42.4778 -322.3533,124.5134 -15.0225,29.6645 -42.4497,57.826 -60.0187,61.4768 -84.95291,17.4834 -897.75407,43.6473 -1365.00423,43.7843 -127.15091,0.095 -284.5987,1.9767 -352.47505,4.4072 -68.04118,2.337 -197.65806,0.8537 -290.96452,-3.3345 -185.0152,-8.3183 -203.4469,-8.552 -336.8549,-3.3429 -50.5111,1.9248 -254.2186,-1.9955 -451.5031,-8.7466 -197.3651,-6.8419 -390.8763,-6.5374 -428.9507,0.4818 -73.603,13.5185 -497.5056,29.5968 -728.651,27.5665 -75.8422,-0.6621 -206.9865,4.8048 -291.5535,12.144 -203.0125,17.6473 -633.7777,30.4106 -843.4893,24.9579 -116.258,-2.9228 -173.2796,1.9174 -184.3329,15.7885 -11.9341,14.8901 -83.446,17.7137 -273.146,10.8009 -140.6772,-5.1263 -273.8682,-3.4121 -294.2711,3.9009 -53.9481,19.2262 -568.7767,12.8132 -1318.257,-16.3371 -594.9421,-23.1686 -828.0303,-38.3179 -1366.0946,-89.1001 -96.1506,-9.1084 -224.1466,-11.1454 -283.1686,-4.6268 -59.7856,6.666 -169.1597,17.5675 -246.0481,24.486 -76.8077,7.0091 -182.938,21.1811 -238.5849,31.9387 -55.5627,10.7606 -111.2845,19.0634 -124.8226,18.5701 -28.4212,-1.0356 -126.313,90.9367 -159.812,150.315 -20.949,37.1547 -19.1106,41.9505 39.955,100.6736 119.669,119.0783 195.371,138.9133 383.7641,100.5043 305.4172,-62.2548 532.3874,-63.354 1823.1776,-8.9612 415.9719,17.5225 919.2898,29.9088 1117.1726,27.5745 197.7178,-2.4278 373.9403,-4.2379 390.7745,-4.0623 57.7367,0.7028 536.6064,-10.4826 728.2483,-16.985 200.4103,-6.7959 451.1516,-19.639 759.8153,-38.8659 101.2836,-6.2923 253.1333,-11.53 337.4206,-11.5235 84.6238,0.019 297.3316,-4.6652 475.2241,-10.5301 177.8924,-5.8651 479.8021,-9.1374 674.3265,-7.3032 194.4403,1.8312 431.1612,1.175 528.5178,-1.4948 97.4374,-2.5794 306.36058,-0.7458 467.08718,4.1479 336.59542,10.1639 1166.2076,-6.3676 1257.01906,-25.1261 33.94427,-6.9072 172.00038,-12.56 306.80649,-12.4639 134.80601,0.096 269.41807,-5.77 299.24867,-13.0021 29.7464,-7.2353 95.468,-14.9986 146.1606,-17.2672 121.2022,-5.3036 379.4216,-39.8546 429.6035,-57.4666 25.8576,-9.0408 40.8911,-27.9337 45.0904,-56.4163 12.9302,-87.5373 52.6013,-96.6878 421.7836,-97.5962 453.4733,-0.9895 960.4714,20.901 1062.9217,45.914 125.9765,30.7742 139.6964,39.7685 127.8475,83.3848 -5.5813,20.5509 -0.414,57.3436 12.0125,84.8559 18.5585,41.1339 18.7063,145.6987 1.0698,675.5595 -19.3916,587.0675 -18.9675,629.0295 7.0013,661.3265 22.3549,27.699 25.4511,50.317 15.569,115.285 -8.8816,58.611 -6.0487,94.794 10.3094,131.819 12.3284,27.859 23.403,90.876 24.364,138.637 4.1084,192.98 23.1706,409.011 38.9337,439.535 19.1295,37.214 -8.2748,958.773 -35.2612,1185.561 -8.8993,74.548 -11.5554,142.144 -5.9178,151.106 5.4698,8.957 7.4426,54.478 4.3403,100.602 -12.2098,179.25 3.7053,170.372 -291.6599,163.2 -137.7098,-3.442 -348.9715,-5.799 -471.5883,-5.363 -268.0512,0.828 -1314.4378,-37.04 -2080.40608,-75.46 -414.33524,-20.703 -656.84997,-24.9 -941.45603,-16.093 -355.84244,11.028 -623.43469,15.288 -789.38039,12.569 -37.8657,-0.679 -300.1899,-2.095 -581.9814,-3.081 -281.8689,-1.164 -575.1502,-3.357 -650.8683,-5.065 -228.0019,-4.981 -783.6702,10.762 -989.0269,28.061 -106.1831,8.916 -280.1833,16.499 -388.99,16.913 -108.8065,0.413 -202.1502,3.842 -208.6065,7.548 -6.4563,3.705 -86.8773,8.306 -178.8998,10.207 -91.8543,1.907 -318.9666,8.956 -504.5575,15.766 -406.4235,14.789 -406.4235,14.789 -928.9703,18.69 -231.3725,1.727 -454.2624,4.026 -496.4897,5.115 -119.6054,3.172 -618.0333,-42.576 -705.2692,-64.67 -42.6191,-10.748 -148.4247,-25.024 -235.4897,-31.7 -86.9776,-6.76 -185.2188,-20.673 -218.5883,-31.084 -33.1171,-10.402 -104.8934,-20.548 -158.4567,-22.5 -53.8157,-1.961 -174.1233,-13.526 -267.127,-25.672 -92.9195,-12.143 -284.3883,-34.533 -424.6829,-49.716 -140.3788,-15.186 -265.5571,-35.948 -277.8075,-45.94 -18.0407,-14.931 -20.2304,-72.457 -11.3922,-304.723 13.53,-355.569 10.0015,-307.096 51.2749,-699.135 39.5713,-376.075 78.6635,-1281.708 57.2734,-1328.1121 -7.396,-15.8571 -14.6858,-100.8912 -16.1269,-186.9382 -4.38,-256.6541 -30.0728,-617.0682 -45.3363,-634.1752 -8.1567,-9.1419 -14.1259,-31.5148 -13.3971,-50.6662 0.712,-18.7142 -11.7937,-52.9722 -27.6818,-75.7942 -15.9688,-22.9124 -28.8448,-49.6527 -28.4788,-59.2722 1.0781,-28.3337 -122.2888,-85.6344 -189.6424,-88.0888 -103.3428,-3.7659 -115.1699,26.0152 -96.4105,243.3487" />
        <path
           inkscape:connector-curvature="0"
           id="path1858"
           style="fill:#000000;fill-opacity:1;fill-rule:nonzero;stroke:none"
           d="m -5158.9459,11042.99 c 3.2861,57.479 13.0144,118.257 21.5952,136.172 8.5066,17.648 29.2518,74.362 45.5379,124.345 37.6843,116.091 221.9965,337.619 322.5632,387.783 193.0427,96.094 228.7766,106.329 431.8874,123.713 76.2952,6.458 162.4028,16.164 193.685,21.682 30.4412,5.488 72.6818,4.05 92.0623,-2.95 19.6429,-7.253 77.3202,-20.476 128.1883,-29.569 50.9554,-9.177 106.6005,-24.313 123.8846,-33.754 17.1159,-9.447 84.0374,-35.469 147.688,-57.406 170.7369,-59.019 274.346,-110.938 351.3385,-175.912 38.0171,-32.067 74.8464,-57.259 83.3391,-56.949 8.4088,0.306 31.008,-31.534 50.1769,-70.593 19.1723,-39.146 45.3689,-74.796 58.165,-79.146 12.4564,-4.275 23.6977,-18.665 24.1669,-30.995 0.4891,-12.855 25.855,-73.143 56.9511,-135.761 77.3994,-155.332 107.6532,-352.928 99.1143,-646.338 -4.7343,-161.04 -13.8762,-235.02 -36.2333,-293.631 -16.6971,-43.606 -29.0412,-102.028 -27.9131,-131.673 1.1014,-28.946 -10.1227,-79.183 -24.5275,-110.0069 -38.6191,-82.6729 -187.7002,-265.261 -225.7486,-276.6306 -18.1479,-5.4776 -74.0804,-27.0442 -122.3168,-47.2792 -191.4621,-80.0986 -382.405,-116.3052 -518.5726,-98.3238 -343.3333,45.1979 -564.4165,106.235 -642.4893,177.4749 -30.8816,28.2108 -80.4452,60.5572 -111.5586,72.7342 -97.9609,38.4643 -273.2339,223.3314 -302.1204,318.6064 -10.1002,33.084 -24.3058,61.202 -30.9487,60.96 -20.6853,-0.754 -122.4405,307.816 -166.1049,503.784 -28.0397,126.131 -31.5147,182.05 -21.8099,349.663 z m 463.9942,-312.883 c 3.1061,-28.522 13.6578,-60.189 23.9717,-72.336 10.1359,-11.89 22.8744,-50.132 28.329,-85.049 13.5021,-87.079 69.0825,-202.311 138.301,-286.483 74.9602,-91.232 109.7838,-119.037 192.6982,-153.758 38.935,-16.358 73.7189,-34.269 78.4085,-40.228 21.0775,-27.254 140.4618,-77.723 180.2349,-76.274 24.3852,0.889 118.184,16.479 207.8435,34.633 141.299,28.618 174.3186,30.522 244.5638,14.517 44.7663,-10.278 96.5525,-28.007 115.6049,-39.66 18.4472,-11.238 54.2413,-18.077 77.1004,-14.705 36.5896,5.449 43.8523,15.96 50.838,73.573 4.4953,36.768 14.5969,81.097 22.4608,97.934 21.3968,46.229 34.2508,429.82 18.3119,545.533 -7.5853,55.506 -24.2261,116.637 -36.707,134.834 -12.6691,18.717 -19.0389,44.493 -14.4354,58.497 5.0548,15.422 -4.2284,31.459 -24.5897,42.101 -19.1573,9.986 -33.4221,33.023 -34.2707,55.322 -0.975,25.623 -35.495,72.003 -104.9819,141.104 -57.1482,56.853 -116.4437,110.387 -132.4498,119.436 -16.1811,9.219 -52.4767,31.453 -82.3294,50.331 -29.0827,18.556 -92.0289,44.11 -138.4694,56.341 -46.4372,12.144 -107.3878,31.728 -134.0854,42.928 -26.5228,11.03 -67.0217,19.8 -88.0434,19.034 -21.4421,-0.781 -56.1773,4.783 -77.0947,12.34 -20.9173,7.557 -100.8063,13.666 -177.4252,13.501 l -139.4275,-0.352 -74.9237,-82.332 c -42.5127,-46.735 -92.5182,-124.481 -115.5164,-179.526 -42.2828,-101.459 -42.4635,-132.115 -3.917,-481.256" />
        <path
           inkscape:connector-curvature="0"
           id="path1890"
           style="fill:#000000;fill-opacity:1;fill-rule:nonzero;stroke:none"
           d="m -2571.3299,10006.22 c 12.5177,14.03 8.1836,559.438 -7.2262,915.727 -28.1486,649.011 -31.0486,581.389 27.694,639.75 28.0725,27.907 51.4204,58.269 51.1076,66.489 -0.3128,8.22 17.81,34.276 39.9237,57.238 34.1029,35.395 60.3715,44.321 165.5943,56.212 l 125.0949,14.104 42.4366,-48.632 c 36.2742,-41.588 41.8535,-59.862 38.4465,-125.226 -2.1258,-41.499 -15.3305,-90.582 -28.8516,-107.012 -17.7812,-21.753 -27.0242,-79.799 -32.3893,-204.345 -9.6908,-223.308 -6.9633,-478.652 5.1906,-490.469 22.1126,-21.262 170.4206,31.168 237.3744,83.961 38.665,30.57 103.0042,72.409 140.5075,91.465 107.7159,54.804 295.0078,217.942 477.4402,415.845 92.6699,100.58 181.8295,187.196 199.3555,193.527 18.1887,6.618 31.3624,21.109 30.8799,33.789 -2.6022,68.386 234.58791,79.744 282.91326,13.55 26.03179,-35.744 38.24682,-177.514 16.51621,-192.842 -7.63044,-5.27 -17.1221,-30.223 -21.97652,-57.547 -13.68346,-76.335 -198.27132,-272.914 -494.94195,-526.821 -22.2636,-19.026 -47.6066,-34.574 -56.9403,-34.914 -31.4484,-1.146 -132.2904,-66.208 -182.3693,-117.686 -26.5789,-27.327 -63.2498,-50.556 -80.8239,-51.196 -41.2866,-1.505 -88.0614,-57.941 -74.7857,-90.384 5.7524,-13.977 39.945,-38.477 77.2991,-55.33 138.0195,-62.225 276.35,-137.049 426.9425,-230.954 45.5358,-28.29 89.4095,-50.51 99.2475,-50.151 9.6701,0.352 42.3991,-25.515 73.18463,-57.845 57.10313,-60.094 72.71407,-122.927 34.60973,-139.465 -12.34248,-5.354 -22.00737,-25.7596 -21.27861,-44.9108 2.87834,-75.644 -31.42805,-99.0494 -147.82995,-100.4013 -67.3326,-0.7898 -122.1096,7.022 -144.0101,20.498 -19.1431,11.8251 -59.9489,26.4511 -89.2859,31.7746 -29.2595,5.5016 -68.4768,22.6376 -85.6308,37.5124 -17.3289,15.0437 -70.7406,46.7246 -117.5937,69.8001 -46.7691,23.078 -95.5877,51.336 -107.2846,62.206 -11.7876,11.042 -41.4682,23.184 -66.1205,27.102 -24.6523,3.918 -52.9434,17.161 -63.1833,29.573 -10.0651,12.244 -40.2875,31.984 -66.7528,43.717 -26.4654,11.734 -58.8892,27.366 -71.7949,34.602 -62.6496,35.46 -146.3618,60.169 -171.9411,50.83 -42.5166,-15.648 -45.8632,-64.897 -19.5373,-285.404 31.032,-260.0925 34.4871,-373.0204 12.8471,-421.7102 -24.047,-54.0316 -105.0039,-101.7304 -218.8267,-128.8217 -91.124,-21.7105 -97.6286,-21.1594 -137.5223,11.5395 -37.4559,30.5985 -43.5596,49.3788 -57.2546,174.7188 -8.4339,77.8058 -22.0991,193.5141 -30.4976,259.324 -8.3719,65.1103 -11.9102,122.6906 -7.9562,127.2126" />
      </g>
    </g>
  </g>
</svg>
