<?xml version="1.0" encoding="UTF-8" standalone="no"?>
<!-- Created with Inkscape (http://www.inkscape.org/) -->

<svg
   xmlns:dc="http://purl.org/dc/elements/1.1/"
   xmlns:cc="http://creativecommons.org/ns#"
   xmlns:rdf="http://www.w3.org/1999/02/22-rdf-syntax-ns#"
   xmlns:svg="http://www.w3.org/2000/svg"
   xmlns="http://www.w3.org/2000/svg"
   xmlns:sodipodi="http://sodipodi.sourceforge.net/DTD/sodipodi-0.dtd"
   xmlns:inkscape="http://www.inkscape.org/namespaces/inkscape"
   width="21.26656mm"
   height="18.152674mm"
   viewBox="0 0 75.353953 64.320495"
   id="svg6079"
   version="1.1"
   inkscape:version="0.91 r13725"
   sodipodi:docname="buttonDivide.svg">
  <defs
     id="defs6081" />
  <sodipodi:namedview
     id="base"
     pagecolor="#ffffff"
     bordercolor="#666666"
     borderopacity="1.0"
     inkscape:pageopacity="0.0"
     inkscape:pageshadow="2"
     inkscape:zoom="8.8061618"
     inkscape:cx="4.3887566"
     inkscape:cy="45.388306"
     inkscape:document-units="px"
     inkscape:current-layer="layer1"
     showgrid="false"
     inkscape:snap-global="true"
     fit-margin-top="0"
     fit-margin-left="0"
     fit-margin-right="0"
     fit-margin-bottom="0"
     inkscape:window-width="956"
     inkscape:window-height="1041"
     inkscape:window-x="960"
     inkscape:window-y="18"
     inkscape:window-maximized="0" />
  <metadata
     id="metadata6084">
    <rdf:RDF>
      <cc:Work
         rdf:about="">
        <dc:format>image/svg+xml</dc:format>
        <dc:type
           rdf:resource="http://purl.org/dc/dcmitype/StillImage" />
        <dc:title></dc:title>
      </cc:Work>
    </rdf:RDF>
  </metadata>
  <g
     inkscape:label="Layer 1"
     inkscape:groupmode="layer"
     id="layer1"
     transform="translate(-145.93253,-142.78421)">
    <rect
       style="fill:#f26700;fill-opacity:0.64313728"
       id="rect3344"
       width="61.320698"
       height="55.642857"
       x="153.08661"
       y="146.5789" />
    <g
       id="g7168"
       transform="matrix(0.07986003,0,0,0.07986003,203.49594,152.15719)">
      <path
         inkscape:connector-curvature="0"
         id="path58"
         style="fill:#000000;fill-opacity:1;fill-rule:nonzero;stroke:none"
         d="m 20.591269,254.00009 c -0.259769,-1.1584 -1.420103,-1.63174 -2.528479,-1.02139 -1.134349,0.63525 -2.537137,-0.68507 -3.143278,-2.95204 -0.614798,-2.26698 -0.406987,-4.39694 0.467592,-4.80797 2.736303,-1.25805 1.896366,-6.77601 -1.255581,-8.27072 -1.575969,-0.74735 -3.368417,-3.40044 -3.784063,-5.60514 -0.7013872,-3.74922 -1.4980352,-3.94852 -7.4815206,-1.81856 -4.8837793,1.73136 -8.1049889,1.65664 -11.8890511,-0.3114 -6.1480063,-3.18871 -38.3081823,-1.60681 -43.1659793,2.1175 -3.697473,2.83995 -14.807192,4.16027 -45.685801,5.46814 -47.408978,1.99294 -103.806188,5.72971 -121.921168,8.0714 -23.15463,2.98942 -240.03232,0.8221 -242.75129,-2.41643 -2.14748,-2.56591 -43.32185,-2.0054 -45.68581,0.6228 -0.87456,0.97156 -4.48546,5.5304 -8.11363,10.23872 -5.68909,7.3988 -6.54634,9.75296 -6.61562,18.13576 -0.0433,5.89164 0.83994,10.71206 2.28601,12.40607 9.29131,10.97364 11.43012,14.99688 10.55554,19.87959 -0.73603,4.07308 -0.41563,4.92008 1.49804,3.84887 1.66257,-0.92174 2.77094,0.44841 3.46367,4.30973 0.85726,4.73324 1.8877,5.56778 6.30388,5.09445 2.83155,-0.29893 6.44243,0.8221 7.79326,2.44136 2.99607,3.54992 37.80595,3.91115 51.35755,0.52315 4.76255,-1.19576 12.91949,-1.70646 18.11501,-1.14595 19.2147,2.05524 44.62073,2.27944 61.43684,0.5356 9.44715,-0.98401 17.91582,-1.02137 18.82503,-0.0872 0.90055,0.93418 9.83683,1.23312 19.7689,0.68507 10.00135,-0.56052 32.92219,-1.33278 51.19304,-1.70646 18.27086,-0.37367 35.19953,-1.28296 37.80594,-2.01786 8.82371,-2.50362 86.48784,-6.42723 131.37701,-6.62653 34.974403,-0.14937 44.941108,0.44843 46.239987,2.75276 1.108371,1.98049 4.875107,2.7652 11.499375,2.37906 7.559466,-0.43595 10.555538,0.32386 12.910838,3.28836 1.731832,2.16732 3.3511,3.46273 3.706117,2.95206 0.346371,-0.49825 5.983497,-0.0872 12.443233,0.89681 6.4597466,0.99647 12.5298343,1.0463 13.38708655,0.12454 0.883237,-0.9591 3.30781195,-2.30433 5.51589325,-3.06415 2.2080936,-0.75981 6.7022002,-5.44321 10.2351512,-10.64978 l 6.30387,-9.29209 0,-21.41165 c 0,-11.78326 -0.20781,-22.38322 -0.467592,-23.56653" />
      <path
         inkscape:connector-curvature="0"
         id="path64"
         style="fill:#000000;fill-opacity:1;fill-rule:nonzero;stroke:none"
         d="m -161.89927,442.8421 c -1.66262,-0.63676 -2.12249,-2.37896 -1.46805,-5.58923 0.95511,-4.66946 -1.9633,-14.31793 -4.32457,-14.31793 -0.73403,0 -1.73337,-1.21159 -2.33474,-2.82114 -0.56598,-1.52996 -2.47623,-5.38581 -4.18307,-8.44572 -1.7422,-3.12182 -3.1395,-8.20695 -3.1395,-11.4172 0,-4.02389 -1.22927,-7.11918 -4.01504,-10.13487 -2.56466,-2.76808 -4.02388,-6.27903 -4.02388,-9.65732 0,-7.27836 -4.66946,-10.11718 -18.9874,-11.54986 -6.43821,-0.6456 -11.99205,-1.80411 -12.50498,-2.60889 -1.37962,-2.17555 -16.60846,0.25647 -24.8154,3.96198 -4.02389,1.8218 -9.0294,4.05925 -11.26686,5.03206 -9.33009,4.05924 -37.00201,27.05285 -37.00201,30.74067 0,1.14967 -1.84834,4.35109 -4.10347,7.08379 -2.24631,2.73271 -3.62592,5.74841 -3.05107,6.67699 0.58367,0.93743 -0.48641,2.07827 -2.41433,2.57352 -2.57352,0.65442 -3.19258,1.68915 -2.41433,4.02388 0.64559,1.92792 -0.009,3.90891 -1.68915,5.14702 -3.81163,2.81229 -1.29118,12.66417 3.53748,13.84922 2.73269,0.67212 3.20142,1.42384 2.05174,3.28101 -2.21977,3.60823 -1.94562,4.34226 4.2538,11.26687 3.7409,4.18307 7.17225,6.42936 9.78113,6.42936 3.2191,0 3.8647,0.6456 3.2191,3.21911 -0.52178,2.09595 -0.0441,3.21911 1.37078,3.21911 1.23812,0 2.96264,1.45036 4.02388,3.37828 1.75989,3.2191 1.99868,3.2368 4.98784,0.4864 2.89189,-2.67963 3.33408,-2.68848 5.78377,-0.16803 2.03406,2.09596 2.20209,3.19257 0.72518,4.66948 -2.90956,2.90957 -2.24628,4.79328 1.29119,3.68781 1.65376,-0.51293 5.62458,0.26532 8.68449,1.69799 4.32458,2.04289 8.36614,2.44971 17.37787,1.75105 20.75615,-1.61839 23.87797,-2.17555 26.86713,-4.86402 1.60955,-1.44152 4.11232,-2.59121 5.62459,-2.59121 6.84502,0 19.99559,-8.36613 30.36924,-19.30578 5.94295,-6.27903 10.82469,-12.11586 10.82469,-12.95601 0,-0.9109 0.64558,-1.52996 1.60955,-1.52996 2.42317,0 1.92792,-3.2191 -0.6456,-4.21843 z m -8.69334,-13.47779 c -2.31706,0 -3.34292,-1.76874 -2.43202,-4.18307 1.28234,-3.36945 3.72319,-2.7327 3.72319,0.9728 0,1.76874 -0.57485,3.21027 -1.29117,3.21027" />
      <path
         inkscape:connector-curvature="0"
         id="path66"
         style="fill:#000000;fill-opacity:1;fill-rule:nonzero;stroke:none"
         d="m -174.58541,127.13926 c -0.95365,-2.93757 -2.83541,-6.08802 -4.26587,-7.11831 -1.40494,-1.03027 -2.55442,-3.25262 -2.55442,-4.96408 0,-3.14193 -7.2801,-13.34256 -12.08238,-16.927249 -2.17127,-1.617799 -2.27344,-2.324526 -0.62158,-3.984887 2.73322,-2.724707 2.47778,-5.883678 -0.4598,-5.883678 -1.39641,0 -2.85242,-1.013241 -3.32925,-2.324509 -0.50237,-1.36236 -2.7162,-2.324522 -5.34724,-2.324522 -2.51185,0 -7.0502,-1.362359 -10.30282,-3.099352 -3.25262,-1.728493 -7.95274,-3.099366 -10.68596,-3.099366 -2.78432,0 -5.22803,-0.928096 -5.68784,-2.162732 -0.79186,-2.145706 -18.40031,-5.159925 -24.75228,-4.240331 -7.15236,1.038793 -18.15338,8.421056 -24.09666,16.169452 -3.55914,4.64903 -6.42009,9.051138 -6.42009,9.911128 0,0.83445 -2.21383,4.333986 -4.8023,7.586616 -8.13155,10.22617 -12.17604,20.80146 -11.25645,29.43537 1.2772,11.92912 0.88554,16.34826 -1.70295,19.2007 -1.9073,2.12016 -2.1457,3.49103 -0.97919,5.66229 0.85147,1.55818 1.94135,4.80229 2.40116,7.12681 0.4683,2.31601 1.77104,4.25736 2.86945,4.25736 2.04354,0 8.82975,8.20818 8.82975,10.68597 0,0.78335 1.70296,2.51185 3.86569,3.92528 4.18924,2.73322 5.33873,6.42862 1.54968,4.97261 -3.33776,-1.28573 -2.78431,3.26963 0.62158,5.1003 1.53265,0.81742 4.18924,1.10693 5.89218,0.63861 2.29898,-0.63008 3.95083,0.54495 6.42862,4.57241 1.80512,2.93758 4.46171,5.8496 5.80703,6.36901 6.50524,2.50333 49.12992,-0.55346 52.34848,-3.755 0.86851,-0.85146 2.40967,-1.53266 3.49104,-1.53266 1.07285,0 4.5724,-1.76254 7.82503,-3.95082 3.25261,-2.17976 8.16561,-5.04922 10.99249,-6.40306 6.19872,-2.97164 14.25363,-12.00576 14.25363,-15.98212 0,-1.70296 0.51941,-3.09085 1.15802,-3.09085 0.63861,0 1.3453,-5.80704 1.54967,-12.78059 0.21286,-6.97355 0.57049,-15.94807 0.77485,-19.75415 0.22138,-3.86567 -0.36614,-9.30659 -1.31127,-12.23565" />
    </g>
    <path
       d="m 218.17111,167.33993 c -0.0535,-1.80872 -0.16103,-3.62925 -0.23944,-4.04701 -0.0777,-0.41431 -0.13966,-1.18867 -0.1361,-1.70723 0.004,-0.52134 -0.0591,-3.56597 -0.13895,-6.76494 -0.13824,-5.53875 -0.24941,-7.43783 -0.4917,-8.3971 -0.119,-0.47268 -1.08741,-1.64466 -1.61831,-1.96026 -0.64846,-0.3837 -3.08768,-0.0855 -3.40693,0.41778 -0.0478,0.0751 -0.52092,0.0959 -1.16938,0.0508 -0.68694,-0.048 -1.29479,-0.0202 -1.6461,0.0757 -0.33278,0.0904 -1.81499,0.16961 -3.66918,0.19603 -1.71094,0.0243 -3.66559,0.0785 -4.34257,0.11956 -0.67982,0.0424 -1.95751,0.11609 -2.85182,0.16474 -0.89502,0.0487 -1.88197,0.10357 -2.20407,0.12165 -1.73019,0.098 -17.70808,0.11052 -20.02901,0.0153 -1.50359,-0.0618 -3.5345,-0.13138 -4.53712,-0.15571 -0.99835,-0.0243 -2.19409,-0.10983 -2.65728,-0.18977 -1.05037,-0.18143 -4.72382,-0.50606 -5.7692,-0.50953 -0.42757,-0.002 -1.04254,-0.082 -1.36748,-0.18003 -0.41473,-0.12443 -0.65916,-0.13903 -0.82304,-0.0501 -0.16178,0.0869 -0.33708,0.0814 -0.57009,-0.0194 -0.21735,-0.0932 -0.62281,-0.11608 -1.14159,-0.0633 -0.44039,0.0452 -0.87364,0.0396 -0.95915,-0.0125 -0.0862,-0.0521 -0.65417,-0.114 -1.27627,-0.13903 -0.62282,-0.0243 -1.43873,-0.10287 -1.83494,-0.17725 -0.38765,-0.0723 -1.17935,-0.1154 -1.73733,-0.0945 -1.01045,0.0375 -1.02898,0.0445 -1.42519,0.52483 -0.30998,0.37536 -0.4019,0.60684 -0.4019,1.01141 l 0,0.52482 -0.58362,-0.0286 c -0.72613,-0.0355 -1.27982,0.17517 -1.36962,0.52204 -0.0384,0.14528 -0.0106,1.71973 0.0599,3.49022 0.0719,1.77534 0.12399,5.63953 0.11687,8.59867 -0.008,2.95915 0.0292,7.67625 0.0805,10.49637 0.13967,7.67556 0.12613,13.33874 -0.0377,15.74318 -0.0805,1.18934 -0.14609,2.93062 -0.14609,3.89546 0,0.96066 -0.0584,1.98319 -0.1297,2.27583 -0.0713,0.29126 -0.18811,1.18867 -0.25937,1.98527 -0.0713,0.79662 -0.18814,1.7691 -0.2594,2.15003 -0.0719,0.38649 -0.19881,1.15042 -0.28503,1.71974 -0.15178,0.99889 -0.14751,1.03364 0.16176,1.40345 0.18029,0.21549 0.46674,0.48102 0.66129,0.6138 0.27221,0.1856 0.31782,0.28222 0.22019,0.46781 -0.0663,0.12651 -0.2658,0.29613 -0.43397,0.36911 -0.46034,0.20089 -0.65915,0.76256 -0.47602,1.34437 0.19169,0.60684 1.06035,1.71695 1.38315,1.7677 0.1468,0.023 0.42828,0.11469 0.64847,0.21132 0.21591,0.0945 0.64847,0.23565 0.97198,0.31628 0.32638,0.0813 0.84943,0.22592 1.18649,0.32879 0.33705,0.10219 0.85155,0.18282 1.16651,0.18282 0.35987,0 0.78458,0.1147 1.17366,0.31628 0.41402,0.21549 0.80952,0.31629 1.23778,0.31629 0.34989,0 0.68339,0.0535 0.75179,0.12025 0.067,0.0654 0.56367,0.18003 1.09528,0.25302 0.53158,0.0723 1.16366,0.19325 1.39384,0.26554 0.23302,0.0736 0.47601,0.0987 0.54442,0.0563 0.0663,-0.0404 0.29145,0.008 0.48599,0.10148 0.19953,0.0973 1.17294,0.24538 2.15847,0.32879 0.98552,0.0834 2.07651,0.20923 2.41785,0.27945 0.78314,0.16126 6.66351,0.20297 9.41129,0.0674 2.4385,-0.12027 4.0839,-0.25998 6.98773,-0.59435 0.57008,-0.0653 1.73733,-0.17794 2.59245,-0.25023 2.12639,-0.17935 3.93211,-0.35451 5.25042,-0.50953 1.01118,-0.11816 4.32049,-0.36563 5.25043,-0.39205 1.14301,-0.0335 6.27444,-0.23982 7.45378,-0.30028 0.7525,-0.0388 2.34659,-0.0959 3.56513,-0.12791 1.21855,-0.0313 2.86395,-0.0793 3.6813,-0.10705 1.27055,-0.0438 1.53422,-0.0174 1.87983,0.18976 0.2209,0.13138 0.49312,0.23982 0.60286,0.23982 0.10903,0 0.42115,0.11053 0.68053,0.23982 0.55155,0.27527 1.95751,0.33366 2.72284,0.11192 0.41473,-0.11956 1.12733,-0.78202 1.12733,-1.04686 0,-0.0431 0.15321,-0.27179 0.34989,-0.52481 0.27506,-0.35314 0.34347,-0.56306 0.3171,-0.98013 -0.0328,-0.51857 -0.31497,-1.27208 -0.52447,-1.3972 -0.0627,-0.0375 -0.26509,-0.31629 -0.44039,-0.60685 -0.30356,-0.50396 -0.3171,-0.60127 -0.21377,-1.54942 0.0605,-0.56098 0.17315,-1.63146 0.25225,-2.40304 0.0792,-0.77091 0.23517,-1.8692 0.34989,-2.46561 0.11544,-0.59711 0.24799,-1.58072 0.29859,-2.21258 0.0498,-0.62632 0.1582,-1.82123 0.24014,-2.65607 0.33207,-3.37622 0.41687,-4.38623 0.53302,-6.29782 0.1753,-2.88476 0.25296,-11.25406 0.14037,-15.07306 z m -5.05232,11.89913 c -0.069,0.96483 -0.19097,2.87086 -0.26864,4.22426 -0.0784,1.35271 -0.20096,3.00779 -0.27222,3.66678 -0.0713,0.65759 -0.15178,1.43057 -0.17744,1.70722 -0.19881,2.12429 -0.47957,4.3911 -0.58861,4.75466 -0.0713,0.23772 -0.12827,0.69581 -0.12827,1.02461 0,1.25192 -0.56295,4.95344 -0.7917,5.20995 -0.0498,0.0557 -1.39954,0.12164 -2.99433,0.14597 -3.44828,0.0536 -6.42836,0.13972 -8.72436,0.25094 -2.52757,0.12303 -3.92427,0.14041 -4.1744,0.0521 -0.12827,-0.0452 -0.34989,-0.0111 -0.4924,0.0759 -0.14608,0.0889 -1.19289,0.22105 -2.3979,0.30238 -2.45063,0.16614 -4.48082,0.33575 -6.15828,0.51508 -0.64491,0.0689 -2.15133,0.20368 -3.36988,0.30169 -1.21925,0.098 -2.61024,0.23495 -3.11192,0.30725 -3.74613,0.53941 -14.1971,0.52967 -15.68572,-0.0139 -0.22019,-0.08 -0.50096,-0.12791 -0.64775,-0.10983 -0.14538,0.0174 -0.54443,-0.0298 -0.90785,-0.10774 -0.36272,-0.0779 -0.73399,-0.15431 -0.84229,-0.17378 -0.90786,-0.16197 -1.3226,-0.25928 -1.9447,-0.45809 -0.38907,-0.12443 -0.97838,-0.26206 -1.29621,-0.30307 -1.12804,-0.1446 -1.75299,-0.28639 -2.17842,-0.49423 -0.24584,-0.11956 -0.49739,-0.18005 -0.57008,-0.13625 -0.15534,0.0938 -2.04871,-0.22384 -2.04871,-0.34409 0,-0.05 0.1532,-0.26554 0.3506,-0.49354 0.31995,-0.3691 0.34845,-0.49284 0.33349,-1.42849 -0.0143,-0.90226 0.23161,-4.36259 0.41545,-5.84251 0.11116,-0.89462 0.45392,-10.04036 0.46177,-12.3294 0.005,-1.21926 -0.0556,-3.94553 -0.13326,-6.06982 -0.1297,-3.55347 -0.15179,-22.06254 -0.0292,-23.93798 l 0.0535,-0.80982 1.45157,-0.0654 c 1.37174,-0.0612 2.74849,-0.0166 8.24547,0.26692 3.13686,0.16197 4.72311,0.2419 7.77801,0.39345 1.38673,0.0694 3.28794,0.18351 4.21289,0.2544 1.42448,0.10844 2.32094,0.16129 4.27844,0.25234 0.45749,0.0209 14.32467,-0.15015 15.94512,-0.19671 0.85512,-0.0243 3.65563,-0.0737 6.22242,-0.10845 2.56678,-0.0347 5.03166,-0.0973 5.47703,-0.13902 0.59645,-0.0557 0.88718,-0.0257 1.10166,0.114 0.21237,0.13832 0.6549,0.18628 1.62688,0.17724 0.73897,-0.009 1.36463,0.0181 1.40026,0.0563 0.0357,0.0383 0.0862,2.28277 0.11188,4.98889 0.0485,5.13418 0.16532,8.94903 0.28432,9.26948 0.0384,0.10427 0.0998,1.18866 0.13539,2.40234 0.0357,1.21438 0.0826,2.22996 0.10333,2.25152 0.10689,0.10357 0.0605,8.99073 -0.0549,10.59646"
       style="fill:#000000;fill-opacity:1;fill-rule:nonzero;stroke:none"
       id="path1048"
       inkscape:connector-curvature="0" />
  </g>
</svg>
