<?xml version="1.0" encoding="UTF-8" standalone="no"?>
<!-- Created with Inkscape (http://www.inkscape.org/) -->

<svg
   xmlns:dc="http://purl.org/dc/elements/1.1/"
   xmlns:cc="http://creativecommons.org/ns#"
   xmlns:rdf="http://www.w3.org/1999/02/22-rdf-syntax-ns#"
   xmlns:svg="http://www.w3.org/2000/svg"
   xmlns="http://www.w3.org/2000/svg"
   xmlns:sodipodi="http://sodipodi.sourceforge.net/DTD/sodipodi-0.dtd"
   xmlns:inkscape="http://www.inkscape.org/namespaces/inkscape"
   width="48.956196mm"
   height="23.685196mm"
   viewBox="0 0 173.46684 83.923919"
   id="svg6079"
   version="1.1"
   inkscape:version="0.91 r13725"
   sodipodi:docname="buttonUndo_highlight.svg">
  <defs
     id="defs6081" />
  <sodipodi:namedview
     id="base"
     pagecolor="#ffffff"
     bordercolor="#666666"
     borderopacity="1.0"
     inkscape:pageopacity="0.0"
     inkscape:pageshadow="2"
     inkscape:zoom="2"
     inkscape:cx="32.481144"
     inkscape:cy="-16.439594"
     inkscape:document-units="px"
     inkscape:current-layer="layer1"
     showgrid="false"
     inkscape:snap-global="true"
     fit-margin-top="0"
     fit-margin-left="0"
     fit-margin-right="0"
     fit-margin-bottom="0"
     inkscape:window-width="956"
     inkscape:window-height="1041"
     inkscape:window-x="960"
     inkscape:window-y="18"
     inkscape:window-maximized="0" />
  <metadata
     id="metadata6084">
    <rdf:RDF>
      <cc:Work
         rdf:about="">
        <dc:format>image/svg+xml</dc:format>
        <dc:type
           rdf:resource="http://purl.org/dc/dcmitype/StillImage" />
        <dc:title></dc:title>
      </cc:Work>
    </rdf:RDF>
  </metadata>
  <g
     inkscape:label="Layer 1"
     inkscape:groupmode="layer"
     id="layer1"
     transform="translate(-107.91109,-133.99005)">
    <rect
       style="fill:#ffff00;fill-opacity:0.43137255"
       id="rect4958"
       width="163.5"
       height="71.5"
       x="113.91109"
       y="139.41397" />
    <g
       id="g4945"
       transform="matrix(-0.07540797,1.9690896e-4,-1.9511185e-4,-0.07471976,204.33261,194.31876)">
      <path
         inkscape:connector-curvature="0"
         id="path18"
         style="fill:#000000;fill-opacity:1;fill-rule:nonzero;stroke:none"
         d="m 1275.9324,-195.90683 c -2.1232,-1.98577 -4.4525,-4.98159 -5.064,-6.50012 -0.749,-1.87583 -2.1232,-2.8103 -4.1227,-2.8103 -3.6143,0 -12.004,-9.00123 -12.004,-12.87656 0,-1.34675 -1.6216,-3.77914 -3.7447,-5.62061 -2.1301,-1.84148 -3.7517,-4.44565 -3.7517,-6.0054 0,-3.27067 -6.2528,-8.23165 -13.1239,-10.40981 -2.7485,-0.87264 -5.9298,-2.06822 -7.0636,-2.65227 -1.1406,-0.58405 -4.1914,-1.44982 -6.8162,-1.93767 -2.5835,-0.47411 -8.3072,-2.75533 -12.5605,-4.99533 -4.5006,-2.37743 -8.1492,-3.59362 -8.6026,-2.87902 -0.9414,1.49791 -8.4585,1.44294 -10.0869,-0.0756 -0.6184,-0.57718 -6.0604,-1.41546 -12.0589,-1.86209 -9.1249,-0.68024 -10.9389,-0.50846 -10.9389,1.00319 0,0.99632 0.7009,2.08884 1.5598,2.43927 0.9207,0.36417 0.6871,0.67337 -0.5566,0.74895 -1.1269,0.0618 -2.4461,-0.40539 -2.8172,-1.00319 -0.3779,-0.6184 -6.5619,-0.87263 -13.6873,-0.56343 -8.376,0.36417 -13.2889,0.0962 -13.8111,-0.74896 -0.4466,-0.72147 -2.2468,-0.94822 -3.999,-0.50159 -1.7521,0.44662 -4.3975,0.19239 -5.8748,-0.55657 -1.4636,-0.75582 -5.813,-1.66969 -9.5647,-2.02699 -33.1259,-3.12638 -32.851,-3.11951 -35.7507,-1.18871 -1.8689,1.25055 -5.5587,1.7384 -11.5572,1.5254 -7.1323,-0.25424 -9.3173,0.14429 -11.4405,2.06135 -1.4979,1.35362 -2.3843,2.98895 -2.0614,3.81349 0.4123,1.06503 -0.6253,1.03068 -3.999,-0.12368 -2.5011,-0.8589 -7.2491,-1.95828 -10.4991,-2.43926 -5.5038,-0.8108 -6.026,-0.64589 -7.1048,2.24687 -1.8827,5.0503 -10.8358,6.48638 -18.8339,3.02331 -3.7516,-1.62847 -4.3769,-2.49423 -4.3769,-6.08785 l 0,-4.18454 -9.3723,-0.12368 c -5.12592,-0.0687 -10.73962,-0.57718 -12.37492,-1.12687 -2.7554,-0.91386 -2.9409,-0.74896 -2.2538,1.99951 0.4054,1.62846 0.2543,3.80662 -0.3367,4.75484 -1.7315,2.76908 -8.4103,1.91019 -12.6635,-1.64221 -3.1676,-2.64539 -5.1259,-3.23631 -10.7465,-3.23631 -5.3733,0 -6.7338,0.38478 -6.2115,1.75214 0.8039,2.12319 -4.961,8.58209 -7.0361,7.88123 -0.8108,-0.27485 -1.7934,-2.13006 -2.1163,-4.00589 -0.8521,-4.83043 -6.5139,-7.94306 -14.6356,-8.04613 -3.8753,-0.0481 -6.9399,-0.76957 -7.8194,-1.82773 -2.398,-2.92025 -21.9327,-1.12687 -27.306,2.50797 -5.2564,3.54552 -7.7507,3.70356 -7.7507,0.48786 0,-2.19191 -0.8795,-2.53546 -7.1254,-2.7897 -11.7496,-0.48098 -18.0642,-0.0206 -19.5003,1.41546 -0.9689,0.96884 -2.0614,0.74209 -3.6898,-0.74895 -1.601,-1.47043 -4.6862,-2.16442 -10.0594,-2.25374 -4.2533,-0.0618 -9.4479,-0.54283 -11.5023,-1.05816 l -3.7517,-0.94135 2.879,2.50797 c 2.8172,2.45301 2.7485,5.11902 -0.1305,5.11902 -0.7559,0 -3.3738,-1.39485 -5.8749,-3.14012 -4.3288,-3.03019 -5.7443,-3.23632 -22.4962,-3.29816 -12.3749,-0.0344 -20.1393,-0.83141 -21.7472,-2.21252 -1.8277,-1.58036 -2.879,-1.45668 -12.2513,1.38111 -3.7516,1.13374 -5.4419,1.00319 -8.9394,-0.66651 -2.3568,-1.12687 -6.6856,-2.06134 -9.5577,-2.06134 -4.2533,0 -5.9436,0.73521 -8.8845,3.87533 -4.5074,4.81669 -9.2417,4.62429 -9.2417,-0.37791 0,-4.24638 0,-4.24638 -7.7506,-5.27018 -6.3765,-0.83829 -6.507,-0.79019 -6.8849,2.64539 -0.6322,5.83362 -6.9949,9.03558 -17.6177,8.88442 -5.0022,-0.0756 -9.3585,-0.32982 -9.812,-0.57031 -0.4398,-0.23362 0.069,-2.68662 1.0994,-5.31141 2.9408,-7.47582 1.7109,-9.03558 -6.7887,-8.60957 -6.3765,0.31608 -7.2972,0.68712 -7.6545,3.10577 -0.5016,3.34626 -0.096,3.31877 -5.8405,0.37791 -2.6248,-1.34674 -7.0155,-2.5011 -9.5028,-2.5011 -3.0027,0 -4.8648,-0.65963 -5.3114,-1.87583 -0.4879,-1.32613 -2.4393,-1.8346 -6.6925,-1.74527 -3.2776,0.0618 -9.9357,0.0618 -14.6837,0 -7.0017,-0.10307 -9.1936,0.3573 -11.31,2.37055 -1.7109,1.62846 -4.3769,2.5011 -7.6269,2.5011 -4.6243,0 -4.9954,0.25424 -4.9404,3.43558 0.055,2.71411 -0.9345,3.93031 -4.6861,5.77178 -6.5826,3.22258 -8.3554,1.53914 -7.8538,-7.45521 0.3711,-6.6238 -0.5085,-7.97055 -3.7723,-5.79239 -0.7352,0.48785 -1.7796,2.22626 -2.2468,3.73104 -0.8452,2.6935 -1.0032,2.72785 -3.999,0.74896 -2.8791,-1.90332 -3.3257,-1.8827 -5.5657,0.18552 -1.3742,1.27116 -2.4392,3.00957 -2.4392,3.99901 0,1.00319 -0.9345,1.58724 -2.1851,1.37424 -1.5666,-0.26798 -2.1919,-1.6216 -2.1919,-4.74798 0,-3.37374 -0.5634,-4.45251 -2.4942,-4.69987 -4.3975,-0.56344 -5.6893,1.20245 -4.3632,5.95043 1.5391,5.49693 0.1237,6.87803 -4.5143,4.41815 -2.8997,-1.53227 -3.6212,-2.73472 -3.6212,-5.98478 0,-3.49742 -0.5015,-4.11583 -3.6279,-4.48 -5.9985,-0.70773 -9.1593,0.77644 -12.0727,5.66871 -3.2775,5.5038 -8.6439,11.62601 -10.1761,11.62601 -0.6116,0 -3.2501,-1.43607 -5.7512,-3.12638 -3.2226,-2.17816 -6.3146,-3.12638 -10.1899,-3.12638 -4.5007,0 -6.0742,-0.63215 -8.2454,-3.3119 -2.1301,-2.62478 -3.3738,-3.14012 -5.9986,-2.49423 -2.879,0.70086 -3.2157,1.22994 -2.5629,3.99902 0.7215,3.09889 0.5566,3.18821 -5.9367,3.18821 -3.628,0 -8.9256,0.0687 -11.5642,0.15804 -4.5006,0.1443 -7.2284,-1.62846 -8.5133,-5.53816 -0.1924,-0.60466 -2.8035,-1.40858 -5.6756,-1.74527 -5.1259,-0.60466 -5.3183,-0.5016 -5.3595,2.87214 -0.048,3.82724 -3.4562,6.96736 -9.0768,8.37595 -2.4324,0.60466 -4.0746,2.25374 -5.3801,5.37325 -1.0376,2.5011 -2.3019,3.99902 -2.8447,3.37374 -2.3912,-2.75533 -4.1777,-11.99705 -3.6692,-18.99876 0.5566,-7.75067 -0.5222,-9.82576 -3.9853,-7.68883 -2.1438,1.333 -10.4991,0.52908 -15.2471,-1.46356 -3.0645,-1.29178 -4.1227,-1.03068 -8.4996,2.02699 -4.1227,2.89276 -5.3252,3.22945 -6.8781,1.93767 -1.2505,-1.03755 -1.8758,-1.09939 -1.8758,-0.18552 0,0.74896 0.5703,1.37423 1.2574,1.37423 2.4187,0 1.2437,2.10945 -2.0063,3.58675 -4.1227,1.87583 -6.404,-0.52221 -3.5318,-3.71043 1.7384,-1.93767 1.5323,-2.19877 -2.3431,-2.92024 -7.8743,-1.47043 -11.6397,2.19877 -10.1693,9.92195 0.9207,4.87166 0.9207,4.87166 -3.9509,3.0508 -2.879,-1.0719 -3.8066,-0.90012 -5.1946,0.94822 -1.4017,1.87583 -1.869,1.94454 -2.8103,0.43288 -0.694,-1.12 -0.6597,-2.37742 0.1099,-3.3119 1.6147,-1.96515 -1.9857,-5.49693 -5.6069,-5.49693 -1.6284,0 -3.8615,1.08565 -5.1533,2.50111 -3.7448,4.12269 -6.5139,4.26699 -9.7914,0.49472 l -2.9271,-3.37374 2.4942,-2.49423 c 3.0577,-3.05767 0.8795,-4.48687 -3.3738,-2.21939 -1.9788,1.05129 -2.7484,2.59043 -2.7484,5.46258 0,5.87484 -1.3055,8.37594 -4.3769,8.37594 -1.498,0 -5.2496,1.45669 -8.2523,3.20197 -6.1222,3.55926 -9.8464,3.2638 -8.7882,-0.70086 0.8589,-3.25006 -1.9652,-14.09276 -3.8341,-14.70429 -2.1164,-0.70086 -7.7507,5.4557 -7.7507,8.4584 0,1.49791 0.8314,2.91337 1.9377,3.3119 1.5254,0.53595 1.1268,1.28491 -1.8759,3.49742 -2.9477,2.17816 -4.8716,2.6454 -8.4996,2.06135 -4.6861,-0.74896 -4.6861,-0.74896 -5.3526,-7.62699 -0.7627,-7.99803 -1.7865,-9.99754 -5.0847,-9.99754 -3.415,0 -3.999,2.25374 -2.4118,9.37227 1.4705,6.63067 1.5529,6.33521 -2.2125,7.49643 -2.2537,0.68712 -3.0233,0.30921 -3.5661,-1.74527 -0.6184,-2.37055 -0.9345,-2.44614 -3.3119,-0.77644 -3.8685,2.72785 -6.0879,2.41177 -5.8268,-0.84516 0.4192,-5.28392 -0.048,-5.82674 -5.6687,-6.6719 -4.5006,-0.68024 -6.1978,-0.34355 -9.3173,1.85522 -2.1232,1.49791 -4.1433,4.01963 -4.5624,5.68932 -0.9826,3.87534 -6.026,4.25325 -8.3004,0.62528 -0.8658,-1.37424 -2.0201,-2.50111 -2.5698,-2.50111 -1.7522,0 -10.8221,8.16294 -10.8358,9.75018 -0.021,2.06822 -1.9102,1.87583 -3.7792,-0.37104 -1.8621,-2.25374 -6.0328,-2.43239 -5.7992,-0.25423 0.096,0.87951 -0.3573,1.63533 -1.0857,1.81398 -0.6871,0.17178 -1.2505,-0.81079 -1.2505,-2.18503 0,-3.6211 -6.3765,-6.64441 -12.1276,-5.75803 -5.1259,0.79706 -5.7374,0 -2.9134,-3.74478 0.9414,-1.25055 1.8209,-3.44246 1.8552,-4.6243 0.048,-1.92392 -1.065,-2.24687 -7.8125,-2.24687 -16.374,0 -16.374,0 -19.1156,3.49743 -2.5354,3.25006 -2.7622,3.29815 -5.9504,1.25055 -1.8758,-1.20246 -3.3119,-2.6935 -3.3119,-3.43558 0,-0.72148 -1.5598,-1.14749 -3.4356,-0.94135 -1.8758,0.20613 -3.4424,0.94135 -3.4424,1.62846 0,0.68712 -1.2575,2.87215 -2.8103,4.87166 l -2.8103,3.62797 -3.0646,-2.81718 c -1.8758,-1.71779 -3.6692,-2.41864 -4.6243,-1.80711 -0.8795,0.56343 -3.4974,1.29865 -5.9985,1.68343 -4.2189,0.65276 -4.4388,0.94135 -4.4388,5.68933 0,4.37693 -0.3779,5.05717 -3.0027,5.43509 -2.7072,0.39852 -2.9202,0.0687 -2.2125,-3.43559 0.8933,-4.37006 -0.8314,-5.19459 -2.879,-1.37423 -1.0444,1.94454 -2.4049,2.53546 -5.2771,2.26749 -5.1327,-0.46724 -5.5725,-2.34994 -1.649,-7.01546 2.7278,-3.25006 2.8721,-3.85472 1.0856,-4.50061 -1.1475,-0.41914 -3.8822,-0.41914 -6.1291,0 -3.6073,0.6665 -4.4387,0.24736 -7.4827,-3.75166 -3.3256,-4.37693 -8.0804,-5.99165 -8.0804,-2.74846 0,0.90699 -1.3743,2.33619 -3.1196,3.25006 -1.7521,0.90699 -3.1263,2.08883 -3.1263,2.68662 0,0.57718 -1.6903,1.05816 -3.6898,1.05816 -1.9996,0 -4.0884,0.63215 -4.5625,1.3811 -0.5566,0.87264 -3.0027,1.09939 -6.747503,0.61841 -4.2532,-0.53595 -6.2734,-0.28172 -7.3178,0.94135 -0.8039,0.94822 -4.1845,2.06822 -7.6819,2.55607 -6.0054,0.83141 -8.2454,3.12638 -5.0022,5.11215 0.7077,0.43288 1.2505,1.8346 1.2505,3.20883 0,1.75215 -0.8795,2.43926 -3.1264,2.43926 -1.7521,0 -3.1263,0.54282 -3.1263,1.24368 0,2.02699 -3.5593,1.38111 -4.8099,-0.87264 -0.7489,-1.333 -2.7484,-2.15067 -5.3732,-2.18503 -3.2501,-0.0481 -4.1571,-0.54282 -4.0402,-2.1919 0.1992,-2.83092 -1.1475,-2.78282 -10.5267,0.38479 -4.2463,1.43607 -8.6233,2.28122 -9.6883,1.86895 -1.6766,-0.65276 -1.5941,-1.18871 0.6253,-4.06085 1.8689,-2.41865 2.5629,-5.12589 2.5629,-10.00441 l 0,-6.68565 -5.2496,0.70773 c -7.1254,0.96884 -11.8802,2.85154 -12.7322,5.04344 -0.8727,2.25374 -8.3897,2.24 -11.5161,-0.0275 -1.9926,-1.44982 -2.8721,-1.46356 -5.4969004,-0.10994 -3.5043,1.81399 -14.4088,2.8584 -15.7556,1.51165 -0.481,-0.48785 -5.9366996,-0.8795 -12.1825996,-0.8795 l -11.3167,0 3.0027,2.81717 c 2.6247,2.45988 2.7278,2.86528 0.8108,3.25006 -1.2162,0.24049 -3.1883,-0.47411 -4.4388,-1.60098 -2.3637,-2.1438 -5.497,-2.42552 -12.8697,-1.14061 -3.5043,0.60466 -5.0091,1.65595 -6.1909,4.30135 -0.8383,1.87582 -2.4599,3.79288 -3.4974,4.12956 -1.0788,0.34356 -3.4356,1.84148 -5.3183,3.37375 -4.6243,3.76539 -23.7949,7.44834 -25.389,4.87165 -1.5941,-2.55607 2.0201,-5.03656 7.3934,-5.08466 2.8721,-0.0206 6.1978,-0.83141 7.5583,-1.84834 1.3811,-1.03068 3.6898,-1.81399 5.3183,-1.81399 3.3737,0 4.5555,-1.75215 3.4699,-5.12589 -0.7558,-2.34993 -1.4704,-2.54233 -6.72,-1.81398 -5.0022,0.69398 -6.2253,0.43288 -8.1904,-1.75215 -1.2918,-1.43607 -3.6898,-2.56294 -5.4351,-2.56294 -3.999,0 -10.2518,5.79239 -10.2518,9.50281 0,5.87485 -15.363897,12.16883 -20.874597,8.5546 -1.5048,-0.98258 -2.9202,-3.36687 -3.1264,-5.2427 -0.316,-2.87214 -0.8795,-3.38748 -3.4355,-3.1195 -1.6285,0.15803 -4.0334,1.18871 -5.1259,2.18503 -1.1269,1.0238 -2.8035,1.87582 -3.6898,1.87582 -0.8864,0 -3.4975,1.42233 -5.7443,3.12638 -4.0059,3.03706 -13.0071,4.41816 -13.0071,1.99951 0,-2.29497 -4.9954,-2.67975 -8.8707,-0.68712 -3.8754,1.99264 -4.0609,1.9789 -5.9848,-0.56343 -2.9271,-3.87534 -9.11803,-4.09521 -10.76024,-0.37792 -1.54601,3.49743 -6.32147,3.64859 -8.11484,0.24737 -1.60785,-3.04393 -0.63902,-4.99534 2.48049,-4.99534 1.45669,0 2.73472,-1.37423 3.61423,-3.87533 1.71092,-4.87853 1.17497,-5.77178 -3.48368,-5.90233 -2.13006,-0.055 -4.8373,-0.68025 -6.25276,-1.43608 -3.99901,-2.1438 -4.72736,1.20933 -0.87263,4.01963 4.37006,3.18822 4.44564,7.19411 0.12368,7.19411 -2.24687,0 -3.4562,0.87264 -4.30822,3.12638 -1.93767,5.0984 -6.43828,6.40392 -13.19263,3.82037 -5.11215,-1.95828 -6.87804,-2.03387 -15.87239,-0.70086 -9.37914,1.38797 -10.36858,1.31926 -13.37815,-0.92074 -6.87117,-5.11901 -10.67092,-6.4795 -13.7492,-4.91975 -2.99583,1.51853 -4.28073,3.2157 -5.64809,7.46895 -0.58405,1.80025 -1.78651,2.17129 -6.03976,1.87583 l -5.3114,-0.37791 -0.64589,-8.2454 c -0.57718,-7.37963 -2.56982,-12.46429 -4.85792,-12.40245 -0.41227,0.0137 -1.55975,0.52908 -2.55607,1.14749 -1.3811,0.85202 -1.49104,1.51852 -0.46037,2.74846 1.30552,1.56663 2.13006,7.37963 1.81399,12.75288 -0.17178,2.92024 -4.66552,2.76221 -10.7946,-0.37791 -2.62478,-1.34675 -6.25962,-2.49424 -7.87435,-2.49424 -2.12319,0 -2.78282,-0.54969 -2.25374,-1.87582 0.4054,-1.00319 1.10626,-2.74847 1.50479,-3.75166 0.55656,-1.38797 0,-1.86895 -2.13006,-1.84147 -5.49693,0.0687 -6.57571,1.60098 -4.73424,6.71313 2.12319,5.88171 0.86577,7.03607 -6.63754,6.11533 -4.74797,-0.58405 -5.99852,-1.22994 -5.99852,-3.11264 0,-2.85153 -2.75534,-2.96147 -6.87804,-0.28171 -1.87582,1.21619 -3.99901,1.65595 -5.31141,1.09251 -1.20932,-0.51534 -5.813,-1.13374 -10.31361,-1.37423 -4.52123,-0.24049 -11.81153,-0.60466 -16.43582,-0.8108 -4.62429,-0.213 -9.11803,-1.04441 -10.12122,-1.87583 -1.01694,-0.83828 -5.18773,-1.86208 -9.44098,-2.30871 -7.37276,-0.79018 -7.66822,-0.70773 -8.93938,2.49424 -1.03755,2.62478 -1.89644,3.17447 -4.1227,2.62478 -1.49791,-0.36417 -3.92343,0.12368 -5.18773,1.04442 -2.86527,2.0957 -8.25227,0.14429 -8.25227,-2.98209 0,-2.47362 -3.87533,-6.1222 -6.50011,-6.1222 -1.12,0 -2.70724,0.87263 -3.62111,1.99951 -1.33987,1.64907 -1.25055,2.20564 0.49473,3.1676 3.91656,2.15067 2.25374,2.9546 -6.12221,2.9546 -7.24908,0 -8.61644,-0.37104 -10.18306,-2.8103 -0.96884,-1.49792 -2.9546,-2.81031 -4.25325,-2.81031 -1.37423,0 -3.41497,-0.52908 -4.68613,-1.20245 -3.12638,-1.67657 -15.82429,-0.24049 -14.00343,1.57349 0.74208,0.74209 1.37423,2.13006 1.37423,3.0027 0,1.87583 -4.49374,2.17816 -5.60687,0.37791 -0.47411,-0.77644 -3.14012,-0.94822 -7.01546,-0.43975 -5.62748,0.72834 -6.32147,0.54282 -6.93987,-1.87583 -0.37791,-1.49791 -1.73153,-2.68662 -3.05767,-2.68662 -2.75533,0 -3.20196,2.42552 -0.87951,4.74797 1.2643,1.2643 1.12687,1.99951 -0.62527,3.29816 -3.11951,2.31558 -10.4854,0.0687 -8.32785,-2.5492 2.39803,-2.9065 0.32981,-5.9092 -3.42184,-4.94724 -1.7384,0.43976 -4.87166,0.15804 -6.74748,-0.61153 -2.9065,-1.19558 -4.62429,-1.01693 -10.1281,1.05129 -13.37128,5.02969 -19.65152,6.39018 -19.72023,4.26012 -0.0137,-0.46724 -1.05129,-2.18503 -2.21252,-3.68982 -1.91018,-2.44613 -3.68981,-2.9065 -13.81103,-3.55926 -10.62969,-0.68712 -11.59853,-0.55656 -11.22748,1.49791 0.89325,5.00221 -14.13398,9.53718 -16.95803,5.12589 -1.12,-1.75215 -1.02381,-2.50797 0.43288,-3.40122 1.72466,-1.05816 0.87264,-1.73841 -1.62846,-1.29865 -0.58405,0.10306 -1.80712,-0.33669 -2.55608,-0.92761 -0.79018,-0.61153 -4.44564,-1.46356 -8.06674,-1.86896 -3.62798,-0.41227 -8.49276,-1.90331 -10.7465,-3.29815 -5.5038,-3.39436 -8.0049,-3.24319 -8.98061,0.54282 -0.4535,1.75214 -1.42233,2.74159 -2.33619,2.37742 -0.8589,-0.34356 -3.18822,0.0206 -5.18773,0.8108 -1.99951,0.79018 -2.89276,1.71779 -1.99951,2.06135 2.12319,0.81079 1.99951,3.42871 -0.24736,5.22895 -1.33301,1.05816 -2.62479,0.94135 -5.38012,-0.50159 -7.62012,-3.99902 -15.50134,-6.96736 -16.62134,-6.25963 -0.79019,0.49472 -0.78332,1.66282 0.0206,3.16073 1.99951,3.73791 0.10307,3.00957 -8.1492,-3.15386 -4.1227,-3.07828 -8.27975,-5.6 -9.24858,-5.6 -2.12319,0 -12.31313,7.27656 -13.11705,9.37914 -0.4054,1.04441 -2.75534,1.55288 -6.63068,1.43607 -5.0022,-0.15804 -6.06036,-0.62528 -6.37643,-2.81031 -0.3573,-2.53545 -1.12687,-2.63165 -22.12515,-2.74846 -13.12392,-0.0756 -22.04956,0.34356 -22.49618,1.05816 -0.43976,0.69399 -3.25006,0.87951 -6.75436,0.43975 -5.12588,-0.63902 -6.73374,-0.28859 -11.06257,2.43927 -4.52122,2.84466 -6.6238,3.24318 -19.62404,3.74478 l -14.55999,0.56343 -1.24368,-3.25006 c -1.90331,-4.99533 -7.3865,-7.50331 -7.3865,-3.37374 0,1.17497 -1.12,1.87583 -2.99583,1.87583 -1.62846,0 -3.68981,0.8589 -4.50061,1.87583 -0.80393,1.00319 -3.12638,1.87583 -5.00221,1.87583 -1.9995,0 -3.80662,0.79705 -4.21202,1.86895 -1.03754,2.72098 -3.28441,2.37742 -3.28441,-0.49472 0,-1.54601 -1.87583,-3.29816 -5.38012,-5.01595 -6.49325,-3.18135 -8.13546,-3.2638 -11.11755,-0.54282 -1.86895,1.70405 -2.81717,1.80024 -5.56564,0.55656 -2.24687,-1.01693 -3.71042,-1.09939 -4.56245,-0.24736 -1.62846,1.62159 -5.87484,1.71092 -5.87484,0.12368 0,-0.6665 -0.87951,-1.25055 -1.87583,-1.25055 -1.00319,0 -1.87583,0.87264 -1.87583,1.87583 0,3.03018 -3.37374,2.1438 -8.24539,-2.16442 l -4.63117,-4.08834 -1.80711,2.81717 c -0.96884,1.49792 -2.68663,2.81031 -3.68982,2.81031 -1.50478,0 -1.71092,-1.00319 -1.04441,-5.00221 1.00319,-5.99852 -1.04442,-7.45521 -6.95362,-4.96098 -3.14699,1.33301 -3.68981,2.21252 -3.38061,5.46258 0.34356,3.49742 0.0756,3.83411 -2.74847,3.43558 -1.70404,-0.24049 -6.24588,-0.54969 -9.99754,-0.68712 -6.37644,-0.23362 -6.87803,-0.47411 -6.87803,-3.3119 0,-2.12319 0.76957,-3.19509 2.5011,-3.49742 1.37423,-0.24049 3.06454,-1.03067 3.75166,-1.75214 0.86576,-0.907 -1.25055,-1.06504 -6.87804,-0.51534 -9.61962,0.94135 -10.73962,1.82773 -8.94625,7.0773 0.72834,2.12318 1.12687,4.55558 0.88638,5.37324 -0.24049,0.81767 -0.77644,3.06454 -1.18871,4.94037 -0.49473,2.24687 -1.59411,3.43558 -3.18822,3.43558 -1.37423,0 -2.76221,0.51534 -3.18822,1.18871 -0.4054,0.64589 -3.99902,1.04442 -7.87435,0.87264 l -7.1254,-0.3092 0.19239,-4.31509 c 0.10307,-2.36368 0.57718,-7.18724 1.05816,-10.68466 0.68712,-5.00221 0.41914,-7.09104 -1.25055,-9.68834 -1.6903,-2.63853 -1.95828,-4.68613 -1.31239,-10.05938 0.70773,-5.87484 0.50159,-6.97423 -1.62159,-8.43779 -1.33988,-0.93448 -3.72417,-3.94405 -5.29767,-6.69251 -3.99901,-7.00172 -9.87385,-12.99338 -14.76612,-15.06847 -2.37742,-1.01006 -4.91288,-2.74159 -5.75116,-3.9303 -1.16123,-1.64908 -4.06086,-2.20565 -12.9384,-2.50111 -10.49914,-0.34355 -12.05889,-0.74208 -19.06061,-4.89913 -8.12171,-4.81669 -11.12441,-4.81669 -11.12441,0.0275 0,3.56613 -5.24957,8.25227 -9.24858,8.25227 -1.50479,0 -3.77227,-0.75583 -5.00221,-1.65595 -3.58675,-2.63166 -9.49599,0.65276 -9.49599,5.27705 0,1.87583 -0.8657,4.59681 -1.9376,6.1222 -1.443,2.04074 -2.0339,6.6238 -2.3156,17.75509 -0.2061,8.24539 -0.9963,15.72809 -1.7522,16.62134 -0.7764,0.92074 -1.2368,5.56564 -1.0581,10.69153 0.1855,5.49693 -0.268,9.89447 -1.1544,11.18625 -1.8621,2.70037 -2.8584,7.75067 -4.3563,22.12515 -0.6527,6.24588 -2.0613,13.2476 -3.1607,15.7487 -2.0545,4.66552 -2.9203,11.99705 -3.8891,32.99532 -0.5909,12.85595 0.3023,20.25619 4.1502,34.37643 1.3124,4.80981 2.2469,12.87656 2.2812,19.75459 0.055,9.87386 0.4054,11.8184 2.3156,12.9384 1.3948,0.8108 2.1026,2.37055 1.8689,4.122701 -0.1923,1.49791 0.3573,3.68981 1.1956,4.68613 0.8658,1.04442 1.8896,3.55926 2.3087,5.68932 0.6116,3.11951 0.2749,3.96466 -1.8758,4.64491 -2.8721,0.92073 -3.5661,4.41816 -0.8726,4.41816 1.0856,0 1.436,1.25055 1.065,3.75165 -0.3229,2.12319 -1.1063,3.74478 -1.8209,3.74478 -0.7489,0 -0.9276,2.37743 -0.4535,5.99853 1.3399,10.12809 3.2913,35.69569 3.1814,41.75605 -0.069,3.99902 0.4741,5.9573 1.7796,6.43828 1.4636,0.53595 1.6148,1.55976 0.7078,4.68614 -1.1956,4.1226903 -0.6047,6.6375403 1.2917,5.4763103 1.6766,-1.03067 2.3706,0.76957 4.36323,11.39926 2.26748,12.1207297 2.26061,39.0419497 -0.007,41.7491797 -3.21573,3.83411 -3.41493,7.49644 -0.66653,12.12073 1.86211,3.12638 2.30187,4.8854 1.4361,5.75117 -1.5804,1.58036 -1.814,14.87606 -0.29546,16.49766 0.63215,0.68024 1.56662,3.68981 2.04074,6.56883 0.70085,4.24638 0.47411,5.46257 -1.12688,6.07411 -2.6523,1.00319 -2.4942,5.03656 0.25424,6.56196 1.95141,1.078769 1.95141,1.360489 0,3.483679 -1.63534,1.77963 -2.17134,5.06404 -2.31554,14.18895 -0.1031,6.50012 0.158,14.42257 0.56339,17.50085 0.93448,7.02233 0.94822,7.99803 0.15117,15.37766 -0.52906,4.87165 -0.15804,6.51386 1.97202,8.74699 2.43239,2.5492 2.56982,3.62797 1.82086,14.62871 -1.71779,25.24465 -2.07509,44.63507 -0.91387,49.74721 1.07878,4.74797 0.92761,5.64123 -1.27803,7.68883 -2.18504,2.02012 -2.39804,3.3119 -1.69718,10.18307 1.03067,10.08686 0.98945,14.12711 -0.92766,102.12608 -0.4534,20.8746 -0.2954,23.13521 1.84152,25.8768 2.82405,3.62798 2.85154,4.37693 0.15804,4.37693 -1.64906,0 -1.88266,0.87264 -1.31239,4.99534 0.51534,3.75165 0.19926,5.28392 -1.25057,6.12907 -1.4292,0.82454 -1.8896,2.81031 -1.7521,7.56515 0.103,3.49743 -0.3848,8.57521 -1.0582,11.11754 -0.7146,2.68663 -1.5185,31.12637 -1.8758,66.49912 -0.3436,34.00538 -1.1612,64.34843 -1.8071,67.44046 -2.1645,10.27925 -3.951,60.87855 -2.5767,72.87555 0.8451,7.3796 0.8451,12.5467 0.01,15.6869 -0.6871,2.5766 -1.0513,9.9975 -0.8108,16.5045 0.2405,6.5001 -0.076,16.2503 -0.694,21.6854 -1.4361,12.4986 0.5359,22.9016 4.6312,24.4613 3.1263,1.1887 4.3769,3.6623 4.3769,8.6645 0,4.9679 2.1232,6.3765 9.61962,6.3765 6.12908,0 6.81619,0.3023 9.13178,4.0608 1.3811,2.2469 2.49423,5.1191 2.49423,6.4383 0,2.5973 10.75337,13.2476 13.37815,13.2476 0.87264,0 2.68663,1.0651 3.93718,2.3156 1.26429,1.2643 5.49693,3.9166 9.37226,5.8748 3.87534,1.9515 7.06356,4.2945 7.06356,5.1809 0,0.8795 0.60466,1.6285 1.31239,1.6285 0.72147,0 3.68981,1.0444 6.56196,2.3087 2.87215,1.2711 6.23902,2.6522 7.4346,3.0645 1.25055,0.4329 2.1919,1.5804 2.1919,2.6866 0,1.0582 1.55975,2.2538 3.43558,2.6317 1.91705,0.3779 5.12589,1.2093 7.24908,1.869 2.07509,0.6458 6.12907,1.1887 8.87754,1.1887 2.83779,0 7.31091,0.797 10.18306,1.814 3.25693,1.1474 10.38233,1.8346 19.50036,1.8758 7.87435,0.034 15.67999,0.5978 17.25349,1.2505 1.60098,0.6597 6.06036,1.5186 10.05938,1.9377 4.00589,0.4191 7.49644,1.278 7.87435,1.9377 0.38479,0.6527 4.31509,1.1818 8.8157,1.1818 4.50062,0 9.63337,0.7833 11.50233,1.7522 1.93767,1.0031 9.75018,2.1231 18.37349,2.6247 8.25227,0.481 15.56318,1.2368 16.2503,1.6903 0.68024,0.4398 3.25006,0.9139 5.62748,1.0307 9.1249,0.4673 24.49569,2.5904 28.12367,3.8822 7.75067,2.7691 14.21643,4.267 15.37079,3.573 0.62528,-0.371 6.12908,0.1649 12.25128,1.1956 6.12908,1.0376 15.89987,1.7934 21.74723,1.6903 6.12908,-0.1031 13.54306,0.6322 17.50085,1.7453 8.95313,2.508 26.75631,4.48 46.50403,5.1534 8.74699,0.2954 16.71067,0.9963 17.56269,1.5391 0.85203,0.5497 5.813,1.1475 10.93889,1.333 15.24711,0.5428 26.84563,1.7247 28.24735,2.8859 0.68712,0.5634 7.68883,0.9482 15.56318,0.8452 7.87436,-0.1031 15.43951,0.4053 16.81374,1.1268 1.37423,0.7215 8.12171,1.2574 14.99975,1.1819 6.87116,-0.062 14.47066,0.3023 16.87557,0.8176 2.39117,0.5154 10.87018,1.2437 18.7514,1.6216 7.87436,0.3779 16.06478,1.1681 18.11926,1.7522 2.05448,0.5771 9.1249,0.9482 15.62502,0.8108 6.52074,-0.1375 26.25472,0.2336 43.74869,0.8108 17.50086,0.584 37.51655,0.9551 44.38084,0.8176 6.87117,-0.1443 14.04466,-0.1443 15.93423,0 1.89644,0.1375 6.37644,0.2474 10.00441,0.2474 3.57301,0 9.68147,0.1168 13.43312,0.2474 3.78602,0.1374 28.24735,0.1992 54.37838,0.1305 55.12047,-0.1443 116.2051,-2.3568 144.99524,-5.2496 4.8786,-0.4878 10.8565,-0.3779 13.5019,0.2474 3.1264,0.7421 5.7992,0.6321 7.8125,-0.3161 2.3156,-1.0787 4.4388,-1.065 8.692,0.069 4.425,1.175 7.682,1.1681 15.308997,-0.069 5.3045,-0.852 15.0615,-2.3774 21.5617,-3.3737 6.5001,-0.9895 13.7148,-2.1507 15.9342,-2.563 3.628,-0.6665 4.0677,-0.4535 4.0677,1.9996 0,2.2743 0.5016,2.5904 2.8722,1.8139 5.1259,-1.6834 14.8417,-2.0957 16.2503,-0.6871 1.9239,1.9239 11.2481,1.7522 13.2544,-0.2473 1.0651,-1.0788 6.3696,-1.4636 18.6208996,-1.3743 9.3791,0.062 18.2566004,0.2611 19.6240004,0.4329 4.8785,0.5978 28.7489,-0.1993 29.9995,-1.0032 0.6871,-0.4397 4.3769,-0.9138 8.1286,-1.0375 28.8726,-0.9551 40.0932,-1.6354 44.8755,-2.7279 3.827303,-0.8795 7.558303,-0.8726 11.681003,0.021 5.0022,1.0857 6.5895,0.9689 9.0699,-0.6596 4.1227,-2.7072 5.6138,-2.5423 5.2771,0.5978 -0.158,1.4979 0.6321,3.2157 1.8415,3.999 1.6697,1.0788 2.7553,0.8039 5.0022,-1.2505 2.5629,-2.3362 3.7516,-2.5149 10.877,-1.6216 4.377,0.5428 8.6233,0.797 9.3723,0.5634 0.7558,-0.2405 6.562,-0.749 12.9384,-1.1269 6.3764,-0.3779 14.3951,-1.3055 17.8788,-2.0613 3.4974,-0.7627 7.2009,-1.0444 8.3072,-0.6253 1.1269,0.4192 2.7966,0.089 3.8135,-0.7489 1.491,-1.2369 2.0888,-1.1269 3.3669,0.6252 2.0476,2.7966 15.6937,3.0096 19.8233,0.3024 2.2606,-1.4911 7.3727,-1.7178 28.9963,-1.3056 14.505,0.2749 28.213,0.8658 30.6316,1.3124 8.0942,1.5117 50.9978,0.7352 104.373,-1.8758 7.0154,-0.3436 36.2453,-1.1475 58.6247,-1.601 12.2513,-0.2542 22.613,-0.9963 23.0596,-1.6491 0.4673,-0.6733 16.9375,-1.3192 38.3136,-1.4979 20.6273,-0.1717 45.6521,-0.9482 55.629,-1.7178 25.492,-1.972 39.839,-1.6422 42.7455,0.9895 1.9789,1.7934 2.8103,1.8415 6.9399,0.4123 2.5904,-0.9002 11.9352,-2.0683 20.9364,-2.6248 8.9669,-0.5497 24.372,-1.869 34.3764,-2.9409 14.2783,-1.5254 40.4986,-3.5592 57.4979,-4.4594 1.0307,-0.055 16.9993,-0.041 35.5033,0.027 25.3683,0.096 33.8542,-0.2405 34.5619,-1.3742 1.017,-1.6079 7.9362,-2.0201 48.057,-2.8584 10.3754,-0.2199 23.2176,-0.7833 28.7558,-1.2643 5.4969,-0.4879 16.745,-1.12 24.9973,-1.4086 20.8746,-0.7421 29.0925,-1.2987 35.1253,-2.3912 4.377,-0.797 5.6688,-0.5359 7.7507,1.546 2.027,2.027 3.4356,2.3225 7.4346,1.5598 2.7485,-0.5153 5.4626,-1.2643 6.1222,-1.6834 0.6528,-0.4123 12.6911,-1.0926 26.6876,-1.4979 14.0034,-0.4192 25.8974,-0.9964 26.3784,-1.2918 1.60102,-0.9895 51.62312,-1.3193 56.74892,-0.3779 2.7622,0.5016 15.4395,1.0031 28.3161,1.1062 16.1197,0.1306 24.2552,0.6665 26.3715,1.7453 1.7865,0.9139 7.4415,1.5666 13.5637,1.5666 5.7512,0 12.478,0.3917 14.8761,0.8658 9.2485,1.8415 15.6181,3.7379 16.3946,4.8854 1.065,1.5597 24.4819,3.2226 28.6046,2.027 1.7109,-0.4948 8.4996,-1.2643 14.9998,-1.6972 12.6223,-0.8383 14.8417,-1.869 18.2085,-8.4584 1.546,-3.0164 1.5598,-4.0609 0.1031,-7.5583 -0.9345,-2.2537 -2.6385,-4.851 -3.8135,-5.8336 -2.3499,-1.9445 -2.721,-8.9806 -0.6734,-12.7323 0.8933,-1.6216 0.8864,-3.1263 -0.014,-4.7479 -1.1338,-2.0476 -0.749,-2.5836 2.7485,-3.8754 2.2193,-0.8176 7.1872,-1.7109 10.9388,-1.9583 7.2491,-0.4809 17.5146,-4.2876 21.4999,-7.9774 1.9858,-1.8414 2.3362,-3.3187 1.6903,-7.1941 -0.6871,-4.1227 -0.3435,-5.3045 2.2469,-7.6819 3.0645,-2.8172 3.0645,-2.8172 0.8726,-7.4415 -1.1887,-2.5217 -2.2125,-7.4346 -2.2468,-10.8084 -0.041,-4.3769 -0.6872,-6.6444 -2.1851,-7.7506 -1.4979,-1.0994 -2.2881,-3.8753 -2.6866,-9.3723 -0.3092,-4.3013 -1.7178,-13.756 -3.1264,-21.0051 -1.4154,-7.2766 -3.2638,-21.3144 -4.1227,-31.3119 -0.8657,-9.9975 -2.2949,-19.5004 -3.1882,-21.1838 -0.9482,-1.7796 -1.814,-8.4996 -2.0613,-16.0029 -0.2474,-7.2491 -1.1269,-14.1478 -1.9996,-15.6869 -1.0856,-1.9033 -1.6284,-10.2518 -1.7658,-27.12735 -0.3161,-37.62649 -1.5804,-71.75555 -2.934,-78.99776 -0.8314,-4.41816 -0.8246,-9.75018 0.014,-16.00294 1.3193,-9.87386 0.7558,-30.32244 -0.9001,-32.87164 -0.536,-0.82454 -1.0925,-6.87803 -1.2299,-13.37815 -0.1375,-6.50012 -0.5085,-14.98601 -0.8246,-18.7514 -1.5597,-18.74454 -0.7833,-49.0601 1.3949,-54.12415 1.1955,-2.78282 1.2505,-6.6238 0.2405,-16.62134 -0.7215,-7.19411 -1.3674,-19.5622 -1.4361,-27.69079 -0.069,-8.12171 -0.5978,-15.30208 -1.1887,-16.05791 -0.5841,-0.76269 -0.5841,-4.81668 0,-9.06306 0.5909,-4.25325 0.5909,-11.06944 0,-15.25398 -0.6871,-4.87165 -0.6116,-8.40343 0.213,-9.9357 2.1369,-3.99902 3.0714,-18.51091 1.3192,-20.62723 -2.6454,-3.18822 -3.147,-20.49668 -0.8795,-30.12318 1.2781,-5.40073 2.0133,-14.00343 1.9721,-22.99778 -0.034,-7.90183 0.075,-30.25373 0.2473,-49.6304 0.2886,-32.122689 0.1237,-35.462069 -1.8689,-37.681459 -1.924,-2.1438 -2.0133,-3.12638 -0.7559,-8.12858 0.7971,-3.11951 1.12,-7.82626 0.7215,-10.4373 -3.2913,-21.87091 -3.5661,-26.06232 -2.1301,-32.37692 0.8177,-3.6211 2.3019,-7.1872297 3.3463,-8.0529997 1.9995,-1.66282 2.3912,-11.9146 0.5016,-13.07582 -2.3018,-1.42233 -1.1887,-8.7401203 2.4393,-15.9960703 3.5523,-7.10478 3.6966,-8.05987 3.999,-26.30968 0.213,-12.75288 0.8451,-20.02257 1.9376,-22.24882 1.2025,-2.45301 1.7591,-12.49865 2.1232,-38.753361 0.4123,-28.74894 0.9276,-37.13176 2.7691,-44.43581 2.453,-9.75018 3.6967,-11.04883 8.7333,-9.09742 5.3732,2.08196 12.746,1.4773 15.5013,-1.27803 1.3742,-1.37424 3.2294,-2.21939 4.1227,-1.87583 3.4837,1.34675 7.7232,-5.49693 9.1318,-14.74552 0.7627,-5.0022 1.759,-9.86011 2.2468,-10.93889 0.5841,-1.29178 -0.4397,-3.1676 -3.0645,-5.62748 z m -109.9386,29.42919 c -4.0746,3.95779 -8.8294,26.38526 -9.544,45.00611 -0.2474,6.50012 -0.7971,13.91411 -1.2025,16.38086 -0.5222,3.1195 -0.158,5.091531 1.1818,6.438271 1.0719,1.06504 2.1095,4.37006 2.3156,7.37276 0.3161,4.62429 -0.055,5.62748 -2.5011,6.69251 -2.8721,1.25743 -3.8341,6.06037 -1.4979,7.49644 2.0064,1.24368 1.4842,6.24589 -0.9963,9.49595 -2.8103,3.68981 -4.9266,17.62453 -5.9023,38.87704 -0.6597,14.37447 -0.5154,15.99606 1.5254,17.12293 1.8758,1.04442 2.0063,1.6284703 0.8108,3.5043003 -0.804,1.24368 -2.3294,2.16441 -3.4356,2.06135 -1.1269,-0.10307 -2.0064,0.0824 -2.0064,0.43288 0,1.31239 4.3769,4.05398 6.507,4.0746 2.5973,0.0275 4.748,3.67607 4.748,8.053 0,3.6760697 -1.3743,4.7204897 -7.5033,5.6824497 -4.0815,0.64589 -4.4319,1.06503 -5.2153,6.3146 -1.1062,7.37963 -1.223,30.68661 -0.158,31.75164 1.2506,1.25055 1.4773,14.50503 0.2474,14.50503 -1.4979,0 -1.4979,4.60367 0,5.53128 1.4567,0.89325 3.6967,-3.16073 2.9202,-5.28392 -0.3161,-0.87264 0.027,-1.49792 0.8314,-1.49792 0.7558,0 1.3743,2.24687 1.3743,4.99534 0,4.12957 -0.5016,5.12589 -2.8722,5.68932 -2.8584,0.68712 -2.879,0.8108 -3.1882,24.06281 -0.1718,12.876559 -0.6184,24.578149 -1.0032,26.062319 -0.371,1.45669 -0.055,5.75117 0.6871,9.37227 0.7558,3.65546 1.6079,12.18944 1.8827,18.81324 0.268,6.6238 0.7833,12.5811 1.12,13.13079 0.3436,0.5497 0.9895,5.87485 1.4361,11.87337 0.6459,8.62331 0.426,11.46797 -1.0513,13.7492 -2.5355,3.90969 -3.0027,23.12146 -0.6596,27.37471 0.8932,1.62846 1.4498,3.573 1.2093,4.25325 -2.9134,8.24539 -1.601,25.62256 1.9445,25.62256 3.1195,0 3.2432,2.67289 0.2474,5.45571 -2.8515,2.65227 -3.0165,3.60736 -3.3119,19.10183 l -0.3161,16.31901 4.1296,1.18184 c 2.8721,0.83141 4.1227,1.95141 4.1227,3.68981 0,4.11583 -5.6275,3.71043 -10.6228,-0.76957 -4.8786,-4.37006 -6.2528,-4.67239 -6.2528,-1.35362 0,4.6243 2.7553,8.87068 5.7512,8.87068 4.3013,0 8.4103,6.00539 7.2903,10.62968 -0.5222,2.12319 -1.0238,5.12589 -1.1681,6.93301 -0.1306,1.71779 -1.7522,4.68613 -3.4974,6.43828 -3.0989,3.09889 -3.1608,3.43558 -1.3124,7.18723 1.4017,2.85153 1.7109,5.56564 1.12,9.81202 -0.4398,3.22945 -0.749,9.87386 -0.6872,14.75239 0.096,6.50012 -0.371,9.27607 -1.7452,10.37545 -1.5048,1.20246 -2.137,1.00319 -3.1882,-1.00319 -0.7215,-1.37423 -1.3124,-3.6211 -1.3124,-4.99533 0,-1.38111 -0.591,-2.86528 -1.3124,-3.31877 -0.8727,-0.53595 -1.1887,2.25374 -0.9414,8.38281 0.3504,8.49963 0.5841,9.16614 3.1264,8.90503 5.9229,-0.58405 6.4039,3.65546 2.6248,23.15582 -1.065,5.49693 -1.3124,9.43411 -0.6253,10.12122 1.4773,1.47043 0,3.87534 -2.3705,3.87534 -1.1132,0 -1.7522,1.37423 -1.7522,3.75165 0,2.74847 0.5978,3.75166 2.2469,3.75166 3.5249,0 3.8753,0.99632 1.814,5.12588 -1.0994,2.20565 -1.4979,5.05718 -0.9964,7.31092 0.6322,2.87215 0.2474,3.99215 -1.7521,5.06405 -2.2537,1.20932 -2.5629,2.55607 -2.5629,11.30993 0,9.37227 0.1786,10.01816 3.1263,11.37177 1.7522,0.8108 3.1264,1.85522 3.1264,2.37743 0,0.52908 0.323,1.81398 0.749,2.94085 0.5084,1.35362 -0.2543,2.37743 -2.3775,3.18135 -3.0439,1.16123 -3.1401,1.56663 -3.6692,16.56638 -0.5977,16.87557 0.2955,20.12563 6.1704,22.33127 2.5973,0.96884 3.0645,1.85522 2.7484,5.22896 -0.1992,2.20564 0.2542,6.06724 1.0032,8.43779 0.7558,2.41865 1.7109,8.63018 2.1232,13.87974 0.6596,8.36911 0.4535,9.76391 -1.7453,11.73591 -3.2157,2.8791 -3.1607,3.5112 0.639,7.6339 2.3981,2.6042 3.1058,4.7548 3.1058,9.3791 0,3.2501 -0.5703,6.3421 -1.2505,6.7475 -0.7421,0.4466 -0.4673,1.9377 0.6871,3.6898 1.3124,1.9858 1.8827,5.497 1.7521,10.8771 -0.1031,4.37 0.4604,10.7396 1.2506,14.1821 0.7901,3.4287 2.1987,13.8728 3.1263,23.1283 0.9208,9.2486 2.2881,18.5659 3.0234,20.6272 1.6903,4.748 4.315,30.2125 3.2912,31.8685 -1.333,2.1438 -3.1332,1.3811 -4.4044,-1.869 -0.8314,-2.13 -2.2056,-3.1332 -4.2876,-3.1332 -1.6216,0 -3.4149,-0.5841 -3.8135,-1.2437 -0.4191,-0.7009 -3.6279,-1.2506 -7.249,-1.2506 -4.2533,0 -7.9294,-0.8657 -10.6229,-2.4942 -4.8785,-2.9477 -9.6265,-3.1401 -14.505,-0.5909 -1.9445,1.0238 -6.3696,1.8346 -9.9975,1.8346 -3.6211,0 -7.1048,0.6046 -7.8744,1.3742 -2.3911,2.3912 -29.4979,4.748 -79.7467,6.933 -21.87782,0.9551 -43.59752,2.5767 -45.63142,3.415 -1.0307,0.4329 -18.0574,0.9757 -37.9357,1.2162 l -36.0598,0.4329 -2.9409,-3.1814 c -2.4393,-2.6523 -3.8685,-3.1401 -8.4996,-2.879 -2.9958,0.1718 -5.9092,-0.2611 -6.3077,-0.9345 -0.4123,-0.6871 -3.4425,-1.5941 -6.6926,-2.0064 -3.25,-0.4054 -7.9155,-1.2849 -10.3136,-1.9376 -2.4049,-0.6459 -20.373,-2.027 -39.997,-3.0577 -19.6241,-1.0375 -37.5921,-2.4118 -39.997,-3.0714 -4.8167,-1.3124 -18.5041,-3.0577 -50.1252,-6.4039 -9.7502,-1.0307 -13.9278,-1.0376 -15.8174,-0.028 -1.8896,1.0169 -5.1259,0.9551 -12.375,-0.2474 -7.359,-1.2162 -14.1889,-1.3467 -27.3128,-0.5084 -21.2457,1.3536 -26.241,1.2986 -29.2437,-0.3299 -1.5941,-0.8657 -5.813,-0.8314 -12.8147,0.089 -5.7443,0.7559 -17.1848,1.5323 -25.4371,1.7316 -19.3766,0.4672 -34.239,2.1369 -38.128,4.2876 -2.0064,1.1131 -7.4346,1.7727 -15.1853,1.8552 -11.1244,0.1168 -12.3131,-0.11 -15.3158,-2.879 -2.9959,-2.7691 -3.4219,-2.8447 -5.497,-0.9964 -1.3605,1.2094 -3.3119,1.7316 -4.9403,1.3124 -2.1507,-0.5497 -2.8447,-0.062 -3.4974,2.4393 -0.7353,2.8172 -1.4361,3.1195 -7.1873,3.0714 -6.4383,-0.048 -18.0024,1.3193 -35.8743,4.2601 -11.2481,1.8415 -18.5865,1.8278 -26.7495,-0.048 -5.7443,-1.3192 -6.5619,-1.1749 -13.062,2.3431 -3.8754,2.0888 -7.682,3.7448 -8.6302,3.7448 -0.9482,0 -2.934,0.8451 -4.5625,1.9377 -2.0751,1.4017 -6.4314,1.9376 -15.68,1.9376 -7.0017,0 -14.0377,0.4535 -15.5013,1.0032 -1.491,0.5497 -4.8167,0.749 -7.4415,0.4329 -3.6211,-0.426 -5.0228,-1.2712 -5.8954,-3.5593 -1.6697,-4.3975 -6.4795,-3.9028 -11.6054,1.1819 -6.4039,6.3558 -8.747,7.1598 -20.1257,6.9124 -8.3759,-0.1787 -11.0625,0.2405 -13.9347,2.1575 -2.7416,1.8278 -5.8748,2.3706 -13.6255,2.3706 -7.627,0 -10.8083,0.5291 -13.1239,2.1919 -1.814,1.2918 -5.3733,2.2125 -8.747,2.2469 -3.1333,0.034 -7.0979,0.8589 -8.8157,1.8346 -4.1227,2.3362 -14.2439,2.3224 -16.1953,-0.021 -1.4086,-1.6971 -1.8072,-1.6971 -4.1846,0 -1.4086,1.0101 -4.5624,1.8759 -6.8093,1.8759 -2.3087,0 -7.4346,1.0925 -11.4336,2.4392 -3.999,1.3399 -8.4584,2.1232 -9.9426,1.7453 -1.4979,-0.3848 -3.6486,-0.2748 -4.8716,0.2542 -1.1956,0.5154 -9.6265,1.0788 -18.6278,1.2506 -9.8738,0.1855 -17.5833,0.9345 -19.3079,1.8621 -2.879,1.5597 -27.4709,0.8245 -30.2538,-0.907 -1.9995,-1.2368 -24.6262,-1.8346 -24.6262,-0.6459 0,1.6422 -12.4986,3.0027 -14.2439,1.5529 -1.4223,-1.175 -11.3787,-0.8658 -21.6304,0.6665 -3.1195,0.4672 -7.1735,0.1237 -9.9976,-0.8452 -2.6042,-0.8863 -7.125403,-1.4567 -10.004403,-1.2505 -3.3737,0.2405 -6.2734,-0.3367 -8.1217,-1.6285 -3.36,-2.3362 -7.627,-2.5354 -11.3787,-0.5291 -1.436,0.7765 -8.6851,1.6354 -16.0579,1.9102 -8.4996,0.3161 -14.7249,1.1612 -16.9374,2.3087 -1.9033,0.9895 -5.813,1.814 -8.5614,1.814 -2.7485,0 -5.6344,0.5222 -6.3146,1.1475 -1.7316,1.5872 -16.003,2.4805 -18.3735,1.1475 -4.3426004,-2.4324 -14.6219004,-2.3431 -19.8783004,0.1786 -4.7616996,2.2881 -5.6824996,2.3156 -19.5621996,0.5291 -8.3759,-1.0788 -18.5452,-1.5941 -23.9322,-1.2162 -15.6457,1.1131 -44.3809,1.8209 -66.251797,1.6354 -11.3786,-0.089 -28.584,-0.028 -38.3754,0.1443 -13.50186,0.2336 -18.58652,-0.1237 -21.25253,-1.5048 -3.14699,-1.6285 -3.99901,-1.5529 -8.49963,0.7489 -2.74846,1.4086 -4.99533,2.508 -4.99533,2.4393 0,-0.069 -1.62847,-0.7421 -3.62797,-1.4979 -2.00638,-0.7627 -11.12442,-1.4292 -20.373,-1.4979 -9.24859,-0.069 -16.95116,-0.4673 -17.19165,-0.8795 -0.24049,-0.4123 -11.87337,-0.694 -25.8768,-0.6253 -13.99656,0.069 -26.05545,-0.3505 -26.81127,-0.9345 -0.82454,-0.639 -3.18822,-0.3229 -5.93669,0.8108 -3.99902,1.6422 -4.90601,1.6559 -7.37276,0.062 -2.10944,-1.3605 -5.93668,-1.7178 -15.31582,-1.436 -6.87116,0.2061 -13.1995,-0.1581 -14.0584,-0.8108 -1.00319,-0.7627 -2.12319,-0.7833 -3.12637,-0.062 -0.93448,0.6734 -9.56466,0.7078 -21.56171,0.076 -20.37987,-1.065 -43.97544,-1.5597 -51.87728,-1.0856 -2.39116,0.1374 -9.75018,-0.3436 -16.2503,-1.0788 -12.49864,-1.4017 -24.11778,-2.3568 -27.74575,-2.2812 -16.62822,0.3504 -36.86379,-0.5154 -46.62771,-1.9995 -2.74847,-0.4192 -21.31435,-1.601 -41.18575,-2.6317 -34.75434,-1.8002 -36.36219,-1.9995 -40.62918,-4.9404 -3.94405,-2.7209 -5.05718,-2.9202 -10.05939,-1.8071 -7.35214,1.6422 -7.00171,1.656 -25.87679,-0.8383 -9.37227,-1.2436 -17.36343,-1.7384 -18.68957,-1.1681 -1.29177,0.5635 -3.68294,1.1407 -5.43509,1.3124 -1.66969,0.1718 -4.74797,0.7215 -6.6238,1.1887 -2.5011,0.6253 -4.12956,0.3092 -5.68932,-1.1268 -1.23681,-1.1269 -4.31509,-2.0133 -7.06355,-2.0339 -15.37079,-0.1374 -42.85544,-1.2643 -44.99925,-1.8552 -6.24588,-1.7315 -37.62648,-4.48 -64.74696,-5.6756 -16.37398,-0.7146 -31.0714,-1.814 -32.68612,-2.4324 -2.25374,-0.8589 -3.44245,-0.5703 -5.0984,1.2505 -2.93399,3.2295 -4.69988,3.1265 -6.24589,-0.3779 -1.15436,-2.5904 -2.5973,-2.8721 -25.59508,-4.9953 -13.37815,-1.2368 -25.22404,-2.563 -26.24784,-2.9409 -1.03068,-0.3779 -6.75435,-0.9138 -12.6292,-1.1818 -5.87484,-0.2749 -13.52932,-1.3536 -16.87557,-2.3774 -3.37374,-1.0376 -7.97742,-1.8759 -10.25178,-1.8759 -3.11951,0 -15.32269,-3.0508 -17.3703,-4.3425 -0.13742,-0.082 -0.82454,-3.8479 -1.49791,-8.2179 -0.87951,-5.6481 -0.83141,-10.6916 0.14429,-16.8138 1.2643,-7.8675 2.18503,-22.7504 2.13007,-34.3764 -0.0756,-16.5045 -0.87264,-34.775 -1.61473,-37.1249 -0.51534,-1.6216 -0.47411,-3.5524 0.0893,-4.4388 0.54969,-0.8589 1.11313,-13.9347 1.25055,-29.05811 0.13742,-15.1303 0.63902,-35.94305 1.12687,-46.24979 1.0719,-22.94281 1.5254,-35.75066 2.07509,-59.38059 0.23362,-9.99754 0.76957,-18.68269 1.20245,-19.3698 0.93448,-1.49792 2.21939,-30.25373 2.81718,-63.12537 0.21988,-12.00392 1.0238,-25.62944 1.77276,-30.19189 0.76957,-4.62429 1.04442,-9.20049 0.62528,-10.31362 -0.41914,-1.12 -0.0893,-2.78969 0.74895,-3.81349 0.81767,-0.98258 1.40172,-3.68294 1.28491,-5.93669 -0.2611,-4.94036 -0.15804,-15.7487 0.20614,-21.36931 0.14429,-2.20564 0.14429,-14.12711 -0.007,-26.50208 -0.50159,-42.87605 0.76957,-76.94327 3.11951,-83.37468 1.91706,-5.23583 1.9789,-7.31092 0.58405,-19.06061 -1.20932,-10.25177 -1.22994,-13.80416 -0.0825,-15.94109 1.86208,-3.48368 0.67337,-39.749679 -1.51166,-45.871879 -1.11313,-3.13325 -1.10626,-5.31828 0.0344,-9.06307 0.98944,-3.25006 1.09251,-5.44883 0.3092,-6.43828 -0.65276,-0.83141 -1.18184,-8.49962 -1.18184,-17.1298 0,-8.62331 -0.67337,-20.37987 -1.50479,-26.24785 -0.82454,-5.87484 -1.64907,-15.0959397 -1.8346,-20.6203497 -1.12687,-33.5037903 -1.58036,-38.9320103 -3.64171,-43.7555703 -1.18184,-2.74846 -1.80712,-6.32147 -1.39485,-7.93619 0.41227,-1.61472 0.15804,-14.25079 -0.56343,-28.12367 -0.72148,-13.87287 -1.51166,-32.768571 -1.75215,-42.065251 -0.24736,-9.75018 -1.05129,-18.03681 -1.88957,-19.62404 -1.77963,-3.37375 -1.79337,-8.56834 -0.0137,-11.87337 0.73521,-1.36049 1.47043,-6.87117 1.62846,-12.12073 0.43289,-14.38135 2.99583,-33.87483 5.25644,-39.88023 2.06822,-5.49693 4.0746,-6.51386 6.66503,-3.37374 0.87264,1.05816 2.78969,1.87583 4.41816,1.87583 2.74846,0 11.87337,8.54772 11.87337,11.12441 0,0.6184 2.43926,2.32932 5.44196,3.81349 2.99582,1.48417 6.38331,3.69669 7.55828,4.9335 1.6422,1.7384 4.74797,2.46674 13.62551,3.18822 6.37644,0.52221 12.2238,1.53227 13.12392,2.26748 3.06454,2.50797 25.12784,0.0206 35.75066,-4.0265 2.07509,-0.79018 12.4368,-1.70405 23.19017,-2.05448 10.7465,-0.34356 22.31067,-1.18184 25.86993,-1.86895 3.50429,-0.68025 9.20736,-1.14062 12.50552,-1.00319 3.34625,0.13742 16.62134,-0.44663 29.62158,-1.3124 13.00024,-0.85889 25.40956,-1.27803 27.69078,-0.93447 2.37055,0.3573 4.76172,-0.0138 5.62061,-0.87951 2.63853,-2.63853 50.75041,-3.0989 141.25049,-1.35362 21.00515,0.39853 40.65667,0.60466 43.75556,0.44662 19.87141,-0.99632 113.43603,0.92074 129.49393,2.65914 8.5065,0.91387 14.97914,0.98258 19.43852,0.18552 4.23951,-0.74895 9.44098,-0.74895 14.18895,0 4.14331,0.65964 19.253,1.05129 33.75115,0.87951 14.43631,-0.17178 38.62281,-0.28859 53.75311,-0.25423 77.61665,0.15804 94.34105,0.12368 115.62105,-0.2611 12.7323,-0.23362 44.751897,-0.70773 71.247097,-1.05129 26.5021,-0.34356 53.6294,-1.01693 60.3768996,-1.49791 9.1249,-0.65277 13.014,-0.46037 15.254,0.74895 2.1231004,1.14749 3.4699004,1.24368 4.6242004,0.32295 1.4155,-1.13375 35.2491,-2.32933 101.624503,-3.60049 40.2444,-0.7627 58.9065,-1.4292 61.8749,-2.1919 7.6201,-1.95828 136.5987,-4.39068 142.872,-2.6935 2.3912,0.64589 4.8099,0.16491 8.3141,-1.64908 4.6862,-2.43239 7.6889,-2.60417 59.0577,-3.3119 29.7521,-0.41227 68.4849,-0.63902 85.9995,-0.50159 17.5008,0.13742 34.1359,0.20613 36.8775,0.15803 77.0051,-1.46355 119.5857,-0.98257 151.8733,1.72467 7.0017,0.58404 41.5843,1.88956 47.7546,1.80711 2.5011,-0.0344 4.9129,0.42601 5.2495,0.99632 0.3436,0.59092 7.4965,1.17497 16.003,1.31239 8.4996,0.13742 19.2873,0.86577 24.1246,1.62847 4.8098,0.75582 18.8682,1.48417 31.2501,1.62159 12.3681,0.13742 29.2505,0.70086 37.4959,1.25055 8.2523,0.5497 17.0268,1.05816 19.5004,1.12687 2.5011,0.0687 5.277,0.73522 6.2527,1.50479 4.8717,3.84098 7.5583,4.41816 10.7465,2.30871 2.7416,-1.80712 6.0054,-1.97202 26.3784,-1.31239 12.746,0.41227 30.8996,1.31239 40.1826,1.9995 9.3791,0.68712 19.734,1.19559 23.1902,1.12688 3.4424,-0.0756 18.875,0.23362 34.3764,0.68711 15.49442,0.44663 37.38602,1.01006 48.74402,1.25055 11.3787,0.24049 20.909,0.57718 21.2525,0.74896 0.3436,0.17178 6.9399,0.17178 14.5669,0 12.8697,-0.28859 14.1477,-0.10307 16.6832,2.43239 1.4979,1.50479 3.4012,2.3843 4.1914,1.93767 0.8039,-0.4535 2.8103,-1.62159 4.5624,-2.65227 3.3394,-1.96515 14.7455,-1.31239 19.3698,1.11313 2.6798,1.40172 21.3762,4.60368 30.6248,5.2427 8.7539,0.60466 11.5985,1.24368 16.1266,3.59361 2.2538,1.1681 4.8648,1.86896 5.7512,1.53914 3.4837,-1.29177 3.1264,1.82773 -0.6253,5.46945 z m -373.49582,-76.49665 c -0.8589,0.28859 -1.5048,-0.61841 -1.5048,-2.11632 0,-1.50479 0.8589,-2.62478 1.9995,-2.62478 2.295,0 1.8759,3.94404 -0.4947,4.7411 z m -157.2534,-17.72073 c -1.1269,-0.43288 -2.6591,-0.77644 -3.4974,-0.77644 -1.5529,0 -2.4599,-5.74429 -1.2368,-7.7438 0.9138,-1.48417 4.212,1.25055 5.5794,4.62429 1.5734,3.87534 1.3811,4.74797 -0.8452,3.89595 z m -77.6854,-0.77644 c -1.5048,0 -2.8171,-0.57718 -2.8171,-1.24368 0,-0.70086 2.0613,-1.25055 4.693,-1.25055 3.4974,0 4.212,0.31607 2.8103,1.25055 -0.9964,0.6665 -3.1883,1.24368 -4.6862,1.24368 z m -121.063,1.99951 c -2.6248,0.0687 -6.7818,0.7627 -9.0012,1.49104 -5.4969,1.82086 -6.8986,-1.03755 -2.5011,-5.0984 1.7521,-1.6216 3.7104,-3.93718 4.4525,-5.26331 1.5254,-2.74847 9.0493,-3.57988 9.0493,-1.00319 0,0.8795 0.5222,1.62846 1.1269,1.62846 1.1612,0 2.4736,4.50061 1.9995,6.87116 -0.1374,0.67338 -2.5011,1.3124 -5.1259,1.37424 z m -24.8736,2.23312 c -2.2537,0.86577 -3.7516,-1.97889 -2.6248,-4.98159 0.6047,-1.62159 1.0994,-1.70405 2.6248,-0.4535 2.3706,1.95829 2.3706,4.52123 0,5.43509 z m -223.0036,14.51877 c -2.8721,0 -4.4319,-1.99264 -2.5011,-3.20196 1.7041,-1.06503 4.8786,0.20613 4.8786,1.95141 0,0.65963 -1.1269,1.25055 -2.3775,1.25055 z m -14.1202,-5.24957 c -1.7522,1.75215 -9.7571,1.95828 -9.7571,0.25424 0,-0.61154 1.0651,-1.47043 2.3156,-1.87583 1.3055,-0.42601 3.2982,-1.81399 4.5625,-3.18822 1.2711,-1.37423 2.6866,-2.43926 3.25,-2.43926 1.656,0 1.3743,5.5038 -0.371,7.24907 z m -81.251503,1.27117 c -2.5011,0.46724 -4.4182,-3.10577 -2.6248,-4.89227 1.7384,-1.74528 5.5657,0.12368 5.119,2.5011 -0.1992,1.05129 -1.3742,2.18503 -2.4942,2.39117 z m -119.9361,1.85521 c -2.2538,1.53227 -3.1058,3.0508 -2.6591,4.74797 0.7833,2.96835 -2.9065,3.18822 -10.2793,0.61841 -3.8753,-1.34675 -4.5144,-1.93767 -2.8172,-2.61791 1.1887,-0.47411 2.1919,-2.24687 2.1919,-3.87534 0,-1.75902 1.3124,-3.84785 3.1814,-5.05718 2.8103,-1.82085 3.8135,-1.85521 8.4446,-0.31607 2.8722,0.96196 5.758,1.58037 6.3696,1.37423 0.6321,-0.213 1.9995,0.007 3.1263,0.5016 1.601,0.70086 1.3743,1.0238 -1.1268,1.62846 -1.7659,0.41915 -4.5625,1.72467 -6.4314,2.99583 z m -155.817357,17.12981 c -1.37424,0 -4.06086,-5.813 -3.12638,-6.75435 0.92073,-0.91387 4.04024,2.99582 4.08834,5.12588 0.0206,0.87264 -0.41914,1.62847 -0.96196,1.62847 z m -297.24649,-15.00662 c -2.13006,0 -3.0027,-0.72834 -3.0027,-2.49423 0,-2.74847 1.49791,-3.07828 5.12589,-1.15436 3.05766,1.6216 1.87582,3.64859 -2.12319,3.64859 z m -511.75044,519.00639 c -3.0027,2.99583 -4.2189,3.53178 -5.37325,2.37055 -1.20246,-1.20245 -1.06503,-1.82773 0.68711,-3.12638 1.25055,-0.92761 1.80712,-1.99951 1.31239,-2.5011 -1.0719,-1.06503 3.11951,-4.50061 5.49694,-4.50061 2.9065,0 1.87582,3.75165 -2.12319,7.75754 z m -1.37424,67.9077 c -0.74895,0.46037 -1.88957,0.32294 -2.5011,-0.28859 -1.4773,-1.4773 0.74896,-4.63804 2.5011,-3.55926 1.74528,1.08564 1.74528,2.77595 0,3.84785" />
      <path
         inkscape:connector-curvature="0"
         id="path20"
         style="fill:#000000;fill-opacity:1;fill-rule:nonzero;stroke:none"
         d="m 1027.6223,-256.09134 c -0.7627,-2.17816 -7.1941,-1.99951 -9.0699,0.24736 -1.278,1.54601 -1.1818,2.02012 0.5703,2.68662 2.8722,1.09252 9.1524,-1.0719 8.4996,-2.93398" />
      <path
         inkscape:connector-curvature="0"
         id="path22"
         style="fill:#000000;fill-opacity:1;fill-rule:nonzero;stroke:none"
         d="m 353.55438,-272.71956 c -2.1232,0 -3.8066,0.55657 -3.8066,1.25056 0,0.6665 1.4361,1.25055 3.0577,1.25055 1.6284,0 3.4149,-0.58405 3.8135,-1.25055 0.4466,-0.73522 -0.8108,-1.25056 -3.0646,-1.25056" />
      <path
         inkscape:connector-curvature="0"
         id="path24"
         style="fill:#000000;fill-opacity:1;fill-rule:nonzero;stroke:none"
         d="m -105.00632,-258.13208 c -1.6216,-1.03754 -5.2496,0.20614 -5.2496,1.78651 0,1.48417 2.5011,1.53914 4.7549,0.1168 1.12,-0.7146 1.2986,-1.39484 0.4947,-1.90331" />
      <path
         inkscape:connector-curvature="0"
         id="path26"
         style="fill:#000000;fill-opacity:1;fill-rule:nonzero;stroke:none"
         d="m -137.75432,-256.24938 c -4.3769,-1.93767 -8.0873,-1.06503 -7.0498,1.65595 0.3848,0.99632 0.1374,2.08196 -0.5772,2.52859 -1.7521,1.08564 -1.3742,4.34945 0.5016,4.34945 0.9963,0 2.7691,-1.12688 4.1227,-2.62479 1.3605,-1.50478 3.3188,-2.97521 4.5625,-3.44245 1.8208,-0.67338 1.5666,-1.08565 -1.5598,-2.46675" />
      <path
         inkscape:connector-curvature="0"
         id="path28"
         style="fill:#000000;fill-opacity:1;fill-rule:nonzero;stroke:none"
         d="m -889.63126,-248.16889 c -2.453,-2.39804 -4.50061,-2.48049 -7.49644,-0.28172 -5.31828,3.88221 1.6216,7.45521 7.24908,3.72417 2.12319,-1.40859 2.13693,-1.60098 0.24736,-3.44245" />
      <path
         inkscape:connector-curvature="0"
         id="path30"
         style="fill:#000000;fill-opacity:1;fill-rule:nonzero;stroke:none"
         d="m -985.82066,-316.46825 c -1.08565,0 -1.53227,0.74896 -1.12,1.87583 0.36417,0.99632 1.20932,1.87583 1.80711,1.87583 0.60467,0 1.13375,-0.87951 1.13375,-1.87583 0,-1.00319 -0.85203,-1.87583 -1.82086,-1.87583" />
      <path
         inkscape:connector-curvature="0"
         id="path32"
         style="fill:#000000;fill-opacity:1;fill-rule:nonzero;stroke:none"
         d="m 1138.9008,313.15699 c -1.917,-1.96516 -4.157,-0.74896 -4.157,2.24687 0,3.38061 1.1955,3.9303 3.4974,1.62846 1.6284,-1.62846 1.814,-2.70036 0.6596,-3.87533" />
      <path
         inkscape:connector-curvature="0"
         id="path34"
         style="fill:#000000;fill-opacity:1;fill-rule:nonzero;stroke:none"
         d="m 1136.7433,377.27868 c -1.1269,0 -1.9995,0.8795 -1.9995,1.9995 0,2.26749 2.6935,1.87583 3.4974,-0.49472 0.2817,-0.84515 -0.3711,-1.50478 -1.4979,-1.50478" />
      <path
         inkscape:connector-curvature="0"
         id="path36"
         style="fill:#000000;fill-opacity:1;fill-rule:nonzero;stroke:none"
         d="m 1135.6507,341.78225 c -1.4704,-1.99951 -1.6009,-1.75215 -1.1543,2.24687 0.2748,2.5011 0.9963,4.19828 1.6216,3.8135 1.6491,-1.01007 1.4635,-3.43559 -0.4673,-6.06037" />
      <path
         inkscape:connector-curvature="0"
         id="path38"
         style="fill:#000000;fill-opacity:1;fill-rule:nonzero;stroke:none"
         d="m 736.47058,199.40489 c -1.0651,-2.49423 -2.4943,-4.62429 -3.0989,-4.62429 -0.6116,0 -1.1269,-0.62528 -1.1269,-1.37423 0,-0.77644 -1.3536,-3.0027 -3.1264,-5.12589 -1.7727,-2.12319 -3.1195,-4.77546 -3.1195,-6.12221 0,-4.37693 -5.4145,-12.37496 -8.3828,-12.37496 -1.0307,0 -5.3252,-3.56613 -9.5578,-7.94306 -5.3251,-5.49693 -9.0287,-8.25914 -12.0589,-8.99436 -2.4118,-0.58404 -14.3813,-1.11999 -26.6257,-1.18871 -20.7509,-0.11681 -22.4413,-0.30233 -25.0042,-2.74846 -1.5048,-1.43607 -7.3109,-7.15975 -12.8147,-12.62233 -5.4969,-5.46944 -12.9522,-11.76343 -16.4358,-13.87975 -3.4768,-2.10944 -8.7608,-7.00171 -11.626,-10.74649 -2.8584,-3.75166 -6.0123,-6.87804 -6.933,-6.87804 -0.9551,0 -2.9065,-1.62846 -4.5007,-3.75165 -1.5941,-2.123189 -3.25,-3.751659 -3.8135,-3.751659 -1.2849,0 -20.0019,-14.26453 -32.7548,-24.96293 -3.25,-2.72785 -7.627,-5.89546 -9.5578,-6.90552 -1.9995,-1.05816 -4.1639,-2.97521 -4.9403,-4.37693 -0.7421,-1.36049 -3.3738,-3.33938 -5.7443,-4.34257 -4.2533,-1.77963 -16.7519,-13.37816 -16.7519,-15.5357 0,-2.10945 -3.1264,-3.58675 -5.6275,-2.65227 -2.5149,0.94135 -3.7517,0.055 -14.3745,-10.30674 -1.8758,-1.82773 -4.0814,-3.41497 -4.748,-3.41497 -0.6733,0 -1.5734,-0.87264 -1.9376,-1.87583 -0.3848,-1.05129 -2.0614,-1.87583 -3.8135,-1.87583 -2.8722,0 -9.5028,-6.18404 -9.5028,-8.87067 0,-0.61153 -1.3743,-1.12687 -2.9959,-1.12687 -2.4392,0 -3.1538,-0.8108 -3.8135,-4.3150897 -0.639,-3.37374 -1.5735,-4.47312 -4.315,-5.05717 -1.8759,-0.4054 -4.748,-2.17128999 -6.1841,-3.8135 -1.5048,-1.71779 -4.0608,-3.06454 -5.813,-3.06454 -3.1264,0 -8.1286,-3.84785 -8.1286,-6.2527603 0,-1.62159 -9.7502,-4.13644 -13.3713,-3.44245 -1.6559,0.31608 -5.4419,0.0687 -8.4377,-0.55656 -4.2533,-0.87951 -6.3009,-0.68712 -9.3792,0.87951 -2.1232,1.07877 -4.5075,1.6422 -5.1877,1.22306 -2.2812,-1.41546 -6.0535,0.90013 -8.802,5.4007403 -1.5254,2.5011 -4.9472,6.63067 -7.4414,9.00122 -2.5011,2.36368 -5.5451,6.21153 -6.6238,8.37595 -1.1338,2.2468697 -3.0989,4.7617097 -4.5075,5.7442897 -1.9652,1.3811 -2.3362,2.56294 -1.7453,5.56564 0.5909,2.99583 0.1855,4.29448 -1.8758,6.07411 -4.0952,3.52491 -3.6143,9.99067 1.12,14.86232 l 3.8753,3.99902 -2.6866,5.24957 c -2.5561,5.0022 -2.5767,5.36638 -0.4947,7.68883 1.2299,1.37423 2.9202,2.43926 3.8684,2.43926 0.9345,0 2.6248,1.43607 3.7585,3.18822 1.1338,1.75902 4.1846,4.27386 6.8094,5.62061 2.6248,1.34675 5.0846,3.55926 5.4969,4.94037 0.5566,1.85521 1.8758,2.5011 5.1259,2.5011 5.2496,0 14.9997,5.38012 15.8655,8.74699 0.3573,1.40859 2.1988,3.18822 4.1983,4.06086 1.9995,0.87951 3.999,2.22625 4.5624,3.06454 0.5497,0.82454 2.934,1.86208 5.3114,2.31558 2.3775,0.44662 4.3151,1.33987 4.3151,1.99951 0,0.64589 3.5593,2.810299 7.8125,4.747969 4.2464,1.93767 9.5166,5.32515 11.5573,7.44147 2.0614,2.12319 4.5419,4.57619 5.5038,5.43509 0.962,0.85889 4.6243,4.29447 8.1286,7.62699 3.4974,3.32564 8.4859,7.13226 11.0557,8.43091 2.6248,1.33301 4.693,2.84467 4.693,3.44246 0,0.59092 2.1851,2.03386 4.9335,3.25006 2.7485,1.21619 8.4309,5.87484 12.8147,10.49913 4.377,4.6243 11.4818,10.47165 15.9961,13.18576 4.5075,2.70037 11.3374,7.97055 15.3158,11.81153 3.999,3.8616 8.0187,7.40712 9.0631,8.00491 1.4773,0.83828 1.5597,1.55975 0.371,3.43558 -1.3398,2.13006 -2.9958,2.35681 -15.996,2.18503 -8.0049,-0.10307 -15.3158,0.34356 -16.3122,1.00319 -1.0032,0.65276 -6.0603,1.24368 -11.3099,1.31239 -5.2564,0.0687 -10.2861,0.6184 -11.255,1.22307 -2.1232,1.333 -14.9997,2.74846 -31.1263,3.40809 -6.5002,0.26798 -13.3438,1.09252 -15.1235,1.81399 -5.5793,2.26748 -67.6259,2.36368 -84.8726,0.13742 -22.7504,-2.94773 -104.1805,-1.65595 -108.3788,1.71092 -0.9826,0.79019 -3.999,0.65963 -8.747,-0.38478 -9.2486,-2.02012 -24.0765,-1.55289 -26.7494,0.84515 -2.1301,1.90331 -6.1291,2.39117 -6.1291,0.74209 0,-0.91387 -92.6233,-2.11632 -116.246303,-1.51166 -30.3637,0.78331 -61.7512,0.0344 -99.9961004,-2.38429 -10.6296996,-0.67338 -20.5102996,-1.1681 -21.8776996,-1.10626 -1.388,0.0756 -9.7502,-0.5016 -18.7514,-1.28491 -28.3779,-2.46674 -30.8928,-2.61104 -54.5021,-3.09889 -12.745997,-0.26798 -23.980297,-0.94135 -24.873597,-1.48417 -0.8932,-0.5497 -12.1207,-1.48417 -24.8736,-2.06822 -42.75237,-1.95828 -48.19433,-2.3362 -52.00095,-3.64172 -2.05448,-0.7146 -19.50036,-1.85521 -38.62281,-2.54233 -19.12931,-0.68712 -35.27654,-1.4773 -35.75066,-1.75215 -0.48098,-0.27484 -11.68784,-1.12 -24.93544,-1.87582 -14.25767,-0.8108 -26.186,-2.10945 -29.25054,-3.18135 -2.85154,-0.99632 -7.75755,-1.81399 -10.87705,-1.81399 -3.12638,0 -6.78871,-0.81767 -8.12859,-1.81399 -1.37423,-1.0238 -3.36,-1.8346 -4.56245,-1.85521 -3.36,-0.0756 -16.19533,7.16662 -20.0157,11.28932 -1.84834,1.99951 -4.19828,3.62797 -5.22895,3.62797 -1.00319,0 -3.13325,1.3124 -4.56245,2.81031 -2.21939,2.32245 -2.59043,3.87534 -2.13006,8.87754 0.46724,5.00221 0.0481,6.6719 -2.37055,9.56466 -3.34626,3.99902 -3.70356,7.26969 -1.1681,10.7465 1.54601,2.12319 1.5254,2.60417 -0.20614,4.56245 -1.60098,1.80025 -1.68343,2.75534 -0.50159,5.38012 0.79018,1.74528 1.43607,4.28074 1.43607,5.62061 0,1.37423 0.54282,2.43926 1.25055,2.43926 0.68712,0 1.25055,1.6216 1.25055,3.62111 0,3.99901 3.85473,9.61275 7.37276,10.73962 1.25055,0.39853 2.6454,1.82773 2.94086,3.01644 0.33669,1.36049 2.18503,2.56295 4.68613,3.05767 2.25374,0.44663 4.91975,1.95141 5.87485,3.3119 1.25055,1.7865 3.25006,2.52172 7.00171,2.56295 2.87215,0.0344 6.23902,0.79705 7.4346,1.6903 1.21619,0.90012 5.37325,1.70405 9.37226,1.81399 5.62749,0.14429 7.66822,0.75583 9.37914,2.8103 1.91018,2.29497 2.68663,2.45301 6.18405,1.22994 5.12588,-1.7865 10.63656,-1.71779 11.78404,0.1443 0.61153,0.99631 5.34577,1.09251 17.21913,0.3573 26.12416,-1.6216 35.44146,-1.56663 50.75041,0.28171 7.87435,0.94822 18.05054,1.68344 22.50306,1.6216 15.12343,-0.20614 73.57646,2.52859 76.49666,3.57987 1.5872,0.57031 7.3109,0.64589 12.8147,0.15804 5.4969,-0.48098 11.9421,-0.32981 14.4363,0.33669 8.534,2.29497 23.245197,3.83411 39.371797,4.10895 20.1256,0.3573 40.265,1.54601 55.0036,3.25006 6.2459,0.72148 14.6905996,1.25055 18.9987996,1.18184 4.2532,-0.0687 8.0873,0.43976 8.4996,1.12687 0.4054,0.67338 5.2496,1.25056 10.6228004,1.25056 5.3733,0 10.19,0.48098 10.561,1.05815 0.3916,0.60467 3.2569,0.57718 6.6307,-0.0618 3.25,-0.6184 7.6338,-0.81766 9.6814,-0.44662 6.3352,1.14748 68.505503,3.18135 101.878803,3.32564 11.1862,0.0481 71.996,-1.0238 101.8718,-1.80024 9.599,-0.24737 26.2547,-0.42602 36.8775,-0.39166 10.6229,0.0344 23.4925,-0.0275 28.5016,-0.13055 13.763,-0.29546 14.9998,-0.28859 28.9963,0.17178 38.8771,1.26429 51.3551,2.02699 53.7531,3.27754 1.6079,0.83828 9.0013,1.29865 19.1225,1.18184 10.7534,-0.12368 18.7445,0.41914 22.9359,1.55976 5.5038,1.49791 6.775,1.50478 8.7539,0.0618 1.4979,-1.09252 3.8753,-1.44295 6.7475,-0.99632 2.6247,0.4054 5.4625,0.007 6.9398,-0.98258 4.6793,-3.11951 12.8766,-4.90601 19.7478,-4.31509 5.8748,0.51534 7.1116,0.25423 7.6888,-1.58037 0.5772,-1.82085 2.6866,-2.26061 12.8147,-2.65226 12.746,-0.48786 16.9031,-0.0825 16.264,1.5941 -0.529,1.37424 -13.7972,11.12442 -15.144,11.12442 -1.9583,0 -10.774,7.75067 -11.5092,10.12122 -0.4054,1.29865 -2.3018,3.20196 -4.1777,4.19141 -1.9308,1.01693 -5.1602,3.55926 -7.3727,5.813 -2.2125,2.24687 -5.1946,4.62429 -6.8162,5.43509 -1.546,0.77644 -4.0265,3.25006 -5.3733,5.37325 -1.3467,2.13006 -3.0439,3.97153 -3.6829,3.99902 -0.6665,0.0412 -3.1401,2.31558 -5.6275,5.1946 -3.3531,3.87533 -5.6549,5.31828 -9.441,5.93668 -3.8753,0.62528 -5.0777,1.44294 -5.3732,3.6211 -0.2061,1.54601 -2.934,4.92663 -6.0604,7.50331 -3.1264,2.56982 -7.6888,6.51386 -10.1212,8.74699 -2.5011,2.2881 -5.5863,4.06773 -7.0704,4.08147 -3.999,0.0206 -14.4501,10.54724 -13.6324,13.72859 0.3504,1.39484 -0.062,5.0022 -0.9276,8.12858 -1.3536,4.87853 -1.2849,5.92981 0.5016,7.93619 1.2505,1.40172 2.0613,4.43877 2.0613,7.68883 0,7.00172 4.4319,11.62601 10.6228,11.09693 2.2538,-0.19239 4.8992,0.24736 5.8199,0.96196 0.9208,0.72835 3.9372,2.10258 6.6857,3.06454 2.7484,0.96197 5.3045,2.17129 5.6824,2.68663 0.3848,0.52221 3.999,1.80024 8.1286,2.87901 4.1227,1.07191 7.8812,2.7416 8.4378,3.75166 0.6734,1.21619 3.1264,1.80711 7.4964,1.80711 4.2533,0 7.9293,0.87264 10.6297,2.52172 4.748,2.89963 9.8739,3.13325 13.2476,0.60466 1.3742,-1.03067 3.5112,-1.87582 4.748,-1.87582 1.2505,0 2.2537,-0.5016 2.2537,-1.12687 0,-3.4562 10.2449,-2.24687 12.6842,1.50478 0.4604,0.70086 2.7553,0.86577 5.2496,0.37104 3.6348,-0.7146 5.6481,-2.49423 11.1244,-9.87386 3.7173,-5.0022 7.6064,-10.44416 8.7538,-12.25128 1.1132,-1.75902 4.8098,-5.07779 8.0599,-7.24908 3.3257,-2.21251 11.9421,-9.82576 19.3148,-17.06109 7.3728,-7.23534 13.8729,-13.06208 14.56,-13.06208 0.6872,0 5.5038,-3.96466 10.6229,-8.75386 5.1258,-4.78233 9.8601,-8.77448 10.4441,-8.80883 0.5841,-0.0344 3.5593,-2.56295 6.6857,-5.68933 3.1057,-3.10576 8.5614,-7.30404 12.1825,-9.37226 3.628,-2.07509 6.562,-4.56245 6.562,-5.56564 0,-0.99632 0.4535,-1.81399 1.0032,-1.81399 1.2643,0 5.8748,-3.88908 14.1271,-11.90773 3.1264,-3.03705 6.3215,-5.58625 7.0017,-5.58625 0.6871,0 2.2606,-1.12687 3.4974,-2.5011 1.2368,-1.37424 2.8653,-2.52172 3.628,-2.53546 2.3431,-0.0618 13.2476,-11.96957 13.2476,-14.4638 0,-3.36687 6.3764,-6.87116 10.8702,-5.99165 3.0027,0.59092 4.4319,0.0275 7.1323,-2.82405 1.8895,-1.99951 3.676,-4.96098 4.0608,-6.74748 0.3779,-1.75215 1.8965,-3.72417 3.3738,-4.37693 1.4979,-0.65963 2.8927,-2.2881 3.1469,-3.68982 0.7559,-4.06773 2.6661,-5.62061 6.9124,-5.62061 2.7554,0 5.1328,-1.17497 7.627,-3.75165 2.0545,-2.12319 4.1159,-3.75166 4.7549,-3.75166 1.0856,0 6.2184,-5.11901 15.6387,-15.62502 3.1402,-3.49742 6.7613,-6.54822 8.2317,-6.933 1.4223,-0.37792 3.1951,-2.37743 3.8753,-4.37694 0.6803,-1.9995 2.2881,-5.22895 3.5181,-7.06355 3.2019,-4.75484 3.9028,-16.62134 1.333,-22.62674 z m -90.8505,100.83431 c -1.8759,1.41546 -3.7105,2.20564 -4.1296,1.79337 -1.12,-1.12687 5.758,-8.66453 7.1323,-7.81938 1.7933,1.10626 0.7489,3.20196 -3.0027,6.02601" />
    </g>
  </g>
</svg>
