<?xml version="1.0" encoding="UTF-8" standalone="no"?>
<!-- Created with Inkscape (http://www.inkscape.org/) -->

<svg
   xmlns:dc="http://purl.org/dc/elements/1.1/"
   xmlns:cc="http://creativecommons.org/ns#"
   xmlns:rdf="http://www.w3.org/1999/02/22-rdf-syntax-ns#"
   xmlns:svg="http://www.w3.org/2000/svg"
   xmlns="http://www.w3.org/2000/svg"
   xmlns:sodipodi="http://sodipodi.sourceforge.net/DTD/sodipodi-0.dtd"
   xmlns:inkscape="http://www.inkscape.org/namespaces/inkscape"
   width="76.84964mm"
   height="22.70109mm"
   viewBox="0 0 272.30188 80.43693"
   id="svg6079"
   version="1.1"
   inkscape:version="0.91 r13725"
   sodipodi:docname="buttonClear.svg">
  <defs
     id="defs6081" />
  <sodipodi:namedview
     id="base"
     pagecolor="#ffffff"
     bordercolor="#666666"
     borderopacity="1.0"
     inkscape:pageopacity="0.0"
     inkscape:pageshadow="2"
     inkscape:zoom="5.6568543"
     inkscape:cx="73.306853"
     inkscape:cy="33.199065"
     inkscape:document-units="px"
     inkscape:current-layer="layer1"
     showgrid="false"
     inkscape:snap-global="true"
     fit-margin-top="0"
     fit-margin-left="0"
     fit-margin-right="0"
     fit-margin-bottom="0"
     inkscape:window-width="1920"
     inkscape:window-height="1080"
     inkscape:window-x="0"
     inkscape:window-y="0"
     inkscape:window-maximized="0" />
  <metadata
     id="metadata6084">
    <rdf:RDF>
      <cc:Work
         rdf:about="">
        <dc:format>image/svg+xml</dc:format>
        <dc:type
           rdf:resource="http://purl.org/dc/dcmitype/StillImage" />
        <dc:title></dc:title>
      </cc:Work>
    </rdf:RDF>
  </metadata>
  <g
     inkscape:label="Layer 1"
     inkscape:groupmode="layer"
     id="layer1"
     transform="translate(-40.309945,-139.78715)">
    <g
       id="g3403"
       style="fill:#ff0000">
      <rect
         y="178.96127"
         x="54.737247"
         height="12.158017"
         width="237.77357"
         id="rect3344-3"
         style="fill:#ff0000;fill-opacity:0.64473685" />
      <rect
         y="191.11386"
         x="48.775959"
         height="21.261477"
         width="251.29735"
         id="rect3344"
         style="fill:#ff0000;fill-opacity:0.64473685" />
      <rect
         y="167.20848"
         x="61.49913"
         height="11.775895"
         width="228.11374"
         id="rect3344-3-6"
         style="fill:#ff0000;fill-opacity:0.64473685" />
      <rect
         y="155.29469"
         x="66.973038"
         height="11.952671"
         width="217.16594"
         id="rect3344-3-6-7"
         style="fill:#ff0000;fill-opacity:0.64473685" />
      <rect
         y="145.63487"
         x="75.022896"
         height="9.6671524"
         width="202.67619"
         id="rect3344-3-6-7-5"
         style="fill:#ff0000;fill-opacity:0.64473685" />
    </g>
    <g
       id="g344"
       transform="matrix(0.41739889,0,0,-0.34831282,197.34276,185.80453)">
      <path
         d="m 0,0 c -2.151,-9.88 -9.555,-13.312 -16.809,-16.366 -20.678,-8.705 -41.925,-0.26 -50.21,21.692 -9.749,25.841 -0.286,57.412 20.871,70.953 3.246,2.076 7.14,3.863 10.898,4.268 7.225,0.779 14.566,0.439 21.858,0.626 4.085,0.105 7.327,-0.942 7.857,-5.628 0.494,-4.364 -2.629,-8.405 -7.35,-9.097 -2.926,-0.428 -5.964,-0.24 -8.945,-0.134 -6.378,0.234 -11.39,-2.129 -15.682,-6.924 -9.315,-10.409 -13.91,-22.831 -13.481,-36.371 0.205,-6.493 3.303,-13.578 7.011,-19.105 4.768,-7.106 13.621,-7.814 22.443,-3.873 3.284,1.469 6.607,2.883 10.008,4.04 C -6.843,5.677 -3.179,3.933 0,0"
         style="fill:#231f20;fill-opacity:1;fill-rule:evenodd;stroke:none"
         id="path346"
         inkscape:connector-curvature="0" />
    </g>
    <path
       d="m 312.29586,213.8217 c -0.21451,-0.43258 -0.69587,-0.99992 -1.0787,-1.26831 -1.04585,-0.73607 -1.7058,-1.63634 -2.51251,-3.42895 -0.12933,-0.28877 -0.32229,-0.62396 -0.43723,-0.76212 -0.11184,-0.13476 -0.35306,-0.74173 -0.53165,-1.33852 -0.1786,-0.59792 -0.47931,-1.27849 -0.66303,-1.50385 -0.18782,-0.23101 -0.39719,-0.86629 -0.47623,-1.44269 -0.078,-0.5764 -0.20116,-1.11997 -0.27916,-1.23547 -0.29252,-0.43258 -1.29117,-2.64306 -1.29526,-2.86388 -10e-4,-0.12683 -0.16729,-0.45297 -0.37668,-0.74174 -0.20937,-0.28877 -0.3736,-0.67379 -0.3736,-0.87536 0,-0.19704 -0.34382,-0.9784 -0.75539,-1.72014 -0.41259,-0.74173 -0.79029,-1.63181 -0.83135,-1.95682 -0.041,-0.3284 -0.28942,-0.88668 -0.55115,-1.23659 -0.26069,-0.34992 -0.47623,-0.72249 -0.47623,-0.82441 0,-0.10191 -0.29969,-0.69983 -0.67226,-1.33851 -0.39618,-0.68059 -0.63326,-1.31474 -0.57783,-1.54575 0.0605,-0.25366 -0.13035,-0.65907 -0.54193,-1.15281 -0.34279,-0.41219 -0.63427,-0.96594 -0.63427,-1.20488 0,-0.23894 -0.17654,-0.69078 -0.38078,-0.97842 -0.56963,-0.80401 -1.14951,-2.36675 -1.03149,-2.7812 0.0698,-0.24801 -0.0821,-0.57075 -0.45571,-0.96823 -0.31713,-0.33859 -0.56038,-0.74965 -0.56038,-0.94783 0,-0.19703 -0.19193,-0.60811 -0.43826,-0.93764 -0.24426,-0.32727 -0.662,-1.11204 -0.94322,-1.77223 -0.28018,-0.65907 -0.57783,-1.2332 -0.67226,-1.29436 -0.23811,-0.15627 -0.86418,-1.74392 -1.02018,-2.5887 -0.30586,-1.64767 -1.45537,-4.46965 -2.25799,-5.54092 -0.12526,-0.16759 -0.28738,-0.6081 -0.35307,-0.95802 -0.0657,-0.34992 -0.28942,-0.81534 -0.48545,-1.01011 -0.20528,-0.20271 -0.36437,-0.45411 -0.36437,-0.57641 0,-0.1189 -0.33663,-0.97841 -0.74719,-1.90586 -0.49983,-1.13241 -0.78617,-2.1029 -0.86726,-2.94542 -0.0821,-0.84477 -0.20118,-1.25697 -0.36436,-1.25697 -0.29763,0 -0.8221,-1.05089 -0.8221,-1.64767 0,-0.22649 -0.079,-0.41221 -0.17654,-0.41221 -0.0996,0 -0.36743,-0.42239 -0.60761,-0.95802 -0.23912,-0.53564 -0.61478,-1.14827 -0.84981,-1.3906 -0.23298,-0.24008 -0.41978,-0.67946 -0.41978,-0.98861 0,-0.30914 -0.075,-0.60811 -0.16833,-0.67266 -0.1406,-0.0973 -1.62984,-2.43808 -3.00618,-4.72444 -0.545,-0.90706 -1.92442,-2.70534 -2.22104,-2.89786 -0.16832,-0.10871 -0.4054,-0.31027 -0.54192,-0.46089 -0.1293,-0.14268 -0.37359,-0.26725 -0.5224,-0.26725 -0.24325,0 -0.65997,-0.43257 -2.24157,-2.32825 -0.75743,-0.90706 -1.82895,-1.58651 -2.50121,-1.58651 -0.29252,0 -0.83136,-0.14043 -1.22343,-0.31935 -0.44749,-0.20496 -0.87445,-0.26385 -1.18544,-0.1642 -0.27095,0.0861 -0.896,0.17666 -1.41842,0.2061 -0.51317,0.0283 -1.60625,0.14382 -2.42732,0.25707 -0.83033,0.11437 -2.24052,0.15967 -3.17451,0.10302 -0.92681,-0.0566 -3.06162,-0.19138 -4.76126,-0.30009 -5.04146,-0.32161 -10.30153,-0.50959 -11.20267,-0.39974 -0.46288,0.0566 -2.8943,0.0227 -5.41504,-0.0737 -5.75065,-0.22083 -7.71202,-0.2514 -9.70828,-0.15288 -2.05476,0.10303 -10.515,-0.12683 -11.48388,-0.31142 -0.41157,-0.0781 -1.79201,-0.16079 -3.08008,-0.18345 -1.28398,-0.0227 -3.67846,-0.12004 -5.32166,-0.21629 -1.64319,-0.0962 -3.3028,-0.16646 -3.68768,-0.15514 -0.39208,0.0113 -0.69997,-0.0385 -0.69997,-0.11324 0,-0.0737 -0.94323,-0.0872 -2.09992,-0.0306 -1.16184,0.0566 -3.5204,0.0295 -5.27547,-0.0623 -1.75302,-0.0906 -4.92958,-0.20157 -7.09519,-0.24686 -2.1656,-0.0453 -4.56419,-0.18346 -5.35859,-0.30915 -1.02635,-0.16195 -1.54467,-0.16534 -1.81049,-0.0125 -0.40027,0.22875 -1.13925,0.15515 -1.9983,-0.19931 -0.26173,-0.10759 -0.57169,-0.14155 -0.67228,-0.0724 -0.25247,0.17213 -11.74457,0.16986 -12.23003,-0.002 -0.25146,-0.0895 -0.63428,-0.0181 -0.9894,0.18345 -0.50806,0.2899 -1.11976,0.31028 -5.00348,0.17552 -2.42733,-0.0849 -4.76228,-0.14041 -5.1718,-0.12456 -0.41156,0.0181 -1.61548,0.0917 -2.67981,0.16534 -1.1762,0.0815 -2.00549,0.0532 -2.11943,-0.0724 -0.12425,-0.13702 -0.36332,-0.10648 -0.71843,0.094 -0.389,0.21743 -1.1485,0.28424 -2.82865,0.24913 -2.42732,-0.0521 -4.56419,0.15515 -4.73354,0.4609 -0.0565,0.10191 -2.77219,0.19477 -6.02162,0.2061 -3.24842,0.0113 -7.09826,0.051 -8.5331,0.0872 -8.2519,0.21176 -11.27964,0.31481 -11.94986,0.40541 -0.857,0.11777 -2.79989,0.12569 -9.98848,0.0407 -2.81939,-0.0328 -5.38733,0.01 -5.69524,0.0951 -0.30687,0.0849 -3.21146,0.20497 -6.44139,0.26725 -3.22994,0.0623 -6.59638,0.2061 -7.46879,0.31934 -0.86829,0.11325 -2.38935,0.31369 -3.36028,0.44278 -0.97092,0.13023 -2.1964,0.26045 -2.70752,0.28877 -0.52241,0.0283 -1.30347,0.15174 -1.77354,0.27857 -0.46186,0.12457 -1.391737,0.22649 -2.06297,0.22649 -1.120775,0 -1.268574,-0.0521 -1.765333,-0.61831 -0.46493,-0.53111 -0.681493,-0.6183 -1.54055,-0.6183 -0.540888,0 -1.178266,-0.10526 -1.390712,-0.231 -0.635313,-0.37371 -2.577184,-0.35106 -3.024673,0.0363 -0.216563,0.18685 -0.802605,0.5379 -1.306545,0.78251 -0.915509,0.44277 -0.915509,0.44277 -0.812873,1.25584 0.07287,0.57753 0,1.02711 -0.251458,1.54576 -0.200137,0.4122 -0.355118,0.86176 -0.355118,1.02936 0,0.16306 -0.186795,0.32726 -0.41054,0.36124 -0.294565,0.0442 -0.448517,0.25707 -0.541916,0.75192 -0.06979,0.3703 -0.341775,0.94217 -0.5881,1.23547 -0.256589,0.30689 -0.514205,0.80402 -0.588102,1.13355 -0.07082,0.31935 -0.476228,0.96822 -0.886769,1.42119 -0.522416,0.5764 -0.724606,0.95802 -0.652763,1.23659 0.07287,0.28764 0,0.43033 -0.26172,0.50393 -0.232982,0.0657 -0.364355,0.27857 -0.364355,0.58772 0,0.26726 -0.191929,0.65001 -0.430043,0.85498 -0.242219,0.2095 -0.400277,0.51412 -0.36333,0.69983 0.03695,0.18572 -0.06158,0.44278 -0.224771,0.58772 -0.167296,0.14949 -0.289432,0.38276 -0.289432,0.55603 0,0.1642 -0.117008,0.34426 -0.260695,0.40201 -0.141636,0.0555 -0.364354,0.38049 -0.485465,0.71002 -0.121112,0.32953 -0.288405,0.60811 -0.364354,0.60811 -0.07697,0 -0.287381,0.42239 -0.466992,0.93764 -0.179612,0.51525 -0.516257,1.18791 -0.747187,1.49366 -0.23093,0.30575 -0.650708,1.05994 -0.932955,1.67824 -0.282248,0.6183 -0.840585,1.6001 -1.241889,2.18444 -0.396173,0.57639 -0.727684,1.21054 -0.727684,1.3906 0,0.18119 -0.243248,0.51864 -0.541917,0.75079 -0.382829,0.29896 -0.579889,0.6704 -0.672262,1.26831 -0.07287,0.47334 -0.353065,1.12449 -0.637365,1.48233 -0.654814,0.8244 -0.949379,1.44383 -0.949379,1.99872 0,0.5832 -0.855979,2.20369 -1.621638,3.06885 -0.345883,0.39181 -0.618892,0.90593 -0.618892,1.16413 0,0.24686 -0.131374,0.51638 -0.280195,0.57753 -0.153954,0.0612 -0.280196,0.29782 -0.280196,0.52431 0,0.22648 -0.150873,0.53337 -0.335617,0.68058 -0.18577,0.14834 -0.641471,0.96821 -1.018142,1.83338 -0.376674,0.86517 -0.810822,1.62049 -0.970932,1.68957 -0.158059,0.0669 -0.289432,0.32954 -0.289432,0.5764 0,0.24799 -0.211429,0.76211 -0.465966,1.13355 -0.254535,0.3703 -0.468016,0.82893 -0.468016,1.00899 0,0.18231 -0.332539,0.71115 -0.746159,1.1845 -0.413622,0.47335 -0.747188,0.96029 -0.747188,1.09165 0,0.1291 -0.245298,0.64887 -0.540888,1.14374 -0.295591,0.49487 -0.601444,1.1596 -0.672262,1.46309 -0.07287,0.30802 -0.288405,0.71116 -0.485465,0.90593 -0.186796,0.18458 -0.35512,0.44277 -0.35512,0.54583 0,0.10536 -0.257614,0.61829 -0.559362,1.11316 -0.302774,0.49373 -0.56039,1.04408 -0.56039,1.1947 0,0.15628 -0.192954,0.53563 -0.439279,0.86517 -0.246325,0.32952 -0.495729,0.79043 -0.569628,1.04975 -0.06979,0.248 -0.208349,0.46429 -0.298667,0.46429 -0.0934,0 -0.391042,0.52431 -0.672263,1.1845 -0.280195,0.65908 -0.577837,1.23887 -0.672262,1.30794 -0.09032,0.0669 -0.406436,0.67946 -0.690737,1.33853 -0.283273,0.65906 -0.663024,1.34304 -0.83032,1.49478 -0.168322,0.15062 -0.308932,0.39409 -0.308932,0.53451 0,0.14155 -0.634288,0.88895 -1.399949,1.64879 -1.362997,1.35325 -1.397893,1.41326 -1.328101,2.25578 0.0975,1.17432 0.251456,1.52197 1.029433,2.33278 1.054065,1.09845 2.539201,1.76544 3.659979,1.642 l 0.932956,-0.10191 1.307576,1.44157 c 1.362997,1.50385 2.540227,2.34298 3.006191,2.14027 0.147795,-0.0645 0.429017,-0.0385 0.597339,0.0555 1.120779,0.62282 2.150213,1.0588 2.502251,1.0588 0.223745,0 0.736923,-0.248 1.128989,-0.54582 l 0.71845,-0.54583 0.784134,0.42692 c 2.084526,1.13582 12.454808,1.63748 17.868827,0.86517 0.774901,-0.11095 2.987723,-0.31934 4.948049,-0.46769 1.960339,-0.14835 3.631247,-0.32274 3.734905,-0.39182 0.102595,-0.0669 2.455046,-0.18344 5.217986,-0.25705 2.76397,-0.0737 5.12459,-0.19818 5.23749,-0.27519 0.33254,-0.22987 4.49953,-0.21288 8.02917,0.0317 1.84846,0.12796 3.9063,0.17666 4.57446,0.1076 1.31168,-0.13589 6.4414,-0.0691 11.48285,0.14948 3.17348,0.13816 4.54367,0.15628 5.60082,0.0793 0.30791,-0.0227 5.0045,-0.004 10.41852,0.0407 5.41505,0.0453 9.90534,0.004 9.96179,-0.0929 0.0585,-0.0997 0.21451,-0.0691 0.36334,0.0724 0.17857,0.16873 1.04585,0.23442 2.72702,0.20724 3.13141,-0.051 4.91008,-0.0328 9.57793,0.0974 7.39386,0.20723 8.96213,0.25706 8.96213,0.28197 0,0.0181 2.76397,0.0724 6.16223,0.12117 7.46776,0.10983 11.35354,0.28537 12.71448,0.57753 0.29764,0.0634 2.85737,0.171 5.67677,0.23894 2.81938,0.068 5.79478,0.21743 6.60048,0.33067 0.8026,0.11212 2.03115,0.19931 2.71675,0.19139 1.56417,-0.0181 3.30383,0.12116 4.96653,0.39521 0.71845,0.11889 2.81837,0.30915 4.66786,0.42238 1.84743,0.11325 4.24295,0.29897 5.32063,0.4122 1.07869,0.11325 2.96923,0.23782 4.20086,0.27745 1.23265,0.0396 2.9128,0.18345 3.73491,0.31934 0.82929,0.13702 2.24052,0.27405 3.17451,0.30802 1.72736,0.0623 5.3391,0.37142 8.96213,0.76551 1.12899,0.12344 3.56554,0.30802 5.41402,0.40994 1.84846,0.1019 4.53751,0.27743 5.97542,0.39182 1.44101,0.11323 5.88101,0.25139 9.89508,0.30801 4.0151,0.0577 7.36615,0.10871 7.46879,0.11324 0.10474,0.007 0.59734,0.002 1.12077,-0.01 0.51627,-0.0113 1.64218,0.0352 2.52073,0.10414 0.87549,0.068 2.6326,0.15514 3.92067,0.19478 1.28807,0.0396 3.1704,0.18345 4.20087,0.31933 1.03252,0.13703 3.2864,0.27519 5.04145,0.30916 1.74276,0.0339 5.48894,0.20609 8.30835,0.38162 2.82042,0.17553 6.1458,0.28537 7.37538,0.24347 3.88372,-0.13249 9.79654,-0.1291 12.28546,0.007 2.26002,0.12231 2.4653,0.10079 3.32436,-0.35331 0.50394,-0.26725 0.96888,-0.66926 1.03662,-0.89574 0.0657,-0.22422 0.31816,-0.74287 0.5532,-1.13355 0.64251,-1.07127 0.76155,-2.92843 0.25351,-3.95554 z m -12.24338,-2.55473 c -0.0636,0.18571 -0.23092,0.32953 -0.38283,0.32953 -0.15294,0 -0.48547,0.15628 -0.76565,0.36124 -0.44236,0.32161 -0.95247,0.35332 -4.79822,0.29783 -2.3719,-0.0339 -6.18994,-0.13929 -8.50539,-0.23668 -2.31443,-0.0962 -6.54404,-0.2344 -9.41989,-0.30914 -2.87481,-0.0736 -5.30214,-0.19365 -5.40477,-0.26726 -0.1026,-0.0735 -1.58777,-0.20949 -3.28639,-0.30008 -4.03255,-0.21517 -5.04966,-0.32615 -5.32165,-0.57528 -0.15394,-0.14268 -0.2956,-0.11323 -0.45672,0.0929 -0.20219,0.25819 -1.27063,0.28311 -8.0107,0.18459 -4.2758,-0.0623 -8.86873,-0.13136 -10.20402,-0.15401 -1.3435,-0.0227 -2.75986,-0.14382 -3.17348,-0.26952 -0.91552,-0.2797 -3.97712,-0.51298 -6.72159,-0.51298 -1.13926,0 -2.17896,-0.0736 -2.33496,-0.16533 -0.15396,-0.0906 -1.79202,-0.22535 -3.64048,-0.29896 -1.84846,-0.0736 -3.94839,-0.23102 -4.66786,-0.34992 -0.72256,-0.12004 -2.01679,-0.23441 -2.8933,-0.25818 -0.87753,-0.0215 -2.03834,-0.15175 -2.59565,-0.28764 -0.55936,-0.13702 -1.77353,-0.248 -2.726,-0.248 -0.94218,0 -2.76397,-0.0929 -4.03356,-0.20497 -1.26858,-0.11324 -3.45369,-0.248 -4.83618,-0.29895 -1.38148,-0.051 -2.89946,-0.20498 -3.36029,-0.33973 -0.46186,-0.13702 -1.84847,-0.32387 -3.08112,-0.41673 -4.49952,-0.34086 -5.41607,-0.44278 -5.62032,-0.6217 -0.14882,-0.13249 -0.26685,-0.1223 -0.35408,0.0284 -0.0923,0.1608 -0.92474,0.18571 -2.86559,0.0827 -1.51285,-0.0793 -3.77903,-0.13023 -5.07018,-0.11325 -1.28808,0.017 -3.12833,-0.0669 -4.10747,-0.18685 -1.84128,-0.22535 -3.26689,-0.28196 -11.94983,-0.47334 -8.58855,-0.18911 -11.36894,-0.3001 -14.09699,-0.56168 -2.02295,-0.19478 -3.58506,-0.20044 -6.90839,-0.0249 -2.37088,0.12569 -5.92412,0.18458 -7.93474,0.13249 -4.74279,-0.1223 -9.77398,-0.13363 -13.72441,-0.0306 -1.7448,0.0464 -5.19028,-0.051 -7.65456,-0.21516 -2.46428,-0.1642 -5.13279,-0.30349 -5.92822,-0.30802 -0.9894,-0.008 -1.51592,-0.10191 -1.66474,-0.30008 -0.28636,-0.37823 -0.5296,-0.34992 -0.5296,0.0623 0,0.27404 -0.13959,0.30688 -0.83032,0.19591 -0.44853,-0.0724 -1.18339,-0.0283 -1.59701,0.094 -0.71536,0.21403 -6.29155,0.27292 -7.93474,0.0838 -1.86694,-0.21517 -11.44385,-0.27178 -12.23004,-0.0713 -0.46084,0.11664 -2.8194,0.29897 -5.228249,0.40428 -5.675738,0.248 -9.525596,0.56168 -9.913557,0.80854 -0.892929,0.56395 -10.923489,0.72815 -13.425742,0.21856 -0.559362,-0.11437 -1.408156,-0.25932 -1.866937,-0.31821 -1.30655,-0.16986 -2.29185,-0.5345 -2.800921,-1.03616 -0.359225,-0.35671 -0.765661,-0.48694 -1.77354,-0.573 -2.053735,-0.17666 -3.150908,-0.36917 -3.416734,-0.60131 -0.288405,-0.2514 -0.157032,-0.77005 0.439279,-1.73826 0.25351,-0.4122 0.456728,-0.9116 0.456728,-1.12336 0,-0.2061 0.128295,-0.38049 0.280195,-0.38049 0.156007,0 0.335618,-0.24801 0.40541,-0.55715 0.120086,-0.53564 0.874454,-1.90813 1.16286,-2.1165 0.08211,-0.0589 0.2843,-0.39634 0.448516,-0.74626 0.161139,-0.34539 0.602471,-1.04068 0.961693,-1.51517 0.358199,-0.47335 0.661999,-0.98407 0.661999,-1.11203 0,-0.1325 0.165244,-0.46316 0.373594,-0.75193 0.209375,-0.28763 0.373593,-0.70096 0.373593,-0.93651 0,-0.22761 0.173454,-0.58545 0.373592,-0.77344 0.202192,-0.18911 0.373594,-0.5764 0.373594,-0.84365 0,-0.28876 0.1714,-0.61943 0.410541,-0.79382 0.394121,-0.28651 0.593233,-0.64887 1.277811,-2.31806 0.139586,-0.33972 0.500862,-0.9365 0.803636,-1.32832 0.305853,-0.39409 0.755396,-1.17432 1.008906,-1.75072 0.254537,-0.5798 0.771818,-1.67938 1.166964,-2.48226 0.395147,-0.80401 0.941168,-1.94436 1.232653,-2.57511 0.284299,-0.6183 0.698947,-1.4144 0.911402,-1.75185 0.519335,-0.82441 0.773871,-1.30908 1.102305,-2.10064 0.154979,-0.37256 0.577837,-1.17431 0.936034,-1.77223 0.357171,-0.59679 0.784136,-1.43704 0.94322,-1.85377 0.156006,-0.41219 0.374619,-0.76211 0.475202,-0.76211 0.0975,0 0.186797,-0.11325 0.186797,-0.23668 0,-0.13023 0.198086,-0.52545 0.43928,-0.87649 0.240167,-0.34992 0.708184,-1.21509 1.03559,-1.91492 0.328434,-0.70096 0.720501,-1.38494 0.869322,-1.51518 0.148821,-0.13022 0.269932,-0.35217 0.269932,-0.49372 0,-0.14156 0.168322,-0.42466 0.373592,-0.6285 0.210403,-0.20836 0.422859,-0.65906 0.485467,-1.0305 0.06056,-0.35332 0.37154,-0.97841 0.672262,-1.34871 0.303801,-0.37483 0.709211,-1.07126 0.88677,-1.52423 0.177559,-0.4541 0.510098,-1.01352 0.727684,-1.2264 0.224773,-0.21856 0.402332,-0.51412 0.402332,-0.66927 0,-0.15174 0.296616,-0.63868 0.653788,-1.07126 0.356148,-0.43259 0.65276,-0.88668 0.65276,-0.99879 0,-0.11438 0.315091,-0.70097 0.709206,-1.31927 0.395153,-0.61717 0.854953,-1.45515 1.036621,-1.88434 0.18372,-0.43259 0.405413,-0.77344 0.503941,-0.77344 0.09955,0 0.181668,-0.11325 0.186798,-0.25706 0.0051,-0.14155 0.257613,-0.62849 0.560394,-1.08146 0.302767,-0.45297 0.63326,-1.02824 0.733841,-1.27737 0.217589,-0.54015 0.526512,-0.573 1.721192,-0.17779 1.047907,0.34653 2.427333,0.17439 3.734905,-0.46428 0.59734,-0.29217 1.088959,-0.38956 1.539539,-0.30463 0.43003,0.0793 0.77181,0.0215 0.97195,-0.16534 0.19603,-0.18458 0.71845,-0.27404 1.44613,-0.24686 0.62506,0.0215 2.09171,-0.094 3.24944,-0.25819 1.15568,-0.16306 3.08112,-0.29782 4.25732,-0.29782 1.23163,0 2.3134,-0.0974 2.53817,-0.22762 0.2689,-0.15514 2.96,-0.24233 8.54234,-0.27745 4.48107,-0.0283 8.23034,-0.094 8.32784,-0.14494 0.0975,-0.0498 2.39962,-0.1155 5.10714,-0.14382 2.7065,-0.0284 5.00861,-0.1076 5.10612,-0.17552 0.0975,-0.068 3.23918,-0.13702 6.97408,-0.15401 4.87312,-0.0227 6.85707,-0.0986 7.01102,-0.26838 0.16114,-0.1778 0.30791,-0.18233 0.5881,-0.0204 0.21246,0.12343 0.78414,0.16306 1.32605,0.0929 0.52242,-0.068 4.61142,-0.17893 9.07401,-0.24687 4.46257,-0.068 8.39146,-0.21516 8.71887,-0.32614 0.62813,-0.21176 2.83889,-0.25366 10.13935,-0.18685 2.40784,0.0215 5.12048,-0.0623 6.01239,-0.18458 2.67981,-0.36804 8.83075,-0.29783 16.85993,0.19251 1.96032,0.1189 4.29939,0.19817 5.22824,0.1744 2.30211,-0.0578 2.59463,-0.0464 5.69421,0.20949 1.81151,0.14948 3.52963,0.15967 5.1913,0.0283 1.79202,-0.14155 2.59155,-0.13249 2.87481,0.0306 0.24222,0.14041 0.83033,0.18005 1.54055,0.10302 0.62609,-0.0669 1.98806,-0.0339 2.99696,0.0724 1.91417,0.20383 4.76024,0.34426 10.64227,0.52431 1.84847,0.0577 4.62169,0.15061 6.16121,0.20723 1.54672,0.0566 4.72431,0.14835 7.09519,0.20497 2.36678,0.0577 6.51734,0.16873 9.24232,0.248 2.726,0.0793 5.70344,0.1574 6.62921,0.17325 2.85636,0.0487 8.92621,0.47563 9.5215,0.66927 0.32844,0.10537 0.98015,0.1155 1.5036,0.0227 0.50806,-0.0906 1.59599,-0.10871 2.4181,-0.0407 1.363,0.11211 1.60008,0.1993 2.70752,0.99879 0.67226,0.48468 1.53851,0.94444 1.94187,1.02937 0.41053,0.0883 1.02122,0.43824 1.39993,0.80401 0.3654,0.35219 1.06434,0.91726 1.53133,1.23661 0.69382,0.47448 0.92373,0.7825 1.19467,1.6069 0.18373,0.55602 0.53577,1.23887 0.77491,1.50272 0.24222,0.26838 0.44235,0.65 0.44748,0.85497 0.006,0.1959 0.13445,0.55601 0.27199,0.76325 0.13753,0.20609 0.21246,0.47901 0.15806,0.57639 -0.0545,0.0986 0.0246,0.34992 0.16832,0.53564 0.14267,0.18572 0.32741,0.49487 0.39207,0.65907 0.0688,0.17553 0.27916,0.5764 0.48546,0.92745 0.20629,0.34992 0.36847,0.75645 0.37359,0.93651 0.005,0.17666 0.25147,0.55035 0.55013,0.83458 0.35717,0.33973 0.58298,0.80403 0.66301,1.36004 0.0678,0.47335 0.28123,1.00218 0.48548,1.20489 0.20526,0.20384 0.36436,0.53111 0.36436,0.75192 0,0.21177 0.15908,0.74174 0.34587,1.15395 0.18577,0.41219 0.40028,1.09277 0.46598,1.48345 0.0678,0.40314 0.3274,1.06108 0.5881,1.49366 0.26171,0.43259 0.46699,0.89462 0.46699,1.04975 0,0.15288 0.16832,0.44504 0.37358,0.65002 0.20527,0.20383 0.3736,0.53676 0.3736,0.7406 0,0.20949 0.0728,0.57753 0.16729,0.84478 0.0935,0.26159 0.35308,1.14374 0.57887,1.96701 0.22683,0.82439 0.48649,1.49479 0.57886,1.49479 0.0923,0 0.16833,0.15401 0.16833,0.33973 0,0.17892 0.14984,0.52543 0.31714,0.73153 0.32844,0.40541 0.79338,1.70882 0.79954,2.24446 0.003,0.18231 0.17139,0.49713 0.37667,0.70096 0.19911,0.19704 0.37358,0.58772 0.37358,0.83459 0,0.24687 0.13137,0.58093 0.2802,0.71456 0.31509,0.28423 0.95657,1.70542 1.13104,2.50943 0.0668,0.30802 0.28636,0.61604 0.49369,0.68965 0.30996,0.11211 0.35407,0.24799 0.26069,0.80401 -0.0863,0.51525 -0.0257,0.75419 0.26171,1.03956 0.20527,0.20383 0.3736,0.46429 0.3736,0.57753 0,0.11551 0.10981,0.34992 0.25145,0.53564 0.28122,0.36803 1.24188,3.31685 1.24188,3.81058 0,0.18571 0.0821,0.32953 0.18681,0.32953 0.10057,0 0.27403,0.21629 0.3736,0.4643 0.0995,0.24686 0.26582,0.60697 0.3551,0.77231 0.0933,0.17098 0.27712,0.72021 0.41363,1.23545 0.22067,0.83121 0.6466,1.50386 1.68218,2.6578 0.26686,0.29669 0.52962,1.48346 0.61993,2.80159 0.0165,0.22988 0.35511,0.88556 0.76669,1.48347 0.92064,1.33738 2.87481,5.56244 3.41058,7.37543 0.10361,0.34992 0.19089,0.63076 0.20219,0.64888 0.0101,0.017 -0.0308,0.17439 -0.0933,0.36011"
       style="fill:#000000;fill-opacity:1;fill-rule:nonzero;stroke:none"
       id="path1210"
       inkscape:connector-curvature="0" />
  </g>
</svg>
