<?xml version="1.0" encoding="UTF-8" standalone="no"?>
<!-- Created with Inkscape (http://www.inkscape.org/) -->

<svg
   xmlns:dc="http://purl.org/dc/elements/1.1/"
   xmlns:cc="http://creativecommons.org/ns#"
   xmlns:rdf="http://www.w3.org/1999/02/22-rdf-syntax-ns#"
   xmlns:svg="http://www.w3.org/2000/svg"
   xmlns="http://www.w3.org/2000/svg"
   xmlns:sodipodi="http://sodipodi.sourceforge.net/DTD/sodipodi-0.dtd"
   xmlns:inkscape="http://www.inkscape.org/namespaces/inkscape"
   width="21.26656mm"
   height="18.152674mm"
   viewBox="0 0 75.353953 64.320495"
   id="svg6079"
   version="1.1"
   inkscape:version="0.91 r13725"
   sodipodi:docname="button2_highlight.svg">
  <defs
     id="defs6081" />
  <sodipodi:namedview
     id="base"
     pagecolor="#ffffff"
     bordercolor="#666666"
     borderopacity="1.0"
     inkscape:pageopacity="0.0"
     inkscape:pageshadow="2"
     inkscape:zoom="4"
     inkscape:cx="-8.514342"
     inkscape:cy="23.082241"
     inkscape:document-units="px"
     inkscape:current-layer="layer1"
     showgrid="false"
     inkscape:snap-global="true"
     fit-margin-top="0"
     fit-margin-left="0"
     fit-margin-right="0"
     fit-margin-bottom="0"
     inkscape:window-width="956"
     inkscape:window-height="1041"
     inkscape:window-x="960"
     inkscape:window-y="18"
     inkscape:window-maximized="0" />
  <metadata
     id="metadata6084">
    <rdf:RDF>
      <cc:Work
         rdf:about="">
        <dc:format>image/svg+xml</dc:format>
        <dc:type
           rdf:resource="http://purl.org/dc/dcmitype/StillImage" />
        <dc:title></dc:title>
      </cc:Work>
    </rdf:RDF>
  </metadata>
  <g
     inkscape:label="Layer 1"
     inkscape:groupmode="layer"
     id="layer1"
     transform="translate(-145.93253,-142.78421)">
    <g
       id="g584"
       transform="matrix(0.45406431,0,0,-0.36748243,171.04,184.26246)">
      <path
         d="m 0,0 c 3.828,-15.463 21.228,-19.797 35.903,-17.34 17.026,2.852 27.451,25.817 13.602,41.34 -4.518,5.064 -10.141,9.142 -15.654,14.021 2.585,3.227 5.6,6.737 8.335,10.454 6.404,8.711 3.313,16.387 -6.975,19.75 -12.3,4.019 -24.288,0.486 -36.367,-0.47 -4.906,-0.389 -6.238,-3.956 -4.408,-8.682 3.058,-7.901 9.702,-9.583 15.943,-9.34 C 9.262,45.038 6.619,40.339 7.615,36.611 9.09,31.089 12.699,25.857 18.917,23.696 21.416,22.828 24.04,22.175 26.351,20.943 32.288,17.777 33.729,11.161 30.169,4.539 27.156,-1.062 24.399,-1.679 17.146,2.297 10.985,5.675 5.37,6.406 0,0 m 23.604,-42.156 c -6.281,1.357 -13.375,1.96 -19.742,4.435 -21.309,8.286 -26.435,20.637 -27.797,45.783 -1.023,18.897 2.863,37.079 10.417,54.437 5.081,11.674 11.554,22.386 22.099,30.011 8.513,6.155 17.71,6.388 27.456,3.121 3.62,-1.213 8.161,-2.705 11.364,-1.541 7.816,2.838 12.747,-1.319 17.85,-5.462 C 78.263,78.065 86.685,64.249 91.529,48.465 96.513,32.23 93.319,16.174 87.78,0.683 81.937,-15.659 70.403,-27.404 55.282,-35.473 45.681,-40.596 34.885,-40.757 23.604,-42.156"
         style="fill:#ffffff;fill-opacity:1;fill-rule:evenodd;stroke:none"
         id="path586"
         inkscape:connector-curvature="0" />
    </g>
    <ellipse
       style="fill:#ffff00;fill-opacity:0.43137255;stroke:none;stroke-opacity:1"
       id="path4143"
       cx="183.18253"
       cy="175.10471"
       rx="34"
       ry="30.25" />
    <g
       id="g580"
       transform="matrix(0.45406431,0,0,-0.36748243,178.48803,200.87767)">
      <path
         d="m 0,0 c 11.281,1.399 22.077,1.561 31.679,6.684 15.121,8.068 26.654,19.813 32.498,36.155 5.539,15.491 8.732,31.547 3.749,47.782 -4.845,15.784 -13.267,29.6 -26.279,40.163 -5.102,4.143 -10.034,8.3 -17.849,5.462 -3.203,-1.163 -7.744,0.328 -11.364,1.542 -9.746,3.266 -18.944,3.033 -27.456,-3.122 C -25.567,127.041 -32.04,116.33 -37.121,104.655 -44.676,87.297 -48.562,69.115 -47.538,50.218 -46.177,25.072 -41.051,12.722 -19.741,4.436 -13.374,1.96 -6.28,1.357 0,0 m -71.698,58.428 c 0.492,32.782 10.41,60.261 30.03,84.473 3.743,4.619 7.7,7.609 13.09,9.499 12.604,4.42 25.076,7.978 38.698,3.876 5.199,-1.565 11.224,-1.874 16.602,-1.031 8.998,1.409 16.84,-1.132 23.272,-6.387 12.075,-9.864 23.735,-20.436 31.935,-33.953 C 93.206,96.315 96.38,76.408 92.939,54.699 89.552,33.323 78.662,16.963 63.116,3.216 57.996,-1.312 51.489,-4.488 45.231,-7.476 19.797,-19.617 -6.56,-19.76 -32.271,-9.755 c -23.435,9.12 -35.153,28.48 -38.576,52.943 -0.781,5.582 -0.65,11.291 -0.851,15.24"
         style="fill:#231f20;fill-opacity:1;fill-rule:evenodd;stroke:none"
         id="path582"
         inkscape:connector-curvature="0" />
    </g>
    <g
       id="g612"
       transform="matrix(0.2712316,0,0,-0.22033432,169.16194,166.02752)">
      <path
         d="m 0,0 c -9.722,-4.271 -15.001,1.727 -20.852,7.024 2.247,6.234 6.663,8.352 11.798,8.735 7.937,0.59 15.918,0.879 23.875,0.801 C 22.177,16.489 25.896,12.96 26,5.616 26.054,1.789 25.253,-2.466 23.486,-5.815 20.098,-12.24 16.172,-18.494 11.679,-24.195 6.593,-30.65 3.609,-37.764 1.376,-47.134 c 6.314,1.173 11.686,2.131 17.036,3.189 1.938,0.382 4.009,1.748 5.697,1.338 2.37,-0.575 5.338,-1.899 6.382,-3.812 1.022,-1.872 0.643,-5.229 -0.389,-7.304 -1.107,-2.223 -3.391,-4.562 -5.684,-5.377 -12.063,-4.28 -24.388,-6.834 -37.022,-2.3 -2.153,0.771 -4.25,1.984 -6.05,3.402 -5.387,4.244 -5.734,6.547 -3.94,13.588 3.281,12.869 10.594,23.554 17.91,34.271 1.833,2.684 3.669,5.366 5.504,8.048 C 0.547,-1.394 0.273,-0.697 0,0"
         style="fill:#231f20;fill-opacity:1;fill-rule:evenodd;stroke:none"
         id="path614"
         inkscape:connector-curvature="0" />
    </g>
    <path
       inkscape:connector-curvature="0"
       id="path58"
       style="fill:#000000;fill-opacity:1;fill-rule:nonzero;stroke:none"
       d="m 186.71547,153.41499 c -0.0383,-0.0575 -0.0793,4.9e-4 -0.089,0.12686 -0.01,0.13025 -0.0799,0.15033 -0.15721,0.0454 -0.0776,-0.1043 -0.13157,-0.26314 -0.12188,-0.35857 0.0308,-0.29593 -0.14224,-0.60064 -0.25927,-0.45704 -0.0585,0.0719 -0.17505,0.0327 -0.24609,-0.0828 -0.12069,-0.19696 -0.14534,-0.14869 -0.22993,0.45684 -0.0692,0.49376 -0.14861,0.73788 -0.29395,0.89871 -0.23588,0.26189 -0.96384,2.85536 -0.97724,3.48063 -0.0101,0.47629 -0.24008,1.42405 -0.94489,3.90005 -1.08251,3.80048 -2.33242,8.41302 -2.70227,9.97106 -0.47284,1.99124 -5.73754,18.62097 -5.89253,18.61427 -0.12262,-0.006 -1.0952,3.21646 -1.07913,3.57537 0.006,0.13266 0.0456,0.71748 0.089,1.31354 0.0684,0.93578 0.11308,1.15982 0.34365,1.72686 0.16232,0.39766 0.31694,0.65272 0.39856,0.65438 0.527,0.0165 0.68978,0.12071 0.80407,0.51549 0.0952,0.32982 0.12619,0.36217 0.14258,0.14203 0.0144,-0.19034 0.0789,-0.1843 0.20251,0.0209 0.15172,0.2508 0.19956,0.22704 0.29243,-0.14622 0.0597,-0.23908 0.17748,-0.44295 0.25467,-0.43917 0.17024,0.006 1.01561,-2.66217 1.24699,-3.93729 0.0812,-0.44848 0.26276,-1.11363 0.40298,-1.47791 0.51792,-1.34894 1.13397,-3.29859 1.48922,-4.71607 0.19945,-0.79666 0.40164,-1.45419 0.44933,-1.46194 0.0474,-0.008 0.27025,-0.6782 0.4934,-1.48318 0.22447,-0.81117 0.75315,-2.63576 1.18126,-4.07398 0.42814,-1.4382 0.80918,-2.80853 0.85137,-3.05939 0.14239,-0.85022 1.89749,-7.1202 2.96923,-10.60562 0.83519,-2.71517 1.09092,-3.44603 1.18593,-3.3921 0.0815,0.047 0.1936,-0.19186 0.34188,-0.73005 0.16934,-0.61393 0.26229,-0.79473 0.40094,-0.7783 0.1016,0.0115 0.17635,-0.0273 0.17073,-0.0888 -0.006,-0.0602 0.14115,-0.46872 0.32346,-0.90235 0.18263,-0.43286 0.32968,-0.89903 0.32474,-1.02705 -0.005,-0.13262 0.0155,-0.41026 0.0475,-0.63194 0.0319,-0.22174 0.0101,-0.8831 -0.0494,-1.50522 l -0.10614,-1.11017 -0.59319,-1.43457 c -0.32645,-0.78948 -0.62511,-1.48362 -0.6641,-1.54284" />
    <g
       id="g4156"
       transform="matrix(0.47060296,0,0,0.50545731,108.87334,60.77204)">
      <path
         d="m 205.61805,232.54977 c -0.0207,-0.0925 -0.1134,-0.13031 -0.20192,-0.0816 -0.0906,0.0507 -0.20262,-0.0547 -0.25102,-0.23575 -0.0491,-0.18104 -0.0325,-0.35114 0.0373,-0.38397 0.21852,-0.10046 0.15144,-0.54113 -0.10027,-0.6605 -0.12586,-0.0597 -0.269,-0.27156 -0.3022,-0.44762 -0.056,-0.29942 -0.11963,-0.31533 -0.59747,-0.14523 -0.39002,0.13826 -0.64727,0.1323 -0.94946,-0.0249 -0.49098,-0.25465 -3.05929,-0.12832 -3.44724,0.1691 -0.29528,0.2268 -1.1825,0.33224 -3.64847,0.43669 -3.78608,0.15915 -8.28996,0.45757 -9.73663,0.64458 -1.84912,0.23874 -19.16898,0.0657 -19.38612,-0.19297 -0.1715,-0.20492 -3.45968,-0.16015 -3.64847,0.0497 -0.0698,0.0776 -0.35821,0.44166 -0.64795,0.81767 -0.45434,0.59087 -0.5228,0.77887 -0.52833,1.44832 -0.003,0.47051 0.0671,0.85547 0.18256,0.99075 0.74201,0.87635 0.91281,1.19765 0.84297,1.58758 -0.0588,0.32528 -0.0332,0.39292 0.11963,0.30737 0.13277,-0.0736 0.22129,0.0358 0.27661,0.34418 0.0685,0.378 0.15075,0.44464 0.50343,0.40684 0.22613,-0.0239 0.51449,0.0657 0.62237,0.19497 0.23926,0.2835 3.01918,0.31234 4.10141,0.0418 0.38034,-0.0955 1.03175,-0.13628 1.44667,-0.0915 1.53449,0.16413 3.56341,0.18204 4.90635,0.0428 0.75445,-0.0786 1.43075,-0.0816 1.50336,-0.007 0.0719,0.0746 0.78557,0.0985 1.57875,0.0547 0.79871,-0.0448 2.62917,-0.10644 4.08828,-0.13628 1.45911,-0.0298 2.81103,-0.10246 3.01918,-0.16114 0.70466,-0.19994 6.90692,-0.51328 10.49177,-0.5292 2.79306,-0.0119 3.589,0.0358 3.69273,0.21984 0.0885,0.15816 0.38933,0.22083 0.91834,0.18999 0.6037,-0.0348 0.84297,0.0259 1.03106,0.26261 0.1383,0.17308 0.26762,0.27653 0.29597,0.23575 0.0277,-0.0398 0.47784,-0.007 0.99372,0.0716 0.51587,0.0796 1.00063,0.0836 1.06909,0.01 0.0705,-0.0766 0.26416,-0.18403 0.4405,-0.2447 0.17634,-0.0607 0.53524,-0.4347 0.81738,-0.8505 l 0.50343,-0.74206 0,-1.70994 c 0,-0.94101 -0.0166,-1.78752 -0.0373,-1.88202"
         style="fill:#000000;fill-opacity:1;fill-rule:nonzero;stroke:none"
         id="path58-3"
         inkscape:connector-curvature="0" />
      <path
         d="m 191.04435,247.6307 c -0.13277,-0.0508 -0.1695,-0.18999 -0.11723,-0.44636 0.0763,-0.3729 -0.15679,-1.14343 -0.34536,-1.14343 -0.0586,0 -0.13843,-0.0968 -0.18646,-0.2253 -0.0452,-0.12218 -0.19775,-0.43011 -0.33406,-0.67447 -0.13913,-0.24931 -0.25072,-0.65541 -0.25072,-0.91178 0,-0.32135 -0.0982,-0.56854 -0.32064,-0.80937 -0.20481,-0.22106 -0.32135,-0.50144 -0.32135,-0.77123 0,-0.58125 -0.3729,-0.80796 -1.51633,-0.92238 -0.51415,-0.0516 -0.95769,-0.14407 -0.99865,-0.20834 -0.11017,-0.17374 -1.32635,0.0205 -1.98176,0.3164 -0.32134,0.14549 -0.72109,0.32417 -0.89977,0.40186 -0.7451,0.32417 -2.95498,2.16044 -2.95498,2.45495 0,0.0918 -0.14761,0.34748 -0.3277,0.56572 -0.17939,0.21823 -0.28957,0.45906 -0.24366,0.53322 0.0466,0.0749 -0.0388,0.16597 -0.19281,0.20552 -0.20552,0.0523 -0.25496,0.1349 -0.19281,0.32135 0.0516,0.15396 -7.2e-4,0.31216 -0.13489,0.41104 -0.3044,0.22459 -0.10312,1.01136 0.2825,1.106 0.21823,0.0537 0.25567,0.11371 0.16385,0.26202 -0.17727,0.28815 -0.15538,0.34677 0.33971,0.89977 0.29875,0.33406 0.57278,0.51345 0.78112,0.51345 0.25708,0 0.30864,0.0516 0.25708,0.25708 -0.0417,0.16738 -0.004,0.25708 0.10947,0.25708 0.0989,0 0.23659,0.11582 0.32135,0.26979 0.14054,0.25708 0.15961,0.25849 0.39832,0.0388 0.23095,-0.214 0.26626,-0.2147 0.4619,-0.0134 0.16244,0.16738 0.17586,0.25496 0.0579,0.3729 -0.23236,0.23236 -0.17939,0.38279 0.10311,0.29451 0.13207,-0.041 0.44918,0.0212 0.69354,0.1356 0.34537,0.16315 0.66812,0.19564 1.3878,0.13984 1.65759,-0.12924 1.9069,-0.17374 2.14561,-0.38844 0.12854,-0.11512 0.32841,-0.20693 0.44918,-0.20693 0.54665,0 1.59685,-0.66812 2.42529,-1.54176 0.4746,-0.50145 0.86446,-0.96758 0.86446,-1.03467 0,-0.0727 0.0516,-0.12218 0.12854,-0.12218 0.19351,0 0.15396,-0.25708 -0.0516,-0.33689 z m -0.69425,-1.07634 c -0.18504,0 -0.26696,-0.14125 -0.19422,-0.33406 0.10241,-0.26908 0.29734,-0.21823 0.29734,0.0777 0,0.14125 -0.0459,0.25637 -0.10312,0.25637"
         style="fill:#000000;fill-opacity:1;fill-rule:nonzero;stroke:none"
         id="path64"
         inkscape:connector-curvature="0" />
      <path
         d="m 190.03124,222.41866 c -0.0762,-0.23459 -0.22644,-0.48619 -0.34067,-0.56847 -0.1122,-0.0823 -0.204,-0.25975 -0.204,-0.39643 0,-0.25091 -0.58139,-1.06554 -0.9649,-1.35181 -0.1734,-0.1292 -0.18156,-0.18564 -0.0496,-0.31823 0.21828,-0.2176 0.19788,-0.46987 -0.0367,-0.46987 -0.11152,0 -0.22779,-0.0809 -0.26587,-0.18564 -0.0401,-0.1088 -0.21692,-0.18564 -0.42703,-0.18564 -0.2006,0 -0.56303,-0.10879 -0.82279,-0.24751 -0.25975,-0.13804 -0.6351,-0.24752 -0.85338,-0.24752 -0.22235,0 -0.41751,-0.0741 -0.45423,-0.17271 -0.0632,-0.17136 -1.46945,-0.41207 -1.97672,-0.33864 -0.57118,0.083 -1.44973,0.67251 -1.92436,1.2913 -0.28423,0.37127 -0.5127,0.72282 -0.5127,0.7915 0,0.0666 -0.1768,0.34611 -0.38352,0.60587 -0.64938,0.81666 -0.97238,1.6612 -0.89894,2.35071 0.102,0.95266 0.0707,1.30557 -0.136,1.53337 -0.15231,0.16931 -0.17135,0.27879 -0.0782,0.45219 0.068,0.12443 0.15503,0.38351 0.19175,0.56914 0.0374,0.18496 0.14144,0.34 0.22916,0.34 0.16319,0 0.70514,0.6555 0.70514,0.85338 0,0.0626 0.136,0.2006 0.30871,0.31347 0.33456,0.21828 0.42636,0.51339 0.12376,0.39711 -0.26655,-0.10267 -0.22235,0.26112 0.0496,0.40731 0.1224,0.0653 0.33455,0.0884 0.47055,0.051 0.1836,-0.0503 0.31551,0.0435 0.51339,0.36516 0.14416,0.23459 0.35631,0.46715 0.46375,0.50863 0.51951,0.19991 3.92352,-0.0442 4.18055,-0.29988 0.0694,-0.068 0.19244,-0.1224 0.2788,-0.1224 0.0857,0 0.36515,-0.14075 0.6249,-0.31551 0.25976,-0.17408 0.65211,-0.40323 0.87786,-0.51135 0.49503,-0.23731 1.1383,-0.95878 1.1383,-1.27633 0,-0.136 0.0415,-0.24684 0.0925,-0.24684 0.051,0 0.10744,-0.46375 0.12376,-1.02065 0.017,-0.55691 0.0456,-1.27362 0.0619,-1.57757 0.0177,-0.30871 -0.0292,-0.74323 -0.10472,-0.97714"
         style="fill:#000000;fill-opacity:1;fill-rule:nonzero;stroke:none"
         id="path66"
         inkscape:connector-curvature="0" />
    </g>
  </g>
</svg>
