<?xml version="1.0" encoding="UTF-8" standalone="no"?>
<!-- Created with Inkscape (http://www.inkscape.org/) -->

<svg
   xmlns:dc="http://purl.org/dc/elements/1.1/"
   xmlns:cc="http://creativecommons.org/ns#"
   xmlns:rdf="http://www.w3.org/1999/02/22-rdf-syntax-ns#"
   xmlns:svg="http://www.w3.org/2000/svg"
   xmlns="http://www.w3.org/2000/svg"
   xmlns:sodipodi="http://sodipodi.sourceforge.net/DTD/sodipodi-0.dtd"
   xmlns:inkscape="http://www.inkscape.org/namespaces/inkscape"
   width="21.26656mm"
   height="18.152674mm"
   viewBox="0 0 75.353953 64.320495"
   id="svg6079"
   version="1.1"
   inkscape:version="0.91 r13725"
   sodipodi:docname="buttonMinus_clear.svg">
  <defs
     id="defs6081" />
  <sodipodi:namedview
     id="base"
     pagecolor="#ffffff"
     bordercolor="#666666"
     borderopacity="1.0"
     inkscape:pageopacity="0.0"
     inkscape:pageshadow="2"
     inkscape:zoom="1.4142136"
     inkscape:cx="71.35167"
     inkscape:cy="-21.479033"
     inkscape:document-units="px"
     inkscape:current-layer="layer1"
     showgrid="false"
     inkscape:snap-global="true"
     fit-margin-top="0"
     fit-margin-left="0"
     fit-margin-right="0"
     fit-margin-bottom="0"
     inkscape:window-width="1920"
     inkscape:window-height="1080"
     inkscape:window-x="0"
     inkscape:window-y="0"
     inkscape:window-maximized="0" />
  <metadata
     id="metadata6084">
    <rdf:RDF>
      <cc:Work
         rdf:about="">
        <dc:format>image/svg+xml</dc:format>
        <dc:type
           rdf:resource="http://purl.org/dc/dcmitype/StillImage" />
        <dc:title />
      </cc:Work>
    </rdf:RDF>
  </metadata>
  <g
     inkscape:label="Layer 1"
     inkscape:groupmode="layer"
     id="layer1"
     transform="translate(-145.93253,-142.78421)">
    <g
       id="g584"
       transform="matrix(0.50698409,0,0,-0.39071772,166.06517,183.28295)">
      <path
         d="m 0,0 c 3.828,-15.463 21.228,-19.797 35.903,-17.34 17.026,2.852 27.451,25.817 13.602,41.34 -4.518,5.064 -10.141,9.142 -15.654,14.021 2.585,3.227 5.6,6.737 8.335,10.454 6.404,8.711 3.313,16.387 -6.975,19.75 -12.3,4.019 -24.288,0.486 -36.367,-0.47 -4.906,-0.389 -6.238,-3.956 -4.408,-8.682 3.058,-7.901 9.702,-9.583 15.943,-9.34 C 9.262,45.038 6.619,40.339 7.615,36.611 9.09,31.089 12.699,25.857 18.917,23.696 21.416,22.828 24.04,22.175 26.351,20.943 32.288,17.777 33.729,11.161 30.169,4.539 27.156,-1.062 24.399,-1.679 17.146,2.297 10.985,5.675 5.37,6.406 0,0 m 23.604,-42.156 c -6.281,1.357 -13.375,1.96 -19.742,4.435 -21.309,8.286 -26.435,20.637 -27.797,45.783 -1.023,18.897 2.863,37.079 10.417,54.437 5.081,11.674 11.554,22.386 22.099,30.011 8.513,6.155 17.71,6.388 27.456,3.121 3.62,-1.213 8.161,-2.705 11.364,-1.541 7.816,2.838 12.747,-1.319 17.85,-5.462 C 78.263,78.065 86.685,64.249 91.529,48.465 96.513,32.23 93.319,16.174 87.78,0.683 81.937,-15.659 70.403,-27.404 55.282,-35.473 45.681,-40.596 34.885,-40.757 23.604,-42.156"
         style="fill:#ffffff;fill-opacity:1;fill-rule:evenodd;stroke:none"
         id="path586"
         inkscape:connector-curvature="0" />
    </g>
    <g
       id="g580"
       transform="matrix(0.45406431,0,0,-0.36748243,178.48803,200.87767)">
      <path
         d="m 0,0 c 11.281,1.399 22.077,1.561 31.679,6.684 15.121,8.068 26.654,19.813 32.498,36.155 5.539,15.491 8.732,31.547 3.749,47.782 -4.845,15.784 -13.267,29.6 -26.279,40.163 -5.102,4.143 -10.034,8.3 -17.849,5.462 -3.203,-1.163 -7.744,0.328 -11.364,1.542 -9.746,3.266 -18.944,3.033 -27.456,-3.122 C -25.567,127.041 -32.04,116.33 -37.121,104.655 -44.676,87.297 -48.562,69.115 -47.538,50.218 -46.177,25.072 -41.051,12.722 -19.741,4.436 -13.374,1.96 -6.28,1.357 0,0 m -71.698,58.428 c 0.492,32.782 10.41,60.261 30.03,84.473 3.743,4.619 7.7,7.609 13.09,9.499 12.604,4.42 25.076,7.978 38.698,3.876 5.199,-1.565 11.224,-1.874 16.602,-1.031 8.998,1.409 16.84,-1.132 23.272,-6.387 12.075,-9.864 23.735,-20.436 31.935,-33.953 C 93.206,96.315 96.38,76.408 92.939,54.699 89.552,33.323 78.662,16.963 63.116,3.216 57.996,-1.312 51.489,-4.488 45.231,-7.476 19.797,-19.617 -6.56,-19.76 -32.271,-9.755 c -23.435,9.12 -35.153,28.48 -38.576,52.943 -0.781,5.582 -0.65,11.291 -0.851,15.24"
         style="fill:#231f20;fill-opacity:1;fill-rule:evenodd;stroke:none"
         id="path582"
         inkscape:connector-curvature="0" />
    </g>
    <path
       d="m 205.14648,170.68778 c -0.0734,-0.14832 -0.13218,-0.53545 -0.13218,-0.86992 0,-0.49008 -0.0467,-0.5918 -0.25345,-0.54767 -0.24375,0.0501 -0.52024,-0.38842 -0.75004,-1.18972 -0.13824,-0.48394 -0.45232,-0.57339 -1.89722,-0.53664 -0.50749,0.0142 -1.12231,0.15802 -1.3794,0.32469 -0.25345,0.16428 -0.63726,0.37125 -0.84887,0.45703 -0.20979,0.0845 -0.43655,0.23767 -0.49659,0.33446 -0.16613,0.27078 -0.97073,0.6751 -1.56615,0.78661 -1.25754,0.23769 -3.14202,0.88951 -3.41972,1.18478 -0.12248,0.12993 -0.86524,0.23402 -1.67105,0.23402 -0.7937,0 -1.51281,0.0808 -1.58799,0.17883 -0.0764,0.098 -2.14582,0.18631 -4.6051,0.1948 -4.97496,0.0182 -8.10485,0.21318 -9.43151,0.58322 -0.48507,0.13599 -1.10535,0.19722 -1.3788,0.13599 -0.27286,-0.0612 -1.19085,0.038 -2.04032,0.22177 -1.93056,0.41657 -7.17171,0.56483 -7.93083,0.22545 -0.30317,-0.13599 -1.20236,-0.25729 -1.99666,-0.26833 -1.2351,-0.0202 -1.47278,0.0331 -1.63771,0.36757 -0.10186,0.20462 -0.29225,0.38964 -0.4026,0.38964 -0.29892,0 -0.4596,0.73513 -0.37896,1.73858 0.0431,0.53419 0.023,0.9275 -0.0515,1.02183 -0.1722,0.21686 -0.15461,2.07186 0.0219,2.29116 0.0734,0.0893 0.33106,0.16914 0.57419,0.1752 0.3638,0.008 0.44384,0.0893 0.45779,0.457 0.009,0.24506 0.0212,0.56607 0.0279,0.71309 0.0139,0.33449 0.36319,0.37982 0.5178,0.0675 0.0746,-0.15075 0.27043,-0.0637 0.60088,0.26709 0.29468,0.29406 0.69001,0.48641 0.98772,0.47905 0.27103,-0.006 0.8713,0 1.32362,0.0142 2.5369,0.076 6.78851,-0.1263 7.50035,-0.35777 0.45778,-0.14832 1.24662,-0.29529 1.76503,-0.32713 1.09201,-0.0697 4.1073,-0.56851 4.30193,-0.71186 0.19464,-0.14327 1.57708,-0.16792 2.01849,-0.0344 0.29043,0.0871 1.51098,0.0833 2.70243,-0.008 1.19144,-0.0919 2.89584,-0.0919 3.7726,0 0.88222,0.0919 2.16764,0.0772 2.86734,-0.0331 0.6979,-0.11155 2.16219,-0.23158 3.2542,-0.26833 1.092,-0.0368 2.15915,-0.12751 2.37198,-0.19965 0.21403,-0.0748 0.82703,-0.24626 1.37819,-0.38472 1.20236,-0.30386 2.08518,-0.61998 2.57024,-0.92015 0.52448,-0.32469 1.73169,-0.30754 2.47081,0.0368 0.34198,0.15923 0.73609,0.22667 0.88282,0.15075 0.33045,-0.16914 1.30119,-2.11229 1.30119,-2.60607 0,-0.18753 0.0746,-0.55625 0.15765,-0.77923 0.19948,-0.53543 0.2201,-2.60361 0.0297,-2.9871"
       style="fill:#000000;fill-opacity:1;fill-rule:nonzero;stroke:none"
       id="path56"
       inkscape:connector-curvature="0" />
  </g>
</svg>
