<?xml version="1.0" encoding="UTF-8" standalone="no"?>
<!-- Created with Inkscape (http://www.inkscape.org/) -->

<svg
   xmlns:dc="http://purl.org/dc/elements/1.1/"
   xmlns:cc="http://creativecommons.org/ns#"
   xmlns:rdf="http://www.w3.org/1999/02/22-rdf-syntax-ns#"
   xmlns:svg="http://www.w3.org/2000/svg"
   xmlns="http://www.w3.org/2000/svg"
   xmlns:sodipodi="http://sodipodi.sourceforge.net/DTD/sodipodi-0.dtd"
   xmlns:inkscape="http://www.inkscape.org/namespaces/inkscape"
   width="21.26656mm"
   height="18.152674mm"
   viewBox="0 0 75.353953 64.320495"
   id="svg6079"
   version="1.1"
   inkscape:version="0.91 r13725"
   sodipodi:docname="button4.svg">
  <defs
     id="defs6081" />
  <sodipodi:namedview
     id="base"
     pagecolor="#ffffff"
     bordercolor="#666666"
     borderopacity="1.0"
     inkscape:pageopacity="0.0"
     inkscape:pageshadow="2"
     inkscape:zoom="4"
     inkscape:cx="33.985658"
     inkscape:cy="35.207241"
     inkscape:document-units="px"
     inkscape:current-layer="layer1"
     showgrid="false"
     inkscape:snap-global="true"
     fit-margin-top="0"
     fit-margin-left="0"
     fit-margin-right="0"
     fit-margin-bottom="0"
     inkscape:window-width="636"
     inkscape:window-height="1041"
     inkscape:window-x="640"
     inkscape:window-y="18"
     inkscape:window-maximized="0" />
  <metadata
     id="metadata6084">
    <rdf:RDF>
      <cc:Work
         rdf:about="">
        <dc:format>image/svg+xml</dc:format>
        <dc:type
           rdf:resource="http://purl.org/dc/dcmitype/StillImage" />
        <dc:title></dc:title>
      </cc:Work>
    </rdf:RDF>
  </metadata>
  <g
     inkscape:label="Layer 1"
     inkscape:groupmode="layer"
     id="layer1"
     transform="translate(-145.93253,-142.78421)">
    <g
       id="g584"
       transform="matrix(0.45406431,0,0,-0.36748243,171.04,184.26246)">
      <path
         d="m 0,0 c 3.828,-15.463 21.228,-19.797 35.903,-17.34 17.026,2.852 27.451,25.817 13.602,41.34 -4.518,5.064 -10.141,9.142 -15.654,14.021 2.585,3.227 5.6,6.737 8.335,10.454 6.404,8.711 3.313,16.387 -6.975,19.75 -12.3,4.019 -24.288,0.486 -36.367,-0.47 -4.906,-0.389 -6.238,-3.956 -4.408,-8.682 3.058,-7.901 9.702,-9.583 15.943,-9.34 C 9.262,45.038 6.619,40.339 7.615,36.611 9.09,31.089 12.699,25.857 18.917,23.696 21.416,22.828 24.04,22.175 26.351,20.943 32.288,17.777 33.729,11.161 30.169,4.539 27.156,-1.062 24.399,-1.679 17.146,2.297 10.985,5.675 5.37,6.406 0,0 m 23.604,-42.156 c -6.281,1.357 -13.375,1.96 -19.742,4.435 -21.309,8.286 -26.435,20.637 -27.797,45.783 -1.023,18.897 2.863,37.079 10.417,54.437 5.081,11.674 11.554,22.386 22.099,30.011 8.513,6.155 17.71,6.388 27.456,3.121 3.62,-1.213 8.161,-2.705 11.364,-1.541 7.816,2.838 12.747,-1.319 17.85,-5.462 C 78.263,78.065 86.685,64.249 91.529,48.465 96.513,32.23 93.319,16.174 87.78,0.683 81.937,-15.659 70.403,-27.404 55.282,-35.473 45.681,-40.596 34.885,-40.757 23.604,-42.156"
         style="fill:#ffffff;fill-opacity:1;fill-rule:evenodd;stroke:none"
         id="path586"
         inkscape:connector-curvature="0" />
    </g>
    <ellipse
       style="fill:#008000;fill-opacity:0.431694;stroke:none;stroke-opacity:1"
       id="path7888-3"
       cx="181.68253"
       cy="174.35471"
       rx="30.75"
       ry="28.75" />
    <g
       id="g580"
       transform="matrix(0.45406431,0,0,-0.36748243,178.48803,200.87767)">
      <path
         d="m 0,0 c 11.281,1.399 22.077,1.561 31.679,6.684 15.121,8.068 26.654,19.813 32.498,36.155 5.539,15.491 8.732,31.547 3.749,47.782 -4.845,15.784 -13.267,29.6 -26.279,40.163 -5.102,4.143 -10.034,8.3 -17.849,5.462 -3.203,-1.163 -7.744,0.328 -11.364,1.542 -9.746,3.266 -18.944,3.033 -27.456,-3.122 C -25.567,127.041 -32.04,116.33 -37.121,104.655 -44.676,87.297 -48.562,69.115 -47.538,50.218 -46.177,25.072 -41.051,12.722 -19.741,4.436 -13.374,1.96 -6.28,1.357 0,0 m -71.698,58.428 c 0.492,32.782 10.41,60.261 30.03,84.473 3.743,4.619 7.7,7.609 13.09,9.499 12.604,4.42 25.076,7.978 38.698,3.876 5.199,-1.565 11.224,-1.874 16.602,-1.031 8.998,1.409 16.84,-1.132 23.272,-6.387 12.075,-9.864 23.735,-20.436 31.935,-33.953 C 93.206,96.315 96.38,76.408 92.939,54.699 89.552,33.323 78.662,16.963 63.116,3.216 57.996,-1.312 51.489,-4.488 45.231,-7.476 19.797,-19.617 -6.56,-19.76 -32.271,-9.755 c -23.435,9.12 -35.153,28.48 -38.576,52.943 -0.781,5.582 -0.65,11.291 -0.851,15.24"
         style="fill:#231f20;fill-opacity:1;fill-rule:evenodd;stroke:none"
         id="path582"
         inkscape:connector-curvature="0" />
    </g>
    <g
       id="g576"
       transform="matrix(0.19326321,0,0,-0.21118362,168.42629,175.27723)">
      <path
         d="m 0,0 c 1.256,8.353 2.154,14.92 3.254,21.454 1.004,5.962 7.758,10.454 13.758,9.336 5.804,-1.083 9.959,-6.911 9.32,-13.06 -0.24,-2.309 -0.545,-4.616 -0.66,-6.932 -0.113,-2.317 -0.024,-4.644 -0.024,-7.604 1.86,-1.385 4.114,-2.748 5.985,-4.514 5.51,-5.206 4.51,-11.533 -2.666,-13.491 -5.403,-1.473 -6.705,-4.395 -6.41,-9.251 0.14,-2.298 -0.168,-4.625 -0.313,-6.937 -0.447,-7.147 -3.754,-9.963 -10.756,-9.185 -6.406,0.711 -11.092,4.777 -12.443,11.176 -0.537,2.545 -0.473,5.217 -0.777,9.011 -3.661,-0.187 -7.219,0.039 -10.608,-0.617 -10.842,-2.099 -20.701,4.595 -20.142,15.421 0.697,13.533 3.041,26.985 4.738,40.463 0.947,7.522 2.348,15.002 2.965,22.548 0.652,7.995 1.89,9.577 10.099,10.138 6.383,0.436 12.209,-3.777 12.336,-10.078 C -2.189,50.28 -2.75,42.604 -3.76,35.063 -4.951,26.18 -6.982,17.41 -8.59,8.58 -8.994,6.354 -9.178,4.088 -9.639,0.441 -6.166,0.283 -3.18,0.146 0,0"
         style="fill:#231f20;fill-opacity:1;fill-rule:evenodd;stroke:none"
         id="path578"
         inkscape:connector-curvature="0" />
    </g>
    <path
       inkscape:connector-curvature="0"
       id="path58"
       style="fill:#000000;fill-opacity:1;fill-rule:nonzero;stroke:none"
       d="m 187.46547,152.66499 c -0.0383,-0.0575 -0.0793,4.9e-4 -0.089,0.12686 -0.01,0.13025 -0.0799,0.15033 -0.15721,0.0454 -0.0776,-0.1043 -0.13157,-0.26314 -0.12188,-0.35857 0.0308,-0.29593 -0.14224,-0.60064 -0.25927,-0.45704 -0.0585,0.0719 -0.17505,0.0327 -0.24609,-0.0828 -0.12069,-0.19696 -0.14534,-0.14869 -0.22993,0.45684 -0.0692,0.49376 -0.14861,0.73788 -0.29395,0.89871 -0.23588,0.26189 -0.96384,2.85536 -0.97724,3.48063 -0.0101,0.47629 -0.24008,1.42405 -0.94489,3.90005 -1.08251,3.80048 -2.33242,8.41302 -2.70227,9.97106 -0.47284,1.99124 -5.73754,18.62097 -5.89253,18.61427 -0.12262,-0.006 -1.0952,3.21646 -1.07913,3.57537 0.006,0.13266 0.0456,0.71748 0.089,1.31354 0.0684,0.93578 0.11308,1.15982 0.34365,1.72686 0.16232,0.39766 0.31694,0.65272 0.39856,0.65438 0.527,0.0165 0.68978,0.12071 0.80407,0.51549 0.0952,0.32982 0.12619,0.36217 0.14258,0.14203 0.0144,-0.19034 0.0789,-0.1843 0.20251,0.0209 0.15172,0.2508 0.19956,0.22704 0.29243,-0.14622 0.0597,-0.23908 0.17748,-0.44295 0.25467,-0.43917 0.17024,0.006 1.01561,-2.66217 1.24699,-3.93729 0.0812,-0.44848 0.26276,-1.11363 0.40298,-1.47791 0.51792,-1.34894 1.13397,-3.29859 1.48922,-4.71607 0.19945,-0.79666 0.40164,-1.45419 0.44933,-1.46194 0.0474,-0.008 0.27025,-0.6782 0.4934,-1.48318 0.22447,-0.81117 0.75315,-2.63576 1.18126,-4.07398 0.42814,-1.4382 0.80918,-2.80853 0.85137,-3.05939 0.14239,-0.85022 1.89749,-7.1202 2.96923,-10.60562 0.83519,-2.71517 1.09092,-3.44603 1.18593,-3.3921 0.0815,0.047 0.1936,-0.19186 0.34188,-0.73005 0.16934,-0.61393 0.26229,-0.79473 0.40094,-0.7783 0.1016,0.0115 0.17635,-0.0273 0.17073,-0.0888 -0.006,-0.0602 0.14115,-0.46872 0.32346,-0.90235 0.18263,-0.43286 0.32968,-0.89903 0.32474,-1.02705 -0.005,-0.13262 0.0155,-0.41026 0.0475,-0.63194 0.0319,-0.22174 0.0101,-0.8831 -0.0494,-1.50522 l -0.10614,-1.11017 -0.59319,-1.43457 c -0.32645,-0.78948 -0.62511,-1.48362 -0.6641,-1.54284" />
    <path
       d="m 205.1798,176.7057 c -0.0318,-0.0659 -0.0573,-0.23795 -0.0573,-0.38659 0,-0.21779 -0.0202,-0.26299 -0.1098,-0.24338 -0.1056,0.0223 -0.22538,-0.17261 -0.32494,-0.5287 -0.0599,-0.21506 -0.19595,-0.25481 -0.82191,-0.23848 -0.21986,0.006 -0.48621,0.0702 -0.59759,0.14429 -0.1098,0.073 -0.27607,0.16498 -0.36775,0.2031 -0.0909,0.0376 -0.18912,0.10562 -0.21513,0.14863 -0.072,0.12033 -0.42054,0.30001 -0.67849,0.34957 -0.5448,0.10562 -1.36119,0.39529 -1.4815,0.5265 -0.0531,0.0577 -0.37484,0.104 -0.72393,0.104 -0.34385,0 -0.65539,0.0359 -0.68796,0.0795 -0.0331,0.0436 -0.92961,0.0828 -1.99503,0.0866 -2.15526,0.008 -3.51119,0.0947 -4.08593,0.25918 -0.21014,0.0604 -0.47886,0.0876 -0.59733,0.0604 -0.1182,-0.0272 -0.5159,0.0169 -0.88391,0.0986 -0.83636,0.18512 -3.10694,0.251 -3.43581,0.10018 -0.13134,-0.0604 -0.52089,-0.11433 -0.865,-0.11924 -0.53507,-0.009 -0.63804,0.0147 -0.70949,0.16335 -0.0441,0.0909 -0.12661,0.17315 -0.17441,0.17315 -0.1295,0 -0.19911,0.32669 -0.16418,0.77261 0.0187,0.23739 0.01,0.41218 -0.0223,0.4541 -0.0746,0.0964 -0.067,0.92072 0.009,1.01817 0.0318,0.0397 0.14342,0.0752 0.24875,0.0779 0.15761,0.004 0.19228,0.0397 0.19833,0.20309 0.004,0.1089 0.009,0.25156 0.0121,0.31689 0.006,0.14865 0.15735,0.16879 0.22433,0.03 0.0323,-0.067 0.11715,-0.0283 0.26031,0.11869 0.12766,0.13068 0.29893,0.21616 0.4279,0.21289 0.11742,-0.003 0.37747,0 0.57342,0.006 1.09904,0.0338 2.94094,-0.0561 3.24932,-0.15899 0.19832,-0.0659 0.54006,-0.13123 0.76465,-0.14538 0.47308,-0.031 1.77937,-0.25264 1.86369,-0.31634 0.0843,-0.0637 0.68323,-0.0746 0.87445,-0.0153 0.12582,0.0387 0.65459,0.037 1.17076,-0.004 0.51615,-0.0408 1.25454,-0.0408 1.63437,0 0.38219,0.0408 0.93907,0.0343 1.24219,-0.0147 0.30235,-0.0496 0.93671,-0.10292 1.40979,-0.11925 0.47308,-0.0163 0.93539,-0.0567 1.02759,-0.0887 0.0927,-0.0332 0.35829,-0.10944 0.59707,-0.17097 0.52089,-0.13503 0.90334,-0.27551 1.11348,-0.40891 0.22722,-0.14429 0.75021,-0.13667 1.07041,0.0164 0.14815,0.0708 0.31889,0.10073 0.38246,0.067 0.14315,-0.0752 0.5637,-0.93869 0.5637,-1.15812 0,-0.0833 0.0323,-0.2472 0.0683,-0.34629 0.0864,-0.23794 0.0953,-1.15702 0.0129,-1.32744"
       style="fill:#000000;fill-opacity:1;fill-rule:nonzero;stroke:none"
       id="path56"
       inkscape:connector-curvature="0" />
  </g>
</svg>
