<?xml version="1.0" encoding="UTF-8" standalone="no"?>
<!-- Created with Inkscape (http://www.inkscape.org/) -->

<svg
   xmlns:dc="http://purl.org/dc/elements/1.1/"
   xmlns:cc="http://creativecommons.org/ns#"
   xmlns:rdf="http://www.w3.org/1999/02/22-rdf-syntax-ns#"
   xmlns:svg="http://www.w3.org/2000/svg"
   xmlns="http://www.w3.org/2000/svg"
   xmlns:sodipodi="http://sodipodi.sourceforge.net/DTD/sodipodi-0.dtd"
   xmlns:inkscape="http://www.inkscape.org/namespaces/inkscape"
   width="21.26656mm"
   height="18.152674mm"
   viewBox="0 0 75.353953 64.320495"
   id="svg6079"
   version="1.1"
   inkscape:version="0.91 r13725"
   sodipodi:docname="button8.svg">
  <defs
     id="defs6081" />
  <sodipodi:namedview
     id="base"
     pagecolor="#ffffff"
     bordercolor="#666666"
     borderopacity="1.0"
     inkscape:pageopacity="0.0"
     inkscape:pageshadow="2"
     inkscape:zoom="4"
     inkscape:cx="59.407234"
     inkscape:cy="73.046428"
     inkscape:document-units="px"
     inkscape:current-layer="layer1"
     showgrid="false"
     inkscape:snap-global="true"
     fit-margin-top="0"
     fit-margin-left="0"
     fit-margin-right="0"
     fit-margin-bottom="0"
     inkscape:window-width="636"
     inkscape:window-height="1041"
     inkscape:window-x="640"
     inkscape:window-y="18"
     inkscape:window-maximized="0" />
  <metadata
     id="metadata6084">
    <rdf:RDF>
      <cc:Work
         rdf:about="">
        <dc:format>image/svg+xml</dc:format>
        <dc:type
           rdf:resource="http://purl.org/dc/dcmitype/StillImage" />
        <dc:title></dc:title>
      </cc:Work>
    </rdf:RDF>
  </metadata>
  <g
     inkscape:label="Layer 1"
     inkscape:groupmode="layer"
     id="layer1"
     transform="translate(-145.93253,-142.78421)">
    <g
       id="g584"
       transform="matrix(0.50698409,0,0,-0.39071772,166.06517,183.28295)">
      <path
         d="m 0,0 c 3.828,-15.463 21.228,-19.797 35.903,-17.34 17.026,2.852 27.451,25.817 13.602,41.34 -4.518,5.064 -10.141,9.142 -15.654,14.021 2.585,3.227 5.6,6.737 8.335,10.454 6.404,8.711 3.313,16.387 -6.975,19.75 -12.3,4.019 -24.288,0.486 -36.367,-0.47 -4.906,-0.389 -6.238,-3.956 -4.408,-8.682 3.058,-7.901 9.702,-9.583 15.943,-9.34 C 9.262,45.038 6.619,40.339 7.615,36.611 9.09,31.089 12.699,25.857 18.917,23.696 21.416,22.828 24.04,22.175 26.351,20.943 32.288,17.777 33.729,11.161 30.169,4.539 27.156,-1.062 24.399,-1.679 17.146,2.297 10.985,5.675 5.37,6.406 0,0 m 23.604,-42.156 c -6.281,1.357 -13.375,1.96 -19.742,4.435 -21.309,8.286 -26.435,20.637 -27.797,45.783 -1.023,18.897 2.863,37.079 10.417,54.437 5.081,11.674 11.554,22.386 22.099,30.011 8.513,6.155 17.71,6.388 27.456,3.121 3.62,-1.213 8.161,-2.705 11.364,-1.541 7.816,2.838 12.747,-1.319 17.85,-5.462 C 78.263,78.065 86.685,64.249 91.529,48.465 96.513,32.23 93.319,16.174 87.78,0.683 81.937,-15.659 70.403,-27.404 55.282,-35.473 45.681,-40.596 34.885,-40.757 23.604,-42.156"
         style="fill:#ffffff;fill-opacity:1;fill-rule:evenodd;stroke:none"
         id="path586"
         inkscape:connector-curvature="0" />
    </g>
    <ellipse
       style="fill:#008000;fill-opacity:0.431694;stroke:none;stroke-opacity:1"
       id="path7888-3"
       cx="180.18253"
       cy="176.35471"
       rx="30.75"
       ry="28.75" />
    <g
       id="g580"
       transform="matrix(0.45406431,0,0,-0.36748243,178.48803,200.87767)">
      <path
         d="m 0,0 c 11.281,1.399 22.077,1.561 31.679,6.684 15.121,8.068 26.654,19.813 32.498,36.155 5.539,15.491 8.732,31.547 3.749,47.782 -4.845,15.784 -13.267,29.6 -26.279,40.163 -5.102,4.143 -10.034,8.3 -17.849,5.462 -3.203,-1.163 -7.744,0.328 -11.364,1.542 -9.746,3.266 -18.944,3.033 -27.456,-3.122 C -25.567,127.041 -32.04,116.33 -37.121,104.655 -44.676,87.297 -48.562,69.115 -47.538,50.218 -46.177,25.072 -41.051,12.722 -19.741,4.436 -13.374,1.96 -6.28,1.357 0,0 m -71.698,58.428 c 0.492,32.782 10.41,60.261 30.03,84.473 3.743,4.619 7.7,7.609 13.09,9.499 12.604,4.42 25.076,7.978 38.698,3.876 5.199,-1.565 11.224,-1.874 16.602,-1.031 8.998,1.409 16.84,-1.132 23.272,-6.387 12.075,-9.864 23.735,-20.436 31.935,-33.953 C 93.206,96.315 96.38,76.408 92.939,54.699 89.552,33.323 78.662,16.963 63.116,3.216 57.996,-1.312 51.489,-4.488 45.231,-7.476 19.797,-19.617 -6.56,-19.76 -32.271,-9.755 c -23.435,9.12 -35.153,28.48 -38.576,52.943 -0.781,5.582 -0.65,11.291 -0.851,15.24"
         style="fill:#231f20;fill-opacity:1;fill-rule:evenodd;stroke:none"
         id="path582"
         inkscape:connector-curvature="0" />
    </g>
    <path
       d="m 163.02252,177.10304 c 0.2161,0.39428 0.39241,1.55332 0.31848,2.10207 l -0.0741,0.54813 0.94409,1.12513 c 0.51185,0.61657 0.98389,1.12513 1.02939,1.12513 0.0511,0 0.50615,0.22666 1.00092,0.50229 l 0.90428,0.5023 1.56398,0.0804 c 1.03506,0.0528 1.60378,0.0395 1.68909,-0.0402 0.0739,-0.066 0.44927,-0.18145 0.84739,-0.25681 0.5346,-0.10373 0.79052,-0.21722 1.02371,-0.46273 0.17629,-0.18459 0.40946,-0.32524 0.53457,-0.32524 0.34692,0 1.40474,-0.97131 1.64929,-1.51942 0.0626,-0.13126 0.3071,-0.39743 0.54598,-0.58832 0.25023,-0.19902 0.43791,-0.44638 0.44359,-0.57636 0.006,-0.12624 0.0796,-0.32901 0.15925,-0.45143 0.0853,-0.12112 0.15351,-0.33717 0.15351,-0.47404 0,-0.13757 0.0682,-0.3133 0.1478,-0.38865 0.0967,-0.0898 0.13083,-0.25115 0.0967,-0.46839 -0.0341,-0.19464 0.0111,-0.49098 0.10815,-0.71952 0.091,-0.21662 0.13654,-0.46337 0.10816,-0.55943 -0.0341,-0.0967 0.0111,-0.32021 0.10244,-0.51423 0.23886,-0.51359 0.21612,-1.30029 -0.0455,-1.47987 -0.13083,-0.0898 -0.21041,-0.26182 -0.21041,-0.46713 0,-0.18207 -0.11371,-0.49725 -0.25594,-0.71387 -0.1478,-0.21724 -0.3071,-0.52489 -0.37535,-0.69693 -0.10816,-0.30828 -1.63791,-1.91875 -1.81989,-1.91875 -0.0511,0 -0.18201,-0.0872 -0.29574,-0.20028 -0.10816,-0.10796 -0.40379,-0.35163 -0.63697,-0.53118 -0.23886,-0.17887 -0.4436,-0.35223 -0.4436,-0.37672 0,-0.21222 0.26162,-0.49098 0.45498,-0.49098 0.1478,0 0.43792,-0.18774 0.69384,-0.4483 0.72795,-0.72895 0.74502,-0.74402 1.2853,-1.02153 0.29003,-0.14943 0.56871,-0.35474 0.64266,-0.46651 0.0682,-0.11115 0.42655,-0.36667 0.80758,-0.57637 0.42654,-0.23232 0.72227,-0.47592 0.77914,-0.63414 0.0511,-0.16011 0.20473,-0.28757 0.40379,-0.33717 0.1763,-0.0446 0.36398,-0.17581 0.42086,-0.29697 0.0568,-0.11422 0.18198,-0.21662 0.25591,-0.21662 0.0798,0 0.23319,-0.12624 0.34692,-0.28567 0.11371,-0.16011 0.24455,-0.28568 0.3071,-0.28568 0.0568,0 0.12512,-0.10296 0.15351,-0.22855 0.0284,-0.1256 0.13083,-0.22854 0.22749,-0.22854 0.0967,0 0.29573,-0.10296 0.43792,-0.22791 0.1478,-0.12561 0.31846,-0.22917 0.38104,-0.22917 0.0568,0 0.23886,-0.14252 0.3981,-0.31393 0.15925,-0.17519 0.4948,-0.54059 0.76207,-0.82816 0.26162,-0.27814 0.59717,-0.79361 0.72797,-1.12449 0.21612,-0.52553 0.23317,-0.6668 0.13083,-1.00522 -0.0626,-0.21723 -0.26161,-0.56382 -0.44359,-0.77101 -0.1763,-0.20531 -0.52323,-0.61719 -0.75642,-0.90224 -0.29572,-0.36542 -0.56302,-0.56571 -0.87581,-0.65736 -0.25025,-0.0721 -0.5289,-0.17266 -0.61991,-0.22478 -0.15925,-0.0924 -1.1488,-0.25744 -2.37724,-0.39932 -0.36399,-0.0414 -0.65971,-0.15006 -0.79621,-0.28945 -0.12512,-0.12688 -0.30711,-0.22288 -0.42654,-0.22288 -0.11371,0 -0.24454,-0.0641 -0.29005,-0.14253 -0.0455,-0.0785 -0.36966,-0.31079 -0.72228,-0.51423 -0.52889,-0.30639 -0.75638,-0.37106 -1.29099,-0.37106 -0.60284,0 -0.68814,0.032 -1.0578,0.4056 -0.31279,0.31205 -0.46066,0.3899 -0.65404,0.33715 -0.18768,-0.0522 -0.32417,0.017 -0.56303,0.27941 -0.1763,0.19463 -0.51185,0.40435 -0.76208,0.47403 -0.36966,0.10552 -0.45498,0.17956 -0.50616,0.45709 -0.0511,0.29321 -0.10244,0.33089 -0.42086,0.33089 -0.19904,0 -0.36397,0.0496 -0.36397,0.10923 0,0.0596 -0.24455,0.28192 -0.54028,0.49664 -0.30142,0.2141 -0.60854,0.52364 -0.68816,0.69065 -0.0853,0.17142 -0.2218,0.30263 -0.32417,0.30263 -0.18768,0 -0.46065,0.28568 -0.5346,0.56006 -0.0227,0.0954 -0.22178,0.27501 -0.45498,0.40497 -0.25591,0.14879 -0.41516,0.32649 -0.4379,0.48596 -0.0171,0.13688 -0.0967,0.3108 -0.18199,0.38237 -0.0798,0.0728 -0.1478,0.22289 -0.1478,0.33717 0,0.11422 -0.0741,0.27186 -0.16493,0.35474 -0.25025,0.22728 -0.45498,0.74151 -0.45498,1.15274 0,0.21725 -0.0682,0.49414 -0.15351,0.6285 -0.19904,0.30514 -0.14225,1.46167 0.0967,1.96459 0.091,0.19401 0.15923,0.39932 0.15923,0.47403 0,0.0716 0.21044,0.42821 0.46637,0.78233 0.25023,0.3541 0.46635,0.7189 0.46635,0.79926 0,0.0822 0.25592,0.4238 0.58008,0.76537 0.68249,0.72643 0.70521,1.00081 0.11942,1.33923 -0.40947,0.23984 -1.57535,1.43278 -1.58104,1.61925 0,0.0627 -0.2673,0.41689 -0.59715,0.7823 -0.32416,0.36545 -0.59148,0.73524 -0.59148,0.81686 0,0.0792 -0.0739,0.21222 -0.1535,0.28505 -0.091,0.0779 -0.15926,0.23484 -0.15926,0.36041 0,0.12548 -0.0682,0.24988 -0.15351,0.28568 -0.10244,0.0414 -0.15351,0.22226 -0.15351,0.54245 0,0.26246 -0.0455,0.52867 -0.0967,0.58769 -0.0511,0.0602 -0.11942,0.33715 -0.15351,0.62283 -0.0341,0.28569 -0.0853,0.64043 -0.11371,0.79927 -0.0284,0.16013 -0.006,0.36605 0.0455,0.4684 z m 3.4635,-0.19403 c 0.0511,-0.78794 0.29005,-1.53071 0.48341,-1.53071 0.0511,0 0.0967,-0.10296 0.0967,-0.21662 0,-0.23985 0.31279,-0.92545 0.42087,-0.92545 0.0398,0 0.0511,-0.10297 0.0227,-0.21726 -0.0511,-0.21472 0.0625,-0.43574 0.36966,-0.7302 0.0853,-0.0766 0.38673,-0.3899 0.68246,-0.7076 1.22275,-1.29467 1.31374,-1.34551 1.82559,-1.04729 0.26731,0.15688 0.85307,0.6894 1.06351,0.96628 0.0625,0.081 0.21611,0.25744 0.34122,0.38804 0.12512,0.13379 0.27868,0.42253 0.34691,0.65109 0.0684,0.22854 0.19906,0.51295 0.30712,0.63979 0.15925,0.19463 0.1763,0.3943 0.14225,1.35366 -0.0341,0.93679 -0.0798,1.18541 -0.27297,1.4849 -0.12513,0.194 -0.23318,0.49099 -0.23318,0.64544 0,0.20532 -0.0625,0.2951 -0.23319,0.31959 -0.14225,0.0212 -0.29573,0.18835 -0.40379,0.4395 -0.10244,0.24047 -0.28435,0.45019 -0.44928,0.51422 -0.15351,0.0602 -0.32986,0.23295 -0.39811,0.38865 -0.0796,0.1827 -0.20473,0.2794 -0.35828,0.2794 -0.13654,0 -0.33554,0.0797 -0.47205,0.1827 -0.13084,0.10604 -0.32984,0.15634 -0.46634,0.11985 -0.13083,-0.0358 -0.32987,0.0128 -0.46067,0.11435 -0.18768,0.14244 -0.38103,0.16139 -0.96683,0.0973 -0.64264,-0.0698 -0.77346,-0.12624 -1.04643,-0.44577 -0.40379,-0.48219 -0.47774,-0.71953 -0.43222,-1.38192 0.0227,-0.3133 0.0625,-0.93677 0.091,-1.38192 z m 1.96778,-12.60433 c 0.0111,-0.27375 0.0739,-0.52929 0.14225,-0.55378 0.0682,-0.0263 0.12512,-0.14879 0.12512,-0.28567 0,-0.33402 1.12606,-1.52006 1.54122,-1.62115 0.21612,-0.0533 0.36398,-0.17518 0.42655,-0.35473 0.23884,-0.6982 0.86444,-0.92548 1.58104,-0.57513 0.42085,0.20845 0.8815,0.31581 1.21136,0.28505 0.42654,-0.0408 1.05213,-0.0201 1.72323,0.0572 0.50615,0.0584 0.64263,0.039 0.69382,-0.0986 0.0626,-0.19402 0.43224,-0.23294 0.52891,-0.0572 0.0341,0.0565 -0.0741,0.17956 -0.23886,0.27438 -0.24454,0.14188 -0.29005,0.22414 -0.24454,0.47968 0.0455,0.28567 0.0284,0.30263 -0.22749,0.23419 -0.19337,-0.0533 -0.33555,-0.0102 -0.50049,0.15383 -0.12512,0.12497 -0.29003,0.22854 -0.36397,0.22854 -0.0682,0 -0.13083,0.0803 -0.13083,0.17142 0,0.0929 -0.1137,0.25239 -0.25024,0.34845 -0.13084,0.0961 -0.27299,0.27941 -0.30143,0.39996 -0.0284,0.1256 -0.13083,0.25742 -0.23887,0.30262 -0.10816,0.0434 -0.23885,0.14817 -0.29573,0.22854 -0.11941,0.17706 -0.44359,0.39368 -1.00663,0.66491 -0.2161,0.10604 -0.39242,0.26057 -0.39242,0.34596 0,0.0848 -0.091,0.18459 -0.20473,0.22226 -0.11371,0.0384 -0.21043,0.11741 -0.21043,0.17706 0,0.0604 -0.0625,0.10859 -0.1478,0.10859 -0.0798,0 -0.19905,0.0973 -0.25024,0.21159 -0.0568,0.1155 -0.27867,0.30137 -0.4834,0.41125 -0.20475,0.10923 -0.39811,0.28756 -0.42653,0.39367 -0.10816,0.46838 -1.30807,0.57324 -1.43318,0.1256 -0.0341,-0.11358 -0.13083,-0.23482 -0.21612,-0.27186 -0.21611,-0.0929 -0.56302,-0.99579 -0.4891,-1.27017 0.0341,-0.12305 0.0741,-0.46211 0.0798,-0.73649"
       style="fill:#000000;fill-opacity:1;fill-rule:nonzero;stroke:none"
       id="path32"
       inkscape:connector-curvature="0" />
    <path
       inkscape:connector-curvature="0"
       id="path58"
       style="fill:#000000;fill-opacity:1;fill-rule:nonzero;stroke:none"
       d="m 187.71547,153.91498 c -0.0383,-0.0575 -0.0793,5e-4 -0.089,0.12686 -0.01,0.13026 -0.0799,0.15033 -0.15721,0.0454 -0.0776,-0.1043 -0.13157,-0.26314 -0.12188,-0.35857 0.0308,-0.29593 -0.14224,-0.60064 -0.25927,-0.45704 -0.0585,0.0719 -0.17505,0.0327 -0.24609,-0.0828 -0.12069,-0.19696 -0.14534,-0.14869 -0.22993,0.45684 -0.0692,0.49376 -0.14861,0.73788 -0.29395,0.89871 -0.23588,0.26189 -0.96384,2.85536 -0.97724,3.48063 -0.0101,0.47629 -0.24008,1.42405 -0.94489,3.90005 -1.08251,3.80048 -2.33242,8.41302 -2.70227,9.97106 -0.47284,1.99124 -5.73754,18.62098 -5.89253,18.61428 -0.12262,-0.006 -1.0952,3.21646 -1.07913,3.57537 0.006,0.13266 0.0456,0.71748 0.089,1.31354 0.0684,0.93578 0.11308,1.15982 0.34365,1.72686 0.16232,0.39766 0.31694,0.65272 0.39856,0.65438 0.527,0.0165 0.68978,0.12071 0.80407,0.51549 0.0952,0.32982 0.12619,0.36217 0.14258,0.14203 0.0144,-0.19034 0.0789,-0.1843 0.20251,0.0209 0.15172,0.2508 0.19956,0.22704 0.29243,-0.14622 0.0597,-0.23908 0.17748,-0.44295 0.25467,-0.43917 0.17024,0.006 1.01561,-2.66217 1.24699,-3.93729 0.0812,-0.44848 0.26276,-1.11363 0.40298,-1.47791 0.51792,-1.34894 1.13397,-3.29859 1.48922,-4.71607 0.19945,-0.79666 0.40164,-1.45419 0.44933,-1.46194 0.0474,-0.008 0.27025,-0.6782 0.4934,-1.48318 0.22447,-0.81117 0.75315,-2.63576 1.18126,-4.07398 0.42814,-1.4382 0.80918,-2.80853 0.85137,-3.05939 0.14239,-0.85022 1.89749,-7.12021 2.96923,-10.60563 0.83519,-2.71517 1.09092,-3.44603 1.18593,-3.3921 0.0815,0.047 0.1936,-0.19186 0.34188,-0.73005 0.16934,-0.61393 0.26229,-0.79473 0.40094,-0.7783 0.1016,0.0115 0.17635,-0.0273 0.17073,-0.0888 -0.006,-0.0602 0.14115,-0.46872 0.32346,-0.90235 0.18263,-0.43286 0.32968,-0.89903 0.32474,-1.02705 -0.005,-0.13262 0.0155,-0.41026 0.0475,-0.63194 0.0319,-0.22174 0.0101,-0.8831 -0.0494,-1.50522 l -0.10614,-1.11017 -0.59319,-1.43457 c -0.32645,-0.78948 -0.62511,-1.48362 -0.6641,-1.54284" />
    <path
       d="m 207.99947,177.02201 c -0.21324,0.0573 -0.23509,0.0427 -0.20232,-0.1325 0.0222,-0.11846 -0.0146,-0.24618 -0.0919,-0.31976 -0.0733,-0.0698 -0.17399,-0.25106 -0.23267,-0.41878 -0.1279,-0.36629 -0.44836,-0.44311 -1.33171,-0.32083 -0.45644,0.0633 -0.70894,0.15799 -0.99745,0.37493 -0.21365,0.1607 -0.46089,0.29271 -0.55235,0.29543 -0.0927,0.003 -0.24643,0.0655 -0.34962,0.14283 -0.10203,0.0763 -0.32008,0.1396 -0.48962,0.14284 -0.16914,0.003 -0.42327,0.0704 -0.57015,0.15259 -0.1473,0.0817 -0.35366,0.14607 -0.46373,0.14499 -0.29459,-0.004 -0.70003,0.11468 -0.86877,0.25484 -0.0818,0.0675 -0.35326,0.14337 -0.61102,0.17097 -0.25778,0.027 -0.53738,0.11467 -0.62923,0.19694 -0.0902,0.0801 -0.38322,0.17207 -0.64057,0.20127 -0.25776,0.0297 -0.57095,0.10171 -0.68467,0.15745 -0.11778,0.0585 -0.24238,0.0779 -0.28324,0.0444 -0.0404,-0.0319 -0.14731,-0.009 -0.23591,0.0493 -0.20234,0.13527 -2.28911,0.60057 -2.69416,0.60057 l -0.30915,0 0.0369,-0.56594 c 0.0202,-0.30949 0.0567,-0.90031 0.0809,-1.30393 0.0243,-0.40363 0.076,-0.89492 0.11411,-1.0832 0.0389,-0.19153 0.0894,-0.64927 0.11332,-1.03342 0.15942,-2.52942 0.19746,-3.29988 0.22256,-4.50752 0.0157,-0.74827 0.0433,-1.38942 0.0615,-1.42729 0.0186,-0.0384 0.0284,-0.47775 0.0222,-0.9793 -0.009,-0.73854 -0.032,-0.9106 -0.12146,-0.9106 -0.0591,0 -0.14486,-0.10333 -0.18411,-0.22182 -0.0417,-0.12548 -0.16915,-0.26405 -0.29418,-0.31977 -0.12146,-0.0542 -0.32412,-0.19695 -0.44916,-0.31706 -0.4172,-0.40092 -1.0529,-0.23265 -1.6271,0.43067 -0.21608,0.24889 -0.24805,0.35385 -0.29053,0.94469 -0.034,0.47233 -0.0198,0.70985 0.0494,0.82185 0.11214,0.18125 0.1275,2.07657 0.0397,4.91169 -0.0712,2.31301 -0.0781,4.47288 -0.015,4.80293 0.0389,0.2029 -0.004,0.31273 -0.24724,0.62546 -0.16187,0.2083 -0.38036,0.42689 -0.48558,0.48641 -0.31563,0.17747 -2.61362,0.16556 -3.41564,-0.0173 -0.3832,-0.0871 -0.94971,-0.19478 -1.25157,-0.23806 -0.30188,-0.0428 -0.71907,-0.13466 -0.92017,-0.20182 -0.28731,-0.0958 -0.44431,-0.0958 -0.71422,0 -0.19139,0.0682 -0.3755,0.0969 -0.41193,0.0639 -0.0369,-0.0324 -0.16227,0.0513 -0.28001,0.18721 -0.11779,0.13579 -0.23795,0.24617 -0.26869,0.24617 -0.0315,0 -0.055,0.0589 -0.055,0.13798 0,0.0796 -0.0482,0.16231 -0.11411,0.1964 -0.0663,0.0346 -0.097,0.0963 -0.0737,0.1477 0.021,0.0459 -0.008,0.14067 -0.0591,0.19694 -0.0696,0.0763 -0.089,0.27541 -0.0639,0.66928 0.0408,0.64982 0.11975,0.83485 0.3399,0.79536 0.13273,-0.0238 0.15782,0.0265 0.17684,0.35114 0.0202,0.34464 0.0381,0.37387 0.19868,0.32031 0.14,-0.0471 0.18897,-0.0135 0.2355,0.16232 0.0315,0.11791 0.0599,0.28999 0.0607,0.36899 0.003,0.29163 1.61777,0.28027 2.09647,-0.0146 0.10111,-0.0621 0.64745,-0.1325 1.21436,-0.15635 1.39887,-0.0585 2.6294,-0.18179 3.19511,-0.32031 0.77935,-0.19154 0.76923,-0.25701 0.56124,3.60178 -0.0579,1.07292 -0.0886,1.98405 -0.0684,2.02734 0.0206,0.0444 0.007,0.24131 -0.0328,0.44799 -0.0389,0.20505 -0.0898,0.60544 -0.11411,0.90032 -0.0247,0.29541 -0.0655,0.57566 -0.0923,0.63031 -0.0263,0.0542 -0.0607,0.63953 -0.077,1.30881 -0.0303,1.24065 0.0154,1.46789 0.24279,1.21522 0.0914,-0.10171 0.14163,-0.0779 0.29419,0.13851 0.10439,0.14771 0.24319,0.26079 0.32007,0.26079 0.0764,0 0.22822,0.065 0.34598,0.1477 0.11699,0.0817 0.3573,0.14771 0.54142,0.14771 0.38281,0 1.04521,-0.30461 1.09296,-0.50211 0.0181,-0.0752 0.10846,-0.26077 0.19908,-0.40849 0.14244,-0.23319 0.16186,-0.35438 0.13961,-0.87596 -0.0182,-0.43338 -0.0688,-0.6655 -0.17643,-0.81699 -0.0857,-0.12008 -0.15215,-0.33978 -0.15376,-0.50697 -0.015,-1.67348 0.0169,-6.52186 0.0462,-6.97851 0.0311,-0.49236 0.0708,-0.62762 0.23632,-0.81211 0.11896,-0.13304 0.30186,-0.2213 0.45644,-0.2213 0.14163,0 0.39008,-0.0421 0.55194,-0.0936 0.16267,-0.0519 0.51552,-0.11359 0.78785,-0.13797 0.27232,-0.0243 0.53616,-0.0796 0.58875,-0.12278 0.0534,-0.0444 0.25777,-0.11143 0.46373,-0.15258 0.20072,-0.0406 0.71785,-0.16556 1.13748,-0.27539 0.41962,-0.11035 0.82589,-0.17747 0.89427,-0.14771 0.0663,0.0288 0.14607,0.008 0.16955,-0.0444 0.0239,-0.0542 0.20232,-0.12764 0.39373,-0.16286 0.19139,-0.0346 0.46453,-0.11036 0.60332,-0.16718 0.13759,-0.0558 0.41599,-0.11683 0.60738,-0.1325 0.1914,-0.0162 0.41922,-0.0769 0.4969,-0.13305 0.0785,-0.0569 0.4601,-0.10332 0.84289,-0.10332 0.3828,0 0.71946,-0.0421 0.74376,-0.0936 0.0239,-0.0504 0.16913,-0.0866 0.31642,-0.0785 0.14972,0.008 0.71785,-0.014 1.26251,-0.0493 l 0.98977,-0.0644 0.28001,-0.36901 c 0.15458,-0.20398 0.27961,-0.42147 0.27961,-0.48694 0,-0.0612 0.0482,-0.17043 0.0995,-0.22617 0.0538,-0.0589 0.12304,-0.33978 0.15094,-0.61571 0.028,-0.27539 0.0717,-0.64115 0.0955,-0.80184 0.0437,-0.29055 0.0404,-0.29433 -0.19504,-0.23156"
       style="fill:#000000;fill-opacity:1;fill-rule:nonzero;stroke:none"
       id="path60"
       inkscape:connector-curvature="0" />
  </g>
</svg>
