<?xml version="1.0" encoding="UTF-8" standalone="no"?>
<!-- Created with Inkscape (http://www.inkscape.org/) -->

<svg
   xmlns:dc="http://purl.org/dc/elements/1.1/"
   xmlns:cc="http://creativecommons.org/ns#"
   xmlns:rdf="http://www.w3.org/1999/02/22-rdf-syntax-ns#"
   xmlns:svg="http://www.w3.org/2000/svg"
   xmlns="http://www.w3.org/2000/svg"
   xmlns:sodipodi="http://sodipodi.sourceforge.net/DTD/sodipodi-0.dtd"
   xmlns:inkscape="http://www.inkscape.org/namespaces/inkscape"
   width="21.26656mm"
   height="18.152674mm"
   viewBox="0 0 75.353953 64.320495"
   id="svg6079"
   version="1.1"
   inkscape:version="0.91 r13725"
   sodipodi:docname="buttonEqual.svg">
  <defs
     id="defs6081" />
  <sodipodi:namedview
     id="base"
     pagecolor="#ffffff"
     bordercolor="#666666"
     borderopacity="1.0"
     inkscape:pageopacity="0.0"
     inkscape:pageshadow="2"
     inkscape:zoom="2"
     inkscape:cx="-18.790292"
     inkscape:cy="-18.748854"
     inkscape:document-units="px"
     inkscape:current-layer="layer1"
     showgrid="false"
     inkscape:snap-global="true"
     fit-margin-top="0"
     fit-margin-left="0"
     fit-margin-right="0"
     fit-margin-bottom="0"
     inkscape:window-width="956"
     inkscape:window-height="1041"
     inkscape:window-x="960"
     inkscape:window-y="18"
     inkscape:window-maximized="0" />
  <metadata
     id="metadata6084">
    <rdf:RDF>
      <cc:Work
         rdf:about="">
        <dc:format>image/svg+xml</dc:format>
        <dc:type
           rdf:resource="http://purl.org/dc/dcmitype/StillImage" />
        <dc:title></dc:title>
      </cc:Work>
    </rdf:RDF>
  </metadata>
  <g
     inkscape:label="Layer 1"
     inkscape:groupmode="layer"
     id="layer1"
     transform="translate(-145.93253,-142.78421)">
    <rect
       style="fill:#f26700;fill-opacity:0.64313728"
       id="rect3344"
       width="65.320694"
       height="55.642857"
       x="150.77219"
       y="147.28328" />
    <g
       id="g7826"
       transform="matrix(0.11532286,0,0,0.13543101,163.37413,150.22867)">
      <path
         inkscape:connector-curvature="0"
         id="path132"
         style="fill:#000000;fill-opacity:1;fill-rule:nonzero;stroke:none"
         d="m 312.67854,212.29255 c -2.31559,-5.78552 -15.85178,-18.40098 -23.84981,-22.22822 -6.47263,-3.09889 -8.87754,-3.57987 -15.87926,-3.20883 -4.50061,0.23362 -9.55778,1.28491 -11.12441,2.30871 -1.58036,1.03068 -6.24588,2.27436 -10.37545,2.76221 -21.12196,2.5011 -27.0449,3.25693 -36.25226,4.62429 -5.49693,0.81767 -11.93521,1.43607 -14.30576,1.36049 -2.37742,-0.0618 -5.04343,0.49473 -5.93668,1.25055 -0.92761,0.78332 -3.62797,1.05816 -6.25276,0.62528 -2.54233,-0.41227 -11.68785,0.0412 -20.31803,1.00319 -8.60956,0.96196 -26.86624,2.34307 -40.49863,3.06454 -13.61864,0.72147 -25.3752,1.64908 -26.06232,2.06135 -0.68711,0.41227 -9.24858,1.00319 -18.99876,1.31239 -13.99656,0.43975 -18.72392,0.14429 -22.37251,-1.40172 -5.12588,-2.17816 -11.0557,-2.52859 -12.87655,-0.75583 -0.63902,0.61841 -2.74847,1.28491 -4.87166,1.53227 -3.0027,0.35043 -4.30135,1.55976 -6.50012,6.06037 -2.29497,4.693 -2.67975,7.31091 -2.31558,15.81054 0.24049,5.62749 1.05129,11.33742 1.81399,12.75288 0.73521,1.37423 1.38797,4.19141 1.40171,6.06037 0.0344,3.99901 6.16344,11.626 9.34478,11.626 1.08565,0 4.12957,1.69718 6.62381,3.68982 l 4.63116,3.68981 7.62012,-1.75215 c 4.25325,-0.9757 8.84318,-1.41545 10.37545,-1.00318 1.62847,0.44662 3.62111,-0.0138 4.87853,-1.12688 3.24319,-2.8584 8.37595,-3.84785 21.74723,-4.1914 6.6238,-0.16491 13.43312,-0.72835 14.99975,-1.24368 1.62846,-0.52908 4.50061,-1.01694 6.6238,-1.12688 2.06135,-0.0962 12.49864,-0.65963 23.12833,-1.24368 10.62282,-0.58404 20.42109,-1.60098 21.68539,-2.25374 1.28491,-0.65963 6.43828,-1.16122 11.56416,-1.12687 5.12589,0.0344 9.55779,-0.46724 9.93571,-1.12 0.38478,-0.65963 4.80981,-1.18871 9.94257,-1.18871 5.11901,0 10.72588,-0.55656 12.56048,-1.25055 2.39804,-0.90699 4.50061,-0.83828 7.62012,0.24736 3.75166,1.30552 4.85104,1.20933 8.44466,-0.74896 3.25693,-1.77963 7.37276,-2.29496 19.61717,-2.453 16.50453,-0.21301 24.48882,1.34675 29.50477,5.77865 2.32245,2.0476 3.37374,2.21251 6.74748,1.05129 2.24687,-0.76957 6.25276,-1.40172 9.12491,-1.43608 4.37693,-0.055 5.49693,-0.64589 7.62699,-4.06773 1.6422,-2.62478 3.78601,-4.21202 6.24588,-4.62429 2.63166,-0.43288 3.86847,-1.46356 4.12957,-3.43558 0.19927,-1.49791 0.84516,-2.8103 1.37423,-2.8103 1.46356,0 1.02381,-18.99877 -0.5222,-22.8741" />
      <path
         inkscape:connector-curvature="0"
         id="path134"
         style="fill:#000000;fill-opacity:1;fill-rule:nonzero;stroke:none"
         d="m 293.70726,134.16743 c -0.27485,-1.50479 -1.49792,-3.46307 -2.6935,-4.31509 -1.23681,-0.88638 -3.03018,-3.18822 -4.12957,-5.31141 -5.23582,-10.1281 -8.02552,-14.37447 -9.4341,-14.37447 -0.89326,0 -2.32933,-1.12687 -3.18822,-2.50111 -0.8589,-1.37423 -2.5973,-2.5011 -3.87534,-2.5011 -1.24368,0 -3.81349,-1.04442 -5.55877,-2.25374 -4.2876,-2.975213 -7.37276,-4.163933 -12.1276,-4.672393 -6.50012,-0.69399 -12.46429,-2.15755 -14.12711,-3.47681 -2.45301,-1.95141 -40.86968,-2.88589 -87.74475,-2.13006 -17.25349,0.27485 -27.38158,-0.0825 -31.00268,-1.09251 -2.99583,-0.83829 -6.42454,-1.1681 -7.75067,-0.74896 -1.31927,0.41914 -5.37325,-0.13742 -9.12491,-1.25055 -3.75165,-1.11313 -7.6957,-1.64221 -8.87067,-1.18871 -1.25055,0.48098 -3.0027,0.0343 -4.25325,-1.07878 -2.62478,-2.33619 -10.98699,-4.69987 -13.37815,-3.77914 -0.97571,0.37792 -3.6211,-0.48785 -5.99852,-1.95141 -2.51485,-1.55975 -6.30773,-2.62478 -9.31043,-2.62478 -4.1227,0 -5.66184,0.7146 -8.31411,3.87534 -1.77963,2.12318 -3.25006,4.32196 -3.25006,4.87165 0,0.53595 -1.18871,1.29178 -2.56294,1.62846 -2.22626,0.54283 -2.46675,1.25056 -1.81399,5.37325 2.48736,15.872393 3.7173,21.307483 5.22209,23.121473 0.93447,1.12687 1.65595,2.76907 1.65595,3.75165 0,2.92024 8.25226,10.97325 12.1276,11.84588 1.95828,0.43976 6.24589,1.5254 9.75018,2.46675 3.42184,0.92761 12.746,2.02699 20.62036,2.43926 7.87435,0.41227 16.80686,1.28491 19.75459,1.93767 2.99583,0.66651 5.84049,0.907 6.43828,0.56344 0.58405,-0.34356 13.87287,0.57718 29.62158,2.06135 15.7487,1.48417 40.34059,3.02331 54.81126,3.43558 21.63042,0.6184 26.95557,1.14061 30.25373,2.94086 2.24687,1.22993 4.84417,2.18503 5.93669,2.18503 1.11999,0 1.93766,0.47411 1.93766,1.12687 0,0.64588 0.93448,1.44294 2.18503,1.87582 1.22307,0.41914 3.55926,1.5735 5.31141,2.62479 1.75215,1.05128 4.44564,1.87582 6.12908,1.87582 1.62159,0 3.90969,0.79706 4.99533,1.74528 1.09939,0.96196 4.56246,2.11632 7.68883,2.56294 4.74798,0.68025 6.06724,0.39166 7.99804,-1.74527 1.24368,-1.37423 3.41497,-2.56295 4.693,-2.56295 2.37055,0 7.13914,-4.45938 7.21472,-6.75435 0.0206,-0.55656 1.11313,-2.37742 2.48049,-4.1227 2.39117,-3.05079 2.89963,-7.24907 1.68344,-13.87287" />
    </g>
    <path
       d="m 220.7381,166.98851 c -0.0568,-1.83779 -0.17105,-3.68758 -0.25433,-4.11206 -0.0825,-0.42096 -0.14834,-1.20777 -0.14456,-1.73466 0.004,-0.52972 -0.0628,-3.6233 -0.14759,-6.87368 -0.14684,-5.62777 -0.26492,-7.55738 -0.52227,-8.53207 -0.1264,-0.48028 -1.15502,-1.67109 -1.71892,-1.99176 -0.68878,-0.38987 -3.27965,-0.0868 -3.61875,0.42449 -0.0508,0.0763 -0.5533,0.0975 -1.24208,0.0516 -0.72965,-0.0487 -1.37529,-0.0205 -1.74844,0.077 -0.35347,0.0918 -1.92783,0.17234 -3.89729,0.19918 -1.81731,0.0247 -3.89349,0.0798 -4.61256,0.12148 -0.72208,0.0431 -2.07921,0.11796 -3.02912,0.16739 -0.95066,0.0495 -1.99897,0.10524 -2.3411,0.1236 -1.83775,0.0996 -18.809,0.1123 -21.27423,0.0155 -1.59707,-0.0628 -3.75424,-0.13349 -4.8192,-0.1582 -1.06042,-0.0247 -2.3305,-0.1116 -2.82248,-0.19283 -1.11568,-0.18435 -5.01751,-0.51419 -6.12788,-0.51772 -0.45415,-0.002 -1.10736,-0.0833 -1.4525,-0.18293 -0.44051,-0.12642 -0.70014,-0.14126 -0.87421,-0.0509 -0.17183,0.0883 -0.35803,0.0827 -0.60553,-0.0197 -0.23086,-0.0947 -0.66153,-0.11794 -1.21256,-0.0643 -0.46777,0.0459 -0.92796,0.0402 -1.01879,-0.0127 -0.0916,-0.0529 -0.69484,-0.11583 -1.35561,-0.14126 -0.66154,-0.0247 -1.52818,-0.10453 -1.94902,-0.1801 -0.41175,-0.0735 -1.25267,-0.11725 -1.84534,-0.096 -1.07328,0.0381 -1.09296,0.0452 -1.5138,0.53327 -0.32925,0.38139 -0.42689,0.61659 -0.42689,1.02766 l 0,0.53325 -0.6199,-0.029 c -0.77128,-0.036 -1.35939,0.17798 -1.45477,0.53042 -0.0408,0.14763 -0.0113,1.74738 0.0636,3.54633 0.0764,1.80387 0.1317,5.73017 0.12414,8.73688 -0.008,3.00671 0.031,7.79963 0.0855,10.66508 0.14836,7.79893 0.13397,13.55313 -0.0401,15.99622 -0.0855,1.20846 -0.15517,2.97773 -0.15517,3.95808 0,0.97609 -0.062,2.01506 -0.13776,2.31241 -0.0757,0.29593 -0.19981,1.20777 -0.2755,2.01718 -0.0757,0.80942 -0.19983,1.79753 -0.27552,2.18458 -0.0764,0.39271 -0.21117,1.16892 -0.30275,1.74739 -0.16122,1.01494 -0.15669,1.05025 0.17181,1.426 0.1915,0.21896 0.49576,0.48875 0.70241,0.62367 0.28913,0.18858 0.33758,0.28676 0.23388,0.47533 -0.0704,0.12854 -0.28233,0.30089 -0.46095,0.37504 -0.48897,0.20412 -0.70014,0.77482 -0.50562,1.36598 0.20361,0.6166 1.12627,1.74455 1.46914,1.79611 0.15593,0.0234 0.45491,0.11654 0.68879,0.21472 0.22933,0.096 0.68878,0.23943 1.03241,0.32137 0.34667,0.0826 0.90224,0.22954 1.26025,0.33407 0.35801,0.10383 0.90449,0.18576 1.23904,0.18576 0.38224,0 0.83335,0.11654 1.24662,0.32136 0.43976,0.21896 0.85985,0.32137 1.31474,0.32137 0.37164,0 0.72587,0.0544 0.79853,0.12219 0.0712,0.0664 0.59871,0.18292 1.16337,0.25709 0.56463,0.0735 1.23601,0.19635 1.4805,0.2698 0.2475,0.0748 0.5056,0.1003 0.57827,0.0572 0.0704,-0.041 0.30956,0.008 0.5162,0.10312 0.21193,0.0989 1.24586,0.24933 2.29266,0.33407 1.0468,0.0848 2.20561,0.2126 2.56817,0.28394 0.83183,0.16386 7.07779,0.20624 9.9964,0.0685 2.59011,-0.12219 4.3378,-0.26415 7.42217,-0.60389 0.60552,-0.0663 1.84534,-0.1808 2.75362,-0.25426 2.25859,-0.18223 4.17658,-0.3602 5.57685,-0.51772 1.07404,-0.12006 4.5891,-0.3715 5.57685,-0.39835 1.21408,-0.034 6.66453,-0.24367 7.91719,-0.30511 0.79929,-0.0395 2.49248,-0.0975 3.78678,-0.12996 1.29431,-0.0318 3.042,-0.0806 3.91017,-0.10877 1.34954,-0.0446 1.6296,-0.0177 1.9967,0.19281 0.23463,0.13349 0.52378,0.24367 0.64034,0.24367 0.11581,0 0.44733,0.11231 0.72284,0.24368 0.58584,0.27969 2.07921,0.33902 2.89212,0.11371 0.44052,-0.12148 1.19742,-0.79458 1.19742,-1.06368 0,-0.0438 0.16274,-0.27616 0.37164,-0.53325 0.29216,-0.35881 0.36483,-0.57211 0.33682,-0.99588 -0.0348,-0.5269 -0.33455,-1.29253 -0.55708,-1.41966 -0.0666,-0.0381 -0.28157,-0.32137 -0.46777,-0.6166 -0.32243,-0.51206 -0.33681,-0.61094 -0.22706,-1.57433 0.0643,-0.56999 0.18392,-1.65768 0.26793,-2.44166 0.0841,-0.7833 0.24979,-1.89925 0.37165,-2.50524 0.12261,-0.60671 0.2634,-1.60612 0.31715,-2.24814 0.0529,-0.63639 0.16803,-1.85051 0.25507,-2.69876 0.35271,-3.43049 0.44279,-4.45674 0.56616,-6.39906 0.1862,-2.93112 0.26869,-11.43495 0.1491,-15.31533 z m -5.36643,12.09039 c -0.0733,0.98034 -0.20285,2.917 -0.28535,4.29217 -0.0833,1.37444 -0.21345,3.05613 -0.28914,3.7257 -0.0757,0.66816 -0.16122,1.45357 -0.18847,1.73467 -0.21117,2.15844 -0.50939,4.46168 -0.6252,4.83108 -0.0757,0.24154 -0.13625,0.70699 -0.13625,1.04108 0,1.27204 -0.59795,5.03306 -0.84092,5.29369 -0.0529,0.0566 -1.48655,0.1236 -3.18049,0.14832 -3.66266,0.0544 -6.82802,0.14197 -9.26676,0.25497 -2.68472,0.12501 -4.16825,0.14267 -4.43393,0.0529 -0.13624,-0.0459 -0.37164,-0.0113 -0.52301,0.0771 -0.15517,0.0904 -1.26706,0.2246 -2.54698,0.30724 -2.60299,0.16881 -4.7594,0.34114 -6.54115,0.52336 -0.685,0.07 -2.28508,0.20695 -3.57939,0.30653 -1.29505,0.0996 -2.77252,0.23874 -3.30539,0.31219 -3.97903,0.54808 -15.07975,0.53819 -16.66092,-0.0142 -0.23388,-0.0813 -0.5321,-0.12996 -0.68802,-0.11159 -0.15442,0.0177 -0.57828,-0.0303 -0.96429,-0.10948 -0.38527,-0.0791 -0.77962,-0.15679 -0.89466,-0.17657 -0.9643,-0.16457 -1.40482,-0.26345 -2.0656,-0.46546 -0.41326,-0.12642 -1.03921,-0.26627 -1.3768,-0.30794 -1.19817,-0.14691 -1.86197,-0.29099 -2.31385,-0.50217 -0.26113,-0.12148 -0.52832,-0.18294 -0.60552,-0.13844 -0.165,0.0953 -2.17609,-0.22743 -2.17609,-0.34962 0,-0.0508 0.16273,-0.26981 0.3724,-0.50147 0.33984,-0.37503 0.37012,-0.50077 0.35423,-1.45145 -0.0152,-0.91677 0.246,-4.43271 0.44127,-5.93642 0.11808,-0.909 0.48214,-10.20174 0.49048,-12.52758 0.005,-1.23885 -0.059,-4.00894 -0.14154,-6.16738 -0.13777,-3.61058 -0.16123,-22.41715 -0.031,-24.32274 l 0.0568,-0.82283 1.54181,-0.0664 c 1.45703,-0.0622 2.91937,-0.0169 8.7581,0.27122 3.33189,0.16457 5.01675,0.24579 8.26158,0.39977 1.47294,0.0705 3.49235,0.18645 4.47481,0.25849 1.51304,0.11018 2.46524,0.16388 4.54444,0.2564 0.48593,0.0212 15.21524,-0.15257 16.93644,-0.19988 0.90828,-0.0247 3.8829,-0.0749 6.60927,-0.11019 2.72636,-0.0353 5.34449,-0.0989 5.81755,-0.14126 0.63353,-0.0565 0.94233,-0.0261 1.17015,0.11584 0.22557,0.14054 0.69561,0.18927 1.72802,0.18009 0.78491,-0.009 1.44947,0.0184 1.48732,0.0572 0.0379,0.0389 0.0916,2.31947 0.11883,5.06908 0.0515,5.21671 0.1756,9.09287 0.302,9.41847 0.0408,0.10595 0.10597,1.20777 0.14381,2.44096 0.0379,1.2339 0.0877,2.2658 0.10975,2.2877 0.11354,0.10524 0.0643,9.13524 -0.0583,10.76678"
       style="fill:#000000;fill-opacity:1;fill-rule:nonzero;stroke:none"
       id="path1048"
       inkscape:connector-curvature="0" />
  </g>
</svg>
